<svg width="30" height="30" viewBox="0 0 30 30" fill="none" xmlns="http://www.w3.org/2000/svg">
<path d="M9.91409 28.7194C9.73081 28.9065 9.52005 29 9.28179 29C9.04353 29 8.83276 28.9065 8.64948 28.7194L7.27491 27.3166C7.09164 27.1296 7 26.9145 7 26.6713C7 26.4282 7.09164 26.2131 7.27491 26.026L18.079 15L7.27491 3.97395C7.09164 3.78691 7 3.57181 7 3.32866C7 3.0855 7.09164 2.87041 7.27491 2.68337L8.64948 1.28056C8.83276 1.09352 9.04353 1 9.28179 1C9.52005 1 9.73081 1.09352 9.91409 1.28056L22.7251 14.3547C22.9084 14.5417 23 14.7568 23 15C23 15.2432 22.9084 15.4582 22.7251 15.6453L9.91409 28.7194Z" fill="#ADADAD"/>
</svg>
