<svg fill="none" height="65" viewBox="0 0 65 65" width="65" xmlns="http://www.w3.org/2000/svg"><path clip-rule="evenodd" d="m32.5013 59.5846c14.9577 0 27.0833-12.1256 27.0833-27.0833s-12.1256-27.08333-27.0833-27.08333-27.08333 12.12563-27.08333 27.08333 12.12563 27.0833 27.08333 27.0833zm0-40.6237c1.4958 0 2.7083 1.2126 2.7083 2.7084v10.8333c0 1.4958-1.2125 2.7083-2.7083 2.7083s-2.7083-1.2125-2.7083-2.7083v-10.8333c0-1.4958 1.2125-2.7084 2.7083-2.7084zm0 21.6641c-1.4958 0-2.7083 1.2126-2.7083 2.7083 0 1.4958 1.2125 2.7084 2.7083 2.7084h.0271c1.4958 0 2.7083-1.2126 2.7083-2.7084 0-1.4957-1.2125-2.7083-2.7083-2.7083z" fill="#4098d8" fill-rule="evenodd"/></svg>