<svg width="65" height="65" viewBox="0 0 65 65" fill="none" xmlns="http://www.w3.org/2000/svg">
<path fill-rule="evenodd" clip-rule="evenodd" d="M32.5013 59.5846C47.459 59.5846 59.5846 47.459 59.5846 32.5013C59.5846 17.5436 47.459 5.41797 32.5013 5.41797C17.5436 5.41797 5.41797 17.5436 5.41797 32.5013C5.41797 47.459 17.5436 59.5846 32.5013 59.5846ZM32.5013 18.9609C33.9971 18.9609 35.2096 20.1735 35.2096 21.6693V32.5026C35.2096 33.9984 33.9971 35.2109 32.5013 35.2109C31.0055 35.2109 29.793 33.9984 29.793 32.5026V21.6693C29.793 20.1735 31.0055 18.9609 32.5013 18.9609ZM32.5013 40.625C31.0055 40.625 29.793 41.8376 29.793 43.3333C29.793 44.8291 31.0055 46.0417 32.5013 46.0417H32.5284C34.0242 46.0417 35.2367 44.8291 35.2367 43.3333C35.2367 41.8376 34.0242 40.625 32.5284 40.625H32.5013Z" fill="#4098D8"/>
</svg>
