<svg xmlns="http://www.w3.org/2000/svg" width="27" height="20" viewBox="0 0 27 20" fill="none">
  <path d="M23.7814 2.67969H3.73054C3.43308 2.67969 3.17969 2.92332 3.17969 3.2334V16.7661C3.17969 17.0651 3.42206 17.3198 3.73054 17.3198H23.7814C24.0788 17.3198 24.3322 17.0761 24.3322 16.7661V3.2334C24.3212 2.93439 24.0788 2.67969 23.7814 2.67969ZM13.3263 13.5213C11.5305 13.3663 10.1204 11.8491 10.1204 9.99973C10.1204 8.15034 11.5416 6.63318 13.3373 6.47814V13.5213H13.3263ZM13.9212 6.47814C15.717 6.63318 17.1382 8.15034 17.1382 9.99973C17.1382 11.8491 15.717 13.3663 13.9212 13.5213V6.47814ZM3.7746 7.28655H5.41613V12.6686H3.7746V7.28655ZM3.7746 13.2666H5.4602C5.75765 13.2666 6.01104 13.023 6.01104 12.7129V7.24226C6.01104 6.94325 5.76867 6.68855 5.4602 6.68855H3.7746V3.27769H13.3263V5.8912C11.2 6.04624 9.51443 7.82919 9.51443 9.99973C9.51443 12.1703 11.2 13.9643 13.3263 14.1083V16.7218H3.7746V13.2666ZM13.9212 16.7218V14.1083C16.0475 13.9532 17.7331 12.1703 17.7331 9.99973C17.7331 7.82919 16.0475 6.03517 13.9212 5.8912V3.27769H23.7373V6.68855H22.0517C21.7543 6.68855 21.5009 6.93218 21.5009 7.24226V12.7129C21.5009 13.0119 21.7432 13.2666 22.0517 13.2666H23.7373V16.7328H13.9212V16.7218ZM23.7373 7.28655V12.6686H22.0958V7.28655H23.7373Z" fill=""/>
  <path d="M26.75 17.9956V2.00443C26.75 0.89701 25.8576 0 24.7559 0H2.74407C1.65339 0 0.75 0.89701 0.75 2.00443V17.9956C0.75 19.103 1.64237 20 2.74407 20H24.7669C25.8576 20 26.75 19.103 26.75 17.9956ZM2.74407 18.1617C2.65593 18.1617 2.57881 18.0842 2.57881 17.9956V2.00443C2.57881 1.91584 2.65593 1.83832 2.74407 1.83832H24.7669C24.8551 1.83832 24.9322 1.91584 24.9322 2.00443V17.9956C24.9322 18.0842 24.8551 18.1617 24.7669 18.1617H2.74407Z" fill=""/>
</svg>