<svg width="80" height="63" viewBox="0 0 80 63" fill="none" xmlns="http://www.w3.org/2000/svg">  
<g clip-path="url(#clip0_4772_2013)">
<path d="M71.3789 43.7418C71.3789 43.7418 73.2266 39.2739 74.8022 37.5352C76.3778 35.7964 78.8268 34.8808 79.2964 33.1641C79.2964 33.1641 79.2261 37.0774 77.5979 39.6569C76.6236 41.2019 74.7671 42.0295 73.5602 42.4345C72.5727 42.7646 71.3833 43.7462 71.3833 43.7462L71.3789 43.7418Z" fill="url(#paint0_linear_4772_2013)"/>
<path d="M70.9705 13.0837C70.9705 13.0837 69.2633 9.88794 69.0658 8.06995C68.8683 6.25197 68.8288 3.45236 68.2012 2.45312C68.2012 2.45312 70.9266 4.66288 71.5586 6.82861C71.9361 8.12717 71.5455 9.84392 71.2207 10.9136C70.953 11.7852 70.9705 13.0837 70.9705 13.0837Z" fill="url(#paint1_linear_4772_2013)"/>
<path d="M70.9892 43.4937C70.9892 43.4937 73.2758 39.017 72.5385 37.2518C71.8012 35.4822 69.6199 33.924 69.282 32.9688C69.282 32.9688 68.3735 36.0721 68.6237 37.9385C68.7729 39.0566 69.835 40.3419 70.5021 41.2839C71.0463 42.0543 70.9936 43.4937 70.9936 43.4937H70.9892Z" fill="url(#paint2_linear_4772_2013)"/>
<path d="M70.3302 12.9085C70.3302 12.9085 69.4524 9.65107 67.6486 9.06561C66.3276 8.63423 63.9883 8.11921 63.2773 7.78906C63.2773 7.78906 64.1112 10.5358 66.0906 11.5791C66.7401 11.9224 67.5126 11.8344 68.3465 12.0721C69.4744 12.3935 70.3258 12.9085 70.3258 12.9085H70.3302Z" fill="url(#paint3_linear_4772_2013)"/>
<path d="M72.4013 20.2593C72.4013 20.2593 71.3348 16.1127 71.8834 13.8765C72.432 11.6403 74.2754 9.86637 73.9418 8.3125C73.9418 8.3125 75.6183 11.4334 75.3945 14.3563C75.2628 16.1039 74.565 17.244 73.7399 18.2696C73.0684 19.1104 72.4013 20.2549 72.4013 20.2549V20.2593Z" fill="url(#paint4_linear_4772_2013)"/>
<path d="M71.6344 20.5313C71.6344 20.5313 71.5159 15.6804 70.2036 14.6855C68.887 13.6907 66.0167 13.2549 65.332 12.6562C65.332 12.6562 66.1132 15.6804 67.1007 17.0846C67.6888 17.9253 69.4531 18.6648 70.3485 19.0478C71.0814 19.3603 71.6344 20.5313 71.6344 20.5313Z" fill="url(#paint5_linear_4772_2013)"/>
<path d="M67.8514 7.96645C66.2319 6.72071 64.1077 6.44339 63.2782 4.66502C61.9133 1.73336 60.2148 0.0078125 60.2148 0.0078125C60.2148 0.0078125 63.3924 0.109056 65.5429 2.35403C66.9561 3.83306 67.8514 7.96645 67.8514 7.96645Z" fill="url(#paint6_linear_4772_2013)"/>
<path d="M54.4781 62.6547C54.3289 62.8308 54.3684 62.9761 54.5527 63.0069C54.8775 63.0597 55.7114 61.6951 56.3434 61.1317C57.4977 60.106 58.2394 60.0576 59.0645 60.2601C59.5253 60.3701 60.188 60.6078 60.8771 61.2197C61.7197 61.968 62.7116 62.2938 63.6859 62.1177C66.8898 61.5454 67.8509 58.561 67.8509 58.561C67.8509 58.561 67.0521 59.0892 65.1957 58.6402C63.8483 58.3144 62.6677 57.9623 61.2238 58.1428C58.3315 58.5081 55.9747 60.894 54.4737 62.6591L54.4781 62.6547Z" fill="url(#paint7_linear_4772_2013)"/>
<path d="M62.1543 56.1404C62.1543 56.1404 65.5469 53.1515 67.4999 52.7113C69.4485 52.2711 72.4768 52.7113 73.6223 51.6328C73.6223 51.6328 72.3978 55.4757 68.5796 56.6378C67.0917 57.0912 65.4547 56.7522 64.3794 56.3208C63.5017 55.9643 62.1543 56.1404 62.1543 56.1404Z" fill="url(#paint8_linear_4772_2013)"/>
<path d="M61.9707 55.6682C61.9707 55.6682 65.688 52.9566 65.9426 50.9626C66.1972 48.9685 65.2448 46.3406 65.4203 45.3281C65.4203 45.3281 63.3488 47.4983 62.7212 49.3162C62.3438 50.4035 62.572 52.1511 62.6334 53.3792C62.6817 54.3784 61.9751 55.6682 61.9751 55.6682H61.9707Z" fill="url(#paint9_linear_4772_2013)"/>
<path d="M68.0742 50.4567C68.0742 50.4567 70.4442 46.4202 72.2085 45.1128C73.9728 43.8055 76.5271 44.3117 77.2688 42.7578C77.2688 42.7578 76.6632 46.473 74.7277 48.5859C73.569 49.8493 71.5107 49.5896 70.3125 49.682C69.3338 49.7568 68.0742 50.4611 68.0742 50.4611V50.4567Z" fill="url(#paint10_linear_4772_2013)"/>
<path d="M67.7503 50.1175C67.7503 50.1175 70.4143 46.7017 70.0632 44.8177C69.7121 42.9336 67.7986 40.9792 67.6669 39.9844C67.6669 39.9844 66.7496 41.415 66.7057 43.2902C66.6794 44.4127 67.4431 46.0678 67.8907 47.7845C68.1365 48.7266 67.7547 50.1175 67.7547 50.1175H67.7503Z" fill="url(#paint11_linear_4772_2013)"/>
<path d="M73.9162 28.3139C73.9162 28.3139 72.8848 24.2774 73.6748 22.0676C74.4034 20.0251 77.1113 18.4096 76.6856 16.6797C76.6856 16.6797 78.4981 19.0567 77.8618 22.0412C77.3922 24.2289 76.0404 25.1622 75.1846 26.1042C74.4824 26.8745 73.9206 28.3139 73.9206 28.3139H73.9162Z" fill="url(#paint12_linear_4772_2013)"/>
<path d="M73.4551 28.288C73.4551 28.288 73.2751 23.2611 71.7742 22.0813C70.2688 20.8972 68.1929 20.5319 67.4336 19.8672C67.4336 19.8672 67.9164 23.2522 69.0443 24.7577C69.7202 25.6601 70.9139 26.1047 71.9541 26.6021C72.8011 27.0071 73.4551 28.2924 73.4551 28.2924V28.288Z" fill="url(#paint13_linear_4772_2013)"/>
<path d="M73.7285 35.865C73.7285 35.865 73.9611 31.7889 74.8916 29.7948C75.822 27.8008 78.4772 26.3305 78.3938 24.6094C78.3938 24.6094 79.6271 28.1661 78.9293 30.9481C78.5123 32.612 76.5769 33.3692 75.5674 34.025C74.7423 34.5621 73.7285 35.865 73.7285 35.865Z" fill="url(#paint14_linear_4772_2013)"/>
<path d="M73.2413 36.144C73.2413 36.144 74.3605 31.9578 73.3028 30.3599C72.245 28.762 69.7215 27.7187 69.2124 26.8516C69.2124 26.8516 68.9227 28.5287 69.6161 30.2718C70.0287 31.3151 71.3761 32.5388 72.4557 33.943C73.0482 34.7134 73.2413 36.144 73.2413 36.144Z" fill="url(#paint15_linear_4772_2013)"/>
<path d="M56.0278 60.4294C56.0278 60.4294 56.5764 60.0245 57.6473 59.1617C58.7226 58.2989 60.3026 56.9299 60.6054 56.0715C61.2198 54.3548 60.974 51.8369 61.3295 50.9609C61.3295 50.9609 59.1351 52.5852 58.2003 54.1391C57.6385 55.0679 57.4718 56.6482 57.2786 57.7311C57.1206 58.6158 56.0234 60.4338 56.0234 60.4338L56.0278 60.4294Z" fill="url(#paint16_linear_4772_2013)"/>
<path d="M7.91746 43.7418C7.91746 43.7418 6.06976 39.2739 4.49417 37.5352C2.91858 35.7964 0.469606 34.8808 0 33.1641C0 33.1641 0.0702213 37.0774 1.69848 39.6569C2.6728 41.2019 4.52928 42.0295 5.73621 42.4345C6.7237 42.7646 7.91307 43.7462 7.91307 43.7462L7.91746 43.7418Z" fill="url(#paint17_linear_4772_2013)"/>
<path d="M8.32507 13.0837C8.32507 13.0837 10.0323 9.88794 10.2298 8.06995C10.4273 6.25197 10.4668 3.45236 11.0944 2.45312C11.0944 2.45312 8.36896 4.66288 7.73697 6.82861C7.35953 8.12717 7.75014 9.84392 8.07491 10.9136C8.34263 11.7852 8.32507 13.0837 8.32507 13.0837Z" fill="url(#paint18_linear_4772_2013)"/>
<path d="M8.30899 43.4937C8.30899 43.4937 6.02241 39.017 6.75973 37.2518C7.49706 35.4822 9.67831 33.924 10.0162 32.9688C10.0162 32.9688 10.9247 36.0721 10.6746 37.9385C10.5254 39.0566 9.46326 40.3419 8.79615 41.2839C8.25194 42.0543 8.3046 43.4937 8.3046 43.4937H8.30899Z" fill="url(#paint19_linear_4772_2013)"/>
<path d="M8.96289 12.9085C8.96289 12.9085 9.84066 9.65107 11.6445 9.06561C12.9655 8.63423 15.3048 8.11921 16.0158 7.78906C16.0158 7.78906 15.1819 10.5358 13.2025 11.5791C12.553 11.9224 11.7805 11.8344 10.9466 12.0721C9.81871 12.3935 8.96728 12.9085 8.96728 12.9085H8.96289Z" fill="url(#paint20_linear_4772_2013)"/>
<path d="M6.89071 20.2593C6.89071 20.2593 7.9572 16.1127 7.40859 13.8765C6.85999 11.6403 5.01668 9.86637 5.35023 8.3125C5.35023 8.3125 3.67369 11.4334 3.89752 14.3563C4.02919 16.1039 4.72701 17.244 5.55212 18.2696C6.22361 19.1104 6.89071 20.2549 6.89071 20.2549V20.2593Z" fill="url(#paint21_linear_4772_2013)"/>
<path d="M7.6582 20.5313C7.6582 20.5313 7.7767 15.6804 9.08896 14.6855C10.4056 13.6907 13.2759 13.2549 13.9606 12.6562C13.9606 12.6562 13.1794 15.6804 12.1919 17.0846C11.6038 17.9253 9.83945 18.6648 8.94413 19.0478C8.2112 19.3603 7.6582 20.5313 7.6582 20.5313Z" fill="url(#paint22_linear_4772_2013)"/>
<path d="M11.4453 7.96645C13.0648 6.72071 15.189 6.44339 16.0185 4.66502C17.3834 1.73336 19.0819 0.0078125 19.0819 0.0078125C19.0819 0.0078125 15.9044 0.109056 13.7538 2.35403C12.3406 3.83306 11.4453 7.96645 11.4453 7.96645Z" fill="url(#paint23_linear_4772_2013)"/>
<path d="M24.8142 62.6547C24.9634 62.8308 24.9239 62.9761 24.7396 63.0069C24.4148 63.0597 23.5809 61.6951 22.9489 61.1317C21.7947 60.106 21.053 60.0576 20.2279 60.2601C19.767 60.3701 19.1043 60.6078 18.4153 61.2197C17.5726 61.968 16.5807 62.2938 15.6064 62.1177C12.4026 61.5454 11.4414 58.561 11.4414 58.561C11.4414 58.561 12.2402 59.0892 14.0967 58.6402C15.444 58.3144 16.6246 57.9623 18.0685 58.1428C20.9608 58.5081 23.3176 60.894 24.8186 62.6591L24.8142 62.6547Z" fill="url(#paint24_linear_4772_2013)"/>
<path d="M17.138 56.1404C17.138 56.1404 13.7454 53.1515 11.7923 52.7113C9.84371 52.2711 6.81541 52.7113 5.66992 51.6328C5.66992 51.6328 6.89441 55.4757 10.7127 56.6378C12.2005 57.0912 13.8375 56.7522 14.9128 56.3208C15.7906 55.9643 17.138 56.1404 17.138 56.1404Z" fill="url(#paint25_linear_4772_2013)"/>
<path d="M17.3221 55.6682C17.3221 55.6682 13.6047 52.9566 13.3502 50.9626C13.0956 48.9685 14.048 46.3406 13.8724 45.3281C13.8724 45.3281 15.944 47.4983 16.5716 49.3162C16.949 50.4035 16.7208 52.1511 16.6594 53.3792C16.6111 54.3784 17.3177 55.6682 17.3177 55.6682H17.3221Z" fill="url(#paint26_linear_4772_2013)"/>
<path d="M11.218 50.4567C11.218 50.4567 8.84808 46.4202 7.08377 45.1128C5.31945 43.8055 2.76515 44.3117 2.02344 42.7578C2.02344 42.7578 2.6291 46.473 4.56457 48.5859C5.72323 49.8493 7.78159 49.5896 8.97974 49.682C9.95845 49.7568 11.218 50.4611 11.218 50.4611V50.4567Z" fill="url(#paint27_linear_4772_2013)"/>
<path d="M11.5421 50.1175C11.5421 50.1175 8.87805 46.7017 9.22915 44.8177C9.58026 42.9336 11.4938 40.9792 11.6255 39.9844C11.6255 39.9844 12.5427 41.415 12.5866 43.2902C12.6129 44.4127 11.8493 46.0678 11.4016 47.7845C11.1559 48.7266 11.5377 50.1175 11.5377 50.1175H11.5421Z" fill="url(#paint28_linear_4772_2013)"/>
<path d="M5.37594 28.3139C5.37594 28.3139 6.40731 24.2774 5.61732 22.0676C4.88878 20.0251 2.18086 18.4096 2.60658 16.6797C2.60658 16.6797 0.793992 19.0567 1.43037 22.0412C1.89998 24.2289 3.25174 25.1622 4.10756 26.1042C4.80978 26.8745 5.37155 28.3139 5.37155 28.3139H5.37594Z" fill="url(#paint29_linear_4772_2013)"/>
<path d="M5.83789 28.288C5.83789 28.288 6.01783 23.2611 7.51881 22.0813C9.02419 20.8972 11.1001 20.5319 11.8594 19.8672C11.8594 19.8672 11.3766 23.2522 10.2487 24.7577C9.57279 25.6601 8.37903 26.1047 7.33887 26.6021C6.49183 27.0071 5.83789 28.2924 5.83789 28.2924V28.288Z" fill="url(#paint30_linear_4772_2013)"/>
<path d="M5.56503 35.865C5.56503 35.865 5.33242 31.7889 4.40199 29.7948C3.47155 27.8008 0.816306 26.3305 0.899694 24.6094C0.899694 24.6094 -0.333569 28.1661 0.364256 30.9481C0.781196 32.612 2.71667 33.3692 3.7261 34.025C4.55121 34.5621 5.56503 35.865 5.56503 35.865Z" fill="url(#paint31_linear_4772_2013)"/>
<path d="M6.05713 36.144C6.05713 36.144 4.93798 31.9578 5.99569 30.3599C7.0534 28.762 9.57698 27.7187 10.0861 26.8516C10.0861 26.8516 10.3757 28.5287 9.68231 30.2718C9.26976 31.3151 7.92239 32.5388 6.84274 33.943C6.25024 34.7134 6.05713 36.144 6.05713 36.144Z" fill="url(#paint32_linear_4772_2013)"/>
<path d="M23.2646 60.4294C23.2646 60.4294 22.716 60.0245 21.6451 59.1617C20.5699 58.2989 18.9899 56.9299 18.687 56.0715C18.0726 54.3548 18.3184 51.8369 17.9629 50.9609C17.9629 50.9609 20.1573 52.5852 21.0921 54.1391C21.6539 55.0679 21.8207 56.6482 22.0138 57.7311C22.1718 58.6158 23.269 60.4338 23.269 60.4338L23.2646 60.4294Z" fill="url(#paint33_linear_4772_2013)"/>
</g>
<g clip-path="url(#clip1_4772_2013)">
<path d="M32.7823 39.0079C32.7246 38.9386 32.6928 38.896 32.6566 38.8587C31.458 37.6213 30.2621 36.3821 29.0549 35.1536C28.9636 35.0612 28.794 35.0079 28.6605 35.007C26.8041 34.9981 24.9478 34.9999 23.0905 35.0008C22.3836 35.0008 22.0013 35.3987 22.0013 36.1334C21.9996 38.0379 21.9996 39.9415 22.0013 41.8461C22.0013 42.5798 22.3845 42.9778 23.0914 42.9787C24.9478 42.9805 26.8041 42.984 28.6605 42.9707C28.8095 42.9698 28.9929 42.8872 29.0997 42.7788C30.126 41.7395 31.1386 40.6868 32.1563 39.6386C32.3595 39.429 32.567 39.2238 32.7814 39.0079H32.7823ZM31.6621 42.9654C31.7895 42.9733 31.8403 42.9796 31.892 42.9796C34.5336 42.9796 37.1753 42.9831 39.817 42.9716C39.9539 42.9716 40.1209 42.8774 40.2225 42.7735C41.384 41.5902 42.5361 40.3972 43.689 39.206C43.7545 39.1385 43.8122 39.0621 43.8673 38.9964C43.844 38.9546 43.8371 38.9315 43.8233 38.9173C42.6015 37.655 41.3823 36.391 40.1528 35.1376C40.0684 35.0514 39.9082 35.0079 39.7834 35.007C37.1736 34.9999 34.5646 35.0017 31.9548 35.0025C31.8774 35.0025 31.7999 35.0185 31.6767 35.031C32.6928 36.0783 33.6718 37.0874 34.6499 38.0974C35.281 38.7485 35.281 39.2318 34.6499 39.8838C33.6718 40.8938 32.6928 41.9029 31.6621 42.9654Z" fill="url(#paint34_linear_4772_2013)"/>
<path d="M55 39.256C54.2888 40.1567 53.494 40.9562 52.6993 41.7788C52.3661 42.1235 52.032 42.5934 51.6066 42.8217C51.1348 43.0748 50.5398 42.9842 50.0292 42.9825C47.6183 42.9745 45.2074 42.9798 42.7965 42.9798C43.3622 42.3402 43.9718 41.7415 44.5651 41.1303C45.0722 40.6071 46.2303 39.7996 46.2295 38.9904C46.2295 38.2131 45.1816 37.4874 44.6977 36.9881C44.0829 36.3539 43.494 35.6415 42.7991 35.1031C42.8146 35.0729 42.831 35.0436 42.8465 35.0134H47.1835V23.0319C44.0605 23.0319 40.9376 23.0363 37.8146 23.0257C37.2093 23.0239 36.3396 23.1838 35.8695 22.7006C35.4304 22.2484 35.5991 21.7199 35.9349 21.2784C36.79 20.1564 38.0075 18.9777 39.0855 18.0867C38.531 17.4729 37.9437 16.8884 37.3677 16.295C36.864 15.7753 35.8316 15.0567 35.6344 14.33C35.1609 12.5827 38.0307 13.0597 38.8375 13.0589C40.6052 13.0589 42.372 13.0589 44.1397 13.0589C45.0826 13.0589 46.0245 13.0589 46.9674 13.0589C47.5382 13.0589 48.3984 12.8847 48.8505 13.3538C49.3051 13.8264 49.1337 14.7271 49.1337 15.3205C49.1337 16.3074 49.1337 17.2934 49.1337 18.2803C49.1337 20.1298 49.1337 21.9793 49.1337 23.8296C49.1337 27.5534 49.1337 31.2781 49.1337 35.0019C50.3357 35.0019 51.3337 34.7967 52.2412 35.7223C53.1918 36.6914 54.1587 37.6544 54.9991 38.7257V39.2578L55 39.256Z" fill="url(#paint35_linear_4772_2013)"/>
<path d="M32.7814 39.0086C32.567 39.2244 32.3595 39.4296 32.1563 39.6393C31.1386 40.6875 30.126 41.7401 29.0997 42.7794C28.9929 42.8878 28.8095 42.9704 28.6605 42.9713C26.8041 42.9837 24.9478 42.9811 23.0914 42.9793C22.3845 42.9793 22.0013 42.5805 22.0013 41.8467C21.9996 39.9422 21.9996 38.0385 22.0013 36.134C22.0013 35.3994 22.3836 35.0023 23.0905 35.0014C24.9469 34.9996 26.8033 34.9978 28.6605 35.0076C28.794 35.0076 28.9636 35.0609 29.0549 35.1542C30.2621 36.3827 31.458 37.6219 32.6566 38.8593C32.6928 38.8966 32.7246 38.9393 32.7823 39.0086H32.7814Z" fill="url(#paint36_linear_4772_2013)"/>
<path d="M31.6621 42.9637C32.6919 41.9013 33.6709 40.8921 34.6499 39.8821C35.2819 39.2301 35.2819 38.7469 34.6499 38.0957C33.6709 37.0857 32.6919 36.0766 31.6767 35.0293C31.7999 35.016 31.8774 35.0009 31.9549 35.0009C34.5647 35 37.1736 34.9982 39.7834 35.0053C39.9082 35.0053 40.0684 35.0497 40.1528 35.1359C41.3823 36.3893 42.6024 37.6534 43.8234 38.9156C43.838 38.9307 43.8449 38.953 43.8673 38.9947C43.8113 39.0604 43.7545 39.1368 43.689 39.2043C42.5352 40.3956 41.384 41.5886 40.2225 42.7718C40.1209 42.8757 39.9539 42.969 39.817 42.9699C37.1753 42.9814 34.5337 42.9788 31.892 42.9779C31.8403 42.9779 31.7895 42.9717 31.6621 42.9637Z" fill="url(#paint37_linear_4772_2013)"/>
</g>
<defs>
<linearGradient id="paint0_linear_4772_2013" x1="85.3809" y1="-9.17702" x2="59.4164" y2="114.724" gradientUnits="userSpaceOnUse">
<stop stop-color="#916739"/>
<stop offset="0.04" stop-color="#946B3C"/>
<stop offset="0.07" stop-color="#9E7846"/>
<stop offset="0.11" stop-color="#AF8D57"/>
<stop offset="0.15" stop-color="#C8AA6E"/>
<stop offset="0.19" stop-color="#E6D08C"/>
<stop offset="0.21" stop-color="#F8E69D"/>
<stop offset="0.23" stop-color="#F4E097"/>
<stop offset="0.35" stop-color="#D2B269"/>
<stop offset="0.44" stop-color="#BC954C"/>
<stop offset="0.5" stop-color="#B58B42"/>
<stop offset="0.69" stop-color="#E0C06C"/>
<stop offset="0.72" stop-color="#C9A65D"/>
<stop offset="0.77" stop-color="#A17A43"/>
<stop offset="0.8" stop-color="#92693A"/>
</linearGradient>
<linearGradient id="paint1_linear_4772_2013" x1="75.1748" y1="-2.08772" x2="62.3719" y2="20.334" gradientUnits="userSpaceOnUse">
<stop stop-color="#916739"/>
<stop offset="0.04" stop-color="#946B3C"/>
<stop offset="0.07" stop-color="#9E7846"/>
<stop offset="0.11" stop-color="#AF8D57"/>
<stop offset="0.15" stop-color="#C8AA6E"/>
<stop offset="0.19" stop-color="#E6D08C"/>
<stop offset="0.21" stop-color="#F8E69D"/>
<stop offset="0.23" stop-color="#F4E097"/>
<stop offset="0.35" stop-color="#D2B269"/>
<stop offset="0.44" stop-color="#BC954C"/>
<stop offset="0.5" stop-color="#B58B42"/>
<stop offset="0.69" stop-color="#E0C06C"/>
<stop offset="0.72" stop-color="#C9A65D"/>
<stop offset="0.77" stop-color="#A17A43"/>
<stop offset="0.8" stop-color="#92693A"/>
</linearGradient>
<linearGradient id="paint2_linear_4772_2013" x1="81.1595" y1="24.412" x2="34.3689" y2="87.7337" gradientUnits="userSpaceOnUse">
<stop stop-color="#916739"/>
<stop offset="0.04" stop-color="#946B3C"/>
<stop offset="0.07" stop-color="#9E7846"/>
<stop offset="0.11" stop-color="#AF8D57"/>
<stop offset="0.15" stop-color="#C8AA6E"/>
<stop offset="0.19" stop-color="#E6D08C"/>
<stop offset="0.21" stop-color="#F8E69D"/>
<stop offset="0.23" stop-color="#F4E097"/>
<stop offset="0.35" stop-color="#D2B269"/>
<stop offset="0.44" stop-color="#BC954C"/>
<stop offset="0.5" stop-color="#B58B42"/>
<stop offset="0.69" stop-color="#E0C06C"/>
<stop offset="0.72" stop-color="#C9A65D"/>
<stop offset="0.77" stop-color="#A17A43"/>
<stop offset="0.8" stop-color="#92693A"/>
</linearGradient>
<linearGradient id="paint3_linear_4772_2013" x1="69.1877" y1="2.2768" x2="63.5296" y2="21.3178" gradientUnits="userSpaceOnUse">
<stop offset="0.2" stop-color="#92693A"/>
<stop offset="0.23" stop-color="#A17A43"/>
<stop offset="0.28" stop-color="#C9A65D"/>
<stop offset="0.31" stop-color="#E0C06C"/>
<stop offset="0.5" stop-color="#B58B42"/>
<stop offset="0.56" stop-color="#BC954C"/>
<stop offset="0.65" stop-color="#D2B269"/>
<stop offset="0.77" stop-color="#F4E097"/>
<stop offset="0.79" stop-color="#F8E69D"/>
<stop offset="0.81" stop-color="#E6D08C"/>
<stop offset="0.85" stop-color="#C8AA6E"/>
<stop offset="0.89" stop-color="#AF8D57"/>
<stop offset="0.93" stop-color="#9E7846"/>
<stop offset="0.96" stop-color="#946B3C"/>
<stop offset="1" stop-color="#916739"/>
</linearGradient>
<linearGradient id="paint4_linear_4772_2013" x1="77.6084" y1="-16.7202" x2="61.1981" y2="109.526" gradientUnits="userSpaceOnUse">
<stop stop-color="#916739"/>
<stop offset="0.04" stop-color="#946B3C"/>
<stop offset="0.07" stop-color="#9E7846"/>
<stop offset="0.11" stop-color="#AF8D57"/>
<stop offset="0.15" stop-color="#C8AA6E"/>
<stop offset="0.19" stop-color="#E6D08C"/>
<stop offset="0.21" stop-color="#F8E69D"/>
<stop offset="0.23" stop-color="#F4E097"/>
<stop offset="0.35" stop-color="#D2B269"/>
<stop offset="0.44" stop-color="#BC954C"/>
<stop offset="0.5" stop-color="#B58B42"/>
<stop offset="0.69" stop-color="#E0C06C"/>
<stop offset="0.72" stop-color="#C9A65D"/>
<stop offset="0.77" stop-color="#A17A43"/>
<stop offset="0.8" stop-color="#92693A"/>
</linearGradient>
<linearGradient id="paint5_linear_4772_2013" x1="72.1991" y1="13.373" x2="48.4353" y2="50.1995" gradientUnits="userSpaceOnUse">
<stop stop-color="#916739"/>
<stop offset="0.04" stop-color="#946B3C"/>
<stop offset="0.07" stop-color="#9E7846"/>
<stop offset="0.11" stop-color="#AF8D57"/>
<stop offset="0.15" stop-color="#C8AA6E"/>
<stop offset="0.19" stop-color="#E6D08C"/>
<stop offset="0.21" stop-color="#F8E69D"/>
<stop offset="0.23" stop-color="#F4E097"/>
<stop offset="0.35" stop-color="#D2B269"/>
<stop offset="0.44" stop-color="#BC954C"/>
<stop offset="0.5" stop-color="#B58B42"/>
<stop offset="0.69" stop-color="#E0C06C"/>
<stop offset="0.72" stop-color="#C9A65D"/>
<stop offset="0.77" stop-color="#A17A43"/>
<stop offset="0.8" stop-color="#92693A"/>
</linearGradient>
<linearGradient id="paint6_linear_4772_2013" x1="63.6812" y1="-8.04336" x2="65.9255" y2="65.9591" gradientUnits="userSpaceOnUse">
<stop stop-color="#916739"/>
<stop offset="0.04" stop-color="#946B3C"/>
<stop offset="0.07" stop-color="#9E7846"/>
<stop offset="0.11" stop-color="#AF8D57"/>
<stop offset="0.15" stop-color="#C8AA6E"/>
<stop offset="0.19" stop-color="#E6D08C"/>
<stop offset="0.21" stop-color="#F8E69D"/>
<stop offset="0.23" stop-color="#F4E097"/>
<stop offset="0.35" stop-color="#D2B269"/>
<stop offset="0.44" stop-color="#BC954C"/>
<stop offset="0.5" stop-color="#B58B42"/>
<stop offset="0.69" stop-color="#E0C06C"/>
<stop offset="0.72" stop-color="#C9A65D"/>
<stop offset="0.77" stop-color="#A17A43"/>
<stop offset="0.8" stop-color="#92693A"/>
</linearGradient>
<linearGradient id="paint7_linear_4772_2013" x1="53.5382" y1="33.4616" x2="70.1576" y2="85.8559" gradientUnits="userSpaceOnUse">
<stop stop-color="#916739"/>
<stop offset="0.04" stop-color="#946B3C"/>
<stop offset="0.07" stop-color="#9E7846"/>
<stop offset="0.11" stop-color="#AF8D57"/>
<stop offset="0.15" stop-color="#C8AA6E"/>
<stop offset="0.19" stop-color="#E6D08C"/>
<stop offset="0.21" stop-color="#F8E69D"/>
<stop offset="0.23" stop-color="#F4E097"/>
<stop offset="0.35" stop-color="#D2B269"/>
<stop offset="0.44" stop-color="#BC954C"/>
<stop offset="0.5" stop-color="#B58B42"/>
<stop offset="0.69" stop-color="#E0C06C"/>
<stop offset="0.72" stop-color="#C9A65D"/>
<stop offset="0.77" stop-color="#A17A43"/>
<stop offset="0.8" stop-color="#92693A"/>
</linearGradient>
<linearGradient id="paint8_linear_4772_2013" x1="63.0315" y1="26.0105" x2="70.5156" y2="68.673" gradientUnits="userSpaceOnUse">
<stop stop-color="#916739"/>
<stop offset="0.04" stop-color="#946B3C"/>
<stop offset="0.07" stop-color="#9E7846"/>
<stop offset="0.11" stop-color="#AF8D57"/>
<stop offset="0.15" stop-color="#C8AA6E"/>
<stop offset="0.19" stop-color="#E6D08C"/>
<stop offset="0.21" stop-color="#F8E69D"/>
<stop offset="0.23" stop-color="#F4E097"/>
<stop offset="0.35" stop-color="#D2B269"/>
<stop offset="0.44" stop-color="#BC954C"/>
<stop offset="0.5" stop-color="#B58B42"/>
<stop offset="0.69" stop-color="#E0C06C"/>
<stop offset="0.72" stop-color="#C9A65D"/>
<stop offset="0.77" stop-color="#A17A43"/>
<stop offset="0.8" stop-color="#92693A"/>
</linearGradient>
<linearGradient id="paint9_linear_4772_2013" x1="79.9693" y1="-6.02642" x2="48.9959" y2="104.745" gradientUnits="userSpaceOnUse">
<stop stop-color="#916739"/>
<stop offset="0.04" stop-color="#946B3C"/>
<stop offset="0.07" stop-color="#9E7846"/>
<stop offset="0.11" stop-color="#AF8D57"/>
<stop offset="0.15" stop-color="#C8AA6E"/>
<stop offset="0.19" stop-color="#E6D08C"/>
<stop offset="0.21" stop-color="#F8E69D"/>
<stop offset="0.23" stop-color="#F4E097"/>
<stop offset="0.35" stop-color="#D2B269"/>
<stop offset="0.44" stop-color="#BC954C"/>
<stop offset="0.5" stop-color="#B58B42"/>
<stop offset="0.69" stop-color="#E0C06C"/>
<stop offset="0.72" stop-color="#C9A65D"/>
<stop offset="0.77" stop-color="#A17A43"/>
<stop offset="0.8" stop-color="#92693A"/>
</linearGradient>
<linearGradient id="paint10_linear_4772_2013" x1="69.4676" y1="9.10945" x2="75.7002" y2="81.6063" gradientUnits="userSpaceOnUse">
<stop stop-color="#916739"/>
<stop offset="0.04" stop-color="#946B3C"/>
<stop offset="0.07" stop-color="#9E7846"/>
<stop offset="0.11" stop-color="#AF8D57"/>
<stop offset="0.15" stop-color="#C8AA6E"/>
<stop offset="0.19" stop-color="#E6D08C"/>
<stop offset="0.21" stop-color="#F8E69D"/>
<stop offset="0.23" stop-color="#F4E097"/>
<stop offset="0.35" stop-color="#D2B269"/>
<stop offset="0.44" stop-color="#BC954C"/>
<stop offset="0.5" stop-color="#B58B42"/>
<stop offset="0.69" stop-color="#E0C06C"/>
<stop offset="0.72" stop-color="#C9A65D"/>
<stop offset="0.77" stop-color="#A17A43"/>
<stop offset="0.8" stop-color="#92693A"/>
</linearGradient>
<linearGradient id="paint11_linear_4772_2013" x1="81.2242" y1="9.7686" x2="45.9904" y2="103.246" gradientUnits="userSpaceOnUse">
<stop stop-color="#916739"/>
<stop offset="0.04" stop-color="#946B3C"/>
<stop offset="0.07" stop-color="#9E7846"/>
<stop offset="0.11" stop-color="#AF8D57"/>
<stop offset="0.15" stop-color="#C8AA6E"/>
<stop offset="0.19" stop-color="#E6D08C"/>
<stop offset="0.21" stop-color="#F8E69D"/>
<stop offset="0.23" stop-color="#F4E097"/>
<stop offset="0.35" stop-color="#D2B269"/>
<stop offset="0.44" stop-color="#BC954C"/>
<stop offset="0.5" stop-color="#B58B42"/>
<stop offset="0.69" stop-color="#E0C06C"/>
<stop offset="0.72" stop-color="#C9A65D"/>
<stop offset="0.77" stop-color="#A17A43"/>
<stop offset="0.8" stop-color="#92693A"/>
</linearGradient>
<linearGradient id="paint12_linear_4772_2013" x1="63.0307" y1="-17.3769" x2="95.565" y2="86.1523" gradientUnits="userSpaceOnUse">
<stop stop-color="#916739"/>
<stop offset="0.04" stop-color="#946B3C"/>
<stop offset="0.07" stop-color="#9E7846"/>
<stop offset="0.11" stop-color="#AF8D57"/>
<stop offset="0.15" stop-color="#C8AA6E"/>
<stop offset="0.19" stop-color="#E6D08C"/>
<stop offset="0.21" stop-color="#F8E69D"/>
<stop offset="0.23" stop-color="#F4E097"/>
<stop offset="0.35" stop-color="#D2B269"/>
<stop offset="0.44" stop-color="#BC954C"/>
<stop offset="0.5" stop-color="#B58B42"/>
<stop offset="0.69" stop-color="#E0C06C"/>
<stop offset="0.72" stop-color="#C9A65D"/>
<stop offset="0.77" stop-color="#A17A43"/>
<stop offset="0.8" stop-color="#92693A"/>
</linearGradient>
<linearGradient id="paint13_linear_4772_2013" x1="62.0007" y1="18.8986" x2="78.6221" y2="28.6261" gradientUnits="userSpaceOnUse">
<stop stop-color="#916739"/>
<stop offset="0.04" stop-color="#946B3C"/>
<stop offset="0.07" stop-color="#9E7846"/>
<stop offset="0.11" stop-color="#AF8D57"/>
<stop offset="0.15" stop-color="#C8AA6E"/>
<stop offset="0.19" stop-color="#E6D08C"/>
<stop offset="0.21" stop-color="#F8E69D"/>
<stop offset="0.23" stop-color="#F4E097"/>
<stop offset="0.35" stop-color="#D2B269"/>
<stop offset="0.44" stop-color="#BC954C"/>
<stop offset="0.5" stop-color="#B58B42"/>
<stop offset="0.69" stop-color="#E0C06C"/>
<stop offset="0.72" stop-color="#C9A65D"/>
<stop offset="0.77" stop-color="#A17A43"/>
<stop offset="0.8" stop-color="#92693A"/>
</linearGradient>
<linearGradient id="paint14_linear_4772_2013" x1="55.5961" y1="-0.917473" x2="95.3084" y2="59.2061" gradientUnits="userSpaceOnUse">
<stop stop-color="#916739"/>
<stop offset="0.04" stop-color="#946B3C"/>
<stop offset="0.07" stop-color="#9E7846"/>
<stop offset="0.11" stop-color="#AF8D57"/>
<stop offset="0.15" stop-color="#C8AA6E"/>
<stop offset="0.19" stop-color="#E6D08C"/>
<stop offset="0.21" stop-color="#F8E69D"/>
<stop offset="0.23" stop-color="#F4E097"/>
<stop offset="0.35" stop-color="#D2B269"/>
<stop offset="0.44" stop-color="#BC954C"/>
<stop offset="0.5" stop-color="#B58B42"/>
<stop offset="0.69" stop-color="#E0C06C"/>
<stop offset="0.72" stop-color="#C9A65D"/>
<stop offset="0.77" stop-color="#A17A43"/>
<stop offset="0.8" stop-color="#92693A"/>
</linearGradient>
<linearGradient id="paint15_linear_4772_2013" x1="69.8985" y1="-6.32251" x2="74.102" y2="93.5226" gradientUnits="userSpaceOnUse">
<stop stop-color="#916739"/>
<stop offset="0.04" stop-color="#946B3C"/>
<stop offset="0.07" stop-color="#9E7846"/>
<stop offset="0.11" stop-color="#AF8D57"/>
<stop offset="0.15" stop-color="#C8AA6E"/>
<stop offset="0.19" stop-color="#E6D08C"/>
<stop offset="0.21" stop-color="#F8E69D"/>
<stop offset="0.23" stop-color="#F4E097"/>
<stop offset="0.35" stop-color="#D2B269"/>
<stop offset="0.44" stop-color="#BC954C"/>
<stop offset="0.5" stop-color="#B58B42"/>
<stop offset="0.69" stop-color="#E0C06C"/>
<stop offset="0.72" stop-color="#C9A65D"/>
<stop offset="0.77" stop-color="#A17A43"/>
<stop offset="0.8" stop-color="#92693A"/>
</linearGradient>
<linearGradient id="paint16_linear_4772_2013" x1="59.9519" y1="32.6957" x2="54.2787" y2="135.582" gradientUnits="userSpaceOnUse">
<stop stop-color="#916739"/>
<stop offset="0.04" stop-color="#946B3C"/>
<stop offset="0.07" stop-color="#9E7846"/>
<stop offset="0.11" stop-color="#AF8D57"/>
<stop offset="0.15" stop-color="#C8AA6E"/>
<stop offset="0.19" stop-color="#E6D08C"/>
<stop offset="0.21" stop-color="#F8E69D"/>
<stop offset="0.23" stop-color="#F4E097"/>
<stop offset="0.35" stop-color="#D2B269"/>
<stop offset="0.44" stop-color="#BC954C"/>
<stop offset="0.5" stop-color="#B58B42"/>
<stop offset="0.69" stop-color="#E0C06C"/>
<stop offset="0.72" stop-color="#C9A65D"/>
<stop offset="0.77" stop-color="#A17A43"/>
<stop offset="0.8" stop-color="#92693A"/>
</linearGradient>
<linearGradient id="paint17_linear_4772_2013" x1="-6.08516" y1="-9.17433" x2="19.8775" y2="114.722" gradientUnits="userSpaceOnUse">
<stop stop-color="#916739"/>
<stop offset="0.04" stop-color="#946B3C"/>
<stop offset="0.07" stop-color="#9E7846"/>
<stop offset="0.11" stop-color="#AF8D57"/>
<stop offset="0.15" stop-color="#C8AA6E"/>
<stop offset="0.19" stop-color="#E6D08C"/>
<stop offset="0.21" stop-color="#F8E69D"/>
<stop offset="0.23" stop-color="#F4E097"/>
<stop offset="0.35" stop-color="#D2B269"/>
<stop offset="0.44" stop-color="#BC954C"/>
<stop offset="0.5" stop-color="#B58B42"/>
<stop offset="0.69" stop-color="#E0C06C"/>
<stop offset="0.72" stop-color="#C9A65D"/>
<stop offset="0.77" stop-color="#A17A43"/>
<stop offset="0.8" stop-color="#92693A"/>
</linearGradient>
<linearGradient id="paint18_linear_4772_2013" x1="4.11525" y1="-2.09013" x2="16.9182" y2="20.3316" gradientUnits="userSpaceOnUse">
<stop stop-color="#916739"/>
<stop offset="0.04" stop-color="#946B3C"/>
<stop offset="0.07" stop-color="#9E7846"/>
<stop offset="0.11" stop-color="#AF8D57"/>
<stop offset="0.15" stop-color="#C8AA6E"/>
<stop offset="0.19" stop-color="#E6D08C"/>
<stop offset="0.21" stop-color="#F8E69D"/>
<stop offset="0.23" stop-color="#F4E097"/>
<stop offset="0.35" stop-color="#D2B269"/>
<stop offset="0.44" stop-color="#BC954C"/>
<stop offset="0.5" stop-color="#B58B42"/>
<stop offset="0.69" stop-color="#E0C06C"/>
<stop offset="0.72" stop-color="#C9A65D"/>
<stop offset="0.77" stop-color="#A17A43"/>
<stop offset="0.8" stop-color="#92693A"/>
</linearGradient>
<linearGradient id="paint19_linear_4772_2013" x1="-1.8536" y1="24.4089" x2="44.9352" y2="87.7267" gradientUnits="userSpaceOnUse">
<stop stop-color="#916739"/>
<stop offset="0.04" stop-color="#946B3C"/>
<stop offset="0.07" stop-color="#9E7846"/>
<stop offset="0.11" stop-color="#AF8D57"/>
<stop offset="0.15" stop-color="#C8AA6E"/>
<stop offset="0.19" stop-color="#E6D08C"/>
<stop offset="0.21" stop-color="#F8E69D"/>
<stop offset="0.23" stop-color="#F4E097"/>
<stop offset="0.35" stop-color="#D2B269"/>
<stop offset="0.44" stop-color="#BC954C"/>
<stop offset="0.5" stop-color="#B58B42"/>
<stop offset="0.69" stop-color="#E0C06C"/>
<stop offset="0.72" stop-color="#C9A65D"/>
<stop offset="0.77" stop-color="#A17A43"/>
<stop offset="0.8" stop-color="#92693A"/>
</linearGradient>
<linearGradient id="paint20_linear_4772_2013" x1="10.1046" y1="2.27657" x2="15.7595" y2="21.3123" gradientUnits="userSpaceOnUse">
<stop offset="0.2" stop-color="#92693A"/>
<stop offset="0.23" stop-color="#A17A43"/>
<stop offset="0.28" stop-color="#C9A65D"/>
<stop offset="0.31" stop-color="#E0C06C"/>
<stop offset="0.5" stop-color="#B58B42"/>
<stop offset="0.56" stop-color="#BC954C"/>
<stop offset="0.65" stop-color="#D2B269"/>
<stop offset="0.77" stop-color="#F4E097"/>
<stop offset="0.79" stop-color="#F8E69D"/>
<stop offset="0.81" stop-color="#E6D08C"/>
<stop offset="0.85" stop-color="#C8AA6E"/>
<stop offset="0.89" stop-color="#AF8D57"/>
<stop offset="0.93" stop-color="#9E7846"/>
<stop offset="0.96" stop-color="#946B3C"/>
<stop offset="1" stop-color="#916739"/>
</linearGradient>
<linearGradient id="paint21_linear_4772_2013" x1="1.68045" y1="-16.7202" x2="18.0866" y2="109.528" gradientUnits="userSpaceOnUse">
<stop stop-color="#916739"/>
<stop offset="0.04" stop-color="#946B3C"/>
<stop offset="0.07" stop-color="#9E7846"/>
<stop offset="0.11" stop-color="#AF8D57"/>
<stop offset="0.15" stop-color="#C8AA6E"/>
<stop offset="0.19" stop-color="#E6D08C"/>
<stop offset="0.21" stop-color="#F8E69D"/>
<stop offset="0.23" stop-color="#F4E097"/>
<stop offset="0.35" stop-color="#D2B269"/>
<stop offset="0.44" stop-color="#BC954C"/>
<stop offset="0.5" stop-color="#B58B42"/>
<stop offset="0.69" stop-color="#E0C06C"/>
<stop offset="0.72" stop-color="#C9A65D"/>
<stop offset="0.77" stop-color="#A17A43"/>
<stop offset="0.8" stop-color="#92693A"/>
</linearGradient>
<linearGradient id="paint22_linear_4772_2013" x1="7.23568" y1="13.3212" x2="30.9954" y2="50.1492" gradientUnits="userSpaceOnUse">
<stop stop-color="#916739"/>
<stop offset="0.04" stop-color="#946B3C"/>
<stop offset="0.07" stop-color="#9E7846"/>
<stop offset="0.11" stop-color="#AF8D57"/>
<stop offset="0.15" stop-color="#C8AA6E"/>
<stop offset="0.19" stop-color="#E6D08C"/>
<stop offset="0.21" stop-color="#F8E69D"/>
<stop offset="0.23" stop-color="#F4E097"/>
<stop offset="0.35" stop-color="#D2B269"/>
<stop offset="0.44" stop-color="#BC954C"/>
<stop offset="0.5" stop-color="#B58B42"/>
<stop offset="0.69" stop-color="#E0C06C"/>
<stop offset="0.72" stop-color="#C9A65D"/>
<stop offset="0.77" stop-color="#A17A43"/>
<stop offset="0.8" stop-color="#92693A"/>
</linearGradient>
<linearGradient id="paint23_linear_4772_2013" x1="15.6154" y1="-8.04539" x2="13.371" y2="65.9571" gradientUnits="userSpaceOnUse">
<stop stop-color="#916739"/>
<stop offset="0.04" stop-color="#946B3C"/>
<stop offset="0.07" stop-color="#9E7846"/>
<stop offset="0.11" stop-color="#AF8D57"/>
<stop offset="0.15" stop-color="#C8AA6E"/>
<stop offset="0.19" stop-color="#E6D08C"/>
<stop offset="0.21" stop-color="#F8E69D"/>
<stop offset="0.23" stop-color="#F4E097"/>
<stop offset="0.35" stop-color="#D2B269"/>
<stop offset="0.44" stop-color="#BC954C"/>
<stop offset="0.5" stop-color="#B58B42"/>
<stop offset="0.69" stop-color="#E0C06C"/>
<stop offset="0.72" stop-color="#C9A65D"/>
<stop offset="0.77" stop-color="#A17A43"/>
<stop offset="0.8" stop-color="#92693A"/>
</linearGradient>
<linearGradient id="paint24_linear_4772_2013" x1="25.7495" y1="33.4613" x2="9.13001" y2="85.8556" gradientUnits="userSpaceOnUse">
<stop stop-color="#916739"/>
<stop offset="0.04" stop-color="#946B3C"/>
<stop offset="0.07" stop-color="#9E7846"/>
<stop offset="0.11" stop-color="#AF8D57"/>
<stop offset="0.15" stop-color="#C8AA6E"/>
<stop offset="0.19" stop-color="#E6D08C"/>
<stop offset="0.21" stop-color="#F8E69D"/>
<stop offset="0.23" stop-color="#F4E097"/>
<stop offset="0.35" stop-color="#D2B269"/>
<stop offset="0.44" stop-color="#BC954C"/>
<stop offset="0.5" stop-color="#B58B42"/>
<stop offset="0.69" stop-color="#E0C06C"/>
<stop offset="0.72" stop-color="#C9A65D"/>
<stop offset="0.77" stop-color="#A17A43"/>
<stop offset="0.8" stop-color="#92693A"/>
</linearGradient>
<linearGradient id="paint25_linear_4772_2013" x1="16.2627" y1="26.0097" x2="8.78296" y2="68.672" gradientUnits="userSpaceOnUse">
<stop stop-color="#916739"/>
<stop offset="0.04" stop-color="#946B3C"/>
<stop offset="0.07" stop-color="#9E7846"/>
<stop offset="0.11" stop-color="#AF8D57"/>
<stop offset="0.15" stop-color="#C8AA6E"/>
<stop offset="0.19" stop-color="#E6D08C"/>
<stop offset="0.21" stop-color="#F8E69D"/>
<stop offset="0.23" stop-color="#F4E097"/>
<stop offset="0.35" stop-color="#D2B269"/>
<stop offset="0.44" stop-color="#BC954C"/>
<stop offset="0.5" stop-color="#B58B42"/>
<stop offset="0.69" stop-color="#E0C06C"/>
<stop offset="0.72" stop-color="#C9A65D"/>
<stop offset="0.77" stop-color="#A17A43"/>
<stop offset="0.8" stop-color="#92693A"/>
</linearGradient>
<linearGradient id="paint26_linear_4772_2013" x1="-0.67023" y1="-6.02744" x2="30.2986" y2="104.739" gradientUnits="userSpaceOnUse">
<stop stop-color="#916739"/>
<stop offset="0.04" stop-color="#946B3C"/>
<stop offset="0.07" stop-color="#9E7846"/>
<stop offset="0.11" stop-color="#AF8D57"/>
<stop offset="0.15" stop-color="#C8AA6E"/>
<stop offset="0.19" stop-color="#E6D08C"/>
<stop offset="0.21" stop-color="#F8E69D"/>
<stop offset="0.23" stop-color="#F4E097"/>
<stop offset="0.35" stop-color="#D2B269"/>
<stop offset="0.44" stop-color="#BC954C"/>
<stop offset="0.5" stop-color="#B58B42"/>
<stop offset="0.69" stop-color="#E0C06C"/>
<stop offset="0.72" stop-color="#C9A65D"/>
<stop offset="0.77" stop-color="#A17A43"/>
<stop offset="0.8" stop-color="#92693A"/>
</linearGradient>
<linearGradient id="paint27_linear_4772_2013" x1="9.81903" y1="9.10509" x2="3.59086" y2="81.6013" gradientUnits="userSpaceOnUse">
<stop stop-color="#916739"/>
<stop offset="0.04" stop-color="#946B3C"/>
<stop offset="0.07" stop-color="#9E7846"/>
<stop offset="0.11" stop-color="#AF8D57"/>
<stop offset="0.15" stop-color="#C8AA6E"/>
<stop offset="0.19" stop-color="#E6D08C"/>
<stop offset="0.21" stop-color="#F8E69D"/>
<stop offset="0.23" stop-color="#F4E097"/>
<stop offset="0.35" stop-color="#D2B269"/>
<stop offset="0.44" stop-color="#BC954C"/>
<stop offset="0.5" stop-color="#B58B42"/>
<stop offset="0.69" stop-color="#E0C06C"/>
<stop offset="0.72" stop-color="#C9A65D"/>
<stop offset="0.77" stop-color="#A17A43"/>
<stop offset="0.8" stop-color="#92693A"/>
</linearGradient>
<linearGradient id="paint28_linear_4772_2013" x1="-1.93744" y1="9.76425" x2="33.3013" y2="103.245" gradientUnits="userSpaceOnUse">
<stop stop-color="#916739"/>
<stop offset="0.04" stop-color="#946B3C"/>
<stop offset="0.07" stop-color="#9E7846"/>
<stop offset="0.11" stop-color="#AF8D57"/>
<stop offset="0.15" stop-color="#C8AA6E"/>
<stop offset="0.19" stop-color="#E6D08C"/>
<stop offset="0.21" stop-color="#F8E69D"/>
<stop offset="0.23" stop-color="#F4E097"/>
<stop offset="0.35" stop-color="#D2B269"/>
<stop offset="0.44" stop-color="#BC954C"/>
<stop offset="0.5" stop-color="#B58B42"/>
<stop offset="0.69" stop-color="#E0C06C"/>
<stop offset="0.72" stop-color="#C9A65D"/>
<stop offset="0.77" stop-color="#A17A43"/>
<stop offset="0.8" stop-color="#92693A"/>
</linearGradient>
<linearGradient id="paint29_linear_4772_2013" x1="16.2632" y1="-17.3805" x2="-16.2711" y2="86.1487" gradientUnits="userSpaceOnUse">
<stop stop-color="#916739"/>
<stop offset="0.04" stop-color="#946B3C"/>
<stop offset="0.07" stop-color="#9E7846"/>
<stop offset="0.11" stop-color="#AF8D57"/>
<stop offset="0.15" stop-color="#C8AA6E"/>
<stop offset="0.19" stop-color="#E6D08C"/>
<stop offset="0.21" stop-color="#F8E69D"/>
<stop offset="0.23" stop-color="#F4E097"/>
<stop offset="0.35" stop-color="#D2B269"/>
<stop offset="0.44" stop-color="#BC954C"/>
<stop offset="0.5" stop-color="#B58B42"/>
<stop offset="0.69" stop-color="#E0C06C"/>
<stop offset="0.72" stop-color="#C9A65D"/>
<stop offset="0.77" stop-color="#A17A43"/>
<stop offset="0.8" stop-color="#92693A"/>
</linearGradient>
<linearGradient id="paint30_linear_4772_2013" x1="17.2911" y1="18.8962" x2="0.665572" y2="28.6223" gradientUnits="userSpaceOnUse">
<stop stop-color="#916739"/>
<stop offset="0.04" stop-color="#946B3C"/>
<stop offset="0.07" stop-color="#9E7846"/>
<stop offset="0.11" stop-color="#AF8D57"/>
<stop offset="0.15" stop-color="#C8AA6E"/>
<stop offset="0.19" stop-color="#E6D08C"/>
<stop offset="0.21" stop-color="#F8E69D"/>
<stop offset="0.23" stop-color="#F4E097"/>
<stop offset="0.35" stop-color="#D2B269"/>
<stop offset="0.44" stop-color="#BC954C"/>
<stop offset="0.5" stop-color="#B58B42"/>
<stop offset="0.69" stop-color="#E0C06C"/>
<stop offset="0.72" stop-color="#C9A65D"/>
<stop offset="0.77" stop-color="#A17A43"/>
<stop offset="0.8" stop-color="#92693A"/>
</linearGradient>
<linearGradient id="paint31_linear_4772_2013" x1="23.6966" y1="-0.917158" x2="-16.0172" y2="59.2105" gradientUnits="userSpaceOnUse">
<stop stop-color="#916739"/>
<stop offset="0.04" stop-color="#946B3C"/>
<stop offset="0.07" stop-color="#9E7846"/>
<stop offset="0.11" stop-color="#AF8D57"/>
<stop offset="0.15" stop-color="#C8AA6E"/>
<stop offset="0.19" stop-color="#E6D08C"/>
<stop offset="0.21" stop-color="#F8E69D"/>
<stop offset="0.23" stop-color="#F4E097"/>
<stop offset="0.35" stop-color="#D2B269"/>
<stop offset="0.44" stop-color="#BC954C"/>
<stop offset="0.5" stop-color="#B58B42"/>
<stop offset="0.69" stop-color="#E0C06C"/>
<stop offset="0.72" stop-color="#C9A65D"/>
<stop offset="0.77" stop-color="#A17A43"/>
<stop offset="0.8" stop-color="#92693A"/>
</linearGradient>
<linearGradient id="paint32_linear_4772_2013" x1="9.39281" y1="-6.32065" x2="5.1882" y2="93.5287" gradientUnits="userSpaceOnUse">
<stop stop-color="#916739"/>
<stop offset="0.04" stop-color="#946B3C"/>
<stop offset="0.07" stop-color="#9E7846"/>
<stop offset="0.11" stop-color="#AF8D57"/>
<stop offset="0.15" stop-color="#C8AA6E"/>
<stop offset="0.19" stop-color="#E6D08C"/>
<stop offset="0.21" stop-color="#F8E69D"/>
<stop offset="0.23" stop-color="#F4E097"/>
<stop offset="0.35" stop-color="#D2B269"/>
<stop offset="0.44" stop-color="#BC954C"/>
<stop offset="0.5" stop-color="#B58B42"/>
<stop offset="0.69" stop-color="#E0C06C"/>
<stop offset="0.72" stop-color="#C9A65D"/>
<stop offset="0.77" stop-color="#A17A43"/>
<stop offset="0.8" stop-color="#92693A"/>
</linearGradient>
<linearGradient id="paint33_linear_4772_2013" x1="19.3409" y1="32.6933" x2="25.0141" y2="135.58" gradientUnits="userSpaceOnUse">
<stop stop-color="#916739"/>
<stop offset="0.04" stop-color="#946B3C"/>
<stop offset="0.07" stop-color="#9E7846"/>
<stop offset="0.11" stop-color="#AF8D57"/>
<stop offset="0.15" stop-color="#C8AA6E"/>
<stop offset="0.19" stop-color="#E6D08C"/>
<stop offset="0.21" stop-color="#F8E69D"/>
<stop offset="0.23" stop-color="#F4E097"/>
<stop offset="0.35" stop-color="#D2B269"/>
<stop offset="0.44" stop-color="#BC954C"/>
<stop offset="0.5" stop-color="#B58B42"/>
<stop offset="0.69" stop-color="#E0C06C"/>
<stop offset="0.72" stop-color="#C9A65D"/>
<stop offset="0.77" stop-color="#A17A43"/>
<stop offset="0.8" stop-color="#92693A"/>
</linearGradient>
<linearGradient id="paint34_linear_4772_2013" x1="22.9493" y1="45.0982" x2="58.2274" y2="20.8754" gradientUnits="userSpaceOnUse">
<stop offset="0.03" stop-color="#92693A"/>
<stop offset="0.1" stop-color="#A17A43"/>
<stop offset="0.24" stop-color="#C9A65D"/>
<stop offset="0.31" stop-color="#E0C06C"/>
<stop offset="0.5" stop-color="#B58B42"/>
<stop offset="0.56" stop-color="#BC954C"/>
<stop offset="0.65" stop-color="#D2B269"/>
<stop offset="0.77" stop-color="#F4E097"/>
<stop offset="0.79" stop-color="#F8E69D"/>
<stop offset="0.81" stop-color="#E6D08C"/>
<stop offset="0.85" stop-color="#C8AA6E"/>
<stop offset="0.89" stop-color="#AF8D57"/>
<stop offset="0.93" stop-color="#9E7846"/>
<stop offset="0.96" stop-color="#946B3C"/>
<stop offset="1" stop-color="#916739"/>
</linearGradient>
<linearGradient id="paint35_linear_4772_2013" x1="22.1214" y1="43.893" x2="57.3995" y2="19.6702" gradientUnits="userSpaceOnUse">
<stop offset="0.03" stop-color="#92693A"/>
<stop offset="0.1" stop-color="#A17A43"/>
<stop offset="0.24" stop-color="#C9A65D"/>
<stop offset="0.31" stop-color="#E0C06C"/>
<stop offset="0.5" stop-color="#B58B42"/>
<stop offset="0.56" stop-color="#BC954C"/>
<stop offset="0.65" stop-color="#D2B269"/>
<stop offset="0.77" stop-color="#F4E097"/>
<stop offset="0.79" stop-color="#F8E69D"/>
<stop offset="0.81" stop-color="#E6D08C"/>
<stop offset="0.85" stop-color="#C8AA6E"/>
<stop offset="0.89" stop-color="#AF8D57"/>
<stop offset="0.93" stop-color="#9E7846"/>
<stop offset="0.96" stop-color="#946B3C"/>
<stop offset="1" stop-color="#916739"/>
</linearGradient>
<linearGradient id="paint36_linear_4772_2013" x1="21.0912" y1="42.3939" x2="56.3693" y2="18.1711" gradientUnits="userSpaceOnUse">
<stop offset="0.03" stop-color="#92693A"/>
<stop offset="0.1" stop-color="#A17A43"/>
<stop offset="0.24" stop-color="#C9A65D"/>
<stop offset="0.31" stop-color="#E0C06C"/>
<stop offset="0.5" stop-color="#B58B42"/>
<stop offset="0.56" stop-color="#BC954C"/>
<stop offset="0.65" stop-color="#D2B269"/>
<stop offset="0.77" stop-color="#F4E097"/>
<stop offset="0.79" stop-color="#F8E69D"/>
<stop offset="0.81" stop-color="#E6D08C"/>
<stop offset="0.85" stop-color="#C8AA6E"/>
<stop offset="0.89" stop-color="#AF8D57"/>
<stop offset="0.93" stop-color="#9E7846"/>
<stop offset="0.96" stop-color="#946B3C"/>
<stop offset="1" stop-color="#916739"/>
</linearGradient>
<linearGradient id="paint37_linear_4772_2013" x1="24.463" y1="47.3004" x2="59.7411" y2="23.0776" gradientUnits="userSpaceOnUse">
<stop offset="0.03" stop-color="#92693A"/>
<stop offset="0.1" stop-color="#A17A43"/>
<stop offset="0.24" stop-color="#C9A65D"/>
<stop offset="0.31" stop-color="#E0C06C"/>
<stop offset="0.5" stop-color="#B58B42"/>
<stop offset="0.56" stop-color="#BC954C"/>
<stop offset="0.65" stop-color="#D2B269"/>
<stop offset="0.77" stop-color="#F4E097"/>
<stop offset="0.79" stop-color="#F8E69D"/>
<stop offset="0.81" stop-color="#E6D08C"/>
<stop offset="0.85" stop-color="#C8AA6E"/>
<stop offset="0.89" stop-color="#AF8D57"/>
<stop offset="0.93" stop-color="#9E7846"/>
<stop offset="0.96" stop-color="#946B3C"/>
<stop offset="1" stop-color="#916739"/>
</linearGradient>
<clipPath id="clip0_4772_2013">
<rect width="79.2931" height="63" fill="white"/>
</clipPath>
<clipPath id="clip1_4772_2013">
<rect width="33" height="30" fill="white" transform="translate(22 13)"/>
</clipPath>
</defs>
</svg>
