<svg width="81" height="63" viewBox="0 0 81 63" fill="none" xmlns="http://www.w3.org/2000/svg">  
<g clip-path="url(#clip0_4772_1838)">
<path d="M72.1289 43.7418C72.1289 43.7418 73.9766 39.2739 75.5522 37.5352C77.1278 35.7964 79.5768 34.8808 80.0464 33.1641C80.0464 33.1641 79.9761 37.0774 78.3479 39.6569C77.3736 41.2019 75.5171 42.0295 74.3102 42.4345C73.3227 42.7646 72.1333 43.7462 72.1333 43.7462L72.1289 43.7418Z" fill="url(#paint0_linear_4772_1838)"/>
<path d="M71.7205 13.0837C71.7205 13.0837 70.0133 9.88794 69.8158 8.06995C69.6183 6.25197 69.5788 3.45236 68.9512 2.45312C68.9512 2.45312 71.6766 4.66288 72.3086 6.82861C72.6861 8.12717 72.2955 9.84392 71.9707 10.9136C71.703 11.7852 71.7205 13.0837 71.7205 13.0837Z" fill="url(#paint1_linear_4772_1838)"/>
<path d="M71.7392 43.4937C71.7392 43.4937 74.0258 39.017 73.2885 37.2518C72.5512 35.4822 70.3699 33.924 70.032 32.9688C70.032 32.9688 69.1235 36.0721 69.3737 37.9385C69.5229 39.0566 70.585 40.3419 71.2521 41.2839C71.7963 42.0543 71.7436 43.4937 71.7436 43.4937H71.7392Z" fill="url(#paint2_linear_4772_1838)"/>
<path d="M71.0802 12.9085C71.0802 12.9085 70.2024 9.65107 68.3986 9.06561C67.0776 8.63423 64.7383 8.11921 64.0273 7.78906C64.0273 7.78906 64.8612 10.5358 66.8406 11.5791C67.4901 11.9224 68.2626 11.8344 69.0965 12.0721C70.2244 12.3935 71.0758 12.9085 71.0758 12.9085H71.0802Z" fill="url(#paint3_linear_4772_1838)"/>
<path d="M73.1513 20.2593C73.1513 20.2593 72.0848 16.1127 72.6334 13.8765C73.182 11.6403 75.0254 9.86637 74.6918 8.3125C74.6918 8.3125 76.3683 11.4334 76.1445 14.3563C76.0128 16.1039 75.315 17.244 74.4899 18.2696C73.8184 19.1104 73.1513 20.2549 73.1513 20.2549V20.2593Z" fill="url(#paint4_linear_4772_1838)"/>
<path d="M72.3844 20.5313C72.3844 20.5313 72.2659 15.6804 70.9536 14.6855C69.637 13.6907 66.7667 13.2549 66.082 12.6562C66.082 12.6562 66.8632 15.6804 67.8507 17.0846C68.4388 17.9253 70.2031 18.6648 71.0985 19.0478C71.8314 19.3603 72.3844 20.5313 72.3844 20.5313Z" fill="url(#paint5_linear_4772_1838)"/>
<path d="M68.6014 7.96645C66.9819 6.72071 64.8577 6.44339 64.0282 4.66502C62.6633 1.73336 60.9648 0.0078125 60.9648 0.0078125C60.9648 0.0078125 64.1424 0.109056 66.2929 2.35403C67.7061 3.83306 68.6014 7.96645 68.6014 7.96645Z" fill="url(#paint6_linear_4772_1838)"/>
<path d="M55.2281 62.6547C55.0789 62.8308 55.1184 62.9761 55.3027 63.0069C55.6275 63.0597 56.4614 61.6951 57.0934 61.1317C58.2477 60.106 58.9894 60.0576 59.8145 60.2601C60.2753 60.3701 60.938 60.6078 61.6271 61.2197C62.4697 61.968 63.4616 62.2938 64.4359 62.1177C67.6398 61.5454 68.6009 58.561 68.6009 58.561C68.6009 58.561 67.8021 59.0892 65.9457 58.6402C64.5983 58.3144 63.4177 57.9623 61.9738 58.1428C59.0815 58.5081 56.7247 60.894 55.2237 62.6591L55.2281 62.6547Z" fill="url(#paint7_linear_4772_1838)"/>
<path d="M62.9043 56.1404C62.9043 56.1404 66.2969 53.1515 68.2499 52.7113C70.1985 52.2711 73.2268 52.7113 74.3723 51.6328C74.3723 51.6328 73.1478 55.4757 69.3296 56.6378C67.8417 57.0912 66.2047 56.7522 65.1294 56.3208C64.2517 55.9643 62.9043 56.1404 62.9043 56.1404Z" fill="url(#paint8_linear_4772_1838)"/>
<path d="M62.7207 55.6682C62.7207 55.6682 66.438 52.9566 66.6926 50.9626C66.9472 48.9685 65.9948 46.3406 66.1703 45.3281C66.1703 45.3281 64.0988 47.4983 63.4712 49.3162C63.0938 50.4035 63.322 52.1511 63.3834 53.3792C63.4317 54.3784 62.7251 55.6682 62.7251 55.6682H62.7207Z" fill="url(#paint9_linear_4772_1838)"/>
<path d="M68.8242 50.4567C68.8242 50.4567 71.1942 46.4202 72.9585 45.1128C74.7228 43.8055 77.2771 44.3117 78.0188 42.7578C78.0188 42.7578 77.4132 46.473 75.4777 48.5859C74.319 49.8493 72.2607 49.5896 71.0625 49.682C70.0838 49.7568 68.8242 50.4611 68.8242 50.4611V50.4567Z" fill="url(#paint10_linear_4772_1838)"/>
<path d="M68.5003 50.1175C68.5003 50.1175 71.1643 46.7017 70.8132 44.8177C70.4621 42.9336 68.5486 40.9792 68.4169 39.9844C68.4169 39.9844 67.4996 41.415 67.4557 43.2902C67.4294 44.4127 68.1931 46.0678 68.6407 47.7845C68.8865 48.7266 68.5047 50.1175 68.5047 50.1175H68.5003Z" fill="url(#paint11_linear_4772_1838)"/>
<path d="M74.6662 28.3139C74.6662 28.3139 73.6348 24.2774 74.4248 22.0676C75.1534 20.0251 77.8613 18.4096 77.4356 16.6797C77.4356 16.6797 79.2481 19.0567 78.6118 22.0412C78.1422 24.2289 76.7904 25.1622 75.9346 26.1042C75.2324 26.8745 74.6706 28.3139 74.6706 28.3139H74.6662Z" fill="url(#paint12_linear_4772_1838)"/>
<path d="M74.2051 28.288C74.2051 28.288 74.0251 23.2611 72.5242 22.0813C71.0188 20.8972 68.9429 20.5319 68.1836 19.8672C68.1836 19.8672 68.6664 23.2522 69.7943 24.7577C70.4702 25.6601 71.6639 26.1047 72.7041 26.6021C73.5511 27.0071 74.2051 28.2924 74.2051 28.2924V28.288Z" fill="url(#paint13_linear_4772_1838)"/>
<path d="M74.4785 35.865C74.4785 35.865 74.7111 31.7889 75.6416 29.7948C76.572 27.8008 79.2272 26.3305 79.1438 24.6094C79.1438 24.6094 80.3771 28.1661 79.6793 30.9481C79.2623 32.612 77.3269 33.3692 76.3174 34.025C75.4923 34.5621 74.4785 35.865 74.4785 35.865Z" fill="url(#paint14_linear_4772_1838)"/>
<path d="M73.9913 36.144C73.9913 36.144 75.1105 31.9578 74.0528 30.3599C72.995 28.762 70.4715 27.7187 69.9624 26.8516C69.9624 26.8516 69.6727 28.5287 70.3661 30.2718C70.7787 31.3151 72.1261 32.5388 73.2057 33.943C73.7982 34.7134 73.9913 36.144 73.9913 36.144Z" fill="url(#paint15_linear_4772_1838)"/>
<path d="M56.7778 60.4294C56.7778 60.4294 57.3264 60.0245 58.3973 59.1617C59.4726 58.2989 61.0526 56.9299 61.3554 56.0715C61.9698 54.3548 61.724 51.8369 62.0795 50.9609C62.0795 50.9609 59.8851 52.5852 58.9503 54.1391C58.3885 55.0679 58.2218 56.6482 58.0286 57.7311C57.8706 58.6158 56.7734 60.4338 56.7734 60.4338L56.7778 60.4294Z" fill="url(#paint16_linear_4772_1838)"/>
<path d="M8.66746 43.7418C8.66746 43.7418 6.81976 39.2739 5.24417 37.5352C3.66858 35.7964 1.21961 34.8808 0.75 33.1641C0.75 33.1641 0.820221 37.0774 2.44848 39.6569C3.4228 41.2019 5.27928 42.0295 6.48621 42.4345C7.4737 42.7646 8.66307 43.7462 8.66307 43.7462L8.66746 43.7418Z" fill="url(#paint17_linear_4772_1838)"/>
<path d="M9.07507 13.0837C9.07507 13.0837 10.7823 9.88794 10.9798 8.06995C11.1773 6.25197 11.2168 3.45236 11.8444 2.45312C11.8444 2.45312 9.11896 4.66288 8.48697 6.82861C8.10953 8.12717 8.50014 9.84392 8.82491 10.9136C9.09263 11.7852 9.07507 13.0837 9.07507 13.0837Z" fill="url(#paint18_linear_4772_1838)"/>
<path d="M9.05899 43.4937C9.05899 43.4937 6.77241 39.017 7.50973 37.2518C8.24706 35.4822 10.4283 33.924 10.7662 32.9688C10.7662 32.9688 11.6747 36.0721 11.4246 37.9385C11.2754 39.0566 10.2133 40.3419 9.54615 41.2839C9.00194 42.0543 9.0546 43.4937 9.0546 43.4937H9.05899Z" fill="url(#paint19_linear_4772_1838)"/>
<path d="M9.71289 12.9085C9.71289 12.9085 10.5907 9.65107 12.3945 9.06561C13.7155 8.63423 16.0548 8.11921 16.7658 7.78906C16.7658 7.78906 15.9319 10.5358 13.9525 11.5791C13.303 11.9224 12.5305 11.8344 11.6966 12.0721C10.5687 12.3935 9.71728 12.9085 9.71728 12.9085H9.71289Z" fill="url(#paint20_linear_4772_1838)"/>
<path d="M7.64071 20.2593C7.64071 20.2593 8.7072 16.1127 8.15859 13.8765C7.60999 11.6403 5.76668 9.86637 6.10023 8.3125C6.10023 8.3125 4.42369 11.4334 4.64752 14.3563C4.77919 16.1039 5.47701 17.244 6.30212 18.2696C6.97361 19.1104 7.64071 20.2549 7.64071 20.2549V20.2593Z" fill="url(#paint21_linear_4772_1838)"/>
<path d="M8.4082 20.5313C8.4082 20.5313 8.5267 15.6804 9.83896 14.6855C11.1556 13.6907 14.0259 13.2549 14.7106 12.6562C14.7106 12.6562 13.9294 15.6804 12.9419 17.0846C12.3538 17.9253 10.5895 18.6648 9.69413 19.0478C8.9612 19.3603 8.4082 20.5313 8.4082 20.5313Z" fill="url(#paint22_linear_4772_1838)"/>
<path d="M12.1953 7.96645C13.8148 6.72071 15.939 6.44339 16.7685 4.66502C18.1334 1.73336 19.8319 0.0078125 19.8319 0.0078125C19.8319 0.0078125 16.6544 0.109056 14.5038 2.35403C13.0906 3.83306 12.1953 7.96645 12.1953 7.96645Z" fill="url(#paint23_linear_4772_1838)"/>
<path d="M25.5642 62.6547C25.7134 62.8308 25.6739 62.9761 25.4896 63.0069C25.1648 63.0597 24.3309 61.6951 23.6989 61.1317C22.5447 60.106 21.803 60.0576 20.9779 60.2601C20.517 60.3701 19.8543 60.6078 19.1653 61.2197C18.3226 61.968 17.3307 62.2938 16.3564 62.1177C13.1526 61.5454 12.1914 58.561 12.1914 58.561C12.1914 58.561 12.9902 59.0892 14.8467 58.6402C16.194 58.3144 17.3746 57.9623 18.8185 58.1428C21.7108 58.5081 24.0676 60.894 25.5686 62.6591L25.5642 62.6547Z" fill="url(#paint24_linear_4772_1838)"/>
<path d="M17.888 56.1404C17.888 56.1404 14.4954 53.1515 12.5423 52.7113C10.5937 52.2711 7.56541 52.7113 6.41992 51.6328C6.41992 51.6328 7.64441 55.4757 11.4627 56.6378C12.9505 57.0912 14.5875 56.7522 15.6628 56.3208C16.5406 55.9643 17.888 56.1404 17.888 56.1404Z" fill="url(#paint25_linear_4772_1838)"/>
<path d="M18.0721 55.6682C18.0721 55.6682 14.3547 52.9566 14.1002 50.9626C13.8456 48.9685 14.798 46.3406 14.6224 45.3281C14.6224 45.3281 16.694 47.4983 17.3216 49.3162C17.699 50.4035 17.4708 52.1511 17.4094 53.3792C17.3611 54.3784 18.0677 55.6682 18.0677 55.6682H18.0721Z" fill="url(#paint26_linear_4772_1838)"/>
<path d="M11.968 50.4567C11.968 50.4567 9.59808 46.4202 7.83377 45.1128C6.06945 43.8055 3.51515 44.3117 2.77344 42.7578C2.77344 42.7578 3.3791 46.473 5.31457 48.5859C6.47323 49.8493 8.53159 49.5896 9.72974 49.682C10.7085 49.7568 11.968 50.4611 11.968 50.4611V50.4567Z" fill="url(#paint27_linear_4772_1838)"/>
<path d="M12.2921 50.1175C12.2921 50.1175 9.62805 46.7017 9.97915 44.8177C10.3303 42.9336 12.2438 40.9792 12.3755 39.9844C12.3755 39.9844 13.2927 41.415 13.3366 43.2902C13.3629 44.4127 12.5993 46.0678 12.1516 47.7845C11.9059 48.7266 12.2877 50.1175 12.2877 50.1175H12.2921Z" fill="url(#paint28_linear_4772_1838)"/>
<path d="M6.12594 28.3139C6.12594 28.3139 7.15731 24.2774 6.36732 22.0676C5.63878 20.0251 2.93086 18.4096 3.35658 16.6797C3.35658 16.6797 1.54399 19.0567 2.18037 22.0412C2.64998 24.2289 4.00174 25.1622 4.85756 26.1042C5.55978 26.8745 6.12155 28.3139 6.12155 28.3139H6.12594Z" fill="url(#paint29_linear_4772_1838)"/>
<path d="M6.58789 28.288C6.58789 28.288 6.76783 23.2611 8.26881 22.0813C9.77419 20.8972 11.8501 20.5319 12.6094 19.8672C12.6094 19.8672 12.1266 23.2522 10.9987 24.7577C10.3228 25.6601 9.12903 26.1047 8.08887 26.6021C7.24183 27.0071 6.58789 28.2924 6.58789 28.2924V28.288Z" fill="url(#paint30_linear_4772_1838)"/>
<path d="M6.31503 35.865C6.31503 35.865 6.08242 31.7889 5.15199 29.7948C4.22155 27.8008 1.56631 26.3305 1.64969 24.6094C1.64969 24.6094 0.416431 28.1661 1.11426 30.9481C1.5312 32.612 3.46667 33.3692 4.4761 34.025C5.30121 34.5621 6.31503 35.865 6.31503 35.865Z" fill="url(#paint31_linear_4772_1838)"/>
<path d="M6.80713 36.144C6.80713 36.144 5.68798 31.9578 6.74569 30.3599C7.8034 28.762 10.327 27.7187 10.8361 26.8516C10.8361 26.8516 11.1257 28.5287 10.4323 30.2718C10.0198 31.3151 8.67239 32.5388 7.59274 33.943C7.00024 34.7134 6.80713 36.144 6.80713 36.144Z" fill="url(#paint32_linear_4772_1838)"/>
<path d="M24.0146 60.4294C24.0146 60.4294 23.466 60.0245 22.3951 59.1617C21.3199 58.2989 19.7399 56.9299 19.437 56.0715C18.8226 54.3548 19.0684 51.8369 18.7129 50.9609C18.7129 50.9609 20.9073 52.5852 21.8421 54.1391C22.4039 55.0679 22.5707 56.6482 22.7638 57.7311C22.9218 58.6158 24.019 60.4338 24.019 60.4338L24.0146 60.4294Z" fill="url(#paint33_linear_4772_1838)"/>
</g>
<g clip-path="url(#clip1_4772_1838)">
<path d="M48.7723 36.9995C48.5024 36.9313 48.2066 36.9386 47.929 36.8936C47.6272 36.8442 47.3284 36.7745 47.0357 36.6889C46.4714 36.5235 45.9239 36.3014 45.3991 36.0416C44.3222 35.5075 43.3424 34.8007 42.4399 34.0285C40.5804 32.4335 39.188 30.4523 37.4437 28.7571C35.8284 27.1867 33.6018 25.4393 31.131 25.7891C28.9605 26.0967 26.9326 27.7978 26.8613 29.9821C26.7885 32.2187 28.9605 33.9603 31.1492 34.194C32.3201 34.3188 33.4941 34.0184 34.4891 33.4262C34.985 33.1316 35.4386 32.7716 35.8435 32.3696C36.1924 32.0242 36.4927 31.6062 37.0084 31.4872C37.9913 31.2593 38.9195 32.0808 38.78 33.0314C38.7026 33.5597 38.237 33.9705 37.8623 34.3319C37.4194 34.7586 36.9401 35.1548 36.4229 35.4973C34.3965 36.8399 31.8393 37.3406 29.4534 36.6599C27.3224 36.0532 25.4614 34.5873 24.5528 32.6323C23.5593 30.4814 23.9476 28.0068 25.3749 26.1229C26.7369 24.3275 29.0075 23.1475 31.3206 23.0126C33.7732 22.8689 36.0316 23.9748 37.8851 25.4204C38.8695 26.1882 39.7628 27.059 40.5986 27.9705C41.4297 28.8761 42.1896 29.8413 43.042 30.731C44.5861 32.3406 46.6716 34.1737 49.0893 34.255C51.2644 34.3275 53.5061 32.8645 54.0142 30.8079C54.5542 28.6265 52.9571 26.6221 50.8033 25.9952C49.6612 25.6628 48.4402 25.7354 47.342 26.1737C46.8172 26.3827 46.3288 26.6671 45.8814 27.001C45.4249 27.342 45.0578 27.7455 44.6528 28.1359C43.9187 28.8442 42.6401 28.6599 42.2503 27.6976C41.815 26.6207 43.0087 25.715 43.7655 25.1011C45.6478 23.5786 48.0761 22.7629 50.5454 23.1287C52.8114 23.4639 54.8848 24.7687 56.0588 26.6584C56.3197 27.0779 56.532 27.5249 56.6898 27.9893C56.8718 28.5278 56.9112 29.0532 57.0007 29.6047V30.3057C56.931 30.7615 56.8991 31.2027 56.7687 31.6497C56.6382 32.0968 56.4547 32.5293 56.2332 32.9429C55.8434 33.6715 55.3247 34.3348 54.7013 34.8965C54.0431 35.4886 53.2741 35.9676 52.4505 36.3203C51.5692 36.6991 50.6789 36.8703 49.7294 37.001H48.7723V36.9995Z" fill="url(#paint34_linear_4772_1838)"/>
</g>
<defs>
<linearGradient id="paint0_linear_4772_1838" x1="86.1309" y1="-9.17702" x2="60.1664" y2="114.724" gradientUnits="userSpaceOnUse">
<stop stop-color="#916739"/>
<stop offset="0.04" stop-color="#946B3C"/>
<stop offset="0.07" stop-color="#9E7846"/>
<stop offset="0.11" stop-color="#AF8D57"/>
<stop offset="0.15" stop-color="#C8AA6E"/>
<stop offset="0.19" stop-color="#E6D08C"/>
<stop offset="0.21" stop-color="#F8E69D"/>
<stop offset="0.23" stop-color="#F4E097"/>
<stop offset="0.35" stop-color="#D2B269"/>
<stop offset="0.44" stop-color="#BC954C"/>
<stop offset="0.5" stop-color="#B58B42"/>
<stop offset="0.69" stop-color="#E0C06C"/>
<stop offset="0.72" stop-color="#C9A65D"/>
<stop offset="0.77" stop-color="#A17A43"/>
<stop offset="0.8" stop-color="#92693A"/>
</linearGradient>
<linearGradient id="paint1_linear_4772_1838" x1="75.9248" y1="-2.08772" x2="63.1219" y2="20.334" gradientUnits="userSpaceOnUse">
<stop stop-color="#916739"/>
<stop offset="0.04" stop-color="#946B3C"/>
<stop offset="0.07" stop-color="#9E7846"/>
<stop offset="0.11" stop-color="#AF8D57"/>
<stop offset="0.15" stop-color="#C8AA6E"/>
<stop offset="0.19" stop-color="#E6D08C"/>
<stop offset="0.21" stop-color="#F8E69D"/>
<stop offset="0.23" stop-color="#F4E097"/>
<stop offset="0.35" stop-color="#D2B269"/>
<stop offset="0.44" stop-color="#BC954C"/>
<stop offset="0.5" stop-color="#B58B42"/>
<stop offset="0.69" stop-color="#E0C06C"/>
<stop offset="0.72" stop-color="#C9A65D"/>
<stop offset="0.77" stop-color="#A17A43"/>
<stop offset="0.8" stop-color="#92693A"/>
</linearGradient>
<linearGradient id="paint2_linear_4772_1838" x1="81.9095" y1="24.412" x2="35.1189" y2="87.7337" gradientUnits="userSpaceOnUse">
<stop stop-color="#916739"/>
<stop offset="0.04" stop-color="#946B3C"/>
<stop offset="0.07" stop-color="#9E7846"/>
<stop offset="0.11" stop-color="#AF8D57"/>
<stop offset="0.15" stop-color="#C8AA6E"/>
<stop offset="0.19" stop-color="#E6D08C"/>
<stop offset="0.21" stop-color="#F8E69D"/>
<stop offset="0.23" stop-color="#F4E097"/>
<stop offset="0.35" stop-color="#D2B269"/>
<stop offset="0.44" stop-color="#BC954C"/>
<stop offset="0.5" stop-color="#B58B42"/>
<stop offset="0.69" stop-color="#E0C06C"/>
<stop offset="0.72" stop-color="#C9A65D"/>
<stop offset="0.77" stop-color="#A17A43"/>
<stop offset="0.8" stop-color="#92693A"/>
</linearGradient>
<linearGradient id="paint3_linear_4772_1838" x1="69.9377" y1="2.2768" x2="64.2796" y2="21.3178" gradientUnits="userSpaceOnUse">
<stop offset="0.2" stop-color="#92693A"/>
<stop offset="0.23" stop-color="#A17A43"/>
<stop offset="0.28" stop-color="#C9A65D"/>
<stop offset="0.31" stop-color="#E0C06C"/>
<stop offset="0.5" stop-color="#B58B42"/>
<stop offset="0.56" stop-color="#BC954C"/>
<stop offset="0.65" stop-color="#D2B269"/>
<stop offset="0.77" stop-color="#F4E097"/>
<stop offset="0.79" stop-color="#F8E69D"/>
<stop offset="0.81" stop-color="#E6D08C"/>
<stop offset="0.85" stop-color="#C8AA6E"/>
<stop offset="0.89" stop-color="#AF8D57"/>
<stop offset="0.93" stop-color="#9E7846"/>
<stop offset="0.96" stop-color="#946B3C"/>
<stop offset="1" stop-color="#916739"/>
</linearGradient>
<linearGradient id="paint4_linear_4772_1838" x1="78.3584" y1="-16.7202" x2="61.9481" y2="109.526" gradientUnits="userSpaceOnUse">
<stop stop-color="#916739"/>
<stop offset="0.04" stop-color="#946B3C"/>
<stop offset="0.07" stop-color="#9E7846"/>
<stop offset="0.11" stop-color="#AF8D57"/>
<stop offset="0.15" stop-color="#C8AA6E"/>
<stop offset="0.19" stop-color="#E6D08C"/>
<stop offset="0.21" stop-color="#F8E69D"/>
<stop offset="0.23" stop-color="#F4E097"/>
<stop offset="0.35" stop-color="#D2B269"/>
<stop offset="0.44" stop-color="#BC954C"/>
<stop offset="0.5" stop-color="#B58B42"/>
<stop offset="0.69" stop-color="#E0C06C"/>
<stop offset="0.72" stop-color="#C9A65D"/>
<stop offset="0.77" stop-color="#A17A43"/>
<stop offset="0.8" stop-color="#92693A"/>
</linearGradient>
<linearGradient id="paint5_linear_4772_1838" x1="72.9491" y1="13.373" x2="49.1853" y2="50.1995" gradientUnits="userSpaceOnUse">
<stop stop-color="#916739"/>
<stop offset="0.04" stop-color="#946B3C"/>
<stop offset="0.07" stop-color="#9E7846"/>
<stop offset="0.11" stop-color="#AF8D57"/>
<stop offset="0.15" stop-color="#C8AA6E"/>
<stop offset="0.19" stop-color="#E6D08C"/>
<stop offset="0.21" stop-color="#F8E69D"/>
<stop offset="0.23" stop-color="#F4E097"/>
<stop offset="0.35" stop-color="#D2B269"/>
<stop offset="0.44" stop-color="#BC954C"/>
<stop offset="0.5" stop-color="#B58B42"/>
<stop offset="0.69" stop-color="#E0C06C"/>
<stop offset="0.72" stop-color="#C9A65D"/>
<stop offset="0.77" stop-color="#A17A43"/>
<stop offset="0.8" stop-color="#92693A"/>
</linearGradient>
<linearGradient id="paint6_linear_4772_1838" x1="64.4312" y1="-8.04336" x2="66.6755" y2="65.9591" gradientUnits="userSpaceOnUse">
<stop stop-color="#916739"/>
<stop offset="0.04" stop-color="#946B3C"/>
<stop offset="0.07" stop-color="#9E7846"/>
<stop offset="0.11" stop-color="#AF8D57"/>
<stop offset="0.15" stop-color="#C8AA6E"/>
<stop offset="0.19" stop-color="#E6D08C"/>
<stop offset="0.21" stop-color="#F8E69D"/>
<stop offset="0.23" stop-color="#F4E097"/>
<stop offset="0.35" stop-color="#D2B269"/>
<stop offset="0.44" stop-color="#BC954C"/>
<stop offset="0.5" stop-color="#B58B42"/>
<stop offset="0.69" stop-color="#E0C06C"/>
<stop offset="0.72" stop-color="#C9A65D"/>
<stop offset="0.77" stop-color="#A17A43"/>
<stop offset="0.8" stop-color="#92693A"/>
</linearGradient>
<linearGradient id="paint7_linear_4772_1838" x1="54.2882" y1="33.4616" x2="70.9076" y2="85.8559" gradientUnits="userSpaceOnUse">
<stop stop-color="#916739"/>
<stop offset="0.04" stop-color="#946B3C"/>
<stop offset="0.07" stop-color="#9E7846"/>
<stop offset="0.11" stop-color="#AF8D57"/>
<stop offset="0.15" stop-color="#C8AA6E"/>
<stop offset="0.19" stop-color="#E6D08C"/>
<stop offset="0.21" stop-color="#F8E69D"/>
<stop offset="0.23" stop-color="#F4E097"/>
<stop offset="0.35" stop-color="#D2B269"/>
<stop offset="0.44" stop-color="#BC954C"/>
<stop offset="0.5" stop-color="#B58B42"/>
<stop offset="0.69" stop-color="#E0C06C"/>
<stop offset="0.72" stop-color="#C9A65D"/>
<stop offset="0.77" stop-color="#A17A43"/>
<stop offset="0.8" stop-color="#92693A"/>
</linearGradient>
<linearGradient id="paint8_linear_4772_1838" x1="63.7815" y1="26.0105" x2="71.2656" y2="68.673" gradientUnits="userSpaceOnUse">
<stop stop-color="#916739"/>
<stop offset="0.04" stop-color="#946B3C"/>
<stop offset="0.07" stop-color="#9E7846"/>
<stop offset="0.11" stop-color="#AF8D57"/>
<stop offset="0.15" stop-color="#C8AA6E"/>
<stop offset="0.19" stop-color="#E6D08C"/>
<stop offset="0.21" stop-color="#F8E69D"/>
<stop offset="0.23" stop-color="#F4E097"/>
<stop offset="0.35" stop-color="#D2B269"/>
<stop offset="0.44" stop-color="#BC954C"/>
<stop offset="0.5" stop-color="#B58B42"/>
<stop offset="0.69" stop-color="#E0C06C"/>
<stop offset="0.72" stop-color="#C9A65D"/>
<stop offset="0.77" stop-color="#A17A43"/>
<stop offset="0.8" stop-color="#92693A"/>
</linearGradient>
<linearGradient id="paint9_linear_4772_1838" x1="80.7193" y1="-6.02642" x2="49.7459" y2="104.745" gradientUnits="userSpaceOnUse">
<stop stop-color="#916739"/>
<stop offset="0.04" stop-color="#946B3C"/>
<stop offset="0.07" stop-color="#9E7846"/>
<stop offset="0.11" stop-color="#AF8D57"/>
<stop offset="0.15" stop-color="#C8AA6E"/>
<stop offset="0.19" stop-color="#E6D08C"/>
<stop offset="0.21" stop-color="#F8E69D"/>
<stop offset="0.23" stop-color="#F4E097"/>
<stop offset="0.35" stop-color="#D2B269"/>
<stop offset="0.44" stop-color="#BC954C"/>
<stop offset="0.5" stop-color="#B58B42"/>
<stop offset="0.69" stop-color="#E0C06C"/>
<stop offset="0.72" stop-color="#C9A65D"/>
<stop offset="0.77" stop-color="#A17A43"/>
<stop offset="0.8" stop-color="#92693A"/>
</linearGradient>
<linearGradient id="paint10_linear_4772_1838" x1="70.2176" y1="9.10945" x2="76.4502" y2="81.6063" gradientUnits="userSpaceOnUse">
<stop stop-color="#916739"/>
<stop offset="0.04" stop-color="#946B3C"/>
<stop offset="0.07" stop-color="#9E7846"/>
<stop offset="0.11" stop-color="#AF8D57"/>
<stop offset="0.15" stop-color="#C8AA6E"/>
<stop offset="0.19" stop-color="#E6D08C"/>
<stop offset="0.21" stop-color="#F8E69D"/>
<stop offset="0.23" stop-color="#F4E097"/>
<stop offset="0.35" stop-color="#D2B269"/>
<stop offset="0.44" stop-color="#BC954C"/>
<stop offset="0.5" stop-color="#B58B42"/>
<stop offset="0.69" stop-color="#E0C06C"/>
<stop offset="0.72" stop-color="#C9A65D"/>
<stop offset="0.77" stop-color="#A17A43"/>
<stop offset="0.8" stop-color="#92693A"/>
</linearGradient>
<linearGradient id="paint11_linear_4772_1838" x1="81.9742" y1="9.7686" x2="46.7404" y2="103.246" gradientUnits="userSpaceOnUse">
<stop stop-color="#916739"/>
<stop offset="0.04" stop-color="#946B3C"/>
<stop offset="0.07" stop-color="#9E7846"/>
<stop offset="0.11" stop-color="#AF8D57"/>
<stop offset="0.15" stop-color="#C8AA6E"/>
<stop offset="0.19" stop-color="#E6D08C"/>
<stop offset="0.21" stop-color="#F8E69D"/>
<stop offset="0.23" stop-color="#F4E097"/>
<stop offset="0.35" stop-color="#D2B269"/>
<stop offset="0.44" stop-color="#BC954C"/>
<stop offset="0.5" stop-color="#B58B42"/>
<stop offset="0.69" stop-color="#E0C06C"/>
<stop offset="0.72" stop-color="#C9A65D"/>
<stop offset="0.77" stop-color="#A17A43"/>
<stop offset="0.8" stop-color="#92693A"/>
</linearGradient>
<linearGradient id="paint12_linear_4772_1838" x1="63.7807" y1="-17.3769" x2="96.315" y2="86.1523" gradientUnits="userSpaceOnUse">
<stop stop-color="#916739"/>
<stop offset="0.04" stop-color="#946B3C"/>
<stop offset="0.07" stop-color="#9E7846"/>
<stop offset="0.11" stop-color="#AF8D57"/>
<stop offset="0.15" stop-color="#C8AA6E"/>
<stop offset="0.19" stop-color="#E6D08C"/>
<stop offset="0.21" stop-color="#F8E69D"/>
<stop offset="0.23" stop-color="#F4E097"/>
<stop offset="0.35" stop-color="#D2B269"/>
<stop offset="0.44" stop-color="#BC954C"/>
<stop offset="0.5" stop-color="#B58B42"/>
<stop offset="0.69" stop-color="#E0C06C"/>
<stop offset="0.72" stop-color="#C9A65D"/>
<stop offset="0.77" stop-color="#A17A43"/>
<stop offset="0.8" stop-color="#92693A"/>
</linearGradient>
<linearGradient id="paint13_linear_4772_1838" x1="62.7507" y1="18.8986" x2="79.3721" y2="28.6261" gradientUnits="userSpaceOnUse">
<stop stop-color="#916739"/>
<stop offset="0.04" stop-color="#946B3C"/>
<stop offset="0.07" stop-color="#9E7846"/>
<stop offset="0.11" stop-color="#AF8D57"/>
<stop offset="0.15" stop-color="#C8AA6E"/>
<stop offset="0.19" stop-color="#E6D08C"/>
<stop offset="0.21" stop-color="#F8E69D"/>
<stop offset="0.23" stop-color="#F4E097"/>
<stop offset="0.35" stop-color="#D2B269"/>
<stop offset="0.44" stop-color="#BC954C"/>
<stop offset="0.5" stop-color="#B58B42"/>
<stop offset="0.69" stop-color="#E0C06C"/>
<stop offset="0.72" stop-color="#C9A65D"/>
<stop offset="0.77" stop-color="#A17A43"/>
<stop offset="0.8" stop-color="#92693A"/>
</linearGradient>
<linearGradient id="paint14_linear_4772_1838" x1="56.3461" y1="-0.917473" x2="96.0584" y2="59.2061" gradientUnits="userSpaceOnUse">
<stop stop-color="#916739"/>
<stop offset="0.04" stop-color="#946B3C"/>
<stop offset="0.07" stop-color="#9E7846"/>
<stop offset="0.11" stop-color="#AF8D57"/>
<stop offset="0.15" stop-color="#C8AA6E"/>
<stop offset="0.19" stop-color="#E6D08C"/>
<stop offset="0.21" stop-color="#F8E69D"/>
<stop offset="0.23" stop-color="#F4E097"/>
<stop offset="0.35" stop-color="#D2B269"/>
<stop offset="0.44" stop-color="#BC954C"/>
<stop offset="0.5" stop-color="#B58B42"/>
<stop offset="0.69" stop-color="#E0C06C"/>
<stop offset="0.72" stop-color="#C9A65D"/>
<stop offset="0.77" stop-color="#A17A43"/>
<stop offset="0.8" stop-color="#92693A"/>
</linearGradient>
<linearGradient id="paint15_linear_4772_1838" x1="70.6485" y1="-6.32251" x2="74.852" y2="93.5226" gradientUnits="userSpaceOnUse">
<stop stop-color="#916739"/>
<stop offset="0.04" stop-color="#946B3C"/>
<stop offset="0.07" stop-color="#9E7846"/>
<stop offset="0.11" stop-color="#AF8D57"/>
<stop offset="0.15" stop-color="#C8AA6E"/>
<stop offset="0.19" stop-color="#E6D08C"/>
<stop offset="0.21" stop-color="#F8E69D"/>
<stop offset="0.23" stop-color="#F4E097"/>
<stop offset="0.35" stop-color="#D2B269"/>
<stop offset="0.44" stop-color="#BC954C"/>
<stop offset="0.5" stop-color="#B58B42"/>
<stop offset="0.69" stop-color="#E0C06C"/>
<stop offset="0.72" stop-color="#C9A65D"/>
<stop offset="0.77" stop-color="#A17A43"/>
<stop offset="0.8" stop-color="#92693A"/>
</linearGradient>
<linearGradient id="paint16_linear_4772_1838" x1="60.7019" y1="32.6957" x2="55.0287" y2="135.582" gradientUnits="userSpaceOnUse">
<stop stop-color="#916739"/>
<stop offset="0.04" stop-color="#946B3C"/>
<stop offset="0.07" stop-color="#9E7846"/>
<stop offset="0.11" stop-color="#AF8D57"/>
<stop offset="0.15" stop-color="#C8AA6E"/>
<stop offset="0.19" stop-color="#E6D08C"/>
<stop offset="0.21" stop-color="#F8E69D"/>
<stop offset="0.23" stop-color="#F4E097"/>
<stop offset="0.35" stop-color="#D2B269"/>
<stop offset="0.44" stop-color="#BC954C"/>
<stop offset="0.5" stop-color="#B58B42"/>
<stop offset="0.69" stop-color="#E0C06C"/>
<stop offset="0.72" stop-color="#C9A65D"/>
<stop offset="0.77" stop-color="#A17A43"/>
<stop offset="0.8" stop-color="#92693A"/>
</linearGradient>
<linearGradient id="paint17_linear_4772_1838" x1="-5.33516" y1="-9.17433" x2="20.6275" y2="114.722" gradientUnits="userSpaceOnUse">
<stop stop-color="#916739"/>
<stop offset="0.04" stop-color="#946B3C"/>
<stop offset="0.07" stop-color="#9E7846"/>
<stop offset="0.11" stop-color="#AF8D57"/>
<stop offset="0.15" stop-color="#C8AA6E"/>
<stop offset="0.19" stop-color="#E6D08C"/>
<stop offset="0.21" stop-color="#F8E69D"/>
<stop offset="0.23" stop-color="#F4E097"/>
<stop offset="0.35" stop-color="#D2B269"/>
<stop offset="0.44" stop-color="#BC954C"/>
<stop offset="0.5" stop-color="#B58B42"/>
<stop offset="0.69" stop-color="#E0C06C"/>
<stop offset="0.72" stop-color="#C9A65D"/>
<stop offset="0.77" stop-color="#A17A43"/>
<stop offset="0.8" stop-color="#92693A"/>
</linearGradient>
<linearGradient id="paint18_linear_4772_1838" x1="4.86525" y1="-2.09013" x2="17.6682" y2="20.3316" gradientUnits="userSpaceOnUse">
<stop stop-color="#916739"/>
<stop offset="0.04" stop-color="#946B3C"/>
<stop offset="0.07" stop-color="#9E7846"/>
<stop offset="0.11" stop-color="#AF8D57"/>
<stop offset="0.15" stop-color="#C8AA6E"/>
<stop offset="0.19" stop-color="#E6D08C"/>
<stop offset="0.21" stop-color="#F8E69D"/>
<stop offset="0.23" stop-color="#F4E097"/>
<stop offset="0.35" stop-color="#D2B269"/>
<stop offset="0.44" stop-color="#BC954C"/>
<stop offset="0.5" stop-color="#B58B42"/>
<stop offset="0.69" stop-color="#E0C06C"/>
<stop offset="0.72" stop-color="#C9A65D"/>
<stop offset="0.77" stop-color="#A17A43"/>
<stop offset="0.8" stop-color="#92693A"/>
</linearGradient>
<linearGradient id="paint19_linear_4772_1838" x1="-1.1036" y1="24.4089" x2="45.6852" y2="87.7267" gradientUnits="userSpaceOnUse">
<stop stop-color="#916739"/>
<stop offset="0.04" stop-color="#946B3C"/>
<stop offset="0.07" stop-color="#9E7846"/>
<stop offset="0.11" stop-color="#AF8D57"/>
<stop offset="0.15" stop-color="#C8AA6E"/>
<stop offset="0.19" stop-color="#E6D08C"/>
<stop offset="0.21" stop-color="#F8E69D"/>
<stop offset="0.23" stop-color="#F4E097"/>
<stop offset="0.35" stop-color="#D2B269"/>
<stop offset="0.44" stop-color="#BC954C"/>
<stop offset="0.5" stop-color="#B58B42"/>
<stop offset="0.69" stop-color="#E0C06C"/>
<stop offset="0.72" stop-color="#C9A65D"/>
<stop offset="0.77" stop-color="#A17A43"/>
<stop offset="0.8" stop-color="#92693A"/>
</linearGradient>
<linearGradient id="paint20_linear_4772_1838" x1="10.8546" y1="2.27657" x2="16.5095" y2="21.3123" gradientUnits="userSpaceOnUse">
<stop offset="0.2" stop-color="#92693A"/>
<stop offset="0.23" stop-color="#A17A43"/>
<stop offset="0.28" stop-color="#C9A65D"/>
<stop offset="0.31" stop-color="#E0C06C"/>
<stop offset="0.5" stop-color="#B58B42"/>
<stop offset="0.56" stop-color="#BC954C"/>
<stop offset="0.65" stop-color="#D2B269"/>
<stop offset="0.77" stop-color="#F4E097"/>
<stop offset="0.79" stop-color="#F8E69D"/>
<stop offset="0.81" stop-color="#E6D08C"/>
<stop offset="0.85" stop-color="#C8AA6E"/>
<stop offset="0.89" stop-color="#AF8D57"/>
<stop offset="0.93" stop-color="#9E7846"/>
<stop offset="0.96" stop-color="#946B3C"/>
<stop offset="1" stop-color="#916739"/>
</linearGradient>
<linearGradient id="paint21_linear_4772_1838" x1="2.43045" y1="-16.7202" x2="18.8366" y2="109.528" gradientUnits="userSpaceOnUse">
<stop stop-color="#916739"/>
<stop offset="0.04" stop-color="#946B3C"/>
<stop offset="0.07" stop-color="#9E7846"/>
<stop offset="0.11" stop-color="#AF8D57"/>
<stop offset="0.15" stop-color="#C8AA6E"/>
<stop offset="0.19" stop-color="#E6D08C"/>
<stop offset="0.21" stop-color="#F8E69D"/>
<stop offset="0.23" stop-color="#F4E097"/>
<stop offset="0.35" stop-color="#D2B269"/>
<stop offset="0.44" stop-color="#BC954C"/>
<stop offset="0.5" stop-color="#B58B42"/>
<stop offset="0.69" stop-color="#E0C06C"/>
<stop offset="0.72" stop-color="#C9A65D"/>
<stop offset="0.77" stop-color="#A17A43"/>
<stop offset="0.8" stop-color="#92693A"/>
</linearGradient>
<linearGradient id="paint22_linear_4772_1838" x1="7.98568" y1="13.3212" x2="31.7454" y2="50.1492" gradientUnits="userSpaceOnUse">
<stop stop-color="#916739"/>
<stop offset="0.04" stop-color="#946B3C"/>
<stop offset="0.07" stop-color="#9E7846"/>
<stop offset="0.11" stop-color="#AF8D57"/>
<stop offset="0.15" stop-color="#C8AA6E"/>
<stop offset="0.19" stop-color="#E6D08C"/>
<stop offset="0.21" stop-color="#F8E69D"/>
<stop offset="0.23" stop-color="#F4E097"/>
<stop offset="0.35" stop-color="#D2B269"/>
<stop offset="0.44" stop-color="#BC954C"/>
<stop offset="0.5" stop-color="#B58B42"/>
<stop offset="0.69" stop-color="#E0C06C"/>
<stop offset="0.72" stop-color="#C9A65D"/>
<stop offset="0.77" stop-color="#A17A43"/>
<stop offset="0.8" stop-color="#92693A"/>
</linearGradient>
<linearGradient id="paint23_linear_4772_1838" x1="16.3654" y1="-8.04539" x2="14.121" y2="65.9571" gradientUnits="userSpaceOnUse">
<stop stop-color="#916739"/>
<stop offset="0.04" stop-color="#946B3C"/>
<stop offset="0.07" stop-color="#9E7846"/>
<stop offset="0.11" stop-color="#AF8D57"/>
<stop offset="0.15" stop-color="#C8AA6E"/>
<stop offset="0.19" stop-color="#E6D08C"/>
<stop offset="0.21" stop-color="#F8E69D"/>
<stop offset="0.23" stop-color="#F4E097"/>
<stop offset="0.35" stop-color="#D2B269"/>
<stop offset="0.44" stop-color="#BC954C"/>
<stop offset="0.5" stop-color="#B58B42"/>
<stop offset="0.69" stop-color="#E0C06C"/>
<stop offset="0.72" stop-color="#C9A65D"/>
<stop offset="0.77" stop-color="#A17A43"/>
<stop offset="0.8" stop-color="#92693A"/>
</linearGradient>
<linearGradient id="paint24_linear_4772_1838" x1="26.4995" y1="33.4613" x2="9.88001" y2="85.8556" gradientUnits="userSpaceOnUse">
<stop stop-color="#916739"/>
<stop offset="0.04" stop-color="#946B3C"/>
<stop offset="0.07" stop-color="#9E7846"/>
<stop offset="0.11" stop-color="#AF8D57"/>
<stop offset="0.15" stop-color="#C8AA6E"/>
<stop offset="0.19" stop-color="#E6D08C"/>
<stop offset="0.21" stop-color="#F8E69D"/>
<stop offset="0.23" stop-color="#F4E097"/>
<stop offset="0.35" stop-color="#D2B269"/>
<stop offset="0.44" stop-color="#BC954C"/>
<stop offset="0.5" stop-color="#B58B42"/>
<stop offset="0.69" stop-color="#E0C06C"/>
<stop offset="0.72" stop-color="#C9A65D"/>
<stop offset="0.77" stop-color="#A17A43"/>
<stop offset="0.8" stop-color="#92693A"/>
</linearGradient>
<linearGradient id="paint25_linear_4772_1838" x1="17.0127" y1="26.0097" x2="9.53296" y2="68.672" gradientUnits="userSpaceOnUse">
<stop stop-color="#916739"/>
<stop offset="0.04" stop-color="#946B3C"/>
<stop offset="0.07" stop-color="#9E7846"/>
<stop offset="0.11" stop-color="#AF8D57"/>
<stop offset="0.15" stop-color="#C8AA6E"/>
<stop offset="0.19" stop-color="#E6D08C"/>
<stop offset="0.21" stop-color="#F8E69D"/>
<stop offset="0.23" stop-color="#F4E097"/>
<stop offset="0.35" stop-color="#D2B269"/>
<stop offset="0.44" stop-color="#BC954C"/>
<stop offset="0.5" stop-color="#B58B42"/>
<stop offset="0.69" stop-color="#E0C06C"/>
<stop offset="0.72" stop-color="#C9A65D"/>
<stop offset="0.77" stop-color="#A17A43"/>
<stop offset="0.8" stop-color="#92693A"/>
</linearGradient>
<linearGradient id="paint26_linear_4772_1838" x1="0.0797696" y1="-6.02744" x2="31.0486" y2="104.739" gradientUnits="userSpaceOnUse">
<stop stop-color="#916739"/>
<stop offset="0.04" stop-color="#946B3C"/>
<stop offset="0.07" stop-color="#9E7846"/>
<stop offset="0.11" stop-color="#AF8D57"/>
<stop offset="0.15" stop-color="#C8AA6E"/>
<stop offset="0.19" stop-color="#E6D08C"/>
<stop offset="0.21" stop-color="#F8E69D"/>
<stop offset="0.23" stop-color="#F4E097"/>
<stop offset="0.35" stop-color="#D2B269"/>
<stop offset="0.44" stop-color="#BC954C"/>
<stop offset="0.5" stop-color="#B58B42"/>
<stop offset="0.69" stop-color="#E0C06C"/>
<stop offset="0.72" stop-color="#C9A65D"/>
<stop offset="0.77" stop-color="#A17A43"/>
<stop offset="0.8" stop-color="#92693A"/>
</linearGradient>
<linearGradient id="paint27_linear_4772_1838" x1="10.569" y1="9.10509" x2="4.34086" y2="81.6013" gradientUnits="userSpaceOnUse">
<stop stop-color="#916739"/>
<stop offset="0.04" stop-color="#946B3C"/>
<stop offset="0.07" stop-color="#9E7846"/>
<stop offset="0.11" stop-color="#AF8D57"/>
<stop offset="0.15" stop-color="#C8AA6E"/>
<stop offset="0.19" stop-color="#E6D08C"/>
<stop offset="0.21" stop-color="#F8E69D"/>
<stop offset="0.23" stop-color="#F4E097"/>
<stop offset="0.35" stop-color="#D2B269"/>
<stop offset="0.44" stop-color="#BC954C"/>
<stop offset="0.5" stop-color="#B58B42"/>
<stop offset="0.69" stop-color="#E0C06C"/>
<stop offset="0.72" stop-color="#C9A65D"/>
<stop offset="0.77" stop-color="#A17A43"/>
<stop offset="0.8" stop-color="#92693A"/>
</linearGradient>
<linearGradient id="paint28_linear_4772_1838" x1="-1.18744" y1="9.76425" x2="34.0513" y2="103.245" gradientUnits="userSpaceOnUse">
<stop stop-color="#916739"/>
<stop offset="0.04" stop-color="#946B3C"/>
<stop offset="0.07" stop-color="#9E7846"/>
<stop offset="0.11" stop-color="#AF8D57"/>
<stop offset="0.15" stop-color="#C8AA6E"/>
<stop offset="0.19" stop-color="#E6D08C"/>
<stop offset="0.21" stop-color="#F8E69D"/>
<stop offset="0.23" stop-color="#F4E097"/>
<stop offset="0.35" stop-color="#D2B269"/>
<stop offset="0.44" stop-color="#BC954C"/>
<stop offset="0.5" stop-color="#B58B42"/>
<stop offset="0.69" stop-color="#E0C06C"/>
<stop offset="0.72" stop-color="#C9A65D"/>
<stop offset="0.77" stop-color="#A17A43"/>
<stop offset="0.8" stop-color="#92693A"/>
</linearGradient>
<linearGradient id="paint29_linear_4772_1838" x1="17.0132" y1="-17.3805" x2="-15.5211" y2="86.1487" gradientUnits="userSpaceOnUse">
<stop stop-color="#916739"/>
<stop offset="0.04" stop-color="#946B3C"/>
<stop offset="0.07" stop-color="#9E7846"/>
<stop offset="0.11" stop-color="#AF8D57"/>
<stop offset="0.15" stop-color="#C8AA6E"/>
<stop offset="0.19" stop-color="#E6D08C"/>
<stop offset="0.21" stop-color="#F8E69D"/>
<stop offset="0.23" stop-color="#F4E097"/>
<stop offset="0.35" stop-color="#D2B269"/>
<stop offset="0.44" stop-color="#BC954C"/>
<stop offset="0.5" stop-color="#B58B42"/>
<stop offset="0.69" stop-color="#E0C06C"/>
<stop offset="0.72" stop-color="#C9A65D"/>
<stop offset="0.77" stop-color="#A17A43"/>
<stop offset="0.8" stop-color="#92693A"/>
</linearGradient>
<linearGradient id="paint30_linear_4772_1838" x1="18.0411" y1="18.8962" x2="1.41557" y2="28.6223" gradientUnits="userSpaceOnUse">
<stop stop-color="#916739"/>
<stop offset="0.04" stop-color="#946B3C"/>
<stop offset="0.07" stop-color="#9E7846"/>
<stop offset="0.11" stop-color="#AF8D57"/>
<stop offset="0.15" stop-color="#C8AA6E"/>
<stop offset="0.19" stop-color="#E6D08C"/>
<stop offset="0.21" stop-color="#F8E69D"/>
<stop offset="0.23" stop-color="#F4E097"/>
<stop offset="0.35" stop-color="#D2B269"/>
<stop offset="0.44" stop-color="#BC954C"/>
<stop offset="0.5" stop-color="#B58B42"/>
<stop offset="0.69" stop-color="#E0C06C"/>
<stop offset="0.72" stop-color="#C9A65D"/>
<stop offset="0.77" stop-color="#A17A43"/>
<stop offset="0.8" stop-color="#92693A"/>
</linearGradient>
<linearGradient id="paint31_linear_4772_1838" x1="24.4466" y1="-0.917158" x2="-15.2672" y2="59.2105" gradientUnits="userSpaceOnUse">
<stop stop-color="#916739"/>
<stop offset="0.04" stop-color="#946B3C"/>
<stop offset="0.07" stop-color="#9E7846"/>
<stop offset="0.11" stop-color="#AF8D57"/>
<stop offset="0.15" stop-color="#C8AA6E"/>
<stop offset="0.19" stop-color="#E6D08C"/>
<stop offset="0.21" stop-color="#F8E69D"/>
<stop offset="0.23" stop-color="#F4E097"/>
<stop offset="0.35" stop-color="#D2B269"/>
<stop offset="0.44" stop-color="#BC954C"/>
<stop offset="0.5" stop-color="#B58B42"/>
<stop offset="0.69" stop-color="#E0C06C"/>
<stop offset="0.72" stop-color="#C9A65D"/>
<stop offset="0.77" stop-color="#A17A43"/>
<stop offset="0.8" stop-color="#92693A"/>
</linearGradient>
<linearGradient id="paint32_linear_4772_1838" x1="10.1428" y1="-6.32065" x2="5.9382" y2="93.5287" gradientUnits="userSpaceOnUse">
<stop stop-color="#916739"/>
<stop offset="0.04" stop-color="#946B3C"/>
<stop offset="0.07" stop-color="#9E7846"/>
<stop offset="0.11" stop-color="#AF8D57"/>
<stop offset="0.15" stop-color="#C8AA6E"/>
<stop offset="0.19" stop-color="#E6D08C"/>
<stop offset="0.21" stop-color="#F8E69D"/>
<stop offset="0.23" stop-color="#F4E097"/>
<stop offset="0.35" stop-color="#D2B269"/>
<stop offset="0.44" stop-color="#BC954C"/>
<stop offset="0.5" stop-color="#B58B42"/>
<stop offset="0.69" stop-color="#E0C06C"/>
<stop offset="0.72" stop-color="#C9A65D"/>
<stop offset="0.77" stop-color="#A17A43"/>
<stop offset="0.8" stop-color="#92693A"/>
</linearGradient>
<linearGradient id="paint33_linear_4772_1838" x1="20.0909" y1="32.6933" x2="25.7641" y2="135.58" gradientUnits="userSpaceOnUse">
<stop stop-color="#916739"/>
<stop offset="0.04" stop-color="#946B3C"/>
<stop offset="0.07" stop-color="#9E7846"/>
<stop offset="0.11" stop-color="#AF8D57"/>
<stop offset="0.15" stop-color="#C8AA6E"/>
<stop offset="0.19" stop-color="#E6D08C"/>
<stop offset="0.21" stop-color="#F8E69D"/>
<stop offset="0.23" stop-color="#F4E097"/>
<stop offset="0.35" stop-color="#D2B269"/>
<stop offset="0.44" stop-color="#BC954C"/>
<stop offset="0.5" stop-color="#B58B42"/>
<stop offset="0.69" stop-color="#E0C06C"/>
<stop offset="0.72" stop-color="#C9A65D"/>
<stop offset="0.77" stop-color="#A17A43"/>
<stop offset="0.8" stop-color="#92693A"/>
</linearGradient>
<linearGradient id="paint34_linear_4772_1838" x1="23.978" y1="34.5235" x2="56.785" y2="24.6981" gradientUnits="userSpaceOnUse">
<stop offset="0.03" stop-color="#92693A"/>
<stop offset="0.1" stop-color="#A17A43"/>
<stop offset="0.24" stop-color="#C9A65D"/>
<stop offset="0.31" stop-color="#E0C06C"/>
<stop offset="0.5" stop-color="#B58B42"/>
<stop offset="0.56" stop-color="#BC954C"/>
<stop offset="0.65" stop-color="#D2B269"/>
<stop offset="0.77" stop-color="#F4E097"/>
<stop offset="0.79" stop-color="#F8E69D"/>
<stop offset="0.81" stop-color="#E6D08C"/>
<stop offset="0.85" stop-color="#C8AA6E"/>
<stop offset="0.89" stop-color="#AF8D57"/>
<stop offset="0.93" stop-color="#9E7846"/>
<stop offset="0.96" stop-color="#946B3C"/>
<stop offset="1" stop-color="#916739"/>
</linearGradient>
<clipPath id="clip0_4772_1838">
<rect width="79.2931" height="63" fill="white" transform="translate(0.75)"/>
</clipPath>
<clipPath id="clip1_4772_1838">
<rect width="33" height="14" fill="white" transform="translate(24 23)"/>
</clipPath>
</defs>
</svg>
