<svg width="80" height="80" viewBox="0 0 80 80" fill="none" xmlns="http://www.w3.org/2000/svg">
<g opacity="0.8">
<circle cx="40" cy="40" r="40" fill="white"/>
<circle cx="40" cy="40" r="40" fill="#35C0FF"/>
</g>
<path d="M39.9002 63C38.2802 63 37.2002 62.1199 37.2002 60.7998V29.9971C37.2002 28.677 38.2802 27.7969 39.9002 27.7969C41.5202 27.7969 42.6002 28.677 42.6002 29.9971V60.7998C42.6002 62.1199 41.5202 63 39.9002 63Z" fill="white"/>
<path d="M56.0999 49.3968C55.2899 49.3968 54.7499 49.1268 54.2099 48.5868L39.9 34.2769L25.59 48.5868C24.51 49.6668 22.89 49.6668 21.81 48.5868C20.73 47.5068 20.73 45.8868 21.81 44.8068L38.01 28.6069C39.09 27.5269 40.71 27.5269 41.79 28.6069L57.9899 44.8068C59.0699 45.8868 59.0699 47.5068 57.9899 48.5868C57.4499 49.1268 56.9099 49.3968 56.0999 49.3968Z" fill="white"/>
<path d="M56.0999 22.4H23.7C22.08 22.4 21 21.32 21 19.7C21 18.08 22.08 17 23.7 17H56.0999C57.7199 17 58.7999 18.08 58.7999 19.7C58.7999 21.32 57.7199 22.4 56.0999 22.4Z" fill="white"/>
</svg>
