<svg width="53" height="43" viewBox="0 0 53 43" fill="none" xmlns="http://www.w3.org/2000/svg">
<path fill-rule="evenodd" clip-rule="evenodd" d="M1 11C1 8.79086 2.79086 7 5 7H35.2416C45.11 7 53 15.1295 53 25C53 34.8705 45.11 43 35.2416 43H13.264C11.0548 43 9.26398 41.2091 9.26398 39C9.26398 36.7909 11.0548 35 13.264 35H35.2416C40.561 35 45 30.5841 45 25C45 19.4159 40.561 15 35.2416 15H5C2.79086 15 1 13.2091 1 11Z" fill="#4098D8"/>
<path fill-rule="evenodd" clip-rule="evenodd" d="M13.8329 1.17606C15.3925 2.74064 15.3885 5.27329 13.8239 6.83291L9.65686 10.9868L13.8329 15.1761C15.3925 16.7406 15.3885 19.2733 13.8239 20.8329C12.2594 22.3925 9.72673 22.3885 8.1671 20.8239L1.1671 13.8018C0.418142 13.0504 -0.00167559 12.0324 5.02648e-06 10.9715C0.00168564 9.91062 0.424727 8.89387 1.17606 8.14491L8.17606 1.16709C9.74064 -0.392528 12.2733 -0.388509 13.8329 1.17606Z" fill="#4098D8"/>
</svg>
