<svg fill="none" height="43" viewBox="0 0 53 43" width="53" xmlns="http://www.w3.org/2000/svg"><g clip-rule="evenodd" fill="#4098d8" fill-rule="evenodd"><path d="m1 11c0-2.20914 1.79086-4 4-4h30.2416c9.8684 0 17.7584 8.1295 17.7584 18s-7.89 18-17.7584 18h-21.9776c-2.2092 0-4.00002-1.7909-4.00002-4s1.79082-4 4.00002-4h21.9776c5.3194 0 9.7584-4.4159 9.7584-10s-4.439-10-9.7584-10h-30.2416c-2.20914 0-4-1.7909-4-4z"/><path d="m13.8329 1.17606c1.5596 1.56458 1.5556 4.09723-.009 5.65685l-4.16704 4.15389 4.17604 4.1893c1.5596 1.5645 1.5556 4.0972-.009 5.6568-1.5645 1.5596-4.09717 1.5556-5.6568-.009l-7-7.0221c-.748958-.7514-1.16877559-1.7694-1.16709497-2.8303.00168061-1.06088.42472197-2.07763 1.17605497-2.82659l7-6.97782c1.56458-1.559618 4.09724-1.555599 5.65684.00897z"/></g></svg>