<svg fill="none" height="30" viewBox="0 0 31 30" width="31" xmlns="http://www.w3.org/2000/svg"><g fill="#fff"><path d="m17.6077 22.4643c0-3.121 0-6.1498 0-9.2483h2.7409v9.254h3.8018c0-3.0985 0-6.148 0-9.2615h2.7616v9.2219c.38.081.6603.1167.9237.2014.6453.2071 1.0742.7003.9124 1.3328-.1185.4649-.5757.8697-.9481 1.2311-.143.1374-.476.1054-.7224.1054-7.4044.0057-14.8069.0057-22.21123 0-.27654 0-.63961.0264-.8108-.128-.36495-.3275-.8202-.7417-.87851-1.169-.0508-.384.28029-1.0428.62079-1.2047.61327-.2918.68663-.6645.68099-1.2349-.02069-2.4377-.00941-4.8773-.00941-7.315 0-.3351 0-.6702 0-1.0542h2.75971v9.2634h3.76806c0-3.059 0-6.1085 0-9.2352h2.7747v9.2408z"/><path d="m15.7422 11.2307c-4.1837 0-8.36751-.0056-12.5494.0057-.93495.0019-1.74198-.2165-2.214163-1.0975-.547427-1.02399-.129802-2.10262 1.102373-2.78781 3.73417-2.08007 7.47209-4.15261 11.21759-6.21008 2.7879-1.530403 2.0693-1.519108 4.8779.0207 3.6928 2.02172 7.3837 4.04907 11.035 6.14796.5889.33884 1.1927.9845 1.3865 1.61323.3875 1.2556-.6848 2.2965-2.2104 2.3041-2.9027.015-5.8073.0037-8.7099.0056-1.3131-.0019-2.6243-.0019-3.9355-.0019zm-1.7702-2.80852c-.2163-1.745.3951-2.75962 1.6686-2.74268.459.00565 1.1288.1826 1.3282.50825.3837.63061.5022 1.42311.7449 2.19678h7.6038c-.1468-.1393-.1994-.21648-.2747-.25789-2.9478-1.6377-5.8881-3.28669-8.8585-4.88298-.2728-.14683-.7826-.08282-1.0779.07718-2.803 1.51158-5.5834 3.06457-8.36756 4.61191-.19188.1073-.36119.25789-.68475.48943z"/><path d="m16.0493 27.2228h12.3764c.2182 0 .4383-.0075.6565.0019.9914.0452 1.5727.5478 1.5858 1.3629.0132.8207-.5643 1.3515-1.5407 1.408-.1862.0113-.3743.0038-.5624.0038-8.4071 0-16.8141 0-25.22115 0-.15614 0-.31227.0037-.46841-.0019-1.04595-.0395-1.64793-.561-1.63288-1.4099.01505-.8434.61703-1.3403 1.67991-1.361.78069-.0151 1.56327-.0038 2.34396-.0038z"/></g></svg>