<svg width="50" height="50" viewBox="0 0 50 50" fill="none" xmlns="http://www.w3.org/2000/svg">
<path d="M47.1688 47.9951H3.83118C3.61074 47.9951 3.39933 47.9079 3.24346 47.7525C3.08758 47.5972 3 47.3865 3 47.1668V43.5198C3 43.3001 3.08758 43.0894 3.24346 42.934C3.39933 42.7787 3.61074 42.6914 3.83118 42.6914H47.1688C47.3893 42.6914 47.6007 42.7787 47.7565 42.934C47.9124 43.0894 48 43.3001 48 43.5198V47.1668C48 47.3865 47.9124 47.5972 47.7565 47.7525C47.6007 47.9079 47.3893 47.9951 47.1688 47.9951ZM4.66236 46.3384H46.3376V44.3482H4.66236V46.3384Z" fill="#6C7AAB"/>
<path d="M14.5196 40.3299H9.15637C8.93593 40.3299 8.72453 40.2427 8.56865 40.0873C8.41278 39.932 8.3252 39.7213 8.3252 39.5016V23.5862C8.3252 23.3665 8.41278 23.1558 8.56865 23.0004C8.72453 22.8451 8.93593 22.7578 9.15637 22.7578H14.5196C14.74 22.7578 14.9514 22.8451 15.1073 23.0004C15.2632 23.1558 15.3507 23.3665 15.3507 23.5862V39.5016C15.3507 39.7213 15.2632 39.932 15.1073 40.0873C14.9514 40.2427 14.74 40.3299 14.5196 40.3299ZM9.98755 38.6732H13.6884V24.4146H9.98755V38.6732Z" fill="#6C7AAB"/>
<path d="M41.9898 39.9076H36.3253C36.1049 39.9076 35.8935 39.8203 35.7376 39.665C35.5817 39.5096 35.4941 39.2989 35.4941 39.0792V34.0861C35.4941 33.8664 35.5817 33.6557 35.7376 33.5003C35.8935 33.345 36.1049 33.2577 36.3253 33.2577C36.5458 33.2577 36.7572 33.345 36.9131 33.5003C37.069 33.6557 37.1565 33.8664 37.1565 34.0861V38.2508H41.1586V24.1683H37.1565V34.1482C37.1565 34.3679 37.069 34.5786 36.9131 34.734C36.7572 34.8893 36.5458 34.9766 36.3253 34.9766C36.1049 34.9766 35.8935 34.8893 35.7376 34.734C35.5817 34.5786 35.4941 34.3679 35.4941 34.1482V23.344C35.4941 23.1243 35.5817 22.9136 35.7376 22.7583C35.8935 22.6029 36.1049 22.5156 36.3253 22.5156H41.9898C42.2102 22.5156 42.4216 22.6029 42.5775 22.7583C42.7334 22.9136 42.821 23.1243 42.821 23.344V39.0833C42.8199 39.3023 42.7319 39.512 42.5761 39.6664C42.4203 39.8209 42.2095 39.9076 41.9898 39.9076Z" fill="#6C7AAB"/>
<path d="M47.1087 20.6333H3.84583C3.62538 20.6333 3.41398 20.546 3.25811 20.3907C3.10223 20.2353 3.01465 20.0246 3.01465 19.8049V15.4807C3.01465 15.261 3.10223 15.0503 3.25811 14.895C3.41398 14.7396 3.62538 14.6523 3.84583 14.6523H47.1087C47.3291 14.6523 47.5405 14.7396 47.6964 14.895C47.8523 15.0503 47.9399 15.261 47.9399 15.4807V19.8049C47.9399 20.0246 47.8523 20.2353 47.6964 20.3907C47.5405 20.546 47.3291 20.6333 47.1087 20.6333ZM4.677 18.9765H46.2775V16.3091H4.677V18.9765Z" fill="#6C7AAB"/>
<path d="M47.1088 16.3805H3.90617C3.72201 16.3804 3.54314 16.3193 3.39759 16.2068C3.25204 16.0944 3.14807 15.9369 3.10203 15.7592C3.05567 15.5818 3.06966 15.394 3.14185 15.2254C3.21405 15.0567 3.34037 14.9167 3.50098 14.8273L12.4195 9.85697C12.4846 9.82034 12.5545 9.79314 12.6273 9.77621L25.1179 3.09942C25.2391 3.03416 25.3748 3 25.5126 3C25.6505 3 25.7862 3.03416 25.9075 3.09942L47.5181 14.8231C47.6818 14.91 47.8115 15.049 47.8868 15.2178C47.9621 15.3867 47.9787 15.5758 47.9337 15.7551C47.8876 15.937 47.7809 16.098 47.631 16.2116C47.4812 16.3253 47.297 16.3848 47.1088 16.3805ZM7.09792 14.7237H43.8463L25.5065 4.77069L13.2881 11.3066C13.2293 11.3374 13.1672 11.3617 13.1032 11.3791L7.09792 14.7237Z" fill="#6C7AAB"/>
<path d="M25.4776 13.7822C24.6581 13.7811 23.8724 13.456 23.2931 12.8783C22.7139 12.3006 22.3882 11.5174 22.3877 10.7006C22.3888 9.88421 22.7147 9.10156 23.2939 8.52428C23.8731 7.94699 24.6584 7.62219 25.4776 7.62109C26.2971 7.62164 27.0829 7.9462 27.6626 8.52355C28.2423 9.10089 28.5685 9.88386 28.5696 10.7006C28.569 11.5177 28.2431 12.3012 27.6633 12.879C27.0836 13.4568 26.2974 13.7817 25.4776 13.7822ZM25.4776 9.27787C25.0991 9.27841 24.7363 9.42849 24.4687 9.69518C24.2011 9.96188 24.0506 10.3234 24.0501 10.7006C24.0501 11.0781 24.2004 11.4402 24.468 11.7074C24.7357 11.9745 25.0988 12.1249 25.4776 12.1254C25.8566 12.1249 26.2199 11.9746 26.4879 11.7075C26.7559 11.4404 26.9067 11.0783 26.9072 10.7006C26.9067 10.3231 26.7558 9.96121 26.4877 9.69446C26.2197 9.4277 25.8564 9.27786 25.4776 9.27787Z" fill="#6C7AAB"/>
<path d="M25.658 39.0409C23.6409 39.0376 21.7074 38.2371 20.2817 36.815C18.856 35.3929 18.0544 33.4653 18.0527 31.455C18.0549 29.4443 18.8574 27.5166 20.2839 26.0948C21.7105 24.673 23.6447 23.8733 25.6622 23.8711C27.6799 23.8733 29.6143 24.6729 31.0412 26.0947C32.4681 27.5164 33.2709 29.4441 33.2737 31.455C33.2715 33.4669 32.4683 35.3958 31.0404 36.8181C29.6125 38.2404 27.6768 39.0398 25.658 39.0409ZM25.658 25.5299C24.0824 25.5327 22.572 26.1579 21.4581 27.2685C20.3441 28.3791 19.7173 29.8846 19.7151 31.455C19.7162 33.0261 20.3425 34.5326 21.4566 35.6441C22.5707 36.7556 24.0816 37.3814 25.658 37.3841C27.235 37.3825 28.7469 36.7576 29.8622 35.6464C30.9774 34.5353 31.605 33.0287 31.6072 31.457C31.6055 29.885 30.9782 28.3779 29.8629 27.2663C28.7476 26.1547 27.2353 25.5295 25.658 25.5279V25.5299Z" fill="white"/>
<path d="M25.658 39.0409C23.6409 39.0376 21.7074 38.2371 20.2817 36.815C18.856 35.3929 18.0544 33.4653 18.0527 31.455C18.0549 29.4443 18.8574 27.5166 20.2839 26.0948C21.7105 24.673 23.6447 23.8733 25.6622 23.8711C27.6799 23.8733 29.6143 24.6729 31.0412 26.0947C32.4681 27.5164 33.2709 29.4441 33.2737 31.455C33.2715 33.4669 32.4683 35.3958 31.0404 36.8181C29.6125 38.2404 27.6768 39.0398 25.658 39.0409ZM25.658 25.5299C24.0824 25.5327 22.572 26.1579 21.4581 27.2685C20.3441 28.3791 19.7173 29.8846 19.7151 31.455C19.7162 33.0261 20.3425 34.5326 21.4566 35.6441C22.5707 36.7556 24.0816 37.3814 25.658 37.3841C27.235 37.3825 28.7469 36.7576 29.8622 35.6464C30.9774 34.5353 31.605 33.0287 31.6072 31.457C31.6055 29.885 30.9782 28.3779 29.8629 27.2663C28.7476 26.1547 27.2353 25.5295 25.658 25.5279V25.5299Z" fill="#35C0FF"/>
<path d="M14.5202 24.4115H9.15705C9.02448 24.4115 8.89385 24.38 8.77601 24.3194C8.65817 24.2589 8.55653 24.1712 8.47964 24.0635L5.86562 20.3979C5.77752 20.2744 5.72508 20.1291 5.71409 19.9779C5.70309 19.8268 5.73396 19.6755 5.80327 19.5406C5.87226 19.406 5.9769 19.2927 6.10583 19.2132C6.23476 19.1336 6.38307 19.0907 6.53471 19.0891L16.9244 19C17.0745 18.9987 17.222 19.0378 17.3515 19.1133C17.4811 19.1888 17.5877 19.2978 17.66 19.4287C17.7326 19.5597 17.7681 19.7078 17.763 19.8573C17.7579 20.0068 17.7122 20.1521 17.6309 20.2778L15.206 24.0304C15.132 24.1453 15.0307 24.2402 14.9111 24.3067C14.7914 24.3732 14.6572 24.4092 14.5202 24.4115ZM9.5872 22.7547H14.0673L15.4117 20.6713L8.14928 20.7355L9.5872 22.7547Z" fill="#6C7AAB"/>
<path d="M6.54271 44.1849C6.39411 44.1847 6.24824 44.1449 6.12033 44.0695C5.99241 43.9941 5.88714 43.8859 5.81543 43.7562C5.74291 43.6252 5.70728 43.4771 5.7124 43.3276C5.71752 43.1781 5.76318 43.0328 5.8445 42.9071L8.26945 39.1545C8.34455 39.0378 8.44785 38.9418 8.56983 38.8752C8.69181 38.8087 8.82859 38.7737 8.96766 38.7734H14.3308C14.4636 38.7736 14.5943 38.8055 14.7122 38.8664C14.83 38.9273 14.9316 39.0154 15.0083 39.1234L17.614 42.787C17.7017 42.9103 17.7538 43.0552 17.7648 43.206C17.7758 43.3567 17.7452 43.5076 17.6763 43.6423C17.6072 43.7772 17.5022 43.8906 17.3729 43.9702C17.2436 44.0498 17.0948 44.0925 16.9428 44.0937L6.55306 44.1849H6.54271ZM9.42064 40.4302L8.07413 42.5136L15.3469 42.4515L13.909 40.4302H9.42064Z" fill="#6C7AAB"/>
<path d="M34.0194 44.1849C33.8704 44.1851 33.7241 44.1454 33.5958 44.07C33.4675 43.9946 33.3619 43.8862 33.29 43.7562C33.2178 43.625 33.1826 43.4768 33.1881 43.3273C33.1935 43.1778 33.2395 43.0326 33.3212 42.9071L35.7461 39.1545C35.8212 39.0378 35.9245 38.9418 36.0465 38.8752C36.1685 38.8087 36.3053 38.7737 36.4443 38.7734H41.8075C41.9403 38.7736 42.071 38.8055 42.1889 38.8664C42.3067 38.9273 42.4083 39.0154 42.4849 39.1234L45.0907 42.787C45.1784 42.9103 45.2305 43.0552 45.2415 43.206C45.2525 43.3567 45.2219 43.5076 45.153 43.6423C45.0838 43.7772 44.9789 43.8906 44.8496 43.9702C44.7202 44.0498 44.5715 44.0925 44.4195 44.0937L34.0297 44.1849H34.0194ZM36.8973 40.4302L35.5508 42.5136L42.8236 42.4515L41.3857 40.4302H36.8973Z" fill="#6C7AAB"/>
<path d="M41.9488 24.4116H36.5856C36.4531 24.4116 36.3224 24.3801 36.2046 24.3195C36.0868 24.259 35.9851 24.1713 35.9082 24.0637L33.2963 20.398C33.2082 20.2745 33.1557 20.1292 33.1448 19.978C33.1338 19.8269 33.1646 19.6756 33.2339 19.5407C33.3031 19.4058 33.408 19.2923 33.5374 19.2127C33.6667 19.1331 33.8155 19.0904 33.9675 19.0892L44.3572 19.0001C44.5072 18.9973 44.6551 19.0359 44.7845 19.1115C44.9139 19.1872 45.0199 19.297 45.0907 19.4288C45.1632 19.5598 45.1988 19.7079 45.1937 19.8574C45.1886 20.0069 45.1429 20.1522 45.0616 20.2779L42.6366 24.0305C42.5625 24.1457 42.4608 24.2408 42.3408 24.3073C42.2208 24.3738 42.0861 24.4096 41.9488 24.4116ZM37.0158 22.7548H41.4958L42.8424 20.6714L35.5695 20.7356L37.0158 22.7548Z" fill="#6C7AAB"/>
<path d="M25.6155 34.0636C25.2149 34.0657 24.8158 34.0141 24.429 33.9104C24.0985 33.8308 23.7838 33.6964 23.498 33.5128L23.9656 32.4773C24.2087 32.6287 24.4707 32.7478 24.7448 32.8314C25.0288 32.9228 25.3253 32.9696 25.6238 32.9702C25.7833 32.9747 25.9428 32.9573 26.0976 32.9184C26.1958 32.893 26.2858 32.8431 26.3594 32.7734C26.4127 32.7176 26.4425 32.6434 26.4425 32.5663C26.4429 32.5109 26.4284 32.4564 26.4007 32.4083C26.3729 32.3603 26.3329 32.3205 26.2846 32.293C26.1552 32.2178 26.015 32.1627 25.869 32.1294C25.7007 32.0859 25.5157 32.0424 25.3121 32.001C25.1057 31.9564 24.9018 31.9011 24.7012 31.8353C24.5056 31.7728 24.3191 31.6851 24.1464 31.5743C23.9772 31.4706 23.8349 31.3287 23.7308 31.1601C23.6181 30.9586 23.5635 30.73 23.5729 30.4995C23.5692 30.2086 23.6555 29.9237 23.8201 29.6835C24.0069 29.4223 24.2641 29.2191 24.562 29.0975C24.9538 28.9374 25.3751 28.8619 25.7983 28.8759C26.1256 28.8761 26.4518 28.9129 26.7708 28.9856C27.0685 29.0522 27.3548 29.1617 27.6207 29.3108L27.1822 30.3628C26.9571 30.2397 26.7187 30.1424 26.4716 30.0729C26.2497 30.0108 26.0205 29.9787 25.79 29.9776C25.6299 29.9722 25.4699 29.9924 25.3162 30.0377C25.2166 30.0658 25.1272 30.1219 25.0586 30.1992C25.006 30.2634 24.9781 30.3442 24.9796 30.427C24.9789 30.4804 24.9928 30.5329 25.0199 30.5789C25.047 30.6249 25.0863 30.6626 25.1334 30.688C25.2623 30.7628 25.4027 30.816 25.549 30.8454C25.7194 30.8868 25.9043 30.9282 26.108 30.9717C26.3143 31.0148 26.5182 31.0688 26.7189 31.1332C26.9151 31.1938 27.1024 31.2802 27.2757 31.39C27.4447 31.494 27.587 31.6358 27.6913 31.8042C27.8002 32.0048 27.8533 32.2307 27.8451 32.4586C27.846 32.7452 27.7598 33.0254 27.5978 33.2622C27.4124 33.5248 27.1559 33.7295 26.8581 33.8524C26.4637 34.0101 26.04 34.0821 25.6155 34.0636ZM25.3142 34.8237V28.1055H26.1765V34.8299L25.3142 34.8237Z" fill="white"/>
<path d="M25.6155 34.0636C25.2149 34.0657 24.8158 34.0141 24.429 33.9104C24.0985 33.8308 23.7838 33.6964 23.498 33.5128L23.9656 32.4773C24.2087 32.6287 24.4707 32.7478 24.7448 32.8314C25.0288 32.9228 25.3253 32.9696 25.6238 32.9702C25.7833 32.9747 25.9428 32.9573 26.0976 32.9184C26.1958 32.893 26.2858 32.8431 26.3594 32.7734C26.4127 32.7176 26.4425 32.6434 26.4425 32.5663C26.4429 32.5109 26.4284 32.4564 26.4007 32.4083C26.3729 32.3603 26.3329 32.3205 26.2846 32.293C26.1552 32.2178 26.015 32.1627 25.869 32.1294C25.7007 32.0859 25.5157 32.0424 25.3121 32.001C25.1057 31.9564 24.9018 31.9011 24.7012 31.8353C24.5056 31.7728 24.3191 31.6851 24.1464 31.5743C23.9772 31.4706 23.8349 31.3287 23.7308 31.1601C23.6181 30.9586 23.5635 30.73 23.5729 30.4995C23.5692 30.2086 23.6555 29.9237 23.8201 29.6835C24.0069 29.4223 24.2641 29.2191 24.562 29.0975C24.9538 28.9374 25.3751 28.8619 25.7983 28.8759C26.1256 28.8761 26.4518 28.9129 26.7708 28.9856C27.0685 29.0522 27.3548 29.1617 27.6207 29.3108L27.1822 30.3628C26.9571 30.2397 26.7187 30.1424 26.4716 30.0729C26.2497 30.0108 26.0205 29.9787 25.79 29.9776C25.6299 29.9722 25.4699 29.9924 25.3162 30.0377C25.2166 30.0658 25.1272 30.1219 25.0586 30.1992C25.006 30.2634 24.9781 30.3442 24.9796 30.427C24.9789 30.4804 24.9928 30.5329 25.0199 30.5789C25.047 30.6249 25.0863 30.6626 25.1334 30.688C25.2623 30.7628 25.4027 30.816 25.549 30.8454C25.7194 30.8868 25.9043 30.9282 26.108 30.9717C26.3143 31.0148 26.5182 31.0688 26.7189 31.1332C26.9151 31.1938 27.1024 31.2802 27.2757 31.39C27.4447 31.494 27.587 31.6358 27.6913 31.8042C27.8002 32.0048 27.8533 32.2307 27.8451 32.4586C27.846 32.7452 27.7598 33.0254 27.5978 33.2622C27.4124 33.5248 27.1559 33.7295 26.8581 33.8524C26.4637 34.0101 26.04 34.0821 25.6155 34.0636ZM25.3142 34.8237V28.1055H26.1765V34.8299L25.3142 34.8237Z" fill="#35C0FF"/>
</svg>
