<svg fill="none" height="55" viewBox="0 0 62 55" width="62" xmlns="http://www.w3.org/2000/svg"><g clip-rule="evenodd" fill="#fff" fill-rule="evenodd"><path d="m18.5852 8.45619c-1.6666 0-3.1706 1.11158-3.6723 2.73801l-.0008.0025-10.86234 34.8841c-.00006.0002-.00013.0004-.00019.0006-.7796 2.5135 1.1002 5.0509 3.67344 5.0509h33.90239c1.8027 0 3.3336-1.2058 3.7419-2.9244l.0025-.0102 8.6935-34.9036c.0005-.0024.0011-.0047.0016-.0071.2163-.907.1314-1.7325-.1738-2.4232l-.0097-.0219-.0092-.0223c-.5657-1.3715-1.9185-2.36341-3.5519-2.36341zm-7.3697 1.59461c.9954-3.2229 3.9803-5.46486 7.3697-5.46486h31.7351c3.2599 0 5.9779 1.9904 7.1204 4.73567.666 1.52079.7848 3.21329.3858 4.87569l-.0019.008-8.6946 34.9083c-.834 3.4875-3.9445 5.8889-7.5046 5.8889h-33.90239c-5.21842 0-8.91145-5.1001-7.369482-10.0688l.000275-.0009 10.860897-34.8795c.0003-.0008.0005-.0017.0008-.0025z"/><path d="m56.2561 9.93486c1.1144-.07734 2.0834.72244 2.1644 1.78644l2.6705 35.0768.0004.0055c.3237 4.4298-3.3171 8.1954-7.9796 8.1954h-12.8939c-1.1173 0-2.0231-.8647-2.0231-1.9315s.9058-1.9315 2.0231-1.9315h12.8939c2.2961 0 4.1037-1.8473 3.9434-4.0609 0-.0009-.0001-.0017-.0002-.0026l-2.67-35.0712c-.081-1.0639.7567-1.9891 1.8711-2.06644z"/><path d="m27.0542.0523807c.8476.2417623 1.3694 1.2518293 1.1653 2.2560493l-2.1891 10.77247c-.2041 1.0042-1.0567 1.6223-1.9044 1.3806-.8476-.2418-1.3694-1.2518-1.1653-2.2561l2.1891-10.77247c.2041-1.004218 1.0567-1.622312 1.9044-1.3805493z"/><path d="m44.9306.0426278c1.1405.2179022 1.8648 1.2101122 1.6177 2.2161622l-2.6482 10.78541c-.247 1.006-1.3718 1.6449-2.5123 1.427s-1.8648-1.2101-1.6178-2.2161l2.6482-10.78541c.247-1.006045 1.3719-1.644964 2.5124-1.4270622z"/><path d="m17.5703 27.1189c0-1.4766.864-2.6736 1.9298-2.6736h20.5848c1.0658 0 1.9298 1.197 1.9298 2.6736s-.864 2.6736-1.9298 2.6736h-20.5848c-1.0658 0-1.9298-1.197-1.9298-2.6736z"/><path d="m14.5132 37.8064c0-1.4766.891-2.6736 1.9901-2.6736h21.228c1.0992 0 1.9902 1.197 1.9902 2.6736s-.891 2.6736-1.9902 2.6736h-21.228c-1.0991 0-1.9901-1.197-1.9901-2.6736z"/></g></svg>