<svg width="62" height="55" viewBox="0 0 62 55" fill="none" xmlns="http://www.w3.org/2000/svg">
<path fill-rule="evenodd" clip-rule="evenodd" d="M18.5852 8.45619C16.9186 8.45619 15.4146 9.56777 14.9129 11.1942L14.9121 11.1967L4.04976 46.0808C4.0497 46.081 4.04963 46.0812 4.04957 46.0814C3.26997 48.5949 5.14977 51.1323 7.72301 51.1323H41.6254C43.4281 51.1323 44.959 49.9265 45.3673 48.2079L45.3698 48.1977L54.0633 13.2941C54.0638 13.2917 54.0644 13.2894 54.0649 13.287C54.2812 12.38 54.1963 11.5545 53.8911 10.8638L53.8814 10.8419L53.8722 10.8196C53.3065 9.4481 51.9537 8.45619 50.3203 8.45619H18.5852ZM11.2155 10.0508C12.2109 6.8279 15.1958 4.58594 18.5852 4.58594H50.3203C53.5802 4.58594 56.2982 6.57634 57.4407 9.32161C58.1067 10.8424 58.2255 12.5349 57.8265 14.1973L57.8246 14.2053L49.13 49.1136C48.296 52.6011 45.1855 55.0025 41.6254 55.0025H7.72301C2.50459 55.0025 -1.18844 49.9024 0.353528 44.9337L0.353803 44.9328L11.2147 10.0533C11.215 10.0525 11.2152 10.0516 11.2155 10.0508Z" fill="white"/>
<path fill-rule="evenodd" clip-rule="evenodd" d="M56.2561 9.93486C57.3705 9.85752 58.3395 10.6573 58.4205 11.7213L61.091 46.7981L61.0914 46.8036C61.4151 51.2334 57.7743 54.999 53.1118 54.999H40.2179C39.1006 54.999 38.1948 54.1343 38.1948 53.0675C38.1948 52.0007 39.1006 51.136 40.2179 51.136H53.1118C55.4079 51.136 57.2155 49.2887 57.0552 47.0751C57.0552 47.0742 57.0551 47.0734 57.055 47.0725L54.385 12.0013C54.304 10.9374 55.1417 10.0122 56.2561 9.93486Z" fill="white"/>
<path fill-rule="evenodd" clip-rule="evenodd" d="M27.0542 0.0523807C27.9018 0.294143 28.4236 1.30421 28.2195 2.30843L26.0304 13.0809C25.8263 14.0851 24.9737 14.7032 24.126 14.4615C23.2784 14.2197 22.7566 13.2097 22.9607 12.2054L25.1498 1.43293C25.3539 0.428712 26.2065 -0.189382 27.0542 0.0523807Z" fill="white"/>
<path fill-rule="evenodd" clip-rule="evenodd" d="M44.9306 0.0426278C46.0711 0.26053 46.7954 1.25274 46.5483 2.25879L43.9001 13.0442C43.6531 14.0502 42.5283 14.6891 41.3878 14.4712C40.2473 14.2533 39.523 13.2611 39.77 12.2551L42.4182 1.46969C42.6652 0.463645 43.7901 -0.175274 44.9306 0.0426278Z" fill="white"/>
<path fill-rule="evenodd" clip-rule="evenodd" d="M17.5703 27.1189C17.5703 25.6423 18.4343 24.4453 19.5001 24.4453H40.0849C41.1507 24.4453 42.0147 25.6423 42.0147 27.1189C42.0147 28.5955 41.1507 29.7925 40.0849 29.7925H19.5001C18.4343 29.7925 17.5703 28.5955 17.5703 27.1189Z" fill="white"/>
<path fill-rule="evenodd" clip-rule="evenodd" d="M14.5132 37.8064C14.5132 36.3298 15.4042 35.1328 16.5033 35.1328H37.7313C38.8305 35.1328 39.7215 36.3298 39.7215 37.8064C39.7215 39.283 38.8305 40.48 37.7313 40.48H16.5033C15.4042 40.48 14.5132 39.283 14.5132 37.8064Z" fill="white"/>
</svg>
