<svg width="50" height="50" viewBox="0 0 50 50" fill="none" xmlns="http://www.w3.org/2000/svg">
<path d="M39.2272 39.0355C42.9284 35.3008 45.0033 30.2551 45 24.9976C45.0044 19.74 42.9293 14.6939 39.2272 10.9597C39.2015 10.9232 39.1732 10.8886 39.1424 10.8562C39.1117 10.8255 39.0786 10.7971 39.0435 10.7715C35.3068 7.07286 30.2606 4.99869 25.0023 5C19.7408 5.00063 14.6931 7.08218 10.9612 10.7903C10.9246 10.8159 10.89 10.8442 10.8576 10.875C10.8246 10.908 10.8011 10.9456 10.7728 10.9786C7.07161 14.7133 4.99665 19.759 5 25.0165C4.99906 30.2679 7.07404 35.3069 10.7728 39.0355C10.7973 39.073 10.8257 39.1077 10.8576 39.1391C10.8888 39.1712 10.9235 39.1997 10.9612 39.2239C14.6957 42.9263 19.7429 45.0026 25.0023 45C30.2617 45.0021 35.3087 42.9259 39.0435 39.2239C39.0786 39.1982 39.1117 39.1698 39.1424 39.1391C39.1733 39.1068 39.2017 39.0722 39.2272 39.0355ZM7.39669 26.1745H10.4291C10.6739 29.2292 11.8769 32.1287 13.8664 34.4598L11.7287 36.6018C9.17784 33.7038 7.65505 30.045 7.39669 26.1933V26.1745ZM11.7287 13.3888L13.8664 15.5308C11.8782 17.8646 10.6755 20.7651 10.4291 23.8208H7.39669C7.65508 19.9677 9.1778 16.3075 11.7287 13.4077V13.3888ZM42.6032 23.8208H39.5709C39.328 20.7642 38.1249 17.8627 36.1336 15.5308L38.276 13.3888C40.8313 16.3003 42.3526 19.9743 42.6032 23.8396V23.8208ZM25.0023 37.2608C21.754 37.2571 18.6393 35.9673 16.3397 33.6735C14.0401 31.3797 12.7428 28.2688 12.7316 25.0212C12.7354 21.7687 14.0294 18.6505 16.3298 16.3506C18.6302 14.0508 21.7491 12.7571 25.0023 12.7533C28.2548 12.7583 31.3725 14.0526 33.6719 16.3523C35.9713 18.652 37.2646 21.7695 37.2684 25.0212C37.2634 28.2716 35.9693 31.3874 33.6699 33.6854C31.3705 35.9833 28.2535 37.2759 25.0023 37.2796V37.2608ZM34.4668 13.869C32.1355 11.8785 29.2353 10.6742 26.1795 10.4278V7.39613C30.0418 7.65242 33.7115 9.17654 36.6186 11.7318L34.4668 13.869ZM23.8252 10.4278C20.7682 10.6755 17.867 11.8795 15.5332 13.869L13.3908 11.7271C16.2975 9.17479 19.9651 7.65247 23.8252 7.39613V10.4278ZM15.5332 36.1263C17.8657 38.1171 20.7679 39.3199 23.8252 39.5628V42.5944C19.9656 42.3398 16.2979 40.8191 13.3908 38.2682L15.5332 36.1263ZM26.1795 39.5628C29.2353 39.3199 32.1361 38.1171 34.4668 36.1263L36.6092 38.2682C33.7035 40.8184 30.0375 42.3391 26.1795 42.5944V39.5628ZM36.1336 34.4598C38.1248 32.1297 39.328 29.2296 39.5709 26.1745H42.6032C42.3485 30.0318 40.8275 33.6972 38.276 36.6018L36.1336 34.4598Z" fill="#6C7AAB"/>
<path d="M26.5018 31.0802V32.3238H23.3984V31.0802C22.4798 31.11 21.5605 31.0582 20.6492 30.9254C20.3431 30.8844 20.0492 30.7663 19.7892 30.5798C19.5293 30.3934 19.31 30.1433 19.1477 29.8484C18.7764 28.915 18.613 27.8937 18.6719 26.8731H21.9233C21.9233 27.5396 22.0502 27.9323 22.3093 28.0632C23.2036 28.2286 24.1112 28.2845 25.0162 28.2299C25.9226 28.2565 26.8296 28.2306 27.7336 28.1525C27.9821 28.0989 28.1037 27.8787 28.1037 27.4979C28.1217 27.3074 28.0782 27.116 27.9811 26.9587C27.8841 26.8013 27.7399 26.6886 27.575 26.641C26.726 26.4849 25.865 26.4271 25.0056 26.4685C22.2881 26.4685 20.5805 26.2483 19.8667 25.802C19.153 25.3557 18.8094 24.2608 18.8094 22.5113C18.8094 20.9285 19.227 19.8872 20.0571 19.3992C20.6333 19.0541 21.7489 18.8815 23.3931 18.8815V17.6914H26.4965V18.8815C28.2976 18.8815 29.466 19.0799 30.0017 19.4766C30.7525 19.9943 31.1226 21.1784 31.1226 23.0469H27.8764C27.8764 22.4102 27.7548 22.0413 27.5063 21.9401C26.6586 21.789 25.7993 21.7371 24.9421 21.7854C24.0954 21.7558 23.2479 21.7856 22.4045 21.8747C22.1771 21.9342 22.0661 22.1603 22.0661 22.5471C22.0597 22.7367 22.1145 22.9226 22.2205 23.0703C22.3264 23.2179 22.4763 23.3175 22.6424 23.3504C23.4239 23.5054 24.218 23.5652 25.0109 23.5289C27.6931 23.5289 29.4184 23.7689 30.1868 24.2489C30.9551 24.7289 31.341 25.8238 31.3446 27.5336C31.3446 29.1046 30.9798 30.1162 30.2449 30.5803C29.6457 30.9136 28.398 31.0802 26.5018 31.0802Z" fill="white"/>
<path d="M26.5018 31.0802V32.3238H23.3984V31.0802C22.4798 31.11 21.5605 31.0582 20.6492 30.9254C20.3431 30.8844 20.0492 30.7663 19.7892 30.5798C19.5293 30.3934 19.31 30.1433 19.1477 29.8484C18.7764 28.915 18.613 27.8937 18.6719 26.8731H21.9233C21.9233 27.5396 22.0502 27.9323 22.3093 28.0632C23.2036 28.2286 24.1112 28.2845 25.0162 28.2299C25.9226 28.2565 26.8296 28.2306 27.7336 28.1525C27.9821 28.0989 28.1037 27.8787 28.1037 27.4979C28.1217 27.3074 28.0782 27.116 27.9811 26.9587C27.8841 26.8013 27.7399 26.6886 27.575 26.641C26.726 26.4849 25.865 26.4271 25.0056 26.4685C22.2881 26.4685 20.5805 26.2483 19.8667 25.802C19.153 25.3557 18.8094 24.2608 18.8094 22.5113C18.8094 20.9285 19.227 19.8872 20.0571 19.3992C20.6333 19.0541 21.7489 18.8815 23.3931 18.8815V17.6914H26.4965V18.8815C28.2976 18.8815 29.466 19.0799 30.0017 19.4766C30.7525 19.9943 31.1226 21.1784 31.1226 23.0469H27.8764C27.8764 22.4102 27.7548 22.0413 27.5063 21.9401C26.6586 21.789 25.7993 21.7371 24.9421 21.7854C24.0954 21.7558 23.2479 21.7856 22.4045 21.8747C22.1771 21.9342 22.0661 22.1603 22.0661 22.5471C22.0597 22.7367 22.1145 22.9226 22.2205 23.0703C22.3264 23.2179 22.4763 23.3175 22.6424 23.3504C23.4239 23.5054 24.218 23.5652 25.0109 23.5289C27.6931 23.5289 29.4184 23.7689 30.1868 24.2489C30.9551 24.7289 31.341 25.8238 31.3446 27.5336C31.3446 29.1046 30.9798 30.1162 30.2449 30.5803C29.6457 30.9136 28.398 31.0802 26.5018 31.0802Z" fill="#35C0FF"/>
</svg>
