<svg fill="none" height="31" viewBox="0 0 31 31" width="31" xmlns="http://www.w3.org/2000/svg"><g fill="#fff"><path d="m26.6147 25.8716c2.7741-2.8389 4.3293-6.6743 4.3268-10.6707.0032-3.9965-1.5521-7.83223-4.3268-10.67069-.0193-.0278-.0405-.0541-.0636-.07872-.023-.02335-.0478-.04488-.0741-.0644-2.8007-2.81143-6.5829-4.38808205-10.5241-4.38708953-3.9436.00048107-7.72683 1.58272953-10.52399 4.40138953-.02741.0195-.05335.04102-.07763.06441-.0247.02505-.04237.05369-.06355.07873-2.77409 2.8389-4.329301 6.67437-4.326789 10.67067-.000705 3.9918 1.554509 7.8221 4.326789 10.6564.01832.0285.03964.0549.06355.0787.02336.0244.0494.0461.07763.0645 2.7991 2.8143 6.58199 4.3926 10.52399 4.3906 3.942.0016 7.7248-1.5766 10.5241-4.3906.0263-.0196.0511-.0411.0741-.0645.0232-.0245.0445-.0508.0636-.0787zm-23.85741-9.7761h2.27282c.18351 2.3219 1.08512 4.526 2.57633 6.2979l-1.60227 1.6282c-1.91188-2.2029-3.05323-4.984-3.24688-7.9118zm3.24688-9.71884 1.60227 1.62815c-1.49023 1.774-2.39165 3.97879-2.57633 6.30149h-2.27282c.19366-2.9288 1.33496-5.71108 3.24688-7.91534zm23.14093 7.92964h-2.2728c-.1821-2.3234-1.0838-4.52891-2.5763-6.30149l1.6058-1.62815c1.9152 2.21308 3.0554 5.00584 3.2433 7.94394zm-13.1922 10.2163c-2.4346-.0029-4.7691-.9833-6.49269-2.7269-1.72357-1.7435-2.69592-4.1083-2.70432-6.5769.0028-2.4723.97269-4.8426 2.69687-6.59079 1.72414-1.7482 4.06184-2.7316 6.50014-2.73444 2.4378.00378 4.7746.98761 6.498 2.73571 1.7234 1.74812 2.6928 4.11782 2.6956 6.58952-.0037 2.4708-.9737 4.8392-2.6971 6.586-1.7234 1.7467-4.0596 2.7292-6.4965 2.7321zm7.0938-17.78096c-1.7474-1.51307-3.9211-2.42847-6.2115-2.61579v-2.30447c2.8949.19482 5.6454 1.35335 7.8243 3.29569zm-7.9761-2.61579c-2.2912.18827-4.4657 1.1035-6.21486 2.61579l-1.60575-1.62816c2.17857-1.94007 4.92751-3.09725 7.82061-3.2921zm-6.21486 19.53435c1.74826 1.5133 3.92346 2.4276 6.21486 2.6122v2.3045c-2.8928-.1936-5.64171-1.3496-7.82061-3.2886zm7.97946 2.6122c2.2904-.1846 4.4646-1.099 6.2115-2.6122l1.6057 1.6281c-2.1778 1.9386-4.9255 3.0945-7.8172 3.2886zm7.4608-3.879c1.4924-1.7712 2.3942-3.9756 2.5763-6.2979h2.2728c-.1909 2.932-1.331 5.7182-3.2433 7.9261z"/><path d="m17.0805 19.8257v.9454h-2.326v-.9454c-.6885.0227-1.3775-.0167-2.0606-.1176-.2294-.0312-.4497-.121-.6445-.2627-.1949-.1418-.3592-.3318-.4808-.556-.2784-.7095-.4008-1.4859-.3567-2.2616h2.437c0 .5066.0951.8051.2893.9046.6703.1258 1.3505.1682 2.0288.1267.6794.0202 1.3592.0006 2.0368-.0588.1863-.0407.2774-.2081.2774-.4976.0135-.1448-.0191-.2903-.0919-.4099-.0727-.1196-.1808-.2053-.3044-.2414-.6363-.1187-1.2816-.1627-1.9258-.1312-2.0368 0-3.3167-.1674-3.8516-.5066-.535-.3392-.7926-1.1715-.7926-2.5014 0-1.2031.3131-1.9947.9352-2.3656.4319-.2623 1.2681-.3935 2.5004-.3935v-.90466h2.3261v.90466c1.3499 0 2.2256.1508 2.6272.4523.5627.3935.8401 1.2936.8401 2.7139h-2.4331c0-.4839-.0912-.7644-.2774-.8413-.6353-.1148-1.2794-.1543-1.9218-.1176-.6347-.0225-1.2699.0002-1.9021.0679-.1704.0452-.2536.2171-.2536.5111-.0048.1442.0363.2854.1157.3977.0794.1122.1918.1879.3162.2129.5858.1179 1.181.1634 1.7753.1357 2.0103 0 3.3035.1825 3.8794.5473.5759.3649.8651 1.1972.8678 2.4968 0 1.1942-.2734 1.9631-.8242 2.316-.4491.2533-1.3843.3799-2.8056.3799z"/><path d="m17.0805 19.8257v.9454h-2.326v-.9454c-.6885.0227-1.3775-.0167-2.0606-.1176-.2294-.0312-.4497-.121-.6445-.2627-.1949-.1418-.3592-.3318-.4808-.556-.2784-.7095-.4008-1.4859-.3567-2.2616h2.437c0 .5066.0951.8051.2893.9046.6703.1258 1.3505.1682 2.0288.1267.6794.0202 1.3592.0006 2.0368-.0588.1863-.0407.2774-.2081.2774-.4976.0135-.1448-.0191-.2903-.0919-.4099-.0727-.1196-.1808-.2053-.3044-.2414-.6363-.1187-1.2816-.1627-1.9258-.1312-2.0368 0-3.3167-.1674-3.8516-.5066-.535-.3392-.7926-1.1715-.7926-2.5014 0-1.2031.3131-1.9947.9352-2.3656.4319-.2623 1.2681-.3935 2.5004-.3935v-.90466h2.3261v.90466c1.3499 0 2.2256.1508 2.6272.4523.5627.3935.8401 1.2936.8401 2.7139h-2.4331c0-.4839-.0912-.7644-.2774-.8413-.6353-.1148-1.2794-.1543-1.9218-.1176-.6347-.0225-1.2699.0002-1.9021.0679-.1704.0452-.2536.2171-.2536.5111-.0048.1442.0363.2854.1157.3977.0794.1122.1918.1879.3162.2129.5858.1179 1.181.1634 1.7753.1357 2.0103 0 3.3035.1825 3.8794.5473.5759.3649.8651 1.1972.8678 2.4968 0 1.1942-.2734 1.9631-.8242 2.316-.4491.2533-1.3843.3799-2.8056.3799z"/></g></svg>