<svg width="89" height="82" viewBox="0 0 89 82" fill="none" xmlns="http://www.w3.org/2000/svg"> 
<g id="Group 40249">
<g id="Group 40247">
<path id="Vector" d="M32.4762 35.1719H14.8936C13.481 35.1719 12.3359 36.317 12.3359 37.7295V62.861C12.3359 64.2735 13.481 65.4186 14.8936 65.4186H32.4762C33.8887 65.4186 35.0338 64.2735 35.0338 62.861V37.7295C35.0338 36.317 33.8887 35.1719 32.4762 35.1719Z" fill="url(#paint0_linear_1550_15272)"/>
<path id="Vector_2" d="M30.5148 47.7422H16.8562C16.3963 47.7422 16.0234 48.115 16.0234 48.575V48.5777C16.0234 49.0376 16.3963 49.4104 16.8562 49.4104H30.5148C30.9747 49.4104 31.3476 49.0376 31.3476 48.5777V48.575C31.3476 48.115 30.9747 47.7422 30.5148 47.7422Z" fill="url(#paint1_linear_1550_15272)"/>
<path id="Vector_3" d="M30.5231 59.4844H16.9819C16.5259 59.4844 16.1562 59.8456 16.1562 60.2912V60.2938C16.1562 60.7394 16.5259 61.1006 16.9819 61.1006H30.5231C30.979 61.1006 31.3487 60.7394 31.3487 60.2938V60.2912C31.3487 59.8456 30.979 59.4844 30.5231 59.4844Z" fill="url(#paint2_linear_1550_15272)"/>
<path id="Vector_4" d="M30.5231 53.3438H16.9819C16.5259 53.3438 16.1562 53.705 16.1562 54.1506V54.1532C16.1562 54.5988 16.5259 54.96 16.9819 54.96H30.5231C30.979 54.96 31.3487 54.5988 31.3487 54.1532V54.1506C31.3487 53.705 30.979 53.3438 30.5231 53.3438Z" fill="url(#paint3_linear_1550_15272)"/>
<path id="Vector_5" d="M21.8501 39.0547H17.8587C16.9745 39.0547 16.2578 39.7714 16.2578 40.6556V41.7632C16.2578 42.6474 16.9745 43.3641 17.8587 43.3641H21.8501C22.7342 43.3641 23.4509 42.6474 23.4509 41.7632V40.6556C23.4509 39.7714 22.7342 39.0547 21.8501 39.0547Z" fill="url(#paint4_linear_1550_15272)"/>
</g>
<path id="Star 1" d="M35 72.8301C35.2916 71.6219 37.0101 71.6219 37.3017 72.8301C37.4059 73.2618 37.743 73.5989 38.1748 73.7031C39.3829 73.9947 39.3829 75.7132 38.1748 76.0048C37.743 76.109 37.4059 76.4461 37.3017 76.8779C37.0101 78.086 35.2916 78.086 35 76.8779C34.8958 76.4461 34.5587 76.109 34.1269 76.0048C32.9188 75.7132 32.9188 73.9947 34.1269 73.7031C34.5587 73.5989 34.8958 73.2618 35 72.8301Z" fill="url(#paint5_linear_1550_15272)"/>
<path id="Star 2" d="M8.17185 10.7676C8.46349 9.55941 10.1819 9.55941 10.4736 10.7676C10.5778 11.1993 10.9149 11.5364 11.3466 11.6406C12.5548 11.9322 12.5548 13.6507 11.3466 13.9423C10.9149 14.0465 10.5778 14.3836 10.4736 14.8154C10.1819 16.0235 8.46349 16.0235 8.17185 14.8154C8.06764 14.3836 7.73054 14.0465 7.2988 13.9423C6.09066 13.6507 6.09066 11.9322 7.2988 11.6406C7.73054 11.5364 8.06764 11.1993 8.17185 10.7676Z" fill="url(#paint6_linear_1550_15272)"/>
<path id="Ellipse 59 (Stroke)" fill-rule="evenodd" clip-rule="evenodd" d="M37.1527 9.11276C37.7779 9.11276 38.2846 8.60598 38.2846 7.98084C38.2846 7.35571 37.7779 6.84893 37.1527 6.84893C36.5276 6.84893 36.0208 7.35571 36.0208 7.98084C36.0208 8.60598 36.5276 9.11276 37.1527 9.11276ZM37.1527 9.96169C38.2467 9.96169 39.1336 9.07484 39.1336 7.98084C39.1336 6.88685 38.2467 6 37.1527 6C36.0587 6 35.1719 6.88685 35.1719 7.98084C35.1719 9.07484 36.0587 9.96169 37.1527 9.96169Z" fill="url(#paint7_linear_1550_15272)"/>
<path id="Polygon 2" d="M72.7165 41.7029C72.4474 40.6475 73.4218 39.6965 74.4703 39.9912C75.5189 40.2858 75.8553 41.6051 75.0758 42.3659C74.2963 43.1266 72.9856 42.7583 72.7165 41.7029Z" fill="url(#paint8_linear_1550_15272)"/>
<path id="Polygon 3" d="M4.56716 35.7863C5.62292 35.5186 6.5726 36.4942 6.27658 37.5423C5.98056 38.5905 4.66086 38.9252 3.90111 38.1447C3.14137 37.3643 3.51139 36.0541 4.56716 35.7863Z" fill="url(#paint9_linear_1550_15272)"/>
<path id="Polygon 4" d="M58.5515 74.8957C59.6073 74.628 60.557 75.6035 60.261 76.6517C59.9649 77.6999 58.6452 78.0346 57.8855 77.2541C57.1257 76.4737 57.4958 75.1634 58.5515 74.8957Z" fill="url(#paint10_linear_1550_15272)"/>
<path id="Ellipse 60 (Stroke)" fill-rule="evenodd" clip-rule="evenodd" d="M74.9808 25.5971C75.606 25.5971 76.1128 25.0904 76.1128 24.4652C76.1128 23.8401 75.606 23.3333 74.9808 23.3333C74.3557 23.3333 73.8489 23.8401 73.8489 24.4652C73.8489 25.0904 74.3557 25.5971 74.9808 25.5971ZM74.9808 26.4461C76.0748 26.4461 76.9617 25.5592 76.9617 24.4652C76.9617 23.3712 76.0748 22.4844 74.9808 22.4844C73.8869 22.4844 73 23.3712 73 24.4652C73 25.5592 73.8869 26.4461 74.9808 26.4461Z" fill="url(#paint11_linear_1550_15272)"/>
<g id="XMLID_509_">
<path id="XMLID_510_" d="M27.0659 58.7464H54.7154C55.8606 58.7464 56.7891 57.8392 56.7891 56.7203V33.7577C56.7891 32.6387 55.8606 31.7315 54.7154 31.7315H52.6417V25.6532C52.6417 19.3224 47.3702 14.1719 40.8906 14.1719C34.4111 14.1719 29.1396 19.3224 29.1396 25.6532V31.7315H27.0659C25.9207 31.7315 24.9922 32.6387 24.9922 33.7577V56.7203C24.9922 57.8392 25.9207 58.7464 27.0659 58.7464ZM42.9644 45.9124V48.6158C42.9644 49.7348 42.0359 50.6419 40.8906 50.6419C39.7454 50.6419 38.8169 49.7348 38.8169 48.6158V45.9124C37.978 45.2958 37.4345 44.3153 37.4345 43.2129C37.4345 41.3509 38.9849 39.836 40.8906 39.836C42.7964 39.836 44.3468 41.3509 44.3468 43.2129C44.3468 44.3153 43.8032 45.2958 42.9644 45.9124ZM33.287 25.6532C33.287 21.5568 36.698 18.2241 40.8906 18.2241C45.0833 18.2241 48.4943 21.5568 48.4943 25.6532V31.7315H33.287V25.6532Z" fill="#A4AFD5"/>
</g>
<g id="Group 40248">
<g id="Vector_6" filter="url(#filter0_d_1550_15272)">
<path d="M68.278 9.85156H48.8573C47.9524 9.85156 47.2188 10.5852 47.2188 11.4902V20.6183C47.2188 21.5233 47.9524 22.2569 48.8573 22.2569H68.278C69.183 22.2569 69.9166 21.5233 69.9166 20.6183V11.4902C69.9166 10.5852 69.183 9.85156 68.278 9.85156Z" fill="url(#paint12_linear_1550_15272)"/>
</g>
<g id="Group 24">
<g id="Group 23">
<path id="Vector_7" d="M52.0089 17.9396C53.0493 17.9396 53.8927 17.0961 53.8927 16.0557C53.8927 15.0153 53.0493 14.1719 52.0089 14.1719C50.9684 14.1719 50.125 15.0153 50.125 16.0557C50.125 17.0961 50.9684 17.9396 52.0089 17.9396Z" fill="#8598DC"/>
<path id="Vector_8" d="M58.7432 17.9396C59.7836 17.9396 60.6271 17.0961 60.6271 16.0557C60.6271 15.0153 59.7836 14.1719 58.7432 14.1719C57.7028 14.1719 56.8594 15.0153 56.8594 16.0557C56.8594 17.0961 57.7028 17.9396 58.7432 17.9396Z" fill="#8598DC"/>
<path id="Vector_9" d="M65.4698 17.9396C66.5102 17.9396 67.3536 17.0961 67.3536 16.0557C67.3536 15.0153 66.5102 14.1719 65.4698 14.1719C64.4294 14.1719 63.5859 15.0153 63.5859 16.0557C63.5859 17.0961 64.4294 17.9396 65.4698 17.9396Z" fill="#8598DC"/>
</g>
</g>
</g>
</g>
<defs>
<filter id="filter0_d_1550_15272" x="40.2188" y="0.851562" width="48.6953" height="38.4062" filterUnits="userSpaceOnUse" color-interpolation-filters="sRGB">
<feFlood flood-opacity="0" result="BackgroundImageFix"/>
<feColorMatrix in="SourceAlpha" type="matrix" values="0 0 0 0 0 0 0 0 0 0 0 0 0 0 0 0 0 0 127 0" result="hardAlpha"/>
<feOffset dx="6" dy="4"/>
<feGaussianBlur stdDeviation="6.5"/>
<feComposite in2="hardAlpha" operator="out"/>
<feColorMatrix type="matrix" values="0 0 0 0 0.104618 0 0 0 0 0.465612 0 0 0 0 0.545833 0 0 0 0.09 0"/>
<feBlend mode="normal" in2="BackgroundImageFix" result="effect1_dropShadow_1550_15272"/>
<feBlend mode="normal" in="SourceGraphic" in2="effect1_dropShadow_1550_15272" result="shape"/>
</filter>
<linearGradient id="paint0_linear_1550_15272" x1="11.6544" y1="57.8532" x2="55.1586" y2="61.4262" gradientUnits="userSpaceOnUse">
<stop stop-color="white"/>
<stop offset="1" stop-color="#C8D4FE"/>
</linearGradient>
<linearGradient id="paint1_linear_1550_15272" x1="33.126" y1="49.4602" x2="14.7011" y2="49.4602" gradientUnits="userSpaceOnUse">
<stop stop-color="#C8D4FE"/>
<stop offset="1" stop-color="#6C7AAB"/>
</linearGradient>
<linearGradient id="paint2_linear_1550_15272" x1="33.1118" y1="61.1488" x2="14.8453" y2="61.1488" gradientUnits="userSpaceOnUse">
<stop stop-color="#C8D4FE"/>
<stop offset="1" stop-color="#6C7AAB"/>
</linearGradient>
<linearGradient id="paint3_linear_1550_15272" x1="33.1118" y1="55.0082" x2="14.8453" y2="55.0082" gradientUnits="userSpaceOnUse">
<stop stop-color="#C8D4FE"/>
<stop offset="1" stop-color="#6C7AAB"/>
</linearGradient>
<linearGradient id="paint4_linear_1550_15272" x1="28.4388" y1="43.3226" x2="15.3475" y2="43.3226" gradientUnits="userSpaceOnUse">
<stop offset="0.243799" stop-color="#C8D4FE"/>
<stop offset="1" stop-color="#6C7AAB"/>
</linearGradient>
<linearGradient id="paint5_linear_1550_15272" x1="29.344" y1="71.1972" x2="43.0162" y2="71.286" gradientUnits="userSpaceOnUse">
<stop stop-color="#C8D4FE"/>
<stop offset="1" stop-color="#6C7AAB"/>
</linearGradient>
<linearGradient id="paint6_linear_1550_15272" x1="2.51587" y1="9.13475" x2="16.188" y2="9.22352" gradientUnits="userSpaceOnUse">
<stop stop-color="#C8D4FE"/>
<stop offset="1" stop-color="#6C7AAB"/>
</linearGradient>
<linearGradient id="paint7_linear_1550_15272" x1="35.1674" y1="6.9143" x2="39.1551" y2="6.94019" gradientUnits="userSpaceOnUse">
<stop stop-color="#C8D4FE"/>
<stop offset="1" stop-color="#6C7AAB"/>
</linearGradient>
<linearGradient id="paint8_linear_1550_15272" x1="70.9936" y1="42.2439" x2="75.0963" y2="38.2914" gradientUnits="userSpaceOnUse">
<stop stop-color="#C8D4FE"/>
<stop offset="1" stop-color="#6C7AAB"/>
</linearGradient>
<linearGradient id="paint9_linear_1550_15272" x1="4.02836" y1="34.0627" x2="7.97554" y2="38.1705" gradientUnits="userSpaceOnUse">
<stop stop-color="#C8D4FE"/>
<stop offset="1" stop-color="#6C7AAB"/>
</linearGradient>
<linearGradient id="paint10_linear_1550_15272" x1="58.0127" y1="73.1721" x2="61.9599" y2="77.2799" gradientUnits="userSpaceOnUse">
<stop stop-color="#C8D4FE"/>
<stop offset="1" stop-color="#6C7AAB"/>
</linearGradient>
<linearGradient id="paint11_linear_1550_15272" x1="72.9955" y1="23.3987" x2="76.9832" y2="23.4246" gradientUnits="userSpaceOnUse">
<stop stop-color="#C8D4FE"/>
<stop offset="1" stop-color="#6C7AAB"/>
</linearGradient>
<linearGradient id="paint12_linear_1550_15272" x1="46.5372" y1="19.1541" x2="79.3109" y2="20.1021" gradientUnits="userSpaceOnUse">
<stop stop-color="white"/>
<stop offset="1" stop-color="#C8D4FE"/>
</linearGradient>
</defs>
</svg>
