<svg width="30" height="31" viewBox="0 0 30 31" fill="" xmlns="http://www.w3.org/2000/svg">
<g id="booking-history 1">
<path id="Vector" d="M11.8551 7.24624H16.3192C17.1366 7.24624 17.7993 6.58357 17.7993 5.76608V5.76132C17.7993 4.94395 17.1366 4.28125 16.3192 4.28125H11.8551C11.0376 4.28125 10.375 4.94395 10.375 5.76132V5.76608C10.375 6.58357 11.0376 7.24624 11.8551 7.24624Z" fill=""/>
<path id="Vector_2" d="M10.4145 20.5986H12.9222C13.0741 19.5202 13.4539 18.5151 14.0117 17.6336H10.4145C10.0047 17.6336 9.67254 17.2963 9.67254 16.8865C9.67254 16.4766 10.0047 16.1393 10.4145 16.1393H15.2526C16.5987 14.8868 18.403 14.1204 20.3867 14.1204C21.2999 14.1204 22.1753 14.2828 22.9854 14.5803V8.01475C22.9854 6.78541 22.0324 5.75 20.8029 5.75H19.2851V5.79269C19.2851 7.42703 17.9892 8.71502 16.3547 8.71502H11.8946C10.2602 8.71502 8.89589 7.42712 8.89589 5.79269V5.75H7.44637C6.217 5.75 5.17188 6.78529 5.17188 8.01475V22.8553C5.17188 24.0848 6.21697 25.0342 7.44637 25.0342H13.6437C13.1922 24.1339 12.9156 23.1308 12.8587 22.0693H10.4145C10.0047 22.0693 9.67254 21.7437 9.67254 21.3339C9.67254 20.9241 10.0047 20.5986 10.4145 20.5986ZM10.4145 11.68H17.8348C18.2447 11.68 18.5768 12.0173 18.5768 12.4271C18.5768 12.837 18.2446 13.1743 17.8348 13.1743H10.4145C10.0047 13.1743 9.67254 12.8369 9.67254 12.4271C9.67254 12.0173 10.0047 11.68 10.4145 11.68Z" fill=""/>
<path id="Vector_3" d="M20.3488 15.6641C17.0582 15.6641 14.3906 18.3316 14.3906 21.6223C14.3906 24.9128 17.0582 27.5804 20.3488 27.5804C23.6394 27.5804 26.3069 24.9128 26.3069 21.6223C26.3069 18.3316 23.6394 15.6641 20.3488 15.6641ZM22.72 23.9918C22.4291 24.2827 21.9563 24.2814 21.6688 23.994L19.8473 22.1725C19.7891 22.1192 19.7393 22.0568 19.7001 21.9876C19.636 21.8744 19.6038 21.748 19.6041 21.6214V21.6201V17.9005C19.6041 17.488 19.9346 17.1536 20.3488 17.1536C20.7602 17.1536 21.0936 17.4876 21.0936 17.9005V21.3122L22.7222 22.9407C23.0118 23.2304 23.0128 23.699 22.72 23.9918Z" fill=""/>
</g>
</svg>
