<svg width="40" height="40" viewBox="0 0 40 40" fill="none" xmlns="http://www.w3.org/2000/svg">
<path fill-rule="evenodd" clip-rule="evenodd" d="M20 35C28.2843 35 35 28.2843 35 20C35 11.7157 28.2843 5 20 5C11.7157 5 5 11.7157 5 20C5 28.2843 11.7157 35 20 35Z" fill="url(#paint0_linear_2500_799)" stroke="url(#paint1_linear_2500_799)" stroke-width="10"/>
<path d="M24.696 24.6926C25.1013 24.2875 25.1013 23.6168 24.696 23.2117L21.4815 19.9983L24.696 16.7848C25.1013 16.3797 25.1013 15.709 24.696 15.3039C24.2907 14.8987 23.6198 14.8987 23.2145 15.3039L20 18.5173L16.7855 15.3039C16.3802 14.8987 15.7093 14.8987 15.304 15.3039C14.8987 15.709 14.8987 16.3797 15.304 16.7848L18.5185 19.9983L15.304 23.2117C14.8987 23.6168 14.8987 24.2875 15.304 24.6926C15.5136 24.9022 15.7792 25 16.0447 25C16.3103 25 16.5758 24.9022 16.7855 24.6926L20 21.4792L23.2145 24.6926C23.4242 24.9022 23.6897 25 23.9553 25C24.2208 25 24.4864 24.9022 24.696 24.6926Z" fill="#FAFAFA"/>
<defs>
<linearGradient id="paint0_linear_2500_799" x1="-1.28603" y1="20.9899" x2="20.375" y2="41.2161" gradientUnits="userSpaceOnUse">
<stop stop-color="#3FC0FB"/>
<stop offset="1" stop-color="#1398FD"/>
</linearGradient>
<linearGradient id="paint1_linear_2500_799" x1="40.7154" y1="16.3489" x2="16.4593" y2="-0.850879" gradientUnits="userSpaceOnUse">
<stop stop-color="#A5A5A5" stop-opacity="0.072689"/>
<stop offset="1" stop-color="white" stop-opacity="0.124945"/>
</linearGradient>
</defs>
</svg>
