<svg width="34" height="34" viewBox="0 0 34 34" fill="none" xmlns="http://www.w3.org/2000/svg">
<path fill-rule="evenodd" clip-rule="evenodd" d="M4.2487 7.03125C4.0531 7.03125 3.89453 7.18515 3.89453 7.375V29.375C3.89453 29.5648 4.0531 29.7188 4.2487 29.7188H29.7487C29.9443 29.7188 30.1029 29.5648 30.1029 29.375V7.375C30.1029 7.18515 29.9443 7.03125 29.7487 7.03125H4.2487ZM1.76953 7.375C1.76953 6.04606 2.87949 4.96875 4.2487 4.96875H29.7487C31.1179 4.96875 32.2279 6.04606 32.2279 7.375V29.375C32.2279 30.7039 31.1179 31.7812 29.7487 31.7812H4.2487C2.87949 31.7812 1.76953 30.7039 1.76953 29.375V7.375Z" fill="currentColor"/>
<path fill-rule="evenodd" clip-rule="evenodd" d="M1.76953 14.25C1.76953 13.6805 2.24523 13.2188 2.83203 13.2188H31.1654C31.7522 13.2188 32.2279 13.6805 32.2279 14.25C32.2279 14.8195 31.7522 15.2812 31.1654 15.2812H2.83203C2.24523 15.2812 1.76953 14.8195 1.76953 14.25Z" fill="currentColor"/>
<path fill-rule="evenodd" clip-rule="evenodd" d="M1.76953 22.5C1.76953 21.9305 2.24523 21.4688 2.83203 21.4688H31.1654C31.7522 21.4688 32.2279 21.9305 32.2279 22.5C32.2279 23.0695 31.7522 23.5312 31.1654 23.5312H2.83203C2.24523 23.5312 1.76953 23.0695 1.76953 22.5Z" fill="currentColor"/>
<path fill-rule="evenodd" clip-rule="evenodd" d="M12.0404 2.21875C12.6272 2.21875 13.1029 2.68046 13.1029 3.25V8.75C13.1029 9.31954 12.6272 9.78125 12.0404 9.78125C11.4536 9.78125 10.9779 9.31954 10.9779 8.75V3.25C10.9779 2.68046 11.4536 2.21875 12.0404 2.21875Z" fill="currentColor"/>
<path fill-rule="evenodd" clip-rule="evenodd" d="M21.957 2.21875C22.5438 2.21875 23.0195 2.68046 23.0195 3.25V8.75C23.0195 9.31954 22.5438 9.78125 21.957 9.78125C21.3702 9.78125 20.8945 9.31954 20.8945 8.75V3.25C20.8945 2.68046 21.3702 2.21875 21.957 2.21875Z" fill="currentColor"/>
<path fill-rule="evenodd" clip-rule="evenodd" d="M12.0404 13.2188C12.6272 13.2188 13.1029 13.6805 13.1029 14.25V30.75C13.1029 31.3195 12.6272 31.7812 12.0404 31.7812C11.4536 31.7812 10.9779 31.3195 10.9779 30.75V14.25C10.9779 13.6805 11.4536 13.2188 12.0404 13.2188Z" fill="currentColor"/>
<path fill-rule="evenodd" clip-rule="evenodd" d="M21.957 13.2188C22.5438 13.2188 23.0195 13.6805 23.0195 14.25V30.75C23.0195 31.3195 22.5438 31.7812 21.957 31.7812C21.3702 31.7812 20.8945 31.3195 20.8945 30.75V14.25C20.8945 13.6805 21.3702 13.2188 21.957 13.2188Z" fill="currentColor"/>
<path fill-rule="evenodd" clip-rule="evenodd" d="M31.1654 8.40625C31.7522 8.40625 32.2279 8.86796 32.2279 9.4375V27.3125C32.2279 27.882 31.7522 28.3438 31.1654 28.3438C30.5786 28.3438 30.1029 27.882 30.1029 27.3125V9.4375C30.1029 8.86796 30.5786 8.40625 31.1654 8.40625Z" fill="currentColor"/>
<path fill-rule="evenodd" clip-rule="evenodd" d="M2.83203 8.40625C3.41883 8.40625 3.89453 8.86796 3.89453 9.4375V27.3125C3.89453 27.882 3.41883 28.3438 2.83203 28.3438C2.24523 28.3438 1.76953 27.882 1.76953 27.3125V9.4375C1.76953 8.86796 2.24523 8.40625 2.83203 8.40625Z" fill="currentColor"/>
<path fill-rule="evenodd" clip-rule="evenodd" d="M8.85287 30.75C8.85287 30.1805 9.32856 29.7188 9.91537 29.7188H24.082C24.6688 29.7188 25.1445 30.1805 25.1445 30.75C25.1445 31.3195 24.6688 31.7812 24.082 31.7812H9.91537C9.32856 31.7812 8.85287 31.3195 8.85287 30.75Z" fill="currentColor"/>
</svg>
