<svg width="44" height="44" viewBox="0 0 44 44" fill="none" xmlns="http://www.w3.org/2000/svg">
<g clip-path="url(#clip0_512_3125)">
<path d="M11.5021 0H10.3971C10.2561 0 10.1224 0.0296266 9.99285 0.0717237C9.34561 0.281633 8.86719 0.972631 8.86719 1.80153V2.56216V4.50908V5.522C8.86719 5.71022 8.89854 5.88805 8.94403 6.05831C9.1388 6.78967 9.71194 7.32353 10.3971 7.32353H11.5021C12.3472 7.32353 13.032 6.51705 13.032 5.522V4.50908V2.56216V1.80153C13.032 0.806477 12.3472 0 11.5021 0Z" fill="#6C7AAB"/>
<path d="M33.2521 0H32.1471C31.302 0 30.6172 0.806477 30.6172 1.80153V2.56216V4.50908V5.522C30.6172 6.51705 31.302 7.32353 32.1471 7.32353H33.2521C34.0972 7.32353 34.782 6.51705 34.782 5.522V4.50908V2.56216V1.80153C34.7816 0.806477 34.0968 0 33.2521 0Z" fill="#6C7AAB"/>
<path d="M38.8962 4.50781H36.1603V5.52074C36.1603 7.27433 34.8555 8.70087 33.2518 8.70087H32.1468C30.5432 8.70087 29.2383 7.27433 29.2383 5.52074V4.50781H14.4114V5.52074C14.4114 7.27433 13.1065 8.70087 11.5029 8.70087H10.3979C8.79417 8.70087 7.48937 7.27433 7.48937 5.52074V4.50781H5.10548C3.58695 4.50781 2.35547 5.66238 2.35547 7.08583V41.4208C2.35547 42.8469 3.58688 43.9988 5.10548 43.9988H38.8958C40.4157 43.9988 41.6458 42.8466 41.6458 41.4208V7.08619C41.6461 5.66274 40.4161 4.50781 38.8962 4.50781ZM38.0435 40.2145L5.85782 40.2021V12.521H38.0435V40.2145Z" fill="#6C7AAB"/>
<path d="M25.4462 19.1952H33.9109C34.6457 19.1952 35.2399 18.4614 35.2399 17.5546C35.2399 16.6478 34.6454 15.9141 33.9109 15.9141H25.4462C24.7114 15.9141 24.1172 16.6478 24.1172 17.5546C24.1172 18.4611 24.7114 19.1952 25.4462 19.1952Z" fill="#6C7AAB"/>
<path d="M25.4462 25.117H33.9109C34.6457 25.117 35.2399 24.3832 35.2399 23.4764C35.2399 22.5697 34.6454 21.8359 33.9109 21.8359H25.4462C24.7114 21.8359 24.1172 22.5697 24.1172 23.4764C24.1172 24.3832 24.7114 25.117 25.4462 25.117Z" fill="#6C7AAB"/>
<path d="M25.4462 31.0468H33.9109C34.6457 31.0468 35.2399 30.3129 35.2399 29.4062C35.2399 28.4994 34.6454 27.7656 33.9109 27.7656H25.4462C24.7114 27.7656 24.1172 28.4994 24.1172 29.4062C24.1172 30.3129 24.7114 31.0468 25.4462 31.0468Z" fill="#6C7AAB"/>
<path d="M25.4462 36.9686H33.9109C34.6457 36.9686 35.2399 36.2348 35.2399 35.3281C35.2399 34.4212 34.6454 33.6875 33.9109 33.6875H25.4462C24.7114 33.6875 24.1172 34.4212 24.1172 35.3281C24.1172 36.2348 24.7114 36.9686 25.4462 36.9686Z" fill="#6C7AAB"/>
<path d="M10.454 19.1952H18.9187C19.6535 19.1952 20.2477 18.4614 20.2477 17.5546C20.2477 16.6478 19.6531 15.9141 18.9187 15.9141H10.454C9.71919 15.9141 9.125 16.6478 9.125 17.5546C9.12507 18.4611 9.71919 19.1952 10.454 19.1952Z" fill="#6C7AAB"/>
<path d="M10.454 25.117H18.9187C19.6535 25.117 20.2477 24.3832 20.2477 23.4764C20.2477 22.5697 19.6531 21.8359 18.9187 21.8359H10.454C9.71919 21.8359 9.125 22.5697 9.125 23.4764C9.12507 24.3832 9.71919 25.117 10.454 25.117Z" fill="#6C7AAB"/>
<path d="M10.454 31.0468H18.9187C19.6535 31.0468 20.2477 30.3129 20.2477 29.4062C20.2477 28.4994 19.6531 27.7656 18.9187 27.7656H10.454C9.71919 27.7656 9.125 28.4994 9.125 29.4062C9.125 30.3129 9.71919 31.0468 10.454 31.0468Z" fill="#6C7AAB"/>
<path d="M10.454 36.9686H18.9187C19.6535 36.9686 20.2477 36.2348 20.2477 35.3281C20.2477 34.4212 19.6531 33.6875 18.9187 33.6875H10.454C9.71919 33.6875 9.125 34.4212 9.125 35.3281C9.12507 36.2348 9.71919 36.9686 10.454 36.9686Z" fill="#6C7AAB"/>
</g>
<defs>
<clipPath id="clip0_512_3125">
<rect width="44" height="44" fill="white"/>
</clipPath>
</defs>
</svg>
