<svg fill="none" height="66" viewBox="0 0 67 66" width="67" xmlns="http://www.w3.org/2000/svg"><g fill="#4098d8"><path d="m26.8625 31.0754c-1.1-1.1-2.75-1.1-3.85 0s-1.1 2.75 0 3.85l8.25 8.25c.55.55 1.1.825 1.925.825s1.375-.275 1.925-.825l19.25-22c.825-1.1.825-3.025-.55-3.85-1.1-.825-2.75-.825-3.575.275l-17.05 19.525z"/><path d="m57.9375 30.25c-1.65 0-2.75 1.1-2.75 2.75 0 12.1-9.9 22-22 22s-22-9.9-22-22c0-5.775 2.2-11.275 6.325-15.4 4.125-4.4 9.9-6.6 15.675-6.6 1.65 0 3.575.275 5.225.55 1.375.55 3.025-.275 3.575-1.925s-.55-2.75-1.925-3.3h-.275c-2.2-.55-4.4-.825-6.6-.825-15.125 0-27.5 12.375-27.225 27.775 0 7.15 3.025 14.3 7.975 19.25 5.225 5.225 12.1 7.975 19.25 7.975 15.125 0 27.5-12.375 27.5-27.5 0-1.65-1.1-2.75-2.75-2.75z"/></g></svg>