<svg xmlns="http://www.w3.org/2000/svg" width="25" height="24" viewBox="0 0 25 24" fill="none"> 
  <path d="M24.0891 11.9977C24.0891 18.2937 18.9851 23.3977 12.6891 23.3977C6.39302 23.3977 1.28906 18.2937 1.28906 11.9977C1.28906 5.70161 6.39302 0.597656 12.6891 0.597656C18.9851 0.597656 24.0891 5.70161 24.0891 11.9977Z" fill="url(#paint0_linear_3397_44522)" stroke="white"/>
  <path d="M24.4978 13.5054C23.9079 18.1734 20.614 21.9986 16.2347 23.3601L9.41406 16.5436L18.4437 7.45312L24.4978 13.5054Z" fill="url(#paint1_linear_3397_44522)"/>
  <path d="M18.4726 7.48398L18.4424 7.4533C18.2863 7.2972 18.101 7.17338 17.8971 7.0889C17.6931 7.00442 17.4745 6.96094 17.2538 6.96094C17.033 6.96094 16.8145 7.00442 16.6105 7.0889C16.4066 7.17338 16.2213 7.2972 16.0652 7.4533L10.6014 12.9175L9.31983 11.636C9.1618 11.4779 8.97418 11.3525 8.76768 11.267C8.56119 11.1814 8.33986 11.1374 8.11635 11.1374C7.89284 11.1374 7.67151 11.1814 7.46502 11.267C7.25852 11.3525 7.0709 11.4779 6.91287 11.636C6.75473 11.794 6.62929 11.9817 6.5437 12.1882C6.45811 12.3947 6.41406 12.6161 6.41406 12.8397C6.41406 13.0632 6.45811 13.2846 6.5437 13.4912C6.62929 13.6977 6.75473 13.8854 6.91287 14.0434L9.38258 16.5131L9.4128 16.5438C9.56885 16.6999 9.75411 16.8237 9.95801 16.9082C10.1619 16.9926 10.3805 17.0361 10.6012 17.0361C10.8219 17.0361 11.0404 16.9926 11.2443 16.9082C11.4482 16.8237 11.6335 16.6999 11.7895 16.5438L11.8049 16.5284L18.4726 9.86026C18.7877 9.54513 18.9647 9.11775 18.9647 8.67212C18.9647 8.22649 18.7877 7.79911 18.4726 7.48398Z" fill="white"/>
  <defs>
    <linearGradient id="paint0_linear_3397_44522" x1="4.27446" y1="3.58305" x2="21.1037" y2="20.4123" gradientUnits="userSpaceOnUse">
      <stop stop-color="#21D1F7"/>
      <stop offset="1" stop-color="#2196F3"/>
    </linearGradient>
    <linearGradient id="paint1_linear_3397_44522" x1="13.9138" y1="11.983" x2="21.7241" y2="19.7938" gradientUnits="userSpaceOnUse">
      <stop stop-color="#186EB3"/>
      <stop offset="0.93" stop-color="#186EB3" stop-opacity="0"/>
    </linearGradient>
  </defs>
</svg>
