<svg width="34" height="34" viewBox="0 0 34 34" fill="none" xmlns="http://www.w3.org/2000/svg">
<path d="M33.5 17C33.5 26.1127 26.1127 33.5 17 33.5C7.8873 33.5 0.5 26.1127 0.5 17C0.5 7.8873 7.8873 0.5 17 0.5C26.1127 0.5 33.5 7.8873 33.5 17Z" fill="url(#paint0_linear_1677_3996)" stroke="white"/>
<path d="M33.867 19.1539C33.0243 25.8224 28.3188 31.287 22.0626 33.232L12.3188 23.4942L25.2183 10.5078L33.867 19.1539Z" fill="url(#paint1_linear_1677_3996)"/>
<path d="M25.2616 10.5519L25.2185 10.5081C24.9955 10.2851 24.7308 10.1082 24.4394 9.98749C24.1481 9.8668 23.8358 9.80469 23.5205 9.80469C23.2051 9.80469 22.8929 9.8668 22.6015 9.98749C22.3102 10.1082 22.0454 10.2851 21.8225 10.5081L14.0171 18.3141L12.1863 16.4833C11.9605 16.2575 11.6925 16.0784 11.3975 15.9562C11.1025 15.834 10.7863 15.7711 10.467 15.7711C10.1477 15.7711 9.83151 15.834 9.53652 15.9562C9.24153 16.0784 8.9735 16.2575 8.74774 16.4833C8.52183 16.7091 8.34262 16.9771 8.22036 17.2722C8.09809 17.5673 8.03516 17.8835 8.03516 18.2029C8.03516 18.5223 8.09809 18.8385 8.22036 19.1336C8.34262 19.4286 8.52183 19.6967 8.74774 19.9225L12.2759 23.4506L12.3191 23.4945C12.542 23.7174 12.8067 23.8943 13.0979 24.015C13.3892 24.1357 13.7014 24.1978 14.0167 24.1978C14.332 24.1978 14.6442 24.1357 14.9355 24.015C15.2268 23.8943 15.4915 23.7174 15.7144 23.4945L15.7363 23.4726L25.2616 13.9466C25.7118 13.4964 25.9646 12.8858 25.9646 12.2492C25.9646 11.6126 25.7118 11.0021 25.2616 10.5519Z" fill="white"/>
<defs>
<linearGradient id="paint0_linear_1677_3996" x1="4.97914" y1="4.97914" x2="29.0209" y2="29.0209" gradientUnits="userSpaceOnUse">
<stop stop-color="#21D1F7"/>
<stop offset="1" stop-color="#2196F3"/>
</linearGradient>
<linearGradient id="paint1_linear_1677_3996" x1="18.747" y1="16.9791" x2="29.9046" y2="28.1373" gradientUnits="userSpaceOnUse">
<stop stop-color="#186EB3"/>
<stop offset="0.93" stop-color="#186EB3" stop-opacity="0"/>
</linearGradient>
</defs>
</svg>
