<svg xmlns="http://www.w3.org/2000/svg" width="22" height="22" viewBox="0 0 22 22" fill="none">
  <path fill-rule="evenodd" clip-rule="evenodd" d="M0.93934 0.93934C1.52513 0.353553 2.47487 0.353553 3.06066 0.93934L11 8.87864L18.9393 0.939334C19.5251 0.353551 20.4749 0.353556 21.0607 0.939346C21.6465 1.52514 21.6464 2.47488 21.0607 3.06067L13.1213 11L21.0606 18.9392C21.6463 19.525 21.6463 20.4748 21.0606 21.0606C20.4748 21.6463 19.525 21.6463 18.9392 21.0606L11 13.1213L3.06067 21.0607C2.47488 21.6464 1.52514 21.6465 0.939346 21.0607C0.353556 20.4749 0.353551 19.5251 0.939334 18.9393L8.87864 11L0.93934 3.06066C0.353553 2.47487 0.353553 1.52513 0.93934 0.93934Z" fill="white"/>
  <path fill-rule="evenodd" clip-rule="evenodd" d="M0.93934 0.93934C1.52513 0.353553 2.47487 0.353553 3.06066 0.93934L11 8.87864L18.9393 0.939334C19.5251 0.353551 20.4749 0.353556 21.0607 0.939346C21.6465 1.52514 21.6464 2.47488 21.0607 3.06067L13.1213 11L21.0606 18.9392C21.6463 19.525 21.6463 20.4748 21.0606 21.0606C20.4748 21.6463 19.525 21.6463 18.9392 21.0606L11 13.1213L3.06067 21.0607C2.47488 21.6464 1.52514 21.6465 0.939346 21.0607C0.353556 20.4749 0.353551 19.5251 0.939334 18.9393L8.87864 11L0.93934 3.06066C0.353553 2.47487 0.353553 1.52513 0.93934 0.93934Z" fill="#35C0FF"/>
</svg>