<svg width="24" height="24" viewBox="0 0 24 24" fill="none" xmlns="http://www.w3.org/2000/svg">
<path fill-rule="evenodd" clip-rule="evenodd" d="M12 0C18.6264 0 24 5.37364 24 12C24 18.6264 18.6264 24 12 24C5.37364 24 0 18.6264 0 12C0 5.37364 5.37364 0 12 0ZM5.9348 16.3435L10.2783 12L5.9348 7.65647C5.68564 7.40721 5.68564 7.00063 5.9348 6.75146L6.75146 5.9348C7.00063 5.68564 7.40721 5.68564 7.65647 5.9348L12 10.2783L16.3435 5.9348C16.5928 5.68564 16.9994 5.68564 17.2485 5.9348L18.0652 6.75146C18.3144 7.00063 18.3144 7.40721 18.0652 7.65647L13.7217 12L18.0652 16.3435C18.3144 16.5928 18.3144 16.9994 18.0652 17.2485L17.2485 18.0652C16.9994 18.3144 16.5928 18.3144 16.3435 18.0652L12 13.7217L7.65647 18.0652C7.40721 18.3144 7.00063 18.3144 6.75146 18.0652L5.9348 17.2485C5.68564 16.9994 5.68564 16.5928 5.9348 16.3435Z" fill="#505050"/>
</svg>
