<svg fill="none" height="24" viewBox="0 0 24 24" width="24" xmlns="http://www.w3.org/2000/svg"><path clip-rule="evenodd" d="m12 0c6.6264 0 12 5.37364 12 12 0 6.6264-5.3736 12-12 12-6.62636 0-12-5.3736-12-12 0-6.62636 5.37364-12 12-12zm-6.0652 16.3435 4.3435-4.3435-4.3435-4.34353c-.24916-.24926-.24916-.65584 0-.90501l.81666-.81666c.24917-.24916.65575-.24916.90501 0l4.34353 4.3435 4.3435-4.3435c.2493-.24916.6559-.24916.905 0l.8167.81666c.2492.24917.2492.65575 0 .90501l-4.3435 4.34353 4.3435 4.3435c.2492.2493.2492.6559 0 .905l-.8167.8167c-.2491.2492-.6557.2492-.905 0l-4.3435-4.3435-4.34353 4.3435c-.24926.2492-.65584.2492-.90501 0l-.81666-.8167c-.24916-.2491-.24916-.6557 0-.905z" fill="#505050" fill-rule="evenodd"/></svg>