<svg fill="none" height="54" viewBox="0 0 54 54" width="54" xmlns="http://www.w3.org/2000/svg"><g fill="#09f"><path d="m13.6484 16.4823c.1101-.1077.2225-.2131.3303-.3232l2.3888-2.3865.1054-.1007 4.937 4.9393 3.1055-3.0563v8.9676h-8.9488l3.0446-3.0657c-.0422-.0469-.0656-.0773-.0937-.1054l-4.7754-4.7684c-.0281-.0281-.0632-.0492-.0937-.0749z"/><path d="m16.4807 40.3514c-.096-.0984-.1873-.1968-.2833-.2928l-2.5177-2.5177 4.9393-4.9393-3.0587-3.1172h8.9559v8.9652l-3.0797-3.0446c-.0281.0258-.0586.0492-.0867.0773l-4.766 4.7754c-.0281.0281-.0515.0632-.0773.0937z"/><path d="m37.5144 13.6484c.2178.2202.4333.4403.6511.6581l2.0586 2.061.1007.1031-4.9323 4.9346 3.0634 3.1126h-8.9793v-8.977l3.0867 3.0446c.0286-.0228.0559-.047.082-.0726l4.7684-4.766c.0281-.0281.0492-.0632.0749-.0937z"/><path d="m40.3459 37.5144-.6394.63-2.0797 2.0797-.1054.1007-4.9299-4.9323-3.1149 3.0634v-8.9793h8.9769l-3.0446 3.0868c.0211.0234.0445.0538.0726.0819l4.7684 4.766c.0288.0276.0593.0534.0913.0773z"/></g></svg>