<svg width="169" height="142" viewBox="0 0 169 142" fill="none" xmlns="http://www.w3.org/2000/svg">
<g clip-path="url(#clip0_7523_2509)">
<path d="M39.0884 24.7555C39.1017 24.6891 39.115 24.6228 39.1296 24.5578C39.51 23.7987 39.9023 23.045 40.4116 22.3629C41.8652 20.4188 43.5315 18.6685 45.2869 16.9924C46.634 15.7066 47.94 14.3835 49.3975 13.2104C50.1342 12.6173 50.8976 12.0493 51.5997 11.411C51.7154 11.4336 51.8258 11.4482 51.8444 11.2849C53.2368 10.5524 53.2315 10.5577 54.3446 11.6592C56.1492 13.4467 57.9605 15.2275 59.7731 17.0084C59.9313 17.1636 60.1068 17.4781 60.3569 17.2074C60.5869 16.9579 60.9274 16.938 61.1481 16.7098L61.1468 16.7111C61.4354 16.5545 61.7452 16.4285 62.0072 16.236C62.6163 15.7875 63.2746 15.3708 63.9355 15.0696C65.5872 14.3172 67.1977 13.4745 68.8759 12.7805C69.2563 12.6969 69.6167 12.5615 69.9372 12.3346C70.7298 12.1953 71.4492 11.841 72.1993 11.5769C72.4533 11.5623 72.698 11.5291 72.8575 11.2942C73.7605 11.1138 74.6608 10.9174 75.5678 10.7568C76.0572 10.6705 76.3338 10.4741 76.1875 9.93404C76.2966 8.65214 76.2979 7.36892 76.2806 6.08437C76.3365 5.60134 76.3511 5.1183 76.2979 4.63394C76.3444 4.45479 76.3843 4.27565 76.1756 4.16285C76.2061 4.14162 76.2367 4.12171 76.2686 4.10048C76.2381 4.08057 76.2075 4.06067 76.1769 4.04209C76.5519 3.55508 76.3551 2.98446 76.379 2.45631C76.4442 1.03905 76.4402 1.09744 77.8033 0.648911C78.8619 0.299906 79.9524 0.261422 81.0256 0.176493C84.0909 -0.0663508 87.1642 -0.0437915 90.2335 0.153934C90.8027 0.19109 91.3692 0.291944 91.9437 0.270711C91.9982 0.278673 92.0528 0.287962 92.1073 0.295925C93.2177 0.540096 94.3534 0.626352 95.4612 0.899717C96.0729 1.04967 96.291 1.37612 96.3003 1.95735C96.311 2.59166 96.2312 3.22996 96.3495 3.86162C96.3376 3.87887 96.3136 3.9001 96.3176 3.91337C96.3283 3.95053 96.3495 3.98636 96.3668 4.02219C96.303 6.11754 96.2897 8.2129 96.3735 10.3083C96.3642 10.3189 96.3455 10.3335 96.3482 10.3401C96.3575 10.364 96.3721 10.3839 96.3854 10.4051C98.6502 11.058 100.919 11.6976 103.177 12.3731C103.834 12.5695 104.443 12.9477 105.107 13.1043C105.936 13.2994 106.62 13.8195 107.463 13.9987C108.008 14.1141 108.433 14.6264 108.998 14.8228C110.046 15.1864 110.877 15.9627 111.906 16.378C112.241 16.5134 112.416 17.0986 112.858 16.9102C113.179 16.7735 113.4 16.4032 113.666 16.1378C115.26 14.5481 116.856 12.9596 118.452 11.3712C118.534 11.2889 118.618 11.2066 118.701 11.1244L118.719 11.1085C118.767 11.0726 118.814 11.0368 118.861 11.001C118.965 10.9598 119.069 10.9187 119.173 10.8776C119.234 10.8842 119.296 10.8895 119.357 10.8961C120.619 11.3898 121.677 12.1926 122.682 13.0751C123.456 13.7545 124.235 14.4273 125.012 15.1041C125.14 15.2872 125.293 15.4438 125.496 15.5433C125.906 15.9255 126.221 16.4059 126.71 16.7045C126.753 16.7456 126.794 16.7868 126.837 16.8292C128.085 18.1377 129.334 19.4448 130.482 20.8448C131.357 21.9117 132.215 22.9892 132.947 24.1636C133.269 24.6798 133.161 25.1536 132.802 25.5278C131.701 26.6717 130.554 27.7731 129.428 28.8944C128.768 29.554 128.113 30.2215 127.46 30.8903C127.351 31.0017 127.129 31.1092 127.379 31.3003C127.418 31.3521 127.456 31.4025 127.495 31.4543L127.487 31.4463C127.528 31.6162 127.627 31.7462 127.763 31.8524C128.43 32.9963 129.152 34.1083 129.752 35.292C131.112 37.9779 132.145 40.7938 133.06 43.6535C133.417 44.7669 133.72 45.8975 134.006 47.0308C134.157 47.6319 134.392 47.9822 135.107 47.9544C136.208 47.9119 137.313 47.9743 138.417 47.9929C138.676 48.0685 138.94 48.0526 139.202 48.0141C139.406 48.0353 139.626 48.1402 139.785 47.9106C139.784 47.9106 139.824 47.9119 139.824 47.9119C140.183 48.2105 140.615 48.0486 141.012 48.0818C141.645 48.1362 142.283 48.1375 142.919 48.1601C142.961 48.2211 143.004 48.2835 143.046 48.3445C143.631 49.9117 143.642 51.5758 143.875 53.2027C143.879 53.2863 143.883 53.3713 143.887 53.4549C143.959 56.0691 143.929 58.6846 143.884 61.2989C143.881 61.3838 143.877 61.4687 143.875 61.5523C143.834 62.1747 143.792 62.7984 143.75 63.4207C143.744 63.507 143.739 63.5919 143.732 63.6782C143.705 63.9025 143.678 64.1267 143.65 64.351C143.615 64.3881 143.611 64.428 143.639 64.4704C143.631 64.562 143.623 64.6522 143.615 64.7438C143.611 64.7876 143.607 64.83 143.603 64.8738C143.465 65.5334 143.336 66.1942 143.187 66.8511C142.977 67.7773 142.716 67.9777 141.791 67.9804C139.466 67.987 137.142 68.0056 134.817 67.9963C134.446 67.995 134.251 68.0865 134.181 68.4621C133.429 72.5652 131.808 76.3485 129.929 80.0416C129.25 81.3753 128.495 82.6638 127.72 83.9404C127.459 84.369 127.467 84.6384 127.837 85.002C129.092 86.2322 130.31 87.4995 131.543 88.7535C131.542 88.8066 131.567 88.8331 131.62 88.8344C131.898 89.1171 132.175 89.3997 132.453 89.6824C132.49 89.7209 132.528 89.7607 132.566 89.7992L132.579 89.8138C132.617 89.8536 132.656 89.8921 132.696 89.9319C133.451 90.8568 133.389 91.0811 132.687 92.1135C131.91 93.2547 131.047 94.327 130.163 95.3726C129.228 96.4767 128.148 97.46 127.122 98.4872C126.277 99.3338 125.434 100.183 124.561 101.002C123.64 101.866 122.667 102.675 121.596 103.351C121.041 103.7 120.614 104.201 120.016 104.513C119.564 104.748 119.214 104.745 118.905 104.427C118.123 103.62 117.284 102.873 116.521 102.042C115.533 100.966 114.41 100.013 113.368 98.9848C113.13 98.7499 112.922 98.8879 112.791 98.9954C111.64 99.9376 110.273 100.511 108.983 101.205C108 101.734 106.982 102.215 105.91 102.573C105.218 102.804 104.588 103.234 103.89 103.425C102.959 103.68 102.044 103.978 101.126 104.269C100.158 104.576 99.1542 104.745 98.202 105.133C97.7432 105.32 97.1967 105.352 96.6953 105.485C96.3136 105.585 96.1767 105.772 96.1846 106.202C96.2338 108.567 96.2405 110.933 96.2578 113.298C96.2591 113.562 96.2378 113.827 96.2259 114.092C96.0743 114.289 95.9852 114.533 95.6899 114.606C94.9878 114.78 94.2936 114.985 93.5967 115.177C92.9118 115.115 92.2855 115.493 91.6019 115.44C91.5381 115.427 91.4729 115.395 91.4104 115.401C88.385 115.668 85.3516 115.496 82.3222 115.558C81.9112 115.566 81.4883 115.615 81.0974 115.423C80.4683 115.546 79.8659 115.192 79.2356 115.316C78.959 115.319 78.7049 115.189 78.4456 115.131C77.7368 114.973 76.9615 115.042 76.3285 114.593C76.278 114.519 76.2274 114.445 76.1756 114.37C76.1649 113.954 76.1503 113.537 76.1463 113.119C76.1197 110.698 76.0971 108.277 76.0638 105.856C76.0612 105.662 76.1889 105.331 75.863 105.32C75.2314 105.297 74.6781 104.97 74.0597 104.922C73.7499 104.68 73.3642 104.703 73.0078 104.626C72.6674 104.31 72.2006 104.33 71.7963 104.187C70.4319 103.701 69.0568 103.245 67.6844 102.777C67.6458 102.589 67.453 102.694 67.3599 102.608C65.2654 101.75 63.2719 100.693 61.3037 99.5859C61.2146 99.5143 61.1255 99.4413 61.0364 99.3696C60.7784 99.1825 60.4593 99.0418 60.2757 98.7977C59.9765 98.4035 59.8023 98.5774 59.5523 98.8242C58.6653 99.7 57.761 100.56 56.8686 101.429C55.7143 102.553 54.5627 103.68 53.415 104.809C53.1291 105.09 52.8724 105.128 52.4774 104.946C51.8338 104.65 51.2806 104.219 50.6702 103.879C50.6249 103.835 50.5797 103.791 50.5345 103.747C49.3097 102.541 47.908 101.542 46.6739 100.332C44.8081 98.5017 43.0088 96.6147 41.2707 94.668C40.4715 93.7736 39.8411 92.7505 39.1163 91.8003C39.0977 91.5389 39.0804 91.2788 39.0618 91.0174C39.3437 90.6724 39.627 90.3273 39.9089 89.9823L39.9036 89.9876C40.6138 89.2737 41.3239 88.5584 42.034 87.8445C42.0726 87.8047 42.1099 87.7662 42.1484 87.7264C42.4609 87.4981 42.7309 87.2274 42.9596 86.9142C42.9995 86.8731 43.0381 86.8333 43.078 86.7922C43.5049 86.4777 43.9344 86.1658 44.2257 85.708C44.2602 85.6775 44.2762 85.6403 44.2735 85.5939C44.6752 85.1931 45.0754 84.791 45.4771 84.3903C45.6327 84.235 45.751 84.085 45.4691 83.9391C45.4451 83.8621 45.4225 83.7851 45.3986 83.7068C44.9518 82.5537 44.1871 81.5757 43.6073 80.4955C42.7482 78.8977 42.1045 77.2018 41.2521 75.6041C41.2282 75.421 41.2149 75.2338 41.0726 75.0919C40.8718 74.358 40.6018 73.6507 40.2653 72.9686C40.2441 72.5798 40.1031 72.2295 39.9262 71.8898C39.6456 70.6981 39.3637 69.5064 39.0844 68.3135C39.0405 68.125 38.8982 68.0879 38.736 68.0786C38.2745 68.052 37.8131 68.0109 37.3503 68.0043C34.8488 67.9711 32.3473 67.9339 29.8459 67.93C29.3631 67.9286 29.1091 67.7495 28.9934 67.3129C28.8232 66.6719 28.6557 66.031 28.4868 65.39C28.0705 62.4414 28.2261 59.4702 28.1543 56.5083C28.2141 56.1129 28.2248 55.7174 28.1769 55.3206C28.1796 55.1972 28.1822 55.0725 28.1849 54.9491C28.1969 54.9371 28.2195 54.9252 28.2181 54.9146C28.2141 54.8854 28.2022 54.8575 28.1929 54.8296C28.3086 54.3771 28.2979 53.9167 28.2846 53.4562C28.3431 53.3288 28.3538 53.1987 28.3032 53.0674C28.2647 51.9527 28.5466 50.8685 28.6131 49.7631C28.7102 49.7339 28.7394 49.6662 28.7421 49.568C28.786 48.3021 29.3924 48.0367 30.3313 48.038C32.8913 48.0406 35.4512 47.9982 38.0099 47.9584C39.0592 47.9424 39.1203 47.9358 39.3158 46.9286C39.49 46.0368 39.9502 45.226 39.9954 44.3077C40.1643 44.1711 40.2268 43.9999 40.1696 43.7875C40.4688 42.8998 40.7667 42.0107 41.0659 41.1229C41.1058 40.9849 41.147 40.8456 41.1869 40.7062C41.4369 40.4076 41.5779 40.0507 41.7149 39.695C42.7695 36.968 44.0142 34.3365 45.6978 31.9333C45.8946 31.652 45.8507 31.4994 45.6273 31.2698C43.4743 29.067 41.3319 26.8601 39.0884 24.7555ZM55.1997 57.8433C54.9284 77.3982 71.8602 89.6532 86.9714 89.49C103.491 89.3122 118.174 75.5391 118.212 58.0304C118.256 38.2871 101.339 26.2033 86.2559 26.4806C69.7563 26.7858 55.1119 40.604 55.1997 57.8433Z" fill="#6C7AAB"/>
<path d="M84.4063 141.982C56.9287 141.982 29.4524 141.982 1.97485 141.979C1.37376 141.979 0.723455 142.091 0.28859 141.476C0.122358 141.239 -0.00131924 141.028 1.0623e-05 140.713C0.0172988 136.247 0.0292676 131.782 0.00931965 127.316C0.00665993 126.641 0.444184 126.407 0.910965 126.206C1.19954 126.081 1.55728 126.081 1.88309 126.081C56.9034 126.076 111.924 126.077 166.944 126.074C168.343 126.074 169.012 126.653 169 128.12C168.965 132.1 168.967 136.081 169 140.061C169.011 141.4 168.367 142.002 167.036 142.001C139.493 141.977 111.949 141.982 84.4063 141.982ZM84.4807 129.137C66.1779 129.137 47.875 129.137 29.5721 129.137C20.952 129.137 12.3331 129.142 3.71298 129.126C3.19035 129.125 3.0414 129.256 3.04672 129.786C3.07465 132.484 3.06002 135.18 3.06002 137.878C3.06002 138.921 3.06002 138.922 4.10662 138.922C48.8006 138.922 93.4932 138.922 138.187 138.922C147.206 138.922 156.224 138.917 165.242 138.936C165.791 138.937 165.94 138.803 165.933 138.248C165.903 135.507 165.92 132.765 165.92 130.023C165.92 129.138 165.92 129.137 165.048 129.137C138.192 129.137 111.336 129.137 84.4807 129.137Z" fill="#6C7AAB"/>
<path d="M69.2753 45.1174C67.4295 47.5458 66.0172 50.1494 65.307 53.1326C64.1474 58.0041 64.6115 62.7428 66.7845 67.1684C69.8592 73.4293 74.7318 77.6399 81.7627 79.0651C85.7869 79.8812 89.7299 79.7645 93.5972 78.2994C93.7966 78.2238 93.9815 78.1283 94.2288 78.2357C95.5255 78.8011 96.834 79.3425 98.1599 79.9025C91.6862 84.06 79.1748 84.4714 70.7196 77.5882C65.2565 73.1413 61.9877 67.4232 61.4372 60.3224C60.8946 53.3277 62.8721 47.1 67.4282 41.7043C67.4069 41.6446 67.3843 41.5849 67.363 41.5252C66.5531 41.5252 65.7432 41.5384 64.9347 41.5225C63.7325 41.4986 62.9745 40.7475 62.9997 39.6342C63.0197 38.7371 63.9838 37.9117 65.0371 37.9422C67.3178 38.0059 69.5998 38.0869 71.8792 38.1784C72.8846 38.2182 73.612 39.0383 73.499 40.0389C73.2157 42.5655 72.9165 45.0895 72.5894 47.6109C72.4471 48.7123 71.6359 49.3599 70.6943 49.2205C69.5067 49.0454 68.8844 48.2452 69.0333 47.0867C69.1198 46.4311 69.1956 45.7743 69.2753 45.1174Z" fill="#6C7AAB"/>
<path d="M105.729 73.7875C106.763 73.7875 107.686 73.7875 108.609 73.7875C109.441 73.7875 110.231 74.3382 110.492 75.1C110.708 75.7303 110.341 76.6778 109.712 77.1436C109.466 77.3254 109.195 77.3731 108.9 77.3745C106.352 77.3917 103.804 77.4236 101.257 77.4315C99.9778 77.4355 99.245 76.5995 99.3607 75.3547C99.5655 73.1532 99.749 70.9504 99.9472 68.7489C100.035 67.7748 101.043 66.838 101.889 66.9295C102.957 67.045 103.619 67.9089 103.519 69.0488C103.466 69.6632 103.417 70.2789 103.362 70.9318C103.667 70.88 103.715 70.6359 103.826 70.4766C107.249 65.5919 108.438 60.1458 107.424 54.3388C106.317 48.0049 103.003 43.0233 97.3353 39.7801C91.5491 36.4679 85.469 35.6053 79.0737 37.8214C78.8596 37.8957 78.6668 37.986 78.4487 37.832C78.3237 37.7431 78.1747 37.6887 78.0377 37.6157C77.0217 37.0796 76.007 36.5435 74.8594 35.9384C78.3263 34.3008 81.8052 33.1211 85.5594 33.1862C91.8204 33.2936 97.6346 34.8794 102.445 39.0887C112.31 47.7223 114.525 62.1111 105.729 73.7875Z" fill="#6C7AAB"/>
<path d="M87.3801 59.0398C87.9586 60.4318 88.4693 61.723 89.0331 62.9917C89.2965 63.5862 89.2326 64.0573 88.8629 64.5907C87.678 66.2986 86.5423 68.041 85.3707 69.7581C85.1473 70.0859 85.0848 70.2518 85.4997 70.4999C86.2644 70.9551 86.42 71.6677 85.9851 72.2954C85.6287 72.8103 84.9704 72.862 84.2749 72.3976C80.6657 69.989 77.0604 67.5765 73.4565 65.16C72.8049 64.7234 72.6905 64.1966 73.0775 63.5769C73.4405 62.9956 73.9525 62.8417 74.6161 63.2849C75.176 63.6578 75.3981 63.4959 75.7186 62.9996C76.821 61.2904 77.9833 59.6184 79.1004 57.9172C79.3983 57.4633 79.7534 57.2563 80.3053 57.2682C81.6125 57.2961 82.9198 57.2656 84.227 57.2842C84.6366 57.2895 84.7297 57.2032 84.5555 56.8038C84.0515 55.6493 83.606 54.4696 83.09 53.3204C82.8254 52.7298 82.8692 52.2548 83.2429 51.72C84.4199 50.032 85.5436 48.3096 86.7125 46.6163C86.9692 46.246 87.0517 46.047 86.5889 45.7511C85.8428 45.2733 85.6952 44.6178 86.0928 44.0711C86.5051 43.5044 87.1873 43.4434 87.9121 43.9277C91.4841 46.3124 95.0534 48.6997 98.6214 51.0897C99.3223 51.5594 99.4659 52.0955 99.0776 52.7099C98.6839 53.3323 98.1453 53.465 97.4219 52.9886C96.9511 52.6781 96.7676 52.7697 96.4804 53.2155C95.3526 54.9619 94.1651 56.6698 93.0214 58.4055C92.7222 58.8593 92.3605 59.0571 91.8112 59.0478C90.3723 59.0239 88.9347 59.0398 87.3801 59.0398ZM89.1887 57.2802C89.1887 57.2855 89.1887 57.2908 89.1887 57.2961C89.8311 57.2961 90.4734 57.2749 91.113 57.3041C91.4881 57.3213 91.7155 57.2019 91.9243 56.8847C92.9802 55.279 94.0467 53.6813 95.1439 52.1035C95.4138 51.7147 95.2915 51.5634 94.959 51.3431C92.9483 50.0161 90.9442 48.6785 88.9534 47.3236C88.6222 47.098 88.4653 47.0993 88.2352 47.4497C87.17 49.0752 86.0809 50.6849 84.985 52.2906C84.8015 52.56 84.7869 52.7803 84.9172 53.0802C85.3986 54.1935 85.8933 55.3056 86.295 56.4495C86.533 57.1276 86.8961 57.3744 87.5982 57.2935C88.1209 57.2311 88.6568 57.2802 89.1887 57.2802ZM82.9916 59.0146C82.3054 59.0146 81.6205 59.0292 80.9356 59.008C80.6151 58.9987 80.413 59.0929 80.2295 59.3689C79.147 61.0078 78.0498 62.6387 76.9434 64.2616C76.7612 64.5297 76.7253 64.677 77.0391 64.884C79.1057 66.2455 81.1617 67.6203 83.2097 69.0097C83.5289 69.226 83.6765 69.1742 83.8773 68.869C84.9598 67.2301 86.0569 65.6006 87.162 63.9763C87.3296 63.7295 87.3588 63.5291 87.2378 63.2491C86.6992 61.9924 86.17 60.7318 85.6686 59.4591C85.5303 59.1088 85.3428 58.9934 84.9811 59.008C84.3201 59.0332 83.6552 59.0146 82.9916 59.0146Z" fill="#6C7AAB"/>
<path d="M9.20553 130.733C10.1138 130.734 11.0221 130.745 11.9304 130.728C12.3068 130.721 12.3826 130.813 12.2549 131.183C11.582 133.147 10.925 135.117 10.288 137.093C10.183 137.42 10.0088 137.478 9.71087 137.476C8.6031 137.464 7.49533 137.48 6.38755 137.468C5.55107 137.46 5.09094 137.046 5.07631 136.215C5.05237 134.779 5.06434 133.341 5.09227 131.905C5.1069 131.155 5.57767 130.752 6.41415 130.734C7.34505 130.718 8.27463 130.732 9.20553 130.733Z" fill="#6C7AAB"/>
<path d="M14.9445 137.473C14.2144 137.473 13.4843 137.46 12.7542 137.48C12.4018 137.489 12.3526 137.384 12.4617 137.063C13.1359 135.079 13.7995 133.091 14.4511 131.099C14.5442 130.815 14.6905 130.729 14.9764 130.732C16.4366 130.744 17.8968 130.746 19.3557 130.731C19.744 130.727 19.7932 130.834 19.6722 131.187C19.0006 133.148 18.3436 135.115 17.704 137.087C17.6002 137.407 17.4393 137.486 17.1321 137.478C16.4047 137.461 15.6746 137.473 14.9445 137.473Z" fill="#6C7AAB"/>
<path d="M37.2481 137.469C36.518 137.469 35.7865 137.461 35.0565 137.472C34.7599 137.476 34.587 137.443 34.712 137.074C35.3916 135.066 36.0605 133.056 36.7254 131.042C36.8119 130.781 36.9741 130.727 37.2241 130.728C38.6856 130.737 40.1472 130.741 41.6073 130.727C41.9983 130.723 42.0475 130.839 41.9265 131.192C41.2642 133.137 40.6166 135.085 39.9823 137.037C39.8772 137.36 39.7229 137.489 39.3732 137.476C38.6657 137.451 37.9569 137.471 37.2481 137.469Z" fill="#6C7AAB"/>
<path d="M74.3128 137.471C73.5814 137.471 72.8499 137.456 72.1198 137.477C71.7555 137.488 71.7142 137.354 71.818 137.047C72.4895 135.059 73.1571 133.07 73.8128 131.077C73.9085 130.788 74.0787 130.728 74.3553 130.729C75.7956 130.74 77.2345 130.745 78.6747 130.727C79.0989 130.721 79.1508 130.844 79.0205 131.227C78.3556 133.17 77.7106 135.12 77.0709 137.073C76.9738 137.371 76.8289 137.489 76.5057 137.479C75.7756 137.453 75.0442 137.471 74.3128 137.471Z" fill="#6C7AAB"/>
<path d="M89.1462 137.471C88.4161 137.471 87.686 137.459 86.9573 137.476C86.6168 137.484 86.545 137.396 86.6581 137.063C87.3336 135.081 87.9972 133.093 88.6475 131.102C88.7406 130.82 88.8816 130.727 89.1702 130.729C90.6304 130.74 92.0892 130.741 93.5494 130.727C93.9231 130.723 93.9989 130.809 93.8726 131.177C93.1996 133.138 92.5427 135.105 91.903 137.076C91.8006 137.391 91.649 137.485 91.3365 137.477C90.6064 137.457 89.8763 137.471 89.1462 137.471Z" fill="#6C7AAB"/>
<path d="M52.0414 137.472C51.3113 137.472 50.5812 137.459 49.8511 137.477C49.5014 137.487 49.4455 137.387 49.5559 137.062C50.2315 135.078 50.8964 133.09 51.548 131.098C51.6411 130.813 51.7887 130.728 52.0746 130.731C53.5348 130.741 54.995 130.745 56.4552 130.727C56.8488 130.721 56.8887 130.834 56.7691 131.182C56.0988 133.143 55.4379 135.11 54.7995 137.082C54.6958 137.402 54.5376 137.484 54.2317 137.477C53.5029 137.461 52.7715 137.472 52.0414 137.472Z" fill="#6C7AAB"/>
<path d="M59.4689 137.473C58.7375 137.473 58.0074 137.461 57.2773 137.477C56.9369 137.485 56.8624 137.403 56.9794 137.062C57.659 135.078 58.3212 133.086 58.9769 131.094C59.058 130.847 59.1697 130.732 59.441 130.733C60.9251 130.741 62.4079 130.744 63.892 130.731C64.2498 130.728 64.3016 130.858 64.1979 131.164C63.5276 133.152 62.8601 135.14 62.2071 137.133C62.11 137.429 61.9358 137.481 61.6632 137.477C60.9304 137.464 60.199 137.473 59.4689 137.473Z" fill="#6C7AAB"/>
<path d="M46.895 130.736C47.6251 130.735 48.3538 130.742 49.0839 130.732C49.3778 130.728 49.4842 130.796 49.3765 131.113C48.6956 133.117 48.02 135.123 47.3644 137.136C47.2647 137.444 47.0865 137.475 46.8245 137.473C45.3656 137.467 43.9055 137.463 42.4466 137.476C42.1155 137.479 42.0197 137.411 42.1341 137.071C42.807 135.088 43.4733 133.102 44.1209 131.11C44.226 130.788 44.4055 130.724 44.706 130.731C45.4348 130.748 46.1649 130.738 46.895 130.736Z" fill="#6C7AAB"/>
<path d="M29.758 137.471C29.0492 137.471 28.3404 137.465 27.6329 137.473C27.3483 137.477 27.1595 137.467 27.2925 137.08C27.9774 135.074 28.6489 133.064 29.3112 131.049C29.399 130.781 29.5546 130.728 29.8019 130.729C31.2635 130.736 32.725 130.744 34.1865 130.727C34.5881 130.721 34.6267 130.861 34.5136 131.196C33.8474 133.162 33.1904 135.131 32.5414 137.102C32.451 137.376 32.3127 137.483 32.0188 137.476C31.2635 137.459 30.5108 137.471 29.758 137.471Z" fill="#6C7AAB"/>
<path d="M93.9492 137.474C94.5703 135.604 95.166 133.806 95.7658 132.009C96.1914 130.735 96.1953 130.736 97.5611 130.736C98.6689 130.736 99.7767 130.75 100.883 130.727C101.317 130.718 101.42 130.823 101.271 131.253C100.608 133.173 99.9708 135.102 99.3285 137.03C99.25 137.267 99.2048 137.483 98.867 137.48C97.2552 137.467 95.6421 137.474 93.9492 137.474Z" fill="#6C7AAB"/>
<path d="M83.9518 130.737C84.6606 130.735 85.3694 130.747 86.0782 130.732C86.4466 130.722 86.5995 130.767 86.4479 131.204C85.7763 133.145 85.13 135.096 84.4957 137.051C84.388 137.383 84.2271 137.486 83.884 137.482C82.4663 137.463 81.0474 137.455 79.6297 137.486C79.1337 137.497 79.1457 137.315 79.272 136.945C79.9276 135.02 80.5779 133.095 81.2056 131.163C81.316 130.822 81.4849 130.721 81.824 130.732C82.5328 130.753 83.243 130.737 83.9518 130.737Z" fill="#6C7AAB"/>
<path d="M22.3748 137.472C21.6434 137.472 20.9133 137.461 20.1818 137.477C19.8427 137.485 19.7669 137.401 19.8826 137.062C20.5609 135.076 21.2218 133.085 21.8788 131.091C21.9599 130.846 22.0716 130.729 22.3429 130.731C23.827 130.74 25.3111 130.741 26.7952 130.731C27.1437 130.728 27.2088 130.842 27.1011 131.162C26.4295 133.15 25.7633 135.139 25.1103 137.133C25.0132 137.431 24.839 137.481 24.5664 137.477C23.8363 137.462 23.1049 137.47 22.3748 137.472Z" fill="#6C7AAB"/>
<path d="M66.879 137.471C66.1702 137.471 65.4614 137.459 64.7539 137.475C64.4187 137.481 64.2592 137.443 64.3975 137.039C65.0704 135.075 65.7247 133.106 66.371 131.134C66.4694 130.834 66.6183 130.723 66.9388 130.727C68.3777 130.743 69.8166 130.745 71.2556 130.727C71.7024 130.721 71.7104 130.881 71.5894 131.239C70.9284 133.183 70.2794 135.13 69.6424 137.082C69.5414 137.391 69.3844 137.487 69.0706 137.477C68.3405 137.457 67.6091 137.471 66.879 137.471Z" fill="#6C7AAB"/>
<path d="M101.368 137.471C101.713 136.437 102.032 135.479 102.351 134.52C102.714 133.43 103.089 132.345 103.433 131.25C103.546 130.89 103.693 130.714 104.117 130.723C105.511 130.754 106.907 130.747 108.301 130.727C108.736 130.72 108.835 130.82 108.686 131.252C108.024 133.173 107.391 135.102 106.75 137.029C106.673 137.26 106.632 137.48 106.29 137.476C104.677 137.462 103.065 137.471 101.368 137.471Z" fill="#6C7AAB"/>
<path d="M94.6439 51.8597C94.6732 52.1039 94.4923 52.2313 94.3859 52.3879C93.4843 53.7229 92.568 55.0486 91.6743 56.3888C91.4722 56.6927 91.2634 56.8414 90.8764 56.8321C89.7939 56.8029 88.7101 56.8082 87.6262 56.8307C87.2446 56.8387 87.0331 56.7325 86.8815 56.3596C86.452 55.2967 85.9812 54.251 85.5171 53.2013C85.3921 52.9187 85.3176 52.7289 85.7604 52.6865C88.6649 52.4065 91.5666 52.1066 94.4697 51.8173C94.5269 51.8106 94.5867 51.8438 94.6439 51.8597Z" fill="#6C7AAB"/>
<path d="M77.3164 64.6153C78.8338 63.7196 80.2394 62.8889 81.6438 62.0581C82.7861 61.384 83.9325 60.7152 85.0682 60.0291C85.3514 59.858 85.4977 59.8367 85.6373 60.2003C86.0416 61.2513 86.4818 62.2877 86.918 63.3254C87.0217 63.5736 87.0058 63.7647 86.8449 63.9943C85.8089 65.4805 84.7862 66.9774 83.7649 68.4743C83.6199 68.6866 83.5109 68.7874 83.2449 68.607C81.3113 67.2906 79.3644 65.9901 77.3164 64.6153Z" fill="#6C7AAB"/>
</g>
<defs>
<clipPath id="clip0_7523_2509">
<rect width="169" height="142" fill="white"/>
</clipPath>
</defs>
</svg>
