<svg width="21" height="22" viewBox="0 0 21 22" fill="" xmlns="http://www.w3.org/2000/svg">
<g id="complete-73 1">
<path id="Vector" d="M12.5848 1.15625C12.8529 1.1637 13.108 1.27303 13.2982 1.46198C13.4823 1.64729 13.5784 1.89511 13.5646 2.14875C13.5935 2.66062 13.1766 3.10183 12.6265 3.14005H8.22578C7.66411 3.11343 7.23328 2.66987 7.26109 2.14875C7.23328 1.6276 7.66411 1.18287 8.22463 1.15625H12.5848H12.5848ZM17.3504 2.31433L17.3469 2.31781C18.9833 2.31781 19.765 3.24893 19.765 4.59578V17.9289C19.765 19.5502 18.93 20.1836 17.2137 20.1836H3.58646C1.86554 20.1836 1.24713 19.373 1.23438 17.9289V4.59229C1.23554 3.24891 1.67216 2.31433 3.44171 2.31433H5.6606C5.63744 2.42203 5.62588 2.53208 5.62354 2.64208C5.62354 3.47593 6.26051 4.29813 7.09083 4.29813H13.7765C14.5501 4.29813 15.2021 3.47589 15.2021 2.64208C15.2019 2.53198 15.1907 2.42217 15.1685 2.31433H17.3504ZM6.08794 11.7979L9.09664 14.8066C9.2404 14.9431 9.4311 15.0193 9.62936 15.0193C9.82762 15.0193 10.0183 14.9431 10.1621 14.8066L15.5785 9.39838C15.65 9.32858 15.7068 9.24519 15.7456 9.15311C15.7844 9.06102 15.8044 8.96211 15.8044 8.86218C15.8044 8.76226 15.7844 8.66334 15.7456 8.57126C15.7068 8.47918 15.65 8.39578 15.5785 8.32599C15.5088 8.25588 15.426 8.20025 15.3348 8.16229C15.2435 8.12432 15.1457 8.10478 15.0469 8.10478C14.9481 8.10478 14.8503 8.12432 14.759 8.16229C14.6678 8.20025 14.585 8.25588 14.5153 8.32599L9.62939 13.1981L7.16265 10.7348C7.0209 10.5949 6.82972 10.5164 6.63051 10.5164C6.43131 10.5164 6.24013 10.5949 6.09838 10.7348C6.02667 10.8032 5.96937 10.8852 5.92987 10.9761C5.89037 11.067 5.86947 11.1648 5.86839 11.2639C5.8673 11.363 5.88607 11.4613 5.92358 11.553C5.96108 11.6447 6.01657 11.728 6.08677 11.7979L6.08794 11.7979Z" fill=""/>
</g>
</svg>
