<svg width="30" height="30" viewBox="0 0 30 30" fill="none" xmlns="http://www.w3.org/2000/svg">
<path d="M25.293 5.62502L20.1367 0.693768C19.9225 0.473152 19.6659 0.298008 19.3824 0.178808C19.0989 0.0596082 18.7943 -0.00120051 18.4867 1.79552e-05H10.9867C10.3749 0.0147054 9.79313 0.268104 9.36568 0.706061C8.93824 1.14402 8.69904 1.73179 8.69922 2.34377V22.9688C8.69922 23.5904 8.94615 24.1865 9.38569 24.626C9.82523 25.0656 10.4214 25.3125 11.043 25.3125H23.643C24.2646 25.3125 24.8607 25.0656 25.3003 24.626C25.7398 24.1865 25.9867 23.5904 25.9867 22.9688V7.27502C25.9879 6.96748 25.9271 6.66285 25.8079 6.37935C25.6887 6.09584 25.5136 5.83929 25.293 5.62502ZM23.643 22.9688H11.043V2.34377H16.143V7.27502C16.143 7.89662 16.3899 8.49276 16.8294 8.9323C17.269 9.37184 17.8651 9.61877 18.4867 9.61877H23.643V22.9688ZM23.643 7.27502H18.4867V2.34377L23.643 7.27502Z" fill="#4098D8"/>
<path d="M18.9555 27.6562H6.35547V7.03125H7.49922V4.6875H6.35547C5.73387 4.6875 5.13773 4.93443 4.69819 5.37397C4.25865 5.81351 4.01172 6.40965 4.01172 7.03125V27.6562C4.01172 28.2779 4.25865 28.874 4.69819 29.3135C5.13773 29.7531 5.73387 30 6.35547 30H18.9555C19.5771 30 20.1732 29.7531 20.6127 29.3135C21.0523 28.874 21.2992 28.2779 21.2992 27.6562V26.475H18.9555V27.6562Z" fill="#4098D8"/>
</svg>
