<svg fill="none" height="22" viewBox="0 0 22 22" width="22" xmlns="http://www.w3.org/2000/svg"><g fill="#5a5a5a"><path d="m18.5477 4.12501-3.7813-3.616247c-.1571-.161785-.3453-.290223-.5532-.377637-.2079-.0874134-.4313-.13200638-.6568-.13111283h-5.49999c-.44866.01077073-.8753.19659683-1.18876.51776483s-.48887.752202-.48874 1.200982v15.12504c0 .4558.18108.893.50341 1.2153.32232.3223.7595.5034 1.21534.5034h9.24004c.4558 0 .893-.1811 1.2153-.5034s.5034-.7595.5034-1.2153v-11.50879c.0009-.22553-.0437-.44892-.1311-.65682-.0874-.20791-.2159-.39605-.3776-.55318zm-1.21 12.71879h-9.24004v-15.12504h3.74004v3.61625c0 .45584.181.89301.5034 1.21534.3223.32233.7595.50341 1.2153.50341h3.7813zm0-11.50879h-3.7813v-3.61625z"/><path d="m13.9002 20.2812h-9.24004v-15.12495h.83875v-1.71875h-.83875c-.45584 0-.89302.18108-1.21534.50341-.32233.32233-.50341.7595-.50341 1.21534v15.12495c0 .4559.18108.8931.50341 1.2154.32232.3223.7595.5034 1.21534.5034h9.24004c.4558 0 .893-.1811 1.2153-.5034s.5034-.7595.5034-1.2154v-.8662h-1.7187z"/></g></svg>