<svg width="12" height="15" viewBox="0 0 12 15" fill="none" xmlns="http://www.w3.org/2000/svg">
<path d="M11.109 2.80789L8.52799 0.339466C8.42073 0.229033 8.2923 0.141361 8.15039 0.0816933C8.00848 0.0220255 7.85599 -0.00841344 7.70205 -0.00780351H3.94778C3.64154 -0.000451454 3.35031 0.126392 3.13635 0.345619C2.92238 0.564847 2.80265 0.859067 2.80273 1.1654V11.4896C2.80273 11.8008 2.92634 12.0992 3.14636 12.3192C3.36638 12.5392 3.66479 12.6628 3.97594 12.6628H10.2831C10.5943 12.6628 10.8927 12.5392 11.1127 12.3192C11.3327 12.0992 11.4563 11.8008 11.4563 11.4896V3.63383C11.4569 3.47989 11.4265 3.3274 11.3668 3.18549C11.3071 3.04357 11.2195 2.91515 11.109 2.80789ZM10.2831 11.4896H3.97594V1.1654H6.52884V3.63383C6.52884 3.94499 6.65245 4.24339 6.87246 4.46341C7.09248 4.68343 7.39089 4.80704 7.70205 4.80704H10.2831V11.4896ZM10.2831 3.63383H7.70205V1.1654L10.2831 3.63383Z" fill="currentColor"/>
<path d="M7.9374 13.8353H1.63024V3.5111H2.20276V2.33789H1.63024C1.31908 2.33789 1.02067 2.4615 0.800656 2.68152C0.580637 2.90153 0.457031 3.19994 0.457031 3.5111V13.8353C0.457031 14.1465 0.580637 14.4449 0.800656 14.6649C1.02067 14.8849 1.31908 15.0085 1.63024 15.0085H7.9374C8.24855 15.0085 8.54696 14.8849 8.76698 14.6649C8.987 14.4449 9.11061 14.1465 9.11061 13.8353V13.244H7.9374V13.8353Z" fill="currentColor"/>
</svg>
