<svg fill="none" height="17" viewBox="0 0 18 17" width="18" xmlns="http://www.w3.org/2000/svg"><g fill="#4098d8"><path d="m14.4059 3.18751-2.9179-2.794375c-.1212-.125015-.2664-.224264-.4268-.29181-.1605-.067547-.3328-.10200529-.5069-.10131483h-4.24419c-.34622.00832288-.67545.15191583-.91734.40009083-.24189.248176-.37724.581247-.37714.928039v11.68746c0 .3523.13973.6901.38846.9392.24874.249.58609.389.93785.389h7.13026c.3518 0 .6891-.14.9379-.389.2487-.2491.3884-.5869.3884-.9392v-8.89309c.0007-.17427-.0337-.3469-.1011-.50755-.0675-.16065-.1666-.30603-.2915-.42745zm-.9337 9.82809h-7.13026v-11.68746h2.88606v2.79437c0 .35224.13974.69005.38847.93913.24873.24907.58613.389.93783.389h2.9179zm0-8.89309h-2.9179v-2.79437z"/><path d="m10.8238 15.6719h-7.1303v-11.68752h.64724v-1.32813h-.64724c-.35176 0-.68911.13993-.93784.389-.24874.24907-.38847.58688-.38847.93913v11.68752c0 .3522.13973.69.38847.9391.24873.2491.58608.389.93784.389h7.1303c.3517 0 .6891-.1399.9378-.389.2488-.2491.3885-.5869.3885-.9391v-.6694h-1.3263z"/></g></svg>