<svg width="22" height="22" viewBox="0 0 22 22" fill="none" xmlns="http://www.w3.org/2000/svg">
<path d="M18.5477 4.12501L14.7664 0.508763C14.6093 0.346978 14.4211 0.21854 14.2132 0.131126C14.0053 0.0437126 13.7819 -0.000880376 13.5564 1.31672e-05H8.05641C7.60775 0.0107839 7.18111 0.19661 6.86765 0.517778C6.55419 0.838946 6.37878 1.26998 6.37891 1.71876V16.8438C6.37891 17.2996 6.55999 17.7368 6.88232 18.0591C7.20464 18.3814 7.64182 18.5625 8.09766 18.5625H17.3377C17.7935 18.5625 18.2307 18.3814 18.553 18.0591C18.8753 17.7368 19.0564 17.2996 19.0564 16.8438V5.33501C19.0573 5.10948 19.0127 4.88609 18.9253 4.67819C18.8379 4.47028 18.7094 4.28214 18.5477 4.12501ZM17.3377 16.8438H8.09766V1.71876H11.8377V5.33501C11.8377 5.79085 12.0187 6.22802 12.3411 6.55035C12.6634 6.87268 13.1006 7.05376 13.5564 7.05376H17.3377V16.8438ZM17.3377 5.33501H13.5564V1.71876L17.3377 5.33501Z" fill="#5A5A5A"/>
<path d="M13.9002 20.2812H4.66016V5.15625H5.49891V3.4375H4.66016C4.20432 3.4375 3.76714 3.61858 3.44482 3.94091C3.12249 4.26324 2.94141 4.70041 2.94141 5.15625V20.2812C2.94141 20.7371 3.12249 21.1743 3.44482 21.4966C3.76714 21.8189 4.20432 22 4.66016 22H13.9002C14.356 22 14.7932 21.8189 15.1155 21.4966C15.4378 21.1743 15.6189 20.7371 15.6189 20.2812V19.415H13.9002V20.2812Z" fill="#5A5A5A"/>
</svg>
