<svg width="22" height="21" viewBox="0 0 22 21" fill="none" xmlns="http://www.w3.org/2000/svg">
<path d="M22 9.44405C22 8.17125 20.9645 7.13575 19.6917 7.13575C18.4189 7.13575 17.3834 8.17125 17.3834 9.44405C17.3834 10.0231 17.5982 10.5525 17.9515 10.9581L15.5653 13.1471L12.522 6.85775L14.3007 4.76855L11.0125 0.90625L7.7244 4.76865L9.4239 6.76485L6.4023 13.1113L4.0496 10.9569C4.4024 10.5514 4.6167 10.0225 4.6167 9.44405C4.6167 8.17125 3.5812 7.13575 2.3084 7.13575C1.0355 7.13575 0 8.17125 0 9.44405C0 10.6235 0.8895 11.5986 2.0328 11.7354L2.7401 20.2089H19.26L19.9673 11.7354C21.1105 11.5986 22 10.6235 22 9.44405Z" fill="#623421"/>
</svg>
