<svg fill="none" height="28" viewBox="0 0 28 28" width="28" xmlns="http://www.w3.org/2000/svg"><g clip-rule="evenodd" fill="#55b8ff" fill-rule="evenodd"><path d="m3.5026 5.54036c-.16108 0-.29166.13059-.29166.29167v18.66667c0 .1611.13058.2917.29166.2917h21c.1611 0 .2917-.1306.2917-.2917v-18.66667c0-.16108-.1306-.29167-.2917-.29167zm-2.04166.29167c0-1.12758.91408-2.04167 2.04166-2.04167h21c1.1276 0 2.0417.91409 2.0417 2.04167v18.66667c0 1.1276-.9141 2.0417-2.0417 2.0417h-21c-1.12758 0-2.04166-.9141-2.04166-2.0417z"/><path d="m1.46094 11.6654c0-.4833.39175-.875.875-.875h23.33336c.4832 0 .875.3917.875.875 0 .4832-.3918.875-.875.875h-23.33336c-.48325 0-.875-.3918-.875-.875z"/><path d="m1.46094 18.6654c0-.4833.39175-.875.875-.875h23.33336c.4832 0 .875.3917.875.875 0 .4832-.3918.875-.875.875h-23.33336c-.48325 0-.875-.3918-.875-.875z"/><path d="m9.91927 1.45703c.48323 0 .87503.39175.87503.875v4.66667c0 .48325-.3918.875-.87503.875-.48325 0-.875-.39175-.875-.875v-4.66667c0-.48325.39175-.875.875-.875z"/><path d="m18.0859 1.45703c.4833 0 .875.39175.875.875v4.66667c0 .48325-.3917.875-.875.875-.4832 0-.875-.39175-.875-.875v-4.66667c0-.48325.3918-.875.875-.875z"/><path d="m9.91927 10.7904c.48323 0 .87503.3917.87503.875v14c0 .4832-.3918.875-.87503.875-.48325 0-.875-.3918-.875-.875v-14c0-.4833.39175-.875.875-.875z"/><path d="m18.0859 10.7904c.4833 0 .875.3917.875.875v14c0 .4832-.3917.875-.875.875-.4832 0-.875-.3918-.875-.875v-14c0-.4833.3918-.875.875-.875z"/><path d="m25.6693 6.70703c.4832 0 .875.39175.875.875v15.16667c0 .4832-.3918.875-.875.875-.4833 0-.875-.3918-.875-.875v-15.16667c0-.48325.3917-.875.875-.875z"/><path d="m2.33594 6.70703c.48325 0 .875.39175.875.875v15.16667c0 .4832-.39175.875-.875.875s-.875-.3918-.875-.875v-15.16667c0-.48325.39175-.875.875-.875z"/><path d="m7.29427 25.6654c0-.4833.39175-.875.875-.875h11.66663c.4833 0 .875.3917.875.875 0 .4832-.3917.875-.875.875h-11.66663c-.48325 0-.875-.3918-.875-.875z"/></g></svg>