<svg width="22" height="22" viewBox="0 0 22 22" fill="none" xmlns="http://www.w3.org/2000/svg">
<path fill-rule="evenodd" clip-rule="evenodd" d="M2 3.75C1.86193 3.75 1.75 3.86193 1.75 4V20C1.75 20.1381 1.86193 20.25 2 20.25H20C20.1381 20.25 20.25 20.1381 20.25 20V4C20.25 3.86193 20.1381 3.75 20 3.75H2ZM0.25 4C0.25 3.0335 1.0335 2.25 2 2.25H20C20.9665 2.25 21.75 3.0335 21.75 4V20C21.75 20.9665 20.9665 21.75 20 21.75H2C1.0335 21.75 0.25 20.9665 0.25 20V4Z" fill="#5A5A5A"/>
<path fill-rule="evenodd" clip-rule="evenodd" d="M0.25 9C0.25 8.58579 0.585786 8.25 1 8.25H21C21.4142 8.25 21.75 8.58579 21.75 9C21.75 9.41421 21.4142 9.75 21 9.75H1C0.585786 9.75 0.25 9.41421 0.25 9Z" fill="#5A5A5A"/>
<path fill-rule="evenodd" clip-rule="evenodd" d="M0.25 15C0.25 14.5858 0.585786 14.25 1 14.25H21C21.4142 14.25 21.75 14.5858 21.75 15C21.75 15.4142 21.4142 15.75 21 15.75H1C0.585786 15.75 0.25 15.4142 0.25 15Z" fill="#5A5A5A"/>
<path fill-rule="evenodd" clip-rule="evenodd" d="M7.5 0.25C7.91421 0.25 8.25 0.585786 8.25 1V5C8.25 5.41421 7.91421 5.75 7.5 5.75C7.08579 5.75 6.75 5.41421 6.75 5V1C6.75 0.585786 7.08579 0.25 7.5 0.25Z" fill="#5A5A5A"/>
<path fill-rule="evenodd" clip-rule="evenodd" d="M14.5 0.25C14.9142 0.25 15.25 0.585786 15.25 1V5C15.25 5.41421 14.9142 5.75 14.5 5.75C14.0858 5.75 13.75 5.41421 13.75 5V1C13.75 0.585786 14.0858 0.25 14.5 0.25Z" fill="#5A5A5A"/>
<path fill-rule="evenodd" clip-rule="evenodd" d="M7.5 8.25C7.91421 8.25 8.25 8.58579 8.25 9V21C8.25 21.4142 7.91421 21.75 7.5 21.75C7.08579 21.75 6.75 21.4142 6.75 21V9C6.75 8.58579 7.08579 8.25 7.5 8.25Z" fill="#5A5A5A"/>
<path fill-rule="evenodd" clip-rule="evenodd" d="M14.5 8.25C14.9142 8.25 15.25 8.58579 15.25 9V21C15.25 21.4142 14.9142 21.75 14.5 21.75C14.0858 21.75 13.75 21.4142 13.75 21V9C13.75 8.58579 14.0858 8.25 14.5 8.25Z" fill="#5A5A5A"/>
<path fill-rule="evenodd" clip-rule="evenodd" d="M21 4.75C21.4142 4.75 21.75 5.08579 21.75 5.5V18.5C21.75 18.9142 21.4142 19.25 21 19.25C20.5858 19.25 20.25 18.9142 20.25 18.5V5.5C20.25 5.08579 20.5858 4.75 21 4.75Z" fill="#5A5A5A"/>
<path fill-rule="evenodd" clip-rule="evenodd" d="M1 4.75C1.41421 4.75 1.75 5.08579 1.75 5.5V18.5C1.75 18.9142 1.41421 19.25 1 19.25C0.585786 19.25 0.25 18.9142 0.25 18.5V5.5C0.25 5.08579 0.585786 4.75 1 4.75Z" fill="#5A5A5A"/>
<path fill-rule="evenodd" clip-rule="evenodd" d="M5.25 21C5.25 20.5858 5.58579 20.25 6 20.25H16C16.4142 20.25 16.75 20.5858 16.75 21C16.75 21.4142 16.4142 21.75 16 21.75H6C5.58579 21.75 5.25 21.4142 5.25 21Z" fill="#5A5A5A"/>
</svg>
