<svg xmlns="http://www.w3.org/2000/svg" width="14" height="15" viewBox="0 0 14 15" fill="none">
  <path fill-rule="evenodd" clip-rule="evenodd" d="M3.80952 0C4.23031 0 4.57143 0.335786 4.57143 0.75V1.5H9.14286V0.75C9.14286 0.335786 9.48397 0 9.90476 0C10.3256 0 10.6667 0.335786 10.6667 0.75V1.5H11.4286C12.691 1.5 13.7143 2.50737 13.7143 3.75V12.75C13.7143 13.9927 12.691 15 11.4286 15H2.28571C1.02336 15 0 13.9927 0 12.75V3.75C0 2.50736 1.02335 1.5 2.28571 1.5H3.04762V0.75C3.04762 0.335786 3.38874 0 3.80952 0ZM3.04762 3H2.28571C1.86493 3 1.52381 3.33579 1.52381 3.75V5.25H12.1905V3.75C12.1905 3.33578 11.8494 3 11.4286 3H10.6667V3.75C10.6667 4.16421 10.3256 4.5 9.90476 4.5C9.48397 4.5 9.14286 4.16421 9.14286 3.75V3H4.57143V3.75C4.57143 4.16421 4.23031 4.5 3.80952 4.5C3.38874 4.5 3.04762 4.16421 3.04762 3.75V3ZM12.1905 6.75H1.52381V12.75C1.52381 13.1642 1.86492 13.5 2.28571 13.5H11.4286C11.8494 13.5 12.1905 13.1642 12.1905 12.75V6.75Z" fill=""/>
  <path d="M4.28348 7.28516H2.5692C2.3325 7.28516 2.14062 7.47703 2.14062 7.71373V9.42801C2.14062 9.66471 2.3325 9.85659 2.5692 9.85659H4.28348C4.52018 9.85659 4.71205 9.66471 4.71205 9.42801V7.71373C4.71205 7.47703 4.52018 7.28516 4.28348 7.28516Z" fill=""/>
  <path d="M7.71317 7.28516H5.99888C5.76219 7.28516 5.57031 7.47703 5.57031 7.71373V9.42801C5.57031 9.66471 5.76219 9.85659 5.99888 9.85659H7.71317C7.94986 9.85659 8.14174 9.66471 8.14174 9.42801V7.71373C8.14174 7.47703 7.94986 7.28516 7.71317 7.28516Z" fill=""/>
  <path d="M11.1429 7.28516H9.42857C9.19188 7.28516 9 7.47703 9 7.71373V9.42801C9 9.66471 9.19188 9.85659 9.42857 9.85659H11.1429C11.3796 9.85659 11.5714 9.66471 11.5714 9.42801V7.71373C11.5714 7.47703 11.3796 7.28516 11.1429 7.28516Z" fill=""/>
</svg>