<svg xmlns="http://www.w3.org/2000/svg" width="17" height="16" viewBox="0 0 17 16" fill="none"> 
  <g clip-path="url(#clip0_4293_18415)">
    <path fill-rule="evenodd" clip-rule="evenodd" d="M2.8776 3.16536C2.78556 3.16536 2.71094 3.23998 2.71094 3.33203V13.9987C2.71094 14.0907 2.78556 14.1654 2.8776 14.1654H14.8776C14.9697 14.1654 15.0443 14.0907 15.0443 13.9987V3.33203C15.0443 3.23998 14.9697 3.16536 14.8776 3.16536H2.8776ZM1.71094 3.33203C1.71094 2.6877 2.23327 2.16536 2.8776 2.16536H14.8776C15.5219 2.16536 16.0443 2.6877 16.0443 3.33203V13.9987C16.0443 14.643 15.5219 15.1654 14.8776 15.1654H2.8776C2.23327 15.1654 1.71094 14.643 1.71094 13.9987V3.33203Z" fill="#5A5A5A"/>
    <path fill-rule="evenodd" clip-rule="evenodd" d="M1.71094 6.66536C1.71094 6.38922 1.9348 6.16536 2.21094 6.16536H15.5443C15.8204 6.16536 16.0443 6.38922 16.0443 6.66536C16.0443 6.94151 15.8204 7.16536 15.5443 7.16536H2.21094C1.9348 7.16536 1.71094 6.94151 1.71094 6.66536Z" fill="#5A5A5A"/>
    <path fill-rule="evenodd" clip-rule="evenodd" d="M1.71094 10.6654C1.71094 10.3892 1.9348 10.1654 2.21094 10.1654H15.5443C15.8204 10.1654 16.0443 10.3892 16.0443 10.6654C16.0443 10.9415 15.8204 11.1654 15.5443 11.1654H2.21094C1.9348 11.1654 1.71094 10.9415 1.71094 10.6654Z" fill="#5A5A5A"/>
    <path fill-rule="evenodd" clip-rule="evenodd" d="M6.54427 0.832031C6.82041 0.832031 7.04427 1.05589 7.04427 1.33203V3.9987C7.04427 4.27484 6.82041 4.4987 6.54427 4.4987C6.26813 4.4987 6.04427 4.27484 6.04427 3.9987V1.33203C6.04427 1.05589 6.26813 0.832031 6.54427 0.832031Z" fill="#5A5A5A"/>
    <path fill-rule="evenodd" clip-rule="evenodd" d="M11.2109 0.832031C11.4871 0.832031 11.7109 1.05589 11.7109 1.33203V3.9987C11.7109 4.27484 11.4871 4.4987 11.2109 4.4987C10.9348 4.4987 10.7109 4.27484 10.7109 3.9987V1.33203C10.7109 1.05589 10.9348 0.832031 11.2109 0.832031Z" fill="#5A5A5A"/>
    <path fill-rule="evenodd" clip-rule="evenodd" d="M6.54427 6.16536C6.82041 6.16536 7.04427 6.38922 7.04427 6.66536V14.6654C7.04427 14.9415 6.82041 15.1654 6.54427 15.1654C6.26813 15.1654 6.04427 14.9415 6.04427 14.6654V6.66536C6.04427 6.38922 6.26813 6.16536 6.54427 6.16536Z" fill="#5A5A5A"/>
    <path fill-rule="evenodd" clip-rule="evenodd" d="M11.2109 6.16536C11.4871 6.16536 11.7109 6.38922 11.7109 6.66536V14.6654C11.7109 14.9415 11.4871 15.1654 11.2109 15.1654C10.9348 15.1654 10.7109 14.9415 10.7109 14.6654V6.66536C10.7109 6.38922 10.9348 6.16536 11.2109 6.16536Z" fill="#5A5A5A"/>
    <path fill-rule="evenodd" clip-rule="evenodd" d="M15.5443 3.83203C15.8204 3.83203 16.0443 4.05589 16.0443 4.33203V12.9987C16.0443 13.2748 15.8204 13.4987 15.5443 13.4987C15.2681 13.4987 15.0443 13.2748 15.0443 12.9987V4.33203C15.0443 4.05589 15.2681 3.83203 15.5443 3.83203Z" fill="#5A5A5A"/>
    <path fill-rule="evenodd" clip-rule="evenodd" d="M2.21094 3.83203C2.48708 3.83203 2.71094 4.05589 2.71094 4.33203V12.9987C2.71094 13.2748 2.48708 13.4987 2.21094 13.4987C1.9348 13.4987 1.71094 13.2748 1.71094 12.9987V4.33203C1.71094 4.05589 1.9348 3.83203 2.21094 3.83203Z" fill="#5A5A5A"/>
    <path fill-rule="evenodd" clip-rule="evenodd" d="M5.04427 14.6654C5.04427 14.3892 5.26813 14.1654 5.54427 14.1654H12.2109C12.4871 14.1654 12.7109 14.3892 12.7109 14.6654C12.7109 14.9415 12.4871 15.1654 12.2109 15.1654H5.54427C5.26813 15.1654 5.04427 14.9415 5.04427 14.6654Z" fill="#5A5A5A"/>
  </g>
  <defs>
    <clipPath id="clip0_4293_18415">
      <rect width="16" height="16" fill="white" transform="translate(0.875)"/>
    </clipPath>
  </defs>
</svg>
