<svg width="20" height="24" viewBox="0 0 20 24" fill="none" xmlns="http://www.w3.org/2000/svg"> 
<g clip-path="url(#clip0_12593_37460)">
<path d="M11.9091 17C10.738 16.9973 9.57005 16.8894 8.42148 16.678C7.97851 16.5561 7.56384 16.359 7.19858 16.0968C7.12962 16.0386 7.08263 15.9614 7.06451 15.8767C7.06113 15.8404 7.06697 15.8039 7.08156 15.7701C7.09614 15.7363 7.11905 15.7061 7.14847 15.682C7.36064 15.4855 8.14102 15.3507 8.30253 15.345C10.6946 15.3328 13.1261 15.3325 15.5179 15.345C15.6794 15.3515 16.4597 15.4863 16.6719 15.682C16.7013 15.7061 16.7242 15.7362 16.7388 15.77C16.7533 15.8038 16.7592 15.8402 16.7559 15.8764C16.738 15.9613 16.6909 16.0385 16.6218 16.0965C16.2566 16.3589 15.8419 16.556 15.3989 16.6778C14.2527 16.8888 13.0872 16.9967 11.9186 17H11.9091ZM3.00004 15.7318C2.99837 15.5566 3.05294 15.3849 3.1568 15.2385C3.26066 15.0921 3.40915 14.9776 3.5834 14.9095C3.75765 14.8414 3.94982 14.8228 4.13552 14.856C4.32122 14.8892 4.49207 14.9728 4.62639 15.0961C4.76072 15.2194 4.85247 15.377 4.88998 15.5486C4.92749 15.7203 4.90909 15.8985 4.8371 16.0605C4.76512 16.2225 4.64278 16.361 4.48564 16.4585C4.3285 16.556 4.14365 16.608 3.95452 16.608C3.7026 16.6087 3.46065 16.5169 3.28173 16.3526C3.10282 16.1884 3.00152 15.9651 3.00004 15.7318ZM3.00004 12.0971C2.99837 11.922 3.05294 11.7503 3.1568 11.6039C3.26066 11.4575 3.40915 11.343 3.5834 11.2749C3.75765 11.2068 3.94982 11.1881 4.13552 11.2214C4.32122 11.2546 4.49207 11.3382 4.62639 11.4615C4.76072 11.5848 4.85247 11.7423 4.88998 11.914C4.92749 12.0857 4.90909 12.2638 4.8371 12.4258C4.76512 12.5878 4.64278 12.7264 4.48564 12.8238C4.3285 12.9213 4.14365 12.9734 3.95452 12.9734C3.7026 12.9741 3.46065 12.8822 3.28173 12.718C3.10282 12.5537 3.00152 12.3305 3.00004 12.0971ZM8.18077 12.6675C8.01283 12.6493 7.1846 12.4342 6.93212 12.2078C6.89674 12.1841 6.86793 12.1529 6.84807 12.1168C6.82821 12.0808 6.81785 12.0409 6.81785 12.0004C6.81785 11.96 6.82821 11.9201 6.84807 11.884C6.86793 11.848 6.89674 11.8168 6.93212 11.793C7.18404 11.5657 8.01367 11.3523 8.18077 11.3334C10.6605 11.1127 13.1574 11.1127 15.6371 11.3334C15.805 11.3515 16.633 11.5667 16.8857 11.793C16.9211 11.8168 16.9499 11.848 16.9698 11.884C16.9897 11.9201 17 11.96 17 12.0004C17 12.0409 16.9897 12.0808 16.9698 12.1168C16.9499 12.1529 16.9211 12.1841 16.8857 12.2078C16.6338 12.4352 15.8042 12.6485 15.6371 12.6672C14.3923 12.7775 13.1488 12.8326 11.9068 12.8326C10.6648 12.8326 9.4226 12.7776 8.18077 12.6675ZM3.00004 8.07103C2.99837 7.89586 3.05294 7.72418 3.1568 7.57779C3.26066 7.43139 3.40915 7.31687 3.5834 7.24877C3.75765 7.18066 3.94982 7.16204 4.13552 7.19527C4.32122 7.2285 4.49207 7.31207 4.62639 7.43539C4.76072 7.55871 4.85247 7.71621 4.88998 7.8879C4.92749 8.0596 4.90909 8.23775 4.8371 8.39974C4.76512 8.56172 4.64278 8.70025 4.48564 8.79774C4.3285 8.89523 4.14365 8.94728 3.95452 8.94728C3.82972 8.9478 3.70605 8.92554 3.59054 8.88178C3.47504 8.83802 3.36997 8.77361 3.28134 8.69225C3.19271 8.61088 3.12224 8.51414 3.07398 8.40755C3.02571 8.30096 3.00059 8.18661 3.00004 8.07103ZM8.30169 8.65563C8.14019 8.64915 7.3598 8.51434 7.14764 8.31861C7.11821 8.29448 7.0953 8.2643 7.08072 8.23049C7.06614 8.19668 7.0603 8.16018 7.06367 8.12391C7.08181 8.03916 7.1288 7.96202 7.19774 7.90381C7.56298 7.64157 7.97765 7.44448 8.42064 7.32258C10.7221 6.89247 13.0932 6.89247 15.3947 7.32258C15.8377 7.44439 16.2524 7.64149 16.6176 7.90381C16.6865 7.96202 16.7335 8.03916 16.7517 8.12391C16.755 8.16014 16.7491 8.19659 16.7346 8.23035C16.72 8.26411 16.6971 8.29424 16.6677 8.31835C16.4555 8.51512 15.6754 8.64967 15.5139 8.65537C14.3182 8.66133 13.1124 8.66418 11.9065 8.66418C10.7007 8.66418 9.49632 8.66159 8.30169 8.65563Z" fill="#4098D8"/>
<rect x="1" y="1" width="18" height="22" rx="2" stroke="#4098D8" stroke-width="2"/>
</g>
<defs>
<clipPath id="clip0_12593_37460">
<rect width="20" height="24" fill="white"/>
</clipPath>
</defs>
</svg>
