<svg fill="none" height="16" viewBox="0 0 15 16" width="15" xmlns="http://www.w3.org/2000/svg"><g clip-rule="evenodd" fill="#6c7aab" fill-rule="evenodd"><path d="m13.9673 15.6549c-.3978.4393-1.0428.4393-1.4406 0l-5.39151-5.95454-5.39152 5.95454c-.3978.4393-1.042767.4393-1.440568 0-.3978016-.4394-.3978013-1.1517 0-1.591l6.111808-6.75002c.3978-.43934 1.04276-.43934 1.44056 0l6.11183 6.75002c.3978.4393.3978 1.1516 0 1.591z"/><path d="m13.9595 8.67049c-.3978.43934-1.0428.43934-1.4406 0l-5.39152-5.9545-5.39153 5.9545c-.3978.43934-1.04276.43934-1.440561 0-.397801-.43934-.397801-1.15165.000001-1.59099l6.1118-6.749999c.39781-.43934 1.04277-.43934 1.44057.000001l6.11184 6.749998c.3978.43934.3978 1.15165 0 1.59099z"/></g></svg>