<svg xmlns="http://www.w3.org/2000/svg" width="30" height="31" viewBox="0 0 30 31" fill="none">
    <g clip-path="url(#clip0_1419_47826)">
      <path d="M5.03725 18.8325L11.6675 25.4646L27.5775 9.55367L20.9473 2.92432L5.03725 18.8325ZM22.2729 6.9023L9.01611 20.1582L7.69043 18.8325L20.9473 5.57662L22.2729 6.9023ZM27.5775 1.59863L28.9032 2.92432C30.3662 4.38822 30.3662 6.76314 28.9032 8.22799L22.2729 1.59863C23.7378 0.133789 26.1127 0.133789 27.5775 1.59863ZM9.81445 26.263L0 30.5L4.23709 20.6855L9.81445 26.263Z" fill="white"/>
      <circle cx="13.6105" cy="28.5538" r="1.94444" fill="white"/>
      <circle cx="19.1671" cy="28.5538" r="1.94444" fill="white"/>
      <circle cx="24.7218" cy="28.5538" r="1.94444" fill="white"/>
    </g>
    <defs>
      <clipPath id="clip0_1419_47826">
        <rect width="30" height="30" fill="white" transform="translate(0 0.5)"/>
      </clipPath>
    </defs>
  </svg>