<svg width="28" height="28" viewBox="0 0 28 28" fill="none" xmlns="http://www.w3.org/2000/svg">
<path d="M23.0279 5.35958C23.0075 2.64229 20.8414 0.506784 18.1182 0.503966C13.8637 0.499036 9.60913 0.498332 5.35459 0.503966C2.65332 0.507488 0.521106 2.59017 0.512633 5.2828C0.494277 11.0907 0.497807 16.8978 0.511221 22.7057C0.51687 25.1539 2.24735 27.0943 4.68315 27.4549C4.7241 27.4613 4.76294 27.4845 4.80247 27.5C7.97467 27.5 11.1462 27.5 14.3183 27.5C14.3572 27.4817 14.3939 27.4599 14.4341 27.4458C15.2842 27.1535 15.5631 26.4048 15.0893 25.6427C14.617 24.8834 14.2612 24.0777 14.0508 23.2078C12.9578 18.6917 15.9768 14.1798 20.578 13.467C20.9854 13.4037 21.4005 13.3825 21.8136 13.3677C22.562 13.3417 23.0301 12.8846 23.0315 12.1338C23.0336 9.8757 23.0456 7.61764 23.0279 5.35958ZM11.4102 20.8977C11.2591 21.378 10.8341 21.6886 10.2841 21.6907C8.77742 21.6964 7.27075 21.6992 5.76479 21.69C5.06017 21.6858 4.59278 21.2252 4.58855 20.5673C4.58431 19.8989 5.05664 19.4256 5.7542 19.3982C5.77185 19.3975 5.7895 19.3975 5.80715 19.3975C6.5386 19.3975 7.26934 19.3975 8.00079 19.3975C8.75836 19.3975 9.51593 19.3869 10.2735 19.4003C11.1398 19.4158 11.658 20.1088 11.4102 20.8977ZM12.1494 15.9153C11.0847 15.9315 10.0193 15.9195 8.95393 15.9195C8.95393 15.9202 8.95393 15.9209 8.95393 15.9216C7.89771 15.9216 6.84078 15.9322 5.78456 15.9181C4.89849 15.9068 4.38097 15.2053 4.64644 14.4073C4.806 13.9284 5.23033 13.6354 5.78456 13.6347C7.70355 13.6326 9.62325 13.634 11.5422 13.634C11.7357 13.634 11.9298 13.6319 12.1233 13.6347C12.8138 13.6452 13.2988 14.1066 13.3038 14.756C13.3094 15.3877 12.8152 15.9047 12.1494 15.9153ZM15.0244 9.96445C14.9545 9.9736 14.8839 9.97571 14.814 9.97571C11.819 9.97642 8.82473 9.97712 5.82975 9.97571C5.23386 9.97571 4.79612 9.69398 4.64573 9.22772C4.38733 8.42832 4.9345 7.68807 5.79586 7.68525C7.30182 7.68032 8.80849 7.68384 10.3145 7.68384C11.8204 7.68384 13.3271 7.68173 14.833 7.68455C15.4628 7.68596 15.909 8.01699 16.0248 8.5565C16.1703 9.23899 15.7198 9.875 15.0244 9.96445Z" fill="#4098D8"/>
<path d="M17.4291 24.1305C17.5357 23.4973 17.6572 22.7789 17.7779 22.0612C17.8054 21.8971 17.8075 21.7224 17.8676 21.5703C17.965 21.3231 18.0497 21.0413 18.2283 20.8603C20.0217 19.0467 21.8305 17.2479 23.6394 15.4504C24.1498 14.9433 24.7888 14.9447 25.3028 15.4483C25.9248 16.0583 26.539 16.6745 27.1526 17.2929C27.6094 17.7529 27.6157 18.3952 27.1716 18.8748C27.0107 19.0488 26.8377 19.2129 26.6696 19.3806C25.1065 20.9399 23.5335 22.4887 21.9872 24.0643C21.6032 24.4559 21.1852 24.6848 20.6458 24.7651C19.9419 24.8693 19.245 25.0243 18.5454 25.1546C17.9332 25.2694 17.4136 24.8327 17.4291 24.1305Z" fill="#4098D8"/>
</svg>
