<svg width="39" height="27" viewBox="0 0 39 27" fill="none" xmlns="http://www.w3.org/2000/svg">
<path fill-rule="evenodd" clip-rule="evenodd" d="M0.521333 2.61625C1.14242e-07 3.64167 0 4.98333 0 7.66667V19.1667C0 21.85 1.14242e-07 23.1917 0.521333 24.2171C0.981132 25.1184 1.71447 25.8511 2.61625 26.3101C3.64167 26.8333 4.98333 26.8333 7.66667 26.8333H30.6667C33.35 26.8333 34.6917 26.8333 35.7171 26.3101C36.6182 25.8508 37.3508 25.1182 37.8101 24.2171C38.3333 23.1917 38.3333 21.85 38.3333 19.1667V7.66667C38.3333 4.98333 38.3333 3.64167 37.8101 2.61625C37.3511 1.71447 36.6184 0.981132 35.7171 0.521333C34.6917 -3.42727e-07 33.35 0 30.6667 0H7.66667C4.98333 0 3.64167 -3.42727e-07 2.61625 0.521333C1.71418 0.980806 0.980807 1.71418 0.521333 2.61625ZM5.07342 3.83333H33.2599C33.4657 3.83308 33.6661 3.89907 33.8314 4.02154C33.9968 4.14401 34.1184 4.31645 34.1781 4.51335C34.2379 4.71026 34.2327 4.92117 34.1633 5.11489C34.0939 5.30861 33.964 5.47484 33.7928 5.589L20.2323 14.6587C19.917 14.8696 19.5461 14.9822 19.1667 14.9822C18.7872 14.9822 18.4164 14.8696 18.101 14.6587L4.54058 5.589C4.36938 5.47484 4.23946 5.30861 4.17006 5.11489C4.10066 4.92117 4.09545 4.71026 4.15521 4.51335C4.21497 4.31645 4.33652 4.14401 4.50189 4.02154C4.66725 3.89907 4.86764 3.83308 5.07342 3.83333Z" fill=""/>
</svg>
