<svg width="50" height="50" viewBox="0 0 50 50" fill="none" xmlns="http://www.w3.org/2000/svg">
<path d="M42.8303 10.8587C42.3316 9.8721 41.5323 9.0701 40.5483 8.56891C39.4303 7.99999 38.21 8 35.7799 8H12.6218C10.1917 8 8.9714 7.99999 7.85335 8.56891C6.8676 9.06889 6.06691 9.87112 5.56788 10.8587C5.00004 11.9789 5 13.2015 5 15.6362V30.8309C5 33.2656 5.00004 34.4883 5.56788 35.6085C6.06812 36.5943 6.86858 37.3951 7.85335 37.8947C8.9714 38.4672 10.1917 38.4672 12.6218 38.4672H23.3896C23.717 38.4672 24.031 38.3369 24.2625 38.1049C24.494 37.873 24.624 37.5584 24.624 37.2304C24.624 36.9024 24.494 36.5878 24.2625 36.3559C24.031 36.1239 23.717 35.9936 23.3896 35.9936H12.6218C10.6502 35.9936 9.56391 35.9936 8.9749 35.6897C8.45455 35.4277 8.03181 35.0053 7.76871 34.4848C7.46891 33.8911 7.46888 32.8063 7.46888 30.8309V17.5479L16.4274 23.534C19.1078 25.322 20.4551 26.2195 22.0705 26.6047C22.774 26.7741 23.495 26.8595 24.2185 26.8591C24.9419 26.8595 25.663 26.7741 26.3664 26.6047C27.9641 26.2195 29.3079 25.322 31.9884 23.5304L40.9504 17.5479V23.2371C40.9504 23.5651 41.0804 23.8797 41.312 24.1117C41.5435 24.3436 41.8574 24.4739 42.1848 24.4739C42.5122 24.4739 42.8262 24.3436 43.0577 24.1117C43.2892 23.8797 43.4193 23.5651 43.4193 23.2371V15.6362C43.3946 13.2121 43.3946 11.9789 42.8303 10.8587ZM30.6023 21.4597C28.1652 23.0887 26.9448 23.905 25.7738 24.1841C24.7397 24.4315 23.662 24.4315 22.6278 24.1841C21.4568 23.905 20.233 23.0887 17.7994 21.4597L7.46888 14.562C7.46888 13.2404 7.52535 12.4418 7.76871 11.9683C8.03079 11.4461 8.45371 11.0224 8.9749 10.7598C9.56391 10.4594 10.6502 10.4594 12.6218 10.4594H35.7763C37.7479 10.4594 38.8343 10.4594 39.4233 10.7598C39.9437 11.0234 40.3664 11.4468 40.6295 11.9683C40.8728 12.4453 40.9187 13.2545 40.9258 14.5973C40.8444 14.6296 40.7664 14.6698 40.6929 14.7175L30.6023 21.4597Z" fill="#6C7AAB"/>
<path d="M40.865 41.9478C40.7233 41.9488 40.5824 41.9249 40.4489 41.8771L36.1707 40.3541L31.8889 41.8771C31.7 41.9441 31.4978 41.9644 31.2994 41.9361C31.101 41.9078 30.9124 41.8318 30.7497 41.7146C30.5879 41.5959 30.4571 41.4398 30.3687 41.2595C30.2802 41.0792 30.2368 40.88 30.2418 40.6792L30.3688 36.1279L27.5966 32.5235C27.4746 32.3638 27.3933 32.1768 27.3595 31.9786C27.3257 31.7804 27.3405 31.5769 27.4026 31.3857C27.4647 31.1944 27.5722 31.0211 27.716 30.8808C27.8597 30.7404 28.0355 30.6372 28.228 30.58L32.5837 29.2938L35.1514 25.541C35.2655 25.3759 35.4179 25.2408 35.5953 25.1473C35.7728 25.0538 35.9702 25.0046 36.1707 25.0039C36.3712 25.0046 36.5685 25.0538 36.746 25.1473C36.9235 25.2408 37.0758 25.3759 37.19 25.541L39.7576 29.2938L44.1134 30.58C44.3058 30.6372 44.4816 30.7404 44.6254 30.8808C44.7691 31.0211 44.8766 31.1944 44.9387 31.3857C45.0009 31.5769 45.0157 31.7804 44.9819 31.9786C44.9481 32.1768 44.8667 32.3638 44.7447 32.5235L41.9726 36.1279L42.0995 40.6792C42.1045 40.8804 42.0605 41.0798 41.9714 41.2602C41.8823 41.4406 41.7508 41.5965 41.5881 41.7146C41.378 41.8674 41.1247 41.9491 40.865 41.9478ZM36.1707 37.8028C36.3112 37.8033 36.4506 37.8272 36.5833 37.8735L39.5813 38.9336L39.4931 35.7533C39.4853 35.4687 39.5763 35.1902 39.7505 34.9653L41.6868 32.4387L38.6361 31.5412C38.3647 31.4598 38.1294 31.2877 37.9694 31.0535L36.1707 28.4245L34.3719 31.0535C34.2115 31.2887 33.9747 31.4611 33.7018 31.5412L30.6545 32.4387L32.5908 34.9653C32.7651 35.1902 32.8561 35.4687 32.8482 35.7533L32.7601 38.9336L35.758 37.8735C35.8907 37.8272 36.0302 37.8033 36.1707 37.8028Z" fill="white"/>
<path d="M40.865 41.9478C40.7233 41.9488 40.5824 41.9249 40.4489 41.8771L36.1707 40.3541L31.8889 41.8771C31.7 41.9441 31.4978 41.9644 31.2994 41.9361C31.101 41.9078 30.9124 41.8318 30.7497 41.7146C30.5879 41.5959 30.4571 41.4398 30.3687 41.2595C30.2802 41.0792 30.2368 40.88 30.2418 40.6792L30.3688 36.1279L27.5966 32.5235C27.4746 32.3638 27.3933 32.1768 27.3595 31.9786C27.3257 31.7804 27.3405 31.5769 27.4026 31.3857C27.4647 31.1944 27.5722 31.0211 27.716 30.8808C27.8597 30.7404 28.0355 30.6372 28.228 30.58L32.5837 29.2938L35.1514 25.541C35.2655 25.3759 35.4179 25.2408 35.5953 25.1473C35.7728 25.0538 35.9702 25.0046 36.1707 25.0039C36.3712 25.0046 36.5685 25.0538 36.746 25.1473C36.9235 25.2408 37.0758 25.3759 37.19 25.541L39.7576 29.2938L44.1134 30.58C44.3058 30.6372 44.4816 30.7404 44.6254 30.8808C44.7691 31.0211 44.8766 31.1944 44.9387 31.3857C45.0009 31.5769 45.0157 31.7804 44.9819 31.9786C44.9481 32.1768 44.8667 32.3638 44.7447 32.5235L41.9726 36.1279L42.0995 40.6792C42.1045 40.8804 42.0605 41.0798 41.9714 41.2602C41.8823 41.4406 41.7508 41.5965 41.5881 41.7146C41.378 41.8674 41.1247 41.9491 40.865 41.9478ZM36.1707 37.8028C36.3112 37.8033 36.4506 37.8272 36.5833 37.8735L39.5813 38.9336L39.4931 35.7533C39.4853 35.4687 39.5763 35.1902 39.7505 34.9653L41.6868 32.4387L38.6361 31.5412C38.3647 31.4598 38.1294 31.2877 37.9694 31.0535L36.1707 28.4245L34.3719 31.0535C34.2115 31.2887 33.9747 31.4611 33.7018 31.5412L30.6545 32.4387L32.5908 34.9653C32.7651 35.1902 32.8561 35.4687 32.8482 35.7533L32.7601 38.9336L35.758 37.8735C35.8907 37.8272 36.0302 37.8033 36.1707 37.8028Z" fill="#35C0FF"/>
</svg>
