<svg fill="none" height="26" viewBox="0 0 31 26" width="31" xmlns="http://www.w3.org/2000/svg"><path d="m29.3152 2.17303c-.3738-.74998-.9728-1.359606-1.7103-1.740579-.838-.43245494-1.7527-.432451-3.574-.432451h-17.35731c-1.82138 0-2.73604-.00000394-3.57403.432451-.73883.380053-1.33896.989849-1.71299 1.740579-.425604.85148-.425632 1.78084-.425632 3.63153v11.55004c0 1.8507.000028 2.7801.425632 3.6316.37494.7493.97489 1.358 1.71299 1.7378.83799.4352 1.75265.4352 3.57403.4352h8.07061c.2454 0 .4808-.0991.6543-.2754s.2709-.4154.2709-.6647c0-.2494-.0974-.4885-.2709-.6648s-.4089-.2754-.6543-.2754h-8.07061c-1.47772 0-2.29194 0-2.73341-.231-.39001-.1992-.70686-.5202-.90406-.9159-.2247-.4513-.22472-1.2759-.22472-2.7774v-10.09687l6.71449 4.55017c2.00911 1.3592 3.01891 2.0414 4.22961 2.3342.5273.1288 1.0677.1937 1.6099.1934.5423.0003 1.0827-.0646 1.6099-.1934 1.1976-.2928 2.2047-.975 4.2138-2.3369l6.7171-4.54747v4.32457c0 .2493.0975.4884.271.6647s.4089.2754.6543.2754c.2453 0 .4807-.0991.6542-.2754s.271-.4154.271-.6647v-5.77774c-.0185-1.84263-.0185-2.78005-.4415-3.63153zm-9.165 8.05817c-1.8267 1.2383-2.7414 1.8587-3.619 2.0709-.7751.188-1.5829.188-2.358 0-.8776-.2122-1.7949-.8326-3.6189-2.0709l-7.7429-5.24319c0-1.00459.04232-1.61164.22472-1.97157.19643-.39693.51342-.71903.90406-.91863.44147-.22832 1.25569-.22831 2.73341-.22831h17.35461c1.4777 0 2.292-.00001 2.7334.22831.3901.20037.7069.52226.9041.91863.1824.36261.2168.97772.2221 1.99842-.061.02452-.1195.05512-.1745.09134z" fill="#6c7aab"/><path d="m27.8468 25.8015c-.1063.0008-.2118-.0174-.3119-.0537l-3.2066-1.1577-3.2092 1.1577c-.1416.0509-.2932.0663-.4419.0448s-.29-.0793-.412-.1684c-.1213-.0901-.2193-.2088-.2856-.3459s-.0989-.2884-.095-.4411l.0951-3.4596-2.0778-2.7398c-.0914-.1214-.1524-.2635-.1777-.4142s-.0143-.3054.0323-.4507c.0465-.1454.1271-.2771.2349-.3838.1077-.1067.2395-.1851.3837-.2286l3.2647-.9777 1.9245-2.8526c.0856-.1256.1998-.2283.3328-.2993.133-.0711.2809-.1085.4312-.109.1503.0005.2982.0379.4312.109.133.071.2472.1737.3328.2993l1.9245 2.8526 3.2647.9777c.1442.0435.2759.1219.3837.2286s.1883.2384.2349.3838c.0465.1453.0577.3.0324.4507-.0254.1507-.0864.2928-.1779.4142l-2.0777 2.7398.0951 3.4596c.0038.153-.0292.3045-.096.4417-.0667.1371-.1653.2556-.2873.3453-.1575.1162-.3473.1783-.5419.1773zm-3.5185-3.1507c.1053.0004.2098.0185.3093.0537l2.247.8058-.0661-2.4174c-.0059-.2164.0623-.4281.193-.599l1.4512-1.9206-2.2866-.6822c-.2033-.0619-.3797-.1927-.4996-.3707l-1.3482-1.9984-1.3482 1.9984c-.1203.1788-.2977.3098-.5022.3707l-2.2841.6822 1.4513 1.9206c.1307.1709.1989.3826.193.599l-.0661 2.4174 2.247-.8058c.0994-.0352.204-.0533.3093-.0537z" fill="#fff"/><path d="m27.8468 25.8015c-.1063.0008-.2118-.0174-.3119-.0537l-3.2066-1.1577-3.2092 1.1577c-.1416.0509-.2932.0663-.4419.0448s-.29-.0793-.412-.1684c-.1213-.0901-.2193-.2088-.2856-.3459s-.0989-.2884-.095-.4411l.0951-3.4596-2.0778-2.7398c-.0914-.1214-.1524-.2635-.1777-.4142s-.0143-.3054.0323-.4507c.0465-.1454.1271-.2771.2349-.3838.1077-.1067.2395-.1851.3837-.2286l3.2647-.9777 1.9245-2.8526c.0856-.1256.1998-.2283.3328-.2993.133-.0711.2809-.1085.4312-.109.1503.0005.2982.0379.4312.109.133.071.2472.1737.3328.2993l1.9245 2.8526 3.2647.9777c.1442.0435.2759.1219.3837.2286s.1883.2384.2349.3838c.0465.1453.0577.3.0324.4507-.0254.1507-.0864.2928-.1779.4142l-2.0777 2.7398.0951 3.4596c.0038.153-.0292.3045-.096.4417-.0667.1371-.1653.2556-.2873.3453-.1575.1162-.3473.1783-.5419.1773zm-3.5185-3.1507c.1053.0004.2098.0185.3093.0537l2.247.8058-.0661-2.4174c-.0059-.2164.0623-.4281.193-.599l1.4512-1.9206-2.2866-.6822c-.2033-.0619-.3797-.1927-.4996-.3707l-1.3482-1.9984-1.3482 1.9984c-.1203.1788-.2977.3098-.5022.3707l-2.2841.6822 1.4513 1.9206c.1307.1709.1989.3826.193.599l-.0661 2.4174 2.247-.8058c.0994-.0352.204-.0533.3093-.0537z" fill="#35c0ff"/></svg>