<svg fill="none" height="26" viewBox="0 0 31 26" width="31" xmlns="http://www.w3.org/2000/svg"><g fill="#fff"><path d="m29.1668 2.17303c-.3738-.74998-.9728-1.359606-1.7103-1.740579-.838-.43245494-1.7527-.432451-3.5741-.432451h-17.35724c-1.82138 0-2.73604-.00000394-3.57404.432451-.73883.380053-1.33895.989849-1.71299 1.740579-.425602.85148-.42563 1.78084-.42563 3.63153v11.55004c0 1.8507.000028 2.7801.42563 3.6316.37494.7493.9749 1.358 1.71299 1.7378.838.4352 1.75266.4352 3.57404.4352h8.07054c.2454 0 .4808-.0991.6543-.2754s.271-.4154.271-.6647c0-.2494-.0975-.4885-.271-.6648s-.4089-.2754-.6543-.2754h-8.07054c-1.47773 0-2.29195 0-2.73342-.231-.39001-.1992-.70686-.5202-.90406-.9159-.2247-.4513-.22472-1.2759-.22472-2.7774v-10.09687l6.71449 4.55017c2.00905 1.3592 3.01885 2.0414 4.22965 2.3342.5272.1288 1.0676.1937 1.6099.1934.5423.0003 1.0827-.0646 1.6099-.1934 1.1975-.2928 2.2047-.975 4.2138-2.3369l6.7171-4.54747v4.32457c0 .2493.0975.4884.271.6647s.4088.2754.6542.2754.4807-.0991.6543-.2754c.1735-.1763.2709-.4154.2709-.6647v-5.77774c-.0185-1.84263-.0184-2.78005-.4414-3.63153zm-9.165 8.05817c-1.8267 1.2383-2.7414 1.8587-3.619 2.0709-.7752.188-1.5829.188-2.358 0-.8777-.2122-1.795-.8326-3.619-2.0709l-7.74284-5.24319c0-1.00459.04232-1.61164.22472-1.97157.19644-.39693.51342-.71903.90406-.91863.44147-.22832 1.25569-.22831 2.73342-.22831h17.35464c1.4777 0 2.2919-.00001 2.7334.22831.3901.20037.7069.52226.9041.91863.1824.36261.2167.97772.222 1.99842-.0609.02452-.1194.05512-.1745.09134z"/><path d="m27.6983 25.8015c-.1062.0008-.2118-.0174-.3119-.0537l-3.2065-1.1577-3.2093 1.1577c-.1415.0509-.2931.0663-.4418.0448s-.2901-.0793-.412-.1684c-.1213-.0901-.2193-.2088-.2856-.3459s-.0989-.2884-.0951-.4411l.0952-3.4596-2.0778-2.7398c-.0914-.1214-.1524-.2635-.1777-.4142-.0254-.1507-.0143-.3054.0323-.4507.0465-.1454.1271-.2771.2348-.3838.1078-.1067.2395-.1851.3838-.2286l3.2647-.9777 1.9245-2.8526c.0855-.1256.1997-.2283.3327-.2993.133-.0711.281-.1085.4313-.109.1503.0005.2982.0379.4312.109.133.071.2472.1737.3327.2993l1.9245 2.8526 3.2647.9777c.1443.0435.276.1219.3838.2286.1077.1067.1883.2384.2348.3838.0466.1453.0577.3.0324.4507s-.0864.2928-.1778.4142l-2.0778 2.7398.0952 3.4596c.0037.153-.0292.3045-.096.4417-.0668.1371-.1654.2556-.2873.3453-.1575.1162-.3473.1783-.542.1773zm-3.5184-3.1507c.1053.0004.2098.0185.3093.0537l2.2469.8058-.066-2.4174c-.0059-.2164.0623-.4281.1929-.599l1.4513-1.9206-2.2866-.6822c-.2034-.0619-.3798-.1927-.4997-.3707l-1.3481-1.9984-1.3482 1.9984c-.1203.1788-.2977.3098-.5023.3707l-2.284.6822 1.4513 1.9206c.1306.1709.1988.3826.193.599l-.0661 2.4174 2.247-.8058c.0994-.0352.204-.0533.3093-.0537z"/><path d="m27.6983 25.8015c-.1062.0008-.2118-.0174-.3119-.0537l-3.2065-1.1577-3.2093 1.1577c-.1415.0509-.2931.0663-.4418.0448s-.2901-.0793-.412-.1684c-.1213-.0901-.2193-.2088-.2856-.3459s-.0989-.2884-.0951-.4411l.0952-3.4596-2.0778-2.7398c-.0914-.1214-.1524-.2635-.1777-.4142-.0254-.1507-.0143-.3054.0323-.4507.0465-.1454.1271-.2771.2348-.3838.1078-.1067.2395-.1851.3838-.2286l3.2647-.9777 1.9245-2.8526c.0855-.1256.1997-.2283.3327-.2993.133-.0711.281-.1085.4313-.109.1503.0005.2982.0379.4312.109.133.071.2472.1737.3327.2993l1.9245 2.8526 3.2647.9777c.1443.0435.276.1219.3838.2286.1077.1067.1883.2384.2348.3838.0466.1453.0577.3.0324.4507s-.0864.2928-.1778.4142l-2.0778 2.7398.0952 3.4596c.0037.153-.0292.3045-.096.4417-.0668.1371-.1654.2556-.2873.3453-.1575.1162-.3473.1783-.542.1773zm-3.5184-3.1507c.1053.0004.2098.0185.3093.0537l2.2469.8058-.066-2.4174c-.0059-.2164.0623-.4281.1929-.599l1.4513-1.9206-2.2866-.6822c-.2034-.0619-.3798-.1927-.4997-.3707l-1.3481-1.9984-1.3482 1.9984c-.1203.1788-.2977.3098-.5023.3707l-2.284.6822 1.4513 1.9206c.1306.1709.1988.3826.193.599l-.0661 2.4174 2.247-.8058c.0994-.0352.204-.0533.3093-.0537z"/></g></svg>