<svg width="50" height="50" viewBox="0 0 50 50" fill="none" xmlns="http://www.w3.org/2000/svg">
<path d="M25 50C38.8071 50 50 38.8071 50 25C50 11.1929 38.8071 0 25 0C11.1929 0 0 11.1929 0 25C0 38.8071 11.1929 50 25 50Z" fill="url(#paint0_linear_2885_1074)"/>
<path d="M49.5 28.5C48.1406 40.2202 40.2711 48.1343 28.5 49.5L11 33V17L15 15.5L38.5 16.5L49.5 28.5Z" fill="url(#paint1_linear_2885_1074)"/>
<path d="M23.6301 24.8616C24.3612 25.3264 25.6441 25.3265 26.3754 24.8616C26.3755 24.8615 26.3756 24.8614 26.3757 24.8614L38.8372 16.9393C38.4285 15.8121 37.305 15 35.9857 15H14.0196C12.7002 15 11.5768 15.8121 11.168 16.9393L23.6297 24.8614C23.6299 24.8615 23.63 24.8615 23.6301 24.8616Z" fill="white"/>
<path d="M27.2831 26.1674C27.2829 26.1675 27.2828 26.1676 27.2827 26.1677C26.6428 26.5745 25.8212 26.778 25 26.778C24.1786 26.778 23.3574 26.5746 22.7174 26.1676C22.7173 26.1676 22.7172 26.1675 22.7171 26.1675L11 18.7188V32.1249C11 33.7111 12.3534 35.0016 14.0169 35.0016H35.9832C37.6467 35.0016 39 33.7111 39 32.1249V18.7188L27.2831 26.1674Z" fill="white"/>
<defs>
<linearGradient id="paint0_linear_2885_1074" x1="25" y1="0.180664" x2="25" y2="49.1025" gradientUnits="userSpaceOnUse">
<stop stop-color="#13C5FC"/>
<stop offset="1" stop-color="#088FFD"/>
</linearGradient>
<linearGradient id="paint1_linear_2885_1074" x1="13.764" y1="13.9294" x2="42.5242" y2="42.8319" gradientUnits="userSpaceOnUse">
<stop stop-color="#186EB3"/>
<stop offset="0.93" stop-color="#186EB3" stop-opacity="0"/>
</linearGradient>
</defs>
</svg>
