<svg width="64" height="52" viewBox="0 0 64 52" fill="none" xmlns="http://www.w3.org/2000/svg"> 
<g clip-path="url(#clip0_4168_9662)">
<path d="M15.0682 9.06539C15.0732 9.04109 15.0781 9.01679 15.0836 8.99298C15.2254 8.71502 15.3716 8.439 15.5615 8.18922C16.1033 7.47731 16.7245 6.83634 17.3789 6.22258C17.8811 5.7517 18.3679 5.26721 18.9112 4.83763C19.1859 4.62041 19.4704 4.41242 19.7322 4.17868C19.7753 4.18694 19.8165 4.19229 19.8234 4.13251C20.3425 3.86427 20.3405 3.86621 20.7554 4.26955C21.4282 4.92413 22.1034 5.57627 22.7791 6.22842C22.8381 6.28527 22.9035 6.40044 22.9967 6.30131C23.0825 6.20995 23.2094 6.20266 23.2917 6.11908L23.2912 6.11956C23.3987 6.06222 23.5143 6.01606 23.6119 5.94559C23.839 5.78134 24.0844 5.62875 24.3308 5.51844C24.9465 5.24291 25.5468 4.93433 26.1724 4.68018C26.3142 4.64957 26.4486 4.6 26.5681 4.5169C26.8635 4.46588 27.1317 4.33613 27.4113 4.23942C27.506 4.23408 27.5972 4.22193 27.6567 4.13592C27.9933 4.06983 28.3289 3.99791 28.667 3.93911C28.8495 3.90752 28.9526 3.8356 28.8981 3.63782C28.9387 3.16839 28.9392 2.69848 28.9328 2.22808C28.9536 2.05119 28.959 1.87431 28.9392 1.69694C28.9566 1.63133 28.9714 1.56573 28.8936 1.52442C28.905 1.51665 28.9164 1.50936 28.9283 1.50158C28.9169 1.49429 28.9055 1.48701 28.8941 1.4802C29.0339 1.30186 28.9605 1.0929 28.9695 0.899493C28.9937 0.380498 28.9923 0.40188 29.5004 0.237629C29.895 0.109825 30.3015 0.0957321 30.7016 0.0646313C31.8443 -0.0242975 32.99 -0.0160363 34.1341 0.0563701C34.3463 0.0699767 34.5575 0.106909 34.7717 0.0991337C34.792 0.102049 34.8123 0.105451 34.8326 0.108367C35.2466 0.197781 35.67 0.229368 36.0829 0.329474C36.311 0.384386 36.3923 0.50393 36.3957 0.716776C36.3997 0.949059 36.37 1.1828 36.4141 1.41411C36.4096 1.42043 36.4007 1.42821 36.4022 1.43307C36.4062 1.44667 36.4141 1.45979 36.4205 1.47291C36.3967 2.24023 36.3918 3.00754 36.423 3.77486C36.4195 3.77874 36.4126 3.78409 36.4136 3.78652C36.4171 3.79527 36.4225 3.80256 36.4275 3.81033C37.2717 4.04942 38.1175 4.28365 38.9592 4.53099C39.2041 4.60291 39.4312 4.74141 39.6786 4.79875C39.9879 4.87019 40.2427 5.06068 40.557 5.12628C40.7603 5.16856 40.9184 5.35614 41.1291 5.42806C41.5198 5.56121 41.8296 5.84549 42.2133 5.99759C42.3383 6.04716 42.4032 6.26146 42.5683 6.19246C42.6878 6.1424 42.7701 6.00682 42.8692 5.90963C43.4636 5.32747 44.0585 4.74578 44.6534 4.1641C44.6841 4.13397 44.7154 4.10384 44.7461 4.07371L44.753 4.06788C44.7709 4.05476 44.7882 4.04164 44.8061 4.02852C44.8448 4.01346 44.8834 3.99839 44.9221 3.98333C44.9449 3.98576 44.9682 3.9877 44.991 3.99013C45.4615 4.17091 45.8556 4.4649 46.2304 4.78806C46.5189 5.03687 46.8094 5.28324 47.0989 5.53108C47.1465 5.59814 47.2035 5.65548 47.2794 5.69193C47.4321 5.83188 47.5495 6.00779 47.732 6.11713C47.7478 6.1322 47.7632 6.14726 47.7791 6.16281C48.2446 6.64196 48.7101 7.12062 49.1379 7.6333C49.4641 8.024 49.7839 8.41859 50.057 8.84866C50.177 9.03769 50.1368 9.21117 50.003 9.34821C49.5925 9.7671 49.1647 10.1704 48.7453 10.5811C48.4989 10.8226 48.255 11.067 48.0116 11.3119C47.9709 11.3528 47.8881 11.3921 47.9813 11.4621C47.9957 11.481 48.0101 11.4995 48.0245 11.5185L48.0215 11.5155C48.0369 11.5777 48.0736 11.6254 48.1246 11.6642C48.373 12.0831 48.6422 12.4904 48.8658 12.9238C49.3729 13.9074 49.7581 14.9386 50.0992 15.9858C50.232 16.3935 50.3451 16.8075 50.4516 17.2225C50.5082 17.4427 50.5954 17.571 50.8621 17.5608C51.2726 17.5452 51.6846 17.568 52.096 17.5749C52.1927 17.6026 52.2909 17.5967 52.3885 17.5826C52.4649 17.5904 52.5467 17.6288 52.6062 17.5447C52.6057 17.5447 52.6205 17.5452 52.6205 17.5452C52.7544 17.6545 52.9155 17.5953 53.0632 17.6074C53.2992 17.6273 53.5372 17.6278 53.7741 17.6361C53.79 17.6584 53.8059 17.6813 53.8217 17.7036C54.0399 18.2775 54.0438 18.8869 54.1306 19.4827C54.1321 19.5133 54.1336 19.5444 54.135 19.575C54.1618 20.5323 54.1509 21.4901 54.1341 22.4475C54.1331 22.4786 54.1316 22.5097 54.1306 22.5403C54.1152 22.7682 54.0998 22.9966 54.084 23.2245C54.082 23.2561 54.08 23.2872 54.0775 23.3188C54.0671 23.4009 54.0572 23.483 54.0468 23.5652C54.0339 23.5788 54.0324 23.5933 54.0428 23.6089C54.0399 23.6424 54.0369 23.6755 54.0339 23.709C54.0324 23.725 54.0309 23.7406 54.0295 23.7566C53.9779 23.9981 53.9298 24.2401 53.8743 24.4807C53.796 24.8199 53.6988 24.8932 53.3537 24.8942C52.4872 24.8967 51.6206 24.9035 50.7541 24.9001C50.6157 24.8996 50.5429 24.9331 50.5171 25.0706C50.2365 26.5732 49.6322 27.9586 48.9317 29.311C48.6789 29.7994 48.3973 30.2713 48.1083 30.7387C48.0111 30.8957 48.0141 30.9943 48.1519 31.1275C48.6199 31.578 49.074 32.0421 49.5335 32.5013C49.533 32.5207 49.5424 32.5304 49.5623 32.5309C49.6659 32.6344 49.769 32.7379 49.8726 32.8414C49.8865 32.8555 49.9009 32.8701 49.9148 32.8842L49.9197 32.8896C49.9341 32.9041 49.9485 32.9182 49.9633 32.9328C50.2449 33.2715 50.2216 33.3536 49.9599 33.7317C49.6704 34.1496 49.3486 34.5423 49.0189 34.9252C48.6704 35.3295 48.2679 35.6896 47.8857 36.0657C47.5704 36.3758 47.2561 36.6868 46.9309 36.9866C46.5873 37.3029 46.2249 37.5994 45.8253 37.8467C45.6186 37.9745 45.4595 38.1582 45.2364 38.2724C45.0678 38.3584 44.9375 38.3575 44.8224 38.2408C44.5309 37.9454 44.2181 37.6718 43.9336 37.3676C43.5652 36.9735 43.1468 36.6246 42.7582 36.2479C42.6694 36.1619 42.5921 36.2125 42.543 36.2518C42.1142 36.5969 41.6046 36.8068 41.1237 37.0609C40.7573 37.2548 40.3776 37.4307 39.978 37.562C39.7202 37.6465 39.4852 37.804 39.225 37.8739C38.8779 37.9672 38.5369 38.0766 38.1948 38.183C37.8339 38.2953 37.4596 38.3575 37.1047 38.4994C36.9336 38.5679 36.7299 38.5795 36.543 38.6281C36.4007 38.6651 36.3496 38.7336 36.3526 38.891C36.371 39.757 36.3734 40.6234 36.3799 41.4894C36.3804 41.5861 36.3724 41.6833 36.368 41.78C36.3115 41.8524 36.2782 41.9418 36.1682 41.9685C35.9064 42.0322 35.6477 42.107 35.3879 42.1775C35.1326 42.1547 34.8991 42.2932 34.6443 42.2737C34.6205 42.2689 34.5962 42.2572 34.5729 42.2596C33.4451 42.3573 32.3143 42.2941 31.1849 42.317C31.0318 42.3199 30.8741 42.3379 30.7284 42.2674C30.4939 42.3126 30.2693 42.1828 30.0343 42.2285C29.9312 42.2295 29.8365 42.1819 29.7398 42.1605C29.4756 42.1027 29.1866 42.1279 28.9506 41.9637C28.9318 41.9365 28.9129 41.9093 28.8936 41.882C28.8896 41.7295 28.8842 41.5769 28.8827 41.4238C28.8728 40.5374 28.8644 39.6506 28.852 38.7642C28.851 38.6932 28.8986 38.5718 28.7771 38.5679C28.5416 38.5596 28.3354 38.4396 28.1049 38.4221C27.9894 38.3336 27.8456 38.3419 27.7127 38.3137C27.5858 38.1981 27.4118 38.2054 27.2611 38.1529C26.7525 37.975 26.2399 37.8078 25.7283 37.6368C25.7139 37.5678 25.642 37.6062 25.6073 37.5746C24.8265 37.2607 24.0834 36.8734 23.3497 36.4681C23.3165 36.4418 23.2832 36.4151 23.25 36.3889C23.1538 36.3204 23.0349 36.2688 22.9665 36.1794C22.8549 36.0351 22.79 36.0988 22.6968 36.1891C22.3661 36.5099 22.029 36.8248 21.6964 37.1431C21.266 37.5547 20.8367 37.9672 20.4089 38.3808C20.3023 38.4838 20.2066 38.4974 20.0594 38.4308C19.8195 38.3225 19.6132 38.1645 19.3857 38.0401C19.3688 38.0241 19.352 38.0081 19.3351 37.992C18.8785 37.5503 18.356 37.1844 17.896 36.7412C17.2004 36.0711 16.5297 35.38 15.8817 34.6672C15.5838 34.3396 15.3488 33.965 15.0786 33.617C15.0717 33.5213 15.0652 33.426 15.0583 33.3303C15.1634 33.204 15.269 33.0776 15.3741 32.9513L15.3721 32.9532C15.6368 32.6918 15.9016 32.4298 16.1663 32.1684C16.1807 32.1538 16.1946 32.1397 16.2089 32.1252C16.3254 32.0416 16.4261 31.9424 16.5113 31.8277C16.5262 31.8127 16.5406 31.7981 16.5555 31.783C16.7146 31.6679 16.8747 31.5537 16.9833 31.386C16.9962 31.3748 17.0021 31.3612 17.0011 31.3442C17.1509 31.1975 17.3001 31.0502 17.4498 30.9035C17.5078 30.8466 17.5519 30.7917 17.4468 30.7383C17.4379 30.7101 17.4295 30.6819 17.4205 30.6532C17.254 30.2309 16.9689 29.8728 16.7528 29.4772C16.4325 28.8921 16.1926 28.2711 15.8748 27.686C15.8659 27.6189 15.8609 27.5504 15.8079 27.4984C15.733 27.2297 15.6324 26.9707 15.507 26.7209C15.499 26.5785 15.4465 26.4502 15.3805 26.3258C15.2759 25.8894 15.1708 25.4531 15.0667 25.0162C15.0504 24.9472 14.9973 24.9336 14.9368 24.9302C14.7648 24.9205 14.5928 24.9054 14.4203 24.903C13.4878 24.8908 12.5553 24.8772 11.6228 24.8758C11.4428 24.8753 11.3481 24.8097 11.305 24.6498C11.2415 24.4151 11.1791 24.1804 11.1161 23.9457C10.961 22.8659 11.019 21.7778 10.9922 20.6932C11.0145 20.5484 11.0185 20.4036 11.0006 20.2583C11.0016 20.2131 11.0026 20.1674 11.0036 20.1222C11.0081 20.1178 11.0165 20.1135 11.016 20.1096C11.0145 20.0989 11.01 20.0887 11.0066 20.0785C11.0497 19.9128 11.0457 19.7441 11.0408 19.5755C11.0626 19.5289 11.0665 19.4812 11.0477 19.4331C11.0333 19.0249 11.1384 18.6279 11.1632 18.2231C11.1994 18.2124 11.2103 18.1876 11.2113 18.1517C11.2277 17.6881 11.4537 17.5909 11.8037 17.5914C12.758 17.5923 13.7124 17.5768 14.6662 17.5622C15.0573 17.5564 15.0801 17.554 15.153 17.1851C15.2179 16.8586 15.3895 16.5616 15.4063 16.2254C15.4693 16.1753 15.4926 16.1126 15.4713 16.0349C15.5828 15.7098 15.6938 15.3842 15.8054 15.0591C15.8203 15.0086 15.8356 14.9575 15.8505 14.9065C15.9437 14.7972 15.9963 14.6664 16.0473 14.5362C16.4404 13.5376 16.9045 12.5739 17.5321 11.6939C17.6054 11.5909 17.5891 11.535 17.5058 11.4509C16.7032 10.6442 15.9045 9.83611 15.0682 9.06539ZM21.0742 21.1821C20.9731 28.343 27.2849 32.8308 32.9181 32.771C39.0762 32.7059 44.5498 27.6622 44.5642 21.2506C44.5805 14.0206 38.2741 9.59556 32.6514 9.69712C26.5006 9.80889 21.0415 14.8691 21.0742 21.1821Z" fill="#6C7AAB"/>
<path d="M31.9651 51.9935C21.7219 51.9935 11.4793 51.9935 1.23619 51.9921C1.01211 51.9921 0.76969 52.0334 0.607581 51.8079C0.545613 51.7214 0.499508 51.6441 0.500004 51.5285C0.506449 49.8933 0.51091 48.258 0.503474 46.6228C0.502483 46.3755 0.665583 46.2899 0.839591 46.2161C0.947168 46.1704 1.08052 46.1704 1.20198 46.1704C21.7125 46.1685 42.223 46.1689 62.7336 46.168C63.2551 46.168 63.5045 46.3798 63.5 46.9173C63.4871 48.3747 63.4876 49.8325 63.5 51.2899C63.504 51.7802 63.264 52.0008 62.7678 52.0003C52.5004 51.9916 42.2325 51.9935 31.9651 51.9935ZM31.9928 47.2895C25.1699 47.2895 18.3469 47.2895 11.5239 47.2895C8.31049 47.2895 5.09756 47.2915 1.88413 47.2857C1.6893 47.2852 1.63378 47.3333 1.63576 47.5272C1.64617 48.5151 1.64072 49.5026 1.64072 50.4905C1.64072 50.8724 1.64072 50.8729 2.03087 50.8729C18.6919 50.8729 35.3525 50.8729 52.0135 50.8729C55.3757 50.8729 58.7374 50.871 62.099 50.8778C62.3038 50.8783 62.3593 50.8292 62.3568 50.6261C62.3454 49.6221 62.3519 48.6181 62.3519 47.6142C62.3519 47.29 62.3519 47.2895 62.0266 47.2895C52.0155 47.2895 42.0039 47.2895 31.9928 47.2895Z" fill="#6C7AAB"/>
<path d="M26.3218 16.5204C25.6337 17.4097 25.1072 18.3631 24.8424 19.4555C24.4102 21.2395 24.5832 22.9748 25.3932 24.5954C26.5394 26.8881 28.3558 28.4301 30.9768 28.952C32.4769 29.2508 33.9468 29.2081 35.3885 28.6716C35.4628 28.6439 35.5317 28.6089 35.6239 28.6483C36.1073 28.8553 36.5951 29.0535 37.0894 29.2586C34.6761 30.7811 30.0121 30.9317 26.8601 28.4111C24.8236 26.7827 23.6051 24.6887 23.3998 22.0884C23.1976 19.527 23.9347 17.2464 25.6332 15.2705C25.6252 15.2487 25.6168 15.2268 25.6089 15.2049C25.307 15.2049 25.005 15.2098 24.7036 15.204C24.2555 15.1952 23.9729 14.9202 23.9823 14.5125C23.9898 14.184 24.3492 13.8817 24.7418 13.8929C25.592 13.9162 26.4427 13.9458 27.2924 13.9794C27.6672 13.994 27.9384 14.2943 27.8962 14.6607C27.7906 15.5859 27.6791 16.5102 27.5572 17.4335C27.5041 17.8368 27.2017 18.074 26.8507 18.023C26.408 17.9588 26.176 17.6658 26.2315 17.2416C26.2637 17.0015 26.292 16.761 26.3218 16.5204Z" fill="#6C7AAB"/>
<path d="M39.914 27.0214C40.2992 27.0214 40.6433 27.0214 40.9873 27.0214C41.2976 27.0214 41.5921 27.2231 41.6893 27.502C41.7701 27.7328 41.6333 28.0798 41.3988 28.2504C41.3071 28.3169 41.2059 28.3344 41.0959 28.3349C40.146 28.3412 39.1962 28.3529 38.2468 28.3558C37.7699 28.3573 37.4968 28.0511 37.5399 27.5953C37.6162 26.7891 37.6846 25.9824 37.7585 25.1762C37.7912 24.8196 38.167 24.4765 38.4823 24.51C38.8804 24.5523 39.1273 24.8686 39.0901 25.2861C39.0703 25.5111 39.0519 25.7365 39.0316 25.9756C39.1451 25.9567 39.163 25.8673 39.2046 25.809C40.4807 24.0202 40.9239 22.0258 40.5456 19.8993C40.1331 17.5799 38.8977 15.7556 36.7849 14.568C34.6279 13.355 32.3613 13.0392 29.9773 13.8507C29.8975 13.8779 29.8256 13.911 29.7443 13.8546C29.6977 13.822 29.6421 13.8021 29.5911 13.7754C29.2123 13.5791 28.8341 13.3827 28.4062 13.1611C29.6987 12.5615 30.9955 12.1295 32.395 12.1533C34.729 12.1926 36.8964 12.7734 38.6895 14.3148C42.367 17.4764 43.1929 22.7455 39.914 27.0214Z" fill="#6C7AAB"/>
<path d="M33.0708 21.6202C33.2864 22.13 33.4768 22.6028 33.687 23.0674C33.7851 23.2851 33.7613 23.4576 33.6235 23.653C33.1818 24.2784 32.7584 24.9164 32.3217 25.5453C32.2384 25.6653 32.2151 25.726 32.3698 25.8169C32.6548 25.9836 32.7128 26.2445 32.5507 26.4744C32.4179 26.6629 32.1725 26.6819 31.9132 26.5118C30.5677 25.6298 29.2238 24.7464 27.8803 23.8614C27.6374 23.7016 27.5947 23.5086 27.739 23.2817C27.8744 23.0689 28.0652 23.0125 28.3126 23.1748C28.5213 23.3113 28.6041 23.2521 28.7236 23.0703C29.1345 22.4444 29.5678 21.8321 29.9842 21.2091C30.0953 21.0429 30.2277 20.9671 30.4334 20.9715C30.9207 20.9817 31.408 20.9705 31.8954 20.9773C32.048 20.9793 32.0827 20.9477 32.0178 20.8014C31.8299 20.3786 31.6638 19.9466 31.4715 19.5258C31.3728 19.3095 31.3892 19.1356 31.5285 18.9397C31.9672 18.3216 32.3861 17.6909 32.8219 17.0708C32.9176 16.9352 32.9483 16.8623 32.7758 16.7539C32.4977 16.579 32.4427 16.3389 32.5909 16.1387C32.7446 15.9312 32.9989 15.9089 33.2691 16.0862C34.6006 16.9595 35.9312 17.8337 37.2613 18.7089C37.5226 18.8809 37.5761 19.0773 37.4314 19.3023C37.2846 19.5302 37.0838 19.5788 36.8142 19.4043C36.6387 19.2906 36.5702 19.3241 36.4632 19.4874C36.0428 20.1269 35.6001 20.7523 35.1737 21.388C35.0622 21.5542 34.9273 21.6266 34.7226 21.6232C34.1862 21.6144 33.6503 21.6202 33.0708 21.6202ZM33.745 20.9759C33.745 20.9778 33.745 20.9798 33.745 20.9817C33.9844 20.9817 34.2239 20.9739 34.4623 20.9846C34.6021 20.9909 34.6869 20.9472 34.7647 20.8311C35.1584 20.2431 35.5559 19.658 35.9649 19.0802C36.0656 18.9378 36.02 18.8824 35.896 18.8017C35.1465 18.3158 34.3994 17.8259 33.6572 17.3298C33.5338 17.2472 33.4753 17.2477 33.3895 17.376C32.9924 17.9712 32.5864 18.5607 32.1779 19.1487C32.1095 19.2473 32.1041 19.328 32.1526 19.4378C32.3321 19.8456 32.5165 20.2528 32.6662 20.6717C32.755 20.92 32.8903 21.0104 33.1521 20.9807C33.3469 20.9579 33.5467 20.9759 33.745 20.9759ZM31.4348 21.611C31.179 21.611 30.9237 21.6164 30.6684 21.6086C30.5489 21.6052 30.4735 21.6397 30.4051 21.7408C30.0016 22.3409 29.5926 22.9381 29.1801 23.5325C29.1122 23.6306 29.0988 23.6846 29.2158 23.7604C29.9862 24.2589 30.7527 24.7624 31.5161 25.2712C31.6351 25.3504 31.6901 25.3314 31.765 25.2197C32.1685 24.6195 32.5775 24.0228 32.9895 23.428C33.0519 23.3376 33.0628 23.2642 33.0177 23.1617C32.8169 22.7015 32.6196 22.2398 32.4327 21.7738C32.3812 21.6455 32.3113 21.6032 32.1764 21.6086C31.9301 21.6178 31.6822 21.611 31.4348 21.611Z" fill="#6C7AAB"/>
<path d="M3.9347 47.8735C4.2733 47.8739 4.61189 47.8778 4.95049 47.8715C5.09079 47.8691 5.11904 47.9026 5.07145 48.0382C4.8206 48.7574 4.5757 49.479 4.33824 50.2026C4.29908 50.3222 4.23413 50.3435 4.12309 50.3426C3.71013 50.3382 3.29717 50.344 2.88422 50.3396C2.57239 50.3367 2.40086 50.1851 2.39541 49.8809C2.38649 49.3551 2.39095 48.8283 2.40136 48.3025C2.40681 48.028 2.58231 47.8803 2.89413 47.8739C3.24115 47.8681 3.58768 47.873 3.9347 47.8735Z" fill="#6C7AAB"/>
<path d="M6.06976 50.3422C5.79759 50.3422 5.52543 50.3373 5.25326 50.3446C5.12189 50.348 5.10355 50.3096 5.1442 50.192C5.39554 49.4655 5.64292 48.7376 5.88584 48.0082C5.92054 47.9042 5.97507 47.8726 6.08166 47.8736C6.62599 47.8779 7.17032 47.8789 7.71415 47.8731C7.85891 47.8716 7.87725 47.911 7.83214 48.0403C7.58179 48.7585 7.33689 49.4787 7.09843 50.2008C7.05977 50.3179 6.99978 50.3471 6.88526 50.3441C6.61409 50.3378 6.34192 50.3422 6.06976 50.3422Z" fill="#6C7AAB"/>
<path d="M14.3826 50.3422C14.1104 50.3422 13.8378 50.3393 13.5656 50.3432C13.4551 50.3446 13.3906 50.3325 13.4372 50.1974C13.6905 49.4621 13.9399 48.7259 14.1878 47.9887C14.22 47.893 14.2805 47.8731 14.3737 47.8736C14.9185 47.877 15.4633 47.8784 16.0077 47.8731C16.1534 47.8716 16.1717 47.9144 16.1266 48.0437C15.8797 48.7556 15.6383 49.4689 15.4018 50.1838C15.3627 50.3023 15.3052 50.3495 15.1748 50.3446C14.9111 50.3354 14.6468 50.3427 14.3826 50.3422Z" fill="#6C7AAB"/>
<path d="M28.1984 50.3427C27.9258 50.3427 27.6531 50.3374 27.381 50.3451C27.2451 50.349 27.2298 50.2999 27.2684 50.1877C27.5188 49.4597 27.7676 48.7313 28.012 48.0014C28.0477 47.8955 28.1112 47.8736 28.2143 47.8741C28.7512 47.878 29.2876 47.8799 29.8245 47.8731C29.9826 47.8712 30.002 47.9159 29.9534 48.0563C29.7055 48.7677 29.4651 49.4821 29.2266 50.1969C29.1904 50.3063 29.1364 50.3495 29.0159 50.3456C28.7438 50.3364 28.4711 50.3427 28.1984 50.3427Z" fill="#6C7AAB"/>
<path d="M33.7351 50.3427C33.463 50.3427 33.1908 50.3383 32.9191 50.3446C32.7922 50.3475 32.7654 50.3155 32.8076 50.1935C33.0594 49.4675 33.3068 48.7395 33.5492 48.0106C33.5839 47.9071 33.6365 47.8731 33.744 47.8741C34.2884 47.878 34.8322 47.8784 35.3765 47.8731C35.5158 47.8716 35.5441 47.9032 35.497 48.0378C35.2462 48.7561 35.0013 49.4762 34.7628 50.1984C34.7246 50.3135 34.6681 50.348 34.5516 50.3451C34.2794 50.3378 34.0073 50.3427 33.7351 50.3427Z" fill="#6C7AAB"/>
<path d="M19.8987 50.3412C19.6265 50.3412 19.3544 50.3364 19.0822 50.3432C18.9518 50.3466 18.931 50.3101 18.9721 50.1911C19.224 49.4646 19.4719 48.7366 19.7148 48.0072C19.7495 47.9027 19.8045 47.8716 19.9111 47.8726C20.4554 47.8765 20.9997 47.878 21.5441 47.8712C21.6908 47.8692 21.7057 47.9105 21.6611 48.0378C21.4112 48.7561 21.1648 49.4763 20.9269 50.1984C20.8882 50.3155 20.8292 50.3456 20.7152 50.3432C20.4435 50.3374 20.1709 50.3412 19.8987 50.3412Z" fill="#6C7AAB"/>
<path d="M22.6661 50.3422C22.3934 50.3422 22.1212 50.3378 21.8491 50.3436C21.7222 50.3465 21.6944 50.3164 21.738 50.1915C21.9913 49.465 22.2382 48.7356 22.4826 48.0062C22.5129 47.9158 22.5545 47.8735 22.6556 47.874C23.2089 47.8769 23.7617 47.8779 24.3149 47.8731C24.4483 47.8721 24.4676 47.9197 24.4289 48.032C24.1791 48.7599 23.9302 49.4879 23.6868 50.2178C23.6506 50.3261 23.5857 50.3451 23.484 50.3436C23.2109 50.3388 22.9382 50.3422 22.6661 50.3422Z" fill="#6C7AAB"/>
<path d="M17.9795 47.8752C18.2517 47.8747 18.5233 47.8771 18.7955 47.8737C18.9051 47.8722 18.9447 47.897 18.9046 48.0132C18.6507 48.7469 18.3989 49.4817 18.1545 50.2189C18.1173 50.3316 18.0509 50.3428 17.9532 50.3423C17.4094 50.3399 16.8651 50.3384 16.3212 50.3433C16.1978 50.3443 16.1621 50.3195 16.2047 50.1951C16.4556 49.4686 16.7039 48.7416 16.9454 48.0122C16.9845 47.8941 17.0515 47.8708 17.1635 47.8732C17.4352 47.8795 17.7073 47.8756 17.9795 47.8752Z" fill="#6C7AAB"/>
<path d="M11.5916 50.3427C11.3273 50.3427 11.0631 50.3408 10.7994 50.3437C10.6933 50.3451 10.6229 50.3412 10.6725 50.1998C10.9278 49.4651 11.1781 48.7289 11.425 47.9912C11.4577 47.893 11.5157 47.8736 11.6079 47.8741C12.1528 47.8765 12.6976 47.8794 13.2424 47.8731C13.3921 47.8712 13.4065 47.9222 13.3644 48.0451C13.116 48.7648 12.8711 49.486 12.6292 50.2076C12.5955 50.3082 12.5439 50.3471 12.4343 50.3446C12.1528 50.3383 11.8722 50.3427 11.5916 50.3427Z" fill="#6C7AAB"/>
<path d="M35.5234 50.3419C35.755 49.6572 35.977 48.9987 36.2006 48.3407C36.3593 47.8742 36.3608 47.8747 36.8699 47.8747C37.2828 47.8747 37.6958 47.8796 38.1083 47.8713C38.2699 47.8679 38.3085 47.9063 38.253 48.0637C38.0056 48.7669 37.7682 49.4735 37.5287 50.1796C37.4995 50.2661 37.4826 50.3453 37.3567 50.3443C36.7559 50.3394 36.1545 50.3419 35.5234 50.3419Z" fill="#6C7AAB"/>
<path d="M31.7955 47.8754C32.0597 47.8749 32.3239 47.8793 32.5882 47.8734C32.7255 47.87 32.7825 47.8865 32.726 48.0464C32.4756 48.7574 32.2347 49.4717 31.9982 50.1875C31.9581 50.309 31.8981 50.3469 31.7702 50.3455C31.2417 50.3386 30.7128 50.3357 30.1843 50.3469C29.9994 50.3508 30.0038 50.2842 30.0509 50.1486C30.2953 49.444 30.5378 48.7389 30.7717 48.0314C30.8129 47.9065 30.8759 47.8695 31.0023 47.8734C31.2665 47.8812 31.5312 47.8754 31.7955 47.8754Z" fill="#6C7AAB"/>
<path d="M8.83852 50.3417C8.56586 50.3417 8.29369 50.3378 8.02103 50.3436C7.89461 50.3465 7.86636 50.3159 7.90949 50.1915C8.16232 49.4645 8.4087 48.7351 8.6536 48.0052C8.68384 47.9153 8.72549 47.8726 8.82662 47.8731C9.37987 47.8765 9.93313 47.877 10.4864 47.8731C10.6163 47.8721 10.6406 47.9139 10.6004 48.031C10.35 48.7589 10.1017 49.4874 9.85827 50.2178C9.82208 50.3266 9.75713 50.3451 9.65551 50.3436C9.38334 50.3383 9.11068 50.3412 8.83852 50.3417Z" fill="#6C7AAB"/>
<path d="M25.428 50.3427C25.1638 50.3427 24.8995 50.3383 24.6358 50.3441C24.5109 50.3466 24.4514 50.3325 24.5029 50.1848C24.7538 49.4655 24.9977 48.7444 25.2386 48.0223C25.2753 47.9125 25.3308 47.8716 25.4503 47.8731C25.9867 47.8789 26.5231 47.8799 27.0595 47.8731C27.2261 47.8712 27.2291 47.9295 27.1839 48.0607C26.9376 48.7726 26.6956 49.4855 26.4582 50.2003C26.4205 50.3135 26.362 50.3485 26.245 50.3451C25.9728 50.3378 25.7002 50.3427 25.428 50.3427Z" fill="#6C7AAB"/>
<path d="M38.2891 50.3423C38.4175 49.9637 38.5364 49.6129 38.6554 49.2615C38.7908 48.8626 38.9306 48.4651 39.059 48.0641C39.1011 47.9325 39.1556 47.8678 39.3138 47.8712C39.8333 47.8824 40.3538 47.88 40.8734 47.8727C41.0355 47.8703 41.0727 47.9067 41.0172 48.0651C40.7703 48.7683 40.5343 49.4749 40.2953 50.1805C40.2666 50.265 40.2512 50.3457 40.1238 50.3442C39.5225 50.3389 38.9216 50.3423 38.2891 50.3423Z" fill="#6C7AAB"/>
<path d="M35.7819 18.9905C35.7928 19.0799 35.7254 19.1265 35.6857 19.1839C35.3496 19.6727 35.0081 20.1582 34.6749 20.649C34.5996 20.7603 34.5217 20.8147 34.3775 20.8113C33.9739 20.8006 33.5699 20.8026 33.1659 20.8108C33.0236 20.8138 32.9448 20.7749 32.8882 20.6383C32.7281 20.2491 32.5526 19.8662 32.3796 19.4818C32.333 19.3783 32.3052 19.3088 32.4703 19.2932C33.553 19.1907 34.6348 19.0809 35.717 18.9749C35.7383 18.9725 35.7606 18.9846 35.7819 18.9905Z" fill="#6C7AAB"/>
<path d="M29.3203 23.6625C29.886 23.3344 30.41 23.0302 30.9335 22.726C31.3593 22.4792 31.7867 22.2343 32.21 21.983C32.3156 21.9203 32.3701 21.9126 32.4222 22.0457C32.5729 22.4306 32.737 22.8101 32.8996 23.1901C32.9383 23.281 32.9323 23.351 32.8723 23.435C32.4861 23.9793 32.1049 24.5275 31.7242 25.0756C31.6702 25.1534 31.6295 25.1903 31.5303 25.1242C30.8095 24.6421 30.0838 24.1659 29.3203 23.6625Z" fill="#6C7AAB"/>
</g>
<defs>
<clipPath id="clip0_4168_9662">
<rect width="63" height="52" fill="white" transform="translate(0.5)"/>
</clipPath>
</defs>
</svg>
