<svg xmlns="http://www.w3.org/2000/svg" width="160" height="158" viewBox="0 0 160 158" fill="none"> 
  <path d="M112.664 30.5312H32.5005C27.5038 30.5312 23.4531 34.5819 23.4531 39.5786H121.712C121.712 34.5819 117.661 30.5312 112.664 30.5312Z" fill="url(#paint0_linear_2127_19441)"/>
  <path d="M23.4531 39.3359H121.712V114.171C121.712 117.499 120.39 120.69 118.037 123.042C115.685 125.395 112.494 126.717 109.166 126.717H35.9985C32.6712 126.717 29.4803 125.395 27.1276 123.042C24.7749 120.69 23.4531 117.499 23.4531 114.171V39.3359Z" fill="url(#paint1_linear_2127_19441)"/>
  <path d="M104.822 48.7891H40.3755C39.0333 48.7891 37.9453 49.8759 37.9453 51.2166C37.9453 52.5573 39.0333 53.6441 40.3755 53.6441H104.822C106.164 53.6441 107.252 52.5573 107.252 51.2166C107.252 49.8759 106.164 48.7891 104.822 48.7891Z" fill="url(#paint2_linear_2127_19441)"/>
  <path d="M104.822 69.4141H40.3755C39.0333 69.4141 37.9453 70.5009 37.9453 71.8416C37.9453 73.1823 39.0333 74.2691 40.3755 74.2691H104.822C106.164 74.2691 107.252 73.1823 107.252 71.8416C107.252 70.5009 106.164 69.4141 104.822 69.4141Z" fill="url(#paint3_linear_2127_19441)"/>
  <path d="M104.822 90.043H40.3755C39.0333 90.043 37.9453 91.1298 37.9453 92.4705C37.9453 93.8112 39.0333 94.898 40.3755 94.898H104.822C106.164 94.898 107.252 93.8112 107.252 92.4705C107.252 91.1298 106.164 90.043 104.822 90.043Z" fill="url(#paint4_linear_2127_19441)"/>
  <path d="M104.822 110.668H40.3755C39.0333 110.668 37.9453 111.755 37.9453 113.096C37.9453 114.436 39.0333 115.523 40.3755 115.523H104.822C106.164 115.523 107.252 114.436 107.252 113.096C107.252 111.755 106.164 110.668 104.822 110.668Z" fill="url(#paint5_linear_2127_19441)"/>
  <path d="M39.9415 85.6172H5.62464C2.86773 85.6172 0.632812 87.8521 0.632812 90.609V139.659C0.632812 142.416 2.86773 144.651 5.62464 144.651H39.9415C42.6984 144.651 44.9333 142.416 44.9333 139.659V90.609C44.9333 87.8521 42.6984 85.6172 39.9415 85.6172Z" fill="url(#paint6_linear_2127_19441)"/>
  <g filter="url(#filter0_d_2127_19441)">
    <path d="M137.626 9H99.7216C97.9553 9 96.5234 10.4319 96.5234 12.1981V30.0141C96.5234 31.7804 97.9553 33.2122 99.7216 33.2122H137.626C139.392 33.2122 140.824 31.7804 140.824 30.0141V12.1981C140.824 10.4319 139.392 9 137.626 9Z" fill="url(#paint7_linear_2127_19441)"/>
  </g>
  <path d="M36.1117 110.156H9.45349C8.55583 110.156 7.82812 110.884 7.82812 111.782V111.787C7.82812 112.685 8.55583 113.412 9.45349 113.412H36.1117C37.0093 113.412 37.737 112.685 37.737 111.787V111.782C37.737 110.884 37.0093 110.156 36.1117 110.156Z" fill="url(#paint8_linear_2127_19441)"/>
  <path d="M36.1264 133.066H9.69734C8.80739 133.066 8.08594 133.771 8.08594 134.641V134.646C8.08594 135.516 8.80739 136.221 9.69734 136.221H36.1264C37.0164 136.221 37.7378 135.516 37.7378 134.646V134.641C37.7378 133.771 37.0164 133.066 36.1264 133.066Z" fill="url(#paint9_linear_2127_19441)"/>
  <path d="M36.1264 121.078H9.69734C8.80739 121.078 8.08594 121.783 8.08594 122.653V122.658C8.08594 123.528 8.80739 124.233 9.69734 124.233H36.1264C37.0164 124.233 37.7378 123.528 37.7378 122.658V122.653C37.7378 121.783 37.0164 121.078 36.1264 121.078Z" fill="url(#paint10_linear_2127_19441)"/>
  <path d="M19.196 93.1914H11.4057C9.68014 93.1914 8.28125 94.5903 8.28125 96.3159V98.4778C8.28125 100.203 9.68014 101.602 11.4057 101.602H19.196C20.9216 101.602 22.3204 100.203 22.3204 98.4778V96.3159C22.3204 94.5903 20.9216 93.1914 19.196 93.1914Z" fill="url(#paint11_linear_2127_19441)"/>
  <path d="M105.88 24.7794C107.911 24.7794 109.557 23.1332 109.557 21.1026C109.557 19.0719 107.911 17.4258 105.88 17.4258C103.849 17.4258 102.203 19.0719 102.203 21.1026C102.203 23.1332 103.849 24.7794 105.88 24.7794Z" fill="#8598DC"/>
  <path d="M119.021 24.7794C121.051 24.7794 122.697 23.1332 122.697 21.1026C122.697 19.0719 121.051 17.4258 119.021 17.4258C116.99 17.4258 115.344 19.0719 115.344 21.1026C115.344 23.1332 116.99 24.7794 119.021 24.7794Z" fill="#8598DC"/>
  <path d="M132.161 24.7794C134.192 24.7794 135.838 23.1332 135.838 21.1026C135.838 19.0719 134.192 17.4258 132.161 17.4258C130.131 17.4258 128.484 19.0719 128.484 21.1026C128.484 23.1332 130.131 24.7794 132.161 24.7794Z" fill="#8598DC"/>
  <g filter="url(#filter1_f_2127_19441)">
    <ellipse cx="94.2304" cy="113.669" rx="23.1444" ry="3.41906" fill="#4098D8" fill-opacity="0.56"/>
  </g>
  <path d="M66.7285 139.504C67.2461 137.36 70.2957 137.36 70.8133 139.504L71.0471 140.473C71.2321 141.239 71.8303 141.837 72.5965 142.022L73.5654 142.256C75.7094 142.773 75.7094 145.823 73.5654 146.341L72.5965 146.574C71.8303 146.759 71.2321 147.358 71.0471 148.124L70.8133 149.093C70.2957 151.237 67.2461 151.237 66.7285 149.093L66.4946 148.124C66.3097 147.358 65.7114 146.759 64.9453 146.574L63.9764 146.341C61.8323 145.823 61.8323 142.773 63.9764 142.256L64.9453 142.022C65.7114 141.837 66.3097 141.239 66.4946 140.473L66.7285 139.504Z" fill="url(#paint12_linear_2127_19441)"/>
  <path d="M14.3691 18.3709C14.8867 16.2269 17.9363 16.2269 18.4539 18.3709L18.6878 19.3398C18.8727 20.106 19.4709 20.7042 20.2371 20.8892L21.206 21.123C23.3501 21.6406 23.3501 24.6902 21.206 25.2078L20.2371 25.4417C19.4709 25.6266 18.8727 26.2248 18.6878 26.991L18.4539 27.9599C17.9363 30.104 14.8867 30.104 14.3691 27.9599L14.1352 26.991C13.9503 26.2248 13.3521 25.6266 12.5859 25.4417L11.617 25.2078C9.47296 24.6902 9.47296 21.6406 11.617 21.123L12.5859 20.8892C13.3521 20.7042 13.9503 20.106 14.1352 19.3398L14.3691 18.3709Z" fill="url(#paint13_linear_2127_19441)"/>
  <path fill-rule="evenodd" clip-rule="evenodd" d="M70.7411 15.9855C71.9612 15.9855 72.9503 14.9964 72.9503 13.7763C72.9503 12.5562 71.9612 11.5671 70.7411 11.5671C69.521 11.5671 68.5319 12.5562 68.5319 13.7763C68.5319 14.9964 69.521 15.9855 70.7411 15.9855ZM70.7411 17.6424C72.8763 17.6424 74.6072 15.9115 74.6072 13.7763C74.6072 11.6411 72.8763 9.91016 70.7411 9.91016C68.6059 9.91016 66.875 11.6411 66.875 13.7763C66.875 15.9115 68.6059 17.6424 70.7411 17.6424Z" fill="url(#paint14_linear_2127_19441)"/>
  <path d="M139.71 77.9013C139.377 76.5952 140.582 75.4185 141.88 75.7831L145.25 76.7303C146.548 77.0949 146.964 78.7274 146 79.6688L143.494 82.1141C142.529 83.0555 140.908 82.5997 140.575 81.2937L139.71 77.9013Z" fill="url(#paint15_linear_2127_19441)"/>
  <path d="M8.82703 67.6092C10.1335 67.2779 11.3087 68.4851 10.9424 69.7822L9.99087 73.1514C9.62456 74.4485 7.99148 74.8626 7.05133 73.8968L4.60926 71.3882C3.66911 70.4224 4.127 68.8011 5.43347 68.4698L8.82703 67.6092Z" fill="url(#paint16_linear_2127_19441)"/>
  <path d="M114.186 143.945C115.493 143.614 116.668 144.821 116.302 146.118L115.35 149.487C114.984 150.784 113.351 151.199 112.411 150.233L109.969 147.724C109.028 146.758 109.486 145.137 110.793 144.806L114.186 143.945Z" fill="url(#paint17_linear_2127_19441)"/>
  <path fill-rule="evenodd" clip-rule="evenodd" d="M144.554 48.1613C145.774 48.1613 146.763 47.1722 146.763 45.9521C146.763 44.7319 145.774 43.7428 144.554 43.7428C143.334 43.7428 142.344 44.7319 142.344 45.9521C142.344 47.1722 143.334 48.1613 144.554 48.1613ZM144.554 49.8182C146.689 49.8182 148.42 48.0873 148.42 45.9521C148.42 43.8169 146.689 42.0859 144.554 42.0859C142.418 42.0859 140.688 43.8169 140.688 45.9521C140.688 48.0873 142.418 49.8182 144.554 49.8182Z" fill="url(#paint18_linear_2127_19441)"/>
  <defs>
    <filter id="filter0_d_2127_19441" x="89.5234" y="0" width="70.2969" height="50.2109" filterUnits="userSpaceOnUse" color-interpolation-filters="sRGB">
      <feFlood flood-opacity="0" result="BackgroundImageFix"/>
      <feColorMatrix in="SourceAlpha" type="matrix" values="0 0 0 0 0 0 0 0 0 0 0 0 0 0 0 0 0 0 127 0" result="hardAlpha"/>
      <feOffset dx="6" dy="4"/>
      <feGaussianBlur stdDeviation="6.5"/>
      <feComposite in2="hardAlpha" operator="out"/>
      <feColorMatrix type="matrix" values="0 0 0 0 0.104618 0 0 0 0 0.465612 0 0 0 0 0.545833 0 0 0 0.09 0"/>
      <feBlend mode="normal" in2="BackgroundImageFix" result="effect1_dropShadow_2127_19441"/>
      <feBlend mode="normal" in="SourceGraphic" in2="effect1_dropShadow_2127_19441" result="shape"/>
    </filter>
    <filter id="filter1_f_2127_19441" x="50.242" y="89.4061" width="87.9769" height="48.5277" filterUnits="userSpaceOnUse" color-interpolation-filters="sRGB">
      <feFlood flood-opacity="0" result="BackgroundImageFix"/>
      <feBlend mode="normal" in="SourceGraphic" in2="BackgroundImageFix" result="shape"/>
      <feGaussianBlur stdDeviation="10.422" result="effect1_foregroundBlur_2127_19441"/>
    </filter>
    <linearGradient id="paint0_linear_2127_19441" x1="23.3418" y1="32.6193" x2="121.761" y2="39.5591" gradientUnits="userSpaceOnUse">
      <stop stop-color="#C8D4FE"/>
      <stop offset="1" stop-color="#6C7AAB"/>
    </linearGradient>
    <linearGradient id="paint1_linear_2127_19441" x1="20.5028" y1="104.861" x2="162.453" y2="107.384" gradientUnits="userSpaceOnUse">
      <stop stop-color="white"/>
      <stop offset="1" stop-color="#C8D4FE"/>
    </linearGradient>
    <linearGradient id="paint2_linear_2127_19441" x1="35.014" y1="53.4439" x2="111.352" y2="53.4439" gradientUnits="userSpaceOnUse">
      <stop stop-color="#6C7AAB"/>
      <stop offset="1" stop-color="#C8D4FE"/>
    </linearGradient>
    <linearGradient id="paint3_linear_2127_19441" x1="35.014" y1="74.0689" x2="111.352" y2="74.0689" gradientUnits="userSpaceOnUse">
      <stop stop-color="#6C7AAB"/>
      <stop offset="1" stop-color="#C8D4FE"/>
    </linearGradient>
    <linearGradient id="paint4_linear_2127_19441" x1="35.014" y1="94.6978" x2="111.352" y2="94.6978" gradientUnits="userSpaceOnUse">
      <stop stop-color="#6C7AAB"/>
      <stop offset="1" stop-color="#C8D4FE"/>
    </linearGradient>
    <linearGradient id="paint5_linear_2127_19441" x1="35.014" y1="115.323" x2="111.352" y2="115.323" gradientUnits="userSpaceOnUse">
      <stop stop-color="#6C7AAB"/>
      <stop offset="1" stop-color="#C8D4FE"/>
    </linearGradient>
    <linearGradient id="paint6_linear_2127_19441" x1="-0.697343" y1="129.886" x2="84.2121" y2="136.859" gradientUnits="userSpaceOnUse">
      <stop stop-color="white"/>
      <stop offset="1" stop-color="#C8D4FE"/>
    </linearGradient>
    <linearGradient id="paint7_linear_2127_19441" x1="95.1933" y1="27.1562" x2="159.159" y2="29.0065" gradientUnits="userSpaceOnUse">
      <stop stop-color="white"/>
      <stop offset="1" stop-color="#C8D4FE"/>
    </linearGradient>
    <linearGradient id="paint8_linear_2127_19441" x1="41.208" y1="113.509" x2="5.24727" y2="113.509" gradientUnits="userSpaceOnUse">
      <stop stop-color="#C8D4FE"/>
      <stop offset="1" stop-color="#6C7AAB"/>
    </linearGradient>
    <linearGradient id="paint9_linear_2127_19441" x1="41.179" y1="136.315" x2="5.52726" y2="136.315" gradientUnits="userSpaceOnUse">
      <stop stop-color="#C8D4FE"/>
      <stop offset="1" stop-color="#6C7AAB"/>
    </linearGradient>
    <linearGradient id="paint10_linear_2127_19441" x1="41.179" y1="124.327" x2="5.52726" y2="124.327" gradientUnits="userSpaceOnUse">
      <stop stop-color="#C8D4FE"/>
      <stop offset="1" stop-color="#6C7AAB"/>
    </linearGradient>
    <linearGradient id="paint11_linear_2127_19441" x1="32.0555" y1="101.521" x2="6.50446" y2="101.521" gradientUnits="userSpaceOnUse">
      <stop offset="0.243799" stop-color="#C8D4FE"/>
      <stop offset="1" stop-color="#6C7AAB"/>
    </linearGradient>
    <linearGradient id="paint12_linear_2127_19441" x1="55.4856" y1="137.161" x2="82.1703" y2="137.334" gradientUnits="userSpaceOnUse">
      <stop stop-color="#C8D4FE"/>
      <stop offset="1" stop-color="#6C7AAB"/>
    </linearGradient>
    <linearGradient id="paint13_linear_2127_19441" x1="3.12623" y1="16.0284" x2="29.8109" y2="16.2017" gradientUnits="userSpaceOnUse">
      <stop stop-color="#C8D4FE"/>
      <stop offset="1" stop-color="#6C7AAB"/>
    </linearGradient>
    <linearGradient id="paint14_linear_2127_19441" x1="66.8662" y1="11.6946" x2="74.6493" y2="11.7452" gradientUnits="userSpaceOnUse">
      <stop stop-color="#C8D4FE"/>
      <stop offset="1" stop-color="#6C7AAB"/>
    </linearGradient>
    <linearGradient id="paint15_linear_2127_19441" x1="136.779" y1="80.6534" x2="144.787" y2="72.9391" gradientUnits="userSpaceOnUse">
      <stop stop-color="#C8D4FE"/>
      <stop offset="1" stop-color="#6C7AAB"/>
    </linearGradient>
    <linearGradient id="paint16_linear_2127_19441" x1="6.07866" y1="64.6755" x2="13.7826" y2="72.6929" gradientUnits="userSpaceOnUse">
      <stop stop-color="#C8D4FE"/>
      <stop offset="1" stop-color="#6C7AAB"/>
    </linearGradient>
    <linearGradient id="paint17_linear_2127_19441" x1="111.438" y1="141.011" x2="119.142" y2="149.029" gradientUnits="userSpaceOnUse">
      <stop stop-color="#C8D4FE"/>
      <stop offset="1" stop-color="#6C7AAB"/>
    </linearGradient>
    <linearGradient id="paint18_linear_2127_19441" x1="140.679" y1="43.8704" x2="148.462" y2="43.921" gradientUnits="userSpaceOnUse">
      <stop stop-color="#C8D4FE"/>
      <stop offset="1" stop-color="#6C7AAB"/>
    </linearGradient>
  </defs>
</svg>
