<svg width="88" height="81" viewBox="0 0 88 81" fill="none" xmlns="http://www.w3.org/2000/svg">
<path d="M7.96875 69.9875C12.225 69.9875 15.6937 66.5188 15.6937 62.2625V18.5125C15.5815 16.5413 14.7194 14.6878 13.2842 13.3319C11.8489 11.9761 9.94938 11.2207 7.975 11.2207C6.00062 11.2207 4.10105 11.9761 2.66583 13.3319C1.2306 14.6878 0.368478 16.5413 0.25625 18.5125L0.25 62.2625C0.25 66.5188 3.7125 69.9875 7.96875 69.9875ZM5.39375 18.5125C5.39375 17.8296 5.66504 17.1746 6.14795 16.6917C6.63086 16.2088 7.28582 15.9375 7.96875 15.9375C8.65168 15.9375 9.30664 16.2088 9.78955 16.6917C10.2725 17.1746 10.5438 17.8296 10.5438 18.5125V62.2625C10.5438 62.9454 10.2725 63.6004 9.78955 64.0833C9.30664 64.5662 8.65168 64.8375 7.96875 64.8375C7.28582 64.8375 6.63086 64.5662 6.14795 64.0833C5.66504 63.6004 5.39375 62.9454 5.39375 62.2625V18.5125ZM31.1313 69.9875C35.3875 69.9875 38.85 66.5188 38.85 62.2625V39.1C38.85 34.85 35.3875 31.3813 31.1313 31.3813C26.875 31.3813 23.4125 34.8437 23.4125 39.1V62.2625C23.4125 66.5188 26.875 69.9875 31.1313 69.9875ZM28.5625 39.1C28.5625 38.4171 28.8338 37.7621 29.3167 37.2792C29.7996 36.7963 30.4546 36.525 31.1375 36.525C31.8204 36.525 32.4754 36.7963 32.9583 37.2792C33.4412 37.7621 33.7125 38.4171 33.7125 39.1V62.2625C33.7125 62.9454 33.4412 63.6004 32.9583 64.0833C32.4754 64.5662 31.8204 64.8375 31.1375 64.8375C30.4546 64.8375 29.7996 64.5662 29.3167 64.0833C28.8338 63.6004 28.5625 62.9454 28.5625 62.2625V39.1ZM77.4625 69.9875C81.7188 69.9875 85.1813 66.5188 85.1813 62.2625V46.825C85.1813 42.5687 81.7188 39.1 77.4625 39.1C73.2063 39.1 69.7438 42.5687 69.7438 46.825V62.2625C69.7438 66.5188 73.2063 69.9875 77.4625 69.9875ZM74.8875 46.825C74.8875 46.1421 75.1588 45.4871 75.6417 45.0042C76.1246 44.5213 76.7796 44.25 77.4625 44.25C78.1454 44.25 78.8004 44.5213 79.2833 45.0042C79.7662 45.4871 80.0375 46.1421 80.0375 46.825V62.2625C80.0375 62.9454 79.7662 63.6004 79.2833 64.0833C78.8004 64.5662 78.1454 64.8375 77.4625 64.8375C76.7796 64.8375 76.1246 64.5662 75.6417 64.0833C75.1588 63.6004 74.8875 62.9454 74.8875 62.2625V46.825ZM54.3 69.9875C58.5562 69.9875 62.0188 66.5188 62.0188 62.2625V8.21875C62.0188 3.96875 58.5562 0.5 54.3 0.5C50.0437 0.5 46.5812 3.9625 46.5812 8.21875V62.2625C46.5812 66.5188 50.0437 69.9875 54.3 69.9875ZM51.725 8.21875C51.725 7.53582 51.9963 6.88086 52.4792 6.39795C52.9621 5.91504 53.6171 5.64375 54.3 5.64375C54.9829 5.64375 55.6379 5.91504 56.1208 6.39795C56.6037 6.88086 56.875 7.53582 56.875 8.21875V62.2625C56.875 62.9454 56.6037 63.6004 56.1208 64.0833C55.6379 64.5662 54.9829 64.8375 54.3 64.8375C53.6171 64.8375 52.9621 64.5662 52.4792 64.0833C51.9963 63.6004 51.725 62.9454 51.725 62.2625V8.21875ZM0.25 75.1312H87.75V80.2812H0.25V75.1312Z" fill="#6C7AAB"/>
</svg>
