<svg xmlns="http://www.w3.org/2000/svg" width="107" height="105" viewBox="0 0 107 105" fill="none"> 
  <path d="M70.3082 22.8281H20.2822C17.164 22.8281 14.6362 25.4302 14.6362 28.6401H75.9542C75.9542 25.4302 73.4264 22.8281 70.3082 22.8281Z" fill="url(#paint0_linear_21556_4019)"/>
  <path d="M14.6362 28.4844H75.9542V76.5579C75.9542 78.6953 75.1294 80.7451 73.6612 82.2565C72.193 83.7679 70.2017 84.6169 68.1253 84.6169H22.4651C20.3888 84.6169 18.3975 83.7679 16.9293 82.2565C15.4611 80.7451 14.6362 78.6953 14.6362 76.5579V28.4844Z" fill="url(#paint1_linear_21556_4019)"/>
  <path d="M65.415 34.5547H25.1972C24.3596 34.5547 23.6807 35.2529 23.6807 36.1141C23.6807 36.9754 24.3596 37.6735 25.1972 37.6735H65.415C66.2525 37.6735 66.9315 36.9754 66.9315 36.1141C66.9315 35.2529 66.2525 34.5547 65.415 34.5547Z" fill="url(#paint2_linear_21556_4019)"/>
  <path d="M65.415 47.8047H25.1972C24.3596 47.8047 23.6807 48.5029 23.6807 49.3641C23.6807 50.2254 24.3596 50.9235 25.1972 50.9235H65.415C66.2525 50.9235 66.9315 50.2254 66.9315 49.3641C66.9315 48.5029 66.2525 47.8047 65.415 47.8047Z" fill="url(#paint3_linear_21556_4019)"/>
  <path d="M65.415 61.0625H25.1972C24.3596 61.0625 23.6807 61.7607 23.6807 62.6219C23.6807 63.4832 24.3596 64.1814 25.1972 64.1814H65.415C66.2525 64.1814 66.9315 63.4832 66.9315 62.6219C66.9315 61.7607 66.2525 61.0625 65.415 61.0625Z" fill="url(#paint4_linear_21556_4019)"/>
  <path d="M65.415 74.3125H25.1972C24.3596 74.3125 23.6807 75.0107 23.6807 75.8719C23.6807 76.7332 24.3596 77.4314 25.1972 77.4314H65.415C66.2525 77.4314 66.9315 76.7332 66.9315 75.8719C66.9315 75.0107 66.2525 74.3125 65.415 74.3125Z" fill="url(#paint5_linear_21556_4019)"/>
  <path d="M24.924 58.2188H3.50869C1.78825 58.2188 0.393555 59.6544 0.393555 61.4255V92.935C0.393555 94.706 1.78825 96.1417 3.50869 96.1417H24.924C26.6445 96.1417 28.0392 94.706 28.0392 92.935V61.4255C28.0392 59.6544 26.6445 58.2188 24.924 58.2188Z" fill="url(#paint6_linear_21556_4019)"/>
  <g filter="url(#filter0_d_21556_4019)">
    <path d="M85.8867 9H62.2326C61.1304 9 60.2368 9.91981 60.2368 11.0545V22.4992C60.2368 23.6339 61.1304 24.5537 62.2326 24.5537H85.8867C86.9889 24.5537 87.8824 23.6339 87.8824 22.4992V11.0545C87.8824 9.91981 86.9889 9 85.8867 9Z" fill="url(#paint7_linear_21556_4019)"/>
  </g>
  <path d="M22.534 73.9844H5.8981C5.33791 73.9844 4.88379 74.4518 4.88379 75.0285V75.0319C4.88379 75.6085 5.33791 76.076 5.8981 76.076H22.534C23.0942 76.076 23.5484 75.6085 23.5484 75.0319V75.0285C23.5484 74.4518 23.0942 73.9844 22.534 73.9844Z" fill="url(#paint8_linear_21556_4019)"/>
  <path d="M22.544 88.6953H6.051C5.49563 88.6953 5.04541 89.1482 5.04541 89.7069V89.7101C5.04541 90.2688 5.49563 90.7217 6.051 90.7217H22.544C23.0994 90.7217 23.5496 90.2688 23.5496 89.7101V89.7069C23.5496 89.1482 23.0994 88.6953 22.544 88.6953Z" fill="url(#paint9_linear_21556_4019)"/>
  <path d="M22.544 81H6.051C5.49563 81 5.04541 81.4529 5.04541 82.0116V82.0148C5.04541 82.5735 5.49563 83.0264 6.051 83.0264H22.544C23.0994 83.0264 23.5496 82.5735 23.5496 82.0148V82.0116C23.5496 81.4529 23.0994 81 22.544 81Z" fill="url(#paint10_linear_21556_4019)"/>
  <path d="M11.9812 63.0859H7.11976C6.04289 63.0859 5.16992 63.9846 5.16992 65.0931V66.4819C5.16992 67.5904 6.04289 68.489 7.11976 68.489H11.9812C13.0581 68.489 13.931 67.5904 13.931 66.4819V65.0931C13.931 63.9846 13.0581 63.0859 11.9812 63.0859Z" fill="url(#paint11_linear_21556_4019)"/>
  <path d="M66.0738 19.1301C67.341 19.1301 68.3683 18.0727 68.3683 16.7682C68.3683 15.4637 67.341 14.4062 66.0738 14.4062C64.8066 14.4062 63.7793 15.4637 63.7793 16.7682C63.7793 18.0727 64.8066 19.1301 66.0738 19.1301Z" fill="#8598DC"/>
  <path d="M74.274 19.1301C75.5412 19.1301 76.5685 18.0727 76.5685 16.7682C76.5685 15.4637 75.5412 14.4062 74.274 14.4062C73.0068 14.4062 71.9795 15.4637 71.9795 16.7682C71.9795 18.0727 73.0068 19.1301 74.274 19.1301Z" fill="#8598DC"/>
  <path d="M82.4737 19.1301C83.7409 19.1301 84.7682 18.0727 84.7682 16.7682C84.7682 15.4637 83.7409 14.4062 82.4737 14.4062C81.2065 14.4062 80.1792 15.4637 80.1792 16.7682C80.1792 18.0727 81.2065 19.1301 82.4737 19.1301Z" fill="#8598DC"/>
  <g filter="url(#filter1_f_21556_4019)">
    <ellipse cx="58.8055" cy="76.2432" rx="14.4432" ry="2.19637" fill="#4098D8" fill-opacity="0.56"/>
  </g>
  <path d="M41.51 93.3981C41.8587 91.9112 43.9752 91.9112 44.3239 93.3981C44.4476 93.9258 44.859 94.3406 45.3851 94.4713C46.8838 94.8437 46.8838 96.9833 45.3851 97.3557C44.859 97.4864 44.4476 97.9012 44.3239 98.4289C43.9752 99.9158 41.8587 99.9158 41.51 98.4289C41.3862 97.9012 40.9748 97.4864 40.4488 97.3557C38.9501 96.9833 38.9501 94.8437 40.4488 94.4713C40.9748 94.3406 41.3862 93.9258 41.51 93.3981Z" fill="url(#paint12_linear_21556_4019)"/>
  <path d="M8.83324 15.5856C9.18191 14.0987 11.2984 14.0987 11.6471 15.5856C11.7708 16.1133 12.1823 16.5281 12.7083 16.6588C14.207 17.0312 14.207 19.1708 12.7083 19.5432C12.1823 19.6739 11.7708 20.0887 11.6471 20.6164C11.2984 22.1033 9.18191 22.1033 8.83324 20.6164C8.70949 20.0887 8.29807 19.6739 7.77203 19.5432C6.27331 19.1708 6.27331 17.0312 7.77203 16.6588C8.29807 16.5281 8.70949 16.1133 8.83324 15.5856Z" fill="url(#paint13_linear_21556_4019)"/>
  <path fill-rule="evenodd" clip-rule="evenodd" d="M44.1446 13.4887C44.906 13.4887 45.5232 12.8533 45.5232 12.0695C45.5232 11.2857 44.906 10.6503 44.1446 10.6503C43.3832 10.6503 42.7659 11.2857 42.7659 12.0695C42.7659 12.8533 43.3832 13.4887 44.1446 13.4887ZM44.1446 14.5531C45.477 14.5531 46.5572 13.4411 46.5572 12.0695C46.5572 10.6979 45.477 9.58594 44.1446 9.58594C42.8121 9.58594 41.7319 10.6979 41.7319 12.0695C41.7319 13.4411 42.8121 14.5531 44.1446 14.5531Z" fill="url(#paint14_linear_21556_4019)"/>
  <path d="M87.4568 54.3524C87.129 53.0289 88.3167 51.8356 89.5941 52.2051C90.8708 52.5745 91.2796 54.2281 90.33 55.1821C89.3805 56.1361 87.7845 55.6752 87.4568 54.3524Z" fill="url(#paint15_linear_21556_4019)"/>
  <path d="M4.45201 46.9299C5.73766 46.5943 6.89332 47.8164 6.53284 49.1303C6.17216 50.445 4.56426 50.8656 3.63909 49.8873C2.71391 48.909 3.1656 47.2657 4.45201 46.9299Z" fill="url(#paint16_linear_21556_4019)"/>
  <path d="M70.201 95.9612C71.4867 95.6256 72.6423 96.8476 72.2819 98.1616C71.9212 99.4763 70.3133 99.8969 69.3881 98.9186C68.4629 97.9402 68.9146 96.297 70.201 95.9612Z" fill="url(#paint17_linear_21556_4019)"/>
  <path fill-rule="evenodd" clip-rule="evenodd" d="M90.209 34.1605C90.9704 34.1605 91.5877 33.5252 91.5877 32.7414C91.5877 31.9576 90.9704 31.3222 90.209 31.3222C89.4476 31.3222 88.8304 31.9576 88.8304 32.7414C88.8304 33.5252 89.4476 34.1605 90.209 34.1605ZM90.209 35.2249C91.5415 35.2249 92.6217 34.113 92.6217 32.7414C92.6217 31.3697 91.5415 30.2578 90.209 30.2578C88.8766 30.2578 87.7964 31.3697 87.7964 32.7414C87.7964 34.113 88.8766 35.2249 90.209 35.2249Z" fill="url(#paint18_linear_21556_4019)"/>
  <defs>
    <filter id="filter0_d_21556_4019" x="53.2368" y="0" width="53.6455" height="41.5547" filterUnits="userSpaceOnUse" color-interpolation-filters="sRGB">
      <feFlood flood-opacity="0" result="BackgroundImageFix"/>
      <feColorMatrix in="SourceAlpha" type="matrix" values="0 0 0 0 0 0 0 0 0 0 0 0 0 0 0 0 0 0 127 0" result="hardAlpha"/>
      <feOffset dx="6" dy="4"/>
      <feGaussianBlur stdDeviation="6.5"/>
      <feComposite in2="hardAlpha" operator="out"/>
      <feColorMatrix type="matrix" values="0 0 0 0 0.104618 0 0 0 0 0.465612 0 0 0 0 0.545833 0 0 0 0.09 0"/>
      <feBlend mode="normal" in2="BackgroundImageFix" result="effect1_dropShadow_21556_4019"/>
      <feBlend mode="normal" in="SourceGraphic" in2="effect1_dropShadow_21556_4019" result="shape"/>
    </filter>
    <filter id="filter1_f_21556_4019" x="23.5184" y="53.2029" width="70.5741" height="46.0785" filterUnits="userSpaceOnUse" color-interpolation-filters="sRGB">
      <feFlood flood-opacity="0" result="BackgroundImageFix"/>
      <feBlend mode="normal" in="SourceGraphic" in2="BackgroundImageFix" result="shape"/>
      <feGaussianBlur stdDeviation="10.422" result="effect1_foregroundBlur_21556_4019"/>
    </filter>
    <linearGradient id="paint0_linear_21556_4019" x1="14.5668" y1="24.1694" x2="76.002" y2="28.3777" gradientUnits="userSpaceOnUse">
      <stop stop-color="#C8D4FE"/>
      <stop offset="1" stop-color="#6C7AAB"/>
    </linearGradient>
    <linearGradient id="paint1_linear_21556_4019" x1="12.7951" y1="70.5769" x2="101.38" y2="72.1068" gradientUnits="userSpaceOnUse">
      <stop stop-color="white"/>
      <stop offset="1" stop-color="#C8D4FE"/>
    </linearGradient>
    <linearGradient id="paint2_linear_21556_4019" x1="21.8514" y1="37.5449" x2="69.4898" y2="37.5449" gradientUnits="userSpaceOnUse">
      <stop stop-color="#6C7AAB"/>
      <stop offset="1" stop-color="#C8D4FE"/>
    </linearGradient>
    <linearGradient id="paint3_linear_21556_4019" x1="21.8514" y1="50.7949" x2="69.4898" y2="50.7949" gradientUnits="userSpaceOnUse">
      <stop stop-color="#6C7AAB"/>
      <stop offset="1" stop-color="#C8D4FE"/>
    </linearGradient>
    <linearGradient id="paint4_linear_21556_4019" x1="21.8514" y1="64.0527" x2="69.4898" y2="64.0527" gradientUnits="userSpaceOnUse">
      <stop stop-color="#6C7AAB"/>
      <stop offset="1" stop-color="#C8D4FE"/>
    </linearGradient>
    <linearGradient id="paint5_linear_21556_4019" x1="21.8514" y1="77.3027" x2="69.4898" y2="77.3027" gradientUnits="userSpaceOnUse">
      <stop stop-color="#6C7AAB"/>
      <stop offset="1" stop-color="#C8D4FE"/>
    </linearGradient>
    <linearGradient id="paint6_linear_21556_4019" x1="-0.436525" y1="86.6563" x2="52.571" y2="90.8855" gradientUnits="userSpaceOnUse">
      <stop stop-color="white"/>
      <stop offset="1" stop-color="#C8D4FE"/>
    </linearGradient>
    <linearGradient id="paint7_linear_21556_4019" x1="59.4067" y1="20.6634" x2="99.3264" y2="21.7851" gradientUnits="userSpaceOnUse">
      <stop stop-color="white"/>
      <stop offset="1" stop-color="#C8D4FE"/>
    </linearGradient>
    <linearGradient id="paint8_linear_21556_4019" x1="25.7144" y1="76.1384" x2="3.27321" y2="76.1384" gradientUnits="userSpaceOnUse">
      <stop stop-color="#C8D4FE"/>
      <stop offset="1" stop-color="#6C7AAB"/>
    </linearGradient>
    <linearGradient id="paint9_linear_21556_4019" x1="25.697" y1="90.7821" x2="3.44868" y2="90.7821" gradientUnits="userSpaceOnUse">
      <stop stop-color="#C8D4FE"/>
      <stop offset="1" stop-color="#6C7AAB"/>
    </linearGradient>
    <linearGradient id="paint10_linear_21556_4019" x1="25.697" y1="83.0868" x2="3.44868" y2="83.0868" gradientUnits="userSpaceOnUse">
      <stop stop-color="#C8D4FE"/>
      <stop offset="1" stop-color="#6C7AAB"/>
    </linearGradient>
    <linearGradient id="paint11_linear_21556_4019" x1="20.0062" y1="68.437" x2="4.06112" y2="68.437" gradientUnits="userSpaceOnUse">
      <stop offset="0.243799" stop-color="#C8D4FE"/>
      <stop offset="1" stop-color="#6C7AAB"/>
    </linearGradient>
    <linearGradient id="paint12_linear_21556_4019" x1="34.6263" y1="91.3287" x2="51.2788" y2="91.4338" gradientUnits="userSpaceOnUse">
      <stop stop-color="#C8D4FE"/>
      <stop offset="1" stop-color="#6C7AAB"/>
    </linearGradient>
    <linearGradient id="paint13_linear_21556_4019" x1="1.94952" y1="13.5162" x2="18.6021" y2="13.6213" gradientUnits="userSpaceOnUse">
      <stop stop-color="#C8D4FE"/>
      <stop offset="1" stop-color="#6C7AAB"/>
    </linearGradient>
    <linearGradient id="paint14_linear_21556_4019" x1="41.7265" y1="10.7323" x2="46.5835" y2="10.7629" gradientUnits="userSpaceOnUse">
      <stop stop-color="#C8D4FE"/>
      <stop offset="1" stop-color="#6C7AAB"/>
    </linearGradient>
    <linearGradient id="paint15_linear_21556_4019" x1="85.358" y1="55.0291" x2="90.4942" y2="50.2223" gradientUnits="userSpaceOnUse">
      <stop stop-color="#C8D4FE"/>
      <stop offset="1" stop-color="#6C7AAB"/>
    </linearGradient>
    <linearGradient id="paint16_linear_21556_4019" x1="3.79407" y1="44.7694" x2="8.74664" y2="49.7763" gradientUnits="userSpaceOnUse">
      <stop stop-color="#C8D4FE"/>
      <stop offset="1" stop-color="#6C7AAB"/>
    </linearGradient>
    <linearGradient id="paint17_linear_21556_4019" x1="69.5431" y1="93.8006" x2="74.4957" y2="98.8075" gradientUnits="userSpaceOnUse">
      <stop stop-color="#C8D4FE"/>
      <stop offset="1" stop-color="#6C7AAB"/>
    </linearGradient>
    <linearGradient id="paint18_linear_21556_4019" x1="87.7909" y1="31.4042" x2="92.6479" y2="31.4348" gradientUnits="userSpaceOnUse">
      <stop stop-color="#C8D4FE"/>
      <stop offset="1" stop-color="#6C7AAB"/>
    </linearGradient>
  </defs>
</svg>
