<svg width="66" height="59" viewBox="0 0 66 59" fill="none" xmlns="http://www.w3.org/2000/svg">
<path fill-rule="evenodd" clip-rule="evenodd" d="M37.7202 2.72578C35.6219 -0.908597 30.3761 -0.908592 28.2778 2.72579L0.737528 50.427C-1.36078 54.0614 1.2621 58.6043 5.45872 58.6043H60.5393C64.7359 58.6043 67.3588 54.0614 65.2605 50.427L37.7202 2.72578ZM34.7319 39.6753L35.2016 24.3861V20.2314C34.8884 16.9077 33.4792 16.5753 31.7568 16.5753C29.2515 16.5753 28.8861 19.2343 28.9383 20.2314C29.0427 25.4386 29.2515 36.6175 29.2515 39.6753C29.5362 42.8485 31.7627 42.7243 32.6353 42.6757C32.7224 42.6708 32.796 42.6667 32.8529 42.6667C34.3561 42.4008 34.7319 40.5617 34.7319 39.6753ZM32.0681 52.0927C30.0488 52.0927 28.4118 50.4558 28.4118 48.4365C28.4118 46.4172 30.0488 44.7802 32.0681 44.7802C34.0874 44.7802 35.7243 46.4172 35.7243 48.4365C35.7243 50.4558 34.0874 52.0927 32.0681 52.0927Z" fill="#4098D8"/>
</svg>
