<svg fill="none" height="22" viewBox="0 0 22 22" width="22" xmlns="http://www.w3.org/2000/svg"><circle cx="10.6206" cy="10.9956" r="10.1206" stroke="#4098d8"/><path d="m9.63662 12.2455-.58944-7.08925h3.60042l-.6054 7.08925zm1.21078 4.2058c-.5311 0-.9665-.1647-1.30636-.4939s-.50979-.7222-.50979-1.1789c0-.4673.16993-.8549.50979-1.1629.33986-.3187.77526-.478 1.30636-.478.531 0 .9611.1593 1.2904.478.3398.308.5098.6956.5098 1.1629 0 .4567-.17.8497-.5098 1.1789-.3293.3292-.7594.4939-1.2904.4939z" fill="#4098d8"/></svg>