<svg width="26" height="24" viewBox="0 0 26 24" fill="none" xmlns="http://www.w3.org/2000/svg"> 
<g id="error-16-svgrepo-com 1" clip-path="url(#clip0_1726_19765)">
<path id="Vector" fill-rule="evenodd" clip-rule="evenodd" d="M12.6847 0.0176429C12.605 0.0266429 12.3331 0.0536429 12.0815 0.0776429C9.15497 0.358143 6.20653 1.80714 4.21278 3.94614C2.00809 6.31164 0.88778 9.24714 0.990905 12.3746C1.17059 17.7761 5.03778 22.3496 10.5237 23.6516C13.7409 24.4151 17.2784 23.8706 20.0815 22.1816C22.8784 20.4941 24.8362 17.8946 25.619 14.8256C25.8878 13.7741 25.9503 13.2386 25.9503 11.9951C25.9503 10.7516 25.8878 10.2161 25.619 9.16464C24.3815 4.31214 20.219 0.742143 15.0393 0.0911429C14.5956 0.0356429 12.9815 -0.0138571 12.6847 0.0176429ZM14.8097 2.33964C16.5503 2.55564 18.18 3.19914 19.6393 4.24614C20.1534 4.61514 21.1643 5.58564 21.5487 6.07914C22.4253 7.20564 23.0737 8.53014 23.3675 9.79764C23.7018 11.2451 23.7018 12.7451 23.3675 14.1926C22.7206 16.9841 20.6722 19.4621 17.9565 20.7371C16.9753 21.1976 15.9628 21.4991 14.8518 21.6611C14.1893 21.7586 12.7643 21.7586 12.1018 21.6611C9.05809 21.2171 6.48934 19.6226 4.87215 17.1716C4.53778 16.6661 4.10028 15.7841 3.88153 15.1736C3.50497 14.1281 3.34247 13.1666 3.34247 11.9951C3.34247 10.4366 3.65653 9.10764 4.35184 7.73514C4.88309 6.68814 5.42372 5.96514 6.30966 5.11464C7.19559 4.26414 7.94872 3.74514 9.03934 3.23514C10.8409 2.39364 12.8003 2.09064 14.8097 2.33964ZM13.0175 6.43014C12.6675 6.53964 12.469 6.73164 12.3722 7.05264C12.3159 7.23564 12.3097 7.65414 12.319 10.2191C12.3315 13.1741 12.3315 13.1756 12.4222 13.3391C12.5362 13.5446 12.755 13.7306 12.9628 13.8011C13.169 13.8701 13.7847 13.8701 13.9909 13.8011C14.1987 13.7306 14.4175 13.5446 14.5315 13.3391C14.6222 13.1756 14.6222 13.1741 14.6347 10.2191C14.6472 6.99114 14.6472 6.98814 14.4081 6.71664C14.2143 6.49464 14.0065 6.42114 13.5393 6.40914C13.3097 6.40314 13.0753 6.41214 13.0175 6.43014ZM13.1425 15.7901C12.8472 15.8831 12.555 16.1246 12.4128 16.3931C12.3034 16.6031 12.2847 16.9826 12.3737 17.2376C12.5206 17.6651 13.0034 17.9951 13.4768 17.9951C13.9503 17.9951 14.4331 17.6651 14.58 17.2376C14.669 16.9826 14.6503 16.6031 14.5409 16.3931C14.4393 16.2011 14.1956 15.9641 13.9972 15.8651C13.8159 15.7751 13.3268 15.7316 13.1425 15.7901Z" fill="white"/>
</g>
<defs>
<clipPath id="clip0_1726_19765">
<rect width="25" height="24" fill="white" transform="translate(0.976562)"/>
</clipPath>
</defs>
</svg>
