<svg width="30" height="31" viewBox="0 0 30 31" fill="none" xmlns="http://www.w3.org/2000/svg">
<path fill-rule="evenodd" clip-rule="evenodd" d="M6.25 9.70459C5.91848 9.70459 5.60054 9.83629 5.36612 10.0707C5.1317 10.3051 5 10.6231 5 10.9546V24.7046C5 25.0361 5.1317 25.3541 5.36612 25.5885C5.60054 25.8229 5.91848 25.9546 6.25 25.9546H20C20.3315 25.9546 20.6495 25.8229 20.8839 25.5885C21.1183 25.3541 21.25 25.0361 21.25 24.7046V17.2046C21.25 16.5142 21.8096 15.9546 22.5 15.9546C23.1904 15.9546 23.75 16.5142 23.75 17.2046V24.7046C23.75 25.6992 23.3549 26.653 22.6516 27.3562C21.9484 28.0595 20.9946 28.4546 20 28.4546H6.25C5.25544 28.4546 4.30161 28.0595 3.59835 27.3562C2.89509 26.653 2.5 25.6992 2.5 24.7046V10.9546C2.5 9.96003 2.89509 9.0062 3.59835 8.30294C4.30161 7.59968 5.25544 7.20459 6.25 7.20459H13.75C14.4404 7.20459 15 7.76423 15 8.45459C15 9.14495 14.4404 9.70459 13.75 9.70459H6.25Z" fill="#4098D8"/>
<path fill-rule="evenodd" clip-rule="evenodd" d="M17.5 4.70459C17.5 4.01423 18.0596 3.45459 18.75 3.45459H26.25C26.9404 3.45459 27.5 4.01423 27.5 4.70459V12.2046C27.5 12.8949 26.9404 13.4546 26.25 13.4546C25.5596 13.4546 25 12.8949 25 12.2046V5.95459H18.75C18.0596 5.95459 17.5 5.39495 17.5 4.70459Z" fill="#4098D8"/>
<path fill-rule="evenodd" clip-rule="evenodd" d="M27.1339 3.82071C27.622 4.30886 27.622 5.10032 27.1339 5.58847L13.3839 19.3385C12.8957 19.8266 12.1043 19.8266 11.6161 19.3385C11.128 18.8503 11.128 18.0589 11.6161 17.5707L25.3661 3.82071C25.8543 3.33255 26.6457 3.33255 27.1339 3.82071Z" fill="#4098D8"/>
</svg>
