<svg fill="none" height="17" viewBox="0 0 17 17" width="17" xmlns="http://www.w3.org/2000/svg"><g clip-rule="evenodd" fill="#4098d8" fill-rule="evenodd"><path d="m3.54639 4.95573c-.18787 0-.36803.07463-.50087.20747-.13284.13283-.20747.313-.20747.50086v7.79164c0 .1879.07463.3681.20747.5009s.31301.2075.50087.2075h7.79171c.1878 0 .368-.0747.5008-.2075.1329-.1328.2075-.313.2075-.5009v-4.24997c0-.3912.3171-.70833.7083-.70833s.7084.31713.7084.70833v4.24997c0 .5636-.2239 1.1041-.6224 1.5026-.3986.3985-.9391.6224-1.5026.6224h-7.79171c-.56359 0-1.10409-.2239-1.50261-.6224-.39851-.3985-.62239-.939-.62239-1.5026v-7.79164c0-.56358.22388-1.10408.62239-1.5026.39852-.39851.93902-.6224 1.50261-.6224h4.25c.3912 0 .70833.31713.70833.70834 0 .3912-.31713.70833-.70833.70833z"/><path d="m9.92139 2.1224c0-.39121.31711-.70834.70831-.70834h4.25c.3912 0 .7084.31713.7084.70834v4.25c0 .3912-.3172.70833-.7084.70833s-.7083-.31713-.7083-.70833v-3.54167h-3.5417c-.3912 0-.70831-.31713-.70831-.70833z"/><path d="m15.3806 1.62153c.2766.27662.2766.72511 0 1.00173l-7.79168 7.79164c-.27662.2767-.72511.2767-1.00173 0-.27663-.2766-.27663-.72508 0-1.0017l7.79171-7.79167c.2766-.27662.7251-.27662 1.0017 0z"/></g></svg>