<svg width="30" height="30" viewBox="0 0 30 30" fill="none" xmlns="http://www.w3.org/2000/svg">
<path d="M24.5928 24.5924L5.40569 5.40591L5.40159 5.40123C5.29771 5.2982 5.17456 5.21663 5.03916 5.1612C4.90376 5.10576 4.75877 5.07754 4.61246 5.07813C4.46615 5.07873 4.3214 5.10814 4.18646 5.16469C4.05152 5.22123 3.92903 5.30379 3.826 5.40767C3.72297 5.51155 3.64141 5.6347 3.58597 5.7701C3.53054 5.9055 3.50231 6.05049 3.50291 6.1968C3.50412 6.49228 3.62266 6.77518 3.83245 6.98326L5.51233 8.66314C3.47509 10.0584 1.72153 11.8281 0.344948 13.878C0.120153 14.2099 0 14.6015 0 15.0024C0 15.4033 0.120153 15.7949 0.344948 16.1268C3.85882 21.3276 9.42932 24.3745 14.9998 24.3364C16.8042 24.3429 18.5966 24.0425 20.3002 23.4481L23.0196 26.1674C23.2291 26.3702 23.5098 26.4827 23.8013 26.4807C24.0929 26.4787 24.372 26.3624 24.5788 26.1568C24.7855 25.9512 24.9033 25.6727 24.9069 25.3812C24.9106 25.0897 24.7997 24.8084 24.5981 24.5977L24.5928 24.5924ZM14.9998 21.3124C13.9444 21.312 12.906 21.0471 11.9793 20.5419C11.0527 20.0367 10.2674 19.3074 9.69532 18.4205C9.12321 17.5336 8.78249 16.5175 8.70429 15.465C8.62609 14.4126 8.81291 13.3572 9.24768 12.3956L11.0026 14.1504C10.8612 14.8165 10.8885 15.5074 11.082 16.1602C11.2755 16.8131 11.6291 17.4072 12.1106 17.8887C12.592 18.3702 13.1862 18.7238 13.8391 18.9173C14.4919 19.1108 15.1828 19.1381 15.8489 18.9967L17.6037 20.7516C16.7858 21.1225 15.8979 21.3137 14.9998 21.3124ZM29.6547 13.8751C26.1408 8.67134 20.5703 5.62447 14.9998 5.66255C13.1955 5.65602 11.4031 5.95639 9.69944 6.55084L12.3948 9.24615C13.5643 8.71686 14.8674 8.55659 16.1304 8.78669C17.3934 9.0168 18.5563 9.62635 19.464 10.5341C20.3718 11.4419 20.9813 12.6047 21.2114 13.8677C21.4415 15.1307 21.2813 16.4338 20.752 17.6034L24.4867 21.3381C26.5243 19.9431 28.2781 18.1734 29.6547 16.1233C29.8794 15.7915 29.9995 15.3999 29.9995 14.9992C29.9995 14.5984 29.8794 14.2069 29.6547 13.8751Z" fill="url(#paint0_linear_2827_9107)"/>
<path d="M14.9994 10.9141C14.7141 10.9141 14.4295 10.9439 14.1504 11.0031L18.9967 15.8488C19.123 15.2535 19.1148 14.6374 18.9726 14.0456C18.8304 13.4538 18.5578 12.9013 18.1747 12.4283C17.7916 11.9554 17.3077 11.574 16.7584 11.312C16.209 11.05 15.608 10.9141 14.9994 10.9141Z" fill="url(#paint1_linear_2827_9107)"/>
<defs>
<linearGradient id="paint0_linear_2827_9107" x1="14.9997" y1="5.07813" x2="14.9997" y2="26.4807" gradientUnits="userSpaceOnUse">
<stop stop-color="#5558FF"/>
<stop offset="1" stop-color="#00C0FF"/>
</linearGradient>
<linearGradient id="paint1_linear_2827_9107" x1="16.6181" y1="10.9141" x2="16.6181" y2="15.8488" gradientUnits="userSpaceOnUse">
<stop stop-color="#5558FF"/>
<stop offset="1" stop-color="#00C0FF"/>
</linearGradient>
</defs>
</svg>
