<svg fill="none" height="23" viewBox="0 0 23 23" width="23" xmlns="http://www.w3.org/2000/svg"><g fill="#4098d8"><path d="m18.8545 18.8555-14.71014-14.70966-.00314-.0036c-.07964-.07899-.17406-.14152-.27787-.18402-.1038-.0425-.21496-.06414-.32713-.06368s-.22315.02301-.3266.06635c-.10346.04335-.19736.10665-.27635.18629s-.14152.17406-.18402.27787c-.0425.1038-.06414.21496-.06368.32713.00092.22654.0918.44342.25264.60295l1.28791 1.28791c-1.56188 1.06971-2.90628 2.42645-3.96166 3.99806-.1723428.2544-.26446.5547-.26446.862 0 .3074.0921172.6076.26446.8621 2.69397 3.9873 6.96469 6.3232 11.23544 6.294 1.3833.005 2.7575-.2253 4.0636-.681l2.0848 2.0848c.1607.1554.3759.2417.5994.2402.2235-.0016.4375-.0907.596-.2483.1585-.1577.2489-.3712.2516-.5947.0028-.2235-.0822-.4392-.2368-.6007zm-7.3546-2.5147c-.8092-.0003-1.60532-.2034-2.31574-.5907-.71043-.3873-1.31246-.9465-1.75108-1.6264s-.69984-1.459-.75979-2.2659.08328-1.6159.4166-2.35323l1.34541 1.34543c-.10837.5106-.08743 1.0403.06092 1.5408s.41941.9561.78855 1.3252c.36913.3691.82463.6402 1.32513.7885.5006.1484 1.0302.1693 1.5409.061l1.3454 1.3454c-.6271.2843-1.3078.4309-1.9963.4299zm11.2354-5.702c-2.694-3.98947-6.9647-6.32541-11.2354-6.29621-1.3834-.00501-2.75752.22528-4.06366.68102l2.0664 2.06641c.89666-.40579 1.89576-.52867 2.86406-.35225.9682.17641 1.8598.64373 2.5557 1.33968.696.69595 1.1633 1.58748 1.3397 2.55575.1764.9683.0535 1.9673-.3522 2.864l2.8633 2.8633c1.5621-1.0695 2.9067-2.4263 3.9621-3.998.1722-.2544.2643-.5546.2643-.8618 0-.3073-.0921-.6074-.2643-.8619z"/><path d="m11.4947 8.36719c-.2188.00003-.4369.02291-.6509.06828l3.7154 3.71503c.0969-.4564.0906-.9288-.0184-1.3825s-.318-.87729-.6117-1.23988-.6647-.65499-1.0859-.85584c-.4212-.20086-.8819-.30509-1.3485-.30509z"/></g></svg>