<svg fill="none" height="23" viewBox="0 0 23 23" width="23" xmlns="http://www.w3.org/2000/svg"><path d="m11.5 4.64453c-4.39439 0-8.37946 2.40422-11.320037 6.30927-.2399507.32-.2399507.7669 0 1.0869 2.940577 3.9098 6.925647 6.314 11.320037 6.314 4.3944 0 8.3795-2.4042 11.32-6.3093.24-.32.24-.7669 0-1.0869-2.9405-3.90975-6.9256-6.31397-11.32-6.31397zm.3152 11.68227c-2.91702.1835-5.32594-2.2207-5.14245-5.1424.15056-2.40895 2.1031-4.36149 4.51205-4.51205 2.917-.18349 5.3259 2.22072 5.1424 5.14245-.1552 2.4042-2.1078 4.3568-4.512 4.512zm-.1458-2.2301c-1.5715.0988-2.87002-1.195-2.76652-2.7665.07999-1.2985 1.13392-2.34773 2.43242-2.43242 1.5715-.09881 2.87 1.19502 2.7665 2.76652-.0847 1.3032-1.1386 2.3524-2.4324 2.4324z" fill="#4098d8"/></svg>