<svg width="18" height="18" viewBox="0 0 18 18" fill="none" xmlns="http://www.w3.org/2000/svg">
<path fill-rule="evenodd" clip-rule="evenodd" d="M9.00977 0C13.9795 0 18.0098 4.03023 18.0098 9C18.0098 13.9698 13.9795 18 9.00977 18C4.03999 18 0.00976562 13.9698 0.00976562 9C0.00976562 4.03023 4.03999 0 9.00977 0ZM4.46087 12.2576L7.71851 9L4.46087 5.74235C4.27399 5.55541 4.27399 5.25047 4.46087 5.0636L5.07336 4.4511C5.26024 4.26423 5.56518 4.26423 5.75212 4.4511L9.00977 7.70875L12.2674 4.4511C12.4544 4.26423 12.7593 4.26423 12.9462 4.4511L13.5587 5.0636C13.7455 5.25047 13.7455 5.55541 13.5587 5.74235L10.301 9L13.5587 12.2576C13.7455 12.4446 13.7455 12.7495 13.5587 12.9364L12.9462 13.5489C12.7593 13.7358 12.4544 13.7358 12.2674 13.5489L9.00977 10.2913L5.75212 13.5489C5.56518 13.7358 5.26024 13.7358 5.07336 13.5489L4.46087 12.9364C4.27399 12.7495 4.27399 12.4446 4.46087 12.2576Z" fill="#D40000"/>
</svg>
