<svg xmlns="http://www.w3.org/2000/svg" width="29" height="26" viewBox="0 0 29 26" fill="none"> 
  <g clip-path="url(#clip0_9149_19951)">
    <path d="M8.90546 11.4484C10.9009 11.4484 12.8949 11.4421 14.8903 11.4499C16.4687 11.4562 17.2916 12.3578 17.2959 14.0921C17.3043 17.0166 17.3029 19.941 17.2959 22.8654C17.2916 24.6075 16.4743 25.517 14.9016 25.5201C10.8882 25.528 6.87621 25.528 2.8628 25.5201C1.29858 25.517 0.447422 24.606 0.436148 22.878C0.416419 19.9535 0.417828 17.0291 0.436148 14.1047C0.446013 12.372 1.29435 11.4562 2.85152 11.4499C4.8695 11.4405 6.88748 11.4484 8.90546 11.4484ZM15.9318 16.0036C15.5964 16.256 15.3864 16.4019 15.1891 16.565C13.5488 17.9166 11.9141 19.2761 10.2724 20.6247C9.19858 21.5075 8.54611 21.5043 7.4723 20.6184C5.81226 19.2526 4.15786 17.879 2.49922 16.5116C2.30616 16.3517 2.09901 16.2121 1.80026 15.9895C1.80026 18.4513 1.79321 20.7454 1.80448 23.0395C1.8073 23.7184 2.1596 23.996 2.76133 23.9944C6.82125 23.985 10.8798 23.9929 14.9397 23.9866C15.7345 23.985 15.9233 23.7671 15.9289 22.8591C15.9388 21.4228 15.9318 19.9865 15.9318 18.5501C15.9318 17.7567 15.9318 16.9601 15.9318 16.0036ZM8.91251 12.9804C6.89312 12.9804 4.87514 12.9851 2.85575 12.9772C2.40622 12.9757 1.92568 13.0164 1.87635 13.5966C1.8524 13.8742 2.12719 14.274 2.36394 14.4747C4.30723 16.1165 6.28434 17.7096 8.22764 19.3545C8.6969 19.7513 9.02524 19.7842 9.51283 19.3686C11.4505 17.719 13.4234 16.1196 15.3836 14.4998C15.6795 14.2552 16.1375 14.0043 15.8571 13.5402C15.6795 13.2469 15.2314 13.0102 14.9002 13.0023C12.9034 12.9553 10.9079 12.9804 8.91251 12.9804Z" fill="#6C7AAB"/>
    <path d="M8.91286 25.9984C6.9287 25.9984 4.9079 25.9968 2.86315 25.9937C1.06501 25.9906 0.0278318 24.8569 0.0137397 22.8842C-0.00457991 20.0586 -0.00457991 17.1044 0.0137397 14.1031C0.0250134 12.1274 1.05937 10.9889 2.85047 10.9811C4.26531 10.9748 5.7041 10.9764 7.09499 10.978C8.29845 10.9795 9.50191 10.9795 10.7054 10.978C12.0779 10.9764 13.4956 10.9748 14.8921 10.9811C16.7086 10.9889 17.7133 12.0944 17.719 14.0921C17.7274 16.9444 17.7274 19.8971 17.719 22.8686C17.7133 24.8804 16.7142 25.989 14.9034 25.9921C12.9559 25.9968 10.9548 25.9984 8.91286 25.9984ZM5.2898 11.9172C4.47951 11.9172 3.66217 11.9188 2.85469 11.9219C1.52159 11.9282 0.869126 12.6432 0.860671 14.1094C0.842351 17.1044 0.842351 20.0555 0.860671 22.8764C0.870535 24.3378 1.52582 25.0497 2.86597 25.0513C7.01325 25.0591 11.0633 25.0576 14.9034 25.0513C16.2449 25.0482 16.872 24.3535 16.8749 22.8654C16.8819 19.8955 16.8819 16.9444 16.8749 14.0937C16.8706 12.6166 16.2407 11.9251 14.8907 11.9204C13.4956 11.9157 12.0779 11.9172 10.7068 11.9188C9.50191 11.9204 8.29845 11.9204 7.09499 11.9188C6.5003 11.9172 5.89716 11.9172 5.2898 11.9172ZM2.75746 24.468C1.88798 24.468 1.3863 23.9505 1.38208 23.0458C1.37362 21.3899 1.37503 19.7513 1.37644 18.017C1.37644 17.3521 1.37785 16.6794 1.37785 15.9926C1.37785 15.8186 1.46381 15.6602 1.60191 15.5771C1.74001 15.4955 1.9063 15.505 2.03595 15.6006C2.13741 15.6759 2.2276 15.7417 2.31074 15.8013C2.47421 15.9205 2.61513 16.0224 2.75182 16.1353C3.52125 16.7688 4.28926 17.4039 5.05728 18.0389C5.94649 18.7744 6.83429 19.5082 7.7249 20.2421C8.65075 21.0041 9.10169 21.0057 10.0233 20.2483C10.9788 19.4627 11.9314 18.674 12.8854 17.8868C13.5703 17.3208 14.2537 16.7547 14.94 16.1902C15.0767 16.0773 15.2162 15.9754 15.391 15.8452C15.4812 15.7778 15.5826 15.7041 15.6982 15.6163C15.8278 15.5191 15.9955 15.5097 16.1336 15.5896C16.2717 15.6712 16.3577 15.8311 16.3577 16.0052V18.5548C16.3577 18.9813 16.3577 19.4094 16.3591 19.8359C16.3605 20.8285 16.3619 21.8556 16.3549 22.867C16.3478 24.0274 15.9645 24.4601 14.9428 24.4617C13.1433 24.4648 11.3437 24.4648 9.54277 24.4633C7.28382 24.4633 5.02346 24.4633 2.7631 24.468C2.76169 24.468 2.75887 24.468 2.75746 24.468ZM2.22337 16.8723C2.22337 17.258 2.22337 17.6391 2.22196 18.0186C2.22055 19.7513 2.21914 21.3883 2.2276 23.041C2.22901 23.3264 2.26847 23.5271 2.75605 23.5271C2.75746 23.5271 2.75887 23.5271 2.76028 23.5271C5.02064 23.5224 7.28241 23.5224 9.54136 23.5224C11.3409 23.5224 13.1405 23.5224 14.94 23.5209C15.5037 23.5193 15.5037 23.5083 15.5079 22.8607C15.515 21.854 15.5136 20.8301 15.5122 19.8391C15.5122 19.411 15.5108 18.9829 15.5108 18.5564V16.8911C15.4868 16.9099 15.4642 16.9288 15.4417 16.946C14.7568 17.5105 14.072 18.0766 13.3885 18.6426C12.4345 19.4314 11.4804 20.2201 10.525 21.0073C9.30744 22.0077 8.4436 22.0077 7.22182 21.001C6.3312 20.2672 5.44199 19.5317 4.55278 18.7979C3.78477 18.1628 3.01816 17.5278 2.24874 16.8958C2.24028 16.8848 2.23183 16.8786 2.22337 16.8723ZM8.88468 20.1386C8.59015 20.1386 8.29422 20.0021 7.97292 19.7309C6.98084 18.8904 5.96058 18.0483 4.97414 17.2345C4.03279 16.4568 3.06044 15.6539 2.10923 14.8511C1.86261 14.6425 1.41026 14.1047 1.45535 13.5543C1.54413 12.5037 2.49817 12.5084 2.85751 12.5084C4.3414 12.5147 5.8253 12.5131 7.30919 12.5115H8.91286C9.41172 12.5115 9.91199 12.51 10.4108 12.5084C11.8835 12.5037 13.4082 12.499 14.909 12.5366C15.3318 12.5476 15.9335 12.8283 16.2083 13.2814C16.6846 14.0686 16.004 14.5939 15.7489 14.7915C15.7094 14.8213 15.6728 14.8511 15.6362 14.8809C15.1049 15.3199 14.5722 15.7574 14.0395 16.1949C12.6332 17.3506 11.1803 18.5439 9.77107 19.745C9.46245 20.0069 9.17356 20.1386 8.88468 20.1386ZM2.8406 13.4477C2.31497 13.4477 2.30651 13.5417 2.29947 13.6405C2.30792 13.7127 2.45025 13.9557 2.62218 14.1C3.56916 14.8997 4.5401 15.701 5.48004 16.4771C6.46789 17.2925 7.48956 18.1362 8.48587 18.9798C8.82267 19.2652 8.93823 19.2667 9.25812 18.9955C10.673 17.7896 12.1301 16.5932 13.5393 15.436C14.072 14.9985 14.6032 14.561 15.1345 14.1235C15.1768 14.089 15.2219 14.0529 15.2684 14.0184C15.3431 13.9604 15.46 13.871 15.5108 13.8083C15.5108 13.8067 15.5093 13.8067 15.5093 13.8052C15.4149 13.6499 15.0993 13.4806 14.8935 13.4759C13.404 13.4398 11.8849 13.4445 10.4165 13.4492C9.91621 13.4508 9.41595 13.4524 8.91568 13.4524H7.31201C5.8267 13.4524 4.3414 13.4539 2.8561 13.4492C2.85047 13.4477 2.84624 13.4477 2.8406 13.4477Z" fill="#6C7AAB"/>
    <path d="M18.7789 20.8126C18.7789 20.2716 18.7789 19.8356 18.7789 19.2915C19.0537 19.2915 19.3031 19.2915 19.5511 19.2915C21.734 19.2915 23.9182 19.2947 26.1011 19.29C27.0199 19.2884 27.2003 19.1049 27.2017 18.1265C27.2073 14.7034 27.2073 11.2819 27.2017 7.85881C27.2003 6.91013 27.0157 6.71256 26.1575 6.71256C21.2041 6.70942 16.2493 6.70942 11.296 6.71256C10.4857 6.71256 10.2673 6.96658 10.2546 7.88546C10.2461 8.50798 10.2532 9.12894 10.2532 9.7985C9.78392 9.7985 9.37666 9.7985 8.91444 9.7985C8.91444 8.97213 8.85243 8.16301 8.92853 7.36957C9.06663 5.92225 9.90088 5.18213 11.3101 5.18056C15.8421 5.17429 20.3727 5.17742 24.9047 5.17899C25.4218 5.17899 25.939 5.15861 26.4534 5.18683C27.7329 5.2574 28.5587 6.17471 28.5658 7.59851C28.5841 11.2035 28.5827 14.8084 28.5658 18.415C28.5587 19.7776 27.7879 20.7655 26.5873 20.7937C24.007 20.8549 21.4268 20.8126 18.7789 20.8126Z" fill="#6C7AAB"/>
    <path d="M23.3545 21.294C22.6076 21.294 21.8537 21.2909 21.0828 21.2862C20.319 21.2831 19.5524 21.2784 18.7788 21.2784C18.5448 21.2784 18.356 21.0682 18.356 20.8079V19.2869C18.356 19.0266 18.5448 18.8165 18.7788 18.8165H21.5169C23.0444 18.8165 24.5734 18.8181 26.101 18.8149C26.7788 18.8134 26.7788 18.8134 26.7802 18.1219C26.7859 14.6517 26.7859 11.1989 26.7802 7.85577C26.7788 7.17837 26.7788 7.17837 26.1588 7.17837C21.0673 7.17523 16.0675 7.17523 11.2973 7.17837C10.704 7.17837 10.6871 7.23952 10.6773 7.8887C10.6716 8.31051 10.673 8.73075 10.6744 9.17451C10.6744 9.37679 10.6758 9.58377 10.6758 9.79389C10.6758 10.0542 10.487 10.2643 10.2531 10.2643H8.91434C8.68042 10.2643 8.49158 10.0542 8.49158 9.79389C8.49158 9.53987 8.48595 9.28741 8.48031 9.03652C8.46763 8.47359 8.45353 7.89183 8.50849 7.31479C8.66914 5.63383 9.66404 4.70711 11.31 4.70554C14.6442 4.70083 17.9769 4.7024 21.3111 4.7024H24.9046C25.061 4.70083 25.2104 4.70083 25.364 4.69926C25.7261 4.69456 26.101 4.68986 26.4744 4.71181C27.9936 4.79492 28.98 5.92549 28.9884 7.59077C29.0054 11.1299 29.0054 14.7709 28.9884 18.4119C28.98 20.0553 27.9964 21.225 26.5956 21.2595C25.5091 21.2862 24.4395 21.294 23.3545 21.294ZM19.2015 20.3391C19.8329 20.3407 20.4614 20.3438 21.0856 20.3454C22.9726 20.3532 24.7552 20.3626 26.5745 20.3187C27.5201 20.2968 28.1345 19.5457 28.1401 18.4072C28.157 14.7693 28.1584 11.1314 28.1401 7.59704C28.1345 6.43824 27.4947 5.71223 26.4293 5.65265C26.0813 5.63383 25.7191 5.63853 25.3696 5.64167C25.2132 5.64324 25.061 5.64167 24.9018 5.6448H21.3083C17.9755 5.64324 14.6413 5.64324 11.3086 5.64794C10.1023 5.64951 9.45971 6.22812 9.34697 7.41671C9.29765 7.93104 9.31033 8.45634 9.32301 9.013C9.32583 9.11649 9.32865 9.22155 9.33006 9.32504H9.82892C9.82892 9.27643 9.82892 9.22782 9.82892 9.17921C9.82751 8.73075 9.8261 8.3058 9.83174 7.87459C9.84865 6.69854 10.2587 6.2391 11.2959 6.2391C16.0661 6.23596 21.0659 6.2344 26.1588 6.2391C27.2537 6.24067 27.6229 6.64836 27.6257 7.85577C27.6314 11.1989 27.6314 14.6533 27.6257 18.125C27.6229 19.3591 27.2537 19.7558 26.1024 19.7573C24.5734 19.7605 23.0444 19.7605 21.5169 19.7589H19.2029V20.3391H19.2015Z" fill="#6C7AAB"/>
    <path d="M20.0342 3.53671C19.6481 3.53671 19.2563 3.53671 18.8645 3.53671C18.8349 3.49751 18.7842 3.45987 18.78 3.41753C18.6391 2.00628 18.6391 2.00628 17.3792 2.00628C13.5082 2.00628 9.63707 2.00471 5.76599 2.00785C4.82041 2.00785 4.61749 2.23365 4.61467 3.29523C4.61185 5.17376 4.61467 7.0523 4.61467 8.9324C4.61467 9.21308 4.61467 9.49377 4.61467 9.80738C4.1454 9.80738 3.75505 9.80738 3.29424 9.80738C3.27874 9.58785 3.25056 9.36518 3.25056 9.14095C3.24774 7.18245 3.2421 5.22551 3.25056 3.267C3.25901 1.38219 4.07212 0.475854 5.75612 0.474286C9.76813 0.469582 13.7801 0.463309 17.7907 0.477422C19.4381 0.483694 20.3104 1.68169 20.0342 3.53671Z" fill="#6C7AAB"/>
    <path d="M4.61608 10.2781H3.29566C3.07442 10.2781 2.89122 10.0883 2.87431 9.84371C2.87008 9.77785 2.86444 9.71042 2.8574 9.64456C2.84331 9.48462 2.82921 9.31841 2.82921 9.14278L2.8278 8.58926C2.82499 6.84557 2.82076 5.04231 2.82921 3.26726C2.83767 1.1347 3.85089 0.00726581 5.75754 0.00569775L7.04978 0.00412969C10.5714 -0.000574488 14.2128 -0.00371061 17.795 0.00883387C18.7152 0.01197 19.455 0.349103 19.9369 0.982599C20.433 1.63648 20.612 2.54595 20.4527 3.6138C20.4189 3.84117 20.2427 4.00739 20.0356 4.00739H18.866C18.7405 4.00739 18.6222 3.94623 18.5418 3.83804C18.4939 3.78786 18.3812 3.66869 18.3615 3.46954C18.3192 3.04617 18.2755 2.61024 18.2149 2.52871C18.1402 2.47539 17.7541 2.47539 17.3807 2.47539H15.2302C12.0764 2.47539 8.92261 2.47539 5.76881 2.47696C5.05576 2.47696 5.04166 2.49264 5.04025 3.29549C5.03744 4.60168 5.03744 5.90787 5.03885 7.21407V9.80921C5.03885 10.0679 4.85001 10.2781 4.61608 10.2781ZM3.68319 9.33722H4.19473V7.21407C4.19473 5.90631 4.19332 4.60011 4.19614 3.29235C4.19896 1.97988 4.59636 1.53612 5.77022 1.53612C8.92402 1.53456 12.0778 1.53456 15.233 1.53456H17.3835C18.7589 1.53456 19.0097 1.6992 19.1717 3.06498H19.6607C19.6917 2.45501 19.5677 1.95009 19.2929 1.58944C18.9759 1.17233 18.4573 0.951238 17.7935 0.948102C14.2114 0.937125 10.5714 0.940261 7.05119 0.943398L5.75895 0.944966C4.30465 0.946534 3.68178 1.64118 3.67474 3.2704C3.66769 5.04231 3.67051 6.84401 3.67333 8.58612L3.67474 9.14121C3.67615 9.2055 3.67896 9.2698 3.68319 9.33722Z" fill="#6C7AAB"/>
    <path d="M23.7368 12.5132C23.3041 12.5132 22.8729 12.5117 22.4403 12.5085H22.3755C22.1021 12.507 22.0077 12.4019 22.002 12.0899C21.9837 11.1302 21.9837 10.1611 22.002 9.21403C22.0077 8.92865 22.0739 8.78439 22.4262 8.78439C22.863 8.78752 23.2929 8.79066 23.7212 8.79066C24.0933 8.79066 24.4653 8.78909 24.8359 8.78125H24.8627C25.0544 8.78125 25.1925 8.82045 25.2545 8.89101C25.3165 8.96158 25.3432 9.11838 25.3348 9.33007C25.3221 9.62487 25.3249 9.91653 25.3277 10.2003C25.3291 10.3352 25.3306 10.4685 25.3306 10.6033L25.3292 10.9279C25.3277 11.3168 25.3277 11.7072 25.3292 12.0961C25.3306 12.4129 25.2545 12.5007 24.9712 12.5054C24.5597 12.5117 24.1482 12.5132 23.7368 12.5132ZM22.9744 9.44454C22.7404 9.44454 22.5516 9.65466 22.5516 9.91496V11.3858C22.5516 11.6461 22.7404 11.8562 22.9744 11.8562H24.3258C24.5597 11.8562 24.7486 11.6461 24.7486 11.3858V9.91496C24.7486 9.65466 24.5597 9.44454 24.3258 9.44454H22.9744Z" fill="#6C7AAB"/>
    <path d="M24.8622 8.3125C24.8509 8.3125 24.841 8.3125 24.8298 8.3125C24.4606 8.31877 24.0913 8.32191 23.7221 8.32191C23.2937 8.32191 22.8653 8.31877 22.4384 8.31564C22.4341 8.31564 22.4313 8.31564 22.4271 8.31564C21.8902 8.31564 21.5914 8.612 21.5801 9.20629C21.5618 10.1707 21.5618 11.1381 21.5801 12.1025C21.59 12.6529 21.8564 12.979 22.3735 12.9806C22.8273 12.9837 23.2811 12.9853 23.7348 12.9853C24.1491 12.9853 24.5634 12.9838 24.9777 12.9775C25.4836 12.9696 25.7556 12.6764 25.7528 12.0947C25.75 11.5992 25.7528 11.1036 25.7528 10.6066C25.7542 10.1895 25.7387 9.7708 25.757 9.35369C25.7866 8.63552 25.4879 8.3125 24.8622 8.3125ZM22.9738 11.3875C22.9738 10.9029 22.9738 10.4435 22.9738 9.91663C23.4037 9.91663 23.8321 9.91663 24.3253 9.91663C24.3253 10.3635 24.3253 10.8433 24.3253 11.3875C23.9067 11.3875 23.46 11.3875 22.9738 11.3875Z" fill="#35C0FF"/>
  </g>
  <defs>
    <clipPath id="clip0_9149_19951">
      <rect width="29" height="26" fill="white"/>
    </clipPath>
  </defs>
</svg>
