<svg width="26" height="26" viewBox="0 0 26 26" fill="current" xmlns="http://www.w3.org/2000/svg">
<path fill-rule="evenodd" clip-rule="evenodd" d="M2.16699 5.41406C2.16699 3.61914 3.62207 2.16406 5.41699 2.16406H20.5837C22.3786 2.16406 23.8337 3.61914 23.8337 5.41406V6.68326C23.8337 7.54522 23.4912 8.37186 22.8817 8.98136L16.5676 15.2955C16.3645 15.4987 16.2503 15.7742 16.2503 16.0615V18.6C16.2503 19.4619 15.9079 20.2886 15.2984 20.898L12.9129 23.2835C11.7458 24.4506 9.75033 23.624 9.75033 21.9736V16.0615C9.75033 15.7742 9.63619 15.4987 9.43303 15.2955L3.1189 8.98136C2.5094 8.37186 2.16699 7.54522 2.16699 6.68326V5.41406Z"/>
</svg>
