<svg xmlns="http://www.w3.org/2000/svg" width="12" height="13" viewBox="0 0 12 13" fill="none">
    <g clip-path="url(#clip0_2299_45789)">
      <path d="M2.46506 11.6111C3.03901 12.0782 3.72189 12.4058 4.45585 12.566C4.45585 12.566 4.56801 12.4987 4.45585 12.4584C4.19136 12.2218 3.98044 11.9355 3.83623 11.6174C3.69202 11.2992 3.61761 10.956 3.61761 10.609C3.61761 10.2621 3.69202 9.91887 3.83623 9.60071C3.98044 9.28255 4.19136 8.99627 4.45585 8.75967C4.79039 8.44088 5.05561 8.06153 5.23611 7.64363C5.41661 7.22573 5.5088 6.7776 5.50733 6.32524C5.50733 6.21764 5.63351 6.13694 5.71763 6.20419C6.15091 6.42619 6.53 6.73409 6.82973 7.10744C7.12946 7.48079 7.34297 7.91104 7.45607 8.36962C7.69809 8.10725 7.82384 7.76464 7.80656 7.41468C7.80525 7.38453 7.81357 7.35472 7.83042 7.32924C7.84726 7.30376 7.87181 7.28383 7.9008 7.27213C7.92978 7.26042 7.9618 7.2575 7.99257 7.26374C8.02334 7.26999 8.05139 7.28511 8.07294 7.30708C8.45655 7.62775 8.76407 8.02356 8.97479 8.46785C9.18552 8.91215 9.29455 9.39461 9.29455 9.88273C9.29455 10.3709 9.18552 10.8533 8.97479 11.2976C8.76407 11.7419 8.45655 12.1377 8.07294 12.4584C8.07294 12.4584 8.07294 12.5929 8.07294 12.566C8.78091 12.3879 9.44703 12.0821 10.0357 11.6648C13.8631 8.82691 11.3676 3.8101 9.7553 2.15576C9.70738 2.11266 9.6478 2.08334 9.58335 2.07115C9.5189 2.05896 9.45218 2.06439 9.39079 2.08683C9.3294 2.10926 9.27583 2.1478 9.23616 2.19804C9.1965 2.24828 9.17236 2.3082 9.16648 2.37097C9.17117 3.00576 8.92002 3.61775 8.46549 4.0791C8.22291 3.21556 7.79443 2.41036 7.20765 1.71539C6.62088 1.02042 5.88883 0.451102 5.0587 0.0441305C5.00562 0.0176863 4.94614 0.00529837 4.88641 0.00823592C4.82667 0.0111735 4.76884 0.0293337 4.71885 0.0608464C4.66887 0.0923592 4.62854 0.136088 4.60203 0.187524C4.57551 0.23896 4.56378 0.296245 4.56801 0.353483C4.56801 2.41132 3.16604 3.71595 2.0024 5.42409C1.26222 6.32497 0.905603 7.46158 1.00447 8.60475C1.10334 9.74792 1.65032 10.8126 2.53515 11.5841L2.46506 11.6111Z" fill="white"/>
    </g>
    <defs>
      <clipPath id="clip0_2299_45789">
        <rect width="11.0616" height="12.5757" fill="white" transform="translate(0.921875 0.03125)"/>
      </clipPath>
    </defs>
  </svg>