<svg width="42" height="42" viewBox="0 0 42 42" fill="none" xmlns="http://www.w3.org/2000/svg">
<g filter="url(#filter0_b_2445_9809)">
<circle cx="21" cy="21" r="21" fill="#FAFAFA" fill-opacity="0.3"/>
</g>
<path d="M26.2375 8.5H15.7625C11.2125 8.5 8.5 11.2125 8.5 15.7625V26.225C8.5 30.7875 11.2125 33.5 15.7625 33.5H26.225C30.775 33.5 33.4875 30.7875 33.4875 26.2375V15.7625C33.5 11.2125 30.7875 8.5 26.2375 8.5ZM20.4125 22.9125L15.7625 27.5625H18.5C19.0125 27.5625 19.4375 27.9875 19.4375 28.5C19.4375 29.0125 19.0125 29.4375 18.5 29.4375H13.5C13.375 29.4375 13.25 29.4125 13.1375 29.3625C12.9125 29.2625 12.725 29.0875 12.625 28.85C12.5875 28.7375 12.5625 28.625 12.5625 28.5V23.5C12.5625 22.9875 12.9875 22.5625 13.5 22.5625C14.0125 22.5625 14.4375 22.9875 14.4375 23.5V26.2375L19.0875 21.5875C19.45 21.225 20.05 21.225 20.4125 21.5875C20.775 21.95 20.775 22.55 20.4125 22.9125ZM29.4375 18.5C29.4375 19.0125 29.0125 19.4375 28.5 19.4375C27.9875 19.4375 27.5625 19.0125 27.5625 18.5V15.7625L22.9125 20.4125C22.725 20.6 22.4875 20.6875 22.25 20.6875C22.0125 20.6875 21.775 20.6 21.5875 20.4125C21.225 20.05 21.225 19.45 21.5875 19.0875L26.2375 14.4375H23.5C22.9875 14.4375 22.5625 14.0125 22.5625 13.5C22.5625 12.9875 22.9875 12.5625 23.5 12.5625H28.5C28.625 12.5625 28.7375 12.5875 28.8625 12.6375C29.0875 12.7375 29.275 12.9125 29.375 13.15C29.4125 13.2625 29.4375 13.375 29.4375 13.5V18.5Z" fill="#FAFAFA"/>
<defs>
<filter id="filter0_b_2445_9809" x="-5" y="-5" width="52" height="52" filterUnits="userSpaceOnUse" color-interpolation-filters="sRGB">
<feFlood flood-opacity="0" result="BackgroundImageFix"/>
<feGaussianBlur in="BackgroundImageFix" stdDeviation="2.5"/>
<feComposite in2="SourceAlpha" operator="in" result="effect1_backgroundBlur_2445_9809"/>
<feBlend mode="normal" in="SourceGraphic" in2="effect1_backgroundBlur_2445_9809" result="shape"/>
</filter>
</defs>
</svg>
