<svg xmlns="http://www.w3.org/2000/svg" width="30" height="30" viewBox="0 0 30 30" fill="none"> 
  <path d="M9.375 10.625C9.89277 10.625 10.3125 10.2053 10.3125 9.6875C10.3125 9.16973 9.89277 8.75 9.375 8.75C8.85723 8.75 8.4375 9.16973 8.4375 9.6875C8.4375 10.2053 8.85723 10.625 9.375 10.625Z" fill="url(#paint0_linear_5172_15446)"/>
  <path d="M5.625 10.625C6.14277 10.625 6.5625 10.2053 6.5625 9.6875C6.5625 9.16973 6.14277 8.75 5.625 8.75C5.10723 8.75 4.6875 9.16973 4.6875 9.6875C4.6875 10.2053 5.10723 10.625 5.625 10.625Z" fill="url(#paint1_linear_5172_15446)"/>
  <path d="M13.125 10.625C13.6428 10.625 14.0625 10.2053 14.0625 9.6875C14.0625 9.16973 13.6428 8.75 13.125 8.75C12.6072 8.75 12.1875 9.16973 12.1875 9.6875C12.1875 10.2053 12.6072 10.625 13.125 10.625Z" fill="url(#paint2_linear_5172_15446)"/>
  <path d="M16.875 10.625C17.3928 10.625 17.8125 10.2053 17.8125 9.6875C17.8125 9.16973 17.3928 8.75 16.875 8.75C16.3572 8.75 15.9375 9.16973 15.9375 9.6875C15.9375 10.2053 16.3572 10.625 16.875 10.625Z" fill="url(#paint3_linear_5172_15446)"/>
  <path d="M29.6395 11.7611C29.5272 11.6734 29.3964 11.6125 29.257 11.5829C29.1176 11.5534 28.9734 11.556 28.8352 11.5905C27.2338 11.9908 25.6523 11.583 24 10.3437C23.8377 10.222 23.6403 10.1562 23.4375 10.1562C23.2347 10.1562 23.0373 10.222 22.875 10.3437C21.2227 11.583 19.6412 11.9909 18.0398 11.5905C17.9016 11.556 17.7574 11.5534 17.618 11.5829C17.4786 11.6125 17.3478 11.6734 17.2355 11.7611C17.1233 11.8488 17.0324 11.9609 16.97 12.0889C16.9075 12.2169 16.875 12.3575 16.875 12.5V19.0625C16.875 19.1674 16.8926 19.2716 16.9271 19.3706C17.7676 21.7856 19.7752 23.6528 23.0646 25.0789C23.1823 25.1299 23.3092 25.1563 23.4375 25.1563C23.5658 25.1563 23.6927 25.1299 23.8104 25.0789C27.0998 23.6528 29.1073 21.7856 29.9479 19.3706C29.9824 19.2716 30 19.1674 30 19.0625V12.5C30 12.3575 29.9675 12.2169 29.9051 12.0889C29.8426 11.9609 29.7518 11.8488 29.6395 11.7611ZM28.125 18.8977C27.4653 20.6375 25.9282 22.0461 23.4375 23.1921C20.9468 22.0461 19.4097 20.6374 18.75 18.8977V13.5969C20.3235 13.7099 21.8937 13.2558 23.4375 12.2397C24.9814 13.2559 26.5514 13.71 28.125 13.5969V18.8977Z" fill="url(#paint4_linear_5172_15446)"/>
  <path d="M29.0625 5H0.9375C0.68886 5 0.450403 5.09877 0.274587 5.27459C0.0987721 5.4504 0 5.68886 0 5.9375L0 13.4375C0 13.6861 0.0987721 13.9246 0.274587 14.1004C0.450403 14.2762 0.68886 14.375 0.9375 14.375H15.9375V12.5H1.875V6.875H20.625V10.5426C21.1725 10.3434 21.732 10.0292 22.3125 9.59375C22.6371 9.35033 23.0318 9.21875 23.4375 9.21875C23.8432 9.21875 24.2379 9.35033 24.5625 9.59375C25.6461 10.4065 26.6566 10.8015 27.6517 10.8014C27.9741 10.8005 28.2952 10.76 28.6078 10.681C29.0798 10.5628 29.5793 10.6335 30 10.8781V5.9375C30 5.68886 29.9012 5.4504 29.7254 5.27459C29.5496 5.09877 29.3111 5 29.0625 5Z" fill="url(#paint5_linear_5172_15446)"/>
  <path d="M19.6875 14.5378V18.719C20.2536 20.0627 21.4863 21.193 23.4375 22.1555C25.3887 21.193 26.6214 20.0627 27.1875 18.719V14.5378C25.9219 14.4585 24.666 14.0584 23.4375 13.3438C22.209 14.0584 20.9531 14.4587 19.6875 14.5378ZM26.9129 16.4458L23.6316 19.727C23.4721 19.8866 23.2603 19.9832 23.0352 19.9992C22.8101 20.0152 22.5868 19.9495 22.4062 19.8141L20.5312 18.4079L21.6563 16.9079L22.8809 17.8263L25.5872 15.12L26.9129 16.4458Z" fill="url(#paint6_linear_5172_15446)"/>
  <defs>
    <linearGradient id="paint0_linear_5172_15446" x1="9.375" y1="8.75" x2="9.375" y2="10.625" gradientUnits="userSpaceOnUse">
      <stop stop-color="#5558FF"/>
      <stop offset="1" stop-color="#00C0FF"/>
    </linearGradient>
    <linearGradient id="paint1_linear_5172_15446" x1="5.625" y1="8.75" x2="5.625" y2="10.625" gradientUnits="userSpaceOnUse">
      <stop stop-color="#5558FF"/>
      <stop offset="1" stop-color="#00C0FF"/>
    </linearGradient>
    <linearGradient id="paint2_linear_5172_15446" x1="13.125" y1="8.75" x2="13.125" y2="10.625" gradientUnits="userSpaceOnUse">
      <stop stop-color="#5558FF"/>
      <stop offset="1" stop-color="#00C0FF"/>
    </linearGradient>
    <linearGradient id="paint3_linear_5172_15446" x1="16.875" y1="8.75" x2="16.875" y2="10.625" gradientUnits="userSpaceOnUse">
      <stop stop-color="#5558FF"/>
      <stop offset="1" stop-color="#00C0FF"/>
    </linearGradient>
    <linearGradient id="paint4_linear_5172_15446" x1="23.4375" y1="10.1562" x2="23.4375" y2="25.1563" gradientUnits="userSpaceOnUse">
      <stop stop-color="#5558FF"/>
      <stop offset="1" stop-color="#00C0FF"/>
    </linearGradient>
    <linearGradient id="paint5_linear_5172_15446" x1="15" y1="5" x2="15" y2="14.375" gradientUnits="userSpaceOnUse">
      <stop stop-color="#5558FF"/>
      <stop offset="1" stop-color="#00C0FF"/>
    </linearGradient>
    <linearGradient id="paint6_linear_5172_15446" x1="23.4375" y1="13.3438" x2="23.4375" y2="22.1555" gradientUnits="userSpaceOnUse">
      <stop stop-color="#5558FF"/>
      <stop offset="1" stop-color="#00C0FF"/>
    </linearGradient>
  </defs>
</svg>
