<svg xmlns="http://www.w3.org/2000/svg" width="30" height="30" viewBox="0 0 30 30" fill="none"> 
  <g clip-path="url(#clip0_5172_15464)">
    <path d="M29.6624 0.708984C29.3328 0.251777 28.8046 0 28.1748 0C27.8791 0 27.5621 0.0557227 27.2328 0.165586L1.71942 8.67C0.838168 8.96373 0.230786 9.56402 0.0529535 10.3171C-0.124879 11.0702 0.149868 11.8789 0.806762 12.536C0.870981 12.6002 0.944809 12.6541 1.02555 12.6958L11.767 18.2327L17.3042 28.9743C17.3458 29.0549 17.3997 29.1288 17.4639 29.193C17.9918 29.7209 18.6006 30 19.2246 30.0001H19.2248C20.1698 30.0001 20.9765 29.341 21.3299 28.2804L29.8345 2.76709C30.1018 1.96471 30.0407 1.23381 29.6624 0.708984ZM1.76372 10.7211C1.79735 10.5785 1.9934 10.4316 2.27524 10.3376L26.4912 2.26564L12.2519 16.5049L1.96633 11.2031C1.81141 11.022 1.73483 10.8434 1.76372 10.7211ZM19.6622 27.7246C19.5788 27.9748 19.4201 28.2422 19.2248 28.2422C19.1064 28.2422 18.9515 28.1656 18.7969 28.0334L13.4948 17.7479L27.7345 3.50824L19.6622 27.7246Z" fill="url(#paint0_linear_5172_15464)"/>
  </g>
  <defs>
    <linearGradient id="paint0_linear_5172_15464" x1="14.9992" y1="0" x2="14.9992" y2="30.0001" gradientUnits="userSpaceOnUse">
      <stop stop-color="#5558FF"/>
      <stop offset="1" stop-color="#00C0FF"/>
    </linearGradient>
    <clipPath id="clip0_5172_15464">
      <rect width="30" height="30" fill="white"/>
    </clipPath>
  </defs>
</svg>
