<svg xmlns="http://www.w3.org/2000/svg" width="30" height="30" viewBox="0 0 30 30" fill="none"> 
  <path d="M19.215 13.9104C21.1346 12.5105 22.3846 10.2448 22.3846 7.6923C22.3846 3.45076 18.9338 0 14.6923 0C10.4507 0 6.99998 3.45076 6.99998 7.6923C6.99998 10.2448 8.24996 12.5105 10.1696 13.9104C5.39773 15.7365 2 20.3631 2 25.7692C2 28.1021 3.89791 30 6.23076 30H23.1538C25.4867 30 27.3846 28.1021 27.3846 25.7692C27.3846 20.3631 23.9868 15.7365 19.215 13.9104ZM9.3077 7.6923C9.3077 4.72324 11.7232 2.30771 14.6923 2.30771C17.6613 2.30771 20.0769 4.72324 20.0769 7.6923C20.0769 10.6614 17.6613 13.077 14.6923 13.077C11.7232 13.077 9.3077 10.6614 9.3077 7.6923ZM23.1538 27.6923H6.23076C5.17039 27.6923 4.30771 26.8296 4.30771 25.7692C4.30771 20.043 8.96615 15.3846 14.6923 15.3846C20.4185 15.3846 25.077 20.043 25.077 25.7692C25.0769 26.8296 24.2142 27.6923 23.1538 27.6923Z" fill="url(#paint0_linear_5172_12930)"/>
  <defs>
    <linearGradient id="paint0_linear_5172_12930" x1="14.6923" y1="0" x2="14.6923" y2="30" gradientUnits="userSpaceOnUse">
      <stop stop-color="#5558FF"/>
      <stop offset="1" stop-color="#00C0FF"/>
    </linearGradient>
  </defs>
</svg>
