<svg xmlns="http://www.w3.org/2000/svg" width="30" height="30" viewBox="0 0 30 30" fill="none"> 
  <path d="M20.875 13.5H9.625C9.46084 13.5 9.29827 13.4677 9.1466 13.4049C8.99492 13.3421 8.8571 13.2501 8.74102 13.134C8.62494 13.0179 8.53287 12.8801 8.47006 12.7284C8.40726 12.5767 8.37496 12.4142 8.375 12.25V7.875C8.375 6.05164 9.09933 4.30295 10.3886 3.01364C11.678 1.72433 13.4266 1 15.25 1C17.0734 1 18.822 1.72433 20.1114 3.01364C21.4007 4.30295 22.125 6.05164 22.125 7.875V12.25C22.125 12.4142 22.0927 12.5767 22.0299 12.7284C21.9671 12.8801 21.8751 13.0179 21.759 13.134C21.6429 13.2501 21.5051 13.3421 21.3534 13.4049C21.2017 13.4677 21.0392 13.5 20.875 13.5ZM10.875 11H19.625V7.875C19.625 6.71468 19.1641 5.60188 18.3436 4.78141C17.5231 3.96094 16.4103 3.5 15.25 3.5C14.0897 3.5 12.9769 3.96094 12.1564 4.78141C11.3359 5.60188 10.875 6.71468 10.875 7.875V11Z" fill="url(#paint0_linear_5172_12940)"/>
  <path d="M21.5 11H9C7.67435 11.0014 6.4034 11.5287 5.46603 12.466C4.52865 13.4034 4.00141 14.6744 4 16V23.5C4.00141 24.8256 4.52865 26.0966 5.46603 27.034C6.4034 27.9713 7.67435 28.4986 9 28.5H21.5C22.8256 28.4986 24.0966 27.9713 25.034 27.034C25.9713 26.0966 26.4986 24.8256 26.5 23.5V16C26.4986 14.6744 25.9713 13.4034 25.034 12.466C24.0966 11.5287 22.8256 11.0014 21.5 11ZM15.25 21C14.7555 21 14.2722 20.8534 13.8611 20.5787C13.45 20.304 13.1295 19.9135 12.9403 19.4567C12.7511 18.9999 12.7016 18.4972 12.798 18.0123C12.8945 17.5273 13.1326 17.0819 13.4822 16.7322C13.8319 16.3826 14.2773 16.1445 14.7623 16.048C15.2472 15.9516 15.7499 16.0011 16.2067 16.1903C16.6635 16.3795 17.054 16.7 17.3287 17.1111C17.6034 17.5222 17.75 18.0055 17.75 18.5C17.75 19.163 17.4866 19.7989 17.0177 20.2677C16.5489 20.7366 15.913 21 15.25 21Z" fill="url(#paint1_linear_5172_12940)"/>
  <defs>
    <linearGradient id="paint0_linear_5172_12940" x1="15.25" y1="1" x2="15.25" y2="13.5" gradientUnits="userSpaceOnUse">
      <stop stop-color="#5558FF"/>
      <stop offset="1" stop-color="#00C0FF"/>
    </linearGradient>
    <linearGradient id="paint1_linear_5172_12940" x1="15.25" y1="11" x2="15.25" y2="28.5" gradientUnits="userSpaceOnUse">
      <stop stop-color="#5558FF"/>
      <stop offset="1" stop-color="#00C0FF"/>
    </linearGradient>
  </defs>
</svg>
