<svg xmlns="http://www.w3.org/2000/svg" width="30" height="30" viewBox="0 0 30 30" fill="none"> 
  <path d="M28.4415 22.3087C28.3637 22.0744 27.8688 21.7291 26.9572 21.2737C26.7102 21.1302 26.3583 20.9352 25.9029 20.6877C25.4472 20.4403 25.0335 20.2122 24.6626 20.0039C24.291 19.7955 23.9428 19.5937 23.6175 19.3987C23.5655 19.3596 23.4028 19.2458 23.1294 19.0566C22.8556 18.8679 22.6248 18.7279 22.4356 18.6366C22.2469 18.5458 22.0612 18.5001 21.8789 18.5001C21.6185 18.5001 21.2933 18.6858 20.9028 19.0566C20.5123 19.428 20.1541 19.8313 19.8287 20.2679C19.5033 20.7043 19.1581 21.1077 18.7939 21.4788C18.4291 21.8501 18.1294 22.0356 17.8953 22.0356C17.7778 22.0356 17.6313 22.0028 17.4556 21.9382C17.2801 21.8731 17.1466 21.8173 17.0549 21.7724C16.964 21.7265 16.8081 21.6356 16.5866 21.4985C16.3647 21.3617 16.2413 21.2868 16.2153 21.2737C14.4314 20.2839 12.9015 19.151 11.6253 17.8753C10.3494 16.5988 9.21639 15.0691 8.22681 13.285C8.21381 13.2589 8.13876 13.1352 8.00214 12.9139C7.86532 12.6925 7.77412 12.5364 7.72856 12.445C7.683 12.354 7.62765 12.2204 7.56266 12.0447C7.49767 11.8689 7.46504 11.7225 7.46504 11.6052C7.46504 11.371 7.65064 11.0713 8.02178 10.7067C8.39285 10.3423 8.79662 9.99705 9.23268 9.67175C9.66908 9.34645 10.0724 8.98824 10.4436 8.59774C10.8147 8.20704 11.0002 7.88167 11.0002 7.62129C11.0002 7.43911 10.9547 7.25337 10.8636 7.06462C10.7725 6.87546 10.6325 6.64464 10.4436 6.37105C10.2547 6.09761 10.1408 5.93499 10.1017 5.88266C9.90654 5.55736 9.70493 5.20907 9.49634 4.83793C9.28775 4.46686 9.06007 4.05324 8.81256 3.59755C8.56525 3.14206 8.37006 2.79035 8.22667 2.54297C7.77118 1.63165 7.42618 1.13662 7.19173 1.05877C7.10054 1.0197 6.96371 1 6.7816 1C6.42982 1 5.97091 1.06499 5.40452 1.19539C4.83793 1.32557 4.39209 1.46213 4.06652 1.60559C3.41544 1.87889 2.72536 2.67316 1.99608 3.98812C1.33201 5.21188 1 6.42312 1 7.62095C1 7.97225 1.02278 8.31403 1.06834 8.64638C1.11391 8.97839 1.19532 9.35281 1.31264 9.76958C1.42977 10.1862 1.52424 10.4957 1.59567 10.6972C1.66716 10.8989 1.80063 11.2602 1.99602 11.7812C2.19113 12.3021 2.30845 12.621 2.34752 12.7382C2.80321 14.0144 3.3436 15.1536 3.96855 16.1563C4.99679 17.823 6.39999 19.5454 8.17735 21.3229C9.95477 23.1003 11.6768 24.5034 13.3436 25.5321C14.3462 26.1569 15.4859 26.6973 16.7619 27.1533C16.8791 27.1922 17.198 27.3092 17.7187 27.505C18.2396 27.7003 18.601 27.8337 18.8027 27.9054C19.0044 27.977 19.314 28.0716 19.7303 28.1889C20.1475 28.3062 20.5215 28.3877 20.8535 28.4336C21.1858 28.4785 21.5276 28.5017 21.879 28.5017C23.0767 28.5017 24.288 28.1695 25.512 27.5055C26.8268 26.7765 27.6209 26.0863 27.8943 25.4347C28.0381 25.1095 28.1744 24.6635 28.3045 24.0969C28.4351 23.5306 28.5 23.0717 28.5 22.72C28.5004 22.5372 28.4808 22.4007 28.4415 22.3087Z" fill="url(#paint0_linear_5172_14170)"/>
  <defs>
    <linearGradient id="paint0_linear_5172_14170" x1="14.75" y1="1" x2="14.75" y2="28.5017" gradientUnits="userSpaceOnUse">
      <stop stop-color="#5558FF"/>
      <stop offset="1" stop-color="#00C0FF"/>
    </linearGradient>
  </defs>
</svg>
