<svg xmlns="http://www.w3.org/2000/svg" width="30" height="30" viewBox="0 0 30 30" fill="none"> 
  <path d="M15 6C9.26818 6 4.07027 9.13593 0.234735 14.2295C-0.0782449 14.6468 -0.0782449 15.2298 0.234735 15.6471C4.07027 20.7469 9.26818 23.8828 15 23.8828C20.7318 23.8828 25.9297 20.7469 29.7653 15.6533C30.0782 15.236 30.0782 14.653 29.7653 14.2357C25.9297 9.13593 20.7318 6 15 6ZM15.4112 21.2378C11.6063 21.4771 8.46425 18.3412 8.70359 14.5302C8.89997 11.3882 11.4468 8.84136 14.5888 8.64498C18.3937 8.40565 21.5357 11.5416 21.2964 15.3526C21.0939 18.4885 18.5471 21.0353 15.4112 21.2378ZM15.2209 18.3289C13.1712 18.4578 11.4774 16.7702 11.6125 14.7205C11.7168 13.0267 13.0914 11.6582 14.7852 11.5477C16.8349 11.4188 18.5287 13.1065 18.3937 15.1562C18.2832 16.8561 16.9086 18.2246 15.2209 18.3289Z" fill="url(#paint0_linear_5172_14144)"/>
  <defs>
    <linearGradient id="paint0_linear_5172_14144" x1="15" y1="6" x2="15" y2="23.8828" gradientUnits="userSpaceOnUse">
      <stop stop-color="#5558FF"/>
      <stop offset="1" stop-color="#00C0FF"/>
    </linearGradient>
  </defs>
</svg>
