<svg fill="none" height="20" viewBox="0 0 128 20" width="128" xmlns="http://www.w3.org/2000/svg"><g fill="#e80000"><path d="m9.98703 0 2.24227 6.90983h7.256l-5.8703 4.27047 2.2423 6.9099-5.87027-4.2705-5.87023 4.2705 2.24223-6.9099-5.87023-4.27047h7.256z"/><path d="m36.9636 0 2.2422 6.90983h7.256l-5.8702 4.27047 2.2422 6.9099-5.8702-4.2705-5.8702 4.2705 2.2422-6.9099-5.8702-4.27047h7.256z"/><path d="m63.9323 0 2.2423 6.90983h7.256l-5.8703 4.27047 2.2423 6.9099-5.8703-4.2705-5.8702 4.2705 2.2422-6.9099-5.8702-4.27047h7.256z"/><path d="m90.9089 0 2.2422 6.90983h7.2559l-5.8701 4.27047 2.2422 6.9099-5.8702-4.2705-5.8702 4.2705 2.2422-6.9099-5.8702-4.27047h7.256z"/><path d="m117.885 0 2.243 6.90983h7.256l-5.871 4.27047 2.243 6.9099-5.871-4.2705-5.87 4.2705 2.242-6.9099-5.87-4.27047h7.256z"/></g></svg>