<svg fill="none" height="31" viewBox="0 0 31 31" width="31" xmlns="http://www.w3.org/2000/svg"><g fill="#fff"><path d="m30.5309 7.01825c-.2331-.46358-.6049-.84051-1.0622-1.07678-.5208-.26569-1.0553-.26569-1.9382-.26569h-23.45198c-.88635 0-1.42096.00001-1.94173.26919-.45803.23528-.83008.61249-1.06218 1.07678-.262107.52439-.26211 1.04877-.26211 1.9647v2.54855c0 .8984.000003 1.4403.26211 1.9647.2321.4643.60415.8415 1.06218 1.0767.46044.2066.96321.2978 1.46575.2657v9.9914c0 1.6955-.00002 2.6289.41729 3.4574.36504.7315.95113 1.3255 1.67271 1.6956.81737.423 1.72441.423 3.41088.423h13.39868c1.6726 0 2.5935 0 3.4108-.423.7216-.3701 1.3077-.9641 1.6727-1.6956.4173-.8285.4174-1.7479.4174-3.4574v-9.9914c.5014.0328 1.0032-.0584 1.4622-.2657.4581-.2352.8302-.6124 1.0623-1.0767.2655-.5244.2655-1.0488.2655-1.9647v-2.54855c-.0034-.89845-.0034-1.44032-.2621-1.9682zm-27.59051 5.53405c-.04299-.3373-.05688-.6777-.04142-1.0173v-2.54855c-.01443-.33842-.00171-.67748.03797-1.01382.03256-.06763.08576-.12283.15173-.15734.33385-.04356.67086-.0576 1.00711-.04195h10.69132v4.97476h-10.69132c-.33386.0146-.6684.0017-1.00021-.0385-.07496-.03-.1372-.0857-.17589-.1573zm3.70748 15.5638c-.33104-.1711-.60022-.444-.76908-.7795-.18968-.3776-.1897-1.1327-.1897-2.5031v-9.9879h9.09451v13.4663h-5.66292c-1.37262 0-2.1176 0-2.49352-.1958zm19.10993-.776c-.1678.3343-.4359.606-.7657.776-.3759.1958-1.1208.1958-2.4728.1958h-5.6664v-13.4663h9.098v9.9879c-.0207 1.3704-.0207 2.1255-.2138 2.5066zm2.9832-15.8051c.0143.3384.0016.6774-.038 1.0138-.0334.0682-.0879.1234-.1552.1573-.3327.0435-.6685.0575-1.0036.042h-10.6913v-4.95727h10.6913c.3339-.01449.6684-.00163 1.0002.03845.0667.03301.1211.08698.1552.15385.0429.33841.0568.67994.0414 1.02078z"/><path d="m23.4058 1.14317c-.3495-.360302-.766-.646845-1.2253-.843059-.4594-.196214-.9526-.29821651-1.451-.300111-2.5384 0-4.0627 1.87032-4.9353 3.6078-.8691-1.74797-2.3935-3.6078-4.9352-3.6078-.4985.00189449-.99165.103897-1.45101.300111s-.87584.482757-1.22532.843059c-.7065.7293-1.10058 1.7117-1.0967 2.73382-.00442 1.02326.38968 2.00695 1.0967 2.73732.3484.36662.7655.65905 1.22683.86015.46134.2011.9576.30682 1.4598.31097h9.8705c.4985-.00189.9917-.10387 1.451-.30009.4594-.19621.8758-.48278 1.2253-.84308.7093-.72917 1.1048-1.71332 1.1002-2.7373.0043-.51191-.0917-1.01961-.2823-1.49368s-.4721-.9051-.8282-1.26811zm-12.5365 4.54471c-.224-.00077-.4455-.04694-.6516-.1358-.2062-.08885-.39265-.21859-.54857-.38159-.32452-.33895-.50525-.7932-.50351-1.26553-.00028-.47204.18023-.92576.50351-1.26552.15609-.16253.34267-.29174.54877-.38.2062-.08826.4277-.1338.6514-.13391 1.9658 0 3.0522 2.13601 3.5592 3.56235zm11.0707-.51739c-.1557.16332-.3421.29327-.5483.38215s-.4278.13487-.6519.13524h-3.5523c.5139-1.42634 1.6072-3.56235 3.5523-3.56235.2238-.00028.4455.04507.6516.13336.2062.08828.3928.2177.5486.38055.3242.33941.506.79306.507 1.26552-.0068.46817-.1922.91545-.5174 1.24803z"/><path d="m23.4058 1.14317c-.3495-.360302-.766-.646845-1.2253-.843059-.4594-.196214-.9526-.29821651-1.451-.300111-2.5384 0-4.0627 1.87032-4.9353 3.6078-.8691-1.74797-2.3935-3.6078-4.9352-3.6078-.4985.00189449-.99165.103897-1.45101.300111s-.87584.482757-1.22532.843059c-.7065.7293-1.10058 1.7117-1.0967 2.73382-.00442 1.02326.38968 2.00695 1.0967 2.73732.3484.36662.7655.65905 1.22683.86015.46134.2011.9576.30682 1.4598.31097h9.8705c.4985-.00189.9917-.10387 1.451-.30009.4594-.19621.8758-.48278 1.2253-.84308.7093-.72917 1.1048-1.71332 1.1002-2.7373.0043-.51191-.0917-1.01961-.2823-1.49368s-.4721-.9051-.8282-1.26811zm-12.5365 4.54471c-.224-.00077-.4455-.04694-.6516-.1358-.2062-.08885-.39265-.21859-.54857-.38159-.32452-.33895-.50525-.7932-.50351-1.26553-.00028-.47204.18023-.92576.50351-1.26552.15609-.16253.34267-.29174.54877-.38.2062-.08826.4277-.1338.6514-.13391 1.9658 0 3.0522 2.13601 3.5592 3.56235zm11.0707-.51739c-.1557.16332-.3421.29327-.5483.38215s-.4278.13487-.6519.13524h-3.5523c.5139-1.42634 1.6072-3.56235 3.5523-3.56235.2238-.00028.4455.04507.6516.13336.2062.08828.3928.2177.5486.38055.3242.33941.506.79306.507 1.26552-.0068.46817-.1922.91545-.5174 1.24803z"/></g></svg>