<svg fill="none" height="31" viewBox="0 0 31 31" width="31" xmlns="http://www.w3.org/2000/svg"><path d="m30.6794 7.01825c-.2331-.46358-.6049-.84051-1.0623-1.07678-.5207-.26569-1.0553-.26569-1.9382-.26569h-23.45194c-.88635 0-1.42096.00001-1.94173.26919-.45804.23528-.83008.61249-1.06218 1.07678-.262109.52439-.262112 1.04877-.262112 1.9647v2.54855c0 .8984.000003 1.4403.262112 1.9647.2321.4643.60414.8415 1.06218 1.0767.46044.2066.9632.2978 1.46575.2657v9.9914c0 1.6955-.00002 2.6289.41729 3.4574.36503.7315.95113 1.3255 1.67271 1.6956.81737.423 1.72441.423 3.41088.423h13.39864c1.6727 0 2.5935 0 3.4109-.423.7216-.3701 1.3076-.9641 1.6727-1.6956.4173-.8285.4173-1.7479.4173-3.4574v-9.9914c.5015.0328 1.0033-.0584 1.4623-.2657.458-.2352.8301-.6124 1.0622-1.0767.2656-.5244.2656-1.0488.2656-1.9647v-2.54855c-.0035-.89845-.0035-1.44032-.2621-1.9682zm-27.59057 5.53405c-.043-.3373-.05688-.6777-.04143-1.0173v-2.54855c-.01443-.33842-.0017-.67748.03798-1.01382.03256-.06763.08576-.12283.15173-.15734.33385-.04356.67086-.0576 1.00711-.04195h10.69128v4.97476h-10.69128c-.33387.0146-.6684.0017-1.00021-.0385-.07496-.03-.1372-.0857-.17589-.1573zm3.70748 15.5638c-.33104-.1711-.60022-.444-.76908-.7795-.18969-.3776-.1897-1.1327-.1897-2.5031v-9.9879h9.09457v13.4663h-5.66298c-1.37263 0-2.11761 0-2.49353-.1958zm19.10989-.776c-.1678.3343-.4359.606-.7657.776-.3759.1958-1.1208.1958-2.4727.1958h-5.6665v-13.4663h9.098v9.9879c-.0207 1.3704-.0207 2.1255-.2138 2.5066zm2.9832-15.8051c.0143.3384.0016.6774-.0379 1.0138-.0335.0682-.088.1234-.1552.1573-.3327.0435-.6685.0575-1.0036.042h-10.6914v-4.95727h10.6914c.3338-.01449.6683-.00163 1.0001.03845.0668.03301.1212.08698.1552.15385.043.33841.0569.67994.0414 1.02078z" fill="#6c7aab"/><g fill="#35c0ff"><path d="m23.5542 1.14317c-.3495-.360302-.7659-.646845-1.2253-.843059-.4593-.196214-.9525-.29821651-1.451-.300111-2.5383 0-4.0627 1.87032-4.9352 3.6078-.8691-1.74797-2.3935-3.6078-4.9353-3.6078-.4985.00189449-.9916.103897-1.45097.300111-.45936.196214-.87584.482757-1.22532.843059-.7065.7293-1.10059 1.7117-1.0967 2.73382-.00442 1.02326.38968 2.00695 1.0967 2.73732.34839.36662.76549.65905 1.22683.86015.46136.2011.95766.30682 1.45986.31097h9.8705c.4984-.00189.9916-.10387 1.451-.30009.4593-.19621.8758-.48278 1.2252-.84308.7093-.72917 1.1048-1.71332 1.1002-2.7373.0043-.51191-.0916-1.01961-.2822-1.49368-.1907-.47407-.4722-.9051-.8283-1.26811zm-12.5364 4.54471c-.224-.00077-.4456-.04694-.6517-.1358-.2061-.08885-.39262-.21859-.54853-.38159-.32453-.33895-.50525-.7932-.50351-1.26553-.00028-.47204.18023-.92576.50351-1.26552.15608-.16253.34273-.29174.54883-.38s.4276-.1338.6514-.13391c1.9658 0 3.0521 2.13601 3.5591 3.56235zm11.0706-.51739c-.1556.16332-.3421.29327-.5483.38215-.2061.08888-.4278.13487-.6518.13524h-3.5523c.5138-1.42634 1.6071-3.56235 3.5523-3.56235.2238-.00028.4454.04507.6516.13336.2062.08828.3927.2177.5485.38055.3243.33941.506.79306.507 1.26552-.0068.46817-.1922.91545-.5173 1.24803z"/><path d="m23.5542 1.14317c-.3495-.360302-.7659-.646845-1.2253-.843059-.4593-.196214-.9525-.29821651-1.451-.300111-2.5383 0-4.0627 1.87032-4.9352 3.6078-.8691-1.74797-2.3935-3.6078-4.9353-3.6078-.4985.00189449-.9916.103897-1.45097.300111-.45936.196214-.87584.482757-1.22532.843059-.7065.7293-1.10059 1.7117-1.0967 2.73382-.00442 1.02326.38968 2.00695 1.0967 2.73732.34839.36662.76549.65905 1.22683.86015.46136.2011.95766.30682 1.45986.31097h9.8705c.4984-.00189.9916-.10387 1.451-.30009.4593-.19621.8758-.48278 1.2252-.84308.7093-.72917 1.1048-1.71332 1.1002-2.7373.0043-.51191-.0916-1.01961-.2822-1.49368-.1907-.47407-.4722-.9051-.8283-1.26811zm-12.5364 4.54471c-.224-.00077-.4456-.04694-.6517-.1358-.2061-.08885-.39262-.21859-.54853-.38159-.32453-.33895-.50525-.7932-.50351-1.26553-.00028-.47204.18023-.92576.50351-1.26552.15608-.16253.34273-.29174.54883-.38s.4276-.1338.6514-.13391c1.9658 0 3.0521 2.13601 3.5591 3.56235zm11.0706-.51739c-.1556.16332-.3421.29327-.5483.38215-.2061.08888-.4278.13487-.6518.13524h-3.5523c.5138-1.42634 1.6071-3.56235 3.5523-3.56235.2238-.00028.4454.04507.6516.13336.2062.08828.3927.2177.5485.38055.3243.33941.506.79306.507 1.26552-.0068.46817-.1922.91545-.5173 1.24803z"/></g></svg>