<svg fill="none" height="19" viewBox="0 0 16 19" width="16" xmlns="http://www.w3.org/2000/svg"><path d="m15.3609 10.2075c-.4438-2.06011-1.9421-3.27418-2.6414-3.9489-1.2017-1.25637-2.5202-2.80463-3.20873-6.2586-.78161.486474-1.99624 1.27118-3.17407 3.20862-.75779 1.24368-1.03709 2.44083-1.17349 3.24034-.20786-.10999-.77945-.4484-1.14102-1.16119-.37457-.74241-.29013-1.42982-.25332-1.65825-.90286 1.38751-1.57621 2.60581-2.05904 3.5555-.61922 1.21407-.946154 2.01358-1.112869 3.02458 0 0-.112586.6705-.112586 1.3008 0 4.1372 3.358105 7.4896 7.499985 7.4896 4.14184 0 7.49994-3.3524 7.49994-7.4896.0022-.6662-.1234-1.3029-.1234-1.3029zm-7.35705 6.8191c-1.30557 0-2.36648-1.0512-2.36648-2.3435-.00217-1.2945 2.36648-3.8115 2.36648-3.8115s2.34045 2.6376 2.34045 3.9341c-.0021 1.2945-1.03488 2.2209-2.34045 2.2209z"/></svg>