<svg fill="none" height="20" viewBox="0 0 15 20" width="15" xmlns="http://www.w3.org/2000/svg"><path d="m1.64912 20h11.85808c.4911 0 .8893-.407.8893-.9091v-10.30302c0-.50206-.3982-.90909-.8893-.90909h-.8894v-2.72727c0-2.84055-2.2608-5.15152-5.03965-5.15152-2.77888 0-5.03967 2.31097-5.03967 5.15152v2.72727h-.88936c-.49116 0-.889354.40703-.889354.90909v10.30302c0 .5021.398194.9091.889354.9091zm6.81839-5.7584v1.2129c0 .5021-.3982.9091-.88936.9091s-.88935-.407-.88935-.9091v-1.2129c-.35978-.2767-.59291-.7166-.59291-1.2113 0-.8355.66495-1.5151 1.48226-1.5151.81732 0 1.48226.6796 1.48226 1.5151 0 .4947-.23313.9346-.5929 1.2113zm-4.15033-9.09008c0-1.838 1.46288-3.33334 3.26097-3.33334 1.7981 0 3.26095 1.49534 3.26095 3.33334v2.72727h-6.52192z" fill="#a4afd5"/></svg>