<svg width="34" height="36" viewBox="0 0 34 36" fill="none" xmlns="http://www.w3.org/2000/svg">
<path d="M32.1182 19.2735C31.0007 19.1035 30.0083 19.8694 29.8481 20.9615C29.4456 23.7043 28.1797 26.2068 26.187 28.1995C21.1155 33.271 12.8697 33.267 7.80018 28.1995C2.73165 23.1299 2.73165 14.8811 7.80018 9.8126C9.7068 7.90698 12.1137 6.6645 14.8075 6.2122C15.966 5.99235 17.2115 5.95434 18.5037 6.10078C20.2781 6.30502 21.9297 6.89375 23.4368 7.75814L20.8325 8.20284C19.7444 8.38948 19.0117 9.42291 19.1993 10.512C19.3653 11.4868 20.2113 12.1753 21.1685 12.1753C21.28 12.1753 21.3932 12.1665 21.5084 12.1469L28.4904 10.9533C29.0119 10.8634 29.4788 10.5704 29.7856 10.1367C30.0923 9.70397 30.2135 9.16666 30.1235 8.64314L28.9279 1.66219C28.7442 0.574153 27.7244 -0.154608 26.6187 0.0280325C25.5307 0.214674 24.7979 1.2491 24.9856 2.33814L25.3002 4.17555C23.364 3.08931 21.2281 2.38656 18.9588 2.1253C17.2593 1.93185 15.6105 1.98567 14.1014 2.27473C10.627 2.85686 7.4701 4.48522 4.97135 6.98377C-1.65712 13.6122 -1.65712 24.3978 4.97135 31.0281C8.28548 34.3432 12.64 36 16.9936 36C21.3482 36 25.7005 34.3434 29.0159 31.0281C31.62 28.4239 33.2766 25.144 33.8059 21.5436C33.9664 20.4496 33.2102 19.4335 32.1182 19.2735Z" fill="white"/>
<path d="M32.1182 19.2735C31.0007 19.1035 30.0083 19.8694 29.8481 20.9615C29.4456 23.7043 28.1797 26.2068 26.187 28.1995C21.1155 33.271 12.8697 33.267 7.80018 28.1995C2.73165 23.1299 2.73165 14.8811 7.80018 9.8126C9.7068 7.90698 12.1137 6.6645 14.8075 6.2122C15.966 5.99235 17.2115 5.95434 18.5037 6.10078C20.2781 6.30502 21.9297 6.89375 23.4368 7.75814L20.8325 8.20284C19.7444 8.38948 19.0117 9.42291 19.1993 10.512C19.3653 11.4868 20.2113 12.1753 21.1685 12.1753C21.28 12.1753 21.3932 12.1665 21.5084 12.1469L28.4904 10.9533C29.0119 10.8634 29.4788 10.5704 29.7856 10.1367C30.0923 9.70397 30.2135 9.16666 30.1235 8.64314L28.9279 1.66219C28.7442 0.574153 27.7244 -0.154608 26.6187 0.0280325C25.5307 0.214674 24.7979 1.2491 24.9856 2.33814L25.3002 4.17555C23.364 3.08931 21.2281 2.38656 18.9588 2.1253C17.2593 1.93185 15.6105 1.98567 14.1014 2.27473C10.627 2.85686 7.4701 4.48522 4.97135 6.98377C-1.65712 13.6122 -1.65712 24.3978 4.97135 31.0281C8.28548 34.3432 12.64 36 16.9936 36C21.3482 36 25.7005 34.3434 29.0159 31.0281C31.62 28.4239 33.2766 25.144 33.8059 21.5436C33.9664 20.4496 33.2102 19.4335 32.1182 19.2735Z" fill="#35C0FF"/>
</svg>
