<svg width="23" height="23" viewBox="0 0 23 23" fill="none" xmlns="http://www.w3.org/2000/svg">
<path d="M19.0445 6.27234C19.0497 6.15536 19.0602 6.03974 19.0602 5.92275C19.0616 5.01546 19.0537 4.10817 19.0629 3.20088C19.0694 2.59148 19.3072 2.20245 19.725 2.06779C20.3688 1.86103 20.9836 2.31399 20.9928 3.02405C21.006 4.14626 20.9968 5.26847 20.9981 6.39204C20.9981 7.25445 21.0007 8.11549 20.9981 8.97789C20.9955 9.71787 20.6289 10.1314 19.9142 10.1368C18.0197 10.1518 16.1265 10.1477 14.232 10.1368C13.8353 10.1341 13.4648 9.98856 13.2769 9.59273C13.1009 9.22138 13.1337 8.83778 13.3846 8.50316C13.6106 8.20118 13.9377 8.11685 14.2898 8.11685C15.3304 8.11549 16.3696 8.11685 17.4101 8.11685C17.527 8.11685 17.644 8.11685 17.753 8.11685C17.7661 8.05836 17.7806 8.02843 17.7727 8.01755C16.6888 6.5988 15.5642 5.24127 13.8681 4.54617C12.2719 3.89189 10.6611 3.85516 9.05043 4.37478C6.57918 5.17189 4.93957 6.90486 4.23537 9.46214C3.4852 12.1854 4.08692 14.6447 5.99455 16.7055C7.66963 18.5147 9.75331 19.2165 12.1339 18.9391C13.1376 18.8221 14.0862 18.4643 14.9546 17.9066C15.2056 17.7461 15.4526 17.5747 15.7153 17.4387C16.1042 17.236 16.5785 17.3734 16.8544 17.742C17.1119 18.0875 17.1263 18.6248 16.8163 18.9268C16.5102 19.2261 16.1594 19.4927 15.7941 19.7117C14.0599 20.7536 12.2101 21.1821 10.1947 20.9291C8.15837 20.6734 6.38606 19.864 4.88702 18.4358C3.48782 17.1013 2.62729 15.4323 2.21082 13.5143C1.96776 12.3962 1.9428 11.2645 2.0952 10.1382C2.26862 8.85955 2.70743 7.67068 3.34725 6.55663C4.52178 4.51081 6.25074 3.18048 8.39616 2.4541C10.0791 1.88415 11.8094 1.85967 13.5384 2.33031C15.6943 2.91659 17.3431 4.25372 18.7147 6.01525C18.7935 6.11591 18.8829 6.20705 18.967 6.30227C18.9906 6.29138 19.0182 6.28186 19.0445 6.27234Z" fill="currentColor"/>
</svg>
