<svg width="36" height="35" viewBox="0 0 36 35" fill="none" xmlns="http://www.w3.org/2000/svg">
<g id="icon" clip-path="url(#clip0_1788_11548)">
<g id="Group 40161">
<path id="Vector" d="M35.5543 12.8015C33.9153 14.3709 32.4461 16.0714 31.451 18.1516C30.6866 19.7341 30.3071 21.4794 30.3441 23.2414C30.3626 24.3495 30.5913 25.3995 30.9548 26.4312C30.9751 26.4892 30.9961 26.5469 31.0286 26.6356C30.939 26.6559 30.8481 26.6698 30.7566 26.6772C29.2892 26.6911 27.8215 26.7102 26.3538 26.7109C25.2546 26.7109 24.1555 26.6862 23.0563 26.6735C22.8866 26.6735 22.7884 26.6259 22.7741 26.4244C22.6612 24.821 22.6726 23.2276 23.0357 21.6495C23.1659 21.0826 23.4334 20.6183 23.8278 20.2048C24.8558 19.1275 25.9889 18.173 27.1485 17.2495C27.7038 16.8073 28.2713 16.3807 28.8328 15.9467C28.8561 15.9287 28.8779 15.9093 28.9373 15.8583C27.9156 15.8033 26.9865 15.5213 26.0472 15.1996C26.0741 15.1528 26.094 15.1113 26.1209 15.0746C26.9382 13.9388 27.8864 12.9195 28.8539 11.9178C28.882 11.8942 28.9147 11.8769 28.9499 11.8671C28.9851 11.8573 29.0219 11.8552 29.0579 11.8609C29.9863 12.0522 30.9388 12.0929 31.8798 11.9814C32.6682 11.8912 33.36 11.565 34.0293 11.0078C34.0524 11.0642 34.0821 11.1175 34.1179 11.1666C34.5469 11.6546 34.9783 12.1407 35.4122 12.6248C35.4565 12.6742 35.5085 12.7169 35.5569 12.7626L35.5543 12.8015Z" fill=""/>
<path id="Vector_2" d="M6.47656 15.8301V7.45312H10.4909C10.4909 7.51341 10.4876 7.57296 10.4909 7.63212C10.5134 7.99199 10.8193 8.21892 11.155 8.1107C11.5288 7.99049 11.893 7.84033 12.2689 7.72649C13.1043 7.4726 13.9529 7.48982 14.8052 7.62726C16.0029 7.82011 17.1533 8.19907 18.317 8.52599C19.28 8.79823 20.2356 9.11391 21.2389 9.19105C22.3827 9.27943 23.5353 9.37828 24.6702 9.10866C25.5137 8.9087 26.3025 8.5683 26.9656 7.97776C27.0069 7.94031 27.0549 7.9126 27.1327 7.85643L29.3834 10.3762C29.3118 10.4178 29.2358 10.444 29.1853 10.495C28.0157 11.6446 26.87 12.8167 25.8686 14.1247C24.2976 16.1764 23.0612 18.4034 22.4181 20.9352C21.7853 23.4262 21.741 25.9224 22.4362 28.4108C22.5627 28.8643 22.7431 29.3024 22.8988 29.7477C22.9188 29.8046 22.9402 29.86 22.9726 29.9465C22.8505 29.9563 22.7513 29.9705 22.6483 29.9712C20.9776 29.9832 19.307 30.0023 17.6359 30.0023C15.1421 30.0023 12.6482 29.9877 10.154 29.9795C9.82197 29.9795 9.82197 29.9795 9.75888 29.6593C9.31317 27.3896 9.72899 25.2814 10.9075 23.3139C11.7502 21.907 12.8158 20.69 13.9964 19.571C15.5609 18.0885 17.2544 16.7659 18.9649 15.4649C19.3084 15.2028 19.6512 14.9407 20.0323 14.6516C19.8925 14.6396 19.794 14.6269 19.6947 14.6231C18.6229 14.5857 17.6023 14.2962 16.5829 13.9888C15.9317 13.7926 15.2723 13.6162 14.6078 13.4739C13.6817 13.2762 12.8298 13.4978 12.0549 14.0393C11.5126 14.4173 11.0222 14.8668 10.5968 15.3762C10.541 15.4342 10.495 15.5011 10.4607 15.5743C10.3813 15.7874 10.2393 15.8364 10.0216 15.8345C8.90989 15.8214 7.79783 15.8286 6.68577 15.8286L6.47656 15.8301ZM14.6849 28.2674C14.6182 28.2633 14.5584 28.2562 14.4982 28.2558C13.7134 28.2498 12.9287 28.2423 12.1435 28.2401C11.7882 28.2401 11.4325 28.2472 11.0772 28.2532C10.9381 28.2558 10.865 28.3281 10.8558 28.473C10.8466 28.6179 10.9455 28.6497 11.0525 28.6673C11.1547 28.6868 11.2584 28.6979 11.3624 28.7007C12.4417 28.7007 13.5208 28.6982 14.5997 28.6932C14.6286 28.6904 14.6572 28.6848 14.6849 28.6763V28.2674ZM11.9546 9.70969C12.0841 9.67786 12.1852 9.65352 12.2867 9.62768C12.6785 9.52732 13.07 9.42771 13.4611 9.32548C13.5751 9.30165 13.6863 9.26601 13.7931 9.21914C13.8559 9.18768 13.9463 9.09706 13.9359 9.05474C13.9095 8.96947 13.851 8.89817 13.7732 8.85627C13.6902 8.81395 13.5828 8.80871 13.4862 8.80834C12.9549 8.80834 12.4564 8.95251 11.9789 9.17719C11.9192 9.20528 11.8435 9.24572 11.8225 9.29927C11.7857 9.38753 11.7758 9.48497 11.7941 9.579C11.8092 9.6363 11.9055 9.6715 11.9561 9.70894L11.9546 9.70969Z" fill=""/>
<path id="Vector_3" d="M8.83069 26.686H2.62248C2.27971 25.2439 2.438 23.8853 3.06524 22.5765C3.65116 21.352 4.48576 20.3162 5.47828 19.4227C6.52872 18.4768 7.63045 17.5878 8.71373 16.6805C8.77753 16.6354 8.85371 16.612 8.93142 16.6134C9.50848 16.6082 10.0859 16.6071 10.6633 16.6134C10.7799 16.6134 10.8368 16.576 10.8847 16.47C11.3666 15.3799 12.2377 14.7179 13.2959 14.2981C13.7416 14.121 14.2279 14.1895 14.698 14.2767C14.7257 14.282 14.7504 14.3045 14.8109 14.3378C14.7209 14.4715 14.6412 14.5999 14.5526 14.7205C14.0966 15.3459 13.6081 15.9495 13.1874 16.5985C12.3218 17.9346 11.6887 19.3763 11.3566 20.9506C11.291 21.2625 11.1282 21.5711 10.9474 21.837C10.2328 22.8855 9.60368 23.9801 9.22438 25.2035C9.07126 25.6876 8.96131 26.1861 8.83069 26.686Z" fill=""/>
<path id="Vector_4" d="M5.67158 10.7816V14.9292C5.59778 14.9408 5.52399 14.9565 5.45426 14.9618C4.96427 14.9992 4.51597 15.1516 4.1293 15.4628C3.72085 15.7909 3.30319 16.1099 3.00912 16.5612C2.97222 16.6181 2.86154 16.6488 2.78442 16.651C2.25643 16.6671 1.72844 16.6742 1.20045 16.6802C0.888308 16.684 0.575796 16.6802 0.25 16.6802V10.7441C0.279456 10.7393 0.309135 10.7361 0.33892 10.7344C1.13146 10.7359 1.92387 10.7381 2.71616 10.7411C2.89364 10.7411 3.06041 10.7362 3.10432 10.995C3.13531 11.177 3.3482 11.2635 3.53564 11.2118C3.72496 11.159 3.91152 11.0965 4.09462 11.0246C4.59825 10.8291 5.12403 10.813 5.67158 10.7816Z" fill=""/>
<path id="Vector_5" d="M-0.554688 19.2866C-0.18277 19.1743 0.149668 19.0665 0.485795 18.9717C0.611981 18.9365 0.684667 18.8706 0.720826 18.7429C0.818233 18.3988 0.923756 18.0569 1.04072 17.6641C1.12742 17.9314 1.21893 18.1509 1.26652 18.3756C1.35139 18.7792 1.56945 19.0122 1.97752 19.0871C2.1989 19.1245 2.40995 19.2136 2.66749 19.2919C2.32656 19.4042 2.0277 19.5166 1.72293 19.6042C1.52738 19.6611 1.40968 19.7701 1.35397 19.9697C1.26689 20.2726 1.16358 20.5711 1.0492 20.9272L0.975411 20.6883C0.918959 20.5044 0.84406 20.3239 0.810853 20.1359C0.753295 19.8128 0.563645 19.6465 0.265152 19.5619C0.000604212 19.4859 -0.256932 19.3874 -0.554688 19.2866Z" fill=""/>
<path id="Vector_6" d="M23.1825 5C23.3006 5.36211 23.4039 5.66731 23.4991 5.97363C23.5556 6.15525 23.6633 6.26122 23.8504 6.31065C24.151 6.39032 24.4455 6.49181 24.7318 6.61435C24.5577 6.67127 24.382 6.72294 24.2101 6.78548C23.4146 7.07495 23.6054 6.89445 23.3519 7.66362C23.2958 7.834 23.2493 8.00813 23.1851 8.22533C23.1504 8.13545 23.1272 8.0834 23.1113 8.02947C23.0235 7.74487 22.925 7.4629 22.856 7.17343C22.8169 7.00941 22.7328 6.94051 22.5807 6.90456C22.3487 6.84952 22.1199 6.77761 21.8912 6.70946C21.8229 6.68886 21.7587 6.65554 21.6406 6.60686C21.7609 6.55181 21.8321 6.51062 21.9081 6.4859C22.1236 6.4155 22.3413 6.35109 22.5582 6.28481C22.6299 6.26672 22.6954 6.22935 22.7479 6.17662C22.8004 6.12389 22.8378 6.05777 22.8564 5.98523C22.9302 5.73546 23.0161 5.48943 23.0977 5.24191C23.1176 5.18124 23.1412 5.11833 23.1825 5Z" fill=""/>
<path id="Vector_7" d="M33.7437 20.5436C33.8282 20.8057 33.9282 21.0678 33.9931 21.3374C34.0617 21.619 34.2193 21.7658 34.4986 21.822C34.7483 21.8761 34.9902 21.9623 35.2185 22.0785C35.145 22.1164 35.0696 22.1503 34.9926 22.18C34.7886 22.2463 34.5868 22.3298 34.3754 22.3605C34.1418 22.3979 34.0529 22.5226 34.0016 22.7391C33.9244 23.0566 33.8195 23.3665 33.6884 23.6652C33.6098 23.3963 33.5039 23.1319 33.4596 22.857C33.4076 22.5335 33.2445 22.3833 32.9346 22.3257C32.6652 22.2755 32.4051 22.174 32.0859 22.0781C32.1992 22.0407 32.2641 22.0164 32.3298 21.9954C32.47 21.9504 32.608 21.883 32.7516 21.8669C33.2393 21.8175 33.4688 21.5382 33.529 21.0611C33.5515 20.8828 33.6397 20.7128 33.6954 20.5391L33.7437 20.5436Z" fill=""/>
</g>
</g>
<defs>
<clipPath id="clip0_1788_11548">
<rect width="35" height="35" fill="white" transform="translate(0.445312)"/>
</clipPath>
</defs>
</svg>
