<svg width="26" height="17" viewBox="0 0 26 17" fill="none" xmlns="http://www.w3.org/2000/svg">
<path fill-rule="evenodd" clip-rule="evenodd" d="M2.2433 5.03407H6.16073V11.8988H2.2433V5.03407ZM3.31743 2.05739H2.2433V3.3289L3.31743 2.05739ZM2.2433 13.751V14.8682H3.22617L2.2433 13.751ZM23.031 14.8682H24.077V13.751L23.031 14.8682ZM24.1051 3.18925V2.05739H23.031L24.1051 3.18925ZM20.0753 4.93852H24.077V11.8988H20.0473L20.0753 4.93852ZM25.0739 15.7869H1.26044V1.12394H25.0739V15.7869ZM25.5724 16.3087H0.677734V0.734375H25.5724V16.3087ZM13.0338 14.9637V11.5901C12.2865 11.5208 11.5879 11.1722 11.0659 10.6081C10.5438 10.044 10.2331 9.30208 10.1905 8.51789C10.2143 7.71711 10.5162 6.95291 11.0396 6.36843C11.563 5.78394 12.272 5.41926 13.0338 5.34275V1.96183H2.14501V14.9637H13.0338ZM13.3146 1.96183V5.34275C14.0764 5.41926 14.7854 5.78394 15.3088 6.36843C15.8322 6.95291 16.1341 7.71711 16.1579 8.51789C16.1153 9.30208 15.8046 10.044 15.2825 10.6081C14.7605 11.1722 14.0619 11.5208 13.3146 11.5901V14.9637H24.2034V1.96183H13.3146ZM24.3859 15.0887H1.85015V1.85892H24.3859V15.0887Z" fill="#09BB1B"/>
</svg>
