<svg width="36" height="35" viewBox="0 0 36 35" fill="none" xmlns="http://www.w3.org/2000/svg">
<g id="icon" clip-path="url(#clip0_1788_11449)">
<path id="Vector" d="M35.9455 27.578C35.1631 28.5025 34.4464 29.4888 33.5854 30.3386C31.0738 32.8063 28.0654 34.364 24.5531 34.838C19.926 35.4613 15.7746 34.2921 12.1298 31.3804C11.6423 30.991 11.184 30.5615 10.7366 30.1266C10.5595 29.9537 10.4317 29.9392 10.2125 30.0356C6.40805 31.728 2.10963 29.6262 1.12633 25.6008C0.214237 21.8675 2.85373 18.0814 6.68835 17.6265C9.7743 17.2625 12.601 18.9795 13.671 21.8757C13.702 21.9594 13.7367 22.0422 13.7778 22.1487C13.8525 22.1231 13.9254 22.0927 13.996 22.0577C20.1917 18.2998 28.4096 19.0796 33.9068 24.7255C34.6463 25.4852 35.269 26.3578 35.9465 27.1822L35.9455 27.578ZM24.4481 27.9338C24.4919 28.7654 24.6133 29.0256 24.9959 28.9993C25.7035 28.9529 25.5163 28.3623 25.5766 27.931C26.0075 27.8855 26.6037 28.0548 26.6293 27.4097C26.6594 26.6818 26.0066 26.8683 25.5793 26.8173C25.5099 25.9684 25.4022 25.76 25.037 25.7418C24.6718 25.7236 24.5513 25.9184 24.4317 26.8101H22.8376C22.7892 26.3815 22.9617 25.7882 22.3135 25.7609C21.5831 25.73 21.7739 26.3833 21.7155 26.8019H20.1022C20.0593 25.983 19.9388 25.7236 19.5544 25.7482C18.845 25.7937 19.0322 26.3797 18.9746 26.821C18.541 26.8574 17.9475 26.6927 17.9201 27.336C17.8882 28.0639 18.5419 27.8774 18.992 27.9356C18.992 28.1176 18.9856 28.2786 18.992 28.4351C19.0084 28.78 19.2348 29.0102 19.5398 29.0056C19.8447 29.0011 20.0639 28.77 20.0775 28.4215C20.0849 28.2577 20.0775 28.0939 20.0775 27.9374H21.7054C21.7529 28.3651 21.5803 28.9592 22.2277 28.9865C22.9581 29.0175 22.77 28.366 22.8284 27.9338H24.4481ZM3.40153 20.5463C1.40205 22.7501 1.78917 26.0467 3.42253 27.6435C5.25219 25.7382 5.19467 22.3816 3.40153 20.5463ZM31.5887 30.5961C31.6517 30.557 31.69 30.5388 31.7229 30.5124C32.7679 29.6702 33.7115 28.7102 34.535 27.6517C34.6947 27.4479 34.7084 27.315 34.5413 27.1058C33.7283 26.067 32.8007 25.1227 31.7759 24.2906C31.7155 24.2493 31.6517 24.2133 31.585 24.1832L31.5887 30.5961ZM12.9479 30.6352V24.1532C11.95 24.892 10.6289 26.2386 9.95325 27.1722C9.83638 27.3323 9.83455 27.4388 9.96238 27.5816C10.4919 28.1731 10.9977 28.7891 11.5483 29.3605C11.9701 29.7981 12.4467 30.183 12.9479 30.638V30.6352ZM15.1464 22.6719C14.8205 22.8684 14.5237 23.0304 14.2489 23.2242C14.2014 23.2631 14.1622 23.3112 14.1338 23.3657C14.1054 23.4201 14.0884 23.4796 14.0837 23.5408C14.0745 26.0885 14.0745 28.6392 14.0837 31.193C14.0827 31.2455 14.0926 31.2977 14.1125 31.3464C14.1324 31.395 14.1621 31.4391 14.1996 31.476C14.4945 31.6789 14.8086 31.8563 15.1537 32.0656L15.1464 22.6719ZM29.3966 32.0811C29.7444 31.8709 30.043 31.7071 30.3205 31.5133C30.3648 31.4766 30.401 31.4311 30.4268 31.3797C30.4525 31.3283 30.4673 31.2722 30.4703 31.2149C30.4782 28.6526 30.4782 26.09 30.4703 23.5272C30.4703 23.4462 30.4474 23.327 30.3927 23.2906C30.0768 23.0804 29.7481 22.8902 29.3884 22.6737L29.3966 32.0811ZM10.3066 24.9429C11.1283 24.2514 11.9244 23.5836 12.7114 22.9021C12.742 22.8597 12.7623 22.8109 12.7705 22.7594C12.7788 22.7079 12.7748 22.6551 12.7589 22.6054C12.6097 22.1908 12.4362 21.7852 12.2394 21.3907C12.076 21.0786 11.8441 20.8029 11.6195 20.4808C10.4992 21.8275 10.0774 23.2888 10.3066 24.9429Z" fill=""/>
<path id="Vector_2" d="M20.9178 0C12.9409 0 6.45313 6.46571 6.45313 14.4145C6.45298 15.1567 6.51006 15.8977 6.62386 16.6311H6.6412C6.95359 16.594 7.26792 16.5755 7.58251 16.5755C7.67381 16.5755 7.7715 16.5755 7.86463 16.581C7.74353 15.8661 7.68245 15.1423 7.68203 14.4173V14.4073L8.20062 14.7821C8.30558 14.8589 8.4324 14.9004 8.56262 14.9004C8.69284 14.9004 8.81966 14.8589 8.92463 14.7821L12.3329 12.3145L15.8023 13.834L17.3763 18.6565L16.4003 19.8093C19.0356 18.8255 21.8752 18.5109 24.663 18.894L24.4621 18.6556L26.0343 13.8331L29.5037 12.3145L32.9101 14.7794C33.0162 14.8564 33.1441 14.8979 33.2753 14.8977C33.4067 14.8985 33.5348 14.857 33.6406 14.7794L34.1591 14.4045V14.4145C34.1587 17.0064 33.3863 19.5398 31.9396 21.6937C32.2811 21.9254 32.6159 22.1705 32.9439 22.4289C34.542 20.0602 35.3937 17.2698 35.3899 14.4155C35.3817 6.46571 28.8938 0 20.9178 0ZM20.3025 9.72677L16.225 12.6785L12.7556 11.158L11.4345 7.09354C11.3946 6.97008 11.3165 6.8624 11.2113 6.78604C11.1062 6.70967 10.9794 6.66856 10.8492 6.66862H10.2293C11.8709 4.41879 14.1818 2.74136 16.834 1.87438L16.6386 2.47582C16.5984 2.59921 16.5984 2.73209 16.6386 2.85547C16.6788 2.97885 16.7571 3.08642 16.8623 3.16279L20.3025 5.65226V9.72677ZM30.9846 6.67043C30.8548 6.67039 30.7282 6.7113 30.6231 6.7873C30.518 6.8633 30.4397 6.97049 30.3994 7.09354L29.0746 11.1599L25.6052 12.6785L21.5286 9.72677V5.65226L24.9698 3.16279C25.0748 3.08676 25.1529 2.97942 25.1928 2.85627C25.2327 2.73313 25.2323 2.60054 25.1916 2.47764L24.9962 1.8762C27.6492 2.74184 29.9604 4.41955 31.6009 6.67043H30.9846Z" fill=""/>
</g>
<defs>
<clipPath id="clip0_1788_11449">
<rect width="35" height="35" fill="white" transform="translate(0.945312)"/>
</clipPath>
</defs>
</svg>
