<svg xmlns="http://www.w3.org/2000/svg" width="25" height="27" viewBox="0 0 25 27" fill="none">
  <path fill-rule="evenodd" clip-rule="evenodd" d="M6.85714 0C7.61456 0 8.22857 0.604416 8.22857 1.35V2.7H16.4571V1.35C16.4571 0.604416 17.0712 0 17.8286 0C18.586 0 19.2 0.604416 19.2 1.35V2.7H20.5714C22.8437 2.7 24.6857 4.51326 24.6857 6.75V22.95C24.6857 25.1868 22.8437 27 20.5714 27H4.11429C1.84204 27 0 25.1868 0 22.95V6.75C0 4.51325 1.84203 2.7 4.11429 2.7H5.48571V1.35C5.48571 0.604416 6.09972 0 6.85714 0ZM5.48571 5.4H4.11429C3.35687 5.4 2.74286 6.00442 2.74286 6.75V9.45H21.9429V6.75C21.9429 6.0044 21.3289 5.4 20.5714 5.4H19.2V6.75C19.2 7.49558 18.586 8.1 17.8286 8.1C17.0712 8.1 16.4571 7.49558 16.4571 6.75V5.4H8.22857V6.75C8.22857 7.49558 7.61456 8.1 6.85714 8.1C6.09972 8.1 5.48571 7.49558 5.48571 6.75V5.4ZM21.9429 12.15H2.74286V22.95C2.74286 23.6956 3.35685 24.3 4.11429 24.3H20.5714C21.3289 24.3 21.9429 23.6956 21.9429 22.95V12.15Z" fill="#5A5A5A"/>
  <path d="M7.71652 13.1172H4.6308C4.20476 13.1172 3.85938 13.4626 3.85938 13.8886V16.9743C3.85938 17.4004 4.20476 17.7458 4.6308 17.7458H7.71652C8.14257 17.7458 8.48795 17.4004 8.48795 16.9743V13.8886C8.48795 13.4626 8.14257 13.1172 7.71652 13.1172Z" fill="#5A5A5A"/>
  <path d="M13.8884 13.1172H10.8027C10.3766 13.1172 10.0312 13.4626 10.0312 13.8886V16.9743C10.0312 17.4004 10.3766 17.7458 10.8027 17.7458H13.8884C14.3144 17.7458 14.6598 17.4004 14.6598 16.9743V13.8886C14.6598 13.4626 14.3144 13.1172 13.8884 13.1172Z" fill="#5A5A5A"/>
  <path d="M20.0564 13.1172H16.9706C16.5446 13.1172 16.1992 13.4626 16.1992 13.8886V16.9743C16.1992 17.4004 16.5446 17.7458 16.9706 17.7458H20.0564C20.4824 17.7458 20.8278 17.4004 20.8278 16.9743V13.8886C20.8278 13.4626 20.4824 13.1172 20.0564 13.1172Z" fill="#5A5A5A"/>
</svg>