<svg fill="none" height="26" viewBox="0 0 26 26" width="26" xmlns="http://www.w3.org/2000/svg"><g clip-rule="evenodd" fill-rule="evenodd"><path d="m23.9071 13.8462c-.0277-.5917-.1864-1.1697-.4647-1.6924-.4679-.7967-1.1702-1.4291-2.0108-1.8107-.3912-.1759-.8073-.2901-1.2334-.3385v-1.5146c-.0338-3.67231-3.3457-6.49-7.2151-6.49-3.86943 0-7.18126 2.81769-7.18126 6.49v1.5146c-.43765.045-.8654.1592-1.26728.3385-.84055.3816-1.54283 1.014-2.01075 1.8107-.27826.5227-.43699 1.1007-.46467 1.6924-.05914.6176-.05914 1.3623-.05914 2.2761v1.6923c0 .9139 0 1.6923.05914 2.2592.02655.5919.18534 1.1702.46467 1.6924.47194.7872 1.1738 1.4104 2.01075 1.7853.57145.2388 1.18085.3734 1.79954.3977.73502.0508 1.52074.0508 2.55991.0508h8.17819c1.0392 0 1.8587 0 2.5346-.0508.6272-.0212 1.2455-.156 1.8248-.3977.8555-.3802 1.5705-1.0194 2.0446-1.8277.2793-.5221.4381-1.1004.4647-1.6923.0591-.6007.0591-1.3453.0591-2.2592v-1.6923c-.0338-.8715-.0338-1.6162-.0929-2.2338zm-16.41555-5.3562c0-2.56385 2.36559-4.79769 5.49155-4.79769 3.126 0 5.4916 2.23384 5.4916 4.79769v1.41308h-10.98315zm14.78495 9.2485c0 .9646 0 1.6246-.0507 2.1492-.0066.3479-.0933.6896-.2535.9985-.2952.5012-.742.8953-1.2757 1.1253-.3897.1579-.8047.2439-1.225.2539-.5745.0423-1.3602.0423-2.4332.0423h-8.1106c-1.07296 0-1.85868 0-2.43318 0-.42028-.01-.83529-.096-1.22503-.2539-.53373-.23-.98052-.6241-1.27573-1.1253-.16014-.3089-.24688-.6506-.25346-.9985-.05069-.5669-.05069-1.2269-.05069-2.1915v-1.5823c0-.9647 0-1.6247.05069-2.1408.0058-.3534.09252-.7008.25346-1.0154.29789-.499.74387-.8924 1.27573-1.1254.45288-.1745.93412-.2634 1.41935-.2623h2.23886 8.1106 2.2389c.4852-.0011.9664.0878 1.4193.2623.5319.233.9779.6264 1.2757 1.1254.1597.312.2464.6564.2535 1.0069.0507.5162.0507 1.1762.0507 2.1408z" fill="#595959"/><path d="m13 15.3281c.2652 0 .5196.1054.7071.2929.1875.1876.2929.4419.2929.7071v2.67c0 .2652-.1054.5196-.2929.7071-.1875.1876-.4419.2929-.7071.2929s-.5196-.1053-.7071-.2929c-.1875-.1875-.2929-.4419-.2929-.7071v-2.67c0-.2652.1054-.5195.2929-.7071.1875-.1875.4419-.2929.7071-.2929z" fill="#35c0ff"/></g></svg>