<svg width="23" height="24" viewBox="0 0 23 24" fill="none" xmlns="http://www.w3.org/2000/svg"> 
<g clip-path="url(#clip0_1573_10758)">
<path d="M19.8088 4.65714e-06H7.72409C7.40454 -0.000637003 7.088 0.0650333 6.7926 0.193258C6.49719 0.321483 6.22872 0.509745 6.00255 0.747269C5.77637 0.984793 5.59693 1.26692 5.4745 1.5775C5.35207 1.88807 5.28906 2.221 5.28906 2.55723V10.7462H6.4486V2.55723C6.44921 2.20279 6.5833 1.86304 6.8215 1.61241C7.0597 1.36178 7.38259 1.2207 7.71945 1.22005H19.8042C20.141 1.2207 20.4639 1.36178 20.7021 1.61241C20.9403 1.86304 21.0744 2.20279 21.075 2.55723V15.2726C21.0744 15.627 20.9403 15.9667 20.7021 16.2174C20.4639 16.468 20.141 16.6091 19.8042 16.6097H12.2463V17.8298H19.8111C20.4557 17.8298 21.0739 17.5604 21.5297 17.0808C21.9854 16.6012 22.2415 15.9508 22.2415 15.2726V2.55723C22.2415 2.2212 22.1786 1.88847 22.0563 1.57805C21.934 1.26764 21.7548 0.985624 21.5288 0.748133C21.3029 0.510641 21.0347 0.322334 20.7396 0.193966C20.4444 0.0655969 20.1281 -0.000315977 19.8088 4.65714e-06Z" fill="white"/>
<path d="M9.86766 12.7279C9.99806 12.7279 10.1231 12.7824 10.2153 12.8794C10.3075 12.9764 10.3593 13.108 10.3593 13.2452V21.888C10.3596 21.9561 10.3471 22.0236 10.3225 22.0867C10.298 22.1497 10.2618 22.207 10.2161 22.2553C10.1704 22.3036 10.1161 22.342 10.0563 22.3681C9.99654 22.3943 9.93242 22.4077 9.86766 22.4077H1.6535C1.52249 22.4077 1.39685 22.353 1.30421 22.2555C1.21157 22.158 1.15954 22.0258 1.15954 21.888V13.2452C1.16015 13.1077 1.21246 12.9762 1.30503 12.8792C1.3976 12.7823 1.5229 12.7279 1.6535 12.7279H9.86766ZM9.86766 11.5078H1.6535C1.21537 11.5078 0.795143 11.6908 0.485118 12.0165C0.175093 12.3423 0.000614494 12.7842 0 13.2452V21.888C0 22.3494 0.174205 22.7919 0.484297 23.1182C0.794388 23.4445 1.21497 23.6278 1.6535 23.6278H9.86766C10.3058 23.6271 10.7258 23.4435 11.0354 23.1173C11.345 22.7911 11.5188 22.349 11.5188 21.888V13.2452C11.5188 12.7844 11.3449 12.3425 11.0352 12.0167C10.7256 11.6909 10.3056 11.5078 9.86766 11.5078Z" fill="white"/>
<path fill-rule="evenodd" clip-rule="evenodd" d="M14.7176 3.37077L19 3.38481C19.2628 3.38567 19.4752 3.60081 19.4743 3.86533L19.4602 8.17596C19.4593 8.44048 19.2456 8.65422 18.9828 8.65336C18.72 8.6525 18.5076 8.43736 18.5085 8.17284L18.5189 5.01852L12.6502 10.8871C12.4638 11.0736 12.1625 11.0726 11.9773 10.8849C11.7921 10.6973 11.7931 10.394 11.9795 10.2076L17.8482 4.33896L14.7145 4.32869C14.4517 4.32783 14.2393 4.11269 14.2402 3.84817C14.2411 3.58365 14.4548 3.36991 14.7176 3.37077Z" fill="white"/>
</g>
<defs>
<clipPath id="clip0_1573_10758">
<rect width="22.2353" height="23.625" fill="white"/>
</clipPath>
</defs>
</svg>
