<svg width="36" height="35" viewBox="0 0 36 35" fill="none" xmlns="http://www.w3.org/2000/svg">
<g id="icon" clip-path="url(#clip0_1788_11407)">
<g id="Group 388">
<g id="Group">
<g id="Group_2">
<path id="Vector" d="M12.2248 5.33952C11.463 5.43924 10.9196 5.70048 10.6094 6.11663C10.4648 6.31302 10.3709 6.54202 10.3359 6.78336C10.3518 6.78009 10.368 6.7782 10.3842 6.77771C11.2963 6.64286 12.2177 6.58141 13.1396 6.59394C13.0351 5.45712 12.3665 5.35018 12.2248 5.33952ZM13.3698 4.89232C13.2613 4.94657 13.1596 4.99706 13.0615 5.04473C13.2029 5.15543 13.3249 5.28903 13.4218 5.44019C13.9197 5.69076 14.3571 6.04666 14.7037 6.48319C15.0503 6.91972 15.2977 7.42643 15.4289 7.96816C15.5042 8.24319 15.5597 8.52324 15.5945 8.80612C16.0518 8.43488 16.555 8.12405 17.0916 7.88129C17.9707 7.44068 18.4709 6.46505 18.2275 5.66065C17.9117 4.61854 16.5108 4.14499 14.479 4.39274C14.099 4.53551 13.7285 4.70238 13.3698 4.89232ZM15.9746 4.71231C16.2241 4.71231 16.4634 4.81143 16.6398 4.98787C16.8163 5.1643 16.9154 5.4036 16.9154 5.65312C16.9154 5.90264 16.8163 6.14194 16.6398 6.31838C16.4634 6.49482 16.2241 6.59394 15.9746 6.59394C15.725 6.59394 15.4857 6.49482 15.3093 6.31838C15.1329 6.14194 15.0338 5.90264 15.0338 5.65312C15.0338 5.4036 15.1329 5.1643 15.3093 4.98787C15.4857 4.81143 15.725 4.71231 15.9746 4.71231Z" fill=""/>
<path id="Vector_2" d="M15.9777 5.96315C16.1509 5.96315 16.2913 5.82274 16.2913 5.64954C16.2913 5.47634 16.1509 5.33594 15.9777 5.33594C15.8045 5.33594 15.6641 5.47634 15.6641 5.64954C15.6641 5.82274 15.8045 5.96315 15.9777 5.96315Z" fill=""/>
<path id="Vector_3" d="M12.4193 4.63988C12.5827 4.5803 12.827 4.45956 13.0869 4.32879C13.4804 4.11965 13.8878 3.93786 14.3062 3.78468C14.5253 3.6989 14.7369 3.59538 14.9391 3.47515C15.8555 2.97119 17.2397 2.20975 18.9846 3.5178C19.6176 4.00578 20.1584 4.60272 20.5818 5.28058L20.5837 5.28309C20.695 5.00085 20.8258 4.73459 20.9497 4.48935C21.2043 3.98476 21.4245 3.54854 21.3216 3.24089C21.2749 3.10134 21.2128 3.01729 21.1372 2.99001C20.954 2.97004 20.77 3.01877 20.6207 3.12674C20.6084 3.25062 20.5898 3.37382 20.5652 3.49585C20.5485 3.57718 20.5002 3.64857 20.431 3.69436C20.3617 3.74016 20.2771 3.75662 20.1958 3.74015C20.1554 3.73179 20.1171 3.71555 20.083 3.69238C20.049 3.6692 20.0198 3.63954 19.9972 3.60508C19.9746 3.57063 19.959 3.53206 19.9513 3.49158C19.9436 3.45109 19.944 3.40949 19.9524 3.36915C19.9833 3.22103 20.0032 3.07082 20.012 2.91976C20.0379 2.53714 19.9788 2.15353 19.839 1.79643C19.6992 1.43934 19.4821 1.11762 19.2032 0.85435C18.6698 0.323415 18.1871 0.147483 17.7575 0.315889C18.0653 0.653387 18.3057 1.04659 18.4659 1.47435C18.479 1.51347 18.4842 1.55479 18.4813 1.59593C18.4784 1.63707 18.4674 1.67723 18.4489 1.71413C18.4305 1.75103 18.405 1.78393 18.3738 1.81097C18.3427 1.838 18.3065 1.85863 18.2674 1.87169C18.2283 1.88474 18.187 1.88996 18.1458 1.88705C18.1047 1.88414 18.0645 1.87316 18.0276 1.85472C17.9907 1.83629 17.9578 1.81077 17.9308 1.77962C17.9038 1.74847 17.8831 1.7123 17.8701 1.67317C17.6962 1.22047 17.4129 0.817843 17.0456 0.50123C16.6576 0.175689 16.1659 -0.00019284 15.6595 0.00541909C15.3447 -0.0224409 15.0299 0.057693 14.7668 0.232629C14.5037 0.407565 14.3079 0.666876 14.2119 0.967875C14.9093 1.00551 15.5807 1.24667 16.143 1.66126C16.176 1.68597 16.2037 1.71692 16.2247 1.75236C16.2457 1.7878 16.2595 1.82702 16.2653 1.86779C16.2712 1.90856 16.2689 1.95008 16.2587 1.98997C16.2484 2.02987 16.2305 2.06736 16.2058 2.10031C16.181 2.13325 16.1501 2.16101 16.1147 2.18199C16.0792 2.20297 16.04 2.21677 15.9992 2.2226C15.9585 2.22842 15.9169 2.22616 15.877 2.21594C15.8371 2.20572 15.7997 2.18774 15.7667 2.16303C15.2048 1.75191 14.5174 1.54912 13.8224 1.58944C13.4522 1.59307 13.0867 1.67193 12.748 1.82121C12.4092 1.97049 12.1044 2.18708 11.852 2.45782C11.7398 2.58577 11.6572 2.73692 11.6101 2.90047C11.5631 3.06402 11.5527 3.23594 11.5798 3.40396C11.6861 4.05564 11.9705 4.46897 12.4193 4.63988ZM13.8305 14.2572C14.6076 13.0881 15.4076 10.2349 14.8202 8.13439C14.6492 7.45568 14.2723 6.84658 13.7411 6.39075C13.7651 6.56104 13.7774 6.73278 13.7778 6.90475V8.15917C13.7778 8.16293 13.7759 8.16575 13.7759 8.1692C13.774 8.19049 13.7698 8.21151 13.7634 8.23193C13.76 8.25216 13.7547 8.27201 13.7474 8.2912C13.7458 8.29433 13.7474 8.29747 13.7449 8.3006C13.4088 8.86208 12.9418 9.33389 12.3838 9.67577C11.1721 10.4824 10.5449 11.283 10.5038 12.0636C10.6902 11.8794 10.9101 11.7326 11.1517 11.6311C11.229 11.6002 11.3154 11.6012 11.3919 11.6339C11.4684 11.6667 11.5287 11.7285 11.5597 11.8058C11.5906 11.883 11.5896 11.9694 11.5569 12.046C11.5241 12.1225 11.4623 12.1828 11.385 12.2138C11.0335 12.3694 10.754 12.6525 10.6029 13.0059C10.448 13.4359 10.4559 13.9077 10.6251 14.3322C10.685 14.5589 10.8123 14.7622 10.99 14.9152C11.1678 15.0682 11.3877 15.1638 11.6208 15.1893C12.0366 15.2199 12.4537 15.1513 12.8379 14.9893C13.222 14.8273 13.5622 14.5764 13.8305 14.2572Z" fill=""/>
<path id="Vector_4" d="M20.784 6.5314C20.659 6.4136 20.5436 6.28598 20.439 6.14974L20.4346 6.14472C20.3092 5.98227 20.1891 5.80979 20.0674 5.63103C19.6829 5.01043 19.1901 4.46384 18.6126 4.01722C17.4974 3.18052 16.6209 3.35269 15.8529 3.70769C18.1234 3.82592 18.7004 5.04428 18.8305 5.4736C19.1655 6.58001 18.5386 7.85419 17.372 8.43749C16.2116 9.01672 15.9115 9.30806 15.6521 9.67153C15.6716 11.5961 15.0187 13.607 14.357 14.6027C14.1767 14.8536 13.9502 15.0679 13.6896 15.234C13.778 15.7421 13.7574 16.2632 13.6291 16.7628L14.7947 16.3733C14.8562 16.353 14.9212 16.3455 14.9856 16.3513C15.0501 16.3571 15.1127 16.376 15.1696 16.407C15.2264 16.4379 15.2763 16.4802 15.3162 16.5312C15.356 16.5822 15.385 16.6409 15.4013 16.7035C15.4687 16.9758 15.4432 17.2628 15.3288 17.5189C16.1254 17.3847 16.8728 17.0434 17.4958 16.5291C17.5558 16.4795 17.6271 16.4455 17.7034 16.4303C17.7797 16.415 17.8585 16.4188 17.933 16.4415C18.0074 16.4642 18.075 16.505 18.1298 16.5602C18.1846 16.6155 18.2249 16.6835 18.2469 16.7581C18.304 16.9548 18.3252 17.1601 18.3096 17.3643C18.9525 17.0833 19.5136 16.6438 19.9404 16.087C19.9946 16.0122 20.0695 15.9551 20.1559 15.9227C20.2423 15.8903 20.3364 15.884 20.4263 15.9046C20.5163 15.9252 20.5982 15.9719 20.6619 16.0387C20.7255 16.1055 20.7681 16.1896 20.7843 16.2805C20.826 16.5502 20.8345 16.8239 20.8091 17.0958C21.5473 16.3366 22.0327 15.3676 22.1987 14.3217C22.2155 14.2209 22.2647 14.1283 22.3389 14.058C22.413 13.9876 22.5081 13.9433 22.6096 13.9318C22.7112 13.9203 22.8137 13.9422 22.9017 13.9941C22.9898 14.0461 23.0585 14.1253 23.0975 14.2198L23.1307 14.3013C23.3576 13.4202 23.4831 12.5161 23.5048 11.6065C23.5048 9.47396 22.0252 7.66979 20.784 6.5314ZM11.6643 7.53901C12.1545 7.66634 12.6528 7.7601 13.1558 7.81969V7.21757C12.4113 7.22509 11.6289 7.25739 11.0547 7.30977C11.2471 7.41231 11.452 7.48937 11.6643 7.53901Z" fill=""/>
</g>
</g>
<g id="Group_3">
<path id="Vector_5" d="M32.5908 8.25446L21.7722 6.34686C20.5554 6.1323 19.3951 6.94481 19.1805 8.16161L19.0781 8.7423C20.6427 8.93506 21.9645 10.0621 22.3807 11.6151L23.0418 14.0826C23.4038 13.9254 23.804 13.8783 24.1926 13.9474C24.959 14.0825 25.547 14.6341 25.766 15.3282C26.2092 14.7509 26.9504 14.4336 27.7168 14.5688C28.8137 14.7622 29.5461 15.8082 29.3527 16.9051C28.9324 19.2885 26.3748 21.2042 25.161 21.9921L27.0142 28.9081C27.111 29.2695 27.1553 29.643 27.1458 30.017L28.7049 30.2919C29.9217 30.5065 31.0821 29.694 31.2966 28.4772L34.4055 10.8463C34.6201 9.62938 33.8076 8.46901 32.5908 8.25446Z" fill=""/>
<path id="Vector_6" d="M20.7599 12.0416C20.4921 11.042 19.5882 10.3828 18.6003 10.3828C18.4087 10.3828 18.2138 10.4076 18.0199 10.4596L7.40876 13.3028C6.21527 13.6226 5.50699 14.8494 5.82678 16.0428L10.4604 33.3357C10.7282 34.3353 11.6321 34.9944 12.6199 34.9944C12.8116 34.9944 13.0065 34.9696 13.2004 34.9177L23.8114 32.0744C25.0049 31.7546 25.7132 30.5278 25.3934 29.3344L20.7599 12.0416ZM12.5028 23.8622C12.4148 23.7848 12.3517 23.6831 12.3213 23.5699C12.291 23.4567 12.2948 23.337 12.3323 23.226L13.9549 18.4217C14.0906 18.0198 14.5916 17.8855 14.9101 18.1657L18.7175 21.5151C18.8055 21.5926 18.8686 21.6943 18.8989 21.8074C18.9293 21.9206 18.9254 22.0403 18.8879 22.1513L17.2654 26.9556C17.1297 27.3575 16.6286 27.4918 16.3101 27.2116L12.5028 23.8622Z" fill=""/>
</g>
</g>
</g>
<defs>
<clipPath id="clip0_1788_11407">
<rect width="35" height="35" fill="white" transform="translate(0.945312)"/>
</clipPath>
</defs>
</svg>
