<svg width="77" height="77" viewBox="0 0 77 77" fill="none" xmlns="http://www.w3.org/2000/svg">
<g filter="url(#filter0_d_2732_637)">
<path d="M4.32666 36.7762V32.7927C4.37754 32.5827 4.41618 32.3699 4.44237 32.1554C4.64885 29.1096 5.28513 26.1084 6.33226 23.241C9.19456 15.3366 14.8779 8.77038 22.2887 4.80598C29.6995 0.841583 38.3141 -0.240895 46.4747 1.76684C63.9399 6.0364 75.1356 23.5138 71.7109 41.1602C70.3942 47.9271 67.3273 53.7812 62.4836 58.6708C57.4044 63.7999 51.3025 67.029 44.1725 68.257C42.8918 68.4779 41.5964 68.6083 40.3063 68.7812H36.3244C35.4267 68.6735 34.5276 68.583 33.6339 68.4566C26.9321 67.508 21.0071 64.8323 15.9346 60.3512C9.96041 55.0745 6.22586 48.5098 4.84934 40.6346C4.6259 39.3573 4.49823 38.0628 4.32666 36.7762ZM40.3063 18.5058C40.3063 20.0332 40.2877 21.5659 40.3249 23.0867C40.3332 23.2401 40.3717 23.3904 40.4384 23.5288C40.505 23.6672 40.5985 23.791 40.7133 23.893C43.4149 25.8941 46.1334 27.8738 48.8687 29.8323C48.9908 29.9029 49.1266 29.9465 49.267 29.9603C49.4074 29.9741 49.5491 29.9576 49.6826 29.9121C52.3142 28.8211 54.9355 27.7053 57.5467 26.5646C57.8119 26.4383 58.0195 26.2163 58.1279 25.9433C59.2078 22.6942 60.2652 19.438 61.2999 16.1748C61.3346 16.0375 61.3398 15.8943 61.315 15.7549C61.2903 15.6154 61.2361 15.4828 61.1562 15.3658C58.0917 11.7306 54.2043 8.8793 49.8169 7.04891C49.4366 6.88792 49.1799 6.94114 48.8593 7.17531C46.1657 9.14533 43.4646 11.1056 40.7558 13.0561C40.4047 13.3076 40.293 13.575 40.2997 13.9874C40.3209 15.4962 40.3063 17.001 40.3063 18.5058ZM36.3244 18.5244C36.3244 16.9757 36.3417 15.427 36.3071 13.8797C36.2972 13.7362 36.259 13.5961 36.1946 13.4675C36.1302 13.339 36.041 13.2244 35.9321 13.1306C33.2096 11.1216 30.4645 9.13912 27.7381 7.14337C27.4282 6.91719 27.1862 6.90522 26.839 7.05158C22.4544 8.88245 18.5675 11.7294 15.4984 15.3579C15.4161 15.4717 15.3588 15.6017 15.3304 15.7393C15.3019 15.8769 15.303 16.019 15.3335 16.1562C16.3647 19.4194 17.4198 22.6751 18.4988 25.9233C18.6053 26.1968 18.8109 26.4201 19.0747 26.5487C21.6854 27.6876 24.3134 28.7879 26.9215 29.9201C27.2753 30.0731 27.5133 30.0279 27.8139 29.8084C30.5058 27.8339 33.2149 25.8834 35.8988 23.897C36.0147 23.7969 36.1096 23.6748 36.1781 23.5377C36.2466 23.4007 36.2873 23.2515 36.2978 23.0987C36.3443 21.5833 36.3244 20.0518 36.3244 18.5244ZM18.6158 50.9114C20.2743 50.9114 21.9328 50.8981 23.5899 50.9193C23.7844 50.9342 23.9795 50.8991 24.1566 50.8173C24.3337 50.7356 24.4871 50.61 24.602 50.4523C26.1049 48.5959 27.6246 46.754 29.1612 44.9268C29.4272 44.6128 29.4485 44.3494 29.3234 43.9688C28.2728 40.7823 27.2553 37.5825 26.194 34.4012C26.0755 34.0872 25.8427 33.8297 25.5423 33.6801C22.9555 32.5452 20.3488 31.4555 17.754 30.3339C17.4149 30.1876 17.1715 30.2009 16.8616 30.4217C14.1884 32.3829 11.5063 34.3316 8.81531 36.2679C8.48281 36.5061 8.38573 36.7482 8.41632 37.1474C8.77002 41.8833 10.2714 46.4617 12.7906 50.4869C12.9236 50.7051 13.304 50.8861 13.5726 50.8927C15.2537 50.9287 16.9348 50.9114 18.6158 50.9114ZM58.0268 50.9114C59.7079 50.9114 61.3877 50.926 63.0674 50.8941C63.3241 50.8941 63.6858 50.7357 63.8122 50.5335C66.3684 46.4788 67.8741 41.8507 68.1931 37.0676C68.1912 36.9254 68.1589 36.7853 68.0986 36.6566C68.0383 36.5279 67.9513 36.4136 67.8433 36.3211C65.1595 34.3387 62.4596 32.3767 59.7438 30.435C59.6239 30.3618 59.4898 30.3149 59.3504 30.2975C59.211 30.28 59.0694 30.2925 58.9352 30.3339C56.2841 31.4347 53.6441 32.5594 51.0152 33.7081C50.7693 33.8267 50.5767 34.0332 50.4753 34.2868C49.398 37.5341 48.3411 40.7885 47.3046 44.05C47.2712 44.1893 47.2674 44.3341 47.2932 44.475C47.3191 44.616 47.3742 44.7499 47.4549 44.8683C48.9808 46.7629 50.5298 48.6375 52.1018 50.4923C52.3359 50.732 52.6517 50.8745 52.9862 50.8914C54.666 50.9313 56.3457 50.9114 58.0268 50.9114ZM38.3273 46.9199C36.625 46.9199 34.9226 46.9026 33.2202 46.9372C32.9054 46.9476 32.6063 47.0775 32.3837 47.3004C30.7984 49.1728 29.2365 51.0657 27.6982 52.979C27.6186 53.0966 27.5646 53.2296 27.5397 53.3694C27.5147 53.5092 27.5193 53.6527 27.5532 53.7906C28.5622 56.9908 29.5956 60.184 30.6534 63.3701C30.7067 63.5017 30.7875 63.6204 30.8902 63.7184C30.9929 63.8163 31.1153 63.8913 31.2492 63.9382C35.8825 65.0831 40.7243 65.0859 45.3589 63.9462C45.4941 63.9027 45.6185 63.8308 45.7238 63.7354C45.8291 63.6399 45.9128 63.5231 45.9693 63.3927C47.0333 60.1871 48.0733 56.9744 49.0894 53.7546C49.1209 53.6261 49.1245 53.4923 49.1002 53.3622C49.0759 53.2322 49.0242 53.1087 48.9485 53.0002C47.4084 51.0896 45.8465 49.1968 44.263 47.3217C44.0453 47.0937 43.7491 46.9571 43.4344 46.9398C41.7334 46.8973 40.0297 46.9146 38.3273 46.9146V46.9199Z" fill="url(#paint0_linear_2732_637)"/>
</g>
<defs>
<filter id="filter0_d_2732_637" x="0.32666" y="0.78125" width="76" height="76" filterUnits="userSpaceOnUse" color-interpolation-filters="sRGB">
<feFlood flood-opacity="0" result="BackgroundImageFix"/>
<feColorMatrix in="SourceAlpha" type="matrix" values="0 0 0 0 0 0 0 0 0 0 0 0 0 0 0 0 0 0 127 0" result="hardAlpha"/>
<feOffset dy="4"/>
<feGaussianBlur stdDeviation="2"/>
<feComposite in2="hardAlpha" operator="out"/>
<feColorMatrix type="matrix" values="0 0 0 0 0 0 0 0 0 0.560505 0 0 0 0 0.800722 0 0 0 0.25 0"/>
<feBlend mode="normal" in2="BackgroundImageFix" result="effect1_dropShadow_2732_637"/>
<feBlend mode="normal" in="SourceGraphic" in2="effect1_dropShadow_2732_637" result="shape"/>
</filter>
<linearGradient id="paint0_linear_2732_637" x1="72.3227" y1="68.7812" x2="2.06012" y2="68.7812" gradientUnits="userSpaceOnUse">
<stop stop-color="white"/>
<stop offset="1" stop-color="white"/>
</linearGradient>
</defs>
</svg>
