<svg width="17" height="17" viewBox="0 0 17 17" fill="none" xmlns="http://www.w3.org/2000/svg"> 
<g clip-path="url(#clip0_2617_11198)">
<path d="M14.8319 3.35117e-06H6.14168C5.91188 -0.000458372 5.68426 0.0467964 5.47183 0.139064C5.2594 0.231332 5.06634 0.366801 4.9037 0.537717C4.74106 0.708634 4.61202 0.911647 4.52398 1.13513C4.43594 1.35861 4.39062 1.59818 4.39063 1.84012V7.7327H5.22446V1.84012C5.2249 1.58507 5.32133 1.3406 5.49262 1.16025C5.66391 0.979908 5.8961 0.878385 6.13834 0.877921H14.8286C15.0708 0.878385 15.303 0.979908 15.4743 1.16025C15.6456 1.3406 15.742 1.58507 15.7425 1.84012V10.9898C15.742 11.2448 15.6456 11.4893 15.4743 11.6696C15.303 11.85 15.0708 11.9515 14.8286 11.952H9.39363V12.8299H14.8336C15.2971 12.8299 15.7416 12.636 16.0694 12.2909C16.3972 11.9459 16.5813 11.4778 16.5813 10.9898V1.84012C16.5813 1.59833 16.536 1.3589 16.4481 1.13553C16.3602 0.912163 16.2313 0.709232 16.0688 0.538339C15.9063 0.367445 15.7135 0.231944 15.5012 0.139573C15.289 0.047202 15.0616 -0.000227369 14.8319 3.35117e-06Z" fill="white"/>
<path d="M7.68187 9.15917C7.77564 9.15917 7.86557 9.19838 7.93187 9.26819C7.99817 9.338 8.03542 9.43268 8.03542 9.5314V15.7506C8.03563 15.7996 8.02665 15.8482 8.00898 15.8936C7.99131 15.9389 7.96531 15.9802 7.93246 16.0149C7.89961 16.0497 7.86055 16.0772 7.81755 16.0961C7.77455 16.1149 7.72844 16.1246 7.68187 16.1246H1.77499C1.68078 16.1246 1.59042 16.0852 1.52381 16.015C1.45719 15.9449 1.41977 15.8498 1.41977 15.7506V9.5314C1.42021 9.43252 1.45783 9.33784 1.5244 9.26808C1.59097 9.19832 1.68107 9.15917 1.77499 9.15917H7.68187ZM7.68187 8.28125H1.77499C1.45992 8.28125 1.15773 8.4129 0.93479 8.6473C0.711848 8.8817 0.586379 9.19968 0.585938 9.5314V15.7506C0.585938 16.0826 0.71121 16.401 0.9342 16.6358C1.15719 16.8706 1.45963 17.0025 1.77499 17.0025H7.68187C7.99694 17.002 8.29895 16.8699 8.52158 16.6352C8.74421 16.4005 8.86925 16.0823 8.86925 15.7506V9.5314C8.86925 9.19984 8.74415 8.88186 8.52148 8.64741C8.2988 8.41296 7.99678 8.28125 7.68187 8.28125Z" fill="white"/>
<path fill-rule="evenodd" clip-rule="evenodd" d="M12.5192 7.94248L9.43967 7.93238C9.25069 7.93176 9.098 7.77695 9.09862 7.58661L9.10879 4.48478C9.10941 4.29444 9.26311 4.14064 9.45209 4.14126C9.64106 4.14188 9.79375 4.29668 9.79313 4.48703L9.78569 6.7568L14.0059 2.53389C14.1399 2.39973 14.3566 2.40044 14.4898 2.53548C14.623 2.67051 14.6222 2.88873 14.4882 3.02288L10.268 7.2458L12.5215 7.25319C12.7105 7.25381 12.8631 7.40862 12.8625 7.59896C12.8619 7.7893 12.7082 7.9431 12.5192 7.94248Z" fill="white"/>
</g>
<defs>
<clipPath id="clip0_2617_11198">
<rect width="15.9896" height="17" fill="white" transform="translate(0.585938)"/>
</clipPath>
</defs>
</svg>
