<svg fill="none" height="24" viewBox="0 0 24 24" width="24" xmlns="http://www.w3.org/2000/svg"><g clip-rule="evenodd" fill-rule="evenodd"><path d="m16.36 3.26977h-3.27v-3.26977h-2.18v3.26977h-3.26999c-2.02625 0-3.96951.80487-5.40229 2.23754-1.432775 1.43268-2.23769983 3.3758-2.23769983 5.40189v9.6793c-.00232156.6741.19582483 1.3337.56926083 1.895.373436.5612.905299.9988 1.528019 1.2571.62271.2582 1.30815.3256 1.96923.1934.66108-.1321 1.26794-.4578 1.74348-.9356l4.45999-4.4497h3.46l4.46 4.4497c.4755.4778 1.0824.8035 1.7435.9356.661.1322 1.3465.0648 1.9692-.1934.6227-.2583 1.1546-.6959 1.528-1.2571.3735-.5613.5716-1.2209.5693-1.895v-9.6793c0-1.0032-.1976-1.99661-.5816-2.92347-.3839-.92686-.9467-1.76903-1.6561-2.47842-.7095-.70939-1.5517-1.27211-2.4786-1.65602-.9269-.38392-1.9204-.58152-2.9237-.58152zm5.46 17.31873c.0029.2435-.067.4822-.2008.6855-.1339.2034-.3255.362-.5503.4556-.2247.0935-.4723.1177-.711.0694-.2386-.0483-.4573-.1669-.6279-.3405l-5.1-5.0997h-5.26l-5.09999 5.0997c-.17065.1736-.38935.2922-.62796.3405s-.48622.0241-.71097-.0694c-.22476-.0936-.41639-.2522-.55023-.4556-.13385-.2033-.20379-.442-.20083-.6855v-9.6793c0-1.44796.57524-2.83663 1.59919-3.8605 1.02395-1.02388 2.41272-1.59909 3.8608-1.59909h8.71999c1.4481 0 2.8368.57521 3.8608 1.59909 1.0239 1.02387 1.5992 2.41254 1.5992 3.8605z" fill="#5a5a5a"/><g fill="#35c0ff"><path d="m4.35938 13.0863v-2.1799h2.17999v-2.17984h2.19v2.17984h2.18003v2.1799h-2.18003v2.1798h-2.19v-2.1798z"/><path d="m16.3581 10.3565c.002.3252-.0928.6436-.2722.9148-.1795.2712-.4355.4829-.7356.6083-.3.1253-.6306.1587-.9497.0957-.319-.063-.6122-.2193-.8421-.4493-.23-.2299-.3864-.523-.4493-.8421-.063-.319-.0297-.6496.0957-.94961.1253-.30006.3371-.55607.6083-.7355s.5897-.27417.9149-.2722c.4323 0 .8469.17172 1.1526.47738.3057.30567.4774.72023.4774 1.15253z"/><path d="m17.9994 15.272c.3248-.0001.6423-.0965.9122-.2771.2699-.1807.4801-.4374.6039-.7376s.1557-.6305.0916-.9488c-.0641-.3184-.2213-.6106-.4516-.8395-.2304-.229-.5235-.3844-.8423-.4465-.3188-.0622-.6489-.0282-.9484.0974-.2994.1257-.5549.3374-.7339.6084s-.2735.589-.2715.9138c.0026.4332.1766.8477.4839 1.1531.3072.3054.7229.4768 1.1561.4768z"/></g></g></svg>