<svg width="36" height="35" viewBox="0 0 36 35" fill="none" xmlns="http://www.w3.org/2000/svg">
<g id="icon">
<g id="Group">
<path id="Vector" d="M28.6877 20.9455C28.9151 20.708 29.0405 20.3908 29.0369 20.062C29.0333 19.7332 28.9011 19.4189 28.6686 19.1863C28.4361 18.9538 28.1218 18.8216 27.793 18.8181C27.4641 18.8145 27.147 18.9399 26.9095 19.1673L19.2898 26.7865C19.0589 27.0233 18.9307 27.3415 18.9327 27.6723C18.9348 28.003 19.0671 28.3196 19.3009 28.5535C19.5348 28.7874 19.8513 28.9198 20.1821 28.922C20.5128 28.9241 20.8311 28.796 21.068 28.5652C21.068 28.5652 27.1558 22.4844 28.6877 20.9455ZM31.862 28.6891L27.1633 23.9904L24.1129 27.0402L28.8116 31.7389C30.2449 33.1668 31.4842 33.3824 32.4924 32.3694C33.5054 31.3617 33.2899 30.1224 31.862 28.6891ZM4.20612 28.6891C3.06379 29.8718 2.373 31.1386 3.57568 32.3694C4.80693 33.572 6.06996 32.8823 7.25594 31.7389L11.9498 27.0402L8.90533 23.9958L4.20612 28.6891ZM9.15804 19.1667C8.92054 18.9393 8.60341 18.814 8.2746 18.8175C7.94579 18.8211 7.63145 18.9533 7.39893 19.1858C7.16641 19.4183 7.03421 19.7327 7.03065 20.0615C7.02709 20.3903 7.15245 20.7074 7.37988 20.9449C7.37988 20.9449 13.6784 27.2466 15.0007 28.5657C15.2382 28.7931 15.5553 28.9185 15.8841 28.9149C16.2129 28.9114 16.5273 28.7792 16.7598 28.5466C16.9923 28.3141 17.1245 27.9998 17.1281 27.671C17.1316 27.3422 17.0063 27.025 16.7788 26.7875L9.15804 19.1667ZM11.5564 20.0402L15.9054 24.3886L17.2417 23.1601L12.6077 18.8973L11.5564 20.0402ZM12.9148 17.7173C14.2177 18.9318 18.9379 23.2528 20.1622 24.3886L24.5117 20.0402C20.7145 15.903 14.2123 8.85286 10.3758 4.67632C9.76585 4.54431 3.5288 3.08352 3.12306 3.00054C3.22705 3.42838 4.65497 9.64656 4.79884 10.2533L12.9148 17.7173ZM31.2693 10.2538C31.4223 9.62447 32.8319 3.43215 32.945 3C32.4978 3.104 26.3335 4.52329 25.6917 4.67579L18.7671 12.205L23.5251 17.373L31.2693 10.2538Z" fill=""/>
</g>
</g>
</svg>
