<svg width="60" height="47" viewBox="0 0 60 47" fill="none" xmlns="http://www.w3.org/2000/svg"> 
<g clip-path="url(#clip0_5796_13515)">
<path d="M0.375 0.625H5.02412C7.10402 0.625 7.83808 0.684188 8.44985 0.920636C9.61217 1.45287 10.285 2.51734 10.285 3.75923C10.285 4.94193 9.91798 5.53335 8.69459 6.12478C9.9792 6.53879 10.8356 7.72149 10.7133 9.02256C10.7133 10.9741 9.12285 12.2752 6.79821 12.2752H0.375V10.3828H1.29258V2.5175H0.375V0.625ZM3.80073 2.5175V5.35609H6.18644C7.04279 5.41528 7.83808 4.82386 7.8993 3.99598V3.87776C7.8993 3.10892 7.10402 2.51765 6.00292 2.51765H3.80073V2.5175ZM3.80073 7.1894V10.3828H6.36995C7.34876 10.442 8.20511 9.7914 8.26634 8.8453V8.78611C8.26634 7.78083 7.40998 7.13021 6.12521 7.13021L3.80073 7.1894ZM20.8679 9.37738C20.4396 11.3289 18.788 12.5118 16.5858 12.5118C14.0165 12.5118 12.1202 10.5602 12.1202 7.83986C12.1202 5.11949 14.0165 3.16796 16.5858 3.16796C17.9927 3.16796 19.3385 3.81842 20.1338 5.00127C20.7456 6.00655 21.1126 7.13021 21.0514 8.31306H14.4448C14.6895 10.6194 16.2187 10.7378 16.647 10.7378C17.5033 10.797 18.2986 10.2056 18.5434 9.43672L20.8679 9.37738ZM18.5432 6.77539C18.5432 5.7701 17.6869 5.00127 16.7081 5.00127H16.6468C15.607 5.00127 14.7505 5.7701 14.5669 6.7162L18.5432 6.77539ZM6.18644 23.495H10.4073V29.2905H9.06147V27.4572C8.81672 27.8712 8.51092 28.226 8.14389 28.5809C7.3486 29.2313 6.36995 29.5862 5.39115 29.5862C2.57719 29.5862 0.375 26.925 0.375 23.495C0.375 20.0649 2.57719 17.3446 5.32993 17.3446C6.85928 17.2854 8.20511 18.1134 8.93917 19.3553V17.522H10.2238V21.2476H8.87795C8.75566 20.7154 8.51092 20.2423 8.20511 19.8283C7.59334 19.0595 6.61469 18.5864 5.63589 18.5273C4.16776 18.5273 1.96558 19.7691 1.96558 23.3766C1.96558 26.2152 3.55599 28.2851 5.63589 28.2851C7.28753 28.2259 8.63337 27.0432 8.93917 25.5055C9.0004 25.2099 9.0004 24.8551 9.0004 24.5593H6.12521L6.18644 23.495ZM20.6843 29.3496H18.0539V27.7528C17.4421 28.8765 16.2187 29.527 14.9341 29.527C13.4048 29.6452 12.0589 28.4625 11.9367 26.984V26.8066C11.9367 25.0917 13.466 24.2636 17.1363 23.9088L17.9927 23.8496V22.9626C17.9927 21.9573 17.1974 21.3067 15.9128 21.3067C14.6282 21.3067 13.9553 21.7207 13.7106 22.9034H12.3037C12.426 22.1937 12.793 21.5433 13.3436 21.0701C14.0164 20.5378 14.934 20.3012 15.7905 20.3012C17.6869 20.3012 19.2773 21.1291 19.2773 23.3764V28.2849H20.5619L20.6843 29.3496ZM18.0539 24.7368L17.1975 24.8551C14.3836 25.2099 13.466 25.6829 13.466 26.8066C13.5272 27.8119 14.3836 28.5215 15.3624 28.5215C16.7082 28.4623 17.8705 27.5162 18.0541 26.2152L18.0539 24.7368ZM24.5382 22.0755C24.9664 21.4841 25.7616 20.2422 27.4744 20.2422C28.6978 20.2422 29.3708 20.8336 29.6154 22.0755C29.8601 21.6615 30.1047 21.3067 30.4717 20.9518C31.0223 20.4788 31.6951 20.183 32.4292 20.183C33.8361 20.183 34.6314 21.0701 34.6314 22.6077V28.2259H35.916V29.2904H33.3468V23.0808C33.3468 21.8389 32.9185 21.2475 32.0009 21.2475C30.4105 21.2475 29.554 23.0808 29.554 23.7312V28.2257H30.8998V29.2902H28.2082V22.9032C28.2082 21.7796 27.7799 21.3065 26.8623 21.3065C25.4554 21.3065 24.4154 23.0214 24.4154 23.8495V28.2848H25.7612V29.3492H21.785V28.2848H23.1308V21.425H21.785V20.3606H24.4766L24.5382 22.0755ZM37.3234 17.108H39.8926V22.2529C40.2596 21.6025 41.2995 20.3014 42.8901 20.3014C44.97 20.3014 46.5604 22.3711 46.5604 24.9733C46.5604 27.398 44.8475 29.4678 42.8901 29.4678C41.2384 29.4678 40.4431 28.4033 39.8926 27.6937V29.3496H37.2621V28.2851H38.5467V18.1724H37.3234V17.108ZM39.8926 25.5647C39.8926 27.0432 41.0549 28.2259 42.523 28.3443C44.1134 28.3443 45.0923 26.9842 45.0923 24.796C45.0923 22.6079 44.0524 21.3068 42.523 21.3068C41.1772 21.3068 39.8314 22.7261 39.8314 24.0272L39.8926 25.5647ZM47.3452 17.108H49.9757V28.2851H51.1991V29.3496H47.284V28.2851H48.6298V18.1134H47.3452V17.108ZM60.1915 26.8658C60.0692 27.398 59.8245 27.812 59.4574 28.2259C58.7234 29.0538 57.6835 29.527 56.5212 29.527C54.013 29.527 52.2391 27.6346 52.2391 24.9142C52.2391 22.3121 54.013 20.3015 56.2764 20.3015C58.5398 20.3015 60.375 22.0165 60.375 25.1508H53.7072C53.8295 26.4519 54.1355 27.2206 54.7471 27.812C55.2364 28.226 55.8482 28.4625 56.4599 28.4625C57.4998 28.4625 58.1728 27.9894 58.6621 26.925L60.1915 26.8658ZM58.8456 24.1454C58.8456 23.3175 58.5398 22.5487 57.9281 21.8981C57.4998 21.5433 56.9493 21.3067 56.3987 21.3659C55.2364 21.425 54.2576 22.1937 53.9518 23.2582C53.8906 23.5538 53.7683 23.8496 53.7683 24.1453L58.8456 24.1454Z" fill="white"/>
<path d="M4.59586 34.4922H7.53211L10.8966 44.309H11.8142V46.2014H9.06146L8.26618 43.6584H3.98425L3.18896 46.2014H0.375V44.309H1.29258L4.59586 34.4922ZM6.06415 36.6803L4.47373 41.8845H7.65472L6.06415 36.6803ZM11.6919 37.2716H15.3622V38.9867H14.4446L15.7293 44.25L17.2586 37.2717H19.6443L21.1737 44.1318L22.397 38.9868H21.4795V37.2719H25.1498V38.9867H24.3545L22.3969 46.1424H19.95L18.4206 39.992L16.9525 46.1424H14.5059L12.4872 38.9867H11.6919V37.2716ZM33.8364 44.4865H34.6317V46.2014H31.7565V45.1369C31.0837 45.9648 30.0436 46.3788 28.9425 46.3788C27.1074 46.3788 25.7003 45.1961 25.7003 43.5992C25.7003 40.9971 28.759 40.7015 31.6953 40.4649C31.6953 39.1048 31.206 38.6907 30.0436 38.6907C28.8813 38.6907 28.4532 39.223 28.392 40.0508V40.11L26.1898 40.0508C26.3121 38.2767 27.7802 37.1531 29.9826 37.1531C32.5518 37.1531 33.8976 38.2767 33.8976 40.2874L33.8364 44.4865ZM31.6342 42.0027C29.4931 42.1801 28.0862 42.3575 28.0862 43.5994C28.0862 44.309 28.698 44.7821 29.6155 44.7821C30.7166 44.7821 31.6342 43.9542 31.6954 42.8897V42.0027H31.6342ZM38.969 38.691C39.5808 37.5674 40.2536 37.0943 41.2935 37.0943C41.6605 37.0943 41.9663 37.1535 42.3333 37.2126V39.2823C41.9663 39.2231 41.5993 39.1641 41.2322 39.1641C40.0699 39.1049 39.0913 39.9329 39.0301 40.9974V44.4274H40.1312V46.1425H35.8491V44.4274H36.7666V38.9867H35.8491V37.2717H38.9688L38.969 38.691ZM51.5707 43.2446C51.1424 45.1961 49.4908 46.379 47.2886 46.379C44.7194 46.379 42.823 44.4274 42.823 41.7071C42.823 38.9867 44.7194 37.0351 47.2886 37.0351C48.6955 37.0351 50.0413 37.6856 50.8366 38.8685C51.4484 39.8737 51.8154 40.9974 51.7542 42.1803H45.1476C45.3924 44.4866 46.9216 44.605 47.3498 44.605C48.2062 44.6642 49.0014 44.0728 49.2462 43.3039L51.5707 43.2446ZM49.1848 40.6426C49.1848 39.6373 48.3284 38.8685 47.3496 38.8685H47.2884C46.2486 38.8685 45.392 39.6373 45.2085 40.5834L49.1848 40.6426Z" fill="white"/>
</g>
<defs>
<clipPath id="clip0_5796_13515">
<rect width="60" height="45.75" fill="white" transform="translate(0 0.625)"/>
</clipPath>
</defs>
</svg>
