<svg width="60" height="60" viewBox="0 0 60 60" fill="none" xmlns="http://www.w3.org/2000/svg"> 
<g clip-path="url(#clip0_5796_13590)">
<path d="M59.1831 29.9934C59.1141 24.3031 57.4399 18.7512 54.3578 13.9917C51.2757 9.23211 46.9144 5.46307 41.7871 3.12845C36.6595 0.793837 30.9799 -0.00911504 25.4167 0.814105C19.8537 1.63736 14.6389 4.05249 10.3864 7.77517C6.13396 11.4978 3.02099 16.3729 1.41412 21.8263C-0.19272 27.2798 -0.226573 33.0844 1.31662 38.5567C2.85981 44.029 5.91573 48.9407 10.1245 52.714C14.3332 56.4873 19.5196 58.9646 25.0727 59.854V38.6903H17.6975V29.9934H25.0727V23.3868C24.902 21.8506 25.0664 20.2952 25.5547 18.8304C26.0429 17.3656 26.8427 16.0271 27.8978 14.9094C28.9528 13.7916 30.2372 12.9219 31.6606 12.3616C33.084 11.8013 34.6118 11.564 36.1355 11.6666C38.3473 11.6972 40.554 11.8969 42.7363 12.2638V19.7289H39.0487C38.413 19.6478 37.7669 19.7123 37.1592 19.9177C36.5511 20.1231 35.9965 20.4641 35.5363 20.9156C35.0761 21.3671 34.7221 21.9175 34.5004 22.526C34.2784 23.1348 34.1947 23.7861 34.2548 24.4319V30.0681H42.4413L41.1138 38.765H34.2917V59.6674C41.2609 58.5517 47.6043 54.9446 52.1711 49.5002C56.7378 44.0559 59.2255 37.1353 59.1831 29.9934Z" fill="white"/>
</g>
<defs>
<clipPath id="clip0_5796_13590">
<rect width="59" height="59" fill="white" transform="translate(0.183594 0.5)"/>
</clipPath>
</defs>
</svg>
