<svg width="22" height="22" viewBox="0 0 22 22" fill="none" xmlns="http://www.w3.org/2000/svg">
<path fill-rule="evenodd" clip-rule="evenodd" d="M14.7944 6.3418H7.84755C4.32488 6.3418 2.56353 6.3418 1.57415 7.38674C0.584772 8.43168 0.817554 10.0461 1.28313 13.2749L1.72463 16.3367C2.08973 18.8687 2.27229 20.1347 3.20879 20.8929C4.14529 21.6511 5.52654 21.6511 8.28904 21.6511H14.3528C17.1154 21.6511 18.4967 21.6511 19.4332 20.8929C20.3697 20.1347 20.5522 18.8687 20.9173 16.3367L21.3588 13.2749C21.8244 10.0461 22.0571 8.43167 21.0678 7.38674C20.0784 6.3418 18.317 6.3418 14.7944 6.3418ZM14.0153 15.0799C14.5981 14.7134 14.5981 13.7645 14.0153 13.3979L10.4959 11.1847C9.92945 10.8285 9.23333 11.2922 9.23333 12.0257V16.4522C9.23333 17.1856 9.92945 17.6493 10.4959 17.2931L14.0153 15.0799Z" fill="#D40000"/>
<path opacity="0.4" d="M7.68391 0.310557H14.9572C15.1994 0.310474 15.3852 0.310419 15.5475 0.331377C16.7018 0.480403 17.6467 1.39634 18.0474 2.63013H4.59375C4.99441 1.39634 5.93924 0.480403 7.09359 0.331377C7.25594 0.310419 7.44167 0.310474 7.68391 0.310557Z" fill="#D40000"/>
<path opacity="0.7" d="M5.32302 3.55859C3.87865 3.55859 2.69431 4.52107 2.29907 5.79793C2.29084 5.82454 2.28294 5.8513 2.27539 5.87818C2.68893 5.73999 3.1193 5.64971 3.55499 5.58808C4.67711 5.42933 6.09522 5.42941 7.74255 5.42951H14.901C16.5483 5.42941 17.9665 5.42933 19.0886 5.58808C19.5243 5.64971 19.9547 5.73999 20.3682 5.87818C20.3607 5.8513 20.3527 5.82454 20.3445 5.79793C19.9493 4.52107 18.7649 3.55859 17.3206 3.55859H5.32302Z" fill="#D40000"/>
</svg>
