<svg fill="none" height="30" viewBox="0 0 181 30" width="181" xmlns="http://www.w3.org/2000/svg"><g fill="#fff"><path d="m12.814 5.44904c-3.02721 0-6.23609 1.42281-7.41671 3.32997-.12109.21191-.30272.30273-.5449.30273-.48436 0-.75682-.27246-.75682-.63573v-8.44601h-3.935414v29.334h3.935414v-2.331c0-.3632.27246-.666.63573-.666s.5449.1211.66599.3028c1.18062 1.9071 4.3895 3.3602 7.41671 3.3602 5.8729 0 12.109-4.329 12.109-12.3209.0303-7.93137-6.2058-12.23006-12.109-12.23006zm7.8709 12.26036c0 4.9041-3.6024 8.6276-8.2947 8.6276-4.72248 0-8.29463-3.7235-8.29463-8.6276 0-4.9042 3.54188-8.59739 8.29463-8.59739 4.6923 0 8.2947 3.69319 8.2947 8.59739zm38.7487-3.0878v14.7427h-3.9354v-14.6822c0-3.451-2.3613-5.26737-4.6922-5.26737-3.2089 0-5.0555 2.17967-5.0555 5.96367v13.9859h-3.9354v-13.9859c0-3.8143-1.8467-5.96367-5.0556-5.96367-2.3612 0-4.7225 1.81637-4.7225 5.26737v14.6822h-3.9354v-14.7427c0-6.29667 4.2987-9.17256 8.325-9.17256 3.2391 0 5.8123 1.51362 6.7204 3.90515.0909.27245.3633.42382.6358.42382h.0908c.2724 0 .5146-.15137.6357-.42382.8779-2.4218 3.4208-3.90515 6.7205-3.90515 3.9051 0 8.2038 2.87589 8.2038 9.17256zm34.9647 0v14.7427h-3.9354v-14.6822c0-3.451-2.3613-5.26737-4.6923-5.26737-3.2088 0-5.0555 2.17967-5.0555 5.96367v13.9859h-3.9354v-13.9859c0-3.8143-1.8466-5.96367-5.0555-5.96367-2.331 0-4.6922 1.81637-4.6922 5.26737v14.6822h-3.996v-14.7427c0-6.29667 4.2987-9.17256 8.325-9.17256 3.2391 0 5.8123 1.51362 6.7204 3.90515.0909.27245.3633.42382.6055.42382h.1211c.2724 0 .5146-.15137.6357-.42382.8779-2.4218 3.4813-3.90515 6.7205-3.90515 3.9354 0 8.2341 2.87589 8.2341 9.17256z"/><path d="m99.7812 8.99109h.9988c.121 0 .242-.03027.303-.12108.091-.09082.121-.21191.121-.30273v-2.78507l1.665-.42381v3.20888c0 .12109.03.24218.121.30273.091.09081.212.12108.303.12108h1.544v1.51361h-1.544c-.121 0-.242.0303-.303.1211-.091.0908-.121.2119-.121.3027v4.6317c0 .6357.03 1.1504.272 1.6347.212.4238.515.7568.939 1.0293l.999.5449-.666 1.2412c-1.09-.5147-1.907-.999-2.392-1.5439-.514-.6055-.787-1.3018-.787-2.4521v-5.0555c0-.1211-.03-.2422-.121-.3027-.091-.0908-.181-.1211-.302-.1211h-.9995v-1.54391zm8.9608 6.02421c-.091.0908-.121.2119-.121.3027.212 2.0586 2.058 3.4511 3.996 3.4511 1.392.0303 2.603-.6055 3.511-1.665l1.332.7568c-1.301 1.4228-2.966 2.2705-4.783 2.3007-3.844 0-5.994-2.8456-5.994-5.7517 0-2.8759 2.18-5.75181 5.994-5.75181h.031c1.059 0 2.482.48436 3.632 1.45311 1.09 1.0292 1.938 2.5429 1.938 4.6619v.0303h-9.203c-.121.0605-.242.0908-.333.2119zm-.03-1.5439c.121.1211.242.1514.363.1514h6.751c.121 0 .272-.0303.363-.1514s.091-.2422.03-.3935c-.545-1.9375-2.089-3.0575-3.814-2.997-1.786-.0303-3.3 1.1503-3.754 3.0575-.03.0908-.03.2422.061.333zm16.105 6.6902c3.299-.0302 4.51-2.0282 4.51-3.5116 0-.7871-.242-1.332-.636-1.7558-.423-.4238-1.089-.7568-2.088-.9384l-2.513-.4844c-.515-.0908-.999-.2422-1.302-.5146-.363-.2422-.605-.666-.605-1.1504 0-.6357.393-1.1503.878-1.453.514-.2725 1.09-.42386 1.725-.42386.818 0 1.907.24216 3.028 1.15036l.877-1.0595c-1.392-.90822-2.603-1.30176-3.996-1.30176-2.754.03028-4.147 1.66496-4.147 3.39056 0 .7568.152 1.2714.696 1.7558.515.4238 1.514.8779 3.118 1.1503l1.423.2725c.515.0908.939.2421 1.302.5449.363.2724.545.7265.545 1.2411 0 .5147-.303.999-.787 1.332-.485.3028-1.151.5449-1.938.5449-1.332 0-2.694-.6357-3.663-1.5439l-1.059 1.1201c1.423 1.0898 2.876 1.6347 4.632 1.6347zm50.857 0c3.3-.0302 4.45-2.0282 4.511-3.5116 0-.7871-.242-1.332-.636-1.7558-.424-.4238-1.09-.7568-2.119-.9384l-2.482-.4844c-.545-.0908-.999-.2422-1.332-.5146-.364-.2422-.545-.666-.545-1.1504 0-.6357.393-1.1503.878-1.453.484-.2725 1.09-.42386 1.695-.42386.817 0 1.937.24216 3.088 1.15036l.878-1.0595c-1.393-.90822-2.604-1.30176-4.027-1.30176-2.724.03028-4.117 1.66496-4.147 3.39056.03.7568.182 1.2714.757 1.7558.515.4238 1.514.8779 3.118 1.1503l1.423.2725c.484.0908.938.2421 1.302.5449.302.2724.544.7265.544 1.2411 0 .5147-.302.999-.787 1.332-.484.3028-1.15.5449-1.937.5449-1.332 0-2.694-.6357-3.663-1.5439l-1.06 1.1201c1.363 1.0898 2.816 1.6347 4.541 1.6347zm-45.106-9.6569h.999c.121 0 .242.0303.303.1211.091.0908.121.2119.121.3027v5.0555c0 1.1504.273 1.8466.817 2.4521.485.5449 1.272 1.0293 2.362 1.5439l.666-1.2412-.999-.5449c-.394-.2724-.757-.6054-.939-1.0292-.212-.4844-.272-.999-.272-1.6348v-4.6316c0-.1211.03-.2422.121-.3028.091-.0908.182-.1211.303-.1211h1.574v-1.51358h-1.574c-.121 0-.243-.03027-.303-.12109-.091-.09082-.121-.21191-.121-.30272v-3.20889l-1.665.42382v2.78507c0 .12109-.03.24218-.121.30272-.091.09082-.182.12109-.303.12109h-.969zm7.659 5.5096c0 1.1503.242 1.8466.787 2.4521.515.5449 1.302 1.0292 2.362 1.5439l.696-1.2412-.999-.5449c-.394-.2422-.757-.5449-.999-.999-.182-.4238-.273-.999-.273-1.665v-10.05044h-1.634v10.50454zm16.287-7.02321v10.86781h-1.665v-.999c0-.1211-.03-.2422-.121-.3027-.091-.0908-.152-.1211-.303-.1211h-.03c-.121 0-.242.0908-.303.1514-.696.9384-1.998 1.5741-3.512 1.5741-3.541 0-5.6-2.9364-5.6-5.7517 0-1.3018.545-2.7851 1.544-3.8749 1.029-1.12009 2.452-1.84663 4.178-1.84663 1.634 0 2.815.72654 3.36 1.54393.091.1211.242.2119.363.2119h.03c.152 0 .242-.0303.303-.1211.091-.0908.121-.2119.121-.3027v-.99903h1.635zm-1.514 5.41881c0-2.331-1.846-4.2382-4.117-4.2382-2.24 0-4.147 1.9072-4.147 4.2382 0 2.3309 1.907 4.2381 4.147 4.2381s4.117-1.8769 4.117-4.2381zm16.559 0c-.03 3.6932-2.845 5.6912-5.63 5.7517-1.544 0-2.997-.7568-3.482-1.5439-.091-.1211-.212-.2119-.363-.2119h-.03c-.121 0-.242.0303-.303.1211-.091.0908-.121.2119-.121.3027v.999h-1.665v-14.31884h1.665v4.48032c0 .12112.03.24222.121.30272.091.0908.182.1211.303.1211h.03c.151 0 .272-.0908.363-.2119.485-.78709 1.938-1.54391 3.482-1.54391 2.785.03028 5.6 2.08881 5.63 5.75181zm-1.816 0c0-1.1807-.424-2.2705-1.15-2.997-.697-.7568-1.726-1.2412-2.907-1.2412-1.15 0-2.179.4844-2.906 1.2412-.696.7568-1.15 1.8163-1.15 2.997 0 1.1806.424 2.2704 1.15 2.9969.757.7568 1.786 1.2412 2.906 1.2412 1.181 0 2.21-.4844 2.907-1.2412.726-.7265 1.15-1.786 1.15-2.9969z"/></g></svg>