<svg width="36" height="35" viewBox="0 0 36 35" fill="none" xmlns="http://www.w3.org/2000/svg">
<g id="icon" clip-path="url(#clip0_1788_11375)">
<g id="Group 40158">
<path id="Vector" d="M36.4383 27.1432C36.4007 26.6618 36.4576 26.1722 36.4191 25.6899C36.3992 25.4765 36.3015 25.2775 36.1441 25.1305C34.0834 23.4483 32.0116 21.7783 29.9289 20.1204C29.7545 19.9851 29.5416 19.9075 29.3203 19.8988C22.7538 19.8879 16.186 19.8879 9.61696 19.8988C9.39593 19.9054 9.18253 19.9804 9.00661 20.1132C7.32587 21.4453 5.65276 22.7865 3.98729 24.1368C3.4915 24.5364 2.82066 24.8634 2.57231 25.3857C2.32395 25.9079 2.52282 26.6309 2.48708 27.264C2.45134 27.897 2.67678 28.452 3.17166 28.8208C3.78842 29.2804 4.43451 29.729 5.13283 30.0469C7.08851 30.9316 9.1789 31.3685 11.2931 31.6945C12.1014 31.819 12.9161 31.9098 13.7922 32.0242C13.3808 30.6528 12.9922 29.3685 12.6091 28.0823C12.3067 27.0669 12.6027 26.5537 13.6392 26.2522C15.1449 25.8153 16.635 25.3185 18.1581 24.9515C18.84 24.7871 19.6144 24.7335 20.2934 24.8761C22.0191 25.2394 23.7173 25.7345 25.4255 26.1913C26.3053 26.4275 26.5839 26.9461 26.3474 27.8417C25.9891 29.2041 25.6289 30.5565 25.256 31.9661C25.3939 31.9736 25.5322 31.9736 25.6702 31.9661C27.778 31.7163 29.8684 31.3812 31.902 30.7572C33.1703 30.3676 34.4176 29.9171 35.4761 29.0842C36.1093 28.5892 36.5034 27.9897 36.4383 27.1432ZM11.5607 23.7226C11.3829 23.8852 11.1291 24.0569 10.9055 24.0623C9.57755 24.0932 8.2478 24.0769 6.9208 24.0732C6.83606 24.0578 6.75315 24.0337 6.67336 24.0015C6.75047 23.9017 6.8334 23.8065 6.92172 23.7163C7.83816 22.9361 8.7436 22.1504 9.67103 21.3866C9.8427 21.2411 10.0556 21.152 10.2805 21.1313C11.2418 21.0995 12.205 21.1077 13.1654 21.1086C13.2488 21.1086 13.3313 21.1595 13.4761 21.2067L12.1262 23.0078C11.9429 23.2503 11.7816 23.5228 11.5607 23.7226ZM16.2071 24.0623C14.8196 24.0759 13.433 24.0623 12.0464 24.0623C12.0089 24.0623 11.9713 24.0178 11.8412 23.9352C12.1161 23.5582 12.3635 23.2085 12.6174 22.8534C12.9528 22.3866 13.2726 21.9061 13.6355 21.4601C13.7638 21.303 13.9948 21.1422 14.1854 21.135C15.1751 21.0986 16.1658 21.1104 17.1565 21.1113C17.227 21.1113 17.2967 21.1577 17.4314 21.2022C17.162 22.0886 16.9072 22.9651 16.6158 23.8298C16.5736 23.9415 16.3473 24.0614 16.2071 24.0623ZM21.307 24.0787H19.3871C18.7456 24.0787 18.1041 24.0732 17.4681 24.0787C17.1125 24.0787 17.0016 23.9234 17.0887 23.5955C17.2802 22.8816 17.4497 22.1622 17.6743 21.4583C17.7219 21.3075 17.9584 21.1195 18.1142 21.1141C19.0581 21.0796 20.0029 21.0905 20.9478 21.0914C21.2227 21.0914 21.3813 21.204 21.4179 21.5164C21.5022 22.2185 21.6223 22.9179 21.7414 23.6164C21.8037 23.977 21.6168 24.0787 21.307 24.0787ZM26.5564 24.0787C25.9149 24.0868 25.2734 24.0787 24.6319 24.0787C24.0068 24.0787 23.3809 24.0732 22.7559 24.0787C22.3948 24.0787 22.1969 23.9361 22.1355 23.5673C22.0246 22.8979 21.8926 22.2312 21.7533 21.5691C21.6837 21.2376 21.7817 21.0868 22.1346 21.0895C23.051 21.0959 23.9674 21.0723 24.8784 21.1068C24.993 21.1184 25.104 21.1533 25.2044 21.2092C25.3048 21.2651 25.3926 21.341 25.4622 21.432C25.9405 22.1486 26.3731 22.8961 26.8185 23.6345C27.0311 23.9842 26.9816 24.0678 26.5564 24.0769V24.0787ZM31.7801 24.0787C30.5585 24.0787 29.3378 24.0787 28.1143 24.0832C27.9398 24.0945 27.7655 24.0564 27.612 23.9732C27.4585 23.8901 27.332 23.7654 27.2474 23.6136C26.7488 22.8198 26.2274 22.0405 25.6702 21.1876C25.8367 21.1439 26.0065 21.1136 26.1779 21.0968C27.032 21.0896 27.8889 21.0641 28.7439 21.1095C29.0544 21.1355 29.3489 21.2572 29.5861 21.4574C30.4008 22.164 31.1771 22.9106 31.9689 23.6518C32.0605 23.7426 32.1439 23.8425 32.3088 24.0242C32.0559 24.0469 31.9212 24.0778 31.7764 24.0778L31.7801 24.0787Z" fill=""/>
<path id="Vector_2" d="M13.7361 12.886C13.5968 13.1712 13.2165 13.4973 12.9214 13.5218C12.0801 13.5945 11.7089 14.104 11.5861 14.8316C11.4423 15.6808 11.3332 16.5355 11.2196 17.3893C11.1426 17.9806 11.0894 18.5755 11.0234 19.1831C11.1637 19.2004 11.237 19.2167 11.3103 19.2176C13.8904 19.2176 16.4698 19.2176 19.0487 19.2176C19.1385 19.2217 19.2281 19.2081 19.3126 19.1777C19.3328 19.1686 19.3025 19.0432 19.2952 18.9715H19.6269C19.4583 19.3448 19.78 19.2094 19.9019 19.2104C22.4202 19.2194 24.9386 19.2225 27.457 19.2194C27.5899 19.2194 27.7237 19.2022 27.9546 19.1867C27.7136 17.5855 27.5074 16.016 27.227 14.4637C27.1252 13.8997 26.6835 13.5963 26.0686 13.5373C25.8167 13.4975 25.5863 13.3731 25.4161 13.1849C25.1617 12.9042 24.9521 12.5865 24.7947 12.243C24.0321 10.5421 23.5895 8.71736 23.4888 6.85875C23.4338 5.88235 23.2679 4.93956 22.7997 4.0649C22.0931 2.74427 21.1501 1.81238 19.4812 2.03218C19.3744 2.03614 19.2675 2.02884 19.1623 2.01038C18.3302 1.94045 17.6291 2.22565 17.0545 2.81058C16.1894 3.69433 15.6945 4.76064 15.514 5.97863C15.3087 7.36466 15.174 8.76975 14.8496 10.1294C14.6269 11.0849 14.1705 11.9932 13.7361 12.886ZM23.0636 12.9278C23.0944 12.9689 23.1163 13.0158 23.1279 13.0657C23.1396 13.1155 23.1408 13.1672 23.1314 13.2176C23.015 13.8452 22.884 14.471 22.7648 15.0505L21.4287 14.8688C21.4067 14.9124 21.3856 14.9596 21.3636 15.0005L21.8374 15.7644C20.4096 16.3638 20.0283 17.6717 19.6306 18.9651C19.6453 18.6163 19.6251 18.2621 19.6792 17.9197C19.9019 16.5219 20.3207 15.1894 21.1015 13.9878C21.151 13.9124 21.1831 13.8261 21.2298 13.7489C21.6486 13.0514 21.918 12.3311 21.4662 11.4337C22.0702 11.9932 22.5724 12.4537 23.0636 12.9278ZM17.7363 6.67982C18.2633 6.81333 18.738 6.85058 19.2026 6.48908C19.3227 6.39826 19.6609 6.42005 19.7846 6.52178C20.1979 6.84876 20.6176 6.81243 21.0813 6.70343C21.7173 6.55629 21.9584 6.77065 21.9382 7.54268C21.776 8.6426 21.3242 9.67894 20.197 10.3583C19.4391 10.8125 18.8315 10.4691 18.278 10.045C17.3743 9.35378 17.0179 8.36194 16.9784 7.2593C16.9684 6.77791 17.257 6.55811 17.7363 6.67982ZM15.7953 13.1286C15.8013 13.0424 15.8365 12.9608 15.8952 12.8969C16.3727 12.4428 16.8593 11.9887 17.3414 11.5409C17.3322 11.5282 17.3633 11.5545 17.3578 11.5663C16.9684 12.5146 17.3881 13.3148 17.8747 14.0695C18.7582 15.441 19.0927 16.9805 19.3593 18.5455C19.3832 18.6808 19.3199 18.8307 19.2961 18.9733C18.9011 17.6881 18.5245 16.3893 17.0903 15.7744C17.2415 15.5282 17.3954 15.2757 17.5485 15.0241C17.5366 14.9769 17.5246 14.9333 17.5136 14.8824L16.2581 15.0269C15.974 14.4801 15.7449 13.8406 15.7953 13.1276V13.1286Z" fill=""/>
<path id="Vector_3" d="M25.4037 26.6926C24.4176 26.4337 23.4334 26.1703 22.4473 25.9124C21.7142 25.7189 20.9755 25.5309 20.3395 25.3674C19.8291 25.3156 19.5917 25.5173 19.4946 25.8833C18.7981 28.4949 18.1055 31.1068 17.417 33.719C17.2988 34.1731 17.4885 34.4656 17.9669 34.5909C19.6439 35.0323 21.3241 35.4686 23.0073 35.8997C23.5892 36.0478 23.8513 35.8843 24.0153 35.303C24.1794 34.7217 24.3251 34.1359 24.4809 33.5519C24.999 31.6142 25.5183 29.6741 26.0388 27.7316C26.1818 27.1549 25.9848 26.8443 25.4037 26.6926ZM23.5599 31.5064C23.0237 31.8198 22.4656 32.0995 21.9048 32.3684C21.4328 32.5945 21.0479 32.481 20.7528 32.0541C20.4577 31.6272 20.1672 31.1722 19.874 30.7317C19.4286 30.0614 19.5285 29.3139 20.1223 28.8806C20.7162 28.4474 21.4594 28.5445 21.9882 29.1531C22.0267 29.1985 22.0633 29.2439 22.1156 29.3084C22.9587 28.9723 23.635 29.1358 23.9998 29.738C24.0926 29.8818 24.1551 30.0429 24.1832 30.2113C24.2114 30.3798 24.2047 30.5522 24.1635 30.718C24.1224 30.8838 24.0477 31.0396 23.9439 31.176C23.8401 31.3123 23.7095 31.4262 23.5599 31.511V31.5064Z" fill=""/>
<path id="Vector_4" d="M16.7402 33.498C17.0088 32.4599 17.2901 31.4254 17.565 30.3899C18.0159 28.7033 18.4659 27.0166 18.9278 25.2891C18.8279 25.309 18.7573 25.3181 18.6895 25.3372C16.9804 25.8358 15.2694 26.3299 13.563 26.8386C13.0809 26.9821 12.9315 27.2982 13.0763 27.7977C13.244 28.3772 13.4319 28.9503 13.6042 29.5289C14.1938 31.4962 14.7815 33.4641 15.3674 35.4327C15.4801 35.8132 15.7184 36.0784 16.1299 35.9776C16.8805 35.8014 17.6164 35.5653 18.4879 35.3173L17.6631 35.0821C16.8612 34.8568 16.5322 34.3046 16.7402 33.498ZM14.3401 28.1964C14.2881 28.1148 14.2613 28.02 14.2628 27.9235C14.2643 27.827 14.2942 27.733 14.3487 27.6531C14.4032 27.5731 14.4801 27.5106 14.5699 27.4733C14.6596 27.4359 14.7584 27.4252 14.8542 27.4426C14.8706 27.4452 14.8868 27.4489 14.9028 27.4535C14.9897 27.4754 15.0686 27.521 15.1305 27.5853C15.1924 27.6495 15.2348 27.7298 15.2529 27.8168C15.262 27.8504 15.2593 27.8804 15.3179 27.8776C15.4494 27.8664 15.5803 27.9046 15.6845 27.9848C15.7742 28.0581 15.8349 28.1604 15.8559 28.2736C15.8788 28.394 15.8567 28.5186 15.7936 28.6239C15.7305 28.7293 15.6308 28.8082 15.5131 28.8459L15.471 28.8586C15.5356 28.9214 15.6102 28.9733 15.6918 29.0121C15.7221 29.0257 15.7532 29.0411 15.7532 29.0829C15.7532 29.1247 15.7258 29.1447 15.69 29.1601L15.1502 29.4017L15.0668 29.439C15.0535 29.4467 15.038 29.4501 15.0227 29.4486C15.0073 29.4472 14.9927 29.4411 14.981 29.4311C14.9693 29.4211 14.961 29.4077 14.9574 29.3929C14.9537 29.378 14.9548 29.3624 14.9605 29.3481C14.966 29.3281 14.9715 29.3091 14.9761 29.2891C14.9931 29.219 14.9993 29.1467 14.9944 29.0747C14.9602 29.0938 14.9251 29.1111 14.889 29.1265C14.8594 29.1382 14.8287 29.147 14.7974 29.1529C14.7251 29.1675 14.6504 29.166 14.5787 29.1487C14.507 29.1313 14.4401 29.0984 14.3827 29.0524C14.3254 29.0064 14.279 28.9484 14.2469 28.8826C14.2148 28.8167 14.1978 28.7446 14.1971 28.6715C14.1963 28.5445 14.2456 28.4222 14.3346 28.3309C14.3795 28.2791 14.3768 28.2509 14.3401 28.1964Z" fill=""/>
<path id="Vector_5" d="M10.9845 7.07017H14.6502C14.7217 6.43438 14.7886 5.83855 14.8619 5.19005C14.6905 5.18278 14.5558 5.17188 14.4211 5.17188C12.9548 5.17188 11.4885 5.17188 10.0222 5.17188C9.35596 5.17188 9.28906 5.24454 9.28906 5.89849C9.28906 10.1625 9.28906 14.4269 9.28906 18.6915V19.1874H10.1817C10.9982 15.1774 11.1907 11.1519 10.9845 7.07017Z" fill=""/>
<path id="Vector_6" d="M27.9024 7.08328C27.9024 9.31673 27.9024 11.4793 27.9024 13.6428C27.8967 13.8088 27.9043 13.9749 27.9253 14.1397C28.0637 14.9725 28.2286 15.8009 28.3523 16.6356C28.4761 17.4703 28.5659 18.335 28.6694 19.1724H29.6097C29.6198 19.0816 29.6317 19.0189 29.6317 18.9608C29.6317 14.5556 29.6335 10.1511 29.6372 5.74722C29.6372 5.30761 29.431 5.16137 29.0195 5.1641C27.8593 5.17409 26.6982 5.16411 25.537 5.16955H24.0625C24.1367 5.83169 24.2055 6.44113 24.2779 7.08328H27.9024Z" fill=""/>
<path id="Vector_7" d="M27.7554 21.6016H26.6328C27.0525 21.9749 27.399 21.9985 27.7554 21.6016Z" fill=""/>
<path id="Vector_8" d="M30.6764 23.0469H29.5547C29.9744 23.4202 30.3208 23.4438 30.6764 23.0469Z" fill=""/>
<path id="Vector_9" d="M11.3381 22.9531L9.88281 23.1157C10.2824 23.6452 11.0064 23.5444 11.3381 22.9531Z" fill=""/>
<path id="Vector_10" d="M11.108 21.5078L9.83594 21.6322C10.2749 22.0055 10.6901 21.9465 11.108 21.5078Z" fill=""/>
<path id="Vector_11" d="M23.5567 23.0312H22.3516C22.8895 23.4518 23.1479 23.4545 23.5567 23.0312Z" fill=""/>
<path id="Vector_12" d="M25.7442 22.9219H24.5391C25.077 23.3424 25.3354 23.3497 25.7442 22.9219Z" fill=""/>
<path id="Vector_13" d="M23.3281 22.2109C23.8661 22.6306 24.1254 22.6342 24.5332 22.2109H23.3281Z" fill=""/>
<path id="Vector_14" d="M23.5407 21.5781H22.375C22.8653 22.0014 23.1567 22.0059 23.5407 21.5781Z" fill=""/>
<path id="Vector_15" d="M19.3477 21.5938H18.1875C18.686 22.0106 18.895 22.0034 19.3477 21.5938Z" fill=""/>
<path id="Vector_16" d="M20.7673 21.5859H19.6172C20.0892 22.0101 20.3531 22.0137 20.7673 21.5859Z" fill=""/>
<path id="Vector_17" d="M19.3477 23.0859H18.1875C18.686 23.5028 18.895 23.4956 19.3477 23.0859Z" fill=""/>
<path id="Vector_18" d="M20.7673 23.0703H19.6172C20.0892 23.4945 20.3531 23.4981 20.7673 23.0703Z" fill=""/>
<path id="Vector_19" d="M15.6023 22.2812H14.4531C14.9251 22.7054 15.1881 22.7118 15.6023 22.2812Z" fill=""/>
<path id="Vector_20" d="M20.5141 8.7536V8.59375H18.4062V8.78267C19.1101 8.95887 19.813 9.01427 20.5141 8.7536Z" fill=""/>
<path id="Vector_21" d="M19.9932 9.05469H18.9219C19.3746 9.44979 19.5689 9.44979 19.9932 9.05469Z" fill=""/>
</g>
</g>
<defs>
<clipPath id="clip0_1788_11375">
<rect width="35" height="35" fill="white" transform="translate(0.945312)"/>
</clipPath>
</defs>
</svg>
