<svg width="45" height="45" viewBox="0 0 45 45" fill="none" xmlns="http://www.w3.org/2000/svg"> 
<g clip-path="url(#clip0_5796_13501)">
<path d="M34.7727 8.18734H36.8181V10.2328C36.8181 10.7753 37.0336 11.2955 37.4172 11.6791C37.8008 12.0627 38.3211 12.2782 38.8636 12.2782C39.406 12.2782 39.9263 12.0627 40.3099 11.6791C40.6935 11.2955 40.909 10.7753 40.909 10.2328V8.18734H42.9545C43.4969 8.18734 44.0172 7.97184 44.4008 7.58824C44.7844 7.20464 44.9999 6.68438 44.9999 6.14189C44.9999 5.5994 44.7844 5.07913 44.4008 4.69554C44.0172 4.31194 43.4969 4.09644 42.9545 4.09644H40.909V2.05099C40.909 1.5085 40.6935 0.988234 40.3099 0.604638C39.9263 0.221041 39.406 0.00553926 38.8636 0.00553926C38.3211 0.00553926 37.8008 0.221041 37.4172 0.604638C37.0336 0.988234 36.8181 1.5085 36.8181 2.05099V4.09644H34.7727C34.2302 4.09644 33.7099 4.31194 33.3263 4.69554C32.9427 5.07913 32.7272 5.5994 32.7272 6.14189C32.7272 6.68438 32.9427 7.20464 33.3263 7.58824C33.7099 7.97184 34.2302 8.18734 34.7727 8.18734ZM12.2727 12.2782V32.7327C12.2727 33.2752 12.4882 33.7955 12.8718 34.1791C13.2554 34.5627 13.7757 34.7782 14.3182 34.7782C14.8606 34.7782 15.3809 34.5627 15.7645 34.1791C16.1481 33.7955 16.3636 33.2752 16.3636 32.7327V12.2782C16.3636 11.7358 16.1481 11.2155 15.7645 10.8319C15.3809 10.4483 14.8606 10.2328 14.3182 10.2328C13.7757 10.2328 13.2554 10.4483 12.8718 10.8319C12.4882 11.2155 12.2727 11.7358 12.2727 12.2782ZM42.1363 16.3691C41.873 16.4228 41.6229 16.5278 41.4002 16.6782C41.1776 16.8285 40.9867 17.0213 40.8385 17.2454C40.6904 17.4696 40.5878 17.7207 40.5367 17.9845C40.4857 18.2483 40.4871 18.5195 40.5408 18.7828C41.3395 22.6614 40.8661 26.6941 39.1911 30.2823C37.516 33.8706 34.7286 36.8231 31.2425 38.7015C27.7564 40.5799 23.7575 41.2842 19.8395 40.7097C15.9214 40.1353 12.293 38.3127 9.49287 35.5126C6.69276 32.7125 4.87019 29.0841 4.29573 25.166C3.72126 21.2479 4.42551 17.249 6.30395 13.763C8.18238 10.2769 11.1349 7.48943 14.7231 5.81438C18.3113 4.13934 22.3441 3.666 26.2227 4.46462C26.7652 4.57312 27.3285 4.46167 27.7889 4.15479C28.2492 3.84792 28.5687 3.37075 28.6772 2.82826C28.7857 2.28577 28.6743 1.7224 28.3674 1.26209C28.0605 0.801773 27.5833 0.482218 27.0409 0.37372C25.544 0.0948257 24.0222 -0.0285572 22.5 0.00553926C18.0499 0.00553926 13.6998 1.32514 9.99966 3.79746C6.29956 6.26979 3.41568 9.7838 1.71272 13.8951C0.00974895 18.0065 -0.435825 22.5304 0.43234 26.895C1.30051 31.2596 3.44342 35.2687 6.59009 38.4154C9.73677 41.562 13.7459 43.7049 18.1104 44.5731C22.475 45.4413 26.999 44.9957 31.1103 43.2927C35.2216 41.5898 38.7357 38.7059 41.208 35.0058C43.6803 31.3057 44.9999 26.9556 44.9999 22.5055C45.0042 20.994 44.8535 19.4862 44.5499 18.0055C44.5009 17.7386 44.3993 17.484 44.251 17.2568C44.1026 17.0295 43.9105 16.834 43.6859 16.6817C43.4612 16.5294 43.2085 16.4233 42.9425 16.3697C42.6765 16.316 42.4024 16.3158 42.1363 16.3691ZM20.4545 16.3691V18.4146C20.4635 19.9283 21.0318 21.3853 22.05 22.5055C21.0318 23.6257 20.4635 25.0826 20.4545 26.5964V28.6418C20.4545 30.2693 21.101 31.8301 22.2518 32.9809C23.4026 34.1317 24.9634 34.7782 26.5909 34.7782H28.6363C30.2638 34.7782 31.8246 34.1317 32.9754 32.9809C34.1262 31.8301 34.7727 30.2693 34.7727 28.6418V26.5964C34.7636 25.0826 34.1954 23.6257 33.1772 22.5055C34.1954 21.3853 34.7636 19.9283 34.7727 18.4146V16.3691C34.7727 14.7417 34.1262 13.1809 32.9754 12.0301C31.8246 10.8793 30.2638 10.2328 28.6363 10.2328H26.5909C24.9634 10.2328 23.4026 10.8793 22.2518 12.0301C21.101 13.1809 20.4545 14.7417 20.4545 16.3691ZM30.6818 28.6418C30.6818 29.1843 30.4663 29.7046 30.0827 30.0882C29.6991 30.4718 29.1788 30.6873 28.6363 30.6873H26.5909C26.0484 30.6873 25.5281 30.4718 25.1445 30.0882C24.7609 29.7046 24.5454 29.1843 24.5454 28.6418V26.5964C24.5454 26.0539 24.7609 25.5336 25.1445 25.15C25.5281 24.7664 26.0484 24.5509 26.5909 24.5509H28.6363C29.1788 24.5509 29.6991 24.7664 30.0827 25.15C30.4663 25.5336 30.6818 26.0539 30.6818 26.5964V28.6418ZM30.6818 16.3691V18.4146C30.6818 18.9571 30.4663 19.4773 30.0827 19.8609C29.6991 20.2445 29.1788 20.46 28.6363 20.46H26.5909C26.0484 20.46 25.5281 20.2445 25.1445 19.8609C24.7609 19.4773 24.5454 18.9571 24.5454 18.4146V16.3691C24.5454 15.8267 24.7609 15.3064 25.1445 14.9228C25.5281 14.5392 26.0484 14.3237 26.5909 14.3237H28.6363C29.1788 14.3237 29.6991 14.5392 30.0827 14.9228C30.4663 15.3064 30.6818 15.8267 30.6818 16.3691Z" fill="white"/>
</g>
<defs>
<clipPath id="clip0_5796_13501">
<rect width="45" height="45" fill="white"/>
</clipPath>
</defs>
</svg>
