<svg fill="none" height="20" viewBox="0 0 21 20" width="21" xmlns="http://www.w3.org/2000/svg"><g fill="#4098d8"><path d="m13.974 9.16927h-7.50004c-.10944.00003-.21782-.02151-.31894-.06337-.10112-.04187-.19299-.10326-.27038-.18064-.07739-.07739-.13877-.16927-.18064-.27039-.04187-.10111-.0634-.20949-.06337-.31893v-2.91667c0-1.21557.48288-2.38136 1.34242-3.24091.85954-.85954 2.02533-1.342422 3.24095-1.342422 1.2155 0 2.3813.482882 3.2409 1.342422.8595.85955 1.3424 2.02534 1.3424 3.24091v2.91667c0 .10944-.0215.21782-.0634.31893-.0419.10112-.1032.193-.1806.27039-.0774.07738-.1693.13877-.2704.18064-.1011.04186-.2095.0634-.3189.06337zm-6.66671-1.66667h5.83331v-2.08333c0-.77355-.3073-1.51541-.8542-2.06239-.547-.54698-1.2889-.85428-2.0624-.85428-.77359 0-1.51546.3073-2.06244.85428s-.85427 1.28884-.85427 2.06239z"/><path d="m14.3932 7.5h-8.3333c-.88377.00094-1.73107.35243-2.35599.97735-.62491.62492-.97641 1.47222-.97735 2.35595v5c.00094.8838.35244 1.7311.97735 2.356.62492.6249 1.47222.9764 2.35599.9774h8.3333c.8838-.001 1.7311-.3525 2.356-.9774s.9764-1.4722.9774-2.356v-5c-.001-.88373-.3525-1.73103-.9774-2.35595s-1.4722-.97641-2.356-.97735zm-4.1666 6.6667c-.32967 0-.65191-.0978-.92599-.2809-.27408-.1832-.4877-.4435-.61385-.748-.12614-.3045-.15915-.6396-.09484-.963.06431-.3233.22304-.6202.45613-.8533s.53006-.3918.85336-.4561c.32329-.0644.65839-.0313.96299.0948.3045.1261.5648.3398.7479.6138.1832.2741.2809.5964.2809.926 0 .442-.1756.8659-.4881 1.1785-.3126.3126-.7365.4882-1.1785.4882z"/></g></svg>