<svg width="13" height="13" viewBox="0 0 13 13" fill="none" xmlns="http://www.w3.org/2000/svg">
<path id="Vector (Stroke)" fill-rule="evenodd" clip-rule="evenodd" d="M6.09375 1.7C3.44279 1.7 1.29375 3.84904 1.29375 6.5C1.29375 6.83137 1.02512 7.1 0.69375 7.1C0.362379 7.1 0.09375 6.83137 0.09375 6.5C0.09375 3.18629 2.78004 0.5 6.09375 0.5C7.6301 0.5 9.03277 1.07821 10.0939 2.02792L10.0958 2.02965L10.8937 2.75V1.1C10.8937 0.768629 11.1624 0.5 11.4938 0.5C11.8251 0.5 12.0938 0.768629 12.0938 1.1V4.1C12.0938 4.43137 11.8251 4.7 11.4938 4.7H8.49375C8.16238 4.7 7.89375 4.43137 7.89375 4.1C7.89375 3.76863 8.16238 3.5 8.49375 3.5H9.93374L9.29361 2.92209L9.29269 2.92128C8.44317 2.16134 7.32308 1.7 6.09375 1.7ZM11.4938 5.9C11.8251 5.9 12.0938 6.16863 12.0938 6.5C12.0938 9.81373 9.40748 12.5 6.09375 12.5C4.55742 12.5 3.15471 11.9218 2.0936 10.9721L2.09169 10.9703L1.29375 10.25V11.9C1.29375 12.2314 1.02512 12.5 0.69375 12.5C0.362379 12.5 0.09375 12.2314 0.09375 11.9V8.9C0.09375 8.56863 0.362379 8.3 0.69375 8.3H3.69375C4.02512 8.3 4.29375 8.56863 4.29375 8.9C4.29375 9.23137 4.02512 9.5 3.69375 9.5H2.25376L2.8939 10.0779L2.89482 10.0787C3.74433 10.8386 4.86446 11.3 6.09375 11.3C8.74474 11.3 10.8937 9.15099 10.8937 6.5C10.8937 6.16863 11.1624 5.9 11.4938 5.9Z" fill="currentColor"/>
</svg>
