<svg width="50" height="50" viewBox="0 0 50 50" fill="none" xmlns="http://www.w3.org/2000/svg">
<path d="M24.802 24.9587C24.9959 24.9587 25.1898 24.9665 25.3758 24.9757V24.4438V22.0908V17.3599H24.2373V24.4438V24.6626V24.9744C24.422 24.9665 24.6159 24.9587 24.802 24.9587Z" fill="#6D7BAC"/>
<path d="M17.1611 29.4958H8.58496V30.6344H16.6384C16.7904 30.2466 16.9672 29.8588 17.1611 29.4958Z" fill="#6D7BAC"/>
<path d="M32.4414 29.4958C32.6432 29.8588 32.8122 30.2466 32.9642 30.6344H41.0176V29.4958H32.4414Z" fill="#6D7BAC"/>
<path d="M24.802 42.3559C24.6081 42.3559 24.422 42.348 24.2373 42.3389V43.9163H25.3758V42.3389C25.1898 42.348 24.9959 42.3559 24.802 42.3559Z" fill="#6D7BAC"/>
<path d="M35.3351 15.6239C34.9054 16.0537 33.5808 17.3782 27.2895 18.5337C27.4415 18.7525 27.5594 18.8875 27.5594 18.8875C28.411 20.1609 29.3976 21.3244 30.4863 22.3869C31.1021 22.9777 31.1361 23.9473 30.5544 24.5709C29.9557 25.1696 29.0032 25.2037 28.3704 24.6377C27.6446 23.9459 26.962 23.2123 26.3384 22.4288L24.795 20.5147L23.2609 22.438C22.6372 23.2136 21.9533 23.9564 21.2288 24.6469C20.596 25.2115 19.6344 25.1866 19.0448 24.5801C18.4631 23.9564 18.4972 22.9856 19.1117 22.396C20.2082 21.3335 21.1856 20.1609 22.0385 18.8967C22.0896 18.8298 22.1656 18.6949 22.2665 18.5337C16.0001 17.3782 14.6939 16.0628 14.2641 15.6331C11.8351 13.2041 11.8351 9.24879 14.2641 6.82109L14.289 6.7962C15.4695 5.64983 17.0298 5.00786 18.6741 5.00786C20.3183 5.00786 21.8787 5.64066 23.0591 6.7962L23.084 6.82109C23.3709 7.10802 24.0456 7.78274 24.8042 10.0427C25.5628 7.7906 26.2375 7.11588 26.5244 6.82109C27.7049 5.64066 29.2652 5 30.9344 5C32.6035 5 34.1639 5.64983 35.3443 6.82109C37.772 9.23961 37.772 13.1949 35.3351 15.6239ZM26.6581 15.489C29.5338 14.9662 32.4266 14.1487 33.1433 13.4308C34.3656 12.2084 34.3656 10.234 33.1433 9.01165C31.9209 7.78929 29.9465 7.78929 28.7242 9.01165C28.0075 9.7283 27.1808 12.6211 26.6581 15.489ZM16.4625 13.4308C17.1792 14.1474 20.0628 14.9649 22.9477 15.489C22.425 12.6132 21.6075 9.72044 20.8895 9.00379C19.6672 7.80632 17.7019 7.80632 16.4704 9.00379C15.2389 10.2262 15.2389 12.2084 16.4625 13.4308Z" fill="#6D7BAC"/>
<path d="M38.9268 15.7666H22.989H10.6933C8.65209 15.7666 7 17.42 7 19.4599V28.1959V41.8148C7 43.856 8.6534 45.5081 10.6933 45.5081H26.6311H38.9268C40.968 45.5081 42.6201 43.8547 42.6201 41.8148V33.0788V19.4599C42.6214 17.42 40.968 15.7666 38.9268 15.7666ZM41.0191 41.5711C41.0191 42.8616 39.9736 43.915 38.6753 43.915H26.4648H10.9291C9.63862 43.915 8.58527 42.8695 8.58527 41.5711V28.1632V19.7049C8.58527 18.4144 9.63076 17.361 10.9291 17.361H23.1488H38.6818C39.9723 17.361 41.0257 18.4065 41.0257 19.7049V33.1129V41.5711H41.0191Z" fill="#6D7BAC"/>
<path d="M24.8019 24.9587C20.012 24.9587 16.0986 28.863 16.0986 33.662C16.0986 38.461 20.0029 42.3653 24.8019 42.3653C29.5996 42.3653 33.5052 38.461 33.5052 33.662C33.5038 28.8551 29.5996 24.9587 24.8019 24.9587ZM25.8304 37.9291V38.047C25.8304 38.6117 25.3744 39.0676 24.8098 39.0676C24.2451 39.0676 23.7892 38.6117 23.7892 38.047V37.9711H23.7132C23.1485 37.9711 22.6926 37.5151 22.6926 36.9505C22.6926 36.3858 23.1485 35.9299 23.7132 35.9299H25.3574C25.7033 35.9299 25.9732 35.6521 25.9732 35.3141C25.9732 34.9682 25.6954 34.6983 25.3574 34.6983H24.27C22.7948 34.6983 21.5803 33.493 21.5803 31.9994C21.5803 30.6919 22.5327 29.6045 23.7734 29.3936V29.2835C23.7734 28.7188 24.2294 28.2629 24.794 28.2629C25.3587 28.2629 25.8146 28.7188 25.8146 29.2835V29.3595H25.8906C26.4553 29.3595 26.9112 29.8154 26.9112 30.3801C26.9112 30.9448 26.4553 31.4007 25.8906 31.4007H24.2215C23.9005 31.4007 23.6306 31.6706 23.6306 31.9916C23.6306 32.3453 23.9175 32.6414 24.2713 32.6414H25.3417C26.8169 32.6414 28.0065 33.831 28.0065 35.3062C28.0144 36.6137 27.0697 37.7012 25.8304 37.9291Z" fill="#52BCEB"/>
</svg>
