<svg width="39" height="43" viewBox="0 0 39 43" fill="none" xmlns="http://www.w3.org/2000/svg"> 
<g clip-path="url(#clip0_5796_13503)">
<path d="M6.48726 39.7657C6.40435 41.6482 5.12814 42.8712 3.42257 42.8712C2.99163 42.8763 2.56481 42.7879 2.17235 42.6124C1.77988 42.4369 1.43136 42.1785 1.15145 41.8555C0.636464 41.2769 0.35972 40.5294 0.375652 39.7598C0.373797 39.3529 0.455775 38.9499 0.616612 38.5751C0.777449 38.2003 1.0138 37.8617 1.31134 37.5796C1.59548 37.2969 1.93558 37.0748 2.3105 36.9272C2.68542 36.7796 3.08714 36.7095 3.49068 36.7215C4.04351 36.6969 4.59093 36.838 5.06083 37.1261C5.53073 37.4142 5.90106 37.8359 6.12305 38.3355H5.04523C4.85363 38.0917 4.60616 37.8961 4.32308 37.7647C4.04001 37.6333 3.72939 37.5699 3.41665 37.5796C3.14056 37.5789 2.86716 37.6331 2.61279 37.7389C2.35841 37.8448 2.12828 38 1.93613 38.1954C1.52335 38.6182 1.2886 39.1795 1.27926 39.7661C1.26992 40.3528 1.48667 40.9211 1.88579 41.3564C2.0843 41.5623 2.32243 41.7272 2.58628 41.8415C2.85013 41.9557 3.13443 42.017 3.42257 42.0218C4.31089 42.0218 5.03635 41.5461 5.49531 40.5975H2.77706V39.7657H6.48726Z" fill="white"/>
<path d="M7.41307 42.7599H6.49219L8.83734 36.8438H9.68124L12.0294 42.7599H11.0848L10.4245 41.0379H8.09708L7.41307 42.7599ZM9.26077 37.9587L8.3991 40.2061H10.1047L9.26077 37.9587Z" fill="white"/>
<path d="M12.3672 42.7599V36.8438H13.6582L15.4082 41.4203L17.1463 36.8438H18.4225V42.7599H17.6023L17.6615 37.626L15.7043 42.7599H15.0825L13.143 37.626L13.2022 42.7599H12.3672Z" fill="white"/>
<path d="M22.2172 42.8716C21.7998 42.8785 21.3857 42.7984 21.0019 42.6364C20.6182 42.4744 20.2735 42.2343 19.9905 41.9318C19.4231 41.3388 19.1166 40.5488 19.1377 39.734C19.1341 39.3353 19.2128 38.94 19.3691 38.5722C19.5254 38.2044 19.756 37.8718 20.0468 37.5946C20.3339 37.3122 20.6753 37.0893 21.0511 36.9389C21.4269 36.7885 21.8295 36.7137 22.235 36.719C22.931 36.7214 23.6055 36.9566 24.1483 37.3861C24.691 37.8155 25.0698 38.4139 25.2227 39.0831H23.6356C23.5113 38.8224 23.3146 38.6018 23.0683 38.4468C22.822 38.2919 22.5361 38.2089 22.2439 38.2075C22.0355 38.2037 21.8283 38.2408 21.6347 38.3168C21.441 38.3929 21.2647 38.5063 21.116 38.6503C20.9674 38.7944 20.8494 38.9663 20.769 39.1559C20.6886 39.3455 20.6475 39.549 20.6479 39.7544C20.6358 40.1792 20.7935 40.5917 21.0871 40.9029C21.3807 41.2141 21.7865 41.3991 22.2172 41.4181C22.5046 41.4135 22.7853 41.332 23.0293 41.1824C23.2734 41.0328 23.4717 40.8207 23.603 40.5688H25.199C25.0445 41.2311 24.6642 41.821 24.1215 42.2402C23.5788 42.6593 22.9066 42.8822 22.2172 42.8716Z" fill="white"/>
<path d="M26.6918 42.7599H25.0898L27.3935 36.8438H28.578L30.8817 42.7599H29.262L28.9659 41.9018H26.982L26.6918 42.7599ZM27.9917 38.7818L27.3995 40.6789H28.5839L27.9917 38.7818Z" fill="white"/>
<path d="M31.0117 42.7599V36.8438H33.0045C33.6382 36.8438 34.1179 36.8846 34.5235 37.1677C34.7901 37.353 35.0045 37.6022 35.1465 37.8917C35.2884 38.1812 35.3532 38.5016 35.3348 38.8226C35.3348 39.7799 34.8285 40.495 33.9757 40.7285L35.4562 42.7716H33.6411L32.4922 40.8657V42.7716L31.0117 42.7599ZM32.7676 39.5727C33.4931 39.5727 33.8484 39.3888 33.8484 38.8576C33.8484 38.3264 33.5523 38.1659 32.8861 38.1659H32.4804V39.5727H32.7676Z" fill="white"/>
<path d="M36.1133 42.7599V36.8438H39.3704V38.1513H37.5938V39.1057H39.3704V40.4221H37.5938V41.4524H39.3704V42.7599H36.1133Z" fill="white"/>
<path d="M38.3077 20.5932C38.1439 20.5016 37.9641 20.4412 37.7777 20.4151H37.6445C37.6198 20.4137 37.5951 20.4137 37.5704 20.4151H37.5023C37.4431 20.4151 37.3839 20.4151 37.3217 20.4151H25.5871C25.1881 20.4151 24.8055 20.5713 24.5234 20.8494C24.2413 21.1275 24.0828 21.5046 24.0828 21.8978C24.0828 22.2911 24.2413 22.6682 24.5234 22.9462C24.8055 23.2243 25.1881 23.3805 25.5871 23.3805H30.1471C30.2191 23.3813 30.2879 23.4098 30.3388 23.46C30.3898 23.5102 30.4187 23.5781 30.4195 23.649C30.4185 23.6895 30.4081 23.7292 30.3891 23.7652C30.3701 23.8011 30.343 23.8322 30.3099 23.8563C27.8078 25.1726 24.5921 25.9694 21.0744 25.9694C20.2365 25.9685 19.3993 25.9227 18.5664 25.8322V29.1945C19.2771 29.2471 19.9966 29.2763 20.728 29.2763C25.6255 29.2763 30.079 28.1088 33.419 26.1679C33.4615 26.1444 33.5095 26.1323 33.5582 26.1328C33.6367 26.1328 33.712 26.1636 33.7676 26.2183C33.8231 26.2731 33.8543 26.3473 33.8543 26.4247C33.854 26.4535 33.849 26.4821 33.8395 26.5094L33.1437 28.3715C33.0321 28.6085 32.9717 28.8657 32.9662 29.127C32.9608 29.3882 33.0103 29.6477 33.1118 29.889C33.2133 30.1304 33.3645 30.3484 33.5559 30.5292C33.7472 30.71 33.9745 30.8497 34.2235 30.9394C34.4724 31.0292 34.7375 31.0671 35.0021 31.0506C35.2666 31.0342 35.5248 30.9639 35.7603 30.844C35.9959 30.7242 36.2036 30.5575 36.3704 30.3545C36.5373 30.1514 36.6595 29.9165 36.7295 29.6645L39.2464 22.931C39.4091 22.4958 39.4033 22.0167 39.2301 21.5854C39.0569 21.1541 38.7285 20.8008 38.3077 20.5932Z" fill="white"/>
<path d="M21.0743 7.87283C24.6275 7.87283 27.8669 8.67839 30.375 10.0122C30.375 10.0122 31.968 11.1418 32.726 10.0589C33.5966 8.81265 31.8584 8.03919 31.8584 8.03919C28.7345 6.59736 24.8852 5.74219 20.7397 5.74219C20.0083 5.74219 19.2888 5.77137 18.5781 5.82391V8.01293C19.4069 7.92044 20.2402 7.87367 21.0743 7.87283Z" fill="white"/>
<path d="M3.05166 0.125C2.34488 0.125 1.66704 0.401753 1.16726 0.894377C0.667487 1.387 0.386719 2.05514 0.386719 2.75182V31.2615C0.390631 31.9557 0.673124 32.6201 1.17248 33.1096C1.67183 33.599 2.34743 33.8738 3.05166 33.8738H18.5646V29.1747C9.23138 28.5034 1.98272 23.5358 1.98272 17.4999C1.98272 11.4641 9.23434 6.49649 18.5646 5.82519V0.125H3.05166Z" fill="white"/>
<path d="M6.67969 16.9127C6.67969 21.3666 11.8112 25.0646 18.5653 25.8118V8.00781C11.8112 8.76083 6.67969 12.4588 6.67969 16.9127Z" fill="white"/>
</g>
<defs>
<clipPath id="clip0_5796_13503">
<rect width="39" height="42.75" fill="white" transform="translate(0 0.125)"/>
</clipPath>
</defs>
</svg>
