<svg fill="none" height="16" viewBox="0 0 15 16" width="15" xmlns="http://www.w3.org/2000/svg"><g clip-rule="evenodd" fill="#6c7aab" fill-rule="evenodd"><path d="m14.6441 8.6705c-.4172.43934-1.0936.43934-1.5109 0l-5.65462-5.95451-5.65466 5.95451c-.41721.43934-1.093657.43933-1.510873 0-.417217-.43934-.417217-1.15166 0-1.59099l6.410103-6.750005c.41721-.43934 1.09365-.43934 1.51087 0l6.41008 6.750005c.4172.43934.4172 1.15165 0 1.59099z"/><path d="m14.6441 15.6705c-.4172.4393-1.0936.4393-1.5109 0l-5.65462-5.95451-5.65466 5.95451c-.41721.4393-1.093657.4393-1.510873 0-.417217-.4393-.417217-1.1517 0-1.591l6.410103-6.75c.41721-.43934 1.09365-.43934 1.51087 0l6.41008 6.75c.4172.4393.4172 1.1517 0 1.591z"/></g></svg>