<svg fill="none" height="20" viewBox="0 0 21 20" width="21" xmlns="http://www.w3.org/2000/svg"><path d="m13.2423 9.27363c1.2797-.93332 2.1131-2.44379 2.1131-4.14543 0-2.82769-2.3006-5.1282-5.1283-5.1282-2.82765 0-5.12815 2.30051-5.12815 5.1282 0 1.70164.83332 3.21211 2.11308 4.14543-3.18125 1.21737-5.44641 4.30177-5.44641 7.90587 0 1.5552 1.26528 2.8205 2.82051 2.8205h11.28207c1.5552 0 2.8205-1.2653 2.8205-2.8205 0-3.6041-2.2652-6.6885-5.4464-7.90587zm-6.60488-4.14543c0-1.97937 1.61035-3.58972 3.58968-3.58972 1.9794 0 3.5898 1.61035 3.5898 3.58972 0 1.97938-1.6104 3.58977-3.5898 3.58977-1.97933 0-3.58968-1.61039-3.58968-3.58977zm9.23078 13.3333h-11.28207c-.70691 0-1.28203-.5751-1.28203-1.282 0-3.8175 3.10563-6.9231 6.9231-6.9231 3.8174 0 6.9231 3.1056 6.9231 6.9231-.0001.7069-.5752 1.282-1.2821 1.282z" fill="#4098d8"/></svg>