<svg fill="none" height="26" viewBox="0 0 26 26" width="26" xmlns="http://www.w3.org/2000/svg"><g clip-rule="evenodd" fill-rule="evenodd"><path d="m16.4206 1.75257c1.1861-1.528254 3.4124-.57027 3.4124 1.44976v7.45227h2.3954c1.6821 0 2.5803 2.2293 1.4669 3.6573l-7.7475 9.9345-.0009.0011c-1.1861 1.5281-3.4124.5702-3.4124-1.4498v-7.4523h-2.3953c-1.67855 0-2.56219-2.2309-1.47072-3.6524.00129-.0016.00259-.0033.00389-.005l7.74743-9.93438zm1.877 1.44976c0-.42892-.4751-.62635-.7223-.30747l-.0015.00192-7.74645 9.93322c-.23697.3116-.03568.7824.31185.7824h3.163c.424 0 .7678.3879.7678.8665v8.3188c0 .4289.475.6263.7222.3074l.0015-.0019 7.7489-9.9362c.2378-.305.0509-.7793-.3142-.7793h-3.1631c-.424 0-.7677-.388-.7677-.8666z" fill="#595959"/><path d="m.1875 4.43192c0-.63118.361182-1.14286.806723-1.14286h7.529407c.44555 0 .80673.51168.80673 1.14286s-.36118 1.14286-.80673 1.14286h-7.529407c-.445541 0-.806723-.51168-.806723-1.14286z" fill="#fff"/><path d="m.1875 4.43192c0-.63118.361182-1.14286.806723-1.14286h7.529407c.44555 0 .80673.51168.80673 1.14286s-.36118 1.14286-.80673 1.14286h-7.529407c-.445541 0-.806723-.51168-.806723-1.14286z" fill="#35c0ff"/><path d="m.1875 22.7132c0-.6312.358172-1.1429.8-1.1429h6.4c.44183 0 .8.5117.8 1.1429s-.35817 1.1428-.8 1.1428h-6.4c-.441828 0-.8-.5116-.8-1.1428z" fill="#fff"/><path d="m.1875 22.7132c0-.6312.358172-1.1429.8-1.1429h6.4c.44183 0 .8.5117.8 1.1429s-.35817 1.1428-.8 1.1428h-6.4c-.441828 0-.8-.5116-.8-1.1428z" fill="#35c0ff"/><path d="m.1875 12.4319c0-.6312.426396-1.1428.95238-1.1428h3.80952c.52599 0 .95239.5116.95239 1.1428s-.4264 1.1429-.95239 1.1429h-3.80952c-.525984 0-.95238-.5117-.95238-1.1429z" fill="#fff"/><path d="m.1875 12.4319c0-.6312.426396-1.1428.95238-1.1428h3.80952c.52599 0 .95239.5116.95239 1.1428s-.4264 1.1429-.95239 1.1429h-3.80952c-.525984 0-.95238-.5117-.95238-1.1429z" fill="#35c0ff"/></g></svg>