<svg width="30" height="30" viewBox="0 0 30 30" fill="none" xmlns="http://www.w3.org/2000/svg">
<path d="M16.25 20.1875V23.5625C16.25 26.375 17.375 27.5 20.1875 27.5H23.5625C26.375 27.5 27.5 26.375 27.5 23.5625V20.1875C27.5 17.375 26.375 16.25 23.5625 16.25H20.1875C17.375 16.25 16.25 17.375 16.25 20.1875Z" fill="#FAFAFA" stroke="#FAFAFA" stroke-width="1.5" stroke-linecap="round" stroke-linejoin="round"/>
<path d="M13.75 13.7578L13.75 8.74531" stroke="#FAFAFA" stroke-width="1.5" stroke-linecap="round" stroke-linejoin="round"/>
<path d="M7.48828 7.475L13.7508 13.75L8.73828 13.75" stroke="#FAFAFA" stroke-width="1.5" stroke-linecap="round" stroke-linejoin="round"/>
<path d="M27.5 12.475V11.25C27.5 5 25 2.5 18.75 2.5H11.25C5 2.5 2.5 5 2.5 11.25V18.75C2.5 25 5 27.5 11.25 27.5H12.5" stroke="#FAFAFA" stroke-width="1.5" stroke-linecap="round" stroke-linejoin="round"/>
</svg>
