<svg width="15" height="20" viewBox="0 0 15 20" fill="none" xmlns="http://www.w3.org/2000/svg">
<path d="M1.64912 20H13.5072C13.9983 20 14.3965 19.593 14.3965 19.0909V8.78788C14.3965 8.28582 13.9983 7.87879 13.5072 7.87879H12.6178V5.15152C12.6178 2.31097 10.357 0 7.57815 0C4.79927 0 2.53848 2.31097 2.53848 5.15152V7.87879H1.64912C1.15796 7.87879 0.759766 8.28582 0.759766 8.78788V19.0909C0.759766 19.593 1.15796 20 1.64912 20ZM8.46751 14.2416V15.4545C8.46751 15.9566 8.06931 16.3636 7.57815 16.3636C7.08699 16.3636 6.6888 15.9566 6.6888 15.4545V14.2416C6.32902 13.9649 6.09589 13.525 6.09589 13.0303C6.09589 12.1948 6.76084 11.5152 7.57815 11.5152C8.39547 11.5152 9.06041 12.1948 9.06041 13.0303C9.06041 13.525 8.82728 13.9649 8.46751 14.2416ZM4.31718 5.15152C4.31718 3.31352 5.78006 1.81818 7.57815 1.81818C9.37625 1.81818 10.8391 3.31352 10.8391 5.15152V7.87879H4.31718V5.15152Z" fill="#A4AFD5"/>
</svg>
