<svg width="60" height="60" viewBox="0 0 60 60" fill="none" xmlns="http://www.w3.org/2000/svg"> 
<g clip-path="url(#clip0_5796_13592)">
<path d="M41.7441 18.1589C41.7559 18.1589 41.7715 18.1589 41.7872 18.1589C42.1966 18.1589 42.5766 18.2862 42.8881 18.5056L42.8822 18.5017C43.1094 18.6995 43.2622 18.9777 43.2994 19.2911V19.2969C43.3386 19.5359 43.3602 19.8102 43.3602 20.0903C43.3602 20.2176 43.3562 20.343 43.3464 20.4683V20.4507C42.9057 25.0912 40.9939 36.3447 40.0223 41.5395C39.611 43.7392 38.802 44.4758 38.0184 44.5463C36.3162 44.7049 35.0234 43.4219 33.374 42.3406C30.7923 40.6462 29.333 39.5924 26.8276 37.9411C23.9305 36.0352 25.809 34.9833 27.4584 33.2712C27.8913 32.8207 35.3955 25.9942 35.5425 25.3752C35.5503 25.338 35.5542 25.2968 35.5542 25.2538C35.5542 25.101 35.4974 24.9619 35.4053 24.8561C35.3035 24.7895 35.1762 24.7523 35.043 24.7523C34.9548 24.7523 34.8706 24.7699 34.7922 24.7993L34.7961 24.7973C34.5376 24.8561 30.4136 27.5815 22.4242 32.9735C21.5525 33.6611 20.4516 34.0959 19.2528 34.1468H19.2411C17.5428 33.9412 16.0012 33.5631 14.5379 33.0244L14.6829 33.0714C12.8455 32.472 11.3862 32.1567 11.5115 31.142C11.5781 30.6144 12.3055 30.0744 13.6937 29.522C22.2446 25.7963 27.9468 23.3406 30.8001 22.1549C33.948 20.484 37.5973 19.1089 41.4346 18.2176L41.7422 18.1569L41.7441 18.1589ZM29.615 0.5C13.3528 0.539177 0.183594 13.7319 0.183594 30C0.183594 46.2916 13.39 59.5 29.6836 59.5C45.9772 59.5 59.1836 46.2936 59.1836 30C59.1836 13.7319 46.0144 0.539177 29.7561 0.5H29.7522C29.7064 0.5 29.6607 0.5 29.615 0.5Z" fill="white"/>
</g>
<defs>
<clipPath id="clip0_5796_13592">
<rect width="59" height="59" fill="white" transform="translate(0.183594 0.5)"/>
</clipPath>
</defs>
</svg>
