<svg width="19" height="22" viewBox="0 0 19 22" fill="none" xmlns="http://www.w3.org/2000/svg"> 
<g clip-path="url(#clip0_1973_3379)">
<path fill-rule="evenodd" clip-rule="evenodd" d="M26.1332 20.7818H18.2417C17.5073 17.8086 13.6184 15.3633 8.99522 15.3633V0.015625H7.96094V21.6802H26.0918C26.5262 21.6802 26.8159 21.5413 26.8159 21.2912C26.7952 21.1447 26.7132 21.0107 26.5865 20.9161C26.4599 20.8216 26.2979 20.7736 26.1332 20.7818ZM9.0366 20.7818V16.0024C13.1737 16.0024 16.5558 18.0587 17.4143 20.7818H9.0366Z" fill="white"/>
<path fill-rule="evenodd" clip-rule="evenodd" d="M19.7361 3.92889L10.1897 0.0572346C9.91043 -0.0631758 9.76562 0.0572289 9.76562 0.196164V8.06915C9.76562 8.18956 9.91043 8.18957 10.1897 8.18957L19.7361 4.31789C20.0153 4.19748 20.0153 4.07708 19.7361 3.92889Z" fill="#D40000"/>
</g>
<defs>
<clipPath id="clip0_1973_3379">
<rect width="18.8549" height="21.6831" fill="white"/>
</clipPath>
</defs>
</svg>
