<svg fill="none" height="23" viewBox="0 0 46 23" width="46" xmlns="http://www.w3.org/2000/svg"><path d="m7.36723 3.85322 36.26717-1.87031-5.7829 17.08219-36.26716 1.8704z" fill="#d40000"/><path d="m1.32552 20.9474 42.02748-18.97832-5.4493 17.30182z" fill="#730707" fill-opacity=".37"/><path d="m8.82003 16.0591-.26078-8.39595 1.28327-.04334 5.46578 6.28709-.6356.0214-.2008-6.46484 1.5471-.05225.2608 8.39599-1.2833.0433-5.46579-6.28707.63559-.02146.2008 6.46483zm10.99607-5.2821 4.1737-.141.0398 1.2834-4.1736.1409zm.2317 3.5942 4.7373-.16.0406 1.3073-6.2964.2127-.2607-8.39596 6.1285-.20698.0406 1.30737-4.5694.15432zm8.3778 1.0258-3.0432-8.30201 1.6191-.05468 2.7184 7.50849-.8036.0271 2.3427-7.67938 1.4392-.04861 2.7424 7.50769-.7796.0263 2.3068-7.67818 1.4871-.05023-2.5216 8.48991-1.6551.0559-2.5034-6.77132.4318-.01459-2.114 6.92731z" fill="#fff"/></svg>