<svg width="36" height="35" viewBox="0 0 36 35" fill="none" xmlns="http://www.w3.org/2000/svg">
<g id="icon" clip-path="url(#clip0_1788_11494)">
<g id="Group 40159">
<path id="Vector" d="M34.8738 7.19778C33.6954 6.52423 32.4592 5.96092 31.1805 5.51478C29.15 4.79681 27.0259 4.38937 24.8776 4.30578C24.4786 4.01775 24.061 3.74109 23.6248 3.4758C23.3379 3.30243 23.0429 3.13505 22.7397 2.97367C22.6082 2.90404 22.4767 2.83534 22.3452 2.77032C19.771 1.47925 17.1405 0.901957 14.9087 1.01354C15.3238 1.91826 15.5742 2.89201 15.6478 3.88756C15.7052 4.58855 15.6765 5.29407 15.5625 5.98786C16.1658 5.54589 16.8912 5.30957 17.6348 5.31281H17.6801C16.8758 5.67862 16.1151 6.13653 15.4129 6.67766C15.061 6.9481 14.7248 7.23892 14.4058 7.54868C13.4878 8.43878 12.7188 9.47527 12.1291 10.6173C11.9704 10.9247 11.8253 11.2391 11.6938 11.5607L11.7092 11.5787L11.6824 11.5888C11.4158 11.6884 11.1496 11.7928 10.8839 11.9019C6.76527 13.5863 3.34403 16.079 0.945312 18.8977C2.71954 18.3623 4.54402 18.0174 6.38891 17.8685C7.72213 17.7569 9.06166 17.7461 10.3964 17.8362C10.3964 17.8095 10.3992 17.7827 10.401 17.7555C10.4351 17.2872 10.5747 16.8331 10.8091 16.4285C10.8222 16.9142 10.8647 17.3987 10.9365 17.8791C10.9885 18.2311 11.0559 18.5777 11.1387 18.9189C11.2198 19.2555 11.3148 19.5861 11.424 19.9107C11.3659 19.9739 11.3101 20.037 11.2557 20.1016C10.3198 21.2082 9.87952 22.5689 9.9616 23.8254C10.2244 23.3973 10.5901 23.0443 11.0242 22.7996C11.4583 22.5549 11.9465 22.4267 12.4428 22.4269C12.4918 22.4269 12.5403 22.4269 12.5889 22.4311L12.6097 22.4214L12.617 22.4324C12.8044 22.7325 13.0051 23.0226 13.2191 23.303C13.396 23.5366 13.5814 23.7632 13.7755 23.9827C14.2593 24.5301 14.792 25.0309 15.3667 25.4785C15.3667 25.4522 15.3667 25.4268 15.3667 25.4005C15.3667 25.3867 15.3667 25.3724 15.3667 25.3581C14.8606 24.8261 14.4144 24.2384 14.0362 23.6059C13.8496 23.294 13.6803 22.9717 13.5293 22.6404C13.4752 22.5224 13.4236 22.4031 13.3747 22.2826C13.3534 22.2305 13.332 22.1788 13.3121 22.1258C13.1229 21.6411 12.9724 21.1417 12.8623 20.6323C12.7394 20.064 12.6669 19.4856 12.6455 18.9041C12.6455 18.8659 12.6428 18.8276 12.6415 18.7889C12.6415 18.7017 12.6383 18.6146 12.6383 18.5269C12.6383 18.3825 12.6413 18.2391 12.6473 18.0967C12.6578 17.851 12.6773 17.6071 12.7054 17.3664C12.7883 16.6571 12.9476 15.9593 13.1806 15.2854C13.3792 14.7107 13.6302 14.156 13.9301 13.6287C14.4281 12.7545 15.0531 11.9617 15.7838 11.2771C15.9035 11.1646 16.0509 11.0263 16.177 10.9198C16.1634 11.0235 16.1361 11.3518 16.1216 11.5192C16.0541 12.2952 16.2577 13.1224 17.2072 13.3373C17.0949 12.8953 17.0501 12.4384 17.0743 11.9826C17.0743 11.9794 17.0743 11.9628 17.0766 11.9337C17.0961 11.6225 17.1877 9.85232 18.612 8.86742C18.7643 8.78949 18.8047 8.82131 18.7308 9.01866C18.6945 9.11641 18.4823 9.43365 18.3898 9.61808C18.3245 9.74719 18.2288 9.94454 18.1286 10.1792C18.0733 10.3107 18.0152 10.4559 17.9613 10.6025C17.9614 10.6041 17.9614 10.6056 17.9613 10.6071C17.9613 10.6094 17.959 10.6131 17.9576 10.6182C17.9014 10.7902 17.428 12.3736 18.8337 12.8365C18.7938 12.4722 18.7834 12.1052 18.8024 11.7391C18.8051 11.6732 18.8092 11.6059 18.8146 11.5367C18.8489 11.0373 18.9705 10.5481 19.1738 10.0921C19.1806 10.0769 19.1874 10.0617 19.1946 10.046C19.3556 9.70938 19.7388 9.08183 20.0435 8.79364C20.1795 8.665 20.287 8.53128 20.4561 8.42015C20.4871 8.40151 20.5203 8.3871 20.555 8.37727C20.7323 8.38695 20.2938 9.24782 20.0725 9.63653C20.0077 9.75042 19.9759 9.8348 19.9582 9.86431L19.9551 9.86984V9.87353C19.9551 9.87353 19.9551 9.87353 19.9551 9.8763C19.8004 10.1774 19.6295 10.6297 19.6295 11.0692C19.6295 11.1001 19.6295 11.1314 19.6322 11.1614C19.6457 11.3097 19.6845 11.4545 19.7469 11.5893C19.8435 11.8198 20.019 12.0199 20.3092 12.1661C20.3691 12.1964 20.4308 12.2232 20.4937 12.2463C20.4666 12.0788 20.4555 11.9089 20.4606 11.7391C20.4792 11.0936 20.7268 10.4439 21.1521 9.862C21.2951 9.66741 21.4531 9.48469 21.6246 9.3156C21.9217 9.02334 22.2519 8.76795 22.6082 8.55479C23.0258 8.30451 23.472 8.10708 23.9368 7.96689C24.3948 7.82666 24.8679 7.74322 25.3456 7.71836V7.71467C25.7214 7.68916 26.1044 7.66887 26.4946 7.65381C27.1004 7.63075 27.6931 7.62291 28.2667 7.62799C28.4895 7.63014 28.709 7.63444 28.9251 7.6409L29.1142 7.64735L29.2207 7.65104L29.3314 7.65519L29.4792 7.66211L29.5957 7.66718H29.6261L29.7717 7.67502C30.0135 7.68793 30.2504 7.7033 30.4822 7.72113L30.6128 7.73219H30.6201C30.6799 7.73681 30.7389 7.74188 30.7974 7.74741C30.9153 7.75802 31.0309 7.76954 31.1452 7.78153C31.2023 7.78753 31.259 7.79352 31.3152 7.80044L31.4512 7.81565L31.4802 7.81934L31.5841 7.83225C31.6326 7.83779 31.6807 7.84424 31.7283 7.85024L31.8448 7.86637C31.8879 7.87237 31.931 7.8779 31.9731 7.88436L32.0842 7.90003L32.2248 7.9217L32.3472 7.94153C32.4289 7.9549 32.5091 7.96828 32.588 7.98257L32.7055 8.00378L32.8079 8.02315L32.8796 8.03744C32.9494 8.05081 33.0156 8.06464 33.0845 8.0794L33.1022 8.08309L33.2061 8.10568C33.236 8.11214 33.2659 8.11859 33.2967 8.12597C33.3421 8.13565 33.3874 8.1458 33.4296 8.15687L33.494 8.173C33.5366 8.18315 33.5797 8.19421 33.6214 8.20482L33.7325 8.23433C33.7779 8.24678 33.8232 8.25923 33.8685 8.27214L33.9198 8.28689L33.9864 8.30672C34.0223 8.31779 34.0576 8.32839 34.0925 8.33992C34.172 8.36482 34.249 8.39049 34.3233 8.41692C33.8833 9.21589 33.341 9.95193 32.7104 10.6058C32.4018 10.9295 32.0746 11.2344 31.7305 11.5187C31.4034 11.7906 31.0622 12.0445 30.7085 12.2795C30.6631 12.3104 30.6178 12.3399 30.5725 12.3718C30.4913 12.4248 30.4092 12.476 30.3271 12.5262C30.3339 12.5456 30.3403 12.5654 30.3466 12.5852L30.2936 12.5461L30.3271 12.5262C30.2548 12.3204 30.1538 12.1262 30.0274 11.9494C29.9966 11.9061 29.9639 11.8632 29.9299 11.8217C29.7466 11.5972 29.5316 11.4015 29.2919 11.2411C28.6458 10.8026 27.7806 10.5495 26.8397 10.5868C26.6744 10.5932 26.5096 10.6086 26.3459 10.633C25.2803 10.7888 24.3834 11.3103 23.8769 12.0121L24.0175 12.0052C24.5009 11.9849 24.985 12.0236 25.4594 12.1205C26.574 12.3552 27.3575 12.9122 27.382 13.5904C27.3847 13.6641 27.3785 13.7378 27.3634 13.8099C27.3607 13.8233 27.358 13.8367 27.3544 13.8496C27.1857 14.52 26.2788 15.0945 25.0672 15.3251H25.0572C24.9425 15.3472 24.8246 15.3666 24.704 15.3813C24.6527 15.3883 24.6001 15.3942 24.5475 15.3998H24.5412C24.0787 15.4745 23.35 15.6096 22.5075 15.8277C22.4254 15.8484 22.3433 15.8706 22.2604 15.8932C21.4901 16.0978 20.7339 16.354 19.9968 16.66C18.8895 17.1284 17.8202 17.7454 17.0557 18.5505C17.063 18.5542 17.0702 18.5574 17.077 18.5615C16.9991 18.6319 16.9235 18.7051 16.8503 18.781C16.7497 18.8852 16.6526 18.9945 16.5615 19.1079C16.3048 19.4257 16.0869 19.7739 15.9126 20.1449C15.7021 20.5898 15.552 21.0617 15.4664 21.5476C15.4049 21.8986 15.3766 22.2548 15.3821 22.6113C15.3821 22.6575 15.3821 22.7013 15.3852 22.7465C15.4012 23.1877 15.4667 23.6257 15.5807 24.0518C15.8125 24.935 16.2493 25.7487 16.8544 26.4246L16.9165 26.4929C17.0167 26.5998 17.1206 26.7031 17.228 26.8009C17.3355 26.8986 17.4607 27.0047 17.5822 27.0974C17.6139 27.1223 17.6461 27.1462 17.6788 27.1698C17.8271 27.2786 17.9812 27.3791 18.1404 27.4709C17.9175 28.0295 17.7853 28.6213 17.749 29.223C17.6922 30.1676 17.8447 31.113 18.1952 31.9896C18.4876 32.7345 18.9156 33.4166 19.4567 34C18.8908 32.2543 19.6 30.0346 21.3054 28.4041C21.4809 28.2367 21.6654 28.0758 21.8609 27.9227L21.8668 27.9181C21.8777 27.9094 21.8885 27.9006 21.8994 27.8928C22.0754 27.7544 22.2549 27.6295 22.4372 27.5119C22.6845 27.3526 22.941 27.2086 23.2053 27.0808C23.3414 27.0144 23.4774 26.953 23.6175 26.8963C23.7041 26.8608 23.7903 26.8281 23.8764 26.7972C24.5138 26.5644 25.1849 26.4414 25.8621 26.4334C26.1148 26.4312 26.3674 26.4488 26.6175 26.486C26.0919 26.0942 25.511 25.7857 24.8944 25.5711C24.821 25.5453 24.7471 25.5204 24.6722 25.4974C24.419 25.4176 24.1617 25.3522 23.9014 25.3014C23.7867 25.2788 23.6701 25.259 23.5527 25.2419C23.1623 25.1847 22.7681 25.1585 22.3737 25.1635C22.128 25.1658 21.8854 25.1806 21.6482 25.2064C21.0196 25.2729 20.4021 25.4215 19.8109 25.6486C19.6236 25.721 19.4418 25.8012 19.2667 25.8879C19.2078 25.917 19.1502 25.9465 19.0917 25.9769C19.0287 26.0451 18.9665 26.1152 18.9076 26.1872L18.8065 26.1383C18.6746 26.0721 18.5462 25.9988 18.422 25.9188C18.2217 25.79 18.0333 25.6429 17.8592 25.4794C17.4915 25.1381 17.1989 24.7215 17.0009 24.257C16.8517 23.905 16.7641 23.5293 16.7419 23.1467C16.7277 22.9054 16.7395 22.6633 16.7773 22.4246C17.6029 22.5128 18.3656 22.9136 18.9139 23.5474C18.9928 23.6372 19.0671 23.7311 19.1366 23.8286C19.1427 23.537 19.1164 23.2456 19.0581 22.9599C19.0581 22.9535 19.0554 22.947 19.0545 22.9406C18.9408 22.3799 18.7044 21.8525 18.363 21.3973C18.1499 21.1139 17.8944 20.8664 17.6058 20.6637C17.8485 20.3818 18.1284 20.1354 18.4374 19.9315C18.4659 19.9116 18.495 19.8932 18.5244 19.8747C19.0175 19.5664 19.5651 19.3593 20.1364 19.2652C19.8406 19.6388 19.6244 20.071 19.5016 20.5341C19.4294 20.8083 19.393 21.0909 19.3932 21.3747C19.3932 21.4143 19.3932 21.454 19.396 21.4932C19.6726 21.5298 19.9507 21.5745 20.2303 21.6274C20.5822 21.6947 20.9271 21.7737 21.2651 21.8644L21.3349 21.8837C22.5835 22.2207 23.7778 22.7391 24.8808 23.4229C25.0017 23.4991 25.1211 23.5769 25.239 23.6562C25.5175 23.8443 25.7838 24.0415 26.038 24.2478C26.814 24.8668 27.4918 25.6035 28.0477 26.432C28.2823 26.7856 28.4878 27.1584 28.6621 27.5465C28.7428 27.0261 28.7867 26.5005 28.7936 25.9737C28.7936 25.922 28.7936 25.8699 28.7936 25.8178C28.7978 23.9962 28.3512 22.2028 27.4949 20.6028C27.0772 19.826 26.5653 19.1056 25.9714 18.4582C25.5424 17.9896 25.0719 17.5621 24.5657 17.1815L24.5457 17.1667C24.5602 17.1667 24.5747 17.1667 24.5911 17.163C25.1975 16.6951 25.847 16.2879 26.5304 15.9471C26.8071 15.8088 27.0921 15.6794 27.3856 15.5589C27.509 15.5086 27.6323 15.4602 27.7557 15.415C27.8677 15.3726 27.9824 15.3325 28.093 15.2947H28.0989H28.1016C28.5143 15.1411 28.9283 14.9636 29.3404 14.7616C29.6007 14.635 29.8598 14.4983 30.1176 14.3517C30.4199 14.1811 30.7192 13.9967 31.0155 13.7984C31.137 13.7172 31.2567 13.6356 31.3746 13.5522L31.4367 13.5061C32.0977 13.0349 32.7183 12.5077 33.2918 11.93C33.6543 11.5649 33.9952 11.1781 34.3125 10.7717C34.7404 10.2274 35.117 9.64341 35.4375 9.02742C35.6339 8.64977 35.8036 8.25839 35.9453 7.85623C35.5977 7.62845 35.2405 7.40896 34.8738 7.19778ZM27.5734 6.75006L27.1653 6.75928C26.6787 6.75928 26.2312 6.61311 25.9283 6.22625L25.8018 6.06486L26.8991 6.02982H26.9045C27.3326 6.04089 27.7275 6.16815 27.9615 6.53426L28.0948 6.73945L27.5734 6.75006Z" fill=""/>
</g>
</g>
<defs>
<clipPath id="clip0_1788_11494">
<rect width="35" height="35" fill="white" transform="translate(0.945312)"/>
</clipPath>
</defs>
</svg>
