<svg fill="none" height="30" viewBox="0 0 58 30" width="58" xmlns="http://www.w3.org/2000/svg"><path d="m43.2751 14.9441c0 1.401-1.2334 2.5414-2.7489 2.5414-1.5154 0-2.7488-1.1404-2.7488-2.5414s1.2334-2.5414 2.7488-2.5414c1.5155 0 2.7489 1.1404 2.7489 2.5414zm-34.33735 0c0 1.401 1.23345 2.5414 2.74885 2.5414s2.7489-1.1404 2.7489-2.5414-1.2335-2.5414-2.7489-2.5414-2.74885 1.1404-2.74885 2.5414zm-4.41699 14.9441h31.48274v-3.5731h-26.83081c.04699-.2498.08223-.5104.08223-.782 0-2.335-2.05578-4.2356-4.58145-4.2356-.27018 0-.54037.0218-.79881.0652v-12.84803c.25844.04344.52863.06516.79881.06516 2.52567 0 4.58145-1.90059 4.58145-4.23561 0-.27151-.02349-.52131-.08223-.78196h33.60901c-.0939.32582-.1409.67335-.1409 1.03175 0 2.33502 2.0557 4.23562 4.5814 4.23562.3877 0 .7753-.04345 1.1278-.13033v8.6776h3.8648v-13.19559c0-2.30244-2.0323-4.18131-4.5227-4.18131h-43.17134c-2.49043 0-4.52271312 1.87887-4.52271312 4.18131v21.52559c0 2.3025 2.03228312 4.1813 4.52271312 4.1813zm33.25664-2.9975c-.3172 0-.5756.239-.5756.5322v1.9332c0 .2932.2584.5321.5756.5321h13.8618c.3172 0 .5756-.2389.5756-.5321v-1.9332c0-.2932-.2584-.5322-.5756-.5322zm17.1275-1.7377v-1.9331c0-.2933-.2584-.5322-.5756-.5322h-13.8618c-.3172 0-.5756.2389-.5756.5322v1.9331c0 .2933.2584.5322.5756.5322h13.8618c.3172 0 .5756-.2389.5756-.5322zm2.1028-6.6683h-13.8618c-.3172 0-.5756.2389-.5756.5321v1.9332c0 .2932.2584.5322.5756.5322h13.8618c.3172 0 .5756-.239.5756-.5322v-1.9332c0-.2932-.2584-.5321-.5756-.5321zm-30.8954-12.70689c5.4742 0 9.9147 4.10529 9.9147 9.16629s-4.4405 9.1663-9.9147 9.1663-9.9147-4.1053-9.9147-9.1663 4.4287-9.16629 9.9147-9.16629zm.8693 2.35674h-1.1277c-.1762 0-.3055.13033-.3055.28237v1.24897c-.8575.11946-1.5624.40181-2.091.87971-.5873.5213-.881 1.1838-.881 1.9983 0 .8906.2819 1.5748.834 2.031.5521.4561 1.4449.9122 2.6549 1.3684.5051.1955.8458.4018 1.0455.6082.1997.2063.2937.4996.2937.8797 0 .3258-.094.5864-.2819.7928-.188.1955-.4699.3041-.8458.3041-.4464 0-.8106-.1303-1.0808-.391-.2232-.2172-.3641-.543-.3994-.9774-.0117-.1738-.1762-.3041-.3642-.2933l-1.856.0326c-.1997 0-.3642.1629-.3642.3475.047.9123.3642 1.6074.9515 2.107.6344.5322 1.4332.858 2.3847.9557v1.173c0 .1629.141.2823.3055.2823h1.1277c.1762 0 .3054-.1303.3054-.2823v-1.2164c.7636-.1303 1.3862-.4127 1.8679-.8363.5638-.5104.8458-1.1729.8458-2.0092 0-.8688-.282-1.5422-.8458-2.02-.5639-.467-1.445-.9449-2.6432-1.4119-.5169-.2064-.8693-.4127-1.0572-.6191-.188-.2063-.282-.4778-.282-.8036 0-.3259.0823-.5865.2585-.8037.1762-.2064.4464-.315.8105-.315.3642 0 .6461.1303.8693.3801.1762.2064.282.4888.3172.8689.0118.1737.188.2932.3642.2932l1.856-.0217c.1997 0 .376-.1629.3642-.3475-.047-.7494-.3054-1.3793-.7871-1.8898-.4933-.5321-1.1394-.86882-1.95-1.02087v-1.29241c.0117-.1629-.1292-.28237-.2937-.28237z" fill="#fff"/></svg>