<svg fill="none" height="27" viewBox="0 0 140 27" width="140" xmlns="http://www.w3.org/2000/svg"><g fill="#fff"><path d="m13.7795.0234388c-.7506.0005389-1.5.0606497-2.2408.1797412v.092062 12.014158c0 .9623-.3764 1.4401-1.1585 1.4401-.78204 0-1.14729-.4844-1.14729-1.4401v-2.50103c-.83639.99263-1.31039 2.22983-1.34696 3.51563-.03657 1.2859.36639 2.5469 1.14507 3.5835s1.88858 1.7894 3.15398 2.1394 2.614.2771 3.8323-.2072 2.2366-1.3522 2.8937-2.4664c.6572-1.1143.9156-2.4111.7344-3.6851-.1813-1.2741-.7918-2.4526-1.7349-3.34904-.9432-.89641-2.165-1.45946-3.4722-1.6-.2909-.0314-.5571-.17455-.7401-.39797s-.2678-.5088-.2357-.79337c.032-.28457.1784-.54501.4068-.72403s.5201-.26196.811-.23057c1.8774.20244 3.6236 1.04007 4.9366 2.36814 1.3131 1.32807 2.1106 3.06314 2.2548 4.90534s-.3741 3.6758-1.4652 5.1839c-1.0912 1.5081-2.6866 2.5959-4.5106 3.0755-1.8241.4796-3.7621.3208-5.4791-.4489-1.71706-.7698-3.10526-2.1021-3.92472-3.7667-.81946-1.6647-1.01868-3.557-.56324-5.3501.45545-1.79308 1.53694-3.37418 3.05758-4.47007.07644-.05281.15922-.09625.24649-.12932v-6.023522c0-.056991 0-.107406 0-.160013-3.26062 1.114295-5.97441 3.385995-7.60371 6.365025-1.62929638 2.979-2.055229 6.448-1.19341 9.7198.86182 3.2717 2.94851 6.1074 5.84666 7.9452 2.89815 1.8379 6.39625 2.5438 9.80135 1.978s6.4687-2.3622 8.5839-5.0331c2.1151-2.6709 3.1274-6.0216 2.8364-9.3882-.291-3.36654-1.8641-6.50336-4.4076-8.78898-2.5436-2.28561-5.8721-3.5532552-9.3259-3.5517812"/><path d="m77.4309 16.3807c-1.284.3638-1.9114.8351-1.9114 1.9837 0 1.1113.7708 1.7799 2.1086 1.7799l3.424-.022v-4.7434c-1.5395.6949-2.8235.7804-3.6212 1.0018zm7.4955 3.5422s-.0134-.5239-.0134.7365-.7059 2.5251-2.5254 2.5251h-6.1578c-2.8772 0-4.5892-1.6725-4.5892-4.6031 0-2.8496 1.3692-4.0727 4.4817-4.7127 1.8823-.3902 3.3612-.3902 4.2575-.6686.4011-.1425.6297-.5041.6297-1.1157 0-1.2297-.744-1.6747-2.4828-1.6747-.8377-.0308-1.6585.2363-2.3103.7519-.6543.5852-1.1361 1.4774-2.252 1.4774-.2163.0021-.4307-.0384-.6306-.1192-.1999-.0807-.381-.2001-.5327-.3509-.1516-.1508-.2706-.3299-.3499-.5267s-.1172-.4073-.1114-.6187c0-1.78646 2.3685-3.711 6.0502-3.711 4.2777 0 6.5566 1.50807 6.5566 4.1845z"/><path d="m40.0819 5.78178c-.0136.55104-.243 1.07594-.6408 1.4663-.3978.39037-.9337.6164-1.4969.63141-.4249.00087-.8405-.12161-1.1941-.35192-.3537-.23031-.6295-.55809-.7926-.94185s-.2062-.80623-.1237-1.21392.2869-.78226.5871-1.07629c.3003-.29403.683-.49429 1.0997-.57542s.8486-.03949 1.2411.11965c.3925.15915.7279.42863.9637.77434s.3614.7521.361 1.1677"/><path d="m42.9048 15.4379c.0009-.8542.2606-1.6889.7463-2.3988.4858-.7098 1.1757-1.2629 1.9827-1.5893s1.6948-.4115 2.5512-.2444c.8564.167 1.6429.5786 2.2603 1.1827.6173.6042 1.0377 1.3738 1.208 2.2116s.0829 1.7062-.2512 2.4955c-.3341.7892-.8998 1.4638-1.6257 1.9386-.726.4748-1.5795.7285-2.4527.7289-1.1722-.0006-2.2962-.4565-3.1248-1.2675s-1.2941-1.9106-1.2941-3.0573zm-3.6548 0c0 1.5608.4731 3.0864 1.3595 4.3841s2.1463 2.3091 3.6204 2.9063c1.474.5973 3.096.7536 4.6608.4491 1.5649-.3045 3.0023-1.056 4.1304-2.1596 1.1282-1.1036 1.8965-2.5097 2.2078-4.0404s.1515-3.1173-.4591-4.5592c-.6105-1.4419-1.6445-2.67436-2.9711-3.54144s-2.8863-1.32989-4.4818-1.32988c-2.1383.00347-4.1881.83597-5.7002 2.31508-1.5121 1.47914-2.3631 3.48424-2.3667 5.57594z"/><path d="m107.199 15.4379c.001-.8541.261-1.6888.747-2.3986.485-.7098 1.175-1.2628 1.982-1.5893s1.694-.4116 2.551-.2448c.856.1668 1.643.5782 2.26 1.1822.618.6039 1.038 1.3733 1.209 2.211.17.8377.083 1.706-.251 2.4952-.333.7893-.899 1.4641-1.624 1.9392-.726.475-1.579.729-2.452.7299-1.173-.0006-2.297-.4564-3.126-1.2673-.829-.811-1.295-1.9106-1.296-3.0575zm-3.652 0c0 1.5608.473 3.0864 1.359 4.3841.887 1.2977 2.147 2.3091 3.621 2.9063 1.474.5973 3.096.7536 4.661.4491 1.564-.3045 3.002-1.056 4.13-2.1596s1.897-2.5097 2.208-4.0404.151-3.1173-.459-4.5592c-.611-1.4419-1.645-2.67436-2.971-3.54144-1.327-.86708-2.887-1.32989-4.482-1.32988-2.139.00347-4.188.83597-5.7 2.31508-1.513 1.47914-2.364 3.48424-2.367 5.57594z"/><path d="m66.83 7.90625-3.7086 10.78445-3.5382-10.78445h-4.4816l4.8469 13.34465c.5445 1.5103 1.815 2.0671 3.285 2.0671 1.5215-.0439 2.4649-.3332 3.1102-2.0671l4.9881-13.33588z"/><path d="m130.568 7.69113c-1.918-.15782-3.987.21919-4.645 1.1464v-.90967h-3.946v13.19344c0 1.4818.694 2.2139 2.039 2.2139 1.344 0 2.03-.7321 2.03-2.2139v-6.8543c0-1.9596 1.23-3.1345 3.117-3.1345 1.745 0 2.348.9513 2.348 2.9657v7.0143c0 1.4818.686 2.2139 2.028 2.2139s2.035-.7321 2.035-2.2139v-8.1628c0-3.41294-2.353-5.04157-5.008-5.26076"/><path d="m34.4563 6.89062h-1.1204v14.22808c0 1.4839.6902 2.2117 2.0347 2.2117s2.0302-.7278 2.0302-2.2117v-11.78842c-.6834-.0742-1.3287-.3459-1.8535-.78043-.5249-.43453-.9055-1.01218-1.0932-1.65923"/><path d="m103.969 5.78178c-.013.55195-.243 1.07778-.642 1.46837-.398.3906-.936.61597-1.5.62934-.425.00087-.84-.12161-1.194-.35192s-.63-.55809-.7927-.94185c-.1631-.38376-.2062-.80623-.1237-1.21392.0826-.40769.2864-.78226.5874-1.07629.3-.29403.683-.49429 1.099-.57542.417-.08113.849-.03949 1.242.11965.392.15915.727.42863.963.77434s.362.7521.361 1.1677z"/><path d="m98.347 6.89062h-1.1204v14.22808c0 1.4839.6901 2.2117 2.0324 2.2117 1.342 0 2.032-.7278 2.032-2.2117v-11.78842c-.683-.07464-1.3284-.34646-1.8536-.78089-.5251-.43443-.9062-1.01184-1.0949-1.65877"/><path d="m93.5363 20.1397c-.2846 0-.5132.0285-.6857.0285-.7148 0-.8963-.2499-.8963-.9228v-8.2265h1.0307c1.0868 0 1.6314-.4756 1.6314-1.39846 0-.92281-.5356-1.39628-1.6224-1.39628h-1.033v-2.8101h-4.0469v13.63624c0 3.0687.773 4.2809 4.2575 4.2809 1.9159 0 2.8033-.5305 2.8033-1.8172 0-.8417-.5154-1.3743-1.4319-1.3743"/><path d="m137.94 8.67204c.096.00336.192-.01306.282-.04822.072-.03069.11-.10522.11-.2192.001-.04493-.013-.08901-.041-.12494-.025-.03346-.059-.05931-.098-.07453-.042-.01685-.085-.02863-.13-.03507-.052 0-.099 0-.144 0h-.331v.51511zm0-.8176c.202-.01197.404.03371.58.13151.07.04978.125.11628.161.19306.035.07679.05.16128.043.24534.001.07942-.013.15834-.043.23235-.023.06021-.062.11372-.112.15562-.049.04105-.105.07299-.165.09426-.066.02206-.135.03605-.204.04165l.531.85486h-.399l-.489-.83514h-.246v.83514h-.408v-1.94865zm-1.287 1.53437c.068.16217.165.31079.287.43839.121.12373.267.2222.428.2893.168.069.348.104.529.1031.179.0006.357-.0345.522-.1031.161-.0671.307-.16557.428-.2893.124-.12693.222-.27569.289-.43839.142-.35219.142-.74379 0-1.09598-.067-.16277-.165-.31155-.289-.43839-.124-.12296-.272-.22071-.435-.28766s-.338-.10179-.515-.10251c-.182-.00138-.362.03446-.529.10521-.161.06557-.306.16253-.428.28496-.122.12754-.219.27618-.287.43839-.137.35287-.137.74311 0 1.09598zm-.448-1.27134c.096-.20686.233-.39294.403-.54728.17-.15435.37-.27384.588-.35142.447-.16669.942-.16669 1.389 0 .22.0767.422.19431.596.34633.177.16387.318.36132.414.58029.097.21897.146.45485.146.69324 0 .23838-.049.47427-.146.69324-.096.21896-.237.41642-.414.58033-.169.153-.368.2715-.585.3485-.448.1637-.941.1637-1.389 0-.217-.0765-.416-.195-.585-.3485-.171-.15651-.308-.34416-.406-.55242-.099-.22846-.15-.47409-.15-.72225s.051-.49378.15-.72225"/></g></svg>