<svg width="58" height="30" viewBox="0 0 58 30" fill="none" xmlns="http://www.w3.org/2000/svg">
<path d="M43.2771 14.9441C43.2771 16.3451 42.0436 17.4855 40.5282 17.4855C39.0128 17.4855 37.7793 16.3451 37.7793 14.9441C37.7793 13.5431 39.0128 12.4027 40.5282 12.4027C42.0436 12.4027 43.2771 13.5431 43.2771 14.9441ZM8.9397 14.9441C8.9397 16.3451 10.1732 17.4855 11.6886 17.4855C13.204 17.4855 14.4374 16.3451 14.4374 14.9441C14.4374 13.5431 13.204 12.4027 11.6886 12.4027C10.1732 12.4027 8.9397 13.5431 8.9397 14.9441ZM4.52271 29.8882H36.0055V26.3151H9.17465C9.22163 26.0653 9.25688 25.8047 9.25688 25.5331C9.25688 23.1981 7.2011 21.2975 4.67543 21.2975C4.40524 21.2975 4.13505 21.3193 3.87661 21.3627V8.51467C4.13505 8.55811 4.40524 8.57983 4.67543 8.57983C7.2011 8.57983 9.25688 6.67924 9.25688 4.34422C9.25688 4.07271 9.23338 3.82291 9.17465 3.56226H42.7837C42.6897 3.88808 42.6427 4.23561 42.6427 4.59401C42.6427 6.92903 44.6985 8.82963 47.2242 8.82963C47.6118 8.82963 47.9995 8.78618 48.3519 8.6993V17.3769H52.2168V4.18131C52.2168 1.87887 50.1845 0 47.6941 0H4.52271C2.03228 0 0 1.87887 0 4.18131V25.7069C0 28.0094 2.03228 29.8882 4.52271 29.8882ZM37.7793 26.8907C37.4622 26.8907 37.2037 27.1297 37.2037 27.4229V29.3561C37.2037 29.6493 37.4622 29.8882 37.7793 29.8882H51.6412C51.9583 29.8882 52.2168 29.6493 52.2168 29.3561V27.4229C52.2168 27.1297 51.9583 26.8907 51.6412 26.8907H37.7793ZM54.9069 25.153V23.2199C54.9069 22.9266 54.6485 22.6877 54.3313 22.6877H40.4695C40.1523 22.6877 39.8938 22.9266 39.8938 23.2199V25.153C39.8938 25.4463 40.1523 25.6852 40.4695 25.6852H54.3313C54.6485 25.6852 54.9069 25.4463 54.9069 25.153ZM57.0097 18.4847H43.1479C42.8307 18.4847 42.5722 18.7236 42.5722 19.0168V20.95C42.5722 21.2432 42.8307 21.4822 43.1479 21.4822H57.0097C57.3268 21.4822 57.5853 21.2432 57.5853 20.95V19.0168C57.5853 18.7236 57.3268 18.4847 57.0097 18.4847ZM26.1143 5.77781C31.5885 5.77781 36.029 9.8831 36.029 14.9441C36.029 20.0051 31.5885 24.1104 26.1143 24.1104C20.64 24.1104 16.1995 20.0051 16.1995 14.9441C16.1995 9.8831 20.6283 5.77781 26.1143 5.77781ZM26.9836 8.13455H25.8558C25.6796 8.13455 25.5504 8.26488 25.5504 8.41692V9.66589C24.6928 9.78535 23.988 10.0677 23.4594 10.5456C22.872 11.0669 22.5783 11.7294 22.5783 12.5439C22.5783 13.4345 22.8603 14.1187 23.4124 14.5749C23.9645 15.031 24.8573 15.4871 26.0673 15.9433C26.5724 16.1388 26.9131 16.3451 27.1128 16.5515C27.3125 16.7578 27.4065 17.0511 27.4065 17.4312C27.4065 17.757 27.3125 18.0176 27.1245 18.224C26.9366 18.4195 26.6546 18.5281 26.2787 18.5281C25.8323 18.5281 25.4682 18.3978 25.198 18.1371C24.9748 17.9199 24.8338 17.5941 24.7986 17.1597C24.7868 16.9859 24.6224 16.8556 24.4344 16.8664L22.5783 16.899C22.3786 16.899 22.2142 17.0619 22.2142 17.2465C22.2611 18.1588 22.5783 18.8539 23.1657 19.3535C23.8 19.8857 24.5989 20.2115 25.5504 20.3092V21.4822C25.5504 21.6451 25.6914 21.7645 25.8558 21.7645H26.9836C27.1598 21.7645 27.289 21.6342 27.289 21.4822V20.2658C28.0526 20.1355 28.6752 19.8531 29.1568 19.4295C29.7207 18.9191 30.0026 18.2566 30.0026 17.4203C30.0026 16.5515 29.7207 15.8781 29.1568 15.4003C28.5929 14.9333 27.7119 14.4554 26.5137 13.9884C25.9968 13.782 25.6444 13.5757 25.4564 13.3693C25.2685 13.163 25.1745 12.8915 25.1745 12.5657C25.1745 12.2398 25.2567 11.9792 25.4329 11.762C25.6091 11.5556 25.8793 11.447 26.2435 11.447C26.6076 11.447 26.8896 11.5773 27.1128 11.8271C27.289 12.0335 27.3947 12.3159 27.43 12.696C27.4417 12.8697 27.6179 12.9892 27.7941 12.9892L29.6502 12.9675C29.8499 12.9675 30.0261 12.8046 30.0144 12.62C29.9674 11.8706 29.7089 11.2407 29.2273 10.7302C28.7339 10.1981 28.0878 9.86138 27.2772 9.70933V8.41692C27.289 8.25402 27.148 8.13455 26.9836 8.13455Z" fill="white"/>
</svg>
