<svg width="15" height="16" viewBox="0 0 15 16" fill="none" xmlns="http://www.w3.org/2000/svg">
<path fill-rule="evenodd" clip-rule="evenodd" d="M14.6441 8.6705C14.2269 9.10984 13.5505 9.10984 13.1332 8.6705L7.47858 2.71599L1.82392 8.6705C1.40671 9.10984 0.730263 9.10983 0.313047 8.6705C-0.10417 8.23116 -0.10417 7.51884 0.313047 7.07951L6.72315 0.329505C7.14036 -0.109835 7.8168 -0.109835 8.23402 0.329505L14.6441 7.07951C15.0613 7.51885 15.0613 8.23116 14.6441 8.6705Z" fill="#6C7AAB"/>
<path fill-rule="evenodd" clip-rule="evenodd" d="M14.6441 15.6705C14.2269 16.1098 13.5505 16.1098 13.1332 15.6705L7.47858 9.71599L1.82392 15.6705C1.40671 16.1098 0.730263 16.1098 0.313047 15.6705C-0.10417 15.2312 -0.10417 14.5188 0.313047 14.0795L6.72315 7.3295C7.14036 6.89016 7.8168 6.89016 8.23402 7.3295L14.6441 14.0795C15.0613 14.5188 15.0613 15.2312 14.6441 15.6705Z" fill="#6C7AAB"/>
</svg>
