<svg width="21" height="27" viewBox="0 0 21 27" fill="none" xmlns="http://www.w3.org/2000/svg">
<g id="Group 41317">
<path id="Vector" d="M20.5164 16.8699L19.1513 14.6278C18.8647 14.128 18.6053 13.1825 18.6053 12.6288V9.21157C18.6053 6.03749 16.7215 3.29563 14.0049 2.0125C13.2951 0.769882 11.9846 0 10.483 0C8.99506 0 7.65733 0.796895 6.94748 2.05302C4.28556 3.36317 2.44268 6.07801 2.44268 9.21157V12.6288C2.44268 13.1825 2.18332 14.128 1.89665 14.6142L0.517909 16.8699C-0.0281266 17.7748 -0.150984 18.7743 0.190288 19.6928C0.517909 20.5977 1.29601 21.3001 2.30618 21.6377C4.95445 22.5292 7.73923 22.9614 10.524 22.9614C13.3087 22.9614 16.0935 22.5292 18.7418 21.6512C19.6974 21.3406 20.4345 20.6247 20.7894 19.6928C21.1444 18.7608 21.0488 17.7343 20.5164 16.8699Z" fill=""/>
<path id="Vector_2" d="M14.369 24.3104C13.7957 25.8772 12.2804 26.9982 10.5058 26.9982C9.42739 26.9982 8.36263 26.566 7.61181 25.7961C7.17498 25.3909 6.84736 24.8506 6.65625 24.2969C6.83371 24.3239 7.01117 24.3374 7.20229 24.3644C7.51626 24.4049 7.84389 24.4454 8.17151 24.4725C8.94961 24.54 9.74136 24.5805 10.5331 24.5805C11.3112 24.5805 12.0893 24.54 12.8538 24.4725C13.1404 24.4454 13.4271 24.4319 13.7001 24.3914C13.9185 24.3644 14.137 24.3374 14.369 24.3104Z" fill=""/>
</g>
</svg>
