<svg fill="none" height="35" viewBox="0 0 145 35" width="145" xmlns="http://www.w3.org/2000/svg"><g fill="#fff"><path d="m101.104 18.01c.635-1.8083 1.24-3.5305 1.844-5.2535.295-.8433.59-1.6872.883-2.5316.051-.1495.098-.26458.315-.25753.615.02035 1.232.01252 1.849 0 .176 0 .236.04463.265.23483.412 2.7868.832 5.5726 1.26 8.3573.167 1.1037.328 2.2091.517 3.3089.049.2881-.012.3632-.3.3523-.523-.0196-1.049-.0196-1.575 0-.231.0086-.326-.0634-.36-.2865-.29-1.9116-.584-3.823-.881-5.7341-.07-.5147-.17-1.0249-.299-1.528-.425 1.2201-.85 2.441-1.274 3.6627-.412 1.1868-.83 2.3727-1.227 3.5642-.079.2348-.173.3334-.433.3217-.485-.0313-.971-.0313-1.455 0-.3472.0289-.4346-.13-.5165-.4118-.6694-2.3014-1.353-4.599-2.0326-6.8973-.0185-.075-.0657-.1399-.1315-.1808-.0898.5479-.182 1.0959-.2678 1.64-.2898 1.8599-.5812 3.7191-.86 5.5798-.0291.1965-.0874.267-.2882.2638-.5899-.0109-1.1813-.0172-1.7704 0-.2622.0079-.2661-.1049-.2362-.3014.1764-1.0098.3457-2.0204.5174-3.031.4321-2.5321.8642-5.0648 1.2963-7.5979.0614-.3578.122-.7163.1748-1.0756.0275-.1863.111-.25209.3103-.24661.563.01487 1.1285.0227 1.6908 0 .2685-.01253.3473.09861.4213.32561.8059 2.4628 1.6193 4.9237 2.4413 7.3827.027.0908.061.1746.122.3398z"/><path d="m84.7259 21.1716c-1.4317 1.3573-3.0194 1.6102-4.7307 1.0043-1.79-.6333-2.7878-1.9962-3.0871-3.8139-.4323-2.6286 1.2317-5.0992 3.7495-5.6878.665-.1617 1.3585-.1695 2.027-.0227.7876.1769 1.4656.5479 1.9744 1.247.1268-.2826.0575-.548.0614-.8071 0-.2051.0717-.2716.2756-.2677.5371.0101 1.075.0156 1.6121 0 .2567-.0086.3371.0681.3347.328-.0134 1.1444-.0063 2.2889-.0063 3.4334 0 1.7683-.0047 3.5375.0063 5.3059 0 .2614-.052.3663-.341.3538-.5363-.0235-1.0742-.0149-1.6113 0-.2063.0047-.2803-.0611-.2677-.2654.0141-.2442.0031-.4877.0031-.8078zm-5.7332-3.6487c.0071 1.6775 1.3231 3.0279 2.9469 3.0255 1.6027 0 2.9194-1.3926 2.9068-3.0678-.0126-1.6517-1.3388-3.0162-2.9296-3.0052-1.6278.011-2.9312 1.3723-2.9241 3.0475z"/><path d="m54.9171 13.9858c.9183-1.2267 2.1264-1.4983 3.4455-1.2369 1.4222.2803 2.1444 1.2956 2.472 2.6311.1095.4454.1236.9018.1252 1.3566.0047 1.6908-.0055 3.3825.0095 5.0734 0 .3076-.0788.407-.3938.3914-.5095-.0251-1.0238-.0235-1.5333 0-.2945.0133-.3788-.0783-.3764-.3703.0149-1.5734.007-3.1477.007-4.7219 0-.4697-.0283-.9394-.2157-1.377-.3371-.793-1.0333-1.1421-1.8806-.9456-1.0309.2395-1.709 1.0732-1.7145 2.1418-.0089 1.6256-.0076 3.2518.004 4.8784 0 .2905-.052.4141-.3796.3954-.5107-.0286-1.0226-.0286-1.5333 0-.3214.018-.3836-.0963-.3828-.3914.0103-3.2651.0071-6.5302.0071-9.7953 0-.7938.0079-1.5876-.0055-2.38057-.0039-.24111.0417-.34757.315-.33739.5631.02192 1.1277.01957 1.6908 0 .2662-.00861.3308.08298.3284.33504-.011 1.33942-.0055 2.67952-.0047 4.01972.0008.0767.0079.1542.0157.3335z"/><path d="m110.384 18.1514c.079 1.1413 1.014 2.1285 2.187 2.3649 1.09.2199 2.021-.04 2.791-.8416.102-.1064.174-.2035.354-.1056.515.2794 1.042.537 1.605.8243-.92 1.0309-1.996 1.7574-3.349 1.9758-2.795.4501-5.205-1.2173-5.791-3.9657-.599-2.808 1.496-5.6136 4.378-5.8602 3.145-.2685 5.682 2.213 5.508 5.3701-.018.3131-.204.2349-.369.2349-2.294 0-4.588 0-6.883 0zm2.609-1.6752c.799 0 1.598-.0047 2.396 0 .206 0 .285-.0305.21-.2591-.187-.5519-.543-1.0317-1.018-1.3716-.476-.3399-1.047-.5228-1.632-.5228-1.213 0-2.151.6818-2.539 1.8239-.086.2536-.071.339.228.3327.785-.0149 1.57-.0031 2.355-.0031z"/><path d="m75.653 20.4625c-1.7995 2.3602-5.3599 2.7133-7.5405.7829-2.146-1.8999-2.2098-5.3866-.0788-7.3318 1.4483-1.323 3.1848-1.6846 5.0402-1.0396 1.879.6528 2.943 2.0447 3.2745 3.9876.0513.3474.0795.6979.0843 1.049.0094.2395-.063.3131-.3072.3076-1.1411-.0117-2.2838-.0055-3.4225-.0055-1.2058 0-2.4122.0118-3.6187-.007-.3434-.0055-.3788.0932-.3048.3992.4678 1.9289 2.9926 2.7297 4.6204 1.4005.4536-.3711.756-.3758 1.1955-.0971.326.2098.6891.3648 1.0576.5542zm-4.2463-3.9672h2.3988c.1803 0 .3016.0047.2189-.2529-.1784-.5563-.5282-1.0428-.9999-1.3907-.4717-.348-1.0415-.5398-1.6288-.5483-1.19-.0188-2.1988.7045-2.5918 1.8451-.0858.2505-.0835.3624.2434.353.7859-.0195 1.5726-.0062 2.3594-.0062z"/><path d="m141.684 12.7766c-1.051 1.445-2.048 2.829-3.064 4.199-.173.2348-.153.3781 0 .6012.991 1.4192 1.969 2.8486 2.949 4.2749.065.0939.122.1925.223.3538-.886 0-1.716 0-2.545 0-.158 0-.198-.1566-.27-.256-.681-.9542-1.359-1.9092-2.066-2.9042-.447.6051-.875 1.1844-1.303 1.766-.293.3985-.587.7969-.874 1.2001-.039.0659-.097.1197-.165.1554-.068.0358-.145.0521-.222.0473-.72-.0109-1.441-.0047-2.165-.0047-.049-.18.095-.2669.17-.3742.979-1.3965 1.958-2.793 2.951-4.1802.146-.2043.142-.3366 0-.5362-1.033-1.4192-2.053-2.8479-3.123-4.3391h2.747c.165 0 .211.137.287.2348.531.6772 1.068 1.3496 1.582 2.0393.176.2348.263.2849.46.0101.493-.6881 1.024-1.348 1.53-2.0282.054-.0862.131-.1561.222-.2021.091-.0459.193-.0662.295-.0586.769.0133 1.54.0016 2.381.0016z"/><path d="m47.3055 17.1777c0-1.5657-.0071-3.1227.0063-4.6844 0-.2794-.0512-.3914-.3607-.3734-.5623.0274-1.1278 0-1.6908.0118-.2229.0047-.3324-.0313-.3221-.2928.0212-.5331.0181-1.067 0-1.6001-.0079-.2348.0889-.27082.2961-.27004 2.1.00626 4.1983.00626 6.2947 0 .2417 0 .315.06264.3102.30454-.0181.5072-.022 1.0176 0 1.5218.0134.2912-.1063.3475-.3662.3389-.5103-.0164-1.0237.0125-1.5333-.0109-.3079-.0149-.3985.0782-.3937.3867.0134 2.2772.0071 4.5536.0071 6.8308 0 .8454-.0095 1.6916.0055 2.537.0047.2584-.0788.3382-.3355.3296-.5237-.0172-1.0498-.0203-1.5751 0-.274.011-.352-.0704-.3496-.3452.0141-1.5617.0071-3.1234.0071-4.6843z"/><path d="m121.68 18.5291c0 1.1186-.01 2.2372.007 3.3559 0 .2818-.084.346-.353.3374-.602-.0204-1.206-.0204-1.811 0-.281.0094-.35-.083-.349-.3523.01-2.2114 0-4.4221.014-6.6335 0-.3249-.052-.4478-.416-.4298-.715.0337-.715.0094-.715-.6873 0-.0783 0-.1565 0-.2348.004-.2975-.102-.6779.044-.8713.157-.2067.561-.0704.855-.065.257.0055.225-.1393.225-.2974 0-.9754.007-1.9508-.007-2.92618 0-.26302.057-.36713.345-.35696.615.02114 1.233.02114 1.848 0 .277-.01017.315.09472.315.33504-.012.9754.004 1.9508-.011 2.9261 0 .256.065.3327.323.3194.35-.0188.823-.1283 1.023.0478.237.2043.068.6826.073 1.0419.012.7789 0 .7789-.788.7789-.63 0-.63 0-.63.6262z"/><path d="m91.3003 18.5226c0 1.1186-.0087 2.2381.007 3.3567 0 .2607-.0748.3327-.3299.3256-.5899-.0164-1.1813-.0219-1.7704 0-.3079.0118-.3985-.0782-.3937-.3914.0141-2.1864 0-4.372.0149-6.5583 0-.3359-.0567-.4744-.4386-.4556-.7088.0336-.7088.0086-.7088-.7046 0-.2998.0102-.5996-.0039-.8979-.0095-.1964.0409-.2739.2575-.2708.2843.0047.6835.1331.8245-.0579s.0567-.5715.0583-.869c.0039-.7679.0087-1.5358 0-2.30298 0-.23484.0614-.32095.3095-.31312.63.01565 1.26.01879 1.89 0 .2631-.00861.2962.09785.2938.3186-.0102.9629.0047 1.9265-.0102 2.8886-.0048.2614.0464.3773.337.3507s.5765 0 .8663-.0094c.1717-.0063.2276.0516.2237.2223-.0095.4814-.0103.9628 0 1.4443 0 .1792-.0709.2184-.2363.2137-.2882-.0094-.5781.0133-.8663-.0078-.2528-.0181-.3331.0563-.33.3178.0142 1.1374.0056 2.2693.0056 3.4005z"/><path d="m1.86129 18.55c-.47252-.0039-.878091-.2685-1.032446-.6552-.167742-.4173-.092139-.7922.228386-1.1101 3.04037-3.019 6.08205-6.037 9.12507-9.05395.4638-.45951 1.0749-.45872 1.5041-.02818.4552.45716.4545 1.04818-.0204 1.52022-1.74098 1.73261-3.48456 3.46241-5.23077 5.18921-.59852.5903-1.17341 1.2165-1.80185 1.7739-.7009.6262-1.31123 1.3308-1.9822 1.9836-.23705.2302-.50166.3695-.78989.3805z"/><path d="m12.7238 13.23c-.0039.065-.0039.13 0 .195.104.8094-.1937 1.3957-.8025 1.9781-2.0357 1.9461-4.00058 3.965-5.99538 5.9533-.51425.5127-1.10253.555-1.56324.1276-.48432-.4509-.47251-1.0678.03308-1.5782 1.32777-1.3307 2.65763-2.6594 3.9896-3.986.66467-.6646 1.32698-1.3308 1.99874-1.9891.0678-.0596.121-.1336.1558-.2166s.0502-.1728.045-.2625c-.0126-.3766-.011-.7539 0-1.1312.0173-.6842.4725-1.1883 1.0821-1.128.656.0657 1.0497.4188 1.056 1.1405.0032.2991.0008.5981.0008.8971z"/><path d="m125.988 13.6224c.742-1.0318 1.648-1.3715 2.67-.9801.209.0783.28.1636.187.3914-.197.4924-.371.9949-.539 1.4983-.058.1746-.1.2348-.291.1284-.875-.4846-1.935.1933-1.929 1.2877.01 1.9257-.005 3.8506.01 5.7763 0 .3132-.06.4306-.401.4102-.535-.0321-1.075-.0203-1.612 0-.249.0079-.342-.0524-.341-.3201.01-2.9147.01-5.8288 0-8.7425 0-.2465.073-.3076.31-.2998.538.0165 1.076.0188 1.613 0 .255-.0094.358.0587.327.321-.011.1762-.013.3528-.004.5292z"/><path d="m64.1927 13.6616c.2741-.3358.5151-.6528.8663-.8665.5969-.3593 1.2151-.3421 1.8523-.1182.1984.0696.2157.1675.1464.3491-.1913.4971-.3693.9997-.5402 1.5046-.0575.1706-.104.2113-.2961.1307-1.0002-.4188-1.9082.1777-1.9145 1.2611-.0105 1.9393-.0105 3.878 0 5.8163 0 .3014-.0685.4063-.3851.3914-.5513-.0266-1.1025-.0149-1.6538-.0039-.2173.0047-.2992-.0572-.2992-.285.0063-2.9277.0063-5.8557 0-8.7839 0-.2301.0787-.2826.2953-.2779.5245.0133 1.0497.0188 1.575 0 .2717-.0109.3835.0634.3505.3429-.0095.1797-.0085.3598.0031.5393z"/><path d="m21.8125 28.4228c1.2548-1.2525 2.5096-2.505 3.7644-3.7575.5449-.544 1.0883-1.0888 1.642-1.6235.0732-.0632.1308-.1423.1682-.2313.0374-.0889.0537-.1852.0475-.2814-.0141-.3766-.0126-.7539 0-1.1304.0182-.6325.3765-1.0255.9325-1.0388.667-.0164 1.1505.3577 1.1813.9863.0362.739.0102 1.4811.0173 2.2216 0 .1511-.0937.2349-.1859.3265-2.2344 2.2101-4.4708 4.42-6.7089 6.6296-.2118.209-.4615.3789-.6513.6121-.2221-.0735-.1228-.2591-.1307-.3968-.0433-.7711.0764-1.5476-.0764-2.3164z"/><path d="m32.121 14.2834c.0012.1495-.0294.2976-.09.4344-.0605.1368-.1496.2593-.2613.3594-2.2113 2.1809-4.4238 4.3613-6.6372 6.5412-.434.4258-1.0348.4078-1.4758-.0141-.4411-.422-.4505-1.0177-.0158-1.4623.6733-.6912 1.3671-1.3637 2.0531-2.0439 1.5105-1.4983 3.0212-2.9961 4.5322-4.4933.5513-.5425 1.3041-.4799 1.7231.1276.1179.1593.1784.3534.1717.551z"/><path d="m131.52 17.5042c0 1.4443-.011 2.8885.008 4.332.005.3218-.099.3915-.393.3758-.497-.0227-.997-.0133-1.497 0-.205.0047-.307-.0329-.306-.2732.007-2.9663.007-5.9327 0-8.899 0-.2019.054-.2708.263-.2654.537.0134 1.076.0204 1.613 0 .267-.0117.315.0783.315.3249-.009 1.4646-.003 2.9348-.003 4.4049z"/><path d="m12.7422 24.5473c1.4601-1.4529 2.9217-2.9055 4.3849-4.3579.7182-.7155 1.4491-1.4224 2.176-2.1347.1756.0931.1393.2607.1393.411v1.6634c0 .2067-.0102.4141.1064.5997-1.1278 1.1507-2.2996 2.2592-3.4455 3.3927-1.0537 1.0411-2.0877 2.1034-3.1564 3.1312-.1787-.1213-.1023-.3053-.1126-.465-.0456-.7484.0937-1.4991-.0921-2.2404z"/><path d="m13.1935 5.82456c-.2544-.7789.2362-1.37383.8726-1.9672 1.0891-1.01139 2.12-2.08775 3.1753-3.134371.4882-.483776 1.1411-.506477 1.601-.057927.4276.417238.3985 1.032528-.0858 1.520998-1.038 1.04662-2.076 2.09401-3.1281 3.12732-.2221.21762-.341.4329-.315.74759.0186.32455.0207.64983.0063.97459-.0158.6333-.3843 1.06932-.9009 1.0748-.7088.00783-1.1813-.38122-1.2199-1.04426-.0252-.36479-.0055-.72802-.0055-1.24154z"/><path d="m18.8448 14.9475c-.8662.8674-1.7325 1.7342-2.5988 2.6005-.5875.5866-1.1765 1.1703-1.7672 1.7512-.5182.5111-1.1143.5291-1.5876.0516-.4324-.4376-.4064-1.0333.0842-1.5194 1.8712-1.8553 3.7447-3.7079 5.6206-5.558.1795.0932.137.2623.1378.411v1.741c-.0155.1811.0232.3627.111.5221z"/><path d="m19.6875 7.63343c-.9111.92842-1.8113 1.86935-2.7847 2.73357-.4363.3859-.8048.8462-1.2167 1.2603-.4906.494-1.0931.5096-1.5585.0564-.445-.4329-.4324-1.0372.052-1.5179 1.7514-1.7352 3.5055-3.46756 5.2622-5.19705.0636.29096.0917.5885.0835.88614-.0102.48065-.0055.96207 0 1.44272 0 .13229-.0559.30295.1622.33582z"/><path d="m19.32 27.379c-1.26 1.2666-2.509 2.5441-3.7801 3.7958-.4402.4314-1.0836.3711-1.512-.0728-.3891-.4023-.4143-.9934 0-1.4036 1.7215-1.7096 3.4588-3.4044 5.1905-5.1046.1001.3671.0662.7428.0788 1.1162.0063.5558-.0473 1.114.0228 1.669z"/><path d="m24.1677 14.4463c-.2418-.9496.2071-1.5907.8978-2.1919.6906-.6012 1.3222-1.3003 1.9877-1.9461.3024-.2935.6694-.40469 1.0836-.2622.3883.1346.6418.3984.7088.8102.0606.3773-.0859.6842-.352.9464-.6687.6615-1.3318 1.3308-2.0059 1.9836-.0678.0589-.121.1326-.1555.2153-.0344.0827-.0491.1722-.0429.2615.0157.3914.011.7828 0 1.1742-.0134.6262-.4938 1.103-1.0923 1.0889s-1.0238-.4697-1.0301-1.1054c-.0032-.3248.0008-.6505.0008-.9745z"/><path d="m11.5414 21.1654c.2489.7954-.2284 1.4271-.9049 2.0275-.5528.4767-1.07859.9834-1.57501 1.5179-.35754.3961-1.11829.3679-1.4963-.0079-.37801-.3757-.39849-.9777-.00394-1.4043.32761-.3538.64971-.7249 1.03008-1.0177.66389-.5049.95291-1.1264.81273-1.946-.01114-.1041-.01114-.2091 0-.3132.02914-.6583.467-1.11 1.07264-1.1076.6056.0023 1.0419.4517 1.0647 1.1147.0095.328 0 .6529 0 1.1366z"/><path d="m19.3204 27.3695c-.0701-.5558-.0165-1.1132-.0307-1.669-.0095-.3734.0244-.7491-.0788-1.1163.0197-.0336.0323-.0783.0615-.0978.8552-.5206.9607-1.3136.8914-2.2169-.0551-.7194.4544-1.2063 1.1026-1.1743.2652.0088.517.1183.7035.306s.2935.4393.299.7031c.0173.7147 0 1.4302.0071 2.1457.0041.0577-.0045.1156-.0252.1696-.0206.0541-.0529.1031-.0945.1435-.9456.9341-1.8909 1.8696-2.8359 2.8064z"/><path d="m34.315 16.4453c.4426.011.7876.1965.9782.5989.1905.4024.1323.7828-.1646 1.0857-.8939.9144-1.798 1.8209-2.7241 2.7039-.3867.3687-1.0151.288-1.4175-.1151-.0945-.0916-.1696-.2011-.221-.3219-.0515-.1208-.0781-.2506-.0785-.3818s.0256-.2612.0763-.3823c.0508-.1211.1253-.2309.2192-.3231.4576-.4822.9451-.9346 1.4239-1.4004.3937-.3836.7875-.7664 1.175-1.1515.0939-.0996.2075-.1787.3337-.2324.1262-.0538.2622-.081.3994-.08z"/><path d="m21.4062 9.50792c.8183-.82195 1.6271-1.6533 2.4579-2.46194.4111-.4008 1.06-.34679 1.4821.07828.3843.3914.3938.98008-.0071 1.40906-.4567.48299-.9324.94955-1.4136 1.40905-.6008.57533-1.1458 1.20793-1.8018 1.72763-.1788.1417-.315.3335-.4725.5026-.0628-.2112-.091-.4312-.0835-.6513.0079-.5589.0047-1.1178 0-1.67599-.0008-.13308.0575-.30452-.1615-.33739z"/><path d="m19.5504 20.7285c-.1166-.1856-.1071-.3914-.1063-.5997.0031-.5542.0031-1.1087 0-1.6634 0-.1503.0362-.3179-.1394-.411.6639-.6646 1.3199-1.3363 1.994-1.9891.4111-.3969.986-.3813 1.4175 0 .4316.3812.5143.9824.1276 1.3949-.704.7507-1.4285 1.4874-2.1995 2.1692-.3914.3483-.6852.7781-1.0939 1.0991z"/><path d="m21.4107 9.5c.2189.03288.1575.20431.1622.33661.0039.55819.0071 1.11709 0 1.67599-.0075.2201.0207.4401.0835.6513-.5006.541-1.029 1.056-1.583 1.5429-.437.382-.8143.8267-1.2222 1.2439-.0878-.1589-.1267-.3399-.1118-.5206.0047-.58 0-1.1601 0-1.7409 0-.1488.0417-.3179-.1378-.411.9174-.9449 1.8475-1.8772 2.8091-2.7782z"/><path d="m19.8478 33.2892c-.3465.3523-.6843.7132-1.0419 1.0537-.4559.4352-1.0552.4204-1.5018-.0188-.4087-.4023-.4386-.9949-.0141-1.4294.8095-.8274 1.6475-1.629 2.472-2.4416.0787.3131.0787.6411.0787.9644-.0031.6239.0032 1.2478.0071 1.8717z"/><path d="m19.6918 7.62323c-.2181-.03288-.1622-.20354-.163-.33583-.0047-.48065-.0095-.96207 0-1.44272.0082-.29764-.0199-.59518-.0835-.88614.3733-.37966.7324-.77576 1.1246-1.13507.2092-.19199.4864-.29397.7709-.2837.2846.01026.5535.13194.7482.3385.3891.41019.3875 1.00121-.0464 1.43175-.5237.52057-1.0104 1.08106-1.6034 1.53822-.2843.21763-.4316.57772-.7474.77499z"/><path d="m131.831 10.5458c0 .8125-.623 1.4537-1.417 1.4529-.795-.0008-1.418-.6435-1.418-1.4568 0-.3737.149-.73213.415-.99638s.627-.41271 1.003-.41271.736.14846 1.002.41271.415.62268.415.99638z"/><path d="m19.8515 33.2808c0-.6263-.0102-1.2478-.011-1.8717 0-.3233.0078-.6474-.0788-.9644l2.0476-2.0306c.1528.7687.0331 1.5452.0787 2.3163.0079.1378-.0913.3233.1308.3969-.686.753-1.4239 1.4568-2.1673 2.1535z"/><path d="m12.745 24.5469c.1859.7413.0465 1.4951.0921 2.2419.0103.1566-.0661.3437.1127.465-.2174.2239-.4253.458-.6545.6693-.4402.4047-1.0238.3969-1.4459-.0054-.4418-.4189-.4882-1.0177-.0583-1.4584.634-.6552 1.2987-1.276 1.9539-1.9124z"/><path d="m143.306 14.4199c-.161-.0058-.317-.0586-.448-.1517-.132-.0932-.233-.2226-.291-.3723s-.071-.3131-.036-.4698c.034-.1568.114-.3.23-.412.115-.1121.261-.1879.42-.2181.158-.0303.322-.0136.471.0479s.277.1651.367.2981c.091.1329.14.2893.142.4497-.001.1103-.024.2193-.068.3208-.043.1014-.106.1933-.186.2703-.079.077-.173.1376-.276.1783-.104.0407-.214.0607-.325.0588zm.018-1.4991c-.135.004-.265.0473-.375.1244s-.194.1846-.243.3092c-.048.1245-.059.2606-.031.3912.029.1305.096.2498.192.343.096.0931.218.156.35.1807.133.0247.269.0102.393-.0417s.23-.1389.304-.2502.114-.2419.114-.3755c-.001-.0908-.02-.1805-.056-.264-.036-.0834-.088-.159-.153-.2223-.066-.0632-.143-.113-.228-.1465-.085-.0334-.176-.0498-.267-.0483z"/><path d="m143.326 12.9299c.134.0047.264.0487.374.1264.109.0777.193.1856.241.3104s.058.2609.028.3912c-.029.1304-.096.2493-.193.342-.097.0926-.219.1548-.351.1789s-.269.0089-.392-.0435c-.124-.0525-.229-.14-.303-.2516s-.113-.2423-.113-.3759c.002-.0909.021-.1805.058-.2638.036-.0833.089-.1586.155-.2216s.143-.1124.229-.1455c.085-.033.176-.049.267-.047zm-.295.9472c.305-.6952.429.2583.649.0532.009-.1182-.225-.166-.085-.3218.095-.1064.138-.2254.016-.342-.141-.1363-.327-.1081-.484-.0728-.183.0399-.079.2176-.092.3327-.01.1166-.011.2338-.004.3507z"/><path d="m143.029 13.8687c-.009-.1168-.009-.234 0-.3507.016-.1151-.092-.2928.091-.3327.157-.0353.343-.0634.484.0728.122.1166.079.2348-.016.3421-.14.1565.094.2035.085.3217-.216.2051-.34-.7484-.644-.0532z"/></g></svg>