<svg width="46" height="23" viewBox="0 0 46 23" fill="none" xmlns="http://www.w3.org/2000/svg">
<path d="M7.36723 3.85322L43.6344 1.98291L37.8515 19.0651L1.58434 20.9355L7.36723 3.85322Z" fill="#D40000"/>
<path d="M1.32552 20.9474L43.353 1.96908L37.9037 19.2709L1.32552 20.9474Z" fill="#730707" fill-opacity="0.37"/>
<path d="M8.82003 16.0591L8.55925 7.66315L9.84252 7.61981L15.3083 13.9069L14.6727 13.9283L14.4719 7.46346L16.019 7.41121L16.2798 15.8072L14.9965 15.8505L9.53071 9.56343L10.1663 9.54197L10.3671 16.0068L8.82003 16.0591ZM19.8161 10.777L23.9898 10.636L24.0296 11.9194L19.856 12.0603L19.8161 10.777ZM20.0478 14.3712L24.7851 14.2112L24.8257 15.5185L18.5293 15.7312L18.2686 7.33524L24.3971 7.12826L24.4377 8.43563L19.8683 8.58995L20.0478 14.3712ZM28.4256 15.397L25.3824 7.09499L27.0015 7.04031L29.7199 14.5488L28.9163 14.5759L31.259 6.89652L32.6982 6.84791L35.4406 14.3556L34.661 14.3819L36.9678 6.70372L38.4549 6.65349L35.9333 15.1434L34.2782 15.1993L31.7748 8.42798L32.2066 8.41339L30.0926 15.3407L28.4256 15.397Z" fill="white"/>
</svg>
