<svg width="46" height="46" viewBox="0 0 46 46" fill="none" xmlns="http://www.w3.org/2000/svg">
<path d="M32.2 29.1172C31.3175 29.9374 30.3256 30.6383 29.249 31.1941V31.9832C29.249 35.3287 26.5635 38.0505 23.2626 38.0505C19.9617 38.0505 17.2762 35.3287 17.2762 31.9832V31.1941C16.1995 30.6383 15.2076 29.9374 14.3253 29.1172C9.36851 29.1393 5.34277 33.2326 5.34277 38.2615V44.8589H41.1826V38.2615C41.1825 33.2326 37.1567 29.1393 32.2 29.1172Z" fill="white"/>
<path d="M25.6337 32.4288C25.6173 32.4317 25.6011 32.4349 25.5847 32.4378C25.4933 32.4542 25.4018 32.4696 25.3099 32.4841C25.2757 32.4896 25.2414 32.4946 25.2071 32.4997C25.1211 32.5125 25.0349 32.5253 24.9485 32.5364C24.9091 32.5415 24.8695 32.5456 24.8299 32.5503C24.7 32.5659 24.5699 32.5796 24.4392 32.5913C24.3655 32.5979 24.2915 32.6043 24.2174 32.6098C24.162 32.6138 24.1064 32.6172 24.0508 32.6205C23.9657 32.6256 23.8805 32.6298 23.795 32.6332C23.7493 32.635 23.7038 32.6371 23.6582 32.6385C23.5262 32.6425 23.3938 32.645 23.2609 32.645C23.128 32.645 22.9956 32.6424 22.8637 32.6385C22.8179 32.6371 22.7724 32.635 22.7268 32.6332C22.6413 32.6297 22.556 32.6256 22.471 32.6205C22.4154 32.6171 22.3599 32.6138 22.3044 32.6098C22.2304 32.6044 22.1564 32.598 22.0826 32.5913C21.952 32.5796 21.8218 32.5659 21.6919 32.5503C21.6524 32.5456 21.6127 32.5415 21.5733 32.5364C21.4869 32.5253 21.4007 32.5125 21.3147 32.4997C21.2804 32.4945 21.2461 32.4895 21.2119 32.4841C21.1202 32.4697 21.0286 32.4542 20.9371 32.4378C20.9207 32.4349 20.9045 32.4317 20.8881 32.4288C20.5194 32.3611 20.1536 32.2793 19.792 32.1797C19.8937 34.0295 21.4107 35.5026 23.2608 35.5026C25.111 35.5026 26.628 34.0295 26.7297 32.1797C26.3682 32.2792 26.0025 32.3611 25.6337 32.4288Z" fill="white"/>
<path d="M39.3146 13.5544C38.2205 10.3868 36.1957 7.55477 33.5458 5.51102C30.5675 3.21415 27.0102 2 23.2584 2C19.5066 2 15.9494 3.21415 12.9712 5.51102C10.3212 7.55477 8.29647 10.3867 7.20224 13.5544C5.94135 13.8569 5 15.0066 5 16.3756V22.0886C5 23.6875 6.28344 24.9883 7.86098 24.9883H11.3064C10.4849 23.243 10.0242 21.2911 10.0242 19.2321C10.0242 17.1731 10.4849 15.2212 11.3064 13.476H9.92529C10.9089 11.1489 12.4918 9.08022 14.4925 7.53719C17.0296 5.58041 20.0609 4.54607 23.2584 4.54607C26.456 4.54607 29.4872 5.58033 32.0245 7.53719C34.0251 9.08013 35.6079 11.1489 36.5916 13.476H35.2104C36.0319 15.2212 36.4926 17.1731 36.4926 19.2321C36.4926 21.2911 36.032 23.243 35.2104 24.9883H38.6558C40.2333 24.9883 41.5168 23.6875 41.5168 22.0886V16.3756C41.5168 15.0066 40.5755 13.8569 39.3146 13.5544Z" fill="white"/>
<path d="M23.2588 8.36719C19.2335 8.36719 15.7199 10.6273 13.8867 13.961C14.1612 13.9947 14.4384 14.0119 14.7176 14.0119C16.3596 14.0119 17.9463 13.4125 19.1853 12.3241L20.0695 11.5475L20.8965 12.3863C22.5952 14.1092 24.8542 15.0581 27.2573 15.0581C29.0801 15.0581 30.8499 14.4956 32.3387 13.4612C30.4394 10.4037 27.0796 8.36719 23.2588 8.36719Z" fill="white"/>
<path d="M22.1968 24.2511H24.3273C24.981 24.2511 25.5624 24.5625 25.9364 25.0465L32.3405 25.0051C33.3811 23.3311 33.9841 21.3507 33.9841 19.2302C33.9841 18.0252 33.7893 16.8656 33.4304 15.7815C31.5967 16.9627 29.4582 17.6003 27.2606 17.6003C24.5576 17.6003 21.9972 16.6621 19.9411 14.9375C18.4068 15.9862 16.5898 16.5541 14.7208 16.5541C14.1114 16.5541 13.5082 16.4931 12.9162 16.3754C12.6714 17.2855 12.54 18.2425 12.54 19.2302C12.54 25.2223 17.3499 30.0971 23.262 30.0971C25.8743 30.0971 28.2711 29.1449 30.133 27.5655L25.9399 27.5926C25.566 28.0792 24.9829 28.3926 24.3272 28.3926H22.1967C21.0683 28.3926 20.1535 27.4655 20.1535 26.3218C20.1535 25.1782 21.0683 24.2511 22.1968 24.2511Z" fill="white"/>
</svg>
