<svg width="36" height="35" viewBox="0 0 36 35" fill="none" xmlns="http://www.w3.org/2000/svg">
<g id="icon">
<g id="Group 40160">
<path id="Vector" d="M7.77078 13.5846V13.5849H7.77017L7.76956 13.584L7.76562 13.5781L7.77047 13.584L7.77078 13.5846Z" fill=""/>
<path id="Vector_2" d="M12.5389 16.8198C9.68054 16.8172 7.35196 19.1867 7.3289 22.1011C7.30698 25.0226 9.58715 27.405 12.3681 27.482C15.3182 27.5636 17.7137 25.1139 17.7011 22.1442C17.7148 19.2332 15.376 16.8224 12.5389 16.8198ZM11.0015 22.1541C11.0015 22.9345 11.0015 23.7144 11.0015 24.4938C11.0034 24.552 10.9981 24.6102 10.9856 24.667C10.9523 24.797 10.8609 24.8631 10.7339 24.8608C10.607 24.8584 10.5304 24.7823 10.4988 24.6629C10.4863 24.601 10.4817 24.5376 10.4851 24.4745C10.4851 23.2411 10.4851 22.0077 10.4851 20.7743C10.4851 20.7354 10.4851 20.6964 10.4851 20.6572C10.4851 20.618 10.4757 20.5885 10.4378 20.5765C10.4 20.5645 10.3746 20.5844 10.3524 20.6125C10.267 20.7219 10.1796 20.8325 10.0905 20.9402C9.9715 21.0842 9.82374 21.1088 9.70559 21.0078C9.58743 20.9069 9.58175 20.7503 9.69591 20.606C9.96789 20.2617 10.2409 19.9182 10.515 19.5756C10.5947 19.4755 10.6889 19.4062 10.8228 19.4559C10.9566 19.5057 11.0038 19.6166 11.0035 19.7556C11.0028 20.5551 11.0025 21.3546 11.0027 22.1541H11.0015ZM15.2222 24.854C15.1713 24.865 15.1194 24.8698 15.0674 24.8684C14.6358 24.8684 14.2041 24.8684 13.7723 24.8684C13.3357 24.8684 12.8992 24.8684 12.4626 24.8684C12.3772 24.8684 12.2918 24.8616 12.2192 24.8055C12.08 24.6963 12.0837 24.509 12.2346 24.3805C12.5501 24.1147 12.8522 23.8326 13.1399 23.5354C13.577 23.0797 13.9901 22.6033 14.318 22.0564C14.496 21.7596 14.6397 21.4477 14.6565 21.0906C14.685 20.5147 14.2864 20.0043 13.7754 19.9704C13.4189 19.947 13.0949 20.0708 12.7883 20.2481C12.7365 20.2822 12.6822 20.3122 12.626 20.338C12.5704 20.361 12.5085 20.3627 12.4517 20.3427C12.3949 20.3228 12.347 20.2826 12.3166 20.2294C12.2545 20.1123 12.269 20.0008 12.3601 19.9075C12.7727 19.484 13.8121 19.3149 14.3317 19.5856C14.9623 19.913 15.3014 20.7193 15.1209 21.4667C14.9888 22.0136 14.6978 22.474 14.3656 22.9103C14.0568 23.3121 13.7229 23.6927 13.366 24.0498C13.309 24.1063 13.2521 24.1602 13.2866 24.2503C13.321 24.3404 13.4021 24.3361 13.479 24.3361C14.0008 24.3361 14.5227 24.3361 15.0449 24.3361C15.0969 24.3347 15.149 24.3377 15.2006 24.3448C15.3333 24.3668 15.4181 24.4636 15.4218 24.5904C15.4257 24.6516 15.4076 24.7122 15.3711 24.7608C15.3345 24.8093 15.282 24.8425 15.2234 24.854H15.2222ZM12.5378 16.8198C9.6794 16.8172 7.35082 19.1867 7.32776 22.1011C7.30584 25.0226 9.58601 27.405 12.367 27.482C15.317 27.5636 17.7125 25.1139 17.7 22.1442C17.7148 19.2332 15.376 16.8224 12.5389 16.8198H12.5378ZM11.0004 22.1541C11.0004 22.9345 11.0004 23.7144 11.0004 24.4938C11.0023 24.552 10.9969 24.6102 10.9845 24.667C10.9512 24.797 10.8598 24.8631 10.7328 24.8608C10.6058 24.8584 10.5292 24.7823 10.4976 24.6629C10.4852 24.601 10.4806 24.5376 10.484 24.4745C10.484 23.2411 10.484 22.0077 10.484 20.7743C10.484 20.7354 10.484 20.6964 10.484 20.6572C10.484 20.618 10.4746 20.5885 10.4367 20.5765C10.3988 20.5645 10.3735 20.5844 10.3513 20.6125C10.2659 20.7219 10.1785 20.8325 10.0894 20.9402C9.97036 21.0842 9.8226 21.1088 9.70445 21.0078C9.5863 20.9069 9.58061 20.7503 9.69477 20.606C9.96675 20.2617 10.2398 19.9182 10.5139 19.5756C10.5936 19.4755 10.6878 19.4062 10.8216 19.4559C10.9554 19.5057 11.0027 19.6166 11.0024 19.7556C11.0024 20.5551 11.0025 21.3546 11.0027 22.1541H11.0004ZM15.2211 24.854C15.1702 24.865 15.1182 24.8698 15.0662 24.8684C14.6346 24.8684 14.203 24.8684 13.7711 24.8684C13.3346 24.8684 12.898 24.8684 12.4615 24.8684C12.3761 24.8684 12.2907 24.8616 12.2181 24.8055C12.0789 24.6963 12.0826 24.509 12.2334 24.3805C12.5489 24.1147 12.8511 23.8326 13.1388 23.5354C13.5758 23.0797 13.9889 22.6033 14.3169 22.0564C14.4948 21.7596 14.6386 21.4477 14.6554 21.0906C14.6839 20.5147 14.2853 20.0043 13.7742 19.9704C13.4178 19.947 13.0938 20.0708 12.7872 20.2481C12.7353 20.2822 12.6811 20.3122 12.6249 20.338C12.5692 20.361 12.5074 20.3627 12.4506 20.3427C12.3938 20.3228 12.3458 20.2826 12.3154 20.2294C12.2534 20.1123 12.2679 20.0008 12.359 19.9075C12.7715 19.484 13.811 19.3149 14.3306 19.5856C14.9612 19.913 15.3002 20.7193 15.1197 21.4667C14.9876 22.0136 14.6967 22.474 14.3644 22.9103C14.0557 23.3121 13.7218 23.6927 13.3648 24.0498C13.3079 24.1063 13.251 24.1602 13.2854 24.2503C13.3199 24.3404 13.401 24.3361 13.4779 24.3361C13.9996 24.3361 14.5216 24.3361 15.0437 24.3361C15.0958 24.3347 15.1479 24.3377 15.1995 24.3448C15.3321 24.3668 15.417 24.4636 15.4207 24.5904C15.4246 24.6514 15.4067 24.7119 15.3704 24.7604C15.3341 24.8089 15.2818 24.8422 15.2234 24.854H15.2211ZM12.5367 16.8198C9.67826 16.8172 7.34969 19.1867 7.32663 22.1011C7.30471 25.0226 9.58487 27.405 12.3658 27.482C15.3159 27.5636 17.7114 25.1139 17.6989 22.1442C17.7148 19.2332 15.376 16.8224 12.5389 16.8198H12.5367ZM10.9993 22.1541C10.9993 22.9345 10.9993 23.7144 10.9993 24.4938C11.0012 24.552 10.9958 24.6102 10.9833 24.667C10.95 24.797 10.8586 24.8631 10.7316 24.8608C10.6047 24.8584 10.5281 24.7823 10.4965 24.6629C10.484 24.601 10.4795 24.5376 10.4828 24.4745C10.4828 23.2411 10.4828 22.0077 10.4828 20.7743C10.4828 20.7354 10.4828 20.6964 10.4828 20.6572C10.4828 20.618 10.4734 20.5885 10.4356 20.5765C10.3977 20.5645 10.3724 20.5844 10.3502 20.6125C10.2647 20.7219 10.1773 20.8325 10.0882 20.9402C9.96922 21.0842 9.82146 21.1088 9.70331 21.0078C9.58516 20.9069 9.57947 20.7503 9.69363 20.606C9.96561 20.2617 10.2386 19.9182 10.5127 19.5756C10.5924 19.4755 10.6867 19.4062 10.8205 19.4559C10.9543 19.5057 11.0015 19.6166 11.0013 19.7556C11.002 20.5551 11.0025 21.3546 11.0027 22.1541H10.9993ZM15.22 24.854C15.169 24.865 15.1171 24.8698 15.0651 24.8684C14.6335 24.8684 14.2019 24.8684 13.77 24.8684C13.3334 24.8684 12.8969 24.8684 12.4604 24.8684C12.3749 24.8684 12.2895 24.8616 12.2169 24.8055C12.0777 24.6963 12.0814 24.509 12.2323 24.3805C12.5478 24.1147 12.8499 23.8326 13.1377 23.5354C13.5747 23.0797 13.9878 22.6033 14.3157 22.0564C14.4937 21.7596 14.6375 21.4477 14.6543 21.0906C14.6827 20.5147 14.2841 20.0043 13.7731 19.9704C13.4167 19.947 13.0927 20.0708 12.7861 20.2481C12.7342 20.2822 12.68 20.3122 12.6238 20.338C12.5681 20.361 12.5062 20.3627 12.4494 20.3427C12.3926 20.3228 12.3447 20.2826 12.3143 20.2294C12.2522 20.1123 12.2668 20.0008 12.3579 19.9075C12.7704 19.484 13.8098 19.3149 14.3294 19.5856C14.96 19.913 15.2991 20.7193 15.1186 21.4667C14.9865 22.0136 14.6955 22.474 14.3633 22.9103C14.0546 23.3121 13.7207 23.6927 13.3637 24.0498C13.3068 24.1063 13.2498 24.1602 13.2843 24.2503C13.3187 24.3404 13.3999 24.3361 13.4767 24.3361C13.9985 24.3361 14.5204 24.3361 15.0426 24.3361C15.0946 24.3347 15.1467 24.3377 15.1983 24.3448C15.331 24.3668 15.4158 24.4636 15.4195 24.5904C15.4235 24.6513 15.4057 24.7116 15.3697 24.7601C15.3336 24.8086 15.2816 24.842 15.2234 24.854H15.22ZM12.5355 16.8198C9.67712 16.8172 7.34855 19.1867 7.32549 22.1011C7.30357 25.0226 9.58374 27.405 12.3647 27.482C15.3148 27.5636 17.7102 25.1139 17.6977 22.1442C17.7148 19.2332 15.376 16.8224 12.5389 16.8198H12.5355ZM10.9981 22.1541C10.9981 22.9345 10.9981 23.7144 10.9981 24.4938C11 24.552 10.9947 24.6102 10.9822 24.667C10.9489 24.797 10.8575 24.8631 10.7305 24.8608C10.6035 24.8584 10.5269 24.7823 10.4953 24.6629C10.4829 24.601 10.4783 24.5376 10.4817 24.4745C10.4817 23.2411 10.4817 22.0077 10.4817 20.7743C10.4817 20.7354 10.4817 20.6964 10.4817 20.6572C10.4817 20.618 10.4723 20.5885 10.4344 20.5765C10.3966 20.5645 10.3712 20.5844 10.349 20.6125C10.2636 20.7219 10.1762 20.8325 10.0871 20.9402C9.96808 21.0842 9.82032 21.1088 9.70217 21.0078C9.58402 20.9069 9.57833 20.7503 9.69249 20.606C9.96447 20.2617 10.2375 19.9182 10.5116 19.5756C10.5913 19.4755 10.6855 19.4062 10.8193 19.4559C10.9531 19.5057 11.0004 19.6166 11.0001 19.7556C11.0016 20.5551 11.0025 21.3546 11.0027 22.1541H10.9981ZM15.2188 24.854C15.1679 24.865 15.1159 24.8698 15.0639 24.8684C14.6323 24.8684 14.2007 24.8684 13.7688 24.8684C13.3323 24.8684 12.8958 24.8684 12.4592 24.8684C12.3738 24.8684 12.2884 24.8616 12.2158 24.8055C12.0766 24.6963 12.0803 24.509 12.2312 24.3805C12.5466 24.1147 12.8488 23.8326 13.1365 23.5354C13.5735 23.0797 13.9866 22.6033 14.3146 22.0564C14.4925 21.7596 14.6363 21.4477 14.6531 21.0906C14.6816 20.5147 14.283 20.0043 13.772 19.9704C13.4155 19.947 13.0915 20.0708 12.7849 20.2481C12.7331 20.2822 12.6788 20.3122 12.6226 20.338C12.5669 20.361 12.5051 20.3627 12.4483 20.3427C12.3915 20.3228 12.3435 20.2826 12.3132 20.2294C12.2511 20.1123 12.2656 20.0008 12.3567 19.9075C12.7693 19.484 13.8087 19.3149 14.3283 19.5856C14.9589 19.913 15.298 20.7193 15.1175 21.4667C14.9854 22.0136 14.6944 22.474 14.3622 22.9103C14.0534 23.3121 13.7195 23.6927 13.3626 24.0498C13.3056 24.1063 13.2487 24.1602 13.2831 24.2503C13.3176 24.3404 13.3987 24.3361 13.4756 24.3361C13.9974 24.3361 14.5193 24.3361 15.0414 24.3361C15.0935 24.3347 15.1456 24.3377 15.1972 24.3448C15.3299 24.3668 15.4147 24.4636 15.4184 24.5904C15.4224 24.6511 15.4048 24.7113 15.369 24.7598C15.3331 24.8082 15.2814 24.8417 15.2234 24.854H15.2188ZM22.0072 20.8428C21.5756 17.6152 19.9178 15.1948 17.1852 13.5507C16.6358 13.22 16.0464 12.9803 15.4486 12.7623C15.3279 12.7137 15.2069 12.6654 15.0785 12.6467C14.9802 12.5771 14.8609 12.592 14.753 12.5607L14.7456 12.5642L14.7402 12.5577C14.7118 12.5232 14.6676 12.5525 14.6343 12.5361C14.6314 12.5346 14.6288 12.5327 14.6264 12.5305C14.5933 12.4937 14.5461 12.5267 14.5096 12.5057C14.4695 12.4618 14.412 12.5042 14.3673 12.4764H14.3656H14.3679C14.3274 12.431 14.2722 12.4676 14.2255 12.4498C14.1597 12.4386 14.088 12.4632 14.0285 12.4152C13.9887 12.3887 13.9418 12.3754 13.8944 12.3772C13.7076 12.3684 13.522 12.34 13.3352 12.3286L13.288 12.3251C13.1698 12.29 13.0471 12.3228 12.9275 12.3078C12.9236 12.3078 12.9196 12.3078 12.9156 12.3061C12.9018 12.3042 12.8881 12.3015 12.8746 12.2979C12.8335 12.3135 12.7884 12.3135 12.7473 12.2979C12.5971 12.2653 12.442 12.2653 12.2918 12.2979C12.251 12.3134 12.2062 12.3134 12.1654 12.2979C12.1561 12.3008 12.1466 12.3032 12.1369 12.3049C12.0376 12.3248 11.9351 12.2941 11.8363 12.3213L11.6956 12.3307C11.4679 12.347 11.2376 12.3599 11.0124 12.4155H11.0107C10.9671 12.4307 10.9187 12.4155 10.8757 12.436L10.8672 12.4404L10.8387 12.4442C10.7424 12.4558 10.6472 12.4754 10.554 12.5027L10.5474 12.5098L10.5389 12.5057C10.4982 12.5185 10.4487 12.4904 10.4142 12.5332C10.261 12.5642 10.1076 12.5917 9.96068 12.6502C9.83307 12.6723 9.70871 12.7109 9.59057 12.7652C9.50516 12.7901 9.4132 12.7986 9.33633 12.853C9.27797 12.8709 9.21591 12.8767 9.16352 12.9133C9.06245 12.9891 8.93035 12.9885 8.82643 13.057C8.78031 13.0798 8.72593 13.0839 8.68408 13.119H8.68266C8.64013 13.1271 8.60006 13.1454 8.56565 13.1723C8.53063 13.1969 8.48024 13.1837 8.45177 13.225L8.08365 13.4061C8.03802 13.437 7.99047 13.4648 7.9413 13.4892L7.88891 13.5252C7.84735 13.539 7.79525 13.5331 7.77503 13.5887C7.75725 13.5899 7.73998 13.5953 7.72457 13.6045C7.70915 13.6137 7.69602 13.6264 7.6862 13.6417C7.66798 13.6537 7.64179 13.6455 7.62784 13.6672L7.59055 13.6964C7.56208 13.7257 7.50769 13.7125 7.49118 13.7608C7.4569 13.768 7.42645 13.788 7.40577 13.817C7.37132 13.8249 7.34883 13.8536 7.31723 13.8679L7.06783 14.0491C7.06379 14.052 7.05951 14.0545 7.05503 14.0567C7.01687 14.0774 6.96961 14.0859 6.94684 14.1292L6.77971 14.2513C6.71566 14.2691 6.6795 14.3238 6.63395 14.3663L6.45886 14.5126C6.41929 14.5381 6.38712 14.5732 6.34925 14.6004L6.25758 14.6867C6.21032 14.7236 6.15708 14.7534 6.12177 14.8038L6.09159 14.833C6.07864 14.8379 6.06704 14.846 6.05777 14.8565C6.04849 14.867 6.04184 14.8796 6.03836 14.8933C5.83309 15.0508 5.66597 15.2483 5.49515 15.4415L5.46326 15.4757C5.44322 15.482 5.42541 15.4942 5.41205 15.5108C5.39869 15.5274 5.39036 15.5476 5.3881 15.569C5.34169 15.6276 5.27422 15.6656 5.2392 15.7356L5.18426 15.7967C5.1132 15.8604 5.05464 15.9375 5.01173 16.0238L4.98012 16.0601C4.92949 16.0965 4.89212 16.1492 4.87393 16.2099C4.83976 16.2275 4.82753 16.2614 4.81358 16.2939C4.77349 16.3208 4.74339 16.3608 4.72817 16.4075L4.64276 16.5277C4.61429 16.5491 4.61001 16.5886 4.58582 16.6132C4.47193 16.7993 4.35805 16.9854 4.24417 17.1716C4.19492 17.2076 4.17784 17.2634 4.15876 17.3179L4.09926 17.4349C4.06742 17.4885 4.03889 17.5442 4.01385 17.6015C3.99648 17.6336 3.9794 17.6658 3.96203 17.6977C3.9236 17.7352 3.9142 17.7855 3.89997 17.8356L3.86836 17.9029C3.83591 17.9321 3.84303 17.9807 3.8157 18.0123C3.78723 18.0732 3.76189 18.1341 3.73484 18.1952C3.70495 18.2403 3.69641 18.2941 3.6779 18.3442V18.3462C3.64687 18.4162 3.60103 18.4794 3.59249 18.5593L3.56089 18.6336C3.52673 18.7132 3.48686 18.7908 3.47747 18.8791L3.44587 18.9555C3.41512 19.0433 3.33996 19.1162 3.36672 19.2215C3.3411 19.2536 3.32828 19.2945 3.33085 19.336C3.28729 19.4717 3.2369 19.6058 3.22266 19.7497C3.19078 19.834 3.18167 19.9239 3.16231 20.0111C3.11847 20.0512 3.15519 20.1085 3.13384 20.153C3.10996 20.25 3.0917 20.3484 3.07917 20.4477C3.03789 20.4969 3.0749 20.5601 3.05725 20.6139V20.6166C3.05576 20.6209 3.05386 20.6252 3.05156 20.6291L3.0564 20.6403L3.049 20.6499C3.01854 20.7032 3.047 20.7649 3.02935 20.8202C3.0296 20.8211 3.0296 20.822 3.02935 20.8229C3.02806 20.8272 3.02635 20.8315 3.02423 20.8355L3.02935 20.846L3.02195 20.8545C2.9875 20.9215 3.02024 20.9964 2.99718 21.0646V21.0623C2.99704 21.0635 2.99704 21.0648 2.99718 21.0661C2.97668 21.2209 2.94024 21.376 2.94708 21.5319C2.967 22.0365 2.91547 22.5421 2.97555 23.0461C2.99918 23.2424 2.99889 23.4417 3.04843 23.6349L3.05555 23.6442L3.05099 23.6551C3.06693 23.7651 3.06921 23.8772 3.10793 23.9834C3.11217 23.9887 3.11528 23.9949 3.11704 24.0016C3.13099 24.051 3.08629 24.1125 3.13868 24.1543V24.1514C3.13878 24.1522 3.13878 24.153 3.13868 24.1537C3.15804 24.1906 3.12473 24.2398 3.16288 24.2723C3.18338 24.3601 3.19135 24.4517 3.22124 24.5377L3.27334 24.7487C3.29176 24.8469 3.32039 24.9427 3.35875 25.0346C3.3616 25.0434 3.36445 25.0519 3.36758 25.0603C3.35505 25.1291 3.39605 25.1812 3.41883 25.2397C3.42965 25.269 3.41171 25.3062 3.44388 25.3275C3.49398 25.4285 3.49797 25.5476 3.5626 25.6427C3.56989 25.7181 3.59663 25.7901 3.64004 25.8514L3.78438 26.2058C3.7977 26.2464 3.8169 26.2848 3.84132 26.3196C3.86068 26.3614 3.88032 26.4036 3.89997 26.4454C3.92132 26.4797 3.93129 26.5198 3.95321 26.5537L4.04232 26.7357C4.06766 26.7682 4.06652 26.8168 4.10211 26.8434C4.1058 26.8719 4.11551 26.8992 4.13058 26.9233C4.14632 26.9475 4.16383 26.9704 4.18296 26.9918C4.19207 27.0761 4.25158 27.1314 4.29428 27.1966L4.32502 27.2552C4.3794 27.3277 4.39534 27.427 4.47335 27.4829C4.48724 27.5297 4.51322 27.5719 4.54852 27.6049L4.66581 27.7837C4.70937 27.8378 4.71734 27.9174 4.78283 27.9558L4.80845 27.9877C4.85741 28.055 4.88048 28.1419 4.95479 28.1899L5.00774 28.2537C5.03991 28.2876 5.04219 28.3459 5.09315 28.3655L5.12162 28.3988C5.16404 28.4597 5.1834 28.5405 5.26141 28.5706L5.29244 28.6048C5.32859 28.6543 5.37159 28.6979 5.40917 28.7462L5.5202 28.8662C5.54288 28.8983 5.57003 28.9268 5.60077 28.9507L5.63379 28.9867C5.70055 29.0883 5.78595 29.1755 5.88519 29.2434L6.06113 29.419C6.15053 29.4918 6.20946 29.6022 6.32306 29.6458C6.33502 29.6812 6.36577 29.6955 6.39481 29.7119L6.45914 29.7704C6.54085 29.8413 6.59979 29.9425 6.71167 29.9753L6.94285 30.1529C6.98043 30.1822 7.01403 30.2159 7.06015 30.2296H7.06328C7.09431 30.3031 7.16207 30.3253 7.22556 30.3543L7.2825 30.3885C7.31097 30.4292 7.36022 30.4429 7.39894 30.4707L7.53902 30.5606C7.57795 30.6021 7.62716 30.632 7.68137 30.6469L7.99454 30.8257C8.04521 30.86 8.10329 30.8793 8.15539 30.9103L8.22201 30.9416C8.24752 30.966 8.27903 30.9827 8.31312 30.9899C8.34643 31.0306 8.4045 31.0215 8.44095 31.0557L8.50557 31.0879C8.54122 31.1121 8.58103 31.129 8.62287 31.1377H8.62429C8.6613 31.1737 8.71654 31.1699 8.75583 31.2012L8.81818 31.2304C8.88956 31.2709 8.96628 31.3005 9.04594 31.3182C9.07441 31.3768 9.14074 31.3475 9.18174 31.3768L9.50089 31.4918C9.5527 31.5421 9.62103 31.5357 9.68395 31.5483C9.71099 31.5822 9.75 31.5775 9.78587 31.5822C9.88117 31.6207 9.98026 31.6485 10.0814 31.665C10.1099 31.7001 10.1477 31.6925 10.1842 31.6957C10.266 31.7212 10.3492 31.7418 10.4333 31.7575L10.6961 31.8116C10.7983 31.8454 10.9047 31.8642 11.0121 31.8672L11.0667 31.8746C11.2401 31.9088 11.4166 31.9211 11.5906 31.9492C11.8326 31.9884 12.0746 31.9738 12.318 31.9828H12.328C12.3564 31.9843 12.3849 31.9858 12.4154 31.9878H12.6448C12.6922 31.9735 12.7417 31.9685 12.7909 31.9732C12.8125 31.9732 12.8339 31.9755 12.8552 31.9758C12.9902 31.9781 13.1254 31.996 13.2587 31.9585L13.2854 31.9559C13.5148 31.9455 13.7432 31.9181 13.9687 31.874L14.012 31.8693C14.1686 31.8435 14.328 31.8345 14.4809 31.7871C14.4986 31.7717 14.5195 31.7605 14.5419 31.7545C14.5644 31.7484 14.5879 31.7475 14.6107 31.7519C14.6898 31.7309 14.779 31.7473 14.8473 31.6855C14.8795 31.6542 14.9196 31.6653 14.9572 31.6644C14.9965 31.6495 15.0426 31.6662 15.0787 31.6404C15.1072 31.6363 15.1195 31.591 15.1565 31.6065C15.2151 31.586 15.2846 31.6024 15.335 31.5529L15.3444 31.545L15.356 31.548C15.4493 31.5398 15.539 31.5073 15.6165 31.4534L15.7794 31.4002C15.8346 31.3964 15.8822 31.3671 15.9328 31.3493C15.9773 31.3244 16.0123 31.2781 16.0706 31.2857C16.1196 31.2682 16.1748 31.2688 16.2173 31.2325C16.26 31.2079 16.2867 31.1503 16.3488 31.1666C16.3941 31.1593 16.4368 31.1401 16.4729 31.111C16.5094 31.0885 16.5583 31.0923 16.5868 31.0554L16.7195 30.9916C16.7639 30.9834 16.8061 30.9653 16.843 30.9387C16.8809 30.9246 16.89 30.8641 16.9427 30.8737C17.0372 30.8368 17.1326 30.8017 17.2072 30.7274H17.2092C17.2684 30.7218 17.3068 30.6753 17.3552 30.6484L17.4016 30.6118C17.4628 30.5773 17.5371 30.5653 17.5833 30.5038C17.6601 30.4567 17.7137 30.3733 17.8065 30.3505C17.8856 30.344 17.9343 30.2919 17.979 30.2334C18.014 30.2214 18.0527 30.215 18.0627 30.1687C18.1283 30.1001 18.2045 30.0432 18.2882 30.0002C18.3166 29.9944 18.3434 29.9825 18.367 29.9652C18.3905 29.948 18.4103 29.9258 18.4248 29.9001C18.4283 29.8939 18.4317 29.8872 18.4348 29.8805C18.4397 29.8639 18.4496 29.8494 18.463 29.8389C18.4763 29.8284 18.4926 29.8225 18.5094 29.8219C18.5695 29.7986 18.6208 29.7563 18.656 29.7011L18.664 29.7087L18.6563 29.7008C18.7053 29.6961 18.7246 29.6551 18.7483 29.62C18.7989 29.6025 18.8288 29.5615 18.8587 29.5191L18.8801 29.5C18.9282 29.491 18.953 29.4541 18.9752 29.4146C19.0224 29.3877 19.0625 29.3494 19.0922 29.3031L19.0936 29.3013C19.2374 29.1768 19.3697 29.0389 19.4888 28.8893C19.496 28.8697 19.507 28.8519 19.5211 28.8368C19.5351 28.8217 19.552 28.8097 19.5708 28.8015C19.5974 28.7905 19.6214 28.7736 19.6411 28.7521C19.6608 28.7306 19.6756 28.7049 19.6846 28.6768C19.7009 28.6534 19.7154 28.6288 19.7333 28.6069C21.5987 26.3755 22.3987 23.7715 22.0072 20.8428ZM12.5224 28.0125C9.33718 28.0125 6.77146 25.3202 6.81872 22.0613C6.86541 18.8867 9.40608 16.2784 12.558 16.291C15.6701 16.3036 18.217 18.9344 18.217 22.1559C18.217 25.3828 15.6627 28.0114 12.5221 28.0122L12.5224 28.0125ZM12.5392 16.8201C9.68082 16.8175 7.35225 19.187 7.32919 22.1014C7.30727 25.0229 9.58744 27.4053 12.3684 27.4823C15.3185 27.5639 17.7139 25.1142 17.7014 22.1445C17.7148 19.2332 15.376 16.8224 12.5389 16.8198L12.5392 16.8201ZM11.0018 22.1544C11.0018 22.9348 11.0018 23.7147 11.0018 24.4941C11.0037 24.5523 10.9984 24.6105 10.9859 24.6673C10.9526 24.7973 10.8612 24.8634 10.7342 24.8611C10.6072 24.8587 10.5307 24.7826 10.4991 24.6632C10.4866 24.6013 10.482 24.5379 10.4854 24.4748C10.4854 23.2414 10.4854 22.008 10.4854 20.7746C10.4854 20.7357 10.4854 20.6967 10.4854 20.6575C10.4854 20.6183 10.476 20.5888 10.4381 20.5768C10.4003 20.5648 10.3749 20.5847 10.3527 20.6128C10.2673 20.7222 10.1799 20.8328 10.0908 20.9405C9.97178 21.0845 9.82402 21.1091 9.70587 21.0081C9.58772 20.9072 9.58203 20.7506 9.6962 20.6063C9.96818 20.262 10.2412 19.9185 10.5153 19.5759C10.595 19.4758 10.6892 19.4065 10.823 19.4562C10.9568 19.506 11.0041 19.6169 11.0038 19.7559C11.0029 20.5552 11.0025 21.3546 11.0027 22.1541L11.0018 22.1544ZM15.2225 24.8543C15.1716 24.8653 15.1196 24.8701 15.0676 24.8687C14.636 24.8687 14.2044 24.8687 13.7725 24.8687C13.336 24.8687 12.8995 24.8687 12.4629 24.8687C12.3775 24.8687 12.2921 24.8619 12.2195 24.8057C12.0803 24.6966 12.084 24.5093 12.2349 24.3808C12.5503 24.115 12.8525 23.8329 13.1402 23.5357C13.5772 23.08 13.9903 22.6036 14.3183 22.0567C14.4963 21.7599 14.64 21.448 14.6568 21.0909C14.6853 20.515 14.2867 20.0046 13.7757 19.9707C13.4192 19.9473 13.0952 20.0711 12.7886 20.2484C12.7368 20.2825 12.6825 20.3125 12.6263 20.3383C12.5707 20.3613 12.5088 20.3629 12.452 20.343C12.3952 20.3231 12.3472 20.2829 12.3169 20.2297C12.2548 20.1126 12.2693 20.0011 12.3604 19.9078C12.773 19.4843 13.8124 19.3152 14.332 19.5859C14.9626 19.9133 15.3017 20.7196 15.1212 21.467C14.9891 22.0139 14.6981 22.4743 14.3659 22.9106C14.0571 23.3124 13.7232 23.693 13.3663 24.0501C13.3093 24.1066 13.2524 24.1605 13.2868 24.2506C13.3213 24.3407 13.4024 24.3363 13.4793 24.3363C14.0011 24.3363 14.523 24.3363 15.0452 24.3363C15.0972 24.335 15.1493 24.338 15.2009 24.3451C15.3336 24.3671 15.4184 24.4639 15.4221 24.5907C15.4259 24.6519 15.4077 24.7125 15.3712 24.7609C15.3346 24.8094 15.282 24.8425 15.2234 24.854L15.2225 24.8543ZM12.5381 16.8201C9.67968 16.8175 7.35111 19.187 7.32805 22.1014C7.30613 25.0229 9.5863 27.4053 12.3673 27.4823C15.3173 27.5639 17.7128 25.1142 17.7003 22.1445C17.7148 19.2332 15.376 16.8224 12.5389 16.8198L12.5381 16.8201ZM11.0007 22.1544C11.0007 22.9348 11.0007 23.7147 11.0007 24.4941C11.0026 24.5523 10.9972 24.6105 10.9848 24.6673C10.9514 24.7973 10.8601 24.8634 10.7331 24.8611C10.6061 24.8587 10.5295 24.7826 10.4979 24.6632C10.4855 24.6013 10.4809 24.5379 10.4842 24.4748C10.4842 23.2414 10.4842 22.008 10.4842 20.7746C10.4842 20.7357 10.4842 20.6967 10.4842 20.6575C10.4842 20.6183 10.4749 20.5888 10.437 20.5768C10.3991 20.5648 10.3738 20.5847 10.3516 20.6128C10.2662 20.7222 10.1788 20.8328 10.0896 20.9405C9.97064 21.0845 9.82288 21.1091 9.70473 21.0081C9.58658 20.9072 9.58089 20.7506 9.69506 20.6063C9.96704 20.262 10.2401 19.9185 10.5141 19.5759C10.5939 19.4758 10.6881 19.4065 10.8219 19.4562C10.9557 19.506 11.003 19.6169 11.0027 19.7559C11.0025 20.5552 11.0025 21.3546 11.0027 22.1541L11.0007 22.1544ZM15.2214 24.8543C15.1705 24.8653 15.1185 24.8701 15.0665 24.8687C14.6349 24.8687 14.2033 24.8687 13.7714 24.8687C13.3349 24.8687 12.8983 24.8687 12.4618 24.8687C12.3764 24.8687 12.291 24.8619 12.2184 24.8057C12.0791 24.6966 12.0828 24.5093 12.2337 24.3808C12.5492 24.115 12.8514 23.8329 13.1391 23.5357C13.5761 23.08 13.9892 22.6036 14.3172 22.0567C14.4951 21.7599 14.6389 21.448 14.6557 21.0909C14.6842 20.515 14.2856 20.0046 13.7745 19.9707C13.4181 19.9473 13.0941 20.0711 12.7875 20.2484C12.7356 20.2825 12.6814 20.3125 12.6252 20.3383C12.5695 20.3613 12.5076 20.3629 12.4509 20.343C12.3941 20.3231 12.3461 20.2829 12.3157 20.2297C12.2537 20.1126 12.2682 20.0011 12.3593 19.9078C12.7718 19.4843 13.8113 19.3152 14.3308 19.5859C14.9615 19.9133 15.3005 20.7196 15.12 21.467C14.9879 22.0139 14.697 22.4743 14.3647 22.9106C14.056 23.3124 13.7221 23.693 13.3651 24.0501C13.3082 24.1066 13.2513 24.1605 13.2857 24.2506C13.3202 24.3407 13.4013 24.3363 13.4782 24.3363C13.9999 24.3363 14.5219 24.3363 15.044 24.3363C15.0961 24.335 15.1481 24.338 15.1997 24.3451C15.3324 24.3671 15.4173 24.4639 15.421 24.5907C15.4248 24.6517 15.4068 24.7121 15.3704 24.7606C15.3341 24.8091 15.2818 24.8423 15.2234 24.854L15.2214 24.8543ZM12.5369 16.8201C9.67854 16.8175 7.34998 19.187 7.32692 22.1014C7.30499 25.0229 9.58516 27.4053 12.3661 27.4823C15.3162 27.5639 17.7117 25.1142 17.6991 22.1445C17.7148 19.2332 15.376 16.8224 12.5389 16.8198L12.5369 16.8201ZM10.9996 22.1544C10.9996 22.9348 10.9996 23.7147 10.9996 24.4941C11.0014 24.5523 10.9961 24.6105 10.9836 24.6673C10.9503 24.7973 10.8589 24.8634 10.7319 24.8611C10.605 24.8587 10.5284 24.7826 10.4968 24.6632C10.4843 24.6013 10.4797 24.5379 10.4831 24.4748C10.4831 23.2414 10.4831 22.008 10.4831 20.7746C10.4831 20.7357 10.4831 20.6967 10.4831 20.6575C10.4831 20.6183 10.4737 20.5888 10.4358 20.5768C10.398 20.5648 10.3726 20.5847 10.3504 20.6128C10.265 20.7222 10.1776 20.8328 10.0885 20.9405C9.96951 21.0845 9.82175 21.1091 9.7036 21.0081C9.58545 20.9072 9.57975 20.7506 9.69392 20.6063C9.9659 20.262 10.2389 19.9185 10.513 19.5759C10.5927 19.4758 10.687 19.4065 10.8208 19.4562C10.9546 19.506 11.0018 19.6169 11.0015 19.7559C11.0021 20.5552 11.0025 21.3546 11.0027 22.1541L10.9996 22.1544ZM15.2202 24.8543C15.1693 24.8653 15.1174 24.8701 15.0654 24.8687C14.6338 24.8687 14.2022 24.8687 13.7703 24.8687C13.3337 24.8687 12.8972 24.8687 12.4606 24.8687C12.3752 24.8687 12.2898 24.8619 12.2172 24.8057C12.078 24.6966 12.0817 24.5093 12.2326 24.3808C12.5481 24.115 12.8502 23.8329 13.1379 23.5357C13.575 23.08 13.9881 22.6036 14.316 22.0567C14.494 21.7599 14.6377 21.448 14.6545 21.0909C14.683 20.515 14.2844 20.0046 13.7734 19.9707C13.4169 19.9473 13.093 20.0711 12.7863 20.2484C12.7345 20.2825 12.6802 20.3125 12.6241 20.3383C12.5684 20.3613 12.5065 20.3629 12.4497 20.343C12.3929 20.3231 12.345 20.2829 12.3146 20.2297C12.2525 20.1126 12.267 20.0011 12.3581 19.9078C12.7707 19.4843 13.8101 19.3152 14.3297 19.5859C14.9603 19.9133 15.2994 20.7196 15.1189 21.467C14.9868 22.0139 14.6958 22.4743 14.3636 22.9106C14.0548 23.3124 13.7209 23.693 13.364 24.0501C13.3071 24.1066 13.2501 24.1605 13.2846 24.2506C13.319 24.3407 13.4002 24.3363 13.477 24.3363C13.9988 24.3363 14.5207 24.3363 15.0429 24.3363C15.0949 24.335 15.147 24.338 15.1986 24.3451C15.3313 24.3671 15.4161 24.4639 15.4198 24.5907C15.4237 24.6516 15.4059 24.7118 15.3697 24.7603C15.3336 24.8087 15.2816 24.842 15.2234 24.854L15.2202 24.8543ZM12.5358 16.8201C9.6774 16.8175 7.34884 19.187 7.32578 22.1014C7.30385 25.0229 9.58402 27.4053 12.365 27.4823C15.315 27.5639 17.7105 25.1142 17.698 22.1445C17.7148 19.2332 15.376 16.8224 12.5389 16.8198L12.5358 16.8201ZM10.9984 22.1544C10.9984 22.9348 10.9984 23.7147 10.9984 24.4941C11.0003 24.5523 10.9949 24.6105 10.9825 24.6673C10.9492 24.7973 10.8578 24.8634 10.7308 24.8611C10.6038 24.8587 10.5272 24.7826 10.4956 24.6632C10.4832 24.6013 10.4786 24.5379 10.482 24.4748C10.482 23.2414 10.482 22.008 10.482 20.7746C10.482 20.7357 10.482 20.6967 10.482 20.6575C10.482 20.6183 10.4726 20.5888 10.4347 20.5768C10.3968 20.5648 10.3715 20.5847 10.3493 20.6128C10.2639 20.7222 10.1765 20.8328 10.0874 20.9405C9.96837 21.0845 9.82061 21.1091 9.70246 21.0081C9.58431 20.9072 9.57861 20.7506 9.69278 20.6063C9.96476 20.262 10.2378 19.9185 10.5119 19.5759C10.5916 19.4758 10.6858 19.4065 10.8196 19.4562C10.9534 19.506 11.0007 19.6169 11.0004 19.7559C11.0017 20.5552 11.0025 21.3546 11.0027 22.1541L10.9984 22.1544ZM15.2191 24.8543C15.1682 24.8653 15.1162 24.8701 15.0642 24.8687C14.6326 24.8687 14.201 24.8687 13.7691 24.8687C13.3326 24.8687 12.896 24.8687 12.4595 24.8687C12.3741 24.8687 12.2887 24.8619 12.2161 24.8057C12.0769 24.6966 12.0806 24.5093 12.2315 24.3808C12.5469 24.115 12.8491 23.8329 13.1368 23.5357C13.5738 23.08 13.9869 22.6036 14.3149 22.0567C14.4928 21.7599 14.6366 21.448 14.6534 21.0909C14.6819 20.515 14.2833 20.0046 13.7723 19.9707C13.4158 19.9473 13.0918 20.0711 12.7852 20.2484C12.7333 20.2825 12.6791 20.3125 12.6229 20.3383C12.5672 20.3613 12.5054 20.3629 12.4486 20.343C12.3918 20.3231 12.3438 20.2829 12.3134 20.2297C12.2514 20.1126 12.2659 20.0011 12.357 19.9078C12.7695 19.4843 13.809 19.3152 14.3286 19.5859C14.9592 19.9133 15.2983 20.7196 15.1178 21.467C14.9857 22.0139 14.6947 22.4743 14.3624 22.9106C14.0537 23.3124 13.7198 23.693 13.3629 24.0501C13.3059 24.1066 13.249 24.1605 13.2834 24.2506C13.3179 24.3407 13.399 24.3363 13.4759 24.3363C13.9976 24.3363 14.5196 24.3363 15.0417 24.3363C15.0938 24.335 15.1459 24.338 15.1975 24.3451C15.3301 24.3671 15.415 24.4639 15.4187 24.5907C15.4226 24.6514 15.4049 24.7115 15.369 24.76C15.3331 24.8084 15.2814 24.8418 15.2234 24.854L15.2191 24.8543ZM12.5347 16.8201C9.67626 16.8175 7.3477 19.187 7.32464 22.1014C7.30271 25.0229 9.58288 27.4053 12.3638 27.4823C15.3139 27.5639 17.7094 25.1142 17.6969 22.1445C17.7148 19.2332 15.376 16.8224 12.5389 16.8198L12.5347 16.8201ZM10.9973 22.1544C10.9973 22.9348 10.9973 23.7147 10.9973 24.4941C10.9992 24.5523 10.9938 24.6105 10.9813 24.6673C10.948 24.7973 10.8566 24.8634 10.7297 24.8611C10.6027 24.8587 10.5261 24.7826 10.4945 24.6632C10.4821 24.6013 10.4775 24.5379 10.4808 24.4748C10.4808 23.2414 10.4808 22.008 10.4808 20.7746C10.4808 20.7357 10.4808 20.6967 10.4808 20.6575C10.4808 20.6183 10.4714 20.5888 10.4336 20.5768C10.3957 20.5648 10.3704 20.5847 10.3482 20.6128C10.2627 20.7222 10.1753 20.8328 10.0862 20.9405C9.96723 21.0845 9.81947 21.1091 9.70132 21.0081C9.58317 20.9072 9.57747 20.7506 9.69164 20.6063C9.96362 20.262 10.2366 19.9185 10.5107 19.5759C10.5904 19.4758 10.6847 19.4065 10.8185 19.4562C10.9523 19.506 10.9996 19.6169 10.9993 19.7559C11.0014 20.5552 11.0025 21.3546 11.0027 22.1541L10.9973 22.1544ZM15.218 24.8543C15.1671 24.8653 15.1151 24.8701 15.0631 24.8687C14.6315 24.8687 14.1999 24.8687 13.768 24.8687C13.3314 24.8687 12.8949 24.8687 12.4584 24.8687C12.3729 24.8687 12.2875 24.8619 12.2149 24.8057C12.0757 24.6966 12.0794 24.5093 12.2303 24.3808C12.5458 24.115 12.848 23.8329 13.1357 23.5357C13.5727 23.08 13.9858 22.6036 14.3138 22.0567C14.4917 21.7599 14.6355 21.448 14.6523 21.0909C14.6807 20.515 14.2822 20.0046 13.7711 19.9707C13.4147 19.9473 13.0907 20.0711 12.7841 20.2484C12.7322 20.2825 12.678 20.3125 12.6218 20.3383C12.5661 20.3613 12.5042 20.3629 12.4474 20.343C12.3906 20.3231 12.3427 20.2829 12.3123 20.2297C12.2502 20.1126 12.2648 20.0011 12.3559 19.9078C12.7684 19.4843 13.8078 19.3152 14.3274 19.5859C14.958 19.9133 15.2971 20.7196 15.1166 21.467C14.9845 22.0139 14.6935 22.4743 14.3613 22.9106C14.0526 23.3124 13.7187 23.693 13.3617 24.0501C13.3048 24.1066 13.2478 24.1605 13.2823 24.2506C13.3167 24.3407 13.3979 24.3363 13.4747 24.3363C13.9965 24.3363 14.5185 24.3363 15.0406 24.3363C15.0927 24.335 15.1447 24.338 15.1963 24.3451C15.329 24.3671 15.4138 24.4639 15.4175 24.5907C15.4215 24.6512 15.404 24.7112 15.3683 24.7596C15.3327 24.808 15.2812 24.8415 15.2234 24.854L15.218 24.8543Z" fill=""/>
<path id="Vector_3" d="M33.9359 24.0325C33.9282 24.1855 33.9128 24.338 33.8895 24.4893V24.4869C33.8647 24.5548 33.9006 24.6303 33.8627 24.6965L33.8553 24.7047L33.8604 24.7143C33.8493 24.7752 33.8676 24.8407 33.8348 24.8987C33.8146 25.0564 33.8029 25.2159 33.74 25.3646C33.7078 25.3994 33.7215 25.4418 33.7209 25.4816C33.7041 25.5287 33.7315 25.5858 33.6893 25.628C33.6697 25.6961 33.6731 25.7722 33.6264 25.8328C33.5962 25.8621 33.6076 25.903 33.6053 25.9396C33.5917 26.0043 33.594 26.0745 33.543 26.126C33.488 26.2899 33.4331 26.4537 33.3784 26.6174C33.3671 26.6705 33.3479 26.7215 33.3215 26.7687C33.3198 26.772 33.3183 26.7754 33.3169 26.7789C33.3171 26.7801 33.3171 26.7813 33.3169 26.7824C33.2916 26.8468 33.2947 26.9249 33.2315 26.9718C33.2071 26.9835 33.2082 27.0051 33.2108 27.0277C33.1911 27.0681 33.1977 27.1225 33.1507 27.1488C33.0963 27.2053 33.1088 27.2925 33.0616 27.3522C33.0313 27.4483 32.9836 27.5377 32.9209 27.6156C32.8904 27.6426 32.8712 27.6806 32.8671 27.7218C32.8671 27.7259 32.8648 27.7297 32.8634 27.7338C32.8537 27.7683 32.8449 27.8035 32.8065 27.8198C32.7384 27.9284 32.6564 28.0288 32.6149 28.1535C32.5898 28.2029 32.5668 28.2541 32.5206 28.2881C32.4922 28.3071 32.466 28.3276 32.4683 28.368C32.4636 28.4017 32.4507 28.4337 32.4308 28.461C32.4109 28.4883 32.3846 28.5099 32.3544 28.524C32.3259 28.5289 32.3259 28.5515 32.3259 28.574C32.3074 28.6237 32.2746 28.6664 32.232 28.6966C32.2257 28.7057 32.2194 28.7148 32.2129 28.7235C32.1927 28.7894 32.1605 28.8453 32.0953 28.8737C32.0453 28.9079 32.0066 28.9568 31.9843 29.0141C31.9803 29.0504 31.9541 29.0659 31.9259 29.0794C31.9125 29.0833 31.9005 29.091 31.8913 29.1018C31.8821 29.1125 31.8761 29.1258 31.8741 29.14C31.8131 29.2755 31.7118 29.3876 31.5848 29.4601C31.5485 29.4778 31.5193 29.5079 31.5023 29.5453C31.4697 29.6079 31.4195 29.6589 31.3582 29.6916C31.3513 29.7128 31.3394 29.7319 31.3235 29.7472C31.3077 29.7625 31.2884 29.7736 31.2674 29.7794L31.2443 29.8013C31.2341 29.8669 31.1712 29.8686 31.1322 29.8991L31.0166 30.0053C30.9736 30.0516 30.9331 30.1013 30.8742 30.1291H30.8728C30.8402 30.1656 30.8017 30.1959 30.7589 30.2187C30.7464 30.2209 30.7347 30.2263 30.7248 30.2344C30.7148 30.2424 30.707 30.2529 30.702 30.2649C30.6818 30.3351 30.6183 30.3445 30.5647 30.3673C30.5331 30.3673 30.5192 30.3925 30.503 30.4144C30.4939 30.4651 30.4514 30.4689 30.4147 30.4809C30.3478 30.5051 30.3034 30.5608 30.251 30.6052C30.2183 30.619 30.1941 30.6494 30.1585 30.6567C30.0685 30.7217 29.9612 30.7592 29.8812 30.8402C29.8526 30.8624 29.8206 30.8794 29.7864 30.8903L29.2545 31.1882C29.2158 31.2289 29.158 31.2207 29.1122 31.2452C29.0479 31.333 28.9445 31.331 28.856 31.3623C28.799 31.4156 28.7219 31.4188 28.6538 31.4442C28.6078 31.4735 28.5568 31.4933 28.5035 31.5028C28.4671 31.4873 28.4602 31.537 28.4312 31.5376C28.3756 31.5628 28.3169 31.58 28.2567 31.5888C28.1997 31.6418 28.1234 31.6274 28.0574 31.6506C27.9882 31.6521 27.9202 31.6692 27.8581 31.7006C27.7559 31.7735 27.636 31.779 27.5184 31.7945C27.4288 31.8325 27.333 31.8529 27.236 31.8548C27.1791 31.8548 27.1164 31.8387 27.0652 31.8841C27.0216 31.9154 26.9684 31.8855 26.9229 31.9063C26.922 31.9061 26.9211 31.9061 26.9203 31.9063C26.7344 31.954 26.5439 31.9581 26.3543 31.9695L26.3258 31.9713C26.2057 32.0061 26.0818 31.9771 25.9603 31.9859C25.9349 31.9876 25.9097 31.9913 25.8848 31.997H25.5682C25.5401 31.9908 25.5116 31.9871 25.4828 31.9859C25.3556 31.9795 25.2266 32.0108 25.1008 31.9707L25.0501 31.9678C24.8776 31.9567 24.7042 31.9499 24.5348 31.9092L24.5302 31.9069C24.4858 31.8861 24.4329 31.9174 24.3904 31.8841L24.3799 31.8768L24.3677 31.8812C24.2199 31.8739 24.074 31.8443 23.9346 31.7934L23.9284 31.7872L23.9207 31.7913C23.8894 31.7746 23.8504 31.7913 23.8207 31.767L23.8111 31.7594L23.7997 31.7632C23.7228 31.7445 23.6417 31.743 23.5719 31.7015C23.5434 31.6854 23.5062 31.7082 23.4822 31.6772C23.4481 31.6546 23.4002 31.6813 23.3701 31.6441C23.31 31.6365 23.2517 31.6184 23.1975 31.5906C23.1674 31.5794 23.1284 31.5976 23.1056 31.5613C23.0227 31.5297 22.9311 31.5244 22.8556 31.4709L22.7107 31.415C22.6688 31.3857 22.6148 31.3857 22.5738 31.3532C22.4855 31.3242 22.3997 31.2875 22.3175 31.2435L22.2518 31.211C22.1351 31.167 22.0236 31.1097 21.9192 31.0404C21.895 31.0328 21.8671 31.0334 21.8526 31.0062C21.8241 30.9769 21.7743 30.9851 21.7478 30.95C21.7105 30.941 21.6771 30.9196 21.6528 30.8891C21.6032 30.8522 21.5372 30.8472 21.4916 30.8013L21.2271 30.6257C21.1702 30.5921 21.1104 30.5637 21.0643 30.5136L20.89 30.3919C20.8449 30.3775 20.8061 30.3474 20.7801 30.3067L20.7448 30.2745C20.7218 30.2508 20.6879 30.2424 20.6663 30.2178L20.4892 30.0697C20.4553 30.038 20.4193 30.0086 20.3816 29.9819L20.0365 29.66C19.9539 29.5901 19.8623 29.5263 19.8674 29.3966C19.8674 29.377 19.8674 29.3574 19.8674 29.3381C19.8674 29.1678 19.9705 29.0694 20.0952 28.9869C20.5242 28.5149 20.8809 27.9878 21.2055 27.4359C21.3031 27.2691 21.394 27.0976 21.4834 26.9261C21.61 26.6841 21.8031 26.6557 21.9796 26.8614C22.6985 27.6981 23.5833 28.2506 24.6427 28.5002C27.408 29.1511 30.1707 27.2232 30.606 24.3409C31.0143 21.6395 29.3067 19.0973 26.7019 18.5594C25.2736 18.2645 23.9642 18.5843 22.7813 19.4564C22.7244 19.4988 22.6728 19.5509 22.6031 19.5749C22.4456 19.6291 22.3124 19.5457 22.2575 19.3481C22.0516 18.6025 21.7664 17.8824 21.4071 17.201C21.3413 17.0769 21.2715 16.9555 21.2046 16.832C21.1107 16.6584 21.1397 16.527 21.3026 16.4202C22.2421 15.7983 23.2973 15.3842 24.401 15.2043C25.6746 14.9903 26.9793 15.0879 28.2094 15.489C28.2281 15.4937 28.2472 15.4969 28.2664 15.4984C28.325 15.5148 28.3859 15.5244 28.4397 15.5569C28.4487 15.5694 28.461 15.579 28.4751 15.5845C28.4893 15.59 28.5047 15.5912 28.5195 15.5879C28.6063 15.5906 28.676 15.6409 28.7518 15.6757C28.797 15.7 28.8656 15.6705 28.8918 15.7369L28.8995 15.7404C28.9456 15.7589 28.9997 15.7577 29.0339 15.803C29.1079 15.8443 29.1763 15.8961 29.2634 15.9087C29.3411 15.9461 29.4296 15.9619 29.4911 16.0307C29.538 16.0747 29.5962 16.104 29.6588 16.115C29.8165 16.1533 29.9393 16.2525 30.0574 16.3582L30.0859 16.3769C30.1719 16.4102 30.2497 16.4627 30.3136 16.5306L30.6268 16.7579C30.6553 16.7799 30.6983 16.7828 30.7122 16.8247C30.7552 16.8887 30.821 16.9233 30.883 16.9628L30.8921 16.9704C30.9383 17.0067 31.006 17.0149 31.0262 17.0851C31.0261 17.0888 31.0268 17.0924 31.0282 17.0958C31.0297 17.0991 31.0319 17.102 31.0347 17.1043C31.0374 17.1066 31.0407 17.1083 31.0442 17.109C31.0477 17.1098 31.0513 17.1097 31.0547 17.1088C31.0946 17.1381 31.1638 17.1334 31.1669 17.2074L31.1897 17.2285C31.3556 17.3309 31.4641 17.4954 31.6002 17.63L31.6025 17.6324C31.6476 17.6639 31.6848 17.706 31.7109 17.7553C31.7109 17.7725 31.7175 17.7825 31.7351 17.7828C31.7616 17.7943 31.7855 17.8112 31.8055 17.8324C31.8255 17.8536 31.8412 17.8787 31.8516 17.9063C31.8581 17.9147 31.865 17.9229 31.8715 17.9311C31.9794 18.0037 32.0503 18.1067 32.1098 18.2238C32.1089 18.2272 32.1088 18.2308 32.1094 18.2343C32.1101 18.2378 32.1115 18.2411 32.1136 18.2439C32.1157 18.2467 32.1184 18.249 32.1215 18.2506C32.1246 18.2522 32.128 18.253 32.1315 18.253C32.1975 18.2612 32.1949 18.3274 32.2231 18.3678C32.2823 18.4 32.3111 18.4556 32.3336 18.5164C32.3652 18.5527 32.4028 18.5846 32.4162 18.6335C32.4868 18.668 32.5053 18.74 32.5326 18.8053C32.6026 18.8852 32.6602 18.9757 32.7034 19.0736C32.7342 19.1837 32.8028 19.2709 32.866 19.3616C32.9295 19.4002 32.9477 19.4655 32.9616 19.5334C32.995 19.5788 33.0217 19.6291 33.0408 19.6826C33.0778 19.7212 33.0758 19.7786 33.1048 19.821C33.1307 19.8561 33.1501 19.8958 33.1618 19.9381C33.1852 19.9761 33.2033 20.0173 33.2156 20.0604C33.213 20.0829 33.2108 20.1052 33.2352 20.1189C33.2976 20.2301 33.3776 20.3334 33.3839 20.4701C33.4231 20.4877 33.395 20.5319 33.4152 20.5579C33.412 20.6135 33.4408 20.6583 33.4627 20.7042C33.5382 20.7762 33.5376 20.8766 33.5564 20.97C33.5564 20.9992 33.549 21.0311 33.5743 21.0557C33.6199 21.1166 33.6313 21.1891 33.6412 21.2629C33.6389 21.2922 33.6341 21.324 33.6589 21.3483C33.7158 21.42 33.7041 21.511 33.7255 21.5924L33.7215 21.6009L33.7283 21.6073C33.7699 21.6904 33.7745 21.7829 33.7833 21.8722C33.8172 21.9111 33.7873 21.9635 33.8052 22.0059C33.807 22.0102 33.8093 22.0142 33.812 22.0179V22.0162C33.8493 22.0644 33.8152 22.1256 33.8385 22.1762L33.8428 22.2192C33.8713 22.2631 33.8428 22.3161 33.8624 22.3612C33.8635 22.3639 33.8648 22.3664 33.8664 22.3688V22.3702C33.9244 22.7307 33.9502 23.0959 33.9436 23.4612C33.933 23.6637 33.9441 23.8481 33.9359 24.0325Z" fill=""/>
<path id="Vector_4" d="M17.1626 5.21737L17.1562 5.21094L17.162 5.21562L17.1626 5.21737Z" fill=""/>
<path id="Vector_5" d="M23.0623 10.3795C23.0472 10.9355 22.6015 11.3853 22.0712 11.3768C21.9392 11.3748 21.8089 11.3457 21.688 11.2913C21.5671 11.2369 21.4579 11.1581 21.3669 11.0598C21.276 10.9614 21.205 10.8454 21.1582 10.7185C21.1114 10.5916 21.0897 10.4563 21.0944 10.3207C21.1083 9.76934 21.568 9.33535 22.1213 9.35203C22.6476 9.36783 23.0768 9.83635 23.0623 10.3795Z" fill=""/>
<path id="Vector_6" d="M22.1523 6.17188C20.0956 6.17041 18.4395 7.85107 18.4375 9.94142C18.4358 12.0274 20.103 13.7575 22.0976 13.7396C24.1833 13.7209 25.8016 12.0569 25.8016 9.93117C25.8024 7.87564 24.15 6.17305 22.1523 6.17188ZM22.3946 11.867C22.1958 11.9109 21.9905 11.9129 21.7911 11.8728C21.5916 11.8328 21.4021 11.7515 21.234 11.634C21.066 11.5165 20.9229 11.3652 20.8134 11.1892C20.7039 11.0132 20.6302 10.8162 20.597 10.6101C20.5685 10.4298 20.5787 10.2507 20.5782 10.0968C20.6066 9.59785 20.6471 9.12816 20.8233 8.68246C21.1649 7.81712 21.959 7.29533 22.8657 7.34333C23.0232 7.35152 23.1334 7.46039 23.1331 7.60671C23.1328 7.75303 23.0192 7.87008 22.8501 7.86833C22.4341 7.86833 22.0529 7.9652 21.7286 8.25052C21.5487 8.41064 21.4067 8.6108 21.3133 8.83581C21.2933 8.88263 21.2546 8.93413 21.3007 8.98447C21.3469 9.0348 21.3973 8.98886 21.4417 8.96838C22.2918 8.57711 23.2578 9.03042 23.5131 9.94083C23.569 10.1428 23.5841 10.3544 23.5576 10.5627C23.531 10.7709 23.4633 10.9713 23.3587 11.1517C23.254 11.3321 23.1146 11.4886 22.949 11.6116C22.7835 11.7346 22.5952 11.8215 22.3957 11.867H22.3946Z" fill=""/>
<path id="Vector_7" d="M28.9976 9.67479C28.9976 9.64347 28.9948 9.61187 28.9928 9.58056C28.9908 9.54924 28.9894 9.52612 28.9874 9.49891C28.9854 9.47169 28.9837 9.44886 28.9817 9.4237C28.978 9.3757 28.9734 9.32742 28.9686 9.27943C28.9626 9.21914 28.9558 9.15915 28.9481 9.09887C28.9459 9.08196 28.9419 9.06537 28.9361 9.04941L28.9301 9.04239C28.9235 9.03337 28.9179 9.02354 28.9136 9.01312C28.9113 9.00727 28.9094 9.00142 28.9074 8.99556C28.898 8.96396 28.896 8.92942 28.8843 8.8984C28.8823 8.89744 28.8806 8.89599 28.8792 8.89417C28.8779 8.89236 28.877 8.89024 28.8766 8.88799C28.8763 8.88575 28.8764 8.88344 28.8771 8.88128C28.8778 8.87912 28.879 8.87716 28.8806 8.87558C28.8706 8.81459 28.8644 8.75302 28.8621 8.69122C28.8621 8.68097 28.8621 8.67073 28.8598 8.66049C28.8581 8.63649 28.8561 8.61279 28.8533 8.58879C28.8422 8.54753 28.8328 8.50626 28.8225 8.4647C28.818 8.44949 28.8143 8.43544 28.8109 8.41847C28.8016 8.36347 28.7893 8.30904 28.7741 8.25547C28.7741 8.25254 28.7724 8.24991 28.7713 8.24698C28.7674 8.23413 28.7629 8.22153 28.7576 8.20923C28.7511 8.19313 28.7454 8.17704 28.74 8.16065C28.7281 8.12567 28.7186 8.08988 28.7115 8.05355L28.7089 8.04009C28.7061 8.0274 28.7023 8.01497 28.6975 8.00292C28.6927 7.98975 28.6879 7.97658 28.6836 7.96341C28.6725 7.93093 28.6625 7.89903 28.6551 7.86596C28.6543 7.86366 28.6537 7.86131 28.6531 7.85893C28.6496 7.84658 28.6453 7.83446 28.6403 7.82265C28.6369 7.81387 28.6335 7.80509 28.6306 7.79602C28.6278 7.78695 28.6249 7.77963 28.6224 7.77143C28.6141 7.74597 28.6067 7.72022 28.5993 7.69447L28.595 7.68101C28.595 7.68101 28.595 7.67867 28.595 7.6775C28.5928 7.67106 28.5902 7.66462 28.5874 7.65818C28.5814 7.64677 28.576 7.63506 28.5711 7.62335C28.5478 7.56834 28.5336 7.50952 28.5091 7.45508C28.5091 7.45099 28.5057 7.44719 28.5039 7.44338C28.4931 7.42612 28.4732 7.42085 28.4598 7.40709C28.4313 7.36203 28.3975 7.3193 28.4029 7.26077C28.4074 7.25639 28.4108 7.25098 28.4128 7.24497C28.4148 7.23896 28.4154 7.23254 28.4145 7.22624C28.4107 7.21224 28.4058 7.19854 28.4 7.18527C28.3941 7.17034 28.3872 7.156 28.3804 7.14079L28.3718 7.12089C28.3667 7.10915 28.3609 7.09772 28.3545 7.08665C28.3499 7.07787 28.3454 7.06909 28.3411 7.06031C28.326 7.03104 28.3126 7.00179 28.2984 6.97077L28.2881 6.94765C28.2827 6.93565 28.277 6.92394 28.2705 6.91253L28.2662 6.90521C28.2483 6.87127 28.2318 6.83673 28.2158 6.80162C28.2081 6.78552 28.2007 6.76913 28.1931 6.75274C28.1347 6.65646 28.1011 6.54263 28.0054 6.47269C27.9661 6.43154 27.9368 6.3814 27.92 6.32636C27.916 6.3018 27.9087 6.27795 27.8981 6.25554C27.8736 6.20052 27.8352 6.15253 27.8064 6.09927L27.7967 6.08435C27.793 6.07849 27.7891 6.07264 27.7848 6.06708L27.7765 6.05567C27.772 6.04894 27.7669 6.04192 27.762 6.03519C27.7412 6.00592 27.7199 5.97666 27.6994 5.94739C27.6903 5.93452 27.6809 5.92164 27.6709 5.90847L27.6538 5.88359C27.6254 5.86194 27.6254 5.81892 27.5929 5.80253C27.5644 5.81628 27.5513 5.80546 27.5465 5.77678C27.5377 5.75483 27.5283 5.73318 27.518 5.71211C27.5135 5.70303 27.5086 5.69396 27.5038 5.68489C27.4964 5.67142 27.4884 5.65826 27.4799 5.64538C27.4532 5.6116 27.4246 5.57936 27.3945 5.54881C27.391 5.5453 27.3876 5.54179 27.3845 5.53798C27.3634 5.51204 27.3436 5.48498 27.3253 5.45692C27.3195 5.44841 27.3133 5.4402 27.3068 5.43234C27.2783 5.40015 27.2467 5.36913 27.2174 5.33694L27.2114 5.33079L27.1829 5.30328C27.171 5.29129 27.1596 5.279 27.1479 5.267C27.1277 5.24622 27.1078 5.22514 27.0873 5.20466L27.0688 5.18593C27.0571 5.17452 27.0451 5.16281 27.0332 5.15169C27.0046 5.12429 26.9745 5.0985 26.9432 5.07443C26.8908 4.98196 26.8031 4.92284 26.736 4.84441L26.7251 4.83125C26.7209 4.82656 26.7163 4.82188 26.7118 4.81749L26.6975 4.80462C26.6887 4.79642 26.6793 4.78881 26.669 4.78121C26.6269 4.75177 26.5869 4.71909 26.5495 4.68346C26.5461 4.68024 26.5429 4.67644 26.5398 4.67293C26.5114 4.63929 26.4771 4.6114 26.4387 4.59069H26.4359C26.4324 4.58986 26.4291 4.58859 26.4259 4.58689C26.3935 4.57203 26.3652 4.5491 26.3436 4.52017C26.342 4.51845 26.3404 4.51659 26.3391 4.5146C26.3345 4.50934 26.33 4.50378 26.3257 4.49822C26.2636 4.44379 26.195 4.39784 26.1327 4.34371L26.1284 4.34019C26.1233 4.33551 26.1181 4.33141 26.1127 4.32702C26.0205 4.25357 25.9078 4.20996 25.8169 4.13446C25.8121 4.13078 25.8076 4.12677 25.8033 4.12247C25.7992 4.11919 25.7953 4.11567 25.7916 4.11193C25.6865 4.03489 25.5746 3.96808 25.4574 3.91235C25.4497 3.90855 25.442 3.90444 25.4346 3.90005C25.4018 3.8822 25.3705 3.86172 25.3386 3.84152L25.3301 3.83626L25.3153 3.82777L25.2982 3.81928L25.2931 3.81665L25.282 3.81139L25.2632 3.80144L25.2515 3.79529C25.2473 3.79257 25.2429 3.79012 25.2384 3.78798C25.2327 3.78446 25.2268 3.78154 25.2208 3.77861L25.1949 3.76544C25.1798 3.75783 25.1647 3.74993 25.1493 3.74261L25.1268 3.73237C25.0978 3.72276 25.0693 3.71163 25.0414 3.69901L25.0001 3.67882C24.9754 3.66682 24.9506 3.65453 24.9264 3.64136C24.9187 3.63757 24.9112 3.63336 24.9039 3.62877C24.9009 3.62744 24.8981 3.62588 24.8954 3.62409L24.8897 3.62088C24.8804 3.61546 24.8709 3.61057 24.8612 3.60625L24.8546 3.60302L24.8387 3.59629C24.7598 3.56293 24.6796 3.53367 24.6013 3.49943C24.5893 3.49445 24.5773 3.48889 24.5654 3.48333L24.5495 3.47601C24.5377 3.47016 24.5255 3.46526 24.513 3.46138C24.5063 3.45853 24.4993 3.45637 24.4922 3.45494C24.4795 3.45263 24.4667 3.45107 24.4538 3.45026C24.4289 3.45051 24.4042 3.44553 24.3812 3.43563C24.3775 3.43415 24.3741 3.43218 24.3709 3.42978C24.3631 3.42445 24.3562 3.41782 24.3504 3.41017C24.2961 3.3809 24.2366 3.36803 24.1796 3.34432C24.164 3.33876 24.1483 3.33379 24.1324 3.32911C24.0823 3.31389 24.0313 3.3016 23.9812 3.28638C23.9527 3.2776 23.9242 3.26824 23.8958 3.25712C23.7759 3.21732 23.6495 3.22083 23.5257 3.19859C23.5241 3.20022 23.5222 3.20143 23.5201 3.20212C23.5179 3.20282 23.5157 3.20296 23.5135 3.20256C23.5113 3.20216 23.5093 3.20122 23.5075 3.19981C23.5058 3.1984 23.5044 3.19658 23.5035 3.19449C23.1608 3.06491 22.7939 3.01737 22.4307 3.05549C22.4071 3.05812 22.3834 3.06836 22.3624 3.05315C22.2684 2.98642 22.1605 2.99696 22.0589 3.00866C21.7995 3.03793 21.537 3.02476 21.2797 3.07071C21.0906 3.10465 20.8916 3.09441 20.7188 3.20152C20.5087 3.24512 20.2946 3.26824 20.0905 3.33906C19.6663 3.48538 19.2386 3.62585 18.8663 3.89215L18.7048 3.98902C18.6692 3.99876 18.6367 4.01794 18.6106 4.04462C18.5767 4.05955 18.5388 4.05779 18.5047 4.07886C18.0566 4.35424 17.6594 4.69692 17.2776 5.05951C17.2312 5.10341 17.1711 5.14379 17.166 5.22046C16.7711 5.57573 16.4827 6.01733 16.2083 6.47064L16.1946 6.49434C16.1821 6.5157 16.1699 6.53736 16.1576 6.55901L16.1516 6.56926C16.1454 6.57974 16.1398 6.59058 16.1348 6.60174L16.1314 6.60906C16.125 6.62341 16.1172 6.63713 16.1084 6.65003C16.0987 6.6643 16.0872 6.67719 16.0742 6.68836C16.0458 6.71056 16.027 6.74318 16.0215 6.77938C16.0214 6.78093 16.0214 6.7825 16.0215 6.78406C16.0215 6.78786 16.0195 6.79196 16.0187 6.79577C16.0107 6.83381 16.0133 6.87419 15.9902 6.90872C15.9333 7.03631 15.8763 7.16371 15.8194 7.29092C15.771 7.3512 15.7653 7.42933 15.7388 7.49898C15.7389 7.49966 15.7389 7.50035 15.7388 7.50103C15.6894 7.60258 15.6512 7.70947 15.6249 7.81972C15.5848 7.86889 15.5928 7.93678 15.5651 7.98974C15.5407 8.09919 15.4829 8.19928 15.4797 8.31458C15.4564 8.38101 15.4487 8.45212 15.4228 8.51797C15.4228 8.53787 15.4208 8.55777 15.4197 8.57796C15.3912 8.60576 15.4108 8.64469 15.3986 8.67629L15.4032 8.68682L15.3952 8.69473C15.3596 8.78983 15.3593 8.89168 15.3414 8.9903C15.2952 9.05205 15.3414 9.12784 15.3129 9.19251L15.3069 9.25104C15.2785 9.31864 15.3089 9.39297 15.2867 9.46145C15.2867 9.46525 15.2841 9.46877 15.2827 9.47257L15.2876 9.47842L15.2833 9.48457C15.2715 9.52661 15.2645 9.56992 15.2625 9.61362C15.2565 9.71429 15.2688 9.81613 15.2605 9.91739C15.2372 10.1916 15.256 10.4673 15.285 10.7412C15.2859 10.7434 15.2866 10.7456 15.2873 10.7479C15.3086 10.8228 15.2725 10.9039 15.3083 10.9768L15.3126 11.0248C15.3185 11.0492 15.3227 11.074 15.3251 11.0991C15.3417 11.2454 15.3172 11.3967 15.3977 11.5301V11.5278C15.3994 11.5307 15.4012 11.5337 15.4026 11.5366C15.4177 11.572 15.3915 11.6165 15.4219 11.6484C15.4621 12.0022 15.5828 12.2667 15.9563 12.3984C16.9038 12.7326 17.7716 13.2304 18.5733 13.8491C19.2906 14.4034 19.934 15.052 20.4871 15.7785C20.673 16.0219 20.891 16.0632 21.149 15.9057C21.198 15.8765 21.2463 15.8452 21.2953 15.8159C23.0605 14.7624 24.9566 14.3904 26.9748 14.6746C27.2202 14.7091 27.3947 14.6407 27.5417 14.4405C27.7586 14.1443 27.9502 13.8321 28.1395 13.5178C28.1851 13.4691 28.2167 13.4083 28.2306 13.3422C28.2785 13.3164 28.2679 13.2614 28.2876 13.2213C28.285 13.1988 28.2836 13.1769 28.3084 13.1651C28.3553 13.1382 28.3559 13.0861 28.3718 13.0422C28.3921 12.9735 28.4054 12.9012 28.451 12.8429C28.5421 12.7844 28.5267 12.6799 28.5521 12.593C28.556 12.5785 28.5616 12.5646 28.5689 12.5515V12.5497C28.6358 12.4417 28.6474 12.3141 28.6844 12.1959C28.6827 12.1666 28.6768 12.1347 28.7029 12.111C28.7599 12.0505 28.7471 11.9682 28.7684 11.8965C28.7684 11.8597 28.761 11.8213 28.7867 11.7891C28.8524 11.661 28.8564 11.5181 28.8806 11.3794C28.9412 11.3209 28.9318 11.2366 28.9506 11.1626L28.9523 11.1439C28.9525 11.1417 28.9525 11.1396 28.9523 11.1374C28.9672 10.9917 28.9792 10.8454 28.9885 10.6985C28.9945 10.6063 28.9993 10.5138 29.0025 10.4216C29.0025 10.4105 29.0025 10.3994 29.0025 10.3883C29.0107 10.1524 29.0107 9.91358 28.9976 9.67479ZM22.1933 14.2672C19.9567 14.3357 18.015 12.4341 17.9165 10.11C17.8277 8.0155 19.4203 5.75395 21.9291 5.65094C24.3254 5.55261 26.2394 7.41793 26.3163 9.88345C26.3431 12.2422 24.5486 14.1967 22.1938 14.2672H22.1933Z" fill=""/>
<path id="Vector_8" d="M30.1348 23.2947C30.0104 21.4083 29.0674 20.0405 27.3638 19.3367C25.6342 18.6221 24.0453 18.9917 22.6528 20.262C22.525 20.3791 22.4914 20.5099 22.5168 20.6796C22.5949 21.205 22.6302 21.7361 22.6221 22.2675C22.6071 23.4541 22.3953 24.6293 21.9957 25.7426C21.972 25.8012 21.9637 25.8652 21.9717 25.9281C21.9798 25.991 22.0039 26.0506 22.0416 26.1008C22.9421 27.404 24.1746 28.0616 25.6271 28.1139C25.9511 28.1049 26.1786 28.0932 26.4035 28.0554C28.6558 27.6887 30.2897 25.6393 30.1348 23.2947ZM27.1873 21.5046C26.7266 22.1727 26.2791 22.8493 25.9608 23.6058C25.6756 24.283 25.5257 25.0123 25.5201 25.7503C25.5201 25.8141 25.5201 25.8781 25.4882 25.9352C25.4267 26.0502 25.333 26.1076 25.2035 26.0754C25.0739 26.0432 25.007 25.9463 25.0062 25.8079C25.0041 25.3689 25.0493 24.931 25.1408 24.5021C25.343 23.5484 25.7828 22.7065 26.2979 21.8994C26.3497 21.818 26.4502 21.7431 26.3958 21.6281C26.3357 21.5011 26.2116 21.5529 26.1142 21.5523C25.5878 21.5479 25.0608 21.5502 24.5347 21.5499C24.4921 21.5508 24.4495 21.5491 24.4072 21.5447C24.2534 21.5251 24.1552 21.418 24.1586 21.2775C24.162 21.137 24.2645 21.029 24.4171 21.0185C24.5259 21.0109 24.6352 21.0162 24.7442 21.0162H25.7259C26.129 21.0162 26.5322 21.0176 26.9353 21.0162C27.0657 21.0162 27.1853 21.0364 27.2502 21.1678C27.314 21.2924 27.2596 21.3984 27.1873 21.5034V21.5046Z" fill=""/>
<path id="Vector_9" d="M12.5383 16.8203C9.67991 16.8177 7.35134 19.1872 7.32828 22.1016C7.30636 25.0231 9.58653 27.4055 12.3675 27.4825C15.3176 27.5641 17.713 25.1144 17.7005 22.1447C17.7142 19.2337 15.3754 16.8229 12.5383 16.8203ZM11.0009 22.1546C11.0009 22.935 11.0009 23.7149 11.0009 24.4943C11.0028 24.5525 10.9975 24.6107 10.985 24.6675C10.9517 24.7975 10.8603 24.8636 10.7333 24.8613C10.6063 24.8589 10.5297 24.7828 10.4981 24.6634C10.4857 24.6015 10.4811 24.5381 10.4845 24.475C10.4845 23.2416 10.4845 22.0082 10.4845 20.7748C10.4845 20.7359 10.4845 20.697 10.4845 20.6577C10.4845 20.6185 10.4751 20.589 10.4372 20.577C10.3993 20.565 10.374 20.5849 10.3518 20.613C10.2664 20.7224 10.179 20.833 10.0899 20.9407C9.97088 21.0847 9.82311 21.1093 9.70496 21.0083C9.58681 20.9074 9.58112 20.7508 9.69529 20.6065C9.96727 20.2622 10.2403 19.9187 10.5144 19.5761C10.5941 19.4761 10.6883 19.4067 10.8221 19.4564C10.9559 19.5062 11.0032 19.6171 11.0029 19.7561C11.0022 20.5556 11.0019 21.3551 11.0021 22.1546H11.0009ZM15.2216 24.8545C15.1707 24.8655 15.1187 24.8703 15.0667 24.8689C14.6351 24.8689 14.2035 24.8689 13.7716 24.8689C13.3351 24.8689 12.8986 24.8689 12.462 24.8689C12.3766 24.8689 12.2912 24.8622 12.2186 24.806C12.0794 24.6968 12.0831 24.5095 12.234 24.381C12.5494 24.1152 12.8516 23.8331 13.1393 23.5359C13.5763 23.0802 13.9894 22.6038 14.3174 22.0569C14.4953 21.7601 14.6391 21.4482 14.6559 21.0912C14.6844 20.5152 14.2858 20.0049 13.7748 19.9709C13.4183 19.9475 13.0943 20.0713 12.7877 20.2486C12.7359 20.2827 12.6816 20.3127 12.6254 20.3385C12.5697 20.3615 12.5079 20.3632 12.4511 20.3432C12.3943 20.3233 12.3463 20.2831 12.316 20.2299C12.2539 20.1128 12.2684 20.0013 12.3595 19.908C12.772 19.4845 13.8115 19.3154 14.3311 19.5861C14.9617 19.9135 15.3008 20.7198 15.1203 21.4672C14.9882 22.0141 14.6972 22.4745 14.3649 22.9108C14.0562 23.3126 13.7223 23.6932 13.3654 24.0504C13.3084 24.1068 13.2515 24.1607 13.2859 24.2508C13.3204 24.341 13.4015 24.3366 13.4784 24.3366C14.0002 24.3366 14.5221 24.3366 15.0442 24.3366C15.0963 24.3352 15.1484 24.3382 15.2 24.3453C15.3326 24.3673 15.4175 24.4642 15.4212 24.5909C15.425 24.6521 15.407 24.7127 15.3705 24.7613C15.3339 24.8098 15.2814 24.843 15.2228 24.8545H15.2216Z" fill=""/>
<path id="Vector_10" d="M23.0623 10.3795C23.0472 10.9355 22.6015 11.3853 22.0712 11.3768C21.9392 11.3748 21.8089 11.3457 21.688 11.2913C21.5671 11.2369 21.4579 11.1581 21.3669 11.0598C21.276 10.9614 21.205 10.8454 21.1582 10.7185C21.1114 10.5916 21.0897 10.4563 21.0944 10.3207C21.1083 9.76934 21.568 9.33535 22.1213 9.35203C22.6476 9.36783 23.0768 9.83635 23.0623 10.3795Z" fill=""/>
<path id="Vector_11" d="M22.1523 6.17188C20.0956 6.17041 18.4395 7.85107 18.4375 9.94142C18.4358 12.0274 20.103 13.7575 22.0976 13.7396C24.1833 13.7209 25.8016 12.0569 25.8016 9.93117C25.8024 7.87564 24.15 6.17305 22.1523 6.17188ZM22.3946 11.867C22.1958 11.9109 21.9905 11.9129 21.7911 11.8728C21.5916 11.8328 21.4021 11.7515 21.234 11.634C21.066 11.5165 20.9229 11.3652 20.8134 11.1892C20.7039 11.0132 20.6302 10.8162 20.597 10.6101C20.5685 10.4298 20.5787 10.2507 20.5782 10.0968C20.6066 9.59785 20.6471 9.12816 20.8233 8.68246C21.1649 7.81712 21.959 7.29533 22.8657 7.34333C23.0232 7.35152 23.1334 7.46039 23.1331 7.60671C23.1328 7.75303 23.0192 7.87008 22.8501 7.86833C22.4341 7.86833 22.0529 7.9652 21.7286 8.25052C21.5487 8.41064 21.4067 8.6108 21.3133 8.83581C21.2933 8.88263 21.2546 8.93413 21.3007 8.98447C21.3469 9.0348 21.3973 8.98886 21.4417 8.96838C22.2918 8.57711 23.2578 9.03042 23.5131 9.94083C23.569 10.1428 23.5841 10.3544 23.5576 10.5627C23.531 10.7709 23.4633 10.9713 23.3587 11.1517C23.254 11.3321 23.1146 11.4886 22.949 11.6116C22.7835 11.7346 22.5952 11.8215 22.3957 11.867H22.3946Z" fill=""/>
<path id="Vector_12" d="M23.0623 10.3795C23.0472 10.9355 22.6015 11.3853 22.0712 11.3768C21.9392 11.3748 21.8089 11.3457 21.688 11.2913C21.5671 11.2369 21.4579 11.1581 21.3669 11.0598C21.276 10.9614 21.205 10.8454 21.1582 10.7185C21.1114 10.5916 21.0897 10.4563 21.0944 10.3207C21.1083 9.76934 21.568 9.33535 22.1213 9.35203C22.6476 9.36783 23.0768 9.83635 23.0623 10.3795Z" fill=""/>
</g>
</g>
</svg>
