<svg width="20" height="22" viewBox="0 0 20 22" fill="none" xmlns="http://www.w3.org/2000/svg"> 
<g clip-path="url(#clip0_428_1436)">
<path fill-rule="evenodd" clip-rule="evenodd" d="M19.0733 20.7818H11.1743C10.4392 17.8086 6.54666 15.3633 1.91905 15.3633V0.015625H0.883789V21.6802H19.0319C19.4667 21.6802 19.7566 21.5413 19.7566 21.2912C19.7359 21.1447 19.6539 21.0107 19.5271 20.9161C19.4003 20.8216 19.2381 20.7736 19.0733 20.7818ZM1.96047 20.7818V16.0024C6.10151 16.0024 9.48682 18.0587 10.3461 20.7818H1.96047Z" fill="#565656"/>
<path fill-rule="evenodd" clip-rule="evenodd" d="M12.6762 3.92889L3.12075 0.0572346C2.84123 -0.0631758 2.69629 0.0572289 2.69629 0.196164V8.06915C2.69629 8.18956 2.84123 8.18957 3.12075 8.18957L12.6762 4.31789C12.9557 4.19748 12.9557 4.07708 12.6762 3.92889Z" fill="#D40000"/>
</g>
<defs>
<clipPath id="clip0_428_1436">
<rect width="18.8728" height="21.6831" fill="white" transform="translate(0.924805)"/>
</clipPath>
</defs>
</svg>
