<svg fill="none" height="28" viewBox="0 0 28 28" width="28" xmlns="http://www.w3.org/2000/svg"><g fill="#55b8ff"><path d="m23.3623 5.03956c-.0212-2.81792-2.2676-5.03252525-5.0916-5.03544689-4.4121-.00511287-8.8242-.00584328-13.23631 0-2.80132.00365205-5.0125025 2.16347689-5.0212886 4.95583689-.01903669 6.02295-.01537579 12.04515-.0014644 18.06815.0058575 2.5389 1.800433 4.5512 4.326453 4.9252.04246.0065.08273.0306.12373.0467h9.86828c.0403-.019.0784-.0416.1201-.0562.8816-.3032 1.1708-1.0796.6795-1.8699-.4898-.7874-.8589-1.623-1.0771-2.525-1.1334-4.6834 1.9974-9.3624 6.769-10.1016.4225-.0657.853-.0876 1.2814-.103.7761-.027 1.2615-.501 1.263-1.2797.0022-2.34165.0146-4.68334-.0037-7.02504zm-12.048 16.11354c-.1567.4982-.5975.8203-1.1678.8225-1.56251.0058-3.12498.0087-4.68672-.0008-.73071-.0043-1.21541-.482-1.21981-1.1642-.00439-.6932.48544-1.184 1.20883-1.2125.01831-.0007.03661-.0007.05492-.0007h2.27488c.78563 0 1.57125-.011 2.3569.0029.8984.0161 1.4358.7348 1.1788 1.5528zm.7666-5.1669c-1.1041.0168-2.209.0044-3.31386.0044v.0022c-1.09534 0-2.19141.0109-3.28675-.0037-.91889-.0116-1.45558-.7391-1.18028-1.5667.16547-.4967.60551-.8005 1.18028-.8013 1.99006-.0021 3.98086-.0007 5.97091-.0007.2006 0 .402-.0022.6026.0007.7161.011 1.2191.4894 1.2242 1.1629.0059.6551-.5067 1.1913-1.1971 1.2022zm2.9814-6.17122c-.0725.0095-.1457.01169-.2182.01169-3.1059.00073-6.21105.00146-9.31695 0-.61796 0-1.07192-.29217-1.22787-.7757-.26798-.82901.29946-1.59667 1.19272-1.5996 1.56174-.00511 3.12421-.00146 4.6859-.00146 1.5618 0 3.1243-.00219 4.686.00073.6531.00147 1.1158.34476 1.2359.90425.1508.70777-.3163 1.36733-1.0375 1.46009z"/><path d="m17.5561 24.5057c.1106-.6566.2365-1.4016.3617-2.1459.0286-.1702.0308-.3514.093-.5091.101-.2564.1889-.5486.3741-.7363 1.8598-1.8808 3.7356-3.7462 5.6115-5.6103.5293-.5259 1.192-.5244 1.725-.0021.645.6325 1.282 1.2716 1.9183 1.9129.4737.477.4803 1.1431.0198 1.6405-.167.1804-.3464.3506-.5206.5244-1.6211 1.6172-3.2524 3.2233-4.8558 4.8573-.3983.4061-.8318.6434-1.3912.7267-.73.1081-1.4526.2688-2.1782.4039-.6348.1191-1.1737-.3338-1.1576-1.062z"/></g></svg>