<svg fill="none" height="31" viewBox="0 0 31 31" width="31" xmlns="http://www.w3.org/2000/svg"><g fill="#6d7bac"><path d="m15.6235 15.2739c.1484 0 .2968.0061.4392.0131v-.4071-1.8007-3.62046h-.8713v5.42116.1674.2387c.1414-.006.2898-.0121.4321-.0121z"/><path d="m9.77604 18.7461h-6.56315v.8713h6.16311c.1163-.2968.25165-.5936.40004-.8713z"/><path d="m21.4697 18.7461c.1544.2777.2838.5745.4001.8713h6.1631v-.8713z"/><path d="m15.6235 28.5877c-.1484 0-.2907-.006-.4321-.013v1.2072h.8713v-1.2072c-.1424.007-.2908.013-.4392.013z"/><path d="m23.6833 8.13024c-.3288.32886-1.3425 1.34251-6.157 2.22686.1163.1674.2065.2707.2065.2707.6517.9745 1.4067 1.8648 2.2398 2.678.4713.4521.4973 1.1941.0522 1.6713-.4582.4582-1.1871.4843-1.6714.0512-.5554-.5294-1.0778-1.0909-1.5551-1.6904l-1.181-1.4649-1.1741 1.4719c-.4773.5935-1.0006 1.162-1.5551 1.6904-.4842.4321-1.2202.4131-1.6713-.0511-.4452-.4773-.4191-1.2202.0511-1.6714.8392-.8131 1.5871-1.7105 2.2398-2.678.0392-.0511.0973-.1544.1745-.2777-4.79553-.88435-5.79514-1.89098-6.12399-2.21984-1.85886-1.85885-1.85886-4.88576 0-6.74362l.01905-.01905c.90336-.877291 2.09747-1.36857453 3.35574-1.36857453 1.2583 0 2.4524.48426453 3.3558 1.36857453l.019.01905c.2196.21957.736.73592 1.3165 2.46544.5805-1.7235 1.0968-2.23985 1.3164-2.46544.9034-.90336 2.0975-1.39364 3.3748-1.39364 1.2774 0 2.4715.497299 3.3749 1.39364 1.8578 1.85084 1.8578 4.87775-.0071 6.7366zm-6.6403-.10327c2.2007-.40004 4.4145-1.02568 4.963-1.57511.9354-.93545.9354-2.44639 0-3.38184-.9355-.93544-2.4464-.93544-3.3819 0-.5484.54843-1.1811 2.76222-1.5811 4.95695zm-7.8024-1.57511c.54843.54843 2.7552 1.17407 4.963 1.57511-.4001-2.20075-1.0257-4.41453-1.5751-4.96296-.9355-.9164-2.4394-.9164-3.38189 0-.94246.93544-.94246 2.4524-.00601 3.38785z"/><path d="m26.4328 8.2395h-12.1968-9.40961c-1.56209 0-2.82639 1.26531-2.82639 2.8264v6.6855 10.4222c0 1.5621 1.26531 2.8264 2.82639 2.8264h12.19691 9.4095c1.5621 0 2.8264-1.2653 2.8264-2.8264v-6.6855-10.4222c.001-1.56109-1.2643-2.8264-2.8264-2.8264zm1.6012 19.7476c0 .9876-.8001 1.7937-1.7937 1.7937h-9.3444-11.88904c-.98758 0-1.79369-.8001-1.79369-1.7937v-10.2608-6.4729c0-.9876.80009-1.79371 1.79369-1.79371h9.35144 11.8871c.9875 0 1.7936.80011 1.7936 1.79371v10.2608 6.4729z"/></g><path d="m15.6233 15.2739c-3.6656 0-6.66041 2.9878-6.66041 6.6604s2.98781 6.6604 6.66041 6.6604c3.6716 0 6.6604-2.9878 6.6604-6.6604-.001-3.6786-2.9888-6.6604-6.6604-6.6604zm.787 9.926v.0902c0 .4321-.3489.781-.781.781s-.781-.3489-.781-.781v-.0582h-.0582c-.4321 0-.781-.3489-.781-.781s.3489-.781.781-.781h1.2583c.2647 0 .4712-.2126.4712-.4713 0-.2647-.2125-.4712-.4712-.4712h-.8322c-1.1289 0-2.0584-.9224-2.0584-2.0654 0-1.0006.729-1.8328 1.6784-1.9942v-.0842c0-.4322.3489-.7811.7811-.7811.4321 0 .781.3489.781.7811v.0581h.0582c.4321 0 .781.3489.781.7811 0 .4321-.3489.781-.781.781h-1.2774c-.2456 0-.4521.2065-.4521.4522 0 .2707.2195.4973.4902.4973h.8192c1.1289 0 2.0393.9104 2.0393 2.0393.006 1.0006-.7169 1.8328-1.6654 2.0073z" fill="#52bceb"/></svg>