<svg width="50" height="37" viewBox="0 0 50 37" fill="none" xmlns="http://www.w3.org/2000/svg">
<path d="M2.18571 16.7951L2.18564 16.7952C1.6826 17.2984 1.4 17.9807 1.4 18.6923C1.4 19.4038 1.6826 20.0862 2.18564 20.5894L2.18571 20.5894L16.769 35.1728L16.769 35.1728L16.7765 35.1801C17.2826 35.6689 17.9604 35.9394 18.6639 35.9332C19.3675 35.9271 20.0405 35.6449 20.538 35.1474C21.0355 34.6499 21.3177 33.9769 21.3239 33.2733C21.33 32.5698 21.0595 31.8919 20.5707 31.3859L20.5708 31.3858L20.5634 31.3784L10.5606 21.3756H45.7496C46.4612 21.3756 47.1437 21.0929 47.647 20.5897C48.1502 20.0864 48.4329 19.4039 48.4329 18.6923C48.4329 17.9806 48.1502 17.2981 47.647 16.7949C47.1437 16.2916 46.4612 16.0089 45.7496 16.0089H10.5606L20.56 6.00953C20.8144 5.7628 21.0174 5.46809 21.1573 5.14242C21.2979 4.81505 21.372 4.46294 21.3751 4.10665C21.3782 3.75036 21.3103 3.39702 21.1753 3.06725C21.0404 2.73747 20.8412 2.43787 20.5892 2.18593L20.165 2.61019L20.5892 2.18593C20.3373 1.93398 20.0377 1.73474 19.7079 1.59982C19.3781 1.4649 19.0248 1.39701 18.6685 1.4001C18.3122 1.4032 17.9601 1.47722 17.6327 1.61785C17.3071 1.75775 17.0123 1.96078 16.7656 2.2152L2.18571 16.7951Z" fill="#4BBBEB" stroke="#4BBBEB" stroke-width="1.2"/>
</svg>
