<svg width="31" height="20" viewBox="0 0 31 20" fill="none" xmlns="http://www.w3.org/2000/svg">
<g id="Frame 23489">
<g id="Group 41272">
<g id="live">
<g id="Group 22677">
<path id="Vector" d="M26.7831 10.3044V17.5303C26.7684 17.5781 26.7522 17.6253 26.7392 17.6736C26.5766 18.2688 26.1875 18.679 25.5671 18.8982C25.4484 18.9399 25.3233 18.9655 25.2008 18.9987H7.59688C7.5735 18.9871 7.54901 18.9775 7.52372 18.9701C6.56894 18.769 6.01568 18.1316 6.01568 17.2237C6.01568 15.0161 6.01568 12.8085 6.01568 10.601C6.01438 10.4316 6.03568 10.2627 6.07908 10.0982C6.29583 9.32055 7.0149 8.83594 7.93609 8.83594H24.8475C24.9017 8.83594 24.9559 8.83594 25.0101 8.83594C25.7226 8.87565 26.2564 9.18381 26.5815 9.77349C26.6747 9.93989 26.717 10.1274 26.7831 10.3044ZM21.8845 12.2237C22.4936 12.2237 23.0869 12.2267 23.6803 12.2237C24.0417 12.2212 24.3078 11.9764 24.3078 11.6607C24.3078 11.345 24.0406 11.0991 23.6808 11.0971C22.8832 11.0934 22.0855 11.0934 21.2879 11.0971C20.9189 11.0971 20.6604 11.3359 20.6593 11.6773C20.6564 13.1696 20.6564 14.6623 20.6593 16.1554C20.6593 16.4987 20.9151 16.738 21.283 16.7401C22.0807 16.7444 22.8781 16.7444 23.6754 16.7401C24.0379 16.7401 24.3051 16.4962 24.3078 16.181C24.311 15.8578 24.0401 15.615 23.6651 15.613C23.1379 15.61 22.6106 15.613 22.0839 15.613C22.0184 15.613 21.9533 15.6074 21.8899 15.6049V14.4819C22.4995 14.4819 23.094 14.4874 23.6884 14.4819C24.1799 14.4758 24.4687 14.0043 24.2173 13.6273C24.0889 13.4352 23.8922 13.3533 23.6527 13.3543C23.0669 13.3543 22.4806 13.3543 21.8845 13.3543V12.2237ZM17.6427 13.7489L17.5961 13.7529C17.5755 13.6831 17.5533 13.6142 17.5343 13.5443C17.3561 12.8823 17.181 12.2197 16.9995 11.5586C16.9068 11.2213 16.5823 11.0308 16.2539 11.1117C15.9125 11.1957 15.7304 11.4902 15.8204 11.8286C16.2156 13.3032 16.613 14.7786 17.0125 16.2549C17.0954 16.5641 17.3219 16.7406 17.621 16.739C17.9202 16.7375 18.1407 16.5631 18.2204 16.268C18.6206 14.7864 19.018 13.3045 19.4125 11.8225C19.4377 11.7258 19.4398 11.625 19.4184 11.5274C19.3888 11.4041 19.3146 11.2938 19.208 11.215C19.1014 11.1363 18.9689 11.0938 18.8327 11.0946C18.5417 11.0946 18.3119 11.2711 18.2323 11.5641C18.0336 12.2921 17.8371 13.0203 17.6427 13.7489ZM9.7064 15.609V15.3576C9.7064 14.135 9.7064 12.9117 9.7064 11.6878C9.7064 11.3475 9.45334 11.0991 9.11467 11.0911C9.03319 11.0889 8.95207 11.1019 8.87618 11.1295C8.80029 11.1571 8.73121 11.1987 8.67309 11.2517C8.61497 11.3048 8.56902 11.3681 8.538 11.4381C8.50698 11.508 8.49154 11.583 8.4926 11.6587C8.48898 13.1631 8.48898 14.668 8.4926 16.1735C8.49149 16.2477 8.50649 16.3213 8.5367 16.39C8.56691 16.4587 8.61171 16.5211 8.66844 16.5734C8.72517 16.6257 8.79267 16.6669 8.86691 16.6945C8.94115 16.7221 9.02062 16.7355 9.10058 16.734C9.91195 16.7394 10.723 16.7394 11.5336 16.734C11.6534 16.7371 11.7712 16.7056 11.8708 16.6439C11.9705 16.5822 12.0471 16.4934 12.0901 16.3897C12.2673 16.0151 11.9714 15.6125 11.513 15.6084C10.918 15.6069 10.3247 15.611 9.7064 15.611V15.609ZM14.5735 13.9128C14.5735 13.1738 14.5735 12.4348 14.5735 11.6954C14.5735 11.4244 14.4294 11.2213 14.1855 11.1328C13.7678 10.982 13.3586 11.264 13.3581 11.7089C13.3581 13.1688 13.3581 14.6285 13.3581 16.088C13.3581 16.4822 13.6057 16.7416 13.9737 16.7375C14.3416 16.7335 14.5741 16.4771 14.5746 16.0931C14.575 15.3682 14.5746 14.6421 14.5735 13.9148V13.9128Z" fill=""/>
<path id="Vector_2" d="M11.6498 0C11.8585 0.0121424 12.0258 0.101187 12.1284 0.296983C12.1833 0.393352 12.2083 0.50461 12.1999 0.615898C12.1915 0.727185 12.1502 0.833202 12.0816 0.919789C11.7818 1.32886 11.5465 1.78367 11.3844 2.2676C10.8436 3.94393 11.0609 5.51013 12.0362 6.96621C12.1487 7.13317 12.236 7.30064 12.1842 7.51009C12.126 7.74637 11.9789 7.89814 11.7456 7.94267C11.5122 7.98719 11.3242 7.89207 11.1841 7.69881C10.6876 7.02071 10.3372 6.2423 10.1559 5.41502C9.75425 3.55116 10.0917 1.8384 11.1683 0.276746C11.2209 0.194278 11.2922 0.126054 11.376 0.0778727C11.4598 0.0296914 11.5538 0.00297707 11.6498 0Z" fill=""/>
<path id="Vector_3" d="M22.8031 3.78846C22.7829 5.3344 22.4031 6.57621 21.6189 7.68493C21.4762 7.88735 21.2887 7.98855 21.0477 7.9425C20.815 7.89899 20.6689 7.74566 20.6103 7.50984C20.5611 7.30743 20.6364 7.14145 20.7486 6.98154C21.3777 6.09874 21.7093 5.02867 21.6927 3.9342C21.6922 2.872 21.3634 1.83745 20.754 0.979961C20.6418 0.82056 20.5616 0.65458 20.6064 0.453178C20.6605 0.21686 20.8032 0.0604955 21.0369 0.0129281C21.2705 -0.0346392 21.459 0.050374 21.6002 0.24621C22.1557 1.00608 22.5285 1.89047 22.6879 2.82699C22.7539 3.20045 22.7799 3.58554 22.8031 3.78846Z" fill=""/>
<path id="Vector_4" d="M17.9446 3.98363C17.9434 4.21651 17.9021 4.44683 17.823 4.66144C17.7439 4.87605 17.6285 5.07074 17.4836 5.23439C17.3387 5.39804 17.1669 5.52743 16.9782 5.61518C16.7895 5.70292 16.5876 5.7473 16.3838 5.74578C15.9758 5.73999 15.5861 5.55063 15.2993 5.21874C15.0125 4.88684 14.8517 4.43914 14.8516 3.97261C14.8528 3.73976 14.8941 3.50946 14.9732 3.29487C15.0523 3.08029 15.1676 2.88564 15.3126 2.72203C15.4575 2.55843 15.6292 2.42908 15.8179 2.34139C16.0066 2.2537 16.2086 2.20939 16.4123 2.21098C16.8205 2.21609 17.2104 2.40516 17.4973 2.73709C17.7842 3.06902 17.945 3.51698 17.9446 3.98363Z" fill=""/>
<path id="Vector_5" d="M20.5999 4.18475C20.5865 4.90283 20.2327 5.71251 19.5261 6.40982C19.2699 6.6624 18.8977 6.70158 18.6192 6.50943C18.3407 6.31728 18.3139 5.99011 18.5695 5.72525C19.6115 4.6427 19.6132 3.3137 18.5728 2.23634C18.315 1.96912 18.3323 1.65044 18.6153 1.45216C18.8982 1.25387 19.271 1.29636 19.5367 1.55791C20.2299 2.24011 20.601 3.0885 20.5999 4.18475Z" fill=""/>
<path id="Vector_6" d="M12.2031 3.95901C12.2086 3.06923 12.592 2.21104 13.2828 1.54231C13.5358 1.29289 13.9127 1.25888 14.1868 1.45303C14.4609 1.64718 14.4948 1.97265 14.2357 2.22396C13.7345 2.70838 13.4576 3.33113 13.4567 3.97616C13.4557 4.6212 13.7308 5.24451 14.2307 5.72997C14.4915 5.98222 14.4648 6.30249 14.1929 6.50184C13.9211 6.70118 13.5352 6.66812 13.2745 6.40736C12.5662 5.70588 12.2142 4.89007 12.2031 3.95901Z" fill=""/>
</g>
<path id="Vector 9 (Stroke)" fill-rule="evenodd" clip-rule="evenodd" d="M6.89844 10.7188C6.89844 10.1665 7.34615 9.71875 7.89844 9.71875H9.10774C9.22976 9.71875 9.32867 9.81766 9.32867 9.93968C9.32867 10.0617 9.22976 10.1606 9.10774 10.1606H8.33448C7.78541 10.1606 7.3403 10.6057 7.3403 11.1548V12.149C7.3403 12.271 7.24138 12.3699 7.11937 12.3699C6.99735 12.3699 6.89844 12.271 6.89844 12.149V10.7188Z" fill=""/>
</g>
</g>
</g>
</svg>
