<svg fill="none" height="28" viewBox="0 0 28 28" width="28" xmlns="http://www.w3.org/2000/svg"><path clip-rule="evenodd" d="m14 0c.7732 0 1.4.626801 1.4 1.4v4.19999c0 .7732-.6268 1.4-1.4 1.4s-1.4-.6268-1.4-1.4v-4.19999c0-.773199.6268-1.4 1.4-1.4zm-7 1.87564c.66961-.3866 1.52584-.15717 1.91244.51244l2.09996 3.6373c.3866.66961.1572 1.52584-.5124 1.91244-.66961.3866-1.52584.15717-1.91244-.51244l-2.1-3.63731c-.38659-.66961-.15717-1.52583.51244-1.91243zm-5.12436 5.12435c.3866-.66961 1.24283-.89903 1.91244-.51243l3.63731 2.09999c.66961.3866.89904 1.24283.51244 1.91245-.3866.6696-1.24283.899-1.91244.5124l-3.63731-2.09997c-.66961-.3866-.89904-1.24283-.51244-1.91244zm-1.87564 7.00001c0-.7732.626801-1.4 1.4-1.4h4.2c.7732 0 1.4.6268 1.4 1.4s-.6268 1.4-1.4 1.4h-4.2c-.773199 0-1.4-.6268-1.4-1.4zm21 0c0-.7732.6268-1.4 1.4-1.4h4.2c.7732 0 1.4.6268 1.4 1.4s-.6268 1.4-1.4 1.4h-4.2c-.7732 0-1.4-.6268-1.4-1.4zm-13.06217 3.5c.3866.6696.15717 1.5258-.51244 1.9124l-3.63731 2.1c-.66961.3866-1.52584.1572-1.91244-.5124s-.15717-1.5258.51244-1.9124l3.63731-2.1c.66961-.3866 1.52584-.1572 1.91244.5124zm12.12447 0c.3866-.6696 1.2428-.899 1.9124-.5124l3.6372 2.1c.6696.3866.899 1.2428.5124 1.9124s-1.2428.899-1.9124.5124l-3.6372-2.1c-.6696-.3866-.8991-1.2428-.5124-1.9124zm-9.5623 2.5621c.6696.3866.899 1.2428.5124 1.9124l-2.09996 3.6374c-.3866.6696-1.24282.899-1.91243.5124-.66962-.3866-.89904-1.2428-.51245-1.9124l2.1-3.6373c.3866-.6697 1.24282-.8991 1.91244-.5125zm7 0c.6696-.3866 1.5258-.1572 1.9124.5125l2.1 3.6373c.3866.6696.1572 1.5258-.5124 1.9124s-1.5258.1572-1.9124-.5124l-2.1-3.6374c-.3866-.6696-.1572-1.5258.5124-1.9124zm-3.5.9379c.7732 0 1.4.6268 1.4 1.4v4.2c0 .7732-.6268 1.4-1.4 1.4s-1.4-.6268-1.4-1.4v-4.2c0-.7732.6268-1.4 1.4-1.4z" fill="#4098d8" fill-rule="evenodd"/></svg>