<svg width="28" height="28" viewBox="0 0 28 28" fill="none" xmlns="http://www.w3.org/2000/svg"> 
<g clip-path="url(#clip0_2371_13129)">
<path fill-rule="evenodd" clip-rule="evenodd" d="M14 0C14.7732 0 15.4 0.626801 15.4 1.4V5.59999C15.4 6.37319 14.7732 6.99999 14 6.99999C13.2268 6.99999 12.6 6.37319 12.6 5.59999V1.4C12.6 0.626801 13.2268 0 14 0ZM7 1.87564C7.66961 1.48904 8.52584 1.71847 8.91244 2.38808L11.0124 6.02538C11.399 6.69499 11.1696 7.55122 10.5 7.93782C9.83039 8.32442 8.97416 8.09499 8.58756 7.42538L6.48756 3.78807C6.10097 3.11846 6.33039 2.26224 7 1.87564ZM1.87564 6.99999C2.26224 6.33038 3.11847 6.10096 3.78808 6.48756L7.42539 8.58755C8.095 8.97415 8.32443 9.83038 7.93783 10.5C7.55123 11.1696 6.695 11.399 6.02539 11.0124L2.38808 8.91243C1.71847 8.52583 1.48904 7.6696 1.87564 6.99999ZM0 14C0 13.2268 0.626801 12.6 1.4 12.6H5.6C6.3732 12.6 7 13.2268 7 14C7 14.7732 6.3732 15.4 5.6 15.4H1.4C0.626801 15.4 0 14.7732 0 14ZM21 14C21 13.2268 21.6268 12.6 22.4 12.6H26.6C27.3732 12.6 28 13.2268 28 14C28 14.7732 27.3732 15.4 26.6 15.4H22.4C21.6268 15.4 21 14.7732 21 14ZM7.93783 17.5C8.32443 18.1696 8.095 19.0258 7.42539 19.4124L3.78808 21.5124C3.11847 21.899 2.26224 21.6696 1.87564 21C1.48904 20.3304 1.71847 19.4742 2.38808 19.0876L6.02539 16.9876C6.695 16.601 7.55123 16.8304 7.93783 17.5ZM20.0623 17.5C20.4489 16.8304 21.3051 16.601 21.9747 16.9876L25.6119 19.0876C26.2815 19.4742 26.5109 20.3304 26.1243 21C25.7377 21.6696 24.8815 21.899 24.2119 21.5124L20.5747 19.4124C19.9051 19.0258 19.6756 18.1696 20.0623 17.5ZM10.5 20.0621C11.1696 20.4487 11.399 21.3049 11.0124 21.9745L8.91244 25.6119C8.52584 26.2815 7.66962 26.5109 7.00001 26.1243C6.33039 25.7377 6.10097 24.8815 6.48756 24.2119L8.58756 20.5746C8.97416 19.9049 9.83038 19.6755 10.5 20.0621ZM17.5 20.0621C18.1696 19.6755 19.0258 19.9049 19.4124 20.5746L21.5124 24.2119C21.899 24.8815 21.6696 25.7377 21 26.1243C20.3304 26.5109 19.4742 26.2815 19.0876 25.6119L16.9876 21.9745C16.601 21.3049 16.8304 20.4487 17.5 20.0621ZM14 21C14.7732 21 15.4 21.6268 15.4 22.4V26.6C15.4 27.3732 14.7732 28 14 28C13.2268 28 12.6 27.3732 12.6 26.6V22.4C12.6 21.6268 13.2268 21 14 21Z" fill="#4098D8"/>
</g>
<defs>
<clipPath id="clip0_2371_13129">
<rect width="28" height="28" fill="white"/>
</clipPath>
</defs>
</svg>
