<svg fill="none" height="30" viewBox="0 0 28 30" width="28" xmlns="http://www.w3.org/2000/svg"><path d="m14.4395 23.0305c-.2865 0-.5612-.1135-.7638-.3155-.2025-.202-.3163-.4759-.3163-.7616v-3.0912c0-.2856.1138-.5596.3163-.7616.2026-.202.4773-.3154.7638-.3154s.5612.1134.7638.3154.3164.476.3164.7616v3.0912c0 .2857-.1138.5596-.3164.7616s-.4773.3155-.7638.3155z" fill="#fff"/><path d="m14.4395 23.0305c-.2865 0-.5612-.1135-.7638-.3155-.2025-.202-.3163-.4759-.3163-.7616v-3.0912c0-.2856.1138-.5596.3163-.7616.2026-.202.4773-.3154.7638-.3154s.5612.1134.7638.3154.3164.476.3164.7616v3.0912c0 .2857-.1138.5596-.3164.7616s-.4773.3155-.7638.3155z" fill="#35c0ff"/><path d="m27.2948 13.9445c-.5485-1.0853-1.432-1.9663-2.5204-2.5132-.4784-.2357-.9912-.3944-1.5194-.4703v-2.15414c-.0018-2.33204-.9305-4.56829-2.5825-6.21897-1.652-1.650681-3.8927-2.58124138-6.2314-2.58789-2.3411.0019001-4.58592.92989-6.24171 2.58031-1.65579 1.65041-2.58734 3.88844-2.5902 6.22295v2.15414c-.52817.0759-1.04097.2346-1.51939.4703-1.08275.5485-1.96008 1.4296-2.50239 2.5132-.626476 1.2207-.626472 2.6101-.626472 5.3853v2.1542c0 2.7645-.000004 4.1539.626472 5.3853.5448 1.0818 1.42145 1.9622 2.50239 2.5132 1.22416.6211 2.61754.6211 5.40069.6211h9.91921c2.7723 0 4.1657 0 5.4007-.6211 1.0881-.5473 1.9715-1.4282 2.5203-2.5132.6229-1.2206.623-2.6101.623-5.3853v-2.1542c-.036-2.7716-.0361-4.161-.6589-5.3817zm-12.8537-11.78317c1.7679.0019 3.4628.70304 4.7129 1.94958s1.9533 2.93665 1.9552 4.69952v2.02127c-.5077 0-1.0802 0-1.7102 0h-9.91932c-.63728 0-1.20255 0-1.71022 0v-2.02127c.00096-1.76445.70407-3.4564 1.95494-4.70438 1.2509-1.24799 2.9473-1.95001 4.7167-1.95191zm11.3162 19.32267c0 2.4198 0 3.6369-.3888 4.398-.3419.6695-.8876 1.2137-1.559 1.5546-.7633.3877-1.9838.3877-4.4105.3877h-9.91932c-2.42671 0-3.64726 0-4.41056-.3877-.66991-.3429-1.21517-.8866-1.55903-1.5546-.38885-.7611-.38888-1.9782-.38888-4.398v-2.1542c0-2.4198.00003-3.6333.38888-4.398.34386-.668.88912-1.2117 1.55903-1.5546.53291-.2317 1.10723-.3538 1.68859-.359.69849-.0431 1.59143-.0431 2.72197-.0431h9.91932c1.1305 0 2.027 0 2.7218.0431.5802.0056 1.1533.1277 1.6851.359.6724.3412 1.2183.8869 1.559 1.5582.3888.7611.3888 1.9746.3888 4.3944z" fill="#6c7aab"/></svg>