<svg fill="none" height="30" viewBox="0 0 28 30" width="28" xmlns="http://www.w3.org/2000/svg"><g fill="#fff"><path d="m14.2676 23.0305c-.2864 0-.5612-.1135-.7637-.3155-.2026-.202-.3164-.4759-.3164-.7616v-3.0912c0-.2856.1138-.5596.3164-.7616.2025-.202.4773-.3154.7637-.3154.2865 0 .5613.1134.7638.3154.2026.202.3164.476.3164.7616v3.0912c0 .2857-.1138.5596-.3164.7616-.2025.202-.4773.3155-.7638.3155z"/><path d="m14.2676 23.0305c-.2864 0-.5612-.1135-.7637-.3155-.2026-.202-.3164-.4759-.3164-.7616v-3.0912c0-.2856.1138-.5596.3164-.7616.2025-.202.4773-.3154.7637-.3154.2865 0 .5613.1134.7638.3154.2026.202.3164.476.3164.7616v3.0912c0 .2857-.1138.5596-.3164.7616-.2025.202-.4773.3155-.7638.3155z"/><path d="m27.1229 13.9445c-.5485-1.0853-1.4319-1.9663-2.5203-2.5132-.4785-.2357-.9913-.3944-1.5194-.4703v-2.15414c-.0019-2.33204-.9306-4.56829-2.5826-6.21897-1.652-1.650681-3.8927-2.58124138-6.2313-2.58789-2.3412.0019001-4.58599.92989-6.24178 2.58031-1.65579 1.65041-2.58735 3.88844-2.59021 6.22295v2.15414c-.52817.0759-1.04096.2346-1.51938.4703-1.08276.5485-1.96009 1.4296-2.50239 2.5132-.626481 1.2207-.626478 2.6101-.626478 5.3853v2.1542c0 2.7645-.000003 4.1539.626478 5.3853.5448 1.0818 1.42144 1.9622 2.50239 2.5132 1.22416.6211 2.61753.6211 5.40069.6211h9.91918c2.7724 0 4.1657 0 5.4007-.6211 1.0881-.5473 1.9715-1.4282 2.5203-2.5132.6229-1.2206.623-2.6101.623-5.3853v-2.1542c-.036-2.7716-.036-4.161-.6589-5.3817zm-12.8536-11.78317c1.7678.0019 3.4627.70304 4.7128 1.94958s1.9533 2.93665 1.9552 4.69952v2.02127c-.5077 0-1.0801 0-1.7102 0h-9.91929c-.63728 0-1.20256 0-1.71022 0v-2.02127c.00095-1.76445.70407-3.4564 1.95494-4.70438 1.25087-1.24799 2.94727-1.95001 4.71677-1.95191zm11.3162 19.32267c0 2.4198-.0001 3.6369-.3889 4.398-.3419.6695-.8876 1.2137-1.5589 1.5546-.7633.3877-1.9839.3877-4.4106.3877h-9.91929c-2.42671 0-3.64727 0-4.41057-.3877-.6699-.3429-1.21517-.8866-1.55902-1.5546-.38885-.7611-.38888-1.9782-.38888-4.398v-2.1542c0-2.4198.00003-3.6333.38888-4.398.34385-.668.88912-1.2117 1.55902-1.5546.53292-.2317 1.10724-.3538 1.6886-.359.69849-.0431 1.59142-.0431 2.72197-.0431h9.91929c1.1305 0 2.027 0 2.7219.0431.5801.0056 1.1533.1277 1.6851.359.6723.3412 1.2183.8869 1.5589 1.5582.3888.7611.3889 1.9746.3889 4.3944z"/></g></svg>