<svg fill="none" height="13" viewBox="0 0 10 13" width="10" xmlns="http://www.w3.org/2000/svg"><path d="m.652174 13h8.695656c.36017 0 .65217-.2646.65217-.5909v-6.69698c0-.32634-.292-.59091-.65217-.59091h-.65218v-1.77273c0-1.84635-1.65787-3.34848-3.69565-3.34848s-3.69565 1.50213-3.69565 3.34848v1.77273h-.652176c-.360174 0-.652174.26457-.652174.59091v6.69698c0 .3263.292.5909.652174.5909zm4.999996-3.74298v.78848c0 .3263-.292.5909-.65217.5909s-.65217-.2646-.65217-.5909v-.78848c-.26383-.17983-.43479-.46579-.43479-.78732 0-.54305.48761-.98485 1.08696-.98485s1.08696.4418 1.08696.98485c0 .32153-.17096.60749-.43479.78732zm-3.04347-5.90854c0-1.1947 1.07273-2.16666 2.3913-2.16666s2.3913.97196 2.3913 2.16666v1.77273h-4.7826z" fill="#2c2e2e"/></svg>