<svg width="250" height="246" viewBox="0 0 250 246" fill="none" xmlns="http://www.w3.org/2000/svg">
<path d="M102.24 94.4844H45.2849C40.7093 94.4844 37 98.1937 37 102.769V184.178C37 188.753 40.7093 192.463 45.2849 192.463H102.24C106.816 192.463 110.525 188.753 110.525 184.178V102.769C110.525 98.1937 106.816 94.4844 102.24 94.4844Z" fill="url(#paint0_linear_7638_3259)"/>
<path d="M95.8834 135.211H51.639C50.1492 135.211 48.9414 136.419 48.9414 137.909V137.917C48.9414 139.407 50.1492 140.615 51.639 140.615H95.8834C97.3732 140.615 98.581 139.407 98.581 137.917V137.909C98.581 136.419 97.3732 135.211 95.8834 135.211Z" fill="url(#paint1_linear_7638_3259)"/>
<path d="M95.9097 173.227H52.0455C50.5685 173.227 49.3711 174.397 49.3711 175.84V175.849C49.3711 177.292 50.5685 178.462 52.0455 178.462H95.9097C97.3867 178.462 98.5841 177.292 98.5841 175.849V175.84C98.5841 174.397 97.3867 173.227 95.9097 173.227Z" fill="url(#paint2_linear_7638_3259)"/>
<path d="M95.9097 153.336H52.0455C50.5685 153.336 49.3711 154.506 49.3711 155.949V155.958C49.3711 157.401 50.5685 158.571 52.0455 158.571H95.9097C97.3867 158.571 98.5841 157.401 98.5841 155.958V155.949C98.5841 154.506 97.3867 153.336 95.9097 153.336Z" fill="url(#paint3_linear_7638_3259)"/>
<path d="M67.8182 107.055H54.8888C52.0248 107.055 49.7031 109.376 49.7031 112.24V115.828C49.7031 118.692 52.0248 121.014 54.8888 121.014H67.8182C70.6822 121.014 73.0039 118.692 73.0039 115.828V112.24C73.0039 109.376 70.6822 107.055 67.8182 107.055Z" fill="url(#paint4_linear_7638_3259)"/>
<path d="M112.098 209.5C112.615 207.356 115.665 207.356 116.183 209.5L118.117 217.513C118.302 218.279 118.9 218.877 119.666 219.062L127.679 220.996C129.823 221.514 129.823 224.564 127.679 225.081L119.666 227.015C118.9 227.2 118.302 227.799 118.117 228.565L116.183 236.578C115.665 238.722 112.615 238.722 112.098 236.578L110.164 228.565C109.979 227.799 109.38 227.2 108.614 227.015L100.601 225.081C98.4573 224.564 98.4573 221.514 100.601 220.996L108.614 219.062C109.38 218.877 109.979 218.279 110.164 217.513L112.098 209.5Z" fill="url(#paint5_linear_7638_3259)"/>
<path d="M25.1917 8.46073C25.7092 6.3167 28.7588 6.3167 29.2764 8.46073L31.2107 16.4736C31.3956 17.2398 31.9939 17.8381 32.76 18.023L40.773 19.9573C42.917 20.4748 42.917 23.5245 40.773 24.042L32.76 25.9763C31.9939 26.1613 31.3956 26.7595 31.2107 27.5257L29.2764 35.5386C28.7588 37.6826 25.7092 37.6826 25.1917 35.5386L23.2574 27.5257C23.0724 26.7595 22.4742 26.1613 21.708 25.9763L13.6951 24.042C11.5511 23.5245 11.5511 20.4748 13.6951 19.9573L21.708 18.023C22.4742 17.8381 23.0724 17.2398 23.2574 16.4736L25.1917 8.46073Z" fill="url(#paint6_linear_7638_3259)"/>
<path fill-rule="evenodd" clip-rule="evenodd" d="M117.405 10.0832C119.43 10.0832 121.071 8.44158 121.071 6.41657C121.071 4.39155 119.43 2.74996 117.405 2.74996C115.38 2.74996 113.738 4.39155 113.738 6.41657C113.738 8.44158 115.38 10.0832 117.405 10.0832ZM117.405 12.8331C120.949 12.8331 123.821 9.96034 123.821 6.41657C123.821 2.87279 120.949 0 117.405 0C113.861 0 110.988 2.87279 110.988 6.41657C110.988 9.96034 113.861 12.8331 117.405 12.8331Z" fill="url(#paint7_linear_7638_3259)"/>
<path d="M231.383 110.903C231.05 109.597 232.256 108.421 233.554 108.785L243 111.44C244.297 111.804 244.713 113.437 243.749 114.378L236.727 121.231C235.763 122.173 234.141 121.717 233.808 120.411L231.383 110.903Z" fill="url(#paint8_linear_7638_3259)"/>
<path d="M16.5912 95.2668C17.8976 94.9355 19.0728 96.1427 18.7065 97.4398L16.0399 106.882C15.6736 108.179 14.0405 108.593 13.1003 107.628L6.2563 100.597C5.31614 99.6313 5.77403 98.01 7.0805 97.6786L16.5912 95.2668Z" fill="url(#paint9_linear_7638_3259)"/>
<path d="M191.454 221.962C192.761 221.631 193.936 222.838 193.57 224.135L190.903 233.578C190.537 234.875 188.904 235.289 187.964 234.323L181.12 227.292C180.179 226.327 180.637 224.705 181.944 224.374L191.454 221.962Z" fill="url(#paint10_linear_7638_3259)"/>
<path fill-rule="evenodd" clip-rule="evenodd" d="M239.917 63.4816C241.942 63.4816 243.583 61.84 243.583 59.815C243.583 57.79 241.942 56.1484 239.917 56.1484C237.892 56.1484 236.25 57.79 236.25 59.815C236.25 61.84 237.892 63.4816 239.917 63.4816ZM239.917 66.2316C243.46 66.2316 246.333 63.3588 246.333 59.815C246.333 56.2712 243.46 53.3984 239.917 53.3984C236.373 53.3984 233.5 56.2712 233.5 59.815C233.5 63.3588 236.373 66.2316 239.917 66.2316Z" fill="url(#paint11_linear_7638_3259)"/>
<path d="M84.7174 170.875H174.283C177.992 170.875 181 167.936 181 164.312V89.9287C181 86.3041 177.992 83.3655 174.283 83.3655H167.565V63.6759C167.565 43.1685 150.489 26.4844 129.5 26.4844C108.511 26.4844 91.4348 43.1685 91.4348 63.6759V83.3655H84.7174C81.0076 83.3655 78 86.3041 78 89.9287V164.312C78 167.936 81.0076 170.875 84.7174 170.875ZM136.217 129.302V138.059C136.217 141.684 133.21 144.622 129.5 144.622C125.79 144.622 122.783 141.684 122.783 138.059V129.302C120.065 127.304 118.304 124.128 118.304 120.557C118.304 114.525 123.327 109.618 129.5 109.618C135.673 109.618 140.696 114.525 140.696 120.557C140.696 124.128 138.935 127.304 136.217 129.302ZM104.87 63.6759C104.87 50.4064 115.919 39.6108 129.5 39.6108C143.081 39.6108 154.13 50.4064 154.13 63.6759V83.3655H104.87V63.6759Z" fill="#A4AFD5"/>
<g filter="url(#filter0_d_7638_3259)">
<path d="M218.217 12.4844H155.308C152.376 12.4844 150 14.8608 150 17.7923V47.3613C150 50.2928 152.376 52.6692 155.308 52.6692H218.217C221.149 52.6692 223.525 50.2928 223.525 47.3613V17.7923C223.525 14.8608 221.149 12.4844 218.217 12.4844Z" fill="url(#paint12_linear_7638_3259)"/>
</g>
<path d="M165.524 38.6735C168.894 38.6735 171.627 35.9414 171.627 32.5711C171.627 29.2009 168.894 26.4688 165.524 26.4688C162.154 26.4688 159.422 29.2009 159.422 32.5711C159.422 35.9414 162.154 38.6735 165.524 38.6735Z" fill="#8598DC"/>
<path d="M187.333 38.6735C190.703 38.6735 193.435 35.9414 193.435 32.5711C193.435 29.2009 190.703 26.4688 187.333 26.4688C183.963 26.4688 181.23 29.2009 181.23 32.5711C181.23 35.9414 183.963 38.6735 187.333 38.6735Z" fill="#8598DC"/>
<path d="M209.141 38.6735C212.512 38.6735 215.244 35.9414 215.244 32.5711C215.244 29.2009 212.512 26.4688 209.141 26.4688C205.771 26.4688 203.039 29.2009 203.039 32.5711C203.039 35.9414 205.771 38.6735 209.141 38.6735Z" fill="#8598DC"/>
<defs>
<filter id="filter0_d_7638_3259" x="143" y="3.48438" width="99.5254" height="66.1875" filterUnits="userSpaceOnUse" color-interpolation-filters="sRGB">
<feFlood flood-opacity="0" result="BackgroundImageFix"/>
<feColorMatrix in="SourceAlpha" type="matrix" values="0 0 0 0 0 0 0 0 0 0 0 0 0 0 0 0 0 0 127 0" result="hardAlpha"/>
<feOffset dx="6" dy="4"/>
<feGaussianBlur stdDeviation="6.5"/>
<feComposite in2="hardAlpha" operator="out"/>
<feColorMatrix type="matrix" values="0 0 0 0 0.104618 0 0 0 0 0.465612 0 0 0 0 0.545833 0 0 0 0.09 0"/>
<feBlend mode="normal" in2="BackgroundImageFix" result="effect1_dropShadow_7638_3259"/>
<feBlend mode="normal" in="SourceGraphic" in2="effect1_dropShadow_7638_3259" result="shape"/>
</filter>
<linearGradient id="paint0_linear_7638_3259" x1="34.7924" y1="167.956" x2="175.716" y2="179.53" gradientUnits="userSpaceOnUse">
<stop stop-color="white"/>
<stop offset="1" stop-color="#C8D4FE"/>
</linearGradient>
<linearGradient id="paint1_linear_7638_3259" x1="104.342" y1="140.776" x2="44.658" y2="140.776" gradientUnits="userSpaceOnUse">
<stop stop-color="#C8D4FE"/>
<stop offset="1" stop-color="#6C7AAB"/>
</linearGradient>
<linearGradient id="paint2_linear_7638_3259" x1="104.295" y1="178.618" x2="45.1245" y2="178.618" gradientUnits="userSpaceOnUse">
<stop stop-color="#C8D4FE"/>
<stop offset="1" stop-color="#6C7AAB"/>
</linearGradient>
<linearGradient id="paint3_linear_7638_3259" x1="104.295" y1="158.727" x2="45.1245" y2="158.727" gradientUnits="userSpaceOnUse">
<stop stop-color="#C8D4FE"/>
<stop offset="1" stop-color="#6C7AAB"/>
</linearGradient>
<linearGradient id="paint4_linear_7638_3259" x1="89.1611" y1="120.88" x2="46.7542" y2="120.88" gradientUnits="userSpaceOnUse">
<stop offset="0.243799" stop-color="#C8D4FE"/>
<stop offset="1" stop-color="#6C7AAB"/>
</linearGradient>
<linearGradient id="paint5_linear_7638_3259" x1="92.0908" y1="211.193" x2="136.379" y2="211.481" gradientUnits="userSpaceOnUse">
<stop stop-color="#C8D4FE"/>
<stop offset="1" stop-color="#6C7AAB"/>
</linearGradient>
<linearGradient id="paint6_linear_7638_3259" x1="5.18454" y1="10.1544" x2="49.4729" y2="10.442" gradientUnits="userSpaceOnUse">
<stop stop-color="#C8D4FE"/>
<stop offset="1" stop-color="#6C7AAB"/>
</linearGradient>
<linearGradient id="paint7_linear_7638_3259" x1="110.974" y1="2.96171" x2="123.891" y2="3.04557" gradientUnits="userSpaceOnUse">
<stop stop-color="#C8D4FE"/>
<stop offset="1" stop-color="#6C7AAB"/>
</linearGradient>
<linearGradient id="paint8_linear_7638_3259" x1="227.015" y1="117.41" x2="240.304" y2="104.606" gradientUnits="userSpaceOnUse">
<stop stop-color="#C8D4FE"/>
<stop offset="1" stop-color="#6C7AAB"/>
</linearGradient>
<linearGradient id="paint9_linear_7638_3259" x1="10.0905" y1="90.8895" x2="22.8766" y2="104.196" gradientUnits="userSpaceOnUse">
<stop stop-color="#C8D4FE"/>
<stop offset="1" stop-color="#6C7AAB"/>
</linearGradient>
<linearGradient id="paint10_linear_7638_3259" x1="184.954" y1="217.585" x2="197.74" y2="230.891" gradientUnits="userSpaceOnUse">
<stop stop-color="#C8D4FE"/>
<stop offset="1" stop-color="#6C7AAB"/>
</linearGradient>
<linearGradient id="paint11_linear_7638_3259" x1="233.485" y1="56.3601" x2="246.403" y2="56.444" gradientUnits="userSpaceOnUse">
<stop stop-color="#C8D4FE"/>
<stop offset="1" stop-color="#6C7AAB"/>
</linearGradient>
<linearGradient id="paint12_linear_7638_3259" x1="147.792" y1="42.6181" x2="253.956" y2="45.6891" gradientUnits="userSpaceOnUse">
<stop stop-color="white"/>
<stop offset="1" stop-color="#C8D4FE"/>
</linearGradient>
</defs>
</svg>
