<svg fill="none" height="25" viewBox="0 0 29 25" width="29" xmlns="http://www.w3.org/2000/svg"><path d="m2.41406 12.0816-1.08208-1.0388-.997244 1.0388.997244 1.0388zm10.87504 1.5c.8284 0 1.5-.6716 1.5-1.5s-.6716-1.5-1.5-1.5zm-7.12379-7.57352-4.83333 5.03472 2.16416 2.0776 4.83334-5.03473zm-4.83333 7.11232 4.83333 5.0347 2.16417-2.0776-4.83334-5.0347zm1.08208.4612h10.87504v-3h-10.87504z" fill="#6c7aab"/><path d="m12.0859 8.19014v-.67779c0-1.66007 0-2.49011.4917-3.05476.4916-.56464 1.3138-.67883 2.9581-.9072l4.2248-.58679c3.177-.44125 4.7655-.66187 5.7954.23496 1.03.89682 1.03 2.50054 1.03 5.70799v6.35705c0 3.2074 0 4.8112-1.03 5.708-1.0299.8968-2.6184.6762-5.7954.2349l-4.2248-.5867c-1.6443-.2284-2.4665-.3426-2.9581-.9073-.4917-.5646-.4917-1.3946-.4917-3.0547v-.4785" stroke="#6c7aab" stroke-width="3"/></svg>