<svg fill="none" height="100" viewBox="0 0 100 100" width="100" xmlns="http://www.w3.org/2000/svg"><path d="m13.9687 81.9875c4.2563 0 7.725-3.4687 7.725-7.725v-43.75c-.1122-1.9712-.9743-3.8247-2.4095-5.1806-1.4353-1.3558-3.3348-2.1112-5.3092-2.1112s-3.8739.7554-5.30917 2.1112c-1.43523 1.3559-2.29735 3.2094-2.40958 5.1806l-.00625 43.75c0 4.2563 3.4625 7.725 7.7187 7.725zm-2.575-51.475c0-.6829.2713-1.3379.7543-1.8208.4829-.4829 1.1378-.7542 1.8207-.7542.683 0 1.3379.2713 1.8209.7542.4829.4829.7542 1.1379.7542 1.8208v43.75c0 .6829-.2713 1.3379-.7542 1.8208-.483.4829-1.1379.7542-1.8209.7542-.6829 0-1.3378-.2713-1.8207-.7542-.483-.4829-.7543-1.1379-.7543-1.8208zm25.7376 51.475c4.2562 0 7.7187-3.4687 7.7187-7.725v-23.1625c0-4.25-3.4625-7.7187-7.7187-7.7187-4.2563 0-7.7188 3.4624-7.7188 7.7187v23.1625c0 4.2563 3.4625 7.725 7.7188 7.725zm-2.5688-30.8875c0-.6829.2713-1.3379.7542-1.8208s1.1379-.7542 1.8208-.7542 1.3379.2713 1.8208.7542.7542 1.1379.7542 1.8208v23.1625c0 .6829-.2713 1.3379-.7542 1.8208s-1.1379.7542-1.8208.7542-1.3379-.2713-1.8208-.7542-.7542-1.1379-.7542-1.8208zm48.9 30.8875c4.2563 0 7.7188-3.4687 7.7188-7.725v-15.4375c0-4.2563-3.4625-7.725-7.7188-7.725-4.2562 0-7.7187 3.4687-7.7187 7.725v15.4375c0 4.2563 3.4625 7.725 7.7187 7.725zm-2.575-23.1625c0-.6829.2713-1.3379.7542-1.8208s1.1379-.7542 1.8208-.7542 1.3379.2713 1.8208.7542.7542 1.1379.7542 1.8208v15.4375c0 .6829-.2713 1.3379-.7542 1.8208s-1.1379.7542-1.8208.7542-1.3379-.2713-1.8208-.7542-.7542-1.1379-.7542-1.8208zm-20.5875 23.1625c4.2562 0 7.7188-3.4687 7.7188-7.725v-54.0438c0-4.25-3.4626-7.7187-7.7188-7.7187-4.2563 0-7.7188 3.4625-7.7188 7.7187v54.0438c0 4.2563 3.4625 7.725 7.7188 7.725zm-2.575-61.7688c0-.6829.2713-1.3378.7542-1.8208.4829-.4829 1.1379-.7542 1.8208-.7542s1.3379.2713 1.8208.7542c.4829.483.7542 1.1379.7542 1.8208v54.0438c0 .6829-.2713 1.3379-.7542 1.8208s-1.1379.7542-1.8208.7542-1.3379-.2713-1.8208-.7542-.7542-1.1379-.7542-1.8208zm-51.475 66.9125h87.5v5.15h-87.5z" fill="#6c7aab"/></svg>