<svg xmlns="http://www.w3.org/2000/svg" width="27" height="27" viewBox="0 0 27 27" fill="">
<g clip-path="url(#clip0_2739_12529)">
<path d="M27.0002 21.2767C26.3966 21.9898 25.8437 22.7507 25.1795 23.4063C23.2419 25.3099 20.9212 26.5116 18.2117 26.8773C14.6422 27.3581 11.4397 26.4561 8.62807 24.21C8.25196 23.9096 7.8984 23.5783 7.55328 23.2428C7.41665 23.1094 7.31804 23.0982 7.149 23.1726C4.21411 24.4781 0.89819 22.8567 0.13964 19.7514C-0.563973 16.8715 1.47221 13.9508 4.43034 13.5998C6.81093 13.319 8.9915 14.6436 9.81696 16.8778C9.8409 16.9423 9.86767 17.0062 9.89937 17.0883C9.95695 17.0686 10.0132 17.0452 10.0677 17.0182C14.8472 14.1192 21.1868 14.7208 25.4274 19.0762C25.9979 19.6623 26.4783 20.3354 27.0009 20.9714L27.0002 21.2767ZM18.1307 21.5511C18.1645 22.1927 18.2582 22.3934 18.5533 22.3731C19.0992 22.3373 18.9548 21.8817 19.0013 21.549C19.3337 21.5139 19.7936 21.6445 19.8133 21.1468C19.8366 20.5853 19.333 20.7292 19.0034 20.6899C18.9498 20.035 18.8667 19.8743 18.585 19.8602C18.3033 19.8462 18.2103 19.9964 18.118 20.6843H16.8883C16.851 20.3537 16.9841 19.896 16.484 19.875C15.9206 19.8511 16.0678 20.3551 16.0227 20.678H14.7782C14.7451 20.0462 14.6521 19.8462 14.3556 19.8651C13.8083 19.9002 13.9527 20.3523 13.9083 20.6927C13.5738 20.7208 13.116 20.5937 13.0949 21.09C13.0702 21.6515 13.5745 21.5076 13.9217 21.5525C13.9217 21.6929 13.9168 21.8172 13.9217 21.9379C13.9344 22.2039 14.1091 22.3815 14.3443 22.378C14.5796 22.3745 14.7486 22.1962 14.7592 21.9274C14.7648 21.801 14.7592 21.6747 14.7592 21.5539H16.0149C16.0516 21.8839 15.9185 22.3422 16.4178 22.3633C16.9813 22.3871 16.8362 21.8846 16.8813 21.5511H18.1307ZM1.8948 15.8523C0.352343 17.5523 0.650972 20.0954 1.911 21.3272C3.32245 19.8574 3.27808 17.268 1.8948 15.8523ZM23.6392 23.605C23.6878 23.5748 23.7174 23.5607 23.7427 23.5404C24.5488 22.8907 25.2768 22.1501 25.912 21.3335C26.0353 21.1763 26.0458 21.0738 25.9169 20.9124C25.2897 20.1111 24.5741 19.3826 23.7836 18.7407C23.737 18.7088 23.6878 18.6811 23.6364 18.6578L23.6392 23.605ZM9.25914 23.6351V18.6347C8.48932 19.2046 7.47017 20.2435 6.94898 20.9636C6.85883 21.0872 6.85742 21.1693 6.95602 21.2795C7.36452 21.7357 7.75472 22.2109 8.17942 22.6518C8.50481 22.9894 8.87247 23.2863 9.25914 23.6372V23.6351ZM10.9551 17.4919C10.7037 17.6436 10.4748 17.7685 10.2628 17.918C10.2261 17.9481 10.1959 17.9852 10.174 18.0272C10.1521 18.0691 10.1389 18.1151 10.1353 18.1623C10.1283 20.1277 10.1283 22.0954 10.1353 24.0654C10.1346 24.1059 10.1422 24.1462 10.1575 24.1837C10.1729 24.2212 10.1958 24.2553 10.2248 24.2837C10.4523 24.4402 10.6945 24.5771 10.9608 24.7386L10.9551 17.4919ZM21.9481 24.7505C22.2165 24.5883 22.4468 24.462 22.6609 24.3125C22.695 24.2841 22.7229 24.2491 22.7428 24.2094C22.7627 24.1698 22.7741 24.1265 22.7764 24.0823C22.7825 22.1057 22.7825 20.1288 22.7764 18.1517C22.7764 18.0893 22.7588 17.9973 22.7165 17.9693C22.4728 17.8071 22.2193 17.6604 21.9418 17.4933L21.9481 24.7505ZM7.22155 19.2439C7.85543 18.7105 8.4696 18.1953 9.07672 17.6695C9.10033 17.6369 9.11595 17.5992 9.12231 17.5595C9.12867 17.5197 9.1256 17.479 9.11334 17.4407C8.99825 17.1208 8.86443 16.8079 8.71259 16.5036C8.58652 16.2629 8.40762 16.0502 8.23436 15.8017C7.37016 16.8406 7.04477 17.9678 7.22155 19.2439Z" fill=""/>
<path d="M15.4085 0C9.25488 0 4.25 4.98783 4.25 11.1198C4.24989 11.6923 4.29392 12.2639 4.38171 12.8297H4.39509C4.63608 12.8011 4.87855 12.7868 5.12124 12.7869C5.19167 12.7869 5.26704 12.7869 5.33888 12.7911C5.24546 12.2395 5.19834 11.6812 5.19801 11.1219V11.1142L5.59806 11.4034C5.67904 11.4626 5.77687 11.4946 5.87732 11.4946C5.97778 11.4946 6.07561 11.4626 6.15659 11.4034L8.7858 9.49977L11.4622 10.672L12.6764 14.3921L11.9235 15.2815C13.9565 14.5225 16.147 14.2799 18.2976 14.5753L18.1427 14.3914L19.3555 10.6713L22.0319 9.49977L24.6597 11.4013C24.7415 11.4607 24.8402 11.4926 24.9414 11.4925C25.0427 11.4931 25.1416 11.4611 25.2232 11.4013L25.6232 11.1121V11.1198C25.6229 13.1192 25.027 15.0736 23.911 16.7351C24.1744 16.9139 24.4327 17.1029 24.6858 17.3023C25.9185 15.475 26.5756 13.3224 26.5726 11.1205C26.5663 4.98783 21.5614 0 15.4085 0ZM14.9338 7.50351L11.7883 9.78053L9.1119 8.60763L8.09276 5.47216C8.06203 5.37691 8.00175 5.29385 7.92062 5.23494C7.83948 5.17603 7.74167 5.14432 7.64129 5.14436H7.16306C8.42941 3.40878 10.2121 2.11476 12.2581 1.44595L12.1074 1.90992C12.0764 2.0051 12.0764 2.10761 12.1074 2.20279C12.1384 2.29797 12.1988 2.38095 12.2799 2.43987L14.9338 4.36032V7.50351ZM23.1743 5.14576C23.0741 5.14573 22.9765 5.17729 22.8954 5.23591C22.8143 5.29454 22.7539 5.37724 22.7228 5.47216L21.7009 8.60903L19.0245 9.78053L15.8797 7.50351V4.36032L18.5343 2.43987C18.6153 2.38121 18.6756 2.29841 18.7063 2.20341C18.7371 2.10841 18.7368 2.00613 18.7054 1.91132L18.5547 1.44736C20.6012 2.11514 22.3842 3.40936 23.6497 5.14576H23.1743Z" fill=""/>
</g>
<defs>
<clipPath id="clip0_2739_12529">
<rect width="27" height="27" fill=""/>
</clipPath>
</defs>
</svg>