<svg width="50" height="50" viewBox="0 0 50 50" fill="none" xmlns="http://www.w3.org/2000/svg">
<path d="M25 50C38.8071 50 50 38.8071 50 25C50 11.1929 38.8071 0 25 0C11.1929 0 0 11.1929 0 25C0 38.8071 11.1929 50 25 50Z" fill="url(#paint0_linear_1187_516)"/>
<path fill-rule="evenodd" clip-rule="evenodd" d="M30.7568 15H17.0449C13.7549 15 11.0781 17.4531 11.0781 20.4688V29.9863C11.0781 33.002 13.7549 35.4551 17.0449 35.4551H38.3076C38.5058 35.455 38.7001 35.401 38.8699 35.2987C39.0396 35.1965 39.1783 35.05 39.2711 34.8749C39.3639 34.6999 39.4072 34.5028 39.3964 34.305C39.3856 34.1071 39.3212 33.9159 39.21 33.752L36.7236 30.082V20.4688C36.7236 17.4531 34.0469 15 30.7568 15ZM20.1332 24.767C20.1332 25.8619 19.2456 26.7495 18.1507 26.7495C17.0557 26.7495 16.1681 25.8619 16.1681 24.767C16.1681 23.672 17.0557 22.7844 18.1507 22.7844C19.2456 22.7844 20.1332 23.672 20.1332 24.767ZM23.7574 26.7495C24.8523 26.7495 25.74 25.8619 25.74 24.767C25.74 23.672 24.8523 22.7844 23.7574 22.7844C22.6625 22.7844 21.7749 23.672 21.7749 24.767C21.7749 25.8619 22.6625 26.7495 23.7574 26.7495ZM31.3467 24.767C31.3467 25.8619 30.4591 26.7495 29.3642 26.7495C28.2692 26.7495 27.3816 25.8619 27.3816 24.767C27.3816 23.672 28.2692 22.7844 29.3642 22.7844C30.4591 22.7844 31.3467 23.672 31.3467 24.767Z" fill="white"/>
<path d="M19.5931 23.4106C19.2316 23.0264 18.7198 22.7852 18.1505 22.7852C17.0556 22.7852 16.168 23.6728 16.168 24.7677C16.168 25.337 16.4092 25.8487 16.7934 26.2103L21.0701 30.487C21.4317 30.8712 21.9435 31.1125 22.5127 31.1125C23.6077 31.1125 24.4953 30.2248 24.4953 29.1299C24.4953 28.5607 24.254 28.0489 23.8698 27.6873L19.5931 23.4106Z" fill="url(#paint1_linear_1187_516)"/>
<path d="M18.1505 26.7502C19.2454 26.7502 20.1331 25.8626 20.1331 24.7677C20.1331 23.6728 19.2454 22.7852 18.1505 22.7852C17.0556 22.7852 16.168 23.6728 16.168 24.7677C16.168 25.8626 17.0556 26.7502 18.1505 26.7502Z" fill="#0EADFC"/>
<path d="M25.2006 23.4106C24.839 23.0264 24.3273 22.7852 23.7579 22.7852C22.663 22.7852 21.7754 23.6728 21.7754 24.7677C21.7754 25.337 22.0166 25.8487 22.4008 26.2103L26.6775 30.487C27.0391 30.8712 27.5509 31.1125 28.1201 31.1125C29.2151 31.1125 30.1027 30.2248 30.1027 29.1299C30.1027 28.5607 29.8614 28.0489 29.4772 27.6873L25.2006 23.4106Z" fill="url(#paint2_linear_1187_516)"/>
<path d="M23.7579 26.7502C24.8529 26.7502 25.7405 25.8626 25.7405 24.7677C25.7405 23.6728 24.8529 22.7852 23.7579 22.7852C22.663 22.7852 21.7754 23.6728 21.7754 24.7677C21.7754 25.8626 22.663 26.7502 23.7579 26.7502Z" fill="#0EADFC"/>
<path d="M30.806 23.4106C30.4445 23.0264 29.9327 22.7852 29.3634 22.7852C28.2685 22.7852 27.3809 23.6728 27.3809 24.7677C27.3809 25.337 27.6221 25.8487 28.0063 26.2103L32.283 30.487C32.6446 30.8712 33.1564 31.1125 33.7256 31.1125C34.8206 31.1125 35.7082 30.2248 35.7082 29.1299C35.7082 28.5607 35.4669 28.0489 35.0827 27.6873L30.806 23.4106Z" fill="url(#paint3_linear_1187_516)"/>
<path d="M29.3634 26.7502C30.4583 26.7502 31.3459 25.8626 31.3459 24.7677C31.3459 23.6728 30.4583 22.7852 29.3634 22.7852C28.2685 22.7852 27.3809 23.6728 27.3809 24.7677C27.3809 25.8626 28.2685 26.7502 29.3634 26.7502Z" fill="#0EADFC"/>
<defs>
<linearGradient id="paint0_linear_1187_516" x1="25" y1="0.180664" x2="25" y2="49.1025" gradientUnits="userSpaceOnUse">
<stop stop-color="#13C5FC"/>
<stop offset="1" stop-color="#088FFD"/>
</linearGradient>
<linearGradient id="paint1_linear_1187_516" x1="22.5607" y1="29.1783" x2="13.9861" y2="20.604" gradientUnits="userSpaceOnUse">
<stop stop-color="#00A2F3" stop-opacity="0"/>
<stop offset="1" stop-color="#0075CD"/>
</linearGradient>
<linearGradient id="paint2_linear_1187_516" x1="28.1677" y1="29.1781" x2="19.5934" y2="20.6037" gradientUnits="userSpaceOnUse">
<stop stop-color="#00A2F3" stop-opacity="0"/>
<stop offset="1" stop-color="#0075CD"/>
</linearGradient>
<linearGradient id="paint3_linear_1187_516" x1="33.7732" y1="29.1782" x2="25.1989" y2="20.6038" gradientUnits="userSpaceOnUse">
<stop stop-color="#00A2F3" stop-opacity="0"/>
<stop offset="1" stop-color="#0075CD"/>
</linearGradient>
</defs>
</svg>
