<svg width="50" height="50" viewBox="0 0 50 50" fill="none" xmlns="http://www.w3.org/2000/svg">
<path d="M44.6503 14.2309C44.3393 13.6211 43.8432 13.1252 43.233 12.8144C42.5382 12.4648 41.825 12.4648 40.6471 12.4648H9.35752C8.17495 12.4648 7.46168 12.4649 6.76687 12.819C6.15576 13.1285 5.65938 13.6247 5.34971 14.2355C5 14.9254 5 15.6153 5 16.8202V20.1729C5 21.3549 5 22.0677 5.34971 22.7576C5.65938 23.3684 6.15576 23.8646 6.76687 24.1741C7.38119 24.4459 8.05197 24.5658 8.72246 24.5237V37.6678C8.72246 39.8984 8.72245 41.1263 9.27922 42.2163C9.76625 43.1786 10.5482 43.9601 11.5109 44.4469C12.6015 45.0034 13.8116 45.0033 16.0617 45.0033H33.9382C36.1699 45.0033 37.3984 45.0034 38.489 44.4469C39.4517 43.9601 40.2336 43.1786 40.7206 42.2163C41.2774 41.1263 41.2775 39.9168 41.2775 37.6678V24.5237C41.9465 24.5667 42.616 24.4468 43.2284 24.1741C43.8396 23.8646 44.336 23.3684 44.6457 22.7576C45 22.0677 45 21.3779 45 20.1729V16.8202C44.9954 15.6383 44.9954 14.9254 44.6503 14.2309ZM7.83903 21.5113C7.78166 21.0676 7.76313 20.6198 7.78376 20.1729V16.8202C7.76451 16.375 7.78148 15.9289 7.83442 15.4865C7.87787 15.3975 7.94884 15.3249 8.03686 15.2795C8.48228 15.2222 8.93192 15.2037 9.38055 15.2243H23.6448V21.7688H9.38055C8.93511 21.7881 8.48877 21.7711 8.04607 21.7182C7.94606 21.6787 7.86302 21.6055 7.81139 21.5113H7.83903ZM12.7855 41.9864C12.3439 41.7612 11.9847 41.4022 11.7594 40.9608C11.5064 40.4641 11.5063 39.4707 11.5063 37.6678V24.5283H23.6402V42.2439H16.0848C14.2534 42.2439 13.2595 42.2439 12.7579 41.9864H12.7855ZM38.2819 40.9654C38.0581 41.4052 37.7004 41.7626 37.2604 41.9864C36.7588 42.2439 35.765 42.2439 33.9612 42.2439H26.4011V24.5283H38.5396V37.6678C38.512 39.4707 38.512 40.4641 38.2543 40.9654H38.2819ZM42.2622 20.1729C42.2812 20.6181 42.2643 21.0642 42.2115 21.5066C42.1669 21.5963 42.0942 21.669 42.0045 21.7136C41.5606 21.7708 41.1125 21.7893 40.6654 21.7688H26.4011V15.2473H40.6654C41.1109 15.2282 41.5571 15.2452 41.9998 15.2979C42.0889 15.3413 42.1615 15.4123 42.2069 15.5003C42.2642 15.9455 42.2827 16.3948 42.2622 16.8432V20.1729Z" fill="#6C7AAB"/>
<path d="M35.1489 6.50391C34.6826 6.02991 34.127 5.65294 33.5141 5.39481C32.9012 5.13668 32.2432 5.00249 31.5782 5C28.1915 5 26.1577 7.46051 24.9936 9.74625C23.834 7.44671 21.8002 5 18.409 5C17.7439 5.00249 17.086 5.13668 16.4731 5.39481C15.8602 5.65294 15.3045 6.02991 14.8383 6.50391C13.8957 7.46333 13.3699 8.75574 13.375 10.1004C13.3691 11.4465 13.895 12.7406 14.8383 13.7015C15.3031 14.1838 15.8596 14.5685 16.4751 14.8331C17.0906 15.0976 17.7528 15.2367 18.4228 15.2422H31.592C32.2571 15.2397 32.9151 15.1055 33.5279 14.8474C34.1408 14.5892 34.6964 14.2123 35.1627 13.7383C36.109 12.779 36.6367 11.4843 36.6305 10.1372C36.6362 9.46374 36.5083 8.79583 36.2539 8.17217C35.9996 7.54851 35.624 6.98146 35.1489 6.50391ZM18.4228 12.4827C18.1239 12.4817 17.8283 12.421 17.5533 12.3041C17.2783 12.1872 17.0295 12.0165 16.8215 11.8021C16.3885 11.3562 16.1474 10.7586 16.1497 10.1372C16.1493 9.51619 16.3902 8.9193 16.8215 8.47233C17.0297 8.25851 17.2787 8.08853 17.5537 7.97242C17.8287 7.85631 18.1242 7.7964 18.4228 7.79625C21.0456 7.79625 22.495 10.6063 23.1714 12.4827H18.4228ZM33.1933 11.8021C32.9856 12.0169 32.7368 12.1879 32.4617 12.3048C32.1866 12.4217 31.8909 12.4822 31.592 12.4827H26.8525C27.5381 10.6063 28.9968 7.79625 31.592 7.79625C31.8906 7.79588 32.1863 7.85555 32.4614 7.97169C32.7365 8.08783 32.9853 8.25809 33.1933 8.47233C33.6259 8.91884 33.8683 9.51564 33.8697 10.1372C33.8606 10.7531 33.6132 11.3415 33.1795 11.779L33.1933 11.8021Z" fill="white"/>
<path d="M35.1489 6.50391C34.6826 6.02991 34.127 5.65294 33.5141 5.39481C32.9012 5.13668 32.2432 5.00249 31.5782 5C28.1915 5 26.1577 7.46051 24.9936 9.74625C23.834 7.44671 21.8002 5 18.409 5C17.7439 5.00249 17.086 5.13668 16.4731 5.39481C15.8602 5.65294 15.3045 6.02991 14.8383 6.50391C13.8957 7.46333 13.3699 8.75574 13.375 10.1004C13.3691 11.4465 13.895 12.7406 14.8383 13.7015C15.3031 14.1838 15.8596 14.5685 16.4751 14.8331C17.0906 15.0976 17.7528 15.2367 18.4228 15.2422H31.592C32.2571 15.2397 32.9151 15.1055 33.5279 14.8474C34.1408 14.5892 34.6964 14.2123 35.1627 13.7383C36.109 12.779 36.6367 11.4843 36.6305 10.1372C36.6362 9.46374 36.5083 8.79583 36.2539 8.17217C35.9996 7.54851 35.624 6.98146 35.1489 6.50391ZM18.4228 12.4827C18.1239 12.4817 17.8283 12.421 17.5533 12.3041C17.2783 12.1872 17.0295 12.0165 16.8215 11.8021C16.3885 11.3562 16.1474 10.7586 16.1497 10.1372C16.1493 9.51619 16.3902 8.9193 16.8215 8.47233C17.0297 8.25851 17.2787 8.08853 17.5537 7.97242C17.8287 7.85631 18.1242 7.7964 18.4228 7.79625C21.0456 7.79625 22.495 10.6063 23.1714 12.4827H18.4228ZM33.1933 11.8021C32.9856 12.0169 32.7368 12.1879 32.4617 12.3048C32.1866 12.4217 31.8909 12.4822 31.592 12.4827H26.8525C27.5381 10.6063 28.9968 7.79625 31.592 7.79625C31.8906 7.79588 32.1863 7.85555 32.4614 7.97169C32.7365 8.08783 32.9853 8.25809 33.1933 8.47233C33.6259 8.91884 33.8683 9.51564 33.8697 10.1372C33.8606 10.7531 33.6132 11.3415 33.1795 11.779L33.1933 11.8021Z" fill="#35C0FF"/>
</svg>
