<svg width="100" height="100" viewBox="0 0 100 100" fill="none" xmlns="http://www.w3.org/2000/svg">
<path d="M13.9687 81.9875C18.225 81.9875 21.6937 78.5188 21.6937 74.2625V30.5125C21.5815 28.5413 20.7194 26.6878 19.2842 25.3319C17.8489 23.9761 15.9494 23.2207 13.975 23.2207C12.0006 23.2207 10.1011 23.9761 8.66583 25.3319C7.2306 26.6878 6.36848 28.5413 6.25625 30.5125L6.25 74.2625C6.25 78.5188 9.7125 81.9875 13.9687 81.9875ZM11.3937 30.5125C11.3937 29.8296 11.665 29.1746 12.148 28.6917C12.6309 28.2088 13.2858 27.9375 13.9687 27.9375C14.6517 27.9375 15.3066 28.2088 15.7896 28.6917C16.2725 29.1746 16.5438 29.8296 16.5438 30.5125V74.2625C16.5438 74.9454 16.2725 75.6004 15.7896 76.0833C15.3066 76.5662 14.6517 76.8375 13.9687 76.8375C13.2858 76.8375 12.6309 76.5662 12.148 76.0833C11.665 75.6004 11.3937 74.9454 11.3937 74.2625V30.5125ZM37.1313 81.9875C41.3875 81.9875 44.85 78.5188 44.85 74.2625V51.1C44.85 46.85 41.3875 43.3813 37.1313 43.3813C32.875 43.3813 29.4125 46.8437 29.4125 51.1V74.2625C29.4125 78.5188 32.875 81.9875 37.1313 81.9875ZM34.5625 51.1C34.5625 50.4171 34.8338 49.7621 35.3167 49.2792C35.7996 48.7963 36.4546 48.525 37.1375 48.525C37.8204 48.525 38.4754 48.7963 38.9583 49.2792C39.4412 49.7621 39.7125 50.4171 39.7125 51.1V74.2625C39.7125 74.9454 39.4412 75.6004 38.9583 76.0833C38.4754 76.5662 37.8204 76.8375 37.1375 76.8375C36.4546 76.8375 35.7996 76.5662 35.3167 76.0833C34.8338 75.6004 34.5625 74.9454 34.5625 74.2625V51.1ZM83.4625 81.9875C87.7188 81.9875 91.1813 78.5188 91.1813 74.2625V58.825C91.1813 54.5687 87.7188 51.1 83.4625 51.1C79.2063 51.1 75.7438 54.5687 75.7438 58.825V74.2625C75.7438 78.5188 79.2063 81.9875 83.4625 81.9875ZM80.8875 58.825C80.8875 58.1421 81.1588 57.4871 81.6417 57.0042C82.1246 56.5213 82.7796 56.25 83.4625 56.25C84.1454 56.25 84.8004 56.5213 85.2833 57.0042C85.7662 57.4871 86.0375 58.1421 86.0375 58.825V74.2625C86.0375 74.9454 85.7662 75.6004 85.2833 76.0833C84.8004 76.5662 84.1454 76.8375 83.4625 76.8375C82.7796 76.8375 82.1246 76.5662 81.6417 76.0833C81.1588 75.6004 80.8875 74.9454 80.8875 74.2625V58.825ZM60.3 81.9875C64.5562 81.9875 68.0188 78.5188 68.0188 74.2625V20.2187C68.0188 15.9687 64.5562 12.5 60.3 12.5C56.0437 12.5 52.5812 15.9625 52.5812 20.2187V74.2625C52.5812 78.5188 56.0437 81.9875 60.3 81.9875ZM57.725 20.2187C57.725 19.5358 57.9963 18.8809 58.4792 18.3979C58.9621 17.915 59.6171 17.6437 60.3 17.6437C60.9829 17.6437 61.6379 17.915 62.1208 18.3979C62.6037 18.8809 62.875 19.5358 62.875 20.2187V74.2625C62.875 74.9454 62.6037 75.6004 62.1208 76.0833C61.6379 76.5662 60.9829 76.8375 60.3 76.8375C59.6171 76.8375 58.9621 76.5662 58.4792 76.0833C57.9963 75.6004 57.725 74.9454 57.725 74.2625V20.2187ZM6.25 87.1312H93.75V92.2812H6.25V87.1312Z" fill="#6C7AAB"/>
</svg>
