<svg fill="none" height="65" viewBox="0 0 65 65" width="65" xmlns="http://www.w3.org/2000/svg"><path d="m5.73393 56.6134c3.16178 0 5.73857-2.8261 5.73857-6.2938v-35.6443c-.0834-1.606-.7238-3.1161-1.78997-4.2208-1.06617-1.10462-2.47728-1.72004-3.94396-1.72004s-2.87779.61542-3.94396 1.72004c-1.066165 1.1047-1.7065978 2.6148-1.78996693 4.2208l-.00464307 35.6443c0 3.4677 2.57214 6.2938 5.73393 6.2938zm-1.91286-41.9381c0-.5564.20153-1.09.56026-1.4835.35874-.3934.84528-.6144 1.3526-.6144s.99386.221 1.35259.6144c.35873.3935.56027.9271.56027 1.4835v35.6443c0 .5564-.20154 1.09-.56027 1.4835-.35873.3934-.84527.6144-1.35259.6144s-.99386-.221-1.3526-.6144c-.35873-.3935-.56026-.9271-.56026-1.4835zm19.11933 41.9381c3.1617 0 5.7339-2.8261 5.7339-6.2938v-18.8711c0-3.4626-2.5722-6.2887-5.7339-6.2887-3.1618 0-5.734 2.821-5.734 6.2887v18.8711c0 3.4677 2.5722 6.2938 5.734 6.2938zm-1.9083-25.1649c0-.5564.2016-1.09.5603-1.4835.3587-.3934.8453-.6144 1.3526-.6144s.9939.221 1.3526.6144c.3587.3935.5603.9271.5603 1.4835v18.8711c0 .5564-.2016 1.09-.5603 1.4835-.3587.3934-.8453.6144-1.3526.6144s-.9939-.221-1.3526-.6144c-.3587-.3935-.5603-.9271-.5603-1.4835zm36.3258 25.1649c3.1617 0 5.7339-2.8261 5.7339-6.2938v-12.5773c0-3.4677-2.5722-6.2938-5.7339-6.2938-3.1618 0-5.734 2.8261-5.734 6.2938v12.5773c0 3.4677 2.5722 6.2938 5.734 6.2938zm-1.9129-18.8711c0-.5564.2015-1.0901.5603-1.4835.3587-.3934.8452-.6145 1.3526-.6145.5073 0 .9938.2211 1.3526.6145.3587.3934.5602.9271.5602 1.4835v12.5773c0 .5564-.2015 1.09-.5602 1.4835-.3588.3934-.8453.6144-1.3526.6144-.5074 0-.9939-.221-1.3526-.6144-.3588-.3935-.5603-.9271-.5603-1.4835zm-15.2936 18.8711c3.1618 0 5.734-2.8261 5.734-6.2938v-44.03092c0-3.46259-2.5722-6.28868-5.734-6.28868s-5.7339 2.82099-5.7339 6.28868v44.03092c0 3.4677 2.5721 6.2938 5.7339 6.2938zm-1.9128-50.32472c0-.5564.2015-1.09002.5602-1.48346.3588-.39343.8453-.61446 1.3526-.61446s.9939.22103 1.3526.61446c.3588.39344.5603.92706.5603 1.48346v44.03092c0 .5564-.2015 1.09-.5603 1.4835-.3587.3934-.8453.6144-1.3526.6144s-.9938-.221-1.3526-.6144c-.3587-.3935-.5602-.9271-.5602-1.4835zm-38.2386 54.51552h65v4.1958h-65z" fill="#6c7aab"/></svg>