<svg fill="none" height="54" viewBox="0 0 54 54" width="54" xmlns="http://www.w3.org/2000/svg"><g fill="#09f"><path d="m24.9688 22.8302c-.1101.1077-.2225.2131-.3303.3232l-2.3888 2.3865-.1054.1007-4.937-4.9393-3.1055 3.0563v-8.9676h8.9488l-3.0446 3.0657c.0422.0469.0656.0773.0937.1054l4.7754 4.7684c.0281.0281.0632.0492.0937.0749z"/><path d="m22.1677 28.3752c.096.0984.1874.1967.2834.2928l2.5177 2.5176-4.9394 4.9394 3.0587 3.1172h-8.9559v-8.9653l3.0798 3.0447c.0281-.0258.0585-.0492.0866-.0773l4.766-4.7754c.0281-.0281.0516-.0632.0773-.0937z"/><path d="m31.8528 25.6328c-.2178-.2201-.4333-.4403-.6511-.6581l-2.0586-2.061-.1007-.103 4.9323-4.9347-3.0634-3.1125h8.9793v8.977l-3.0868-3.0447c-.0285.0228-.0559.0471-.0819.0726l-4.7684 4.766c-.0281.0282-.0492.0633-.0749.0937z"/><path d="m29.0213 31.1809.6394-.63 2.0797-2.0797.1054-.1007 4.9299 4.9323 3.1149-3.0634v8.9794l-8.9769-.0001 3.0446-3.0867c-.0211-.0235-.0445-.0539-.0726-.082l-4.7684-4.766c-.0288-.0276-.0593-.0534-.0913-.0773z"/></g></svg>