<svg width="50" height="50" viewBox="0 0 50 50" fill="none" xmlns="http://www.w3.org/2000/svg">
<g filter="url(#filter0_d_1111_402)">
<path fill-rule="evenodd" clip-rule="evenodd" d="M25 4C26.1046 4 27 4.89543 27 6V12C27 13.1046 26.1046 14 25 14C23.8954 14 23 13.1046 23 12V6C23 4.89543 23.8954 4 25 4ZM15 6.67949C15.9566 6.1272 17.1798 6.45495 17.7321 7.41154L20.7321 12.6077C21.2843 13.5643 20.9566 14.7875 20 15.3397C19.0434 15.892 17.8202 15.5643 17.2679 14.6077L14.2679 9.41153C13.7157 8.45495 14.0434 7.23177 15 6.67949ZM7.67949 14C8.23177 13.0434 9.45495 12.7157 10.4115 13.2679L15.6077 16.2679C16.5643 16.8202 16.892 18.0434 16.3398 19C15.7875 19.9566 14.5643 20.2843 13.6077 19.732L8.41154 16.732C7.45496 16.1798 7.1272 14.9566 7.67949 14ZM5 24C5 22.8955 5.89543 22 7 22H13C14.1046 22 15 22.8955 15 24C15 25.1046 14.1046 26 13 26H7C5.89543 26 5 25.1046 5 24ZM35 24C35 22.8955 35.8954 22 37 22H43C44.1046 22 45 22.8955 45 24C45 25.1046 44.1046 26 43 26H37C35.8954 26 35 25.1046 35 24ZM16.3398 29C16.892 29.9566 16.5643 31.1798 15.6077 31.7321L10.4115 34.7321C9.45495 35.2843 8.23177 34.9566 7.67949 34C7.1272 33.0434 7.45496 31.8202 8.41154 31.268L13.6077 28.268C14.5643 27.7157 15.7875 28.0434 16.3398 29ZM33.6604 29C34.2127 28.0434 35.4358 27.7157 36.3924 28.268L41.5884 31.268C42.545 31.8203 42.8727 33.0435 42.3204 34C41.7681 34.9566 40.545 35.2843 39.5884 34.732L34.3924 31.7321C33.4358 31.1798 33.1081 29.9566 33.6604 29ZM20 32.6602C20.9566 33.2124 21.2843 34.4356 20.7321 35.3922L17.7321 40.5884C17.1798 41.545 15.9566 41.8727 15 41.3205C14.0434 40.7682 13.7157 39.545 14.2679 38.5884L17.2679 33.3922C17.8202 32.4356 19.0434 32.1079 20 32.6602ZM30 32.6602C30.9566 32.1079 32.1798 32.4356 32.7321 33.3922L35.7321 38.5884C36.2843 39.545 35.9566 40.7682 35 41.3205C34.0434 41.8727 32.8202 41.545 32.2679 40.5884L29.2679 35.3922C28.7157 34.4356 29.0434 33.2124 30 32.6602ZM25 34C26.1046 34 27 34.8954 27 36V42C27 43.1046 26.1046 44 25 44C23.8954 44 23 43.1046 23 42V36C23 34.8954 23.8954 34 25 34Z" fill="#4098D8"/>
</g>
<defs>
<filter id="filter0_d_1111_402" x="0" y="0" width="50" height="50" filterUnits="userSpaceOnUse" color-interpolation-filters="sRGB">
<feFlood flood-opacity="0" result="BackgroundImageFix"/>
<feColorMatrix in="SourceAlpha" type="matrix" values="0 0 0 0 0 0 0 0 0 0 0 0 0 0 0 0 0 0 127 0" result="hardAlpha"/>
<feOffset dy="1"/>
<feGaussianBlur stdDeviation="2.5"/>
<feComposite in2="hardAlpha" operator="out"/>
<feColorMatrix type="matrix" values="0 0 0 0 1 0 0 0 0 1 0 0 0 0 1 0 0 0 1 0"/>
<feBlend mode="normal" in2="BackgroundImageFix" result="effect1_dropShadow_1111_402"/>
<feBlend mode="normal" in="SourceGraphic" in2="effect1_dropShadow_1111_402" result="shape"/>
</filter>
</defs>
</svg>
