<svg width="50" height="50" viewBox="0 0 50 50" fill="none" xmlns="http://www.w3.org/2000/svg"> 
<g filter="url(#filter0_ddd_1111_517)">
<path fill-rule="evenodd" clip-rule="evenodd" d="M25 44C36.0458 44 45 35.0458 45 24C45 19.9258 43.7818 16.1361 41.6896 12.9754L25.7889 30.6429C24.2498 32.3531 21.6596 32.6058 19.8188 31.2251L12.5556 25.7778C11.5737 25.0413 11.3747 23.6484 12.1111 22.6667C12.8475 21.6849 14.2404 21.4858 15.2222 22.2222L22.4853 27.6696L38.8089 9.53233C35.2191 6.10482 30.3553 4 25 4C13.9543 4 5 12.9543 5 24C5 35.0458 13.9543 44 25 44Z" fill="#00B31D"/>
</g>
<defs>
<filter id="filter0_ddd_1111_517" x="0" y="0" width="50" height="50" filterUnits="userSpaceOnUse" color-interpolation-filters="sRGB">
<feFlood flood-opacity="0" result="BackgroundImageFix"/>
<feColorMatrix in="SourceAlpha" type="matrix" values="0 0 0 0 0 0 0 0 0 0 0 0 0 0 0 0 0 0 127 0" result="hardAlpha"/>
<feOffset dy="1"/>
<feGaussianBlur stdDeviation="2.5"/>
<feComposite in2="hardAlpha" operator="out"/>
<feColorMatrix type="matrix" values="0 0 0 0 0 0 0 0 0 0.4 0 0 0 0 1 0 0 0 0.34 0"/>
<feBlend mode="normal" in2="BackgroundImageFix" result="effect1_dropShadow_1111_517"/>
<feColorMatrix in="SourceAlpha" type="matrix" values="0 0 0 0 0 0 0 0 0 0 0 0 0 0 0 0 0 0 127 0" result="hardAlpha"/>
<feOffset/>
<feGaussianBlur stdDeviation="1.5"/>
<feComposite in2="hardAlpha" operator="out"/>
<feColorMatrix type="matrix" values="0 0 0 0 1 0 0 0 0 1 0 0 0 0 1 0 0 0 1 0"/>
<feBlend mode="normal" in2="effect1_dropShadow_1111_517" result="effect2_dropShadow_1111_517"/>
<feColorMatrix in="SourceAlpha" type="matrix" values="0 0 0 0 0 0 0 0 0 0 0 0 0 0 0 0 0 0 127 0" result="hardAlpha"/>
<feOffset dy="2"/>
<feGaussianBlur stdDeviation="1"/>
<feComposite in2="hardAlpha" operator="out"/>
<feColorMatrix type="matrix" values="0 0 0 0 1 0 0 0 0 1 0 0 0 0 1 0 0 0 1 0"/>
<feBlend mode="normal" in2="effect2_dropShadow_1111_517" result="effect3_dropShadow_1111_517"/>
<feBlend mode="normal" in="SourceGraphic" in2="effect3_dropShadow_1111_517" result="shape"/>
</filter>
</defs>
</svg>
