<svg width="128" height="128" viewBox="0 0 128 128" fill="none" xmlns="http://www.w3.org/2000/svg"> 
<g clip-path="url(#clip0_4147_1035)">
<g clip-path="url(#clip1_4147_1035)">
<path d="M52.5449 57.6332C52.5575 57.4394 52.4923 57.2483 52.3641 57.1024L46.5597 50.4989C46.4315 50.353 46.2505 50.264 46.0564 50.2515C45.8616 50.2391 45.6715 50.3041 45.5256 50.4323C42.8585 52.7768 40.6447 55.5416 38.9453 58.6501C38.8522 58.8207 38.8304 59.0212 38.885 59.2075C38.9397 59.394 39.0661 59.5511 39.2367 59.6443L46.9514 63.8612C47.0629 63.9223 47.1834 63.9512 47.3022 63.9512C47.5614 63.9512 47.8126 63.8133 47.9457 63.5698C49.0689 61.5152 50.5331 59.6872 52.2974 58.1363C52.4436 58.0083 52.5326 57.8273 52.5449 57.6332Z" fill="#4098D8"/>
<path d="M55.1349 55.1891C55.2665 55.4372 55.5203 55.5786 55.7828 55.5786C55.8986 55.5786 56.0161 55.5511 56.1254 55.493C58.1933 54.3964 60.4177 53.6808 62.7372 53.3661C63.1381 53.3118 63.4192 52.9426 63.3648 52.5416L62.1831 43.8295C62.1288 43.4286 61.7585 43.148 61.3586 43.202C57.8362 43.6797 54.4584 44.7662 51.3192 46.4313C50.9618 46.6209 50.8257 47.0642 51.0151 47.4218L55.1349 55.1891Z" fill="#4098D8"/>
<path d="M45.6971 66.9761L37.2118 64.6739C37.0242 64.6232 36.8242 64.6488 36.6556 64.7454C36.487 64.8421 36.3638 65.0017 36.3128 65.1892C35.6155 67.7604 35.2617 70.4252 35.2617 73.1098C35.2617 73.5692 35.2727 74.0301 35.2955 74.5189C35.3137 74.9116 35.6376 75.2176 36.0268 75.2176C36.0383 75.2176 36.0499 75.2174 36.0613 75.2168L44.844 74.8111C45.038 74.8022 45.2208 74.7164 45.3515 74.5728C45.4824 74.4293 45.551 74.2394 45.5419 74.0454C45.5266 73.7158 45.5192 73.4097 45.5192 73.1098C45.5192 71.3322 45.7525 69.571 46.2126 67.875C46.3182 67.4846 46.0875 67.0822 45.6971 66.9761Z" fill="#4098D8"/>
<path d="M78.5427 45.9058C75.3454 44.3644 71.9294 43.4092 68.3895 43.0661C68.1949 43.0466 68.003 43.1064 67.8529 43.2298C67.7029 43.3533 67.6082 43.5313 67.5894 43.7248L66.7418 52.476C66.7027 52.8786 66.9976 53.2368 67.4004 53.2758C69.7336 53.5018 71.9838 54.131 74.0887 55.1455C74.1888 55.1939 74.2976 55.2183 74.4068 55.2183C74.4883 55.2183 74.57 55.2046 74.6485 55.1773C74.8319 55.1133 74.9824 54.9788 75.0668 54.8038L78.8844 46.8838C79.0603 46.5194 78.9073 46.0814 78.5427 45.9058Z" fill="#4098D8"/>
<path d="M91.4565 58.194C91.5039 58.0055 91.4747 57.8062 91.3748 57.6392C89.5566 54.5975 87.2383 51.9194 84.4845 49.6798C84.3337 49.5573 84.1413 49.4999 83.9472 49.5193C83.754 49.5394 83.5765 49.6351 83.454 49.7859L77.9064 56.6067C77.7839 56.7575 77.7261 56.9508 77.7461 57.144C77.7659 57.3373 77.8618 57.5148 78.0126 57.6375C79.8346 59.119 81.3681 60.8904 82.5706 62.9022C82.7079 63.1316 82.9509 63.2591 83.2003 63.2591C83.3282 63.2591 83.4577 63.2255 83.5754 63.1551L91.122 58.6442C91.2886 58.5444 91.409 58.3826 91.4565 58.194Z" fill="#4098D8"/>
<path d="M94.2553 64.0764C94.1342 63.6902 93.7229 63.4751 93.3371 63.5963L84.9474 66.225C84.5612 66.346 84.3464 66.7571 84.4673 67.1431C85.0694 69.0653 85.3747 71.073 85.3747 73.1106C85.3747 73.4106 85.3672 73.7167 85.3521 74.0462C85.343 74.2402 85.4114 74.4301 85.5424 74.5736C85.6733 74.7173 85.8559 74.803 86.05 74.8119L94.8326 75.2176C94.8442 75.2181 94.8557 75.2184 94.8671 75.2184C95.2562 75.2184 95.5801 74.9123 95.5985 74.5197C95.6211 74.0309 95.6322 73.57 95.6322 73.1106C95.632 70.0314 95.169 66.9919 94.2553 64.0764Z" fill="#4098D8"/>
<path d="M70.7041 78.5417C70.7041 78.4153 70.7 78.2897 70.6933 78.1645L77.7155 66.2627C77.8876 65.9714 77.8445 65.6016 77.6104 65.3576C77.3765 65.1133 77.0088 65.0547 76.7106 65.2139L64.5421 71.7064C64.3077 71.6825 64.071 71.6698 63.8323 71.6698C61.9967 71.6698 60.2711 72.3846 58.9732 73.6825C57.6752 74.9804 56.9604 76.7062 56.9604 78.5418C56.9604 80.3774 57.6754 82.103 58.9732 83.4009C60.2711 84.6989 61.9967 85.4136 63.8323 85.4136C65.6679 85.4136 67.3936 84.6988 68.6914 83.4009C69.9893 82.103 70.7041 80.3772 70.7041 78.5417Z" fill="#4098D8"/>
</g>
<circle cx="63.6856" cy="63.6856" r="62.6856" stroke="#4098D8" stroke-width="2"/>
</g>
<defs>
<clipPath id="clip0_4147_1035">
<rect width="127.37" height="127.37" fill="white"/>
</clipPath>
<clipPath id="clip1_4147_1035">
<rect width="60.3718" height="60.3718" fill="white" transform="translate(35.2617 33.9922)"/>
</clipPath>
</defs>
</svg>
