<svg width="128" height="128" viewBox="0 0 128 128" fill="none" xmlns="http://www.w3.org/2000/svg"> 
<g clip-path="url(#clip0_4147_1019)">
<circle cx="63.6856" cy="63.6856" r="62.6856" stroke="#4098D8" stroke-width="2"/>
<g clip-path="url(#clip1_4147_1019)">
<path d="M73.6322 67.4921C73.4812 66.957 73.005 66.6406 72.3573 66.6406C71.7106 66.6406 71.2337 66.957 71.0503 67.511C70.9134 67.5582 70.9102 67.5598 70.9102 69.1778C70.9102 70.7941 70.9134 70.7957 71.0793 70.8649C71.2345 71.3985 71.7112 71.7148 72.3573 71.7148C73.0043 71.7148 73.4803 71.3984 73.6636 70.8476C73.8005 70.7956 73.8037 70.7941 73.8037 69.1776C73.8037 67.5597 73.8005 67.5582 73.6322 67.4921Z" fill="#4098D8"/>
<path d="M57.9259 59.3218C57.7741 58.7866 57.2972 58.4688 56.6503 58.4688C56.0035 58.4688 55.5266 58.7866 55.344 59.3407C55.2062 59.3878 55.2031 59.3894 55.2031 61.0058C55.2031 62.6237 55.2062 62.6253 55.3731 62.6929C55.5273 63.2281 56.0034 63.5444 56.6502 63.5444C57.2972 63.5444 57.7732 63.228 57.9565 62.6772C58.0935 62.6253 58.0967 62.6237 58.0967 61.0058C58.0968 59.3894 58.0936 59.388 57.9259 59.3218Z" fill="#4098D8"/>
<path d="M90.0401 66.2099C89.7662 65.4922 89.7662 64.6974 90.0401 63.9797L92.264 58.1407C92.7888 56.7635 92.2829 55.2085 91.0506 54.4043L85.8182 50.9875C85.1754 50.5673 84.7086 49.9251 84.5079 49.1838L82.8751 43.1512C82.4903 41.7301 81.1667 40.7684 79.6967 40.8424L73.4564 41.154C72.6883 41.1918 71.9337 40.9463 71.3348 40.4648L66.4691 36.5457C65.3226 35.6202 63.6865 35.6202 62.54 36.5457L57.6744 40.4646C57.0756 40.9462 56.3209 41.1917 55.5528 41.1539L49.3125 40.8423C47.8426 40.7683 46.5189 41.73 46.1341 43.1511L44.5012 49.1837C44.3005 49.925 43.8339 50.5672 43.191 50.9874L37.9586 54.4042C36.7263 55.2084 36.2203 56.7634 36.7444 58.1405L38.9691 63.9796C39.2429 64.6973 39.2429 65.4921 38.9691 66.2098L36.7444 72.0488C36.2203 73.4244 36.7262 74.9809 37.9586 75.7853L43.191 79.2021C43.834 79.6208 44.3006 80.2628 44.5012 81.0057L46.1341 87.0368C46.5189 88.4595 47.8425 89.4196 49.3125 89.3472L55.5528 89.0356C56.3209 88.9962 57.0755 89.2416 57.6744 89.7248L62.54 93.6438C63.6866 94.5677 65.3226 94.5677 66.4691 93.6438L71.3347 89.7248C71.9336 89.2416 72.6883 88.9962 73.4563 89.0356L79.6966 89.3472C81.1666 89.4196 82.4902 88.4595 82.875 87.0368L84.5078 81.0057C84.7085 80.2628 85.1751 79.6208 85.8181 79.2021L91.0505 75.7853C92.2828 74.981 92.7888 73.4244 92.2638 72.0488L90.0401 66.2099ZM56.6506 65.8275C54.6368 65.8275 53.104 64.8579 52.55 63.2322C52.4956 63.0764 52.4499 62.9803 52.4122 62.9001C52.3005 62.6624 52.2627 62.5821 52.2627 61.0052C52.2627 59.4313 52.3005 59.351 52.4122 59.1149C52.4499 59.033 52.4956 58.9371 52.5491 58.7812C53.1039 57.157 54.6368 56.1876 56.6506 56.1876C58.6659 56.1876 60.199 57.157 60.7505 58.7797C60.8055 58.9371 60.8512 59.0346 60.8898 59.1149C61.0024 59.3525 61.0402 59.4328 61.0402 61.0052C61.0402 62.5806 61.0024 62.6609 60.889 62.8985C60.8512 62.9788 60.8057 63.0749 60.7513 63.2306C60.1989 64.8579 58.6659 65.8275 56.6506 65.8275ZM61.1746 75.9521C60.9889 76.3566 60.582 76.6179 60.1374 76.6179H59.3307C58.9396 76.6179 58.58 76.4212 58.3698 76.0922C58.1582 75.7632 58.129 75.3556 58.2919 74.9983L67.8359 54.236C68.0216 53.8315 68.4284 53.5718 68.8739 53.5718H69.6806C70.0717 53.5718 70.4305 53.7671 70.6413 54.0959C70.853 54.4249 70.8822 54.8341 70.7192 55.1898L61.1746 75.9521ZM76.5962 71.0731C76.5576 71.1534 76.5128 71.2495 76.4584 71.4037C75.906 73.031 74.3731 74.0021 72.3577 74.0021C70.3432 74.0021 68.8102 73.0311 68.2571 71.4053C68.2028 71.2495 68.1571 71.1551 68.1194 71.0748C68.0077 70.8372 67.9699 70.7569 67.9699 69.1799C67.9699 67.6044 68.0077 67.5241 68.1186 67.2881C68.1571 67.2079 68.2028 67.1103 68.2564 66.9544C68.8104 65.3302 70.3433 64.3608 72.3579 64.3608C74.3732 64.3608 75.9061 65.3302 76.4578 66.9544C76.5128 67.1119 76.5585 67.2079 76.5962 67.2881C76.7087 67.5257 76.7465 67.606 76.7465 69.1799C76.7465 70.7552 76.7086 70.8355 76.5962 71.0731Z" fill="#4098D8"/>
<circle cx="65.4464" cy="64.1535" r="16.0363" fill="#4098D8"/>
</g>
<path d="M47.6288 66.7172H52.6688V68.6672H47.6288V66.7172ZM47.8088 72.4922H45.3788V61.9922H53.3138V63.9422H47.8088V72.4922ZM54.9588 72.4922V61.9922H59.5038C60.4438 61.9922 61.2538 62.1472 61.9338 62.4572C62.6138 62.7572 63.1388 63.1922 63.5088 63.7622C63.8788 64.3322 64.0638 65.0122 64.0638 65.8022C64.0638 66.5822 63.8788 67.2572 63.5088 67.8272C63.1388 68.3872 62.6138 68.8172 61.9338 69.1172C61.2538 69.4172 60.4438 69.5672 59.5038 69.5672H56.3088L57.3888 68.5022V72.4922H54.9588ZM61.6338 72.4922L59.0088 68.6822H61.6038L64.2588 72.4922H61.6338ZM57.3888 68.7722L56.3088 67.6322H59.3688C60.1188 67.6322 60.6788 67.4722 61.0488 67.1522C61.4188 66.8222 61.6038 66.3722 61.6038 65.8022C61.6038 65.2222 61.4188 64.7722 61.0488 64.4522C60.6788 64.1322 60.1188 63.9722 59.3688 63.9722H56.3088L57.3888 62.8172V68.7722ZM68.2241 66.2222H73.2791V68.1122H68.2241V66.2222ZM68.4041 70.5422H74.1191V72.4922H65.9891V61.9922H73.9241V63.9422H68.4041V70.5422ZM78.2876 66.2222H83.3426V68.1122H78.2876V66.2222ZM78.4676 70.5422H84.1826V72.4922H76.0526V61.9922H83.9876V63.9422H78.4676V70.5422Z" fill="#F8FAFF"/>
</g>
<defs>
<clipPath id="clip0_4147_1019">
<rect width="127.37" height="127.37" fill="white"/>
</clipPath>
<clipPath id="clip1_4147_1019">
<rect width="58.4852" height="58.4852" fill="white" transform="translate(35.2617 35.8516)"/>
</clipPath>
</defs>
</svg>
