<svg width="50" height="50" viewBox="0 0 50 50" fill="none" xmlns="http://www.w3.org/2000/svg">
<path d="M45.9066 22.7293C44.9438 23.5578 44.0205 24.4359 43.0064 25.2071C42.0349 25.9289 41.278 26.8865 40.8125 27.9827C40.2956 29.1853 39.6564 30.3422 39.0921 31.5257C39.0309 31.674 39.0309 31.8394 39.0921 31.9877C39.3252 32.409 39.4435 32.8809 39.4356 33.3587C39.4277 33.8365 39.2941 34.3045 39.0472 34.7185C38.8003 35.1324 38.4484 35.4785 38.0247 35.7242C37.6011 35.9699 37.1196 36.1069 36.626 36.1224L36.5155 36.1491C36.334 37.8557 35.3673 38.8216 33.5759 39.0087C33.3904 40.8375 32.179 41.7423 30.6362 41.8568C30.6225 42.4328 30.4316 42.9917 30.088 43.4622C29.7444 43.9327 29.2637 44.2934 28.7072 44.4982C28.1508 44.7031 27.5438 44.7429 26.9639 44.6124C26.3839 44.4819 25.8574 44.1872 25.4514 43.7658C24.6267 44.6973 23.6165 45.2242 22.3144 44.9111C21.0123 44.5981 20.3218 43.7658 20.0693 42.4715C19.8143 42.4868 19.5587 42.4868 19.3038 42.4715C18.6465 42.4069 18.0329 42.1233 17.5679 41.6692C17.1029 41.2151 16.8154 40.6188 16.7548 39.9823C16.7548 39.7914 16.7548 39.6463 16.4549 39.6005C14.7503 39.3829 13.7717 38.2566 13.8112 36.5996C13.8112 36.5462 13.8112 36.4927 13.8112 36.4202C13.7244 36.3935 13.6375 36.3629 13.5468 36.3438C13.0711 36.2517 12.6271 36.0451 12.2558 35.7431C11.8844 35.4411 11.5976 35.0535 11.4219 34.6161C11.2461 34.1786 11.1871 33.7053 11.2502 33.24C11.3133 32.7746 11.4966 32.3321 11.783 31.9533C11.825 31.9175 11.8586 31.8734 11.8817 31.824C11.9047 31.7747 11.9166 31.7211 11.9166 31.667C11.9166 31.6128 11.9047 31.5592 11.8817 31.5099C11.8586 31.4605 11.825 31.4164 11.783 31.3806C10.6821 29.968 9.60883 28.5363 8.504 27.1313C8.23909 26.8293 7.94293 26.5542 7.62014 26.3105C6.57055 25.4286 5.51306 24.5543 4.46347 23.6762C3.88738 23.1951 3.85189 22.8362 4.33722 22.2559C6.82836 19.2652 9.32739 16.2771 11.8343 13.2916C12.2881 12.7456 12.6235 12.6998 13.239 13.0816C14.5175 13.8452 15.788 14.6622 17.0744 15.4296C17.4545 15.6575 17.8646 15.8347 18.2936 15.9564C19.5603 16.3191 20.8348 16.6475 22.1132 16.9682C22.3216 17.0197 22.5401 17.0197 22.7485 16.9682C23.8652 16.6742 24.9818 16.3802 26.0867 16.0442C26.7744 15.8356 27.4929 15.7376 28.2135 15.7541C29.7405 15.777 31.2715 15.7541 32.7985 15.7541C33.0117 15.7517 33.2203 15.6937 33.4023 15.5861C34.7557 14.7691 36.0973 13.933 37.4428 13.1045C38.1057 12.6998 38.4253 12.7494 38.9027 13.3527C41.144 16.1524 43.3799 18.9649 45.6106 21.7901L45.9303 22.1719L45.9066 22.7293ZM24.4097 38.4093C24.4097 38.4093 24.4492 38.4513 24.4768 38.4551C24.9073 38.5332 25.314 38.7043 25.6666 38.9557C26.0193 39.2071 26.3086 39.5324 26.5131 39.9072C26.7176 40.282 26.8319 40.6966 26.8476 41.1202C26.8633 41.5437 26.7799 41.9652 26.6036 42.3532C26.5887 42.3992 26.5849 42.4478 26.5925 42.4955C26.6 42.5431 26.6186 42.5885 26.647 42.6281C26.8033 42.8136 27.0111 42.952 27.246 43.0271C27.4809 43.1022 27.733 43.1108 27.9728 43.0518C28.1891 42.9989 28.3869 42.8911 28.5458 42.7396C28.7047 42.5881 28.819 42.3983 28.8769 42.1898C28.9348 41.9813 28.9342 41.7617 28.8751 41.5535C28.8161 41.3453 28.7007 41.1562 28.541 41.0055C27.9372 40.3793 27.2941 39.7838 26.6746 39.1691C26.5248 39.0512 26.4217 38.8868 26.3828 38.7038C26.344 38.5208 26.3718 38.3304 26.4615 38.165C26.5248 38.0509 26.6159 37.9536 26.727 37.8814C26.838 37.8093 26.9657 37.7644 27.0987 37.7509C27.2317 37.7373 27.3661 37.7555 27.4903 37.8037C27.6144 37.8519 27.7246 37.9287 27.811 38.0275C28.4344 38.6193 29.0421 39.2263 29.6577 39.8257C29.8096 39.9979 30.0087 40.1251 30.2321 40.1927C30.4555 40.2602 30.694 40.2654 30.9203 40.2075C31.1401 40.154 31.3407 40.0439 31.501 39.8889C31.6612 39.7339 31.7751 39.5398 31.8306 39.3272C31.886 39.1146 31.8809 38.8915 31.8158 38.6815C31.7507 38.4715 31.6281 38.2824 31.4609 38.1344C30.4113 37.0807 29.3341 36.0499 28.2727 35.0076C28.1332 34.8815 28.0014 34.7477 27.8781 34.6067C27.7527 34.4568 27.6883 34.2677 27.697 34.075C27.7057 33.8823 27.787 33.6994 27.9254 33.5606C28.0705 33.4185 28.2655 33.3344 28.4717 33.3252C28.678 33.316 28.8802 33.3823 29.0381 33.511C29.1424 33.5954 29.2413 33.6859 29.3341 33.782C30.4073 34.8358 31.4846 35.8857 32.5539 36.9394C32.711 37.1247 32.92 37.2622 33.1559 37.3354C33.3918 37.4085 33.6445 37.4142 33.8836 37.3518C34.8661 37.0883 35.1266 35.985 34.3729 35.2443C32.6894 33.5899 31.0019 31.9355 29.3104 30.2811C29.2039 30.178 29.046 30.0749 29.0223 29.9527C28.938 29.6904 28.938 29.4095 29.0223 29.1472C29.1084 29.0373 29.2176 28.9463 29.3428 28.8805C29.468 28.8147 29.6063 28.7754 29.7484 28.7654C30.0137 28.7982 30.2576 28.923 30.435 29.1166C32.1435 30.7659 33.8323 32.4344 35.5369 34.0799C35.6507 34.2122 35.792 34.32 35.9516 34.3962C36.1112 34.4724 36.2855 34.5153 36.4633 34.5221C36.6411 34.5289 36.8184 34.4996 36.9838 34.4359C37.1491 34.3722 37.2987 34.2756 37.423 34.1524C37.5448 34.031 37.6392 33.8864 37.7004 33.728C37.7616 33.5695 37.7882 33.4005 37.7786 33.2316C37.7689 33.0626 37.7233 32.8975 37.6444 32.7465C37.5656 32.5955 37.4553 32.4619 37.3204 32.3542C34.1638 29.2999 31.0071 26.2456 27.8504 23.1913C27.6939 23.0546 27.4961 22.9703 27.2862 22.9508C26.3076 22.8668 25.3133 22.8248 24.3505 22.737C24.234 22.7115 24.112 22.7272 24.0064 22.781C23.9008 22.8349 23.8185 22.9236 23.7744 23.0309C23.1668 24.1076 22.542 25.174 21.9001 26.2303C21.5899 26.7646 21.1064 27.185 20.5243 27.4265C19.9423 27.6681 19.2942 27.7173 18.6803 27.5666C18.2414 27.462 17.8338 27.2595 17.4902 26.9753C17.1466 26.691 16.8766 26.3329 16.7017 25.9295C16.5268 25.5262 16.452 25.0888 16.4831 24.6524C16.5142 24.2161 16.6505 23.7928 16.881 23.4166C17.8241 21.7711 18.7987 20.137 19.7615 18.4953C19.8404 18.3617 19.9114 18.2204 20.0061 18.0563C19.2998 17.8654 18.6291 17.6974 17.9662 17.5027C17.8559 17.4584 17.7328 17.4537 17.6193 17.4893C17.5057 17.525 17.409 17.5988 17.3466 17.6974C15.7683 19.5605 14.19 21.4122 12.6116 23.2715L9.97979 26.3754L13.1365 30.5025C13.531 30.1715 14.0092 29.9475 14.5223 29.8534C15.0354 29.7593 15.5651 29.7984 16.0575 29.9668C16.5499 30.1352 16.9873 30.4268 17.3254 30.8119C17.6634 31.1971 17.89 31.662 17.9819 32.1595C18.4091 32.0774 18.8497 32.0864 19.2729 32.186C19.6961 32.2856 20.0918 32.4732 20.4323 32.736C20.7694 33.0037 21.0409 33.3406 21.2271 33.7222C21.4134 34.1038 21.5099 34.5207 21.5095 34.9427C23.5416 35.1107 24.6898 36.5844 24.4097 38.4093ZM37.6637 30.6476C37.8058 30.3765 37.865 30.2658 37.9163 30.1742C38.5515 28.8876 39.1789 27.6009 39.83 26.3219C39.8899 26.2223 39.9135 26.106 39.897 25.9918C39.8806 25.8776 39.825 25.772 39.7392 25.692C37.5401 22.9991 35.3476 20.3024 33.1616 17.6019C33.0976 17.5121 33.0103 17.4401 32.9085 17.3932C32.8067 17.3463 32.6939 17.3261 32.5815 17.3347C30.9558 17.3347 29.3341 17.3347 27.7084 17.3347C27.4418 17.3385 27.1767 17.3744 26.9192 17.4416C25.2028 17.915 23.4942 18.4075 21.7896 18.8733C21.6536 18.9058 21.5266 18.9667 21.4175 19.0518C21.3084 19.1369 21.22 19.2441 21.1583 19.3658C20.7637 20.0836 20.3297 20.7899 19.9154 21.5038C19.3827 22.4086 18.8461 23.3096 18.337 24.2259C18.2387 24.3775 18.1767 24.5484 18.1553 24.7262C18.134 24.904 18.1539 25.0841 18.2136 25.2535C18.2734 25.4228 18.3714 25.5772 18.5006 25.7052C18.6298 25.8332 18.7869 25.9318 18.9605 25.9936C19.2553 26.1008 19.581 26.0972 19.8732 25.9834C20.1654 25.8696 20.4029 25.6539 20.5388 25.3789C21.2688 24.142 21.9988 22.9049 22.713 21.6603C22.7977 21.4791 22.9407 21.3293 23.1205 21.233C23.3004 21.1367 23.5076 21.0991 23.7113 21.1258C25.0844 21.2289 26.4734 21.3167 27.8347 21.4007C28.2029 21.4218 28.5481 21.5806 28.7974 21.8436C31.6542 24.623 34.5163 27.3986 37.3836 30.1704C37.4968 30.3191 37.5934 30.4791 37.6716 30.6476H37.6637ZM12.7419 14.6851L5.94316 22.8324L8.83944 25.2415L16.0642 16.7276L12.7419 14.6851ZM43.9495 22.3208L37.8689 14.6851L34.5505 16.7315C36.7325 19.4231 38.8909 22.0765 41.0532 24.749L43.9495 22.3208ZM16.8021 38.0275C17.0124 37.9915 17.2126 37.9135 17.39 37.7985C18.1516 37.1036 18.9131 36.3973 19.6115 35.6452C19.8074 35.4101 19.902 35.111 19.8755 34.8101C19.8491 34.5092 19.7036 34.2299 19.4695 34.0302C19.2483 33.828 18.9572 33.7128 18.6529 33.7072C18.3487 33.7015 18.0532 33.8058 17.8241 33.9997C17.0981 34.6602 16.3957 35.3397 15.713 36.046C15.5481 36.2176 15.4439 36.4355 15.4156 36.6682C15.3872 36.9009 15.4361 37.1363 15.5553 37.3403C15.6663 37.5665 15.8457 37.7548 16.0698 37.8803C16.2938 38.0057 16.5519 38.0624 16.81 38.0428L16.8021 38.0275ZM18.2778 39.6387C18.2983 39.8826 18.385 40.117 18.5291 40.3181C18.6732 40.5192 18.8697 40.6799 19.0986 40.784C19.321 40.8909 19.5725 40.9274 19.8175 40.8883C20.0625 40.8493 20.2886 40.7366 20.4638 40.5664C21.1346 39.9479 21.7936 39.3141 22.4368 38.6575C22.558 38.5449 22.6545 38.4097 22.7204 38.2601C22.7863 38.1106 22.8203 37.9496 22.8203 37.787C22.8203 37.6244 22.7863 37.4634 22.7204 37.3139C22.6545 37.1643 22.558 37.0291 22.4368 36.9165C22.3165 36.8034 22.1739 36.7149 22.0175 36.6564C21.8611 36.5978 21.6941 36.5704 21.5265 36.5758C21.3589 36.5811 21.1941 36.6191 21.042 36.6875C20.89 36.7559 20.7537 36.8533 20.6414 36.9738C20.0061 37.5732 19.3669 38.1688 18.7671 38.7987C18.5729 39.0648 18.4114 39.3518 18.2857 39.6539L18.2778 39.6387ZM25.1949 40.9978C25.173 40.8123 25.1019 40.6353 24.9885 40.4841C24.8751 40.333 24.7233 40.2127 24.5478 40.135C24.349 40.0145 24.1159 39.9581 23.882 39.9738C23.648 39.9896 23.4252 40.0768 23.2457 40.2228C22.7773 40.6028 22.343 41.0204 21.9475 41.4712C21.7928 41.651 21.7013 41.8737 21.6864 42.1072C21.6715 42.3406 21.734 42.5726 21.8646 42.7693C21.9712 42.97 22.1367 43.1358 22.3402 43.2458C22.5438 43.3558 22.7764 43.4052 23.0089 43.3878C23.7941 43.3802 25.1989 41.9676 25.1989 41.0131L25.1949 40.9978ZM15.1094 31.3806C14.8511 31.4414 14.6046 31.542 14.3794 31.6784C13.9237 32.0531 13.4977 32.4602 13.1049 32.8963C12.9217 33.1215 12.8298 33.4037 12.8465 33.6899C12.8633 33.976 12.9874 34.2464 13.1956 34.4502C13.3899 34.663 13.6589 34.7985 13.9506 34.8302C14.2422 34.862 14.5357 34.7878 14.7739 34.622C15.2674 34.2213 15.7194 33.7751 16.1234 33.2896C16.2688 33.1116 16.353 32.8941 16.3643 32.6675C16.3756 32.4409 16.3135 32.2166 16.1866 32.0258C16.0764 31.8403 15.9202 31.6842 15.7322 31.5716C15.5441 31.4589 15.3301 31.3933 15.1094 31.3806Z" fill="#6C7AAB"/>
<path d="M29.3721 14.3702C29.0998 14.1641 28.792 14.0342 28.6815 13.8128C28.6172 13.561 28.6254 13.2969 28.7052 13.0492C28.7289 12.9347 28.871 12.8431 28.9657 12.7515C30.7308 11.041 32.4959 9.33445 34.261 7.63168C34.3979 7.48778 34.5646 7.37332 34.7502 7.29571C34.9042 7.23432 35.0753 7.22547 35.2352 7.27056C35.3951 7.31566 35.5343 7.41204 35.6301 7.54388C35.7402 7.66303 35.8069 7.81388 35.8197 7.97322C35.8325 8.13257 35.7909 8.29159 35.7012 8.4258C35.6197 8.54756 35.5229 8.65912 35.4132 8.75796C33.6533 10.4684 31.8882 12.1737 30.1178 13.8739C29.8835 14.0586 29.6341 14.2245 29.3721 14.3702Z" fill="#35C0FF"/>
<path d="M21.3346 13.3121C21.3346 14.0299 20.7072 14.4193 20.1745 14.175C20.0651 14.1236 19.9652 14.0552 19.8786 13.9726C18.0372 12.191 16.205 10.4182 14.382 8.65434C14.3043 8.58024 14.2367 8.49686 14.1808 8.40619C14.0909 8.2563 14.0564 8.08129 14.0829 7.90992C14.1095 7.73855 14.1954 7.581 14.3267 7.46316C14.4522 7.33944 14.6175 7.26072 14.7953 7.2399C14.9732 7.21909 15.153 7.25743 15.3054 7.34863C15.4188 7.42092 15.5233 7.50547 15.617 7.60062C17.3927 9.31866 19.1683 11.0367 20.936 12.7547C21.0878 12.9272 21.2213 13.1139 21.3346 13.3121Z" fill="#35C0FF"/>
<path d="M25.7665 11.2298C25.7665 11.9437 25.7665 12.6539 25.7665 13.3678C25.7782 13.4798 25.7653 13.5929 25.7286 13.6997C25.6919 13.8065 25.6323 13.9046 25.5536 13.9875C25.475 14.0704 25.3792 14.1363 25.2724 14.1809C25.1655 14.2254 25.0502 14.2476 24.9339 14.2459C24.8224 14.2417 24.7129 14.2156 24.6121 14.1692C24.5113 14.1228 24.4213 14.0571 24.3475 13.9761C24.2737 13.8951 24.2177 13.8004 24.1829 13.6978C24.148 13.5952 24.135 13.4868 24.1447 13.3793C24.1447 11.9336 24.1447 10.484 24.1447 9.0307C24.1367 8.9216 24.1516 8.81206 24.1886 8.70869C24.2255 8.60531 24.2837 8.51024 24.3597 8.42924C24.4357 8.34824 24.5278 8.283 24.6306 8.23742C24.7333 8.19184 24.8446 8.16688 24.9576 8.16406C25.0704 8.16492 25.1818 8.18793 25.2851 8.23171C25.3884 8.27549 25.4814 8.33912 25.5585 8.41873C25.6356 8.49835 25.6952 8.59229 25.7337 8.69487C25.7722 8.79744 25.7887 8.9065 25.7823 9.01544C25.7744 9.75229 25.7665 10.4929 25.7665 11.2298Z" fill="#35C0FF"/>
<path d="M24.9386 6.56533C24.7321 6.55689 24.5364 6.47374 24.3903 6.33232C24.2441 6.19091 24.1582 6.00156 24.1495 5.80175C24.1484 5.6965 24.169 5.59211 24.21 5.49463C24.2511 5.39715 24.3117 5.30852 24.3884 5.23392C24.4651 5.15932 24.5565 5.10022 24.657 5.06006C24.7576 5.0199 24.8654 4.9995 24.9742 5.00001C25.0833 5.00098 25.1911 5.023 25.2913 5.06479C25.3916 5.10658 25.4822 5.16728 25.5579 5.24336C25.6336 5.31944 25.6928 5.40936 25.7322 5.50786C25.7715 5.60637 25.7901 5.71146 25.787 5.81702C25.7738 6.02394 25.6778 6.21777 25.5195 6.35744C25.3611 6.49712 25.1528 6.57167 24.9386 6.56533Z" fill="#35C0FF"/>
</svg>
