<svg width="128" height="128" viewBox="0 0 128 128" fill="none" xmlns="http://www.w3.org/2000/svg"> 
<g clip-path="url(#clip0_4147_1027)">
<g clip-path="url(#clip1_4147_1027)">
<path d="M65.4606 75.8143C63.2879 80.2289 63.8851 82.5934 67.8826 85.7929C66.6034 89.457 66.6646 90.0903 68.621 93.1726C60.4802 98.9149 48.502 96.3252 43.6956 87.8009C39.717 80.7637 40.5023 73.4122 42.4823 66.0748C43.4887 62.3217 44.8337 58.6764 46.2164 55.0499C47.5236 51.7646 47.5102 48.1029 46.1787 44.8273C45.8591 44.0342 45.5874 43.2227 45.3651 42.3971C44.7302 39.9294 45.8354 38.3766 48.2997 38.8739C50.2371 39.2522 52.0237 40.1808 53.4447 41.548C56.7085 44.968 57.1036 49.4624 57.1459 53.9662C57.1882 57.8554 57.207 57.8554 61.0399 56.9218C71.9976 54.2477 82.9554 51.5454 93.9319 48.9464C95.0653 48.679 96.5844 48.5898 97.4779 49.1387C98.3715 49.6876 99.4061 51.203 99.3356 52.2163C99.265 53.2297 98.0846 54.6277 97.0688 55.0312C93.9507 56.2181 90.6822 57.011 87.4702 57.9352C80.7403 59.8727 74.0199 61.8385 67.2712 63.7056C64.4777 64.475 62.098 65.5822 61.6607 68.8146C61.2092 71.9626 62.6671 74.1723 65.4606 75.8143Z" fill="#4098D8"/>
<path d="M83.8292 66.958C83.7164 68.5859 82.9404 70.0966 80.9322 70.6548C76.6667 71.8418 72.4059 73.0334 68.1121 74.1124C66.104 74.6144 64.2323 73.2445 63.5786 71.0489C62.9249 68.8533 63.7855 66.6765 65.8124 66.0666C70.1955 64.7483 74.6163 63.5285 79.0699 62.4542C81.506 61.8772 83.7681 64.0024 83.8292 66.958Z" fill="#4098D8"/>
<path d="M70.8468 84.1387C68.2084 84.1715 66.4637 82.7312 66.1439 80.6154C65.8241 78.4995 66.3602 76.7496 68.4953 76.0975C72.8659 74.7558 77.2741 73.5407 81.7199 72.4523C83.855 71.9268 85.5997 73.2264 86.2817 75.4407C86.893 77.4205 86.1923 79.7052 84.2829 80.3245C79.5988 81.8164 74.896 82.9939 70.8468 84.1387Z" fill="#4098D8"/>
<path d="M86.5282 87.0426C85.9921 87.5727 85.1502 89.0458 83.9463 89.4587C80.4332 90.6644 76.7838 91.4807 73.1673 92.3767C71.0604 92.8975 69.4049 91.8325 68.9347 89.8293C68.5161 88.0137 69.499 86.4796 71.573 85.8885C75.1535 84.8658 78.7433 83.8743 82.3426 82.9141C84.7411 82.2714 86.4529 83.6038 86.5282 87.0426Z" fill="#4098D8"/>
<path d="M75.0636 30.2656C75.4493 31.2414 76.1171 32.0765 75.929 32.6113C74.8285 35.6608 73.5775 38.668 72.2278 41.6189C72.0208 42.0881 70.9298 42.4165 70.3466 42.2992C69.9375 42.2147 69.3214 41.1169 69.4672 40.7228C70.6335 37.6124 71.9315 34.5489 73.2718 31.5042C73.4552 31.1054 74.0995 30.9177 75.0636 30.2656Z" fill="#4098D8"/>
<path d="M83.4104 37.2891C83.7913 37.5612 84.4309 37.7817 84.5626 38.1757C84.6543 38.4516 84.6841 38.7441 84.65 39.0327C84.6158 39.3213 84.5186 39.5989 84.3651 39.8459C82.2488 42.0931 80.0854 44.3028 77.8092 46.4139C77.4283 46.7658 76.309 46.7048 75.8011 46.3905C75.4578 46.184 75.2885 44.908 75.5754 44.603C77.7763 42.2245 80.1042 39.9632 82.4134 37.6878C82.6109 37.4861 82.9683 37.4439 83.4104 37.2891Z" fill="#4098D8"/>
<path d="M65.1839 35.3629C65.1839 36.836 65.325 38.3326 65.1181 39.7729C65.024 40.4203 64.2151 40.9598 63.7308 41.5509C63.2181 40.9927 62.2964 40.4531 62.2634 39.8714C62.1153 36.927 62.1153 33.9771 62.2634 31.0327C62.2964 30.4228 63.1664 29.8552 63.6508 29.2734C64.1634 29.9068 65.0005 30.4838 65.1228 31.1829C65.3532 32.5387 65.1886 33.9649 65.1839 35.3629Z" fill="#4098D8"/>
</g>
<circle cx="63.6856" cy="63.6856" r="62.6856" stroke="#4098D8" stroke-width="2"/>
</g>
<defs>
<clipPath id="clip0_4147_1027">
<rect width="127.37" height="127.37" fill="white"/>
</clipPath>
<clipPath id="clip1_4147_1027">
<rect width="58.4852" height="66.975" fill="white" transform="translate(40.8359 29.2734)"/>
</clipPath>
</defs>
</svg>
