<svg width="128" height="128" viewBox="0 0 128 128" fill="none" xmlns="http://www.w3.org/2000/svg"> 
<g clip-path="url(#clip0_4147_1018)">
<circle cx="63.6856" cy="63.6856" r="62.6856" stroke="#4098D8" stroke-width="2"/>
<g clip-path="url(#clip1_4147_1018)">
<path d="M72.601 67.4921C72.45 66.957 71.9738 66.6406 71.3261 66.6406C70.6793 66.6406 70.2024 66.957 70.0191 67.511C69.8821 67.5582 69.8789 67.5598 69.8789 69.1778C69.8789 70.7941 69.8821 70.7957 70.0481 70.8649C70.2032 71.3985 70.68 71.7148 71.3261 71.7148C71.9731 71.7148 72.4491 71.3984 72.6324 70.8476C72.7692 70.7956 72.7724 70.7941 72.7724 69.1776C72.7724 67.5597 72.7692 67.5582 72.601 67.4921Z" fill="#4098D8"/>
<path d="M56.8946 59.3218C56.7428 58.7866 56.2659 58.4688 55.619 58.4688C54.9723 58.4688 54.4954 58.7866 54.3127 59.3407C54.175 59.3878 54.1719 59.3894 54.1719 61.0058C54.1719 62.6237 54.175 62.6253 54.3418 62.6929C54.4961 63.2281 54.9722 63.5444 55.6189 63.5444C56.2659 63.5444 56.7419 63.228 56.9252 62.6772C57.0622 62.6253 57.0654 62.6237 57.0654 61.0058C57.0655 59.3894 57.0623 59.388 56.8946 59.3218Z" fill="#4098D8"/>
<path d="M89.0089 66.2099C88.735 65.4922 88.735 64.6974 89.0089 63.9797L91.2327 58.1407C91.7576 56.7635 91.2517 55.2085 90.0194 54.4043L84.787 50.9875C84.1441 50.5673 83.6774 49.9251 83.4767 49.1838L81.8439 43.1512C81.4591 41.7301 80.1355 40.7684 78.6655 40.8424L72.4251 41.154C71.6571 41.1918 70.9025 40.9463 70.3036 40.4648L65.4379 36.5457C64.2914 35.6202 62.6553 35.6202 61.5087 36.5457L56.6432 40.4646C56.0444 40.9462 55.2897 41.1917 54.5216 41.1539L48.2813 40.8423C46.8114 40.7683 45.4877 41.73 45.1028 43.1511L43.4699 49.1837C43.2692 49.925 42.8026 50.5672 42.1597 50.9874L36.9274 54.4042C35.6951 55.2084 35.189 56.7634 35.7131 58.1405L37.9378 63.9796C38.2116 64.6973 38.2116 65.4921 37.9378 66.2098L35.7131 72.0488C35.189 73.4244 35.6949 74.9809 36.9274 75.7853L42.1597 79.2021C42.8027 79.6208 43.2694 80.2628 43.4699 81.0057L45.1028 87.0368C45.4877 88.4595 46.8112 89.4196 48.2813 89.3472L54.5216 89.0356C55.2897 88.9962 56.0443 89.2416 56.6432 89.7248L61.5087 93.6438C62.6554 94.5677 64.2914 94.5677 65.4379 93.6438L70.3035 89.7248C70.9024 89.2416 71.6571 88.9962 72.425 89.0356L78.6654 89.3472C80.1354 89.4196 81.4589 88.4595 81.8438 87.0368L83.4766 81.0057C83.6773 80.2628 84.1439 79.6208 84.7869 79.2021L90.0193 75.7853C91.2516 74.981 91.7576 73.4244 91.2326 72.0488L89.0089 66.2099ZM55.6193 65.8275C53.6056 65.8275 52.0728 64.8579 51.5187 63.2322C51.4644 63.0764 51.4187 62.9803 51.381 62.9001C51.2693 62.6624 51.2315 62.5821 51.2315 61.0052C51.2315 59.4313 51.2693 59.351 51.381 59.1149C51.4187 59.033 51.4644 58.9371 51.5178 58.7812C52.0726 57.157 53.6056 56.1876 55.6193 56.1876C57.6347 56.1876 59.1677 57.157 59.7192 58.7797C59.7743 58.9371 59.82 59.0346 59.8586 59.1149C59.9711 59.3525 60.0089 59.4328 60.0089 61.0052C60.0089 62.5806 59.9711 62.6609 59.8578 62.8985C59.82 62.9788 59.7744 63.0749 59.72 63.2306C59.1676 64.8579 57.6347 65.8275 55.6193 65.8275ZM60.1434 75.9521C59.9576 76.3566 59.5507 76.6179 59.1062 76.6179H58.2995C57.9084 76.6179 57.5488 76.4212 57.3386 76.0922C57.1269 75.7632 57.0978 75.3556 57.2607 74.9983L66.8046 54.236C66.9904 53.8315 67.3971 53.5718 67.8426 53.5718H68.6493C69.0404 53.5718 69.3992 53.7671 69.6101 54.0959C69.8218 54.4249 69.851 54.8341 69.688 55.1898L60.1434 75.9521ZM75.565 71.0731C75.5263 71.1534 75.4816 71.2495 75.4272 71.4037C74.8748 73.031 73.3418 74.0021 71.3265 74.0021C69.312 74.0021 67.779 73.0311 67.2259 71.4053C67.1715 71.2495 67.1258 71.1551 67.0881 71.0748C66.9764 70.8372 66.9386 70.7569 66.9386 69.1799C66.9386 67.6044 66.9764 67.5241 67.0873 67.2881C67.1258 67.2079 67.1715 67.1103 67.2251 66.9544C67.7791 65.3302 69.3121 64.3608 71.3266 64.3608C73.3419 64.3608 74.8749 65.3302 75.4265 66.9544C75.4816 67.1119 75.5273 67.2079 75.565 67.2881C75.6775 67.5257 75.7153 67.606 75.7153 69.1799C75.7153 70.7552 75.6774 70.8355 75.565 71.0731Z" fill="#4098D8"/>
</g>
</g>
<defs>
<clipPath id="clip0_4147_1018">
<rect width="127.37" height="127.37" fill="white"/>
</clipPath>
<clipPath id="clip1_4147_1018">
<rect width="58.4852" height="58.4852" fill="white" transform="translate(34.2305 35.8516)"/>
</clipPath>
</defs>
</svg>
