<svg width="30" height="30" viewBox="0 0 30 30" fill="none" xmlns="http://www.w3.org/2000/svg">
<path d="M20.625 13.75H9.375C9.21084 13.75 9.04827 13.7177 8.8966 13.6549C8.74492 13.5921 8.6071 13.5001 8.49102 13.384C8.37494 13.2679 8.28287 13.1301 8.22006 12.9784C8.15726 12.8267 8.12496 12.6642 8.125 12.5V8.125C8.125 6.30164 8.84933 4.55295 10.1386 3.26364C11.428 1.97433 13.1766 1.25 15 1.25C16.8234 1.25 18.572 1.97433 19.8614 3.26364C21.1507 4.55295 21.875 6.30164 21.875 8.125V12.5C21.875 12.6642 21.8427 12.8267 21.7799 12.9784C21.7171 13.1301 21.6251 13.2679 21.509 13.384C21.3929 13.5001 21.2551 13.5921 21.1034 13.6549C20.9517 13.7177 20.7892 13.75 20.625 13.75ZM10.625 11.25H19.375V8.125C19.375 6.96468 18.9141 5.85188 18.0936 5.03141C17.2731 4.21094 16.1603 3.75 15 3.75C13.8397 3.75 12.7269 4.21094 11.9064 5.03141C11.0859 5.85188 10.625 6.96468 10.625 8.125V11.25Z" fill="url(#paint0_linear_1470_2932)"/>
<path d="M21.25 11.25H8.75C7.42435 11.2514 6.1534 11.7787 5.21603 12.716C4.27865 13.6534 3.75141 14.9244 3.75 16.25V23.75C3.75141 25.0756 4.27865 26.3466 5.21603 27.284C6.1534 28.2213 7.42435 28.7486 8.75 28.75H21.25C22.5756 28.7486 23.8466 28.2213 24.784 27.284C25.7213 26.3466 26.2486 25.0756 26.25 23.75V16.25C26.2486 14.9244 25.7213 13.6534 24.784 12.716C23.8466 11.7787 22.5756 11.2514 21.25 11.25ZM15 21.25C14.5055 21.25 14.0222 21.1034 13.6111 20.8287C13.2 20.554 12.8795 20.1635 12.6903 19.7067C12.5011 19.2499 12.4516 18.7472 12.548 18.2623C12.6445 17.7773 12.8826 17.3319 13.2322 16.9822C13.5819 16.6326 14.0273 16.3945 14.5123 16.298C14.9972 16.2016 15.4999 16.2511 15.9567 16.4403C16.4135 16.6295 16.804 16.95 17.0787 17.3611C17.3534 17.7722 17.5 18.2555 17.5 18.75C17.5 19.413 17.2366 20.0489 16.7677 20.5177C16.2989 20.9866 15.663 21.25 15 21.25Z" fill="url(#paint1_linear_1470_2932)"/>
<defs>
<linearGradient id="paint0_linear_1470_2932" x1="15" y1="1.25" x2="15" y2="13.75" gradientUnits="userSpaceOnUse">
<stop stop-color="#5558FF"/>
<stop offset="1" stop-color="#00C0FF"/>
</linearGradient>
<linearGradient id="paint1_linear_1470_2932" x1="15" y1="11.25" x2="15" y2="28.75" gradientUnits="userSpaceOnUse">
<stop stop-color="#5558FF"/>
<stop offset="1" stop-color="#00C0FF"/>
</linearGradient>
</defs>
</svg>
