<svg width="70" height="70" viewBox="0 0 70 70" fill="none" xmlns="http://www.w3.org/2000/svg"> 
<g filter="url(#filter0_d_5534_3064)">
<path fill-rule="evenodd" clip-rule="evenodd" d="M35 4C36.6569 4 38 5.34314 38 7V16C38 17.6568 36.6569 19 35 19C33.3431 19 32 17.6568 32 16V7C32 5.34314 33.3431 4 35 4ZM20 8.01923C21.4349 7.1908 23.2697 7.68243 24.0981 9.11731L28.5981 16.9115C29.4265 18.3464 28.9349 20.1812 27.5 21.0096C26.0651 21.838 24.2303 21.3464 23.4019 19.9115L18.9019 12.1173C18.0735 10.6824 18.5651 8.84765 20 8.01923ZM9.01923 19C9.84766 17.5651 11.6824 17.0735 13.1173 17.9019L20.9115 22.4019C22.3464 23.2303 22.8381 25.0651 22.0096 26.5C21.1812 27.9349 19.3464 28.4265 17.9116 27.5981L10.1173 23.0981C8.68243 22.2696 8.19081 20.4349 9.01923 19ZM5 34C5 32.3432 6.34315 31 8 31H17C18.6569 31 20 32.3432 20 34C20 35.6569 18.6569 37 17 37H8C6.34315 37 5 35.6569 5 34ZM50 34C50 32.3432 51.3431 31 53 31H62C63.6569 31 65 32.3432 65 34C65 35.6569 63.6569 37 62 37H53C51.3431 37 50 35.6569 50 34ZM22.0096 41.5C22.8381 42.9349 22.3464 44.7697 20.9115 45.5981L13.1173 50.0981C11.6824 50.9265 9.84766 50.4349 9.01923 49C8.19081 47.5651 8.68243 45.7304 10.1173 44.9019L17.9116 40.402C19.3464 39.5735 21.1812 40.0651 22.0096 41.5ZM47.9905 41.5C48.819 40.0651 50.6538 39.5735 52.0886 40.402L59.8826 44.902C61.3175 45.7304 61.8091 47.5652 60.9807 49.0001C60.1522 50.4349 58.3174 50.9265 56.8826 50.0981L49.0886 45.5981C47.6537 44.7696 47.1621 42.9349 47.9905 41.5ZM27.5 46.9902C28.9349 47.8187 29.4265 49.6534 28.5981 51.0883L24.0981 58.8826C23.2697 60.3175 21.4349 60.8091 20 59.9807C18.5651 59.1523 18.0735 57.3175 18.9019 55.8826L23.4019 48.0883C24.2303 46.6534 26.0651 46.1618 27.5 46.9902ZM42.5 46.9902C43.9349 46.1618 45.7697 46.6534 46.5981 48.0883L51.0981 55.8826C51.9265 57.3175 51.4349 59.1523 50 59.9807C48.5651 60.8091 46.7303 60.3175 45.9019 58.8826L41.4019 51.0883C40.5735 49.6534 41.0651 47.8187 42.5 46.9902ZM35 49C36.6569 49 38 50.3432 38 52V61C38 62.6569 36.6569 64 35 64C33.3431 64 32 62.6569 32 61V52C32 50.3432 33.3431 49 35 49Z" fill="#4098D8"/>
</g>
<defs>
<filter id="filter0_d_5534_3064" x="0" y="0" width="70" height="70" filterUnits="userSpaceOnUse" color-interpolation-filters="sRGB">
<feFlood flood-opacity="0" result="BackgroundImageFix"/>
<feColorMatrix in="SourceAlpha" type="matrix" values="0 0 0 0 0 0 0 0 0 0 0 0 0 0 0 0 0 0 127 0" result="hardAlpha"/>
<feOffset dy="1"/>
<feGaussianBlur stdDeviation="2.5"/>
<feComposite in2="hardAlpha" operator="out"/>
<feColorMatrix type="matrix" values="0 0 0 0 1 0 0 0 0 1 0 0 0 0 1 0 0 0 1 0"/>
<feBlend mode="normal" in2="BackgroundImageFix" result="effect1_dropShadow_5534_3064"/>
<feBlend mode="normal" in="SourceGraphic" in2="effect1_dropShadow_5534_3064" result="shape"/>
</filter>
</defs>
</svg>
