<svg fill="none" height="31" viewBox="0 0 31 31" width="31" xmlns="http://www.w3.org/2000/svg"><path d="m15.6372 10.8593c-.4253-.0019-.8327-.1733-1.1335-.4771-.3008-.3037-.4706-.71512-.4724-1.14466-.0001-.43143.1687-.8454.4695-1.15179.3007-.30639.7092-.48039 1.1364-.48413.2103-.00187.4188.03833.6136.11829.1947.07995.3719.19806.5212.34753.1493.14946.2678.32731.3487.52328s.1225.40618.1225.61849c.0037.21534-.0351.42928-.1141.62932-.079.20007-.1967.38217-.3462.53577-.1496.1536-.3278.2756-.5245.3589s-.4079.1261-.6212.1261z" fill="#fff"/><path d="m15.6372 10.8593c-.4253-.0019-.8327-.1733-1.1335-.4771-.3008-.3037-.4706-.71512-.4724-1.14466-.0001-.43143.1687-.8454.4695-1.15179.3007-.30639.7092-.48039 1.1364-.48413.2103-.00187.4188.03833.6136.11829.1947.07995.3719.19806.5212.34753.1493.14946.2678.32731.3487.52328s.1225.40618.1225.61849c.0037.21534-.0351.42928-.1141.62932-.079.20007-.1967.38217-.3462.53577-.1496.1536-.3278.2756-.5245.3589s-.4079.1261-.6212.1261z" fill="#fff"/><path d="m29.9415 15.2027c0 7.8573-6.2769 14.2027-13.9903 14.2027-7.71339 0-13.99026-6.3454-13.99026-14.2027 0-7.85725 6.27687-14.2027 13.99026-14.2027 7.7134 0 13.9903 6.34545 13.9903 14.2027z" stroke="#fff" stroke-width="2"/><g fill="#fff"><rect height="9.77317" rx="1.6061" width="3.2122" x="14.0312" y="11.9453"/><rect height="9.77317" rx="1.6061" width="3.2122" x="14.0312" y="11.9453"/></g></svg>