<svg width="50" height="50" viewBox="0 0 50 50" fill="none" xmlns="http://www.w3.org/2000/svg">
<path d="M24.5763 19.2857C24.0088 19.2833 23.4652 19.0577 23.0639 18.6581C22.6626 18.2585 22.4361 17.7173 22.4336 17.1522C22.4336 16.5846 22.6587 16.04 23.06 15.637C23.4613 15.2339 24.0063 15.005 24.5763 15.0001C24.8568 14.9976 25.135 15.0505 25.3949 15.1557C25.6547 15.2609 25.8911 15.4163 26.0903 15.6129C26.2895 15.8095 26.4476 16.0435 26.5555 16.3013C26.6634 16.5591 26.719 16.8356 26.719 17.1149C26.724 17.3982 26.6722 17.6797 26.5667 17.9429C26.4613 18.206 26.3042 18.4456 26.1048 18.6477C25.9053 18.8498 25.6675 19.0103 25.405 19.1198C25.1426 19.2294 24.8609 19.2858 24.5763 19.2857Z" fill="white"/>
<path d="M24.5763 19.2857C24.0088 19.2833 23.4652 19.0577 23.0639 18.6581C22.6626 18.2585 22.4361 17.7173 22.4336 17.1522C22.4336 16.5846 22.6587 16.04 23.06 15.637C23.4613 15.2339 24.0063 15.005 24.5763 15.0001C24.8568 14.9976 25.135 15.0505 25.3949 15.1557C25.6547 15.2609 25.8911 15.4163 26.0903 15.6129C26.2895 15.8095 26.4476 16.0435 26.5555 16.3013C26.6634 16.5591 26.719 16.8356 26.719 17.1149C26.724 17.3982 26.6722 17.6797 26.5667 17.9429C26.4613 18.206 26.3042 18.4456 26.1048 18.6477C25.9053 18.8498 25.6675 19.0103 25.405 19.1198C25.1426 19.2294 24.8609 19.2858 24.5763 19.2857Z" fill="#35C0FF"/>
<circle cx="25" cy="25" r="19" stroke="#6C7AAB" stroke-width="2"/>
<rect x="22.4336" y="20.7109" width="4.28571" height="12.8571" rx="2.08622" fill="white"/>
<rect x="22.4336" y="20.7109" width="4.28571" height="12.8571" rx="2.08622" fill="#35C0FF"/>
</svg>
