<svg width="30" height="30" viewBox="0 0 30 30" fill="none" xmlns="http://www.w3.org/2000/svg">
<path d="M5.76396 2.11883C5.44362 2.2968 4.42328 3.22222 3.79447 3.91035C2.16904 5.65442 1.23176 7.25611 1.04193 8.62052C0.947012 9.28492 1.00633 9.73577 1.29108 10.5188C2.67921 14.3036 4.63684 17.412 7.38938 20.2239C10.4504 23.3442 14.2114 25.7527 18.4589 27.3069C20.1673 27.9358 21.3063 28.2086 22.2436 28.2086H22.908L23.3944 27.9595C23.9758 27.6629 24.8894 27.0578 25.4826 26.5832C26.5029 25.7527 27.8792 24.2815 28.6385 23.2137C28.9944 22.7154 29.0656 22.4425 28.947 22.0985C28.8521 21.8256 28.7097 21.7069 27.4402 20.912C26.8114 20.5086 25.5063 19.6663 24.5572 19.0375C23.608 18.4086 22.73 17.8629 22.6351 17.8154C22.3741 17.7086 22.0775 17.7205 21.7928 17.8392C21.5911 17.9222 21.4961 18.0409 21.1521 18.5629C20.0961 20.1883 19.2775 21.1968 18.886 21.351C18.5775 21.4697 18.3284 21.3985 17.4504 20.9358C14.2826 19.2629 11.6487 16.9256 9.10972 13.5086C8.40972 12.5714 8.3148 12.3815 8.3148 12.0612C8.3148 11.8476 8.35039 11.7646 8.65887 11.3612C9.08599 10.8392 10.2487 9.62899 10.8894 9.09509C11.4707 8.60865 11.4826 8.59679 11.5538 8.25272C11.6368 7.89679 11.5656 7.74255 11.0199 7.00696C9.41819 4.88323 7.12836 2.32052 6.65379 2.0951C6.35718 1.96459 6.03684 1.96459 5.76396 2.11883Z" fill="url(#paint0_linear_11839_7959)"/>
<defs>
<linearGradient id="paint0_linear_11839_7959" x1="15" y1="2" x2="15" y2="28.2086" gradientUnits="userSpaceOnUse">
<stop stop-color="#5558FF"/>
<stop offset="1" stop-color="#00C0FF"/>
</linearGradient>
</defs>
</svg>
