<svg width="38" height="32" viewBox="0 0 38 32" fill="none" xmlns="http://www.w3.org/2000/svg">
<g clip-path="url(#clip0_961_4327)">
<path d="M25.8409 0H11.37C9.65805 0 8.26264 1.3625 8.32724 3.0125C8.34016 3.34375 8.35308 3.675 8.37246 4H1.55046C0.691245 4 0 4.66875 0 5.5C0 11.2875 2.16418 15.3125 5.07128 18.0438C7.93316 20.7375 11.4217 22.0938 13.9929 22.7812C15.5046 23.1875 16.5382 24.4062 16.5382 25.6313C16.5382 26.9375 15.44 28 14.0898 28H12.4036C11.2602 28 10.3364 28.8937 10.3364 30C10.3364 31.1063 11.2602 32 12.4036 32H24.8073C25.9508 32 26.8746 31.1063 26.8746 30C26.8746 28.8937 25.9508 28 24.8073 28H23.1212C21.771 28 20.6727 26.9375 20.6727 25.6313C20.6727 24.4062 21.6999 23.1812 23.2181 22.7812C25.7957 22.0938 29.2842 20.7375 32.1461 18.0438C35.0468 15.3125 37.2109 11.2875 37.2109 5.5C37.2109 4.66875 36.5197 4 35.6605 4H28.8385C28.8579 3.675 28.8708 3.35 28.8837 3.0125C28.9483 1.3625 27.5529 0 25.8409 0ZM3.15905 7H8.61149C9.19937 12.6313 10.4979 16.3938 11.9643 18.9125C10.3558 18.225 8.68255 17.2563 7.23546 15.8938C5.16819 13.95 3.48852 11.1438 3.16551 7H3.15905ZM29.9819 15.8938C28.5348 17.2563 26.8616 18.225 25.253 18.9125C26.7195 16.3938 28.018 12.6313 28.6059 7H34.0583C33.7289 11.1438 32.0492 13.95 29.9884 15.8938H29.9819Z" fill="currentColor"/>
</g>
<defs>
<clipPath id="clip0_961_4327">
<rect width="37.2109" height="32" fill="currentColor"/>
</clipPath>
</defs>
</svg>
