<svg fill="none" height="29" viewBox="0 0 29 29" width="29" xmlns="http://www.w3.org/2000/svg" xmlns:xlink="http://www.w3.org/1999/xlink"><clipPath id="a"><rect height="29" rx="8" width="28" x=".019531"/></clipPath><g clip-path="url(#a)"><path d="m13.4014.103461c-.534.164753-.7385.364811-1.8634 1.812289-.5908.75315-1.0908 1.36509-1.1248 1.34156-.0341-.01177-.77268-.21183-1.64758-.45896-1.44301-.40011-1.6248-.43542-1.97703-.41188-.90899.05884-1.6589.76493-1.81797 1.71814-.02272.17652-.07954 1.01206-.12499 1.84759-.04544.83553-.07953 1.54162-.10226 1.56516-.02272.02353-.6931.31773-1.48846.62371-1.7157.68254-1.8066.72962-2.11338 1.05912-.352234.36481-.522668.78847-.556755 1.35331-.034087.6355.056812.8473 1.079415 2.4949.47722.7649.8749 1.4239.8749 1.4474 0 .0353-.37496.6473-.82945 1.3769-1.14759 1.8241-1.113503 1.7534-1.113503 2.4478 0 .6237.090899.9061.409043 1.3298.2727.353.57948.5178 2.18156 1.165 1.27258.506 1.54527.6355 1.568.7296.01136.0706.04545.7767.07953 1.5652.03409.7884.0909 1.6004.11362 1.777.11363.6825.52267 1.2356 1.12487 1.5416.28406.153.38632.1647.81809.1647.44313 0 .64765-.047 1.94295-.4119.79536-.2235 1.4885-.4236 1.5339-.4354.0568-.0235.4204.3884 1.1476 1.3298 1.1362 1.4593 1.3635 1.6711 1.9089 1.8358.3749.1177.7272.1177 1.1021 0 .5454-.1647.7726-.3765 1.9089-1.8358.5908-.7531 1.0908-1.3533 1.1248-1.3415.0341.0117.7727.2118 1.6476.4589 1.4316.4001 1.6248.4354 1.9656.4119.909-.0588 1.6589-.7532 1.818-1.6946.0341-.1648.0909-.9768.125-1.7888s.0682-1.5298.0795-1.5887c.0228-.1059.2841-.2235 1.4885-.706.8067-.3178 1.5566-.6237 1.6703-.6944.3067-.1647.6817-.5766.8521-.9414.1364-.2824.1477-.4001.1477-.8944 0-.6943.0228-.6237-1.1135-2.4477-.4545-.7297-.8294-1.3416-.8294-1.3769s.3863-.6708.8635-1.4239c1.034-1.6476 1.1362-1.8712 1.1022-2.5066-.0228-.56491-.2046-1.00033-.5568-1.36514-.3181-.32951-.3636-.35305-2.1134-1.04736l-1.4771-.56487-.0909-1.72991c-.0454-.95322-.1136-1.81229-.1363-1.89466-.2159-.8473-.9431-1.47101-1.8066-1.54162-.3636-.02354-.5113 0-1.9771.41188-.8749.24713-1.6134.44719-1.6475.45896-.0341.01176-.5454-.60018-1.1362-1.35333-.7499-.953218-1.159-1.43571-1.3408-1.565159-.4886-.35304259-1.1135-.4471873-1.693-.24713zm-5.9538 11.485639c.31814 1.1768.71582 2.942.79536 3.5187l.10226.7296.17043-.7649c.0909-.4237.3636-1.4122.60221-2.2242l.4204-1.4592h.61354c.3409 0 .6136.0117.6136.0235 0 .0235-1.64754 5.6487-1.76117 6.037l-.05681.1883-.71582-.0118-.71583-.0117-.34087-1.4122c-.19315-.7767-.40904-1.7887-.48857-2.2359-.07954-.4472-.14771-.8473-.15908-.8709 0-.0235-.06817.1766-.13634.459-.06818.2824-.3636 1.3062-.63629 2.283-.28406.9767-.51131 1.7887-.51131 1.8005s-.28405.0235-.63628.0235c-.57948 0-.62493-.0117-.60221-.1059.15908-.5413 1.78388-6.0841 1.78388-6.1076 0-.0118.3636-.0118.80673-.0118l.80672.0118zm8.0672.3648-.159.5649-1.1817.0118-1.1817.0117-.1477.4943c-.0795.2707-.1591.5531-.1818.6355l-.0341.1412h1.0908 1.0908l-.0341.1412c-.0114.0706-.0909.3177-.1477.5531l-.125.4237-1.1135.0235-1.1135.0235-.1818.6002c-.1023.3295-.1932.659-.2045.7532l-.0341.1529h1.2385 1.2271l-.1591.5649-.1704.5649h-1.9202c-1.0454 0-1.9089-.0236-1.9089-.0471 0-.0353 1.7043-5.9076 1.7839-6.1194.0113-.0471.4431-.0706 1.8861-.0706h1.8521zm2.2384-.1883c-.0568.612-.4545 3.9188-.4999 4.1424-.0228.1177.4772-.8473 1.1135-2.1418l1.1476-2.3536.7271-.0118.7159-.0117v.1412c0 .2118-.3182 3.0714-.4318 3.8128-.0568.3766-.1023.6826-.0909.6944 0 0 .25-.5178.5454-1.1651.2954-.6472.7953-1.6946 1.1135-2.3301l.5681-1.1415h.6817.6818l-.2045.3884c-.1137.2118-.8749 1.6122-1.6817 3.1185l-1.4771 2.7302h-.7271-.7272v-.1647c0-.2589.3181-3.2127.409-3.7776.0455-.2824.0795-.5413.0795-.5649 0-.0353-.1477.2589-.3295.6355-.1818.3884-.6817 1.4122-1.1248 2.283l-.7954 1.5769h-.7385-.7386v-.1882c0-.2472.3182-5.3781.3636-5.7546l.0227-.2942h.7159.7158z" fill="#35c0ff"/></g></svg>