<svg fill="none" height="29" viewBox="0 0 30 29" width="30" xmlns="http://www.w3.org/2000/svg" xmlns:xlink="http://www.w3.org/1999/xlink"><clipPath id="a"><rect height="29" rx="8" width="29" x=".019531"/></clipPath><g clip-path="url(#a)" fill="#35c0ff"><path d="m12.6271 8.92188c.1106.44237.1966.90931.2335 1.38852.2949 3.5759-1.6835 6.6479-4.42371 6.8691-2.08897.172-4.14108-1.7204-5.06269-4.0674l-2.617364-.0123 5.713964 12.2267h8.0487v-16.40462z"/><path d="m16.4242 8.92188c-.1106.44237-.1966.90931-.2335 1.38852-.2949 3.5759 1.6835 6.6479 4.4237 6.8691 2.089.172 4.1411-1.7204 5.0627-4.0674l2.6174-.0123-5.714 12.2267h-8.061v-16.40462z"/><path d="m3.33732 10.2995c0 .9216-.73729 1.6589-1.6589 1.6589-.921603 0-1.6588888-.7373-1.6588888-1.6589 0-.92159.7372858-1.65888 1.6588888-1.65888.92161 0 1.6589.74958 1.6589 1.65888z"/><path d="m25.7021 10.2995c0 .9216.7496 1.6589 1.6589 1.6589.9094 0 1.6589-.7373 1.6589-1.6589 0-.92159-.7495-1.65888-1.6589-1.65888-.9093 0-1.6589.74958-1.6589 1.65888z"/><path d="m16.6452 5.6024c0 1.17966-.9584 2.12584-2.1258 2.12584-1.1797 0-2.1258-.95847-2.1258-2.12584s.9584-2.12584 2.1258-2.12584 2.1258.95847 2.1258 2.12584z"/></g></svg>