<svg fill="none" height="29" viewBox="0 0 30 29" width="30" xmlns="http://www.w3.org/2000/svg"><g fill="#35c0ff"><path d="m10.5946 18.2097c.3199.1987.6759.3323 1.0475.3934.3716.061.7516.0483 1.1183-.0376.3667-.0858.7129-.243 1.0188-.4627s.5655-.4974.7641-.8174c.022-.0354.0511-.0659.0854-.0895.0344-.0236.0732-.0398.1141-.0477l.0287-.0055c.073-.0139.1486-.0005.2123.0377.649.388 1.425.504 2.1591.3227.7341-.1814 1.3669-.6453 1.7605-1.2909.3937-.6455.5165-1.4205.3416-2.1561-.1749-.7357-.6332-1.3725-1.2753-1.7718l-5.1288-3.18274-3.16981 5.15864c-.19879.32-.33259.676-.39376 1.0476-.06118.3717-.04852.7518.03724 1.1185.08576.3668.24294.7131.46257 1.0191s.49736.5657.81746.7643z"/><path d="m14.6906 20.0179c.4291-.1935.8922-.3005 1.3626-.3149l-1.0303-1.4421zm-9.18208-14.12728-.08567 1.85331.98505-.23061z"/><path d="m7.33529 27.8413c.04491.1919.12717.3731.2421.5332.11492.1601.26025.2959.42769.3999.16744.1039.35371.1738.54817.2058.19446.0319.39331.0252.5852-.0197l2.58685-.6056c.016-.0052.0325-.009.0492-.0115l13.2041-3.0908c.3875-.0908.7231-.3317.933-.6699s.2768-.7458.1861-1.1333l-5.218-22.29041c-.0772-.329079-.2632-.622485-.5278-.832795-.2647-.21031-.5925-.325234-.9305-.326195-.1161.00008952-.2318.0135301-.3449.0400568l-15.84012 3.7077632c-.38727.09113-.72258.33215-.93238.67019-.2098.33803-.27695.74548-.18673 1.13297zm1.82165-13.9005 3.32796-5.41589c.0208-.03393.0481-.06341.0804-.08673.0322-.02333.0688-.04006.1075-.04921.0387-.00916.0789-.01057.1182-.00415.0393.00641.0769.02053.1107.04154l5.3865 3.34294c.7004.4351 1.2232 1.1052 1.4747 1.8905s.2154 1.6344-.1019 2.3955c-.3173.761-.8951 1.3843-1.63 1.7583s-1.5788.4743-2.3809.2829l1.2617 1.766c.0345.0484.054.1058.0561.1651s-.0134.118-.0444.1686c-.0311.0506-.0764.0909-.1302.1159s-.1139.0336-.1726.0247c-.7635-.1173-1.5428.0652-2.175.5092-.0492.0344-.1076.0534-.1677.0545s-.1192-.0157-.1696-.0484c-.0505-.0326-.0901-.0796-.1137-.1348-.0236-.0553-.0302-.1163-.019-.1754l.4059-2.1459c-.4255.3694-.9349.629-1.4838.7563-.2614.0614-.529.0925-.7975.0927-.6183-.0013-1.2251-.1678-1.7576-.4821-.5325-.3142-.97144-.765-1.27146-1.3057-.30003-.5406-.45026-1.1516-.43518-1.7698.01507-.6181.19491-1.221.52093-1.7464zm-4.54322-4.83444.25907-3.81675c.01118-.18174.2021-.31.41157-.35906.21514-.05033.44316-.02018.53384.13775l1.92623 3.3052c.01027.01697.01852.03507.02459.05395.04109.17557-.19454.368-.39271.41441-.12458.02918-.23007.01208-.2836-.08888l-.39138-.70265-1.29638.30347-.03885.80355c-.00314.11425-.09008.17642-.21466.20542-.19817.0464-.49337-.01589-.53578-.19702-.00241-.0197-.00306-.03957-.00194-.05939z"/><path d="m26.4251 24.9042c-.1452.2353-.3357.4394-.5603.6006s-.479.2763-.7484.3386l-10.6105 2.4837 12.3315-.0661c.503-.0032.9843-.2059 1.3381-.5636.3538-.3576.5513-.841.5492-1.3441l-.1184-22.09879c-.0027-.50141-.2038-.98138-.5593-1.33501-.3554-.35364-.8364-.55221-1.3378-.55231h-.0106l-4.9096.02628 4.8971 20.92073c.0638.2691.0736.5482.0288.8211-.0448.273-.1433.5343-.2898.7689z"/></g></svg>