<svg fill="none" height="29" viewBox="0 0 30 29" width="30" xmlns="http://www.w3.org/2000/svg"><g fill="#35c0ff"><path d="m9.18704 4.42391c-.63113.08262-1.08142.29907-1.3384.64386-.11977.16272-.19759.35245-.22657.55241.01318-.00271.02657-.00428.04001-.00468.75567-.11173 1.51908-.16265 2.28289-.15226-.08653-.94189-.64049-1.0305-.75793-1.03933zm.94866-.37052c-.0899.04495-.1741.08678-.25543.12628.11719.09172.21823.20241.29853.32764.4125.20761.7749.50249 1.0621.86417.2871.36167.4922.7815.6008 1.23034.0624.22787.1084.4599.1372.69427.3789-.30758.7958-.56511 1.2405-.76624.7283-.36507 1.1427-1.1734.9411-1.83987-.2617-.86343-1.4223-1.25577-3.1058-1.0505-.3148.11829-.6218.25654-.919.41391zm2.1582-.14915c.2067 0 .405.08213.5511.22831.1462.14619.2283.34446.2283.55119 0 .20674-.0821.405-.2283.55119-.1461.14618-.3444.22831-.5511.22831-.2068 0-.4051-.08213-.5512-.22831-.1462-.14619-.2283-.34445-.2283-.55119 0-.20673.0821-.405.2283-.55119.1461-.14618.3444-.22831.5512-.22831z"/><path d="m12.294 4.94154c.1435 0 .2598-.11633.2598-.25983s-.1163-.25983-.2598-.25983-.2598.11633-.2598.25983.1163.25983.2598.25983z"/><path d="m9.34959 3.84429c.13537-.04937.33778-.1494.55318-.25776.32603-.17327.66353-.32389 1.01023-.4508.1815-.07107.3568-.15684.5243-.25646.7593-.41755 1.9062-1.04842 3.3519.03534.5244.4043.9725.89888 1.3233 1.46052l.0016.00207c.0922-.23384.2005-.45444.3032-.65763.211-.41807.3934-.7795.3081-1.03439-.0387-.11563-.0901-.18526-.1527-.20787-.1518-.01654-.3043.02383-.428.11329-.0102.10264-.0256.20471-.046.30582-.0138.06738-.0538.12653-.1112.16447-.0574.03795-.1274.05159-.1949.03794-.0334-.00693-.0651-.02038-.0933-.03958-.0283-.0192-.0524-.04378-.0712-.07233-.0187-.02854-.0316-.0605-.038-.09404-.0063-.03354-.006-.06801.0009-.10143.0256-.12273.0421-.24718.0494-.37234.0215-.31701-.0275-.63485-.1433-.93071-.1159-.29586-.2958-.562417-.5268-.780545-.442-.439895-.8419-.585661-1.1979-.446131.2551.279627.4543.60541.587.959816.0108.03242.0152.06665.0127.10074-.0024.03408-.0115.06736-.0267.09793-.0153.03057-.0365.05783-.0623.08023s-.0557.03949-.0882.05031c-.0324.01082-.0666.01514-.1007.01273s-.0674-.01151-.0979-.02679c-.0306-.01527-.0579-.03641-.0803-.06222s-.0395-.05578-.0503-.08819c-.144-.37509-.3787-.708672-.6831-.970996-.3214-.26972-.7288-.41544377-1.1484-.41079412-.2608-.02308288-.5216.04331052-.7396.18825012-.218.14494-.3802.359788-.4598.609174.5779.03118 1.1342.230996 1.6.574486.0273.02048.0503.04613.0677.07549s.0288.06185.0337.09563c.0048.03378.0029.06818-.0056.10123-.0084.03306-.0233.06412-.0438.09142s-.0461.05029-.0755.06768c-.0293.01738-.0618.02881-.0956.03364s-.0682.00295-.1013-.00552c-.033-.00847-.0641-.02336-.0914-.04384-.4655-.34061-1.0351-.50863-1.6109-.47523-.3067.00301-.60956.06834-.8902.19203-.28064.12368-.53321.30313-.74235.52745-.09296.10601-.16138.23124-.20037.36675-.03898.13551-.04758.27795-.02516.41716.08808.53993.32375.88239.69557 1.024zm1.16921 7.96831c.6439-.9687 1.3067-3.33265.8201-5.073-.1417-.56233-.4541-1.067-.8941-1.44467.0198.14109.03.28338.0304.42587v1.03932c0 .00312-.0016.00546-.0016.00832-.0016.01764-.0051.03505-.0104.05197-.0028.01676-.0072.03321-.0132.0491-.0013.0026 0 .0052-.0021.0078-.2785.4652-.66537.85611-1.12767 1.13936-1.00399.66829-1.52366 1.33164-1.5577 1.97836.15447-.15256.33668-.27418.53682-.3583.06402-.02564.1356-.02479.19899.00235.0634.02714.11341.07835.13905.14237.02563.06402.02479.1356-.00235.199-.02715.06335-.07836.11345-.14238.13905-.29124.1289-.5228.3635-.64802.6563-.12835.3563-.12178.7471.01845 1.0989.04963.1878.15503.3563.3023.483.14727.1268.3295.206.52267.2271.34449.0253.69008-.0315 1.00836-.1657.31828-.1343.60018-.3421.82238-.6065z"/><path d="m16.2749 5.41093c-.1036-.09759-.1992-.20334-.2858-.31621l-.0037-.00416c-.1039-.13459-.2034-.2775-.3042-.4256-.3186-.51419-.7269-.96706-1.2054-1.3371-.9239-.69323-1.6502-.55058-2.2865-.25645 1.8812.09795 2.3593 1.1074 2.4671 1.46311.2775.91669-.2419 1.97238-1.2085 2.45567-.9614.47991-1.21.7213-1.4249 1.02244.0161 1.59459-.5249 3.26067-1.0731 4.08557-.1494.2079-.337.3855-.5529.5231.0732.421.0562.8528-.0502 1.2667l.9658-.3228c.0509-.0168.1048-.023.1582-.0182s.1053.0205.1524.0462c.0471.0256.0884.0606.1214.1029s.057.0908.0705.1427c.0559.2256.0348.4634-.06.6756.66-.1112 1.2792-.394 1.7955-.82.0496-.0411.1087-.0693.1719-.082.0632-.0126.1286-.0094.1902.0094.0617.0188.1178.0526.1631.0983.0454.0458.0788.1021.0971.164.0472.1629.0648.333.0519.5022.5326-.2328.9975-.5969 1.3511-1.0583.0449-.0619.107-.1092.1786-.1361s.1495-.0321.2241-.015c.0745.0171.1424.0557.1951.1111s.088.1251.1015.2003c.0345.2235.0415.4503.0205.6756.6116-.6291 1.0138-1.4319 1.1513-2.2985.014-.0835.0547-.1602.1162-.2185.0614-.0583.1402-.0949.2243-.1045.0841-.0095.1691.0086.242.0516.0729.0431.1299.1087.1622.187l.0275.0675c.188-.73.292-1.4791.31-2.2327 0-1.76686-1.2259-3.26168-2.2543-4.20487zm-7.55592.83484c.40612.1055.81899.18318 1.23576.23255v-.49887c-.61684.00623-1.26512.03299-1.74087.07639.15941.08496.32921.1488.50511.18993z"/><path d="m26.057 6.83553-8.9635-1.5805c-1.0082-.17776-1.9696.49542-2.1474 1.50358l-.0848.48111c1.2963.15971 2.3915 1.09354 2.7363 2.38025l.5478 2.04443c.2999-.1303.6315-.1693.9534-.1121.635.112 1.1222.569 1.3036 1.144.3673-.4783.9814-.7411 1.6163-.6291.9088.1602 1.5157 1.0269 1.3554 1.9357-.3482 1.9747-2.4672 3.5619-3.4729 4.2147l1.5354 5.7301c.0802.2994.117.6089.109.9188l1.2918.2277c1.0082.1778 1.9696-.4954 2.1473-1.5035l2.5758-14.60775c.1778-1.00825-.4954-1.96965-1.5035-2.14742z"/><path d="m16.2545 9.9837c-.2219-.82816-.9708-1.37437-1.7893-1.37432-.1587 0-.3202.02056-.4809.0636l-8.79161 2.35572c-.98884.2649-1.57567 1.2813-1.31071 2.2702l3.83906 14.3277c.22192.8281.97083 1.3743 1.78928 1.3743.15878 0 .32025-.0206.48089-.0636l8.79159-2.3558c.9889-.2649 1.5757-1.2813 1.3107-2.2702zm-6.84126 9.7937c-.07289-.0641-.1252-.1484-.15033-.2421-.02513-.0938-.02196-.193.0091-.2849l1.34429-3.9806c.1125-.3329.5276-.4442.7915-.212l3.1545 2.7751c.0729.0641.1252.1484.1504.2421.0251.0938.0219.1929-.0091.2849l-1.3444 3.9806c-.1124.3329-.5276.4442-.7915.212z"/></g></svg>