<svg fill="none" height="29" viewBox="0 0 30 29" width="30" xmlns="http://www.w3.org/2000/svg" xmlns:xlink="http://www.w3.org/1999/xlink"><clipPath id="a"><rect height="29" rx="8" width="29" x=".019531"/></clipPath><g clip-path="url(#a)" fill="#35c0ff"><path d="m18.7627 21.2022c-1.1464-.4348-2.0934-.7515-3.0036-1.1525-.7086-.3125-1.3479-.3188-2.0479.0084-.6761.3145-1.3977.5383-2.0955.8106-.9752.38-1.83983.1098-2.10854-.8148-.68912-2.3643-2.21257-3.7448-4.59633-4.4245-.9275-.2639-1.27206-1.123-.79964-1.9569 1.18755-2.0919 1.20488-4.09515.01517-6.20397-.51143-.90559-.17553-1.70774.86032-2.00961 2.35126-.68816 3.80535-2.07504 4.49447-4.3844.31423-1.0512404 1.07485-1.23278 2.16055-.863368.0347.010555.0694.023221.0975.042219 2.0154 1.220119 3.9939 1.038579 6.0461.002111 1.0554-.534065 1.881-.2258696 2.2212.878148.6805 2.21436 1.9981 3.6308 4.3277 4.26196 1.1182.30187 1.5061 1.1779.96 2.15949-1.1356 2.04126-1.1529 3.94952.0043 5.98872.5591.9858.1864 1.8639-.9275 2.1721-2.3144.6375-3.6927 2.0139-4.3688 4.2346-.1517.4939-.8148.8401-1.2395 1.2517zm2.5918-10.5251c.0108-3.68142-2.8909-6.5945-6.5922-6.6135-3.619-.02111-6.67456 2.86031-6.6919 6.3075-.01734 3.7469 2.8909 6.6578 6.6507 6.6536 3.6103-.0042 6.6225-2.8877 6.6334-6.3476z"/><path d="m7.33395 25.4532c-1.12687.2871-2.09121.5489-3.06639.7684-.2167.0486-.60461.0296-.67179-.0865-.11268-.2006-.13435-.5594-.0195-.7557 1.26556-2.1722 2.56146-4.3232 3.96355-6.6685.42907.9331.76713 1.6867 1.12253 2.4297.60244 1.2624 1.36745 1.5663 2.67635 1.0808.6306-.2343 1.259-.4771 2.0457-.7768-.1214.3209-.1712.5341-.2774.7156-1.2092 2.056-2.4163 4.1121-3.65151 6.1534-.16469.2723-.48108.4601-.72596.686-.2102-.2913-.50276-.5531-.61328-.876-.29472-.8507-.51142-1.7268-.7823-2.6704z"/><path d="m15.1436 21.1061c1.1832.4476 2.0673.7895 2.9558 1.1188 1.3284.4898 2.0804.1921 2.6872-1.0618.2839-.5847.5504-1.1779.895-1.9209 1.272 2.1552 2.4682 4.1691 3.6385 6.1977.104.1794.1256.5763.0151.6586-.1928.1435-.5352.2069-.778.152-.9686-.2217-1.9243-.5024-2.9927-.7895-.2903 1.0027-.5482 1.9695-.8581 2.9215-.0759.2343-.2796.494-.4941.5911-.1192.0549-.4703-.1562-.5743-.3272-1.4606-2.4149-2.8952-4.8446-4.4944-7.5403z"/><path d="m9.02453 10.3987c.01734-3.02288 2.63947-5.50533 5.76437-5.45256 3.1596.05277 5.6712 2.57744 5.6712 5.69946 0 2.9933-2.6113 5.4737-5.7579 5.4737-3.2809-.0021-5.69717-2.436-5.67767-5.7206zm4.01127 1.0618c-.1257 1.4628.0476 1.5452 1.1572 1.2159.416-.1225.947-.0275 1.3825.1013.6437.19 1.0662.076.9254-.6143-.1431-.7008.0325-1.1779.5352-1.6697.4616-.4518.4161-.90774-.3467-1.00273-.6631-.08233-1.0792-.37997-1.3631-.98581-.3229-.69238-.8061-.68183-1.1312.00634-.2839.60372-.7086.89292-1.3674.98158-.8126.10766-.8148.50872-.3619 1.07442.2796.3462.4833.7515.57.893z"/></g></svg>