<svg fill="none" height="29" viewBox="0 0 29 29" width="29" xmlns="http://www.w3.org/2000/svg" xmlns:xlink="http://www.w3.org/1999/xlink"><clipPath id="a"><rect height="29" rx="8" width="28" x=".917969"/></clipPath><g clip-path="url(#a)" fill="#35c0ff"><path d="m7.45184 1.5724c.77389.51551 1.4995 1.21954 1.8413 2.15257 1.47296-.78253 3.01736-1.29404 4.46956-1.62606-1.9606-1.32704-4.30734-1.714553-6.11534-1.435544-.43401.067002-.56436.663024-.19552.909034zm7.93536 14.2415c.2482.332.7565.252.8589-.154.1129-.45.1651-1.0236.0888-1.7486-.5916.329-1.1509.7169-1.6699 1.1581.2702.2156.5129.4655.7222.7445z"/><path d="m28.8947 5.50791c-.0434-.165-.1496-.29501-.2896-.36001-2.0711-.98503-6.0685-2.64009-9.5445-2.64009-.9704 0-2.4332.07-4.0843.36501h-.0096c-2.8822.51502-6.33404 1.72506-8.75757 4.50016 1.25521-.10001 2.6794.015 4.19527.56502.2511.09.3863.37501.2945.64002-.0869.26001-.362.40001-.6131.30501-2.35593-.85503-4.48014-.55502-5.98157-.075-.42967.14-.45381.77502-.0338.94003 1.30832.51504 2.6263 1.36004 3.19115 2.73514.10621.255-.00966.55-.25587.655-.05832.0257-.12096.0392-.18433.0398s-.12623-.0118-.18498-.0364-.11223-.061-.15738-.1071c-.04515-.046-.08109-.1009-.10575-.1613-.39105-.9451-1.31797-1.5901-2.24007-2.0151-.3476.915-.60347 1.9101-.75796 2.9651-.42967 2.9751.14483 5.3752 1.71868 7.1302 3.63046 4.0552 11.40318 3.5052 11.48518 3.5002.1787-.015.3573.08.449.245.9945 1.74 2.2063 2.7351 3.167 3.2951.3766.22.8159-.15.6952-.575-.4007-1.4001-.84-3.3452-.84-5.1352 0-2.0401 1.8732-4.0202 3.8429-5.5352.391-.3.1593-.935-.3283-.9-4.5767.335-5.8416 3.1001-6.8023 4.3301-.3717.475-.618.79-.9028.95-.6324.3401-1.6607.4701-2.5297.135.1738.3901.3958.7851.6758 1.1701.1594.22.1159.53-.0965.7-.0869.065-.1883.1-.2897.1-.1448 0-.2896-.07-.3862-.2-1.0814-1.475-1.3856-3.1051-1.4773-3.9351 0-.03-.0048-.06-.0096-.09-.0242-.265-.0242-.435-.0242-.46 0-1.2051.5938-2.5551 1.8249-3.7952.0145-.01.029-.025.0435-.04 1.5641-1.55 4.1422-2.9201 7.8354-3.5951.8111-.145 1.5738-.375 2.3318-.71 1.0337-.46087 1.9941-1.08126 2.8484-1.84008h-1.8394c-1.6849 0-3.8429.95003-3.867.96003-.0583.02569-.121.03922-.1844.0398-.0633.00058-.1262-.01179-.1849-.0364-.0588-.02462-.1123-.061-.1574-.10706-.0452-.04605-.0811-.10089-.1058-.16135-.1062-.25001.0097-.54502.2559-.65502.0917-.04 2.3656-1.04004 4.2436-1.04004h2.8484c.4972-.55001.8979-1.09003 1.2069-1.56505.0917-.145.1207-.32501.0724-.49502zm-14.6667 4.19015c-.0917.095-.2124.14-.3331.14-.1255 0-.251-.055-.3476-.15501-2.1145-2.30507-1.6125-4.63515-1.5883-4.73015.0627-.27001.3234-.43502.5793-.37002.0618.01474.1203.04196.1719.0801.0517.03813.0956.08645.1292.14218.0337.05572.0564.11777.0668.18259.0105.06481.0085.13113-.0058.19515-.0193.08001-.3911 1.91507 1.3469 3.81013.1835.20001.1738.51502-.0193.70503zm1.8877-1.00504c-.0821.05-.169.075-.2607.075-.1593 0-.3138-.08-.4056-.23-1.0428-1.70506-1.0572-3.40012-1.0572-3.47012 0-.27501.2172-.50002.4827-.50002.2656 0 .4828.22501.4828.50002 0 .015.0193 1.48505.9076 2.9351.14.23001.0724.54002-.1496.69002zm2.0325-1.13004c-.0918.09501-.2125.14001-.3332.14001-.1255 0-.2558-.055-.3476-.15501-1.1007-1.20004-1.1152-2.43008-1.1152-2.48008 0-.27501.2173-.50002.4828-.50002s.4828.22001.4828.49502c0 .045.0289.90503.8448 1.79506.1883.20001.1787.51502-.0144.70502zm1.5979-2.49508c-.2655 0-.4827-.22501-.4827-.50002s.2172-.50001.4827-.50001c.2656 0 .4828.225.4828.50001s-.2172.50002-.4828.50002z"/><path d="m3.33176 27.0704c.53326 0 .96555-.4478.96555-1.0001s-.43229-1-.96555-1-.96555.4477-.96555 1 .43229 1.0001.96555 1.0001z"/><path d="m3.33176 3.57038c.53326 0 .96555-.44773.96555-1.00003 0-.55231-.43229-1.00004-.96555-1.00004s-.96555.44773-.96555 1.00004c0 .5523.43229 1.00003.96555 1.00003z"/><path d="m27.4704 21.5704c.5333 0 .9656-.4478.9656-1.0001s-.4323-1-.9656-1c-.5332 0-.9655.4477-.9655 1s.4323 1.0001.9655 1.0001z"/><path d="m6.22887 28.5703c.26663 0 .48277-.2238.48277-.5 0-.2761-.21614-.5-.48277-.5s-.48278.2239-.48278.5c0 .2762.21615.5.48278.5z"/><path d="m1.40074 5.57035c.26663 0 .48278-.22387.48278-.50002s-.21615-.50002-.48278-.50002-.482771.22387-.482771.50002.216141.50002.482771.50002z"/><path d="m24.5736 23.5703c.2666 0 .4828-.2238.4828-.5 0-.2761-.2162-.5-.4828-.5s-.4828.2239-.4828.5c0 .2762.2162.5.4828.5z"/></g></svg>