<svg fill="none" height="29" viewBox="0 0 30 29" width="30" xmlns="http://www.w3.org/2000/svg" xmlns:xlink="http://www.w3.org/1999/xlink"><clipPath id="a"><rect height="29" rx="8" width="29" x=".917969"/></clipPath><g clip-path="url(#a)" fill="#35c0ff"><path d="m12.1489 21.7489c0 .267-.2162.4834-.4832.4834-.2668 0-.4834-.2164-.4834-.4834 0-.2666.2166-.4833.4834-.4833.267 0 .4832.2166.4832.4832zm3.8667-2.4166c0 .2671-.2165.4835-.4836.4835-.2667 0-.4833-.2164-.4833-.4835 0-.2667.2166-.4833.4833-.4833.2671 0 .4836.2166.4836.4833zm-3.3832-1.4498c0 .2669-.2165.4832-.4835.4832-.2668 0-.4832-.2162-.4832-.4832 0-.2672.2165-.4834.4832-.4834.267 0 .4835.2163.4835.4834zm3.3832 5.3165c0 .2669-.2165.4832-.4836.4832-.2667 0-.4833-.2164-.4833-.4832 0-.267.2166-.4835.4833-.4835.2671 0 .4836.2165.4836.4835zm-5.7998-10.1497c0 .2671-.21639.4835-.48322.4835-.26708 0-.48343-.2164-.48343-.4835 0-.2668.21638-.4832.48343-.4832.26683 0 .48322.2164.48322.4832zm-1.44982 5.7997c0 .2671-.2165.4833-.48356.4833-.26673 0-.48329-.2162-.48329-.4833 0-.2668.21658-.4833.48329-.4833.26706 0 .48356.2165.48356.4833zm13.53242-8.6995c0 .2672-.2163.4834-.4833.4834-.2671 0-.4834-.2162-.4834-.4834 0-.26686.2163-.48321.4834-.48321.267 0 .4832.21637.4832.48321zm6.7664 8.2162c0 .5338-.4328.9666-.9666.9666s-.9665-.4328-.9665-.9666.4327-.9666.9665-.9666.9666.4328.9666.9666zm-9.1828 3.3832c0 .267-.2164.4834-.4835.4834-.2667 0-.4832-.2164-.4832-.4834 0-.2666.2165-.4833.4832-.4833.2671 0 .4835.2166.4835.4832zm-4.35-14.01586c0 .26697-.2162.4832-.4833.4832-.2667 0-.4832-.21623-.4832-.4832 0-.26682.2165-.4834.4832-.4834.2671 0 .4833.21658.4833.4834zm-6.76602-5.0265c.08149.0002.16166-.02058.23278-.06035 2.00124-1.10182 4.24874-1.679588 6.53324-1.679552.2671 0 .4836-.216261.4836-.483203 0-.266855-.2165-.48343498-.4836-.48343498-2.4475-.0001218-4.8554.61874298-6.99954 1.79902998-.09452.05145-.16917.13298-.21209.23167-.04292.09868-.05167.20888-.02485.3131s.08766.19651.17289.26222c.08522.06571.18995.10109.29757.10052zm-4.0556 2.87148c-.21147-.16201-.51408-.12219-.67664.08908-.7855 1.02115-1.43119 2.14258-1.91997 3.33458-.10005.2462.01772.52677.26323.6283.05808.02417.12047.03666.18367.03631.09583-.00002.18949-.02852.26908-.08189s.14151-.1292.1779-.21784c.45647-1.11213 1.05932-2.15837 1.79259-3.11101.03864-.05036.06697-.10786.08337-.16918.0164-.06133.02055-.12529.0122-.18822s-.02902-.1236-.06084-.17853-.07416-.10305-.12459-.1416zm21.55452 17.16528c-.5546.721-1.1799 1.3848-1.8665 1.9814-.0671.0547-.1183.1263-.1482.2075-.0299.0811-.0375.1688-.0219.2539.0155.0852.0536.1646.1103.23s.1299.1143.212.1417.1701.0323.2547.0141c.0846-.0181.1628-.0587.2263-.1174.7358-.6387 1.4058-1.3493 2-2.1214.1571-.2118.1154-.5105-.0938-.6712-.2094-.1607-.5086-.124-.6729.0826z"/><path d="m25.1976 28.0315h-1.718l-3.1543-3.5051c2.4392-1.1724 4.3703-3.1898 5.4349-5.6779h-3.0624c-.1904.0006-.3791-.0367-.5551-.1096-.1759-.0729-.3356-.18-.4698-.3152l-3.3001-3.2999c-.0449-.0449-.0981-.0806-.1568-.1049-.0586-.0243-.1214-.0368-.1849-.0367h-2.4998c-.2667 0-.4832-.2164-.4832-.4835 0-.2666.2165-.4833.4832-.4833h2.4998c.1904-.0004.3791.0369.5551.1098.1759.073.3357.1801.47.3151l3.3 3.3001c.0907.0905.2135.1414.3416.1416h3.4216c1.7971-5.6151-1.1023-11.65656-6.6069-13.76758-5.505-2.11111-11.7.44292-14.11824 5.81966-2.41814 5.37712-.21807 11.70662 5.01404 14.42412l-3.3081 3.6733h-1.71811c-.26706 0-.48353.2163-.48353.4832 0 .267.21647.4833.48353.4833h4.83291c.2671 0 .4834-.2163.4834-.4833 0-.2669-.2163-.4832-.4833-.4832h-1.81495l2.92215-3.2467c2.5731 1.0575 5.4502 1.1062 8.0577.1364l2.7993 3.1103h-1.8148c-.2668 0-.4832.2163-.4832.4832 0 .267.2164.4833.4832.4833h4.8331c.2669 0 .4832-.2163.4832-.4833 0-.2669-.2163-.4832-.4832-.4832zm-3.3831-19.33222c.8006 0 1.45.64904 1.45 1.44972 0 .8009-.6494 1.4499-1.45 1.4499-.8009 0-1.4499-.649-1.4499-1.4499 0-.80068.649-1.44972 1.4499-1.44972zm-6.7664-2.41665c.8009 0 1.45.64904 1.45 1.4499 0 .80065-.6491 1.44993-1.45 1.44993-.8008 0-1.4499-.64928-1.4499-1.44993 0-.80086.6491-1.4499 1.4499-1.4499zm-6.76639 14.01577c-.80051 0-1.44993-.6491-1.44993-1.4499 0-.8007.64942-1.4499 1.44993-1.4499.80074 0 1.45016.6492 1.45016 1.4499 0 .8008-.64942 1.4499-1.45016 1.4499zm0-7.2496c0-.8006.6493-1.4499 1.45016-1.4499.80073 0 1.44973.6493 1.44973 1.4499 0 .801-.649 1.4499-1.44973 1.4499-.80086 0-1.45016-.6489-1.45016-1.4499zm3.38329 10.1497c-.5863 0-1.1152-.3534-1.3395-.8953-.2243-.5417-.1004-1.1655.3144-1.5799.4144-.4147 1.0382-.5388 1.58-.3146.5419.2246.8951.7532.8951 1.3397 0 .8007-.6493 1.4501-1.45 1.4501zm.4832-3.8667c-.8005 0-1.4498-.6492-1.4498-1.4498 0-.8009.6493-1.4499 1.4498-1.4499.801 0 1.4501.649 1.4501 1.4499 0 .8006-.6491 1.4498-1.4501 1.4498zm3.3831 5.3164c-.8005 0-1.4499-.6492-1.4499-1.4497 0-.8009.6494-1.4502 1.4499-1.4502.8008 0 1.4502.6493 1.4502 1.4502 0 .8005-.6494 1.4497-1.4502 1.4497zm0-3.8663c-.8005 0-1.4499-.6493-1.4499-1.4501 0-.8006.6494-1.4498 1.4499-1.4498.8008 0 1.4502.6492 1.4502 1.4498 0 .8007-.6494 1.4501-1.4502 1.4501zm1.5984-4.4707c-.926.8152-2.3172.8024-3.2277-.0303-.9106-.8326-1.0476-2.2172-.3181-3.2122.7297-.9949 2.0914-1.2806 3.1594-.6626.2186.1389.2887.4255.1589.6498-.1296.2241-.4128.3064-.6425.1862-.6411-.3694-1.4576-.1966-1.8941.4007-.4369.5974-.3536 1.4277.1929 1.9266.5466.4991 1.3812.5062 1.9362.0169.0636-.0561.1408-.0945.224-.1113.0831-.0168.1693-.0113.2496.0157.0805.027.1524.0746.2085.1382.0561.0637.0945.1409.1111.2241.0169.0832.0116.1693-.0154.2498-.027.0804-.0747.1523-.1384.2084zm.8183 5.4372c0-.8007.6493-1.45 1.4498-1.45.801 0 1.4501.6493 1.4501 1.45s-.6491 1.4501-1.4501 1.4501c-.8005 0-1.4498-.6494-1.4498-1.4501z"/></g></svg>