<svg fill="none" height="29" viewBox="0 0 30 29" width="30" xmlns="http://www.w3.org/2000/svg" xmlns:xlink="http://www.w3.org/1999/xlink"><clipPath id="a"><rect height="29" rx="8" width="29" x=".019531"/></clipPath><g clip-path="url(#a)" fill="#35c0ff"><path d="m6.07055 8.99308-2.99002 1.41422.35211 3.0131 3.26708.5483 1.5181-2.684zm4.24835-3.85585.2886-.41563c-.97551-.35211-2.0318-.51371-3.07083-.46176-.58372.02883-1.16249.12174-1.7259.27705l1.50655.785zm1.3738 5.37397.8831-2.36663-2.2049-2.32043-2.88038.17891-.93513 2.48207 2.22809 2.37818zm-9.78973 13.253.25974.179c.09233-.2193.16164-.4502.21359-.6811l-.35212-.0808.16165-.6754.27129.0635v-.0865c0-.1328-.01156-.2656-.02307-.3984l-.25398.0578-.16164-.6754.27704-.0635c-.05194-.1732-.11545-.3463-.19047-.508l-.20778.1444-.39251-.5715.24242-.1674c-.12121-.1732-.25973-.329-.40981-.4791-.70999.6984-1.114052 1.6509-1.114052 2.6552 0 1.0102.404062 1.9626 1.119802 2.661.17896-.1789.34631-.3752.48488-.5829l-.31748-.2194zm2.04338-5.703c.30017 0 .59453.0289.87739.0866v-1.2583c-.42138.381-.77925.7735-1.06786 1.1775.06351-.0058.12697-.0058.19047-.0058zm-1.44884-.1615-.66956-1.9915-1.114042-.5137c.421372.9467 1.027472 1.7952 1.783602 2.5052zm.16164-4.1561c.02122-.0485.05512-.0903.09814-.1212l-.37519-3.1978-1.887539-.96971c-.4675675 1.29291-.600288 2.69561-.352114 4.08091.057291.3157.132446.6279.225102.9351l1.575811.7331zm3.21513-5.42588.94089-2.47627-1.90486-.99283c-1.23525.50795-2.33198 1.32763-3.16893 2.37818-.39049.48832-.72181 1.02115-.987038 1.58737l1.956798 1.00435zm-2.61484 5.77798-.77925 1.5932.68691 2.026c.44445-.6407 1.0563-1.2641 1.79516-1.8356.53683-.4156 1.12561-.7908 1.75477-1.114l-.0577-.0981zm19.19846-1.9856c1.6047-1.8644 3.8732-3.01308 6.3206-3.20355-.4213-1.74321-1.3738-3.31327-2.7302-4.48502l-5.1431 6.44757zm-2.0953-1.6739 5.1431-6.44765c-1.4835-1.09098-3.2787-1.67395-5.1142-1.6682.3175 2.3897-.306 4.81406-1.7375 6.7535z"/><path d="m23.0005 12.5396 4.3465 3.4748c.672-.9146 1.1567-1.953 1.4261-3.0555.2695-1.1026.3184-2.2475.144-3.36896-2.2916.15589-4.4158 1.21796-5.9166 2.94966zm-16.23149 6.5399c.00575 0 .01156.0057.01731.0115.08083.0693.15584.1386.23091.2078.17316.1674.32324.3406.46176.5137v-4.6581c-.70998.329-1.36802.7215-1.96255 1.166v2.026c.45025.1732.87738.4214 1.25257.7331zm-1.48924 6.1128-.3925-.5715.30017-.202c-.15008-.3059-.26554-.6291-.34055-.9639l-.30593.075-.16164-.6754.36943-.0866c-.00576-.0981-.01156-.1904-.01156-.2886 0-.202.01156-.3983.04039-.5945l-.39831-.0923.16164-.6754.38675.0923c.08082-.277.19047-.5368.32324-.7908l-.35787-.2424.3925-.5714.34056.2309c.1212-.1617.25397-.3117.3925-.456-.61185-.4099-1.32764-.6292-2.07226-.6292-.73886 0-1.4546.2193-2.06645.6292.16071.1661.30925.3435.44445.531l.45025-.3059.39251.5714-.47908.329c.11545.2367.21359.4849.2886.7389l.54259-.127.16164.6753-.5599.1328c.02321.1838.03477.3689.03463.5541 0 .0809 0 .1674-.00575.2483l.53102.127-.16164.6753-.46757-.1096c-.06926.3175-.17315.6234-.30592.9177l.42138.2887-.39251.5714-.37518-.254c-.15185.2283-.32587.441-.51952.635.61185.4041 1.3334.6292 2.05489.6234.75038 0 1.46617-.2193 2.07226-.6292-.17316-.1731-.329-.3636-.46757-.5599zm14.41903-22.84074c-2.2396.19047-4.3176 1.24682-5.7838 2.93808l4.2022 3.35366c1.3276-1.80667 1.8933-4.0694 1.5816-6.29174zm-4.7621 6.17633c-.5079-.98128-1.2237-1.85291-2.0953-2.55133-.4906-.38675-1.0159-.71575-1.5758-.98128l-.3117.44445 2.2223 2.33774zm6.5169 11.09421c.0635-.0519.1327-.1039.202-.1558-.2251-.9986-1.1718-2.1935-2.5052-3.1748v7.2327c.254-.1847.4907-.3752.7158-.5773.0231-1.2872.5946-2.4936 1.5874-3.3248zm2.6552 5.2816c-.71 0-1.4027-.3002-1.8471-.7966-.3579-.3983-.5253-.8947-.4733-1.3911.023-.1962.0635-.4387.1096-.7157.0981-.583.2367-1.4027.1905-1.9856-.0635.0462-.127.0981-.1905.1501-.8485.7099-1.3391 1.7489-1.3391 2.8572 0 1.1025.4906 2.1473 1.3391 2.8573.6696.5599 1.5181.8658 2.3897.8658.9697 0 1.8875-.3694 2.586-1.0448.733-.71 1.1371-1.6624 1.1429-2.6668 0-1.0216-.4041-1.9741-1.1371-2.6841-.1386-.1327-.2886-.254-.4445-.3636-.0692.5714.0982 1.4142.2136 2.0087.052.277.1039.5195.127.7215.0635.4907-.0982.9813-.4503 1.3796-.4502.5022-1.1429.8082-1.8644.8082h-.3521zm-2.0838-12.2545-1.5527-1.241-2.6206 3.2844c.3867.202.7735.4156 1.1371.6523.508.329.9755.6811 1.3853 1.0563.2656-1.3565.8255-2.6322 1.6509-3.752zm-5.5298 12.3007c.6869-.2597 1.345-.583 1.9626-.964v-8.1619c-.623-.3846-1.2799-.7112-1.9626-.9755z"/><path d="m7.49038 21.2967c-.17896-.5483-.49639-1.0563-.92357-1.4777-.13277.127-.24823.2598-.35787.4041l.35787.2424-.39251.5715-.3348-.2251c-.09174.1775-.16709.3629-.2251.5541l.41562.1039-.16164.6754-.41562-.0982c-.01156.1444-.02307.2886-.02307.433 0 .0404.00575.0865.00575.127l.4387-.1039.16164.6753-.50796.1212c.05771.2483.14433.4964.24823.7274l.3925-.2656.3925.5715-.43294.2943c.12702.179.2713.3522.43294.508.72155-.71 1.11405-1.6509 1.1198-2.661 0-.381-.0577-.7446-.16164-1.0967-.01151-.0232-.02307-.052-.02883-.0809zm15.23872-1.6682c.1501.71-.0173 1.674-.1501 2.4763-.0462.2655-.0866.4964-.1039.6753-.0404.381.1443.6754.3002.8543.3116.3463.8196.5657 1.3276.5657h.3521c.5137 0 1.0332-.2194 1.3449-.5773.1559-.1789.329-.4617.2829-.837-.0231-.1789-.0693-.4098-.1212-.6753-.1617-.8081-.3522-1.7836-.1732-2.5051-.4676-.2078-.987-.3175-1.5065-.3175-.5369.0001-1.068.1213-1.5528.3406zm-.1559-6.5457c-.8485 1.1544-1.3911 2.4994-1.5874 3.9136.6292.6869 1.0794 1.4084 1.2872 2.0837.6177-.3175 1.3161-.4849 2.0145-.4849h.0173c.9986-.5079 1.876-1.1948 2.6206-2.0433zm-2.6437-2.1068-1.7028-1.3623c-.5253.6119-1.1198 1.1429-1.7721 1.5931.052.4676.0635.9409.0404 1.4084 0 .0635-.0058.1212-.0116.1848-.0288.4156-.0923.8254-.1847 1.2352.3059.1039.6119.2251.9063.3521zm-6.7477 2.4243-1.4142-2.1992-2.90349.3521-1.58161 2.7937.06351.1097c.11545-.052.2309-.1039.35211-.1501 1.50655-.6234 3.08238-.9351 4.68128-.9351.2655 0 .5368.0116.8024.0289zm4.5023-4.21954-3.1574-2.5167c.5714.68692 1.039 1.46616 1.368 2.29736.0116.03463.0289.07502.0404.10965.1728.44337.3061.90116.3983 1.36803.4906-.3694.9466-.79077 1.3507-1.25834zm-1.9164 5.40864c-1.114-.3464-2.2569-.5253-3.3882-.5253-1.4373 0-2.85154.2655-4.20801.7965v6.3033c.12701.4214.19628.8601.19628 1.3103 0 .7966-.20779 1.5585-.60029 2.2281.0577.0289.12121.052.19627.0866 1.43153.6118 2.91495.9236 4.41575.9236 1.1544 0 2.3031-.179 3.4229-.5253v-10.5863c-.0057 0-.0115-.0057-.0173-.0057-.0057 0-.0116-.0058-.0174-.0058zm-1.0447 5.651h-.5773v.6291h-.6926v-.6291h-.4676v.6291h-.6927v-.6291h-.6176v.6291h-.6927v-.6291h-.6175v.6291h-.69271v-.6291h-.51952v-.6927h.51952v-.6638h.69271v.6638h.6176v-.6638h.6927v.6638h.6176v-.6638h.6927v.6638h.4676v-.6638h.6926v.6638h.5773v.6927zm.1789-6.5977c.2424.0577.4907.1155.7331.1847.0346-.1731.0692-.3463.0923-.5195zm.4387-4.19059-2.1703-.92358-.8428 2.25697 1.6105 2.4993 1.8644-.7561c.0288-.6234-.0116-1.2584-.1328-1.876-.075-.4098-.1905-.8139-.329-1.20059z"/></g></svg>