<svg fill="none" height="29" viewBox="0 0 30 29" width="30" xmlns="http://www.w3.org/2000/svg" xmlns:xlink="http://www.w3.org/1999/xlink"><clipPath id="a"><rect height="29" rx="8" width="29" x=".917969"/></clipPath><g clip-path="url(#a)" fill="#35c0ff"><path d="m27.9108 4.00781c-1.1028 0-1.9995.89669-1.9995 1.99945 0 .92868.6395 1.70484 1.4996 1.9284v9.06864h-1.4996v-5.4985c0-.8269-.6726-1.4996-1.4995-1.4996h-20.99425c-.8267 0-1.49958.6727-1.49958 1.4996v14.496h5.29166l.99973-.9997h11.41074l.9997.9997h5.2915v-2.9992h.9998c.8269 0 1.4996-.6729 1.4996-1.4996v-13.56734c.8603-.22356 1.4995-.99972 1.4995-1.9284 0-1.10276-.8967-1.99945-1.9994-1.99945zm-2.9992 18.99479c0 .5513-.4484.9997-.9997.9997h-20.99421v-12.9964h20.99421c.5513 0 .9997.4484.9997.9997z"/><path d="m20.5225 9.00558 1.8894-7.49793-4.9986 2.99917-3.503-4.50682-3.4952 4.50682-4.99858-2.99917 1.88966 7.49793zm-1.6096-1.99945c.1325 0 .2597.05266.3534.1464.0938.09375.1464.22089.1464.35346s-.0526.25971-.1464.35346c-.0937.09374-.2209.1464-.3534.1464-.2759 0-.4999-.22406-.4999-.49986 0-.27605.224-.49986.4999-.49986zm-4.9987-1.99945c.8269 0 1.4996.67269 1.4996 1.49959 0 .82664-.6727 1.49958-1.4996 1.49958-.8267 0-1.4996-.67294-1.4996-1.49958 0-.8269.6729-1.49959 1.4996-1.49959zm-4.99859 1.99945c.13257 0 .25972.05266.35346.1464.09374.09375.1464.22089.1464.35346s-.05266.25971-.1464.35346c-.09374.09374-.22089.1464-.35346.1464-.27586 0-.49986-.22406-.49986-.49986 0-.27605.224-.49986.49986-.49986zm1.99949 14.99587h5.9983v.9997h-5.9983zm-6.99811-9.9973h5.99835v.9998h-5.99835zm6.99811 8.9976h5.9983v-8.9976h-5.9983zm.9997-6.9981h3.9989v1.1291l-2.5623 4.6122-.8738-.4859 2.3643-4.2557h-2.9271zm5.9983 0v8.9975h5.9988l-.0004-8.9975zm4.9986 3.1285-2.5622 4.6123-.8739-.486 2.3644-4.2557h-2.9271v-.9997h3.9988zm-4.9986-5.128h5.9984v.9998h-5.9984z"/><path d="m14.4142 6.50767c0 .13258-.0526.25973-.1464.35348-.0937.09375-.2209.14642-.3535.14642-.1325 0-.2597-.05267-.3534-.14642-.0938-.09375-.1464-.2209-.1464-.35348 0-.13257.0526-.25971.1464-.35345.0937-.09374.2208-.14641.3534-.14641s.2597.05267.3535.14641c.0937.09374.1464.22088.1464.35345zm11.9967 20.49433h-6.2051l-.9998-.9997h-10.5831l-.99972.9997h-6.20535c-.27586 0-.499861.2243-.499861.4999v1.4996h25.992831v-1.4996c0-.2756-.2239-.4999-.4999-.4999zm-15.4957.9997h-.99972v-.9997h.99972zm3.499 0h-.9997v-.9997h.9997zm3.4991 0h-.9998v-.9997h.9998zm-13.99616-4.9986h5.99834v-8.9975h-5.99834zm.99972-6.998h3.9989v1.129l-2.56229 4.6123-.87382-.486 2.36434-4.2557h-2.92713z"/></g></svg>