<svg width="42" height="33" viewBox="0 0 42 33" fill="none" xmlns="http://www.w3.org/2000/svg">
<g clip-path="url(#clip0_105_357)">
<path d="M23.0777 3.48674L21.555 0.405879C21.3033 -0.129082 20.5162 -0.148418 20.2387 0.405879L18.716 3.48674L15.3415 3.97014C14.7415 4.06037 14.4834 4.80158 14.9286 5.24631L17.3804 7.63108L16.7997 10.9891C16.7094 11.5885 17.3288 12.0526 17.8837 11.7754L20.9097 10.177L23.9164 11.7496C24.4713 12.0268 25.0972 11.5627 25.0004 10.9633L24.4197 7.60529L26.8715 5.24631C27.3103 4.80803 27.0586 4.06682 26.4586 3.97014L23.0841 3.48674H23.0777ZM16.7675 16.4998C15.6254 16.4998 14.7028 17.4215 14.7028 18.5623V30.9373C14.7028 32.0781 15.6254 32.9998 16.7675 32.9998H25.0262C26.1682 32.9998 27.0909 32.0781 27.0909 30.9373V18.5623C27.0909 17.4215 26.1682 16.4998 25.0262 16.4998H16.7675ZM2.31468 20.6248C1.17266 20.6248 0.25 21.5465 0.25 22.6873V30.9373C0.25 32.0781 1.17266 32.9998 2.31468 32.9998H10.5734C11.7154 32.9998 12.6381 32.0781 12.6381 30.9373V22.6873C12.6381 21.5465 11.7154 20.6248 10.5734 20.6248H2.31468ZM29.1556 26.8123V30.9373C29.1556 32.0781 30.0782 32.9998 31.2203 32.9998H39.479C40.621 32.9998 41.5437 32.0781 41.5437 30.9373V26.8123C41.5437 25.6715 40.621 24.7498 39.479 24.7498H31.2203C30.0782 24.7498 29.1556 25.6715 29.1556 26.8123Z" fill="white"/>
</g>
<defs>
<clipPath id="clip0_105_357">
<rect width="41.2937" height="33" fill="white" transform="translate(0.25)"/>
</clipPath>
</defs>
</svg>
