<svg width="43" height="33" viewBox="0 0 43 33" fill="none" xmlns="http://www.w3.org/2000/svg">
<g clip-path="url(#clip0_961_4321)">
<path d="M23.7124 3.4868L22.1897 0.40594C21.9381 -0.129021 21.1509 -0.148357 20.8735 0.40594L19.3508 3.4868L15.9763 3.9702C15.3763 4.06043 15.1182 4.80164 15.5634 5.24637L18.0152 7.63114L17.4345 10.9891C17.3442 11.5886 17.9636 12.0526 18.5185 11.7755L21.5445 10.177L24.5512 11.7497C25.1061 12.0268 25.7319 11.5628 25.6352 10.9634L25.0545 7.60536L27.5063 5.24637C27.945 4.80809 27.6934 4.06688 27.0934 3.9702L23.7189 3.4868H23.7124ZM17.4022 16.4999C16.2602 16.4999 15.3376 17.4216 15.3376 18.5624V30.9374C15.3376 32.0782 16.2602 32.9999 17.4022 32.9999H25.661C26.803 32.9999 27.7257 32.0782 27.7257 30.9374V18.5624C27.7257 17.4216 26.803 16.4999 25.661 16.4999H17.4022ZM2.94945 20.6249C1.80742 20.6249 0.884766 21.5466 0.884766 22.6874V30.9374C0.884766 32.0782 1.80742 32.9999 2.94945 32.9999H11.2082C12.3502 32.9999 13.2729 32.0782 13.2729 30.9374V22.6874C13.2729 21.5466 12.3502 20.6249 11.2082 20.6249H2.94945ZM29.7903 26.8124V30.9374C29.7903 32.0782 30.713 32.9999 31.855 32.9999H40.1138C41.2558 32.9999 42.1784 32.0782 42.1784 30.9374V26.8124C42.1784 25.6716 41.2558 24.7499 40.1138 24.7499H31.855C30.713 24.7499 29.7903 25.6716 29.7903 26.8124Z" fill="currentColor"/>
</g>
<defs>
<clipPath id="clip0_961_4321">
<rect width="41.2937" height="33" fill="white" transform="translate(0.884766)"/>
</clipPath>
</defs>
</svg>
