<svg width="42" height="32" viewBox="0 0 42 32" fill="none" xmlns="http://www.w3.org/2000/svg">
<path d="M41.9401 22.3262C41.9401 22.3219 41.9401 22.3193 41.9401 22.3144C41.3905 14.8918 39.711 9.38769 37.349 5.66755C36.1672 3.80748 34.8075 2.39314 33.3265 1.43953C31.8454 0.48592 30.24 8.71764e-06 28.6188 0.00108019C27.5681 -0.00732321 26.5248 0.180227 25.5402 0.554494C24.2414 1.0538 23.2964 1.79311 22.5571 2.33956C22.1896 2.61386 21.8705 2.83833 21.6122 2.97494C21.3538 3.11156 21.1628 3.16245 21.0021 3.16245C20.875 3.1596 20.7495 3.13347 20.6315 3.08531C20.3758 2.98994 20.0335 2.77297 19.624 2.47135C19.005 2.02348 18.2369 1.4031 17.2247 0.893079C16.2125 0.383059 14.9473 -0.00213404 13.3812 8.89743e-06C11.7621 8.89743e-06 10.154 0.484848 8.67352 1.43846C6.4491 2.8753 4.50712 5.33003 3.01297 8.79624C1.51883 12.2624 0.4725 16.7476 0.061425 22.3123C0.061425 22.3171 0.061425 22.3203 0.061425 22.3241C0.020475 22.7787 0 23.2202 0 23.6484C0 25.7458 0.4725 27.5368 1.365 28.9334C2.2358 30.3078 3.56504 31.3136 5.10667 31.7648C5.63307 31.922 6.17887 32.0012 6.72735 32C8.3223 32 9.92985 31.3625 11.4597 30.2621C12.9895 29.1617 14.4622 27.5791 15.8004 25.5969C16.4435 24.6406 17.3176 23.5209 18.26 22.6793C18.7325 22.2582 19.2166 21.9078 19.6843 21.6726C20.1521 21.4374 20.5942 21.3174 20.9968 21.318C21.3995 21.3185 21.8431 21.4364 22.3093 21.6726C23.0113 22.0241 23.752 22.6402 24.4246 23.3564C25.0735 24.0533 25.6664 24.8024 26.1975 25.5963C27.5357 27.5786 29.0057 29.1579 30.5371 30.2621C32.0686 31.3662 33.6756 31.9978 35.2705 32C35.8189 32.0012 36.3645 31.922 36.8907 31.7648C38.4334 31.3143 39.7637 30.3084 40.635 28.9334C41.5275 27.5368 42 25.7458 42 23.6484C42 23.2214 41.98 22.7795 41.9401 22.3262ZM39.1051 27.9177C38.4405 28.9517 37.5301 29.632 36.3751 29.9808C36.016 30.088 35.6437 30.1422 35.2695 30.1415C34.1633 30.1415 32.8986 29.6883 31.5866 28.7433C30.2747 27.7982 28.9364 26.3807 27.6969 24.5431C26.9965 23.5011 26.0547 22.2812 24.9375 21.2821C24.3789 20.7822 23.7751 20.336 23.1199 20.006C22.4648 19.6759 21.7539 19.459 21 19.459C20.2461 19.459 19.53 19.6759 18.8779 20.006C17.8962 20.5031 17.0263 21.2537 16.2566 22.0664C15.5408 22.837 14.8868 23.6651 14.301 24.5426C13.0615 26.3801 11.7206 27.8004 10.4107 28.7427C9.10087 29.6851 7.83352 30.1431 6.7284 30.141C6.35404 30.1417 5.98152 30.0875 5.62222 29.9803C4.47038 29.6304 3.5574 28.9511 2.89223 27.9172C2.22705 26.8832 1.8228 25.4651 1.8228 23.6479C1.8228 23.2729 1.8396 22.885 1.8753 22.4789V22.465C2.40345 15.2508 4.04565 10.0284 6.17872 6.67901C7.24447 5.0027 8.4273 3.79569 9.64372 3.01245C10.8601 2.2292 12.1149 1.86222 13.3796 1.86062C14.2103 1.8522 15.0355 1.99947 15.814 2.2951C16.8273 2.68458 17.609 3.27924 18.3697 3.84444C18.7514 4.12624 19.1273 4.40161 19.5494 4.62554C19.9715 4.84948 20.454 5.02145 20.9984 5.02145C21.3431 5.01865 21.6845 4.95278 22.0064 4.82698C22.5445 4.61911 22.9908 4.30678 23.4355 3.98427C24.1012 3.49621 24.7648 2.96637 25.5759 2.56296C26.387 2.15956 27.3352 1.86276 28.6172 1.86062C29.882 1.86062 31.133 2.22974 32.3531 3.01245C34.1796 4.18517 35.9299 6.32168 37.317 9.54466C38.704 12.7676 39.7267 17.0562 40.1236 22.4655V22.4794C40.1586 22.8852 40.1761 23.2748 40.1761 23.6484C40.1772 25.4656 39.7693 26.8832 39.1073 27.9177H39.1051Z" fill="#6C7AAB"/>
<path d="M14.3364 10.2969H11.5982V12.8972H9.10156V15.7498H11.5982V18.3506H14.3364V15.7498H16.8326V12.8972H14.3364V10.2969Z" fill="white"/>
<path d="M14.3364 10.2969H11.5982V12.8972H9.10156V15.7498H11.5982V18.3506H14.3364V15.7498H16.8326V12.8972H14.3364V10.2969Z" fill="#35C0FF"/>
<path d="M28.9193 9.48438C28.6337 9.48466 28.3545 9.57315 28.1172 9.73868C27.8799 9.90421 27.695 10.1393 27.586 10.4143C27.4769 10.6893 27.4486 10.9918 27.5046 11.2836C27.5606 11.5753 27.6983 11.8432 27.9005 12.0534C28.1026 12.2636 28.36 12.4066 28.6402 12.4644C28.9204 12.5222 29.2107 12.4921 29.4745 12.378C29.7382 12.2639 29.9636 12.0708 30.122 11.8233C30.2805 11.5758 30.3649 11.2848 30.3647 10.9873C30.3646 10.7897 30.3272 10.5941 30.2545 10.4116C30.1818 10.2291 30.0753 10.0633 29.941 9.92371C29.8068 9.78413 29.6474 9.67348 29.4721 9.5981C29.2968 9.52271 29.1089 9.48407 28.9193 9.48438Z" fill="white"/>
<path d="M28.9193 9.48438C28.6337 9.48466 28.3545 9.57315 28.1172 9.73868C27.8799 9.90421 27.695 10.1393 27.586 10.4143C27.4769 10.6893 27.4486 10.9918 27.5046 11.2836C27.5606 11.5753 27.6983 11.8432 27.9005 12.0534C28.1026 12.2636 28.36 12.4066 28.6402 12.4644C28.9204 12.5222 29.2107 12.4921 29.4745 12.378C29.7382 12.2639 29.9636 12.0708 30.122 11.8233C30.2805 11.5758 30.3649 11.2848 30.3647 10.9873C30.3646 10.7897 30.3272 10.5941 30.2545 10.4116C30.1818 10.2291 30.0753 10.0633 29.941 9.92371C29.8068 9.78413 29.6474 9.67348 29.4721 9.5981C29.2968 9.52271 29.1089 9.48407 28.9193 9.48438Z" fill="#35C0FF"/>
<path d="M28.9206 16.75C28.635 16.75 28.3558 16.8382 28.1183 17.0036C27.8808 17.1689 27.6957 17.4038 27.5864 17.6788C27.4772 17.9537 27.4486 18.2562 27.5043 18.548C27.5601 18.8398 27.6977 19.1078 27.8997 19.3182C28.1017 19.5286 28.359 19.6718 28.6392 19.7298C28.9193 19.7878 29.2097 19.7579 29.4735 19.644C29.7374 19.5301 29.9629 19.3372 30.1215 19.0897C30.2801 18.8423 30.3648 18.5514 30.3647 18.2539C30.3647 18.0563 30.3274 17.8607 30.2549 17.6782C30.1823 17.4957 30.0759 17.3298 29.9418 17.1902C29.8077 17.0505 29.6485 16.9397 29.4733 16.8642C29.298 16.7887 29.1102 16.7499 28.9206 16.75Z" fill="white"/>
<path d="M28.9206 16.75C28.635 16.75 28.3558 16.8382 28.1183 17.0036C27.8808 17.1689 27.6957 17.4038 27.5864 17.6788C27.4772 17.9537 27.4486 18.2562 27.5043 18.548C27.5601 18.8398 27.6977 19.1078 27.8997 19.3182C28.1017 19.5286 28.359 19.6718 28.6392 19.7298C28.9193 19.7878 29.2097 19.7579 29.4735 19.644C29.7374 19.5301 29.9629 19.3372 30.1215 19.0897C30.2801 18.8423 30.3648 18.5514 30.3647 18.2539C30.3647 18.0563 30.3274 17.8607 30.2549 17.6782C30.1823 17.4957 30.0759 17.3298 29.9418 17.1902C29.8077 17.0505 29.6485 16.9397 29.4733 16.8642C29.298 16.7887 29.1102 16.7499 28.9206 16.75Z" fill="#35C0FF"/>
<path d="M32.4119 13.1172C32.1264 13.1173 31.8473 13.2056 31.61 13.3709C31.3727 13.5362 31.1877 13.7711 31.0785 14.0459C30.9693 14.3207 30.9408 14.623 30.9965 14.9147C31.0523 15.2064 31.1898 15.4743 31.3917 15.6846C31.5936 15.8949 31.8509 16.0381 32.1309 16.096C32.4109 16.154 32.7011 16.1242 32.9649 16.0104C33.2287 15.8966 33.4541 15.7038 33.6127 15.4565C33.7713 15.2092 33.8559 14.9185 33.8559 14.621C33.8558 14.2222 33.7036 13.8396 33.4328 13.5576C33.162 13.2756 32.7948 13.1172 32.4119 13.1172Z" fill="white"/>
<path d="M32.4119 13.1172C32.1264 13.1173 31.8473 13.2056 31.61 13.3709C31.3727 13.5362 31.1877 13.7711 31.0785 14.0459C30.9693 14.3207 30.9408 14.623 30.9965 14.9147C31.0523 15.2064 31.1898 15.4743 31.3917 15.6846C31.5936 15.8949 31.8509 16.0381 32.1309 16.096C32.4109 16.154 32.7011 16.1242 32.9649 16.0104C33.2287 15.8966 33.4541 15.7038 33.6127 15.4565C33.7713 15.2092 33.8559 14.9185 33.8559 14.621C33.8558 14.2222 33.7036 13.8396 33.4328 13.5576C33.162 13.2756 32.7948 13.1172 32.4119 13.1172Z" fill="#35C0FF"/>
<path d="M25.4353 13.1172C25.1498 13.1173 24.8708 13.2056 24.6334 13.3709C24.3961 13.5362 24.2111 13.7711 24.1019 14.0459C23.9928 14.3207 23.9642 14.623 24.02 14.9147C24.0757 15.2064 24.2133 15.4743 24.4152 15.6846C24.6171 15.8949 24.8743 16.0381 25.1543 16.096C25.4343 16.154 25.7246 16.1242 25.9883 16.0104C26.2521 15.8966 26.4775 15.7038 26.6361 15.4565C26.7947 15.2092 26.8794 14.9185 26.8794 14.621C26.8794 14.4235 26.842 14.2279 26.7695 14.0454C26.6969 13.8629 26.5905 13.6971 26.4564 13.5575C26.3223 13.4178 26.1631 13.3071 25.9879 13.2315C25.8127 13.156 25.625 13.1171 25.4353 13.1172Z" fill="white"/>
<path d="M25.4353 13.1172C25.1498 13.1173 24.8708 13.2056 24.6334 13.3709C24.3961 13.5362 24.2111 13.7711 24.1019 14.0459C23.9928 14.3207 23.9642 14.623 24.02 14.9147C24.0757 15.2064 24.2133 15.4743 24.4152 15.6846C24.6171 15.8949 24.8743 16.0381 25.1543 16.096C25.4343 16.154 25.7246 16.1242 25.9883 16.0104C26.2521 15.8966 26.4775 15.7038 26.6361 15.4565C26.7947 15.2092 26.8794 14.9185 26.8794 14.621C26.8794 14.4235 26.842 14.2279 26.7695 14.0454C26.6969 13.8629 26.5905 13.6971 26.4564 13.5575C26.3223 13.4178 26.1631 13.3071 25.9879 13.2315C25.8127 13.156 25.625 13.1171 25.4353 13.1172Z" fill="#35C0FF"/>
</svg>
