<svg fill="none" height="32" viewBox="0 0 42 32" width="42" xmlns="http://www.w3.org/2000/svg"><path d="m41.9401 22.3262c0-.0043 0-.0069 0-.0118-.5496-7.4226-2.2291-12.92671-4.5911-16.64685-1.1818-1.86007-2.5415-3.27441-4.0225-4.22802-1.4811-.95361-3.0865-1.43952128-4.7077-1.43844981-1.0507-.0084034-2.094.17914681-3.0786.55341381-1.2988.499306-2.2438 1.238616-2.9831 1.785066-.3675.2743-.6866.49877-.9449.63538-.2584.13662-.4494.18751-.6101.18751-.1271-.00285-.2526-.02898-.3706-.07714-.2557-.09537-.598-.31234-1.0075-.61396-.619-.44787-1.3871-1.06825-2.3993-1.578271-1.0122-.51002-2.2774-.89521304-3.8435-.8930701-1.6191 0-3.2272.4848391-4.70768 1.4384511-2.22442 1.43684-4.1664 3.89157-5.66055 7.35778-1.49414 3.46616-2.54047 7.95136-2.951545 13.51606v.0118c-.04095.4546-.061425.8961-.061425 1.3243 0 2.0974.4725 3.8884 1.365 5.285.8708 1.3744 2.20004 2.3802 3.74167 2.8314.5264.1572 1.0722.2364 1.62068.2352 1.59495 0 3.2025-.6375 4.73235-1.7379 1.5298-1.1004 3.0025-2.683 4.3407-4.6652.6431-.9563 1.5172-2.076 2.4596-2.9176.4725-.4211.9566-.7715 1.4243-1.0067.4678-.2352.9099-.3552 1.3125-.3546.4027.0005.8463.1184 1.3125.3546.702.3515 1.4427.9676 2.1153 1.6838.6489.6969 1.2418 1.446 1.7729 2.2399 1.3382 1.9823 2.8082 3.5616 4.3396 4.6658 1.5315 1.1041 3.1385 1.7357 4.7334 1.7379.5484.0012 1.094-.078 1.6202-.2352 1.5427-.4505 2.873-1.4564 3.7443-2.8314.8925-1.3966 1.365-3.1876 1.365-5.285 0-.427-.02-.8689-.0599-1.3222zm-2.835 5.5915c-.6646 1.034-1.575 1.7143-2.73 2.0631-.3591.1072-.7314.1614-1.1056.1607-1.1062 0-2.3709-.4532-3.6829-1.3982-1.3119-.9451-2.6502-2.3626-3.8897-4.2002-.7004-1.042-1.6422-2.2619-2.7594-3.261-.5586-.4999-1.1624-.9461-1.8176-1.2761-.6551-.3301-1.366-.547-2.1199-.547s-1.47.2169-2.1221.547c-.9817.4971-1.8516 1.2477-2.6213 2.0604-.7158.7706-1.3698 1.5987-1.9556 2.4762-1.2395 1.8375-2.5804 3.2578-3.8903 4.2001-1.30983.9424-2.57718 1.4004-3.6823 1.3983-.37436.0007-.74688-.0535-1.10618-.1607-1.15184-.3499-2.06482-1.0292-2.72999-2.0631-.66518-1.034-1.06943-2.4521-1.06943-4.2693 0-.375.0168-.7629.0525-1.169v-.0139c.52815-7.2142 2.17035-12.4366 4.30342-15.78599 1.06575-1.67631 2.24858-2.88332 3.465-3.66656 1.21638-.78325 2.47118-1.15023 3.73588-1.15183.8307-.00842 1.6559.13885 2.4344.43448 1.0133.38948 1.795.98414 2.5557 1.54934.3817.2818.7576.55717 1.1797.7811.4221.22394.9046.39591 1.449.39591.3447-.0028.6861-.06867 1.008-.19447.5381-.20787.9844-.5202 1.4291-.84271.6657-.48806 1.3293-1.0179 2.1404-1.42131.8111-.4034 1.7593-.7002 3.0413-.70234 1.2648 0 2.5158.36912 3.7359 1.15183 1.8265 1.17272 3.5768 3.30923 4.9639 6.53221 1.387 3.22294 2.4097 7.51154 2.8066 12.92084v.0139c.035.4058.0525.7954.0525 1.169.0011 1.8172-.4068 3.2348-1.0688 4.2693z" fill="#6c7aab"/><path d="m14.3364 10.2969h-2.7382v2.6003h-2.49664v2.8526h2.49664v2.6008h2.7382v-2.6008h2.4962v-2.8526h-2.4962z" fill="#fff"/><path d="m14.3364 10.2969h-2.7382v2.6003h-2.49664v2.8526h2.49664v2.6008h2.7382v-2.6008h2.4962v-2.8526h-2.4962z" fill="#35c0ff"/><path d="m28.9193 9.48438c-.2856.00028-.5648.08877-.8021.2543s-.4222.40062-.5312.67562c-.1091.275-.1374.5775-.0814.8693.056.2917.1937.5596.3959.7698.2021.2102.4595.3532.7397.411s.5705.0277.8343-.0864c.2637-.1141.4891-.3072.6475-.5547.1585-.2475.2429-.5385.2427-.836-.0001-.1976-.0375-.3932-.1102-.5757s-.1792-.3483-.3135-.48789c-.1342-.13958-.2936-.25023-.4689-.32561-.1753-.07539-.3632-.11403-.5528-.11372z" fill="#fff"/><path d="m28.9193 9.48438c-.2856.00028-.5648.08877-.8021.2543s-.4222.40062-.5312.67562c-.1091.275-.1374.5775-.0814.8693.056.2917.1937.5596.3959.7698.2021.2102.4595.3532.7397.411s.5705.0277.8343-.0864c.2637-.1141.4891-.3072.6475-.5547.1585-.2475.2429-.5385.2427-.836-.0001-.1976-.0375-.3932-.1102-.5757s-.1792-.3483-.3135-.48789c-.1342-.13958-.2936-.25023-.4689-.32561-.1753-.07539-.3632-.11403-.5528-.11372z" fill="#35c0ff"/><path d="m28.9206 16.75c-.2856 0-.5648.0882-.8023.2536-.2375.1653-.4226.4002-.5319.6752-.1092.2749-.1378.5774-.0821.8692.0558.2918.1934.5598.3954.7702s.4593.3536.7395.4116c.2801.058.5705.0281.8343-.0858.2639-.1139.4894-.3068.648-.5543.1586-.2474.2433-.5383.2432-.8358 0-.1976-.0373-.3932-.1098-.5757-.0726-.1825-.179-.3484-.3131-.488-.1341-.1397-.2933-.2505-.4685-.326-.1753-.0755-.3631-.1143-.5527-.1142z" fill="#fff"/><path d="m28.9206 16.75c-.2856 0-.5648.0882-.8023.2536-.2375.1653-.4226.4002-.5319.6752-.1092.2749-.1378.5774-.0821.8692.0558.2918.1934.5598.3954.7702s.4593.3536.7395.4116c.2801.058.5705.0281.8343-.0858.2639-.1139.4894-.3068.648-.5543.1586-.2474.2433-.5383.2432-.8358 0-.1976-.0373-.3932-.1098-.5757-.0726-.1825-.179-.3484-.3131-.488-.1341-.1397-.2933-.2505-.4685-.326-.1753-.0755-.3631-.1143-.5527-.1142z" fill="#35c0ff"/><path d="m32.4119 13.1172c-.2855.0001-.5646.0884-.8019.2537s-.4223.4002-.5315.675-.1377.5771-.082.8688c.0558.2917.1933.5596.3952.7699s.4592.3535.7392.4114c.28.058.5702.0282.834-.0856s.4892-.3066.6478-.5539.2432-.538.2432-.8355c-.0001-.3988-.1523-.7814-.4231-1.0634s-.638-.4404-1.0209-.4404z" fill="#fff"/><path d="m32.4119 13.1172c-.2855.0001-.5646.0884-.8019.2537s-.4223.4002-.5315.675-.1377.5771-.082.8688c.0558.2917.1933.5596.3952.7699s.4592.3535.7392.4114c.28.058.5702.0282.834-.0856s.4892-.3066.6478-.5539.2432-.538.2432-.8355c-.0001-.3988-.1523-.7814-.4231-1.0634s-.638-.4404-1.0209-.4404z" fill="#35c0ff"/><path d="m25.4353 13.1172c-.2855.0001-.5645.0884-.8019.2537-.2373.1653-.4223.4002-.5315.675-.1091.2748-.1377.5771-.0819.8688.0557.2917.1933.5596.3952.7699s.4591.3535.7391.4114c.28.058.5703.0282.834-.0856.2638-.1138.4892-.3066.6478-.5539s.2433-.538.2433-.8355c0-.1975-.0374-.3931-.1099-.5756-.0726-.1825-.179-.3483-.3131-.4879-.1341-.1397-.2933-.2504-.4685-.326-.1752-.0755-.3629-.1144-.5526-.1143z" fill="#fff"/><path d="m25.4353 13.1172c-.2855.0001-.5645.0884-.8019.2537-.2373.1653-.4223.4002-.5315.675-.1091.2748-.1377.5771-.0819.8688.0557.2917.1933.5596.3952.7699s.4591.3535.7391.4114c.28.058.5703.0282.834-.0856.2638-.1138.4892-.3066.6478-.5539s.2433-.538.2433-.8355c0-.1975-.0374-.3931-.1099-.5756-.0726-.1825-.179-.3483-.3131-.4879-.1341-.1397-.2933-.2504-.4685-.326-.1752-.0755-.3629-.1144-.5526-.1143z" fill="#35c0ff"/></svg>