<svg width="196" height="78" viewBox="0 0 196 78" fill="none" xmlns="http://www.w3.org/2000/svg">
<g filter="url(#filter0_bd_3171_3146)">
<rect x="9" y="9" width="178" height="60" rx="30" fill="white" fill-opacity="0.15" shape-rendering="crispEdges"/>
<rect x="9.5" y="9.5" width="177" height="59" rx="29.5" stroke="white" shape-rendering="crispEdges"/>
</g>
<g filter="url(#filter1_di_3171_3146)">
<rect x="16" y="14" width="165" height="50" rx="25" fill="#00B2FF"/>
<rect x="16" y="14" width="165" height="50" rx="25" fill="url(#paint0_radial_3171_3146)" fill-opacity="0.7"/>
<rect x="16" y="14" width="165" height="50" rx="25" fill="url(#paint1_radial_3171_3146)" fill-opacity="0.5"/>
</g>
<path d="M74.8686 30.2H78.7086V47H75.5166L67.1406 36.8V47H63.3006V30.2H66.5166L74.8686 40.4V30.2ZM90.2674 33.896C93.3154 33.896 95.6194 35.672 95.6194 39.608V47H91.8754V40.184C91.8754 38.096 90.9154 37.136 89.2594 37.136C87.4594 37.136 86.1634 38.24 86.1634 40.616V47H82.4194V29.192H86.1634V35.432C87.1714 34.424 88.6114 33.896 90.2674 33.896ZM104.605 30.608L102.517 32.432H99.7812L102.949 28.976H106.261L109.429 32.432H106.693L104.605 30.608ZM104.221 33.896C108.157 33.896 110.437 35.72 110.437 39.632V47H106.933V45.392C106.237 46.568 104.893 47.192 102.997 47.192C99.9732 47.192 98.1732 45.512 98.1732 43.28C98.1732 41 99.7812 39.416 103.717 39.416H106.693C106.693 37.808 105.733 36.872 103.717 36.872C102.349 36.872 100.933 37.328 99.9972 38.072L98.6532 35.456C100.069 34.448 102.157 33.896 104.221 33.896ZM103.933 44.672C105.181 44.672 106.261 44.096 106.693 42.92V41.6H104.125C102.373 41.6 101.821 42.248 101.821 43.112C101.821 44.048 102.613 44.672 103.933 44.672ZM104.317 48.752C105.253 48.752 105.973 49.448 105.973 50.432C105.973 51.416 105.253 52.04 104.317 52.04C103.381 52.04 102.661 51.416 102.661 50.432C102.661 49.448 103.381 48.752 104.317 48.752ZM121.674 33.896C124.722 33.896 127.026 35.672 127.026 39.608V47H123.282V40.184C123.282 38.096 122.322 37.136 120.666 37.136C118.866 37.136 117.57 38.24 117.57 40.616V47H113.826V34.088H117.402V35.6C118.41 34.496 119.922 33.896 121.674 33.896Z" fill="white"/>
<defs>
<filter id="filter0_bd_3171_3146" x="-11" y="-11" width="218" height="100" filterUnits="userSpaceOnUse" color-interpolation-filters="sRGB">
<feFlood flood-opacity="0" result="BackgroundImageFix"/>
<feGaussianBlur in="BackgroundImageFix" stdDeviation="10"/>
<feComposite in2="SourceAlpha" operator="in" result="effect1_backgroundBlur_3171_3146"/>
<feColorMatrix in="SourceAlpha" type="matrix" values="0 0 0 0 0 0 0 0 0 0 0 0 0 0 0 0 0 0 127 0" result="hardAlpha"/>
<feOffset/>
<feGaussianBlur stdDeviation="4.5"/>
<feComposite in2="hardAlpha" operator="out"/>
<feColorMatrix type="matrix" values="0 0 0 0 0.00183462 0 0 0 0 0.70055 0 0 0 0 1 0 0 0 0.49 0"/>
<feBlend mode="normal" in2="effect1_backgroundBlur_3171_3146" result="effect2_dropShadow_3171_3146"/>
<feBlend mode="normal" in="SourceGraphic" in2="effect2_dropShadow_3171_3146" result="shape"/>
</filter>
<filter id="filter1_di_3171_3146" x="13" y="10" width="171" height="57" filterUnits="userSpaceOnUse" color-interpolation-filters="sRGB">
<feFlood flood-opacity="0" result="BackgroundImageFix"/>
<feColorMatrix in="SourceAlpha" type="matrix" values="0 0 0 0 0 0 0 0 0 0 0 0 0 0 0 0 0 0 127 0" result="hardAlpha"/>
<feOffset/>
<feGaussianBlur stdDeviation="1.5"/>
<feColorMatrix type="matrix" values="0 0 0 0 0 0 0 0 0 0.677172 0 0 0 0 0.967389 0 0 0 0.8 0"/>
<feBlend mode="normal" in2="BackgroundImageFix" result="effect1_dropShadow_3171_3146"/>
<feBlend mode="normal" in="SourceGraphic" in2="effect1_dropShadow_3171_3146" result="shape"/>
<feColorMatrix in="SourceAlpha" type="matrix" values="0 0 0 0 0 0 0 0 0 0 0 0 0 0 0 0 0 0 127 0" result="hardAlpha"/>
<feOffset dx="-3" dy="-4"/>
<feGaussianBlur stdDeviation="3.5"/>
<feComposite in2="hardAlpha" operator="arithmetic" k2="-1" k3="1"/>
<feColorMatrix type="matrix" values="0 0 0 0 1 0 0 0 0 1 0 0 0 0 1 0 0 0 0.15 0"/>
<feBlend mode="normal" in2="shape" result="effect2_innerShadow_3171_3146"/>
</filter>
<radialGradient id="paint0_radial_3171_3146" cx="0" cy="0" r="1" gradientUnits="userSpaceOnUse" gradientTransform="translate(59.5417 24.4167) rotate(20.546) scale(92.9989 62.5116)">
<stop stop-color="white" stop-opacity="0.59"/>
<stop offset="0.697917" stop-color="white" stop-opacity="0"/>
<stop offset="1" stop-color="white" stop-opacity="0"/>
</radialGradient>
<radialGradient id="paint1_radial_3171_3146" cx="0" cy="0" r="1" gradientUnits="userSpaceOnUse" gradientTransform="translate(158.397 57.75) rotate(-101.953) scale(43.6548 154.307)">
<stop stop-opacity="0.23"/>
<stop offset="0.861815" stop-opacity="0"/>
</radialGradient>
</defs>
</svg>
