<svg fill="none" height="24" viewBox="0 0 30 24" width="30" xmlns="http://www.w3.org/2000/svg"><g fill="#fff"><path d="m29.9378 16.1628c0-.0031 0-.005 0-.0085-.3924-5.3735-1.5912-9.35819-3.2772-12.05135-.8436-1.34657-1.8142-2.37047-2.8714-3.06082-1.0572-.690354-2.2032-1.04212369-3.3605-1.04134801-.75-.00608354-1.4947.12969201-2.1975.40063801-.9272.361465-1.6018.89668-2.1294 1.29228-.2623.19857-.4902.36108-.6746.45998-.1843.09889-.3208.13574-.4354.13574-.0907-.00207-.1804-.02098-.2646-.05585-.1825-.06903-.4269-.22611-.7192-.44446-.4418-.32424-.9901-.77335-1.7126-1.142576-.7225-.369223-1.6257-.64807891-2.7436-.64652756-1.15575 0-2.30363.35099356-3.36045 1.04134356-1.58784 1.04019-2.97406 2.81727-4.04062 5.32658-1.06656 2.50932-1.813449 5.75627-2.1068835 9.78477v.0086c-.029231.3291-.0438465.6487-.0438465.9587 0 1.5184.337281 2.8149.974367 3.826.621593.9949 1.570443 1.7231 2.670893 2.0498.37575.1138.76536.1711 1.15687.1702 1.13851 0 2.28602-.4615 3.37806-1.2581 1.09204-.7967 2.14321-1.9423 3.09851-3.3773.4591-.6923 1.083-1.5029 1.7557-2.1122.3373-.3049.6828-.5585 1.0167-.7288.3339-.1702.6495-.2571.9369-.2567.2875.0004.6041.0857.9369.2567.5011.2545 1.0298.7005 1.5099 1.219.4632.5045.8864 1.0468 1.2656 1.6216.9552 1.435 2.0045 2.5783 3.0977 3.3777 1.0932.7993 2.2403 1.2566 3.3788 1.2581.3914.0009.7809-.0564 1.1565-.1702 1.1012-.3262 2.0508-1.0544 2.6728-2.0498.6371-1.0111.9743-2.3076.9743-3.826 0-.3091-.0142-.6291-.0427-.9572zm-2.0237 4.0479c-.4744.7485-1.1242 1.2411-1.9487 1.4935-.2564.0777-.5221.1169-.7892.1164-.7897 0-1.6924-.3281-2.629-1.0123-.9365-.6841-1.8917-1.7103-2.7765-3.0406-.5-.7544-1.1723-1.6375-1.9698-2.3608-.3987-.3618-.8297-.6849-1.2974-.9238s-.9751-.396-1.5132-.396c-.5382 0-1.0494.1571-1.5148.396-.7008.3599-1.3218.9033-1.8712 1.4916-.5109.5579-.9777 1.1573-1.3959 1.7926-.88483 1.3303-1.84196 2.3584-2.77698 3.0407-.93501.6822-1.83968 1.0138-2.62854 1.0122-.26722.0005-.53314-.0387-.78961-.1163-.82222-.2533-1.47392-.7451-1.94874-1.4936-.47481-.7485-.76337-1.7751-.76337-3.0907 0-.2715.01199-.5523.03747-.8463v-.01c.37701-5.2227 1.54924-9.00334 3.07188-11.42811.76076-1.21354 1.60508-2.08735 2.47339-2.65437.86832-.56702 1.76398-.83269 2.66677-.83385.59293-.00609 1.18193.10052 1.73773.31454.7233.28196 1.2813.71246 1.8243 1.12163.2725.204.5408.40335.8421.56547.3013.16211.6457.28661 1.0343.28661.2461-.00203.4898-.04971.7196-.14079.3841-.15048.7026-.37659 1.0201-.61007.4752-.35332.9488-.73689 1.5278-1.02893s1.2559-.50691 2.171-.50846c.9028 0 1.7958.26722 2.6668.83385 1.3038.84898 2.5532 2.39568 3.5433 4.72892s1.7201 5.43786 2.0035 9.35386v.0101c.0249.2937.0374.5758.0374.8463.0008 1.3155-.2904 2.3418-.763 3.0907z"/><path d="m10.2333 7.45312h-1.95461v1.88249h-1.78213v2.06509h1.78213v1.8828h1.95461v-1.8828h1.7818v-2.06509h-1.7818z"/><path d="m20.6429 6.86719c-.2039.0002-.4031.06427-.5725.1841s-.3014.29005-.3793.48912c-.0778.19907-.098.41806-.0581.62928.04.21121.1383.40516.2826.55733.1443.15216.3281.2557.5281.29752.2.04183.4072.02005.5955-.06256s.3491-.22236.4623-.40156c.1131-.1792.1733-.38982.1731-.60521 0-.14304-.0267-.28467-.0786-.41679-.0519-.13211-.1279-.25213-.2238-.35318-.0958-.10105-.2095-.18115-.3347-.23572-.1251-.05458-.2592-.08255-.3946-.08233z"/><path d="m20.6438 12.125c-.2038 0-.4032.0639-.5727.1836-.1695.1196-.3016.2897-.3796.4888-.078.199-.0984.418-.0586.6292.0398.2113.138.4053.2822.5576s.3279.256.5278.298c.2.042.4073.0204.5956-.0621.1884-.0825.3493-.2221.4626-.4013.1132-.1791.1736-.3897.1735-.6051.0001-.143-.0266-.2846-.0783-.4168-.0518-.1321-.1278-.2521-.2235-.3532-.0957-.1012-.2094-.1813-.3345-.236-.125-.0547-.2591-.0828-.3945-.0827z"/><path d="m23.1362 9.49609c-.2038.00007-.403.06398-.5724.18365s-.3014.28972-.3794.48866c-.0779.1989-.0983.4178-.0585.629s.138.4051.2821.5573c.1441.1523.3277.2559.5276.2979s.4071.0204.5953-.062c.1883-.0824.3492-.222.4625-.401.1132-.179.1736-.3895.1736-.6048-.0001-.2888-.1087-.5657-.302-.76985-.1933-.20417-.4555-.31886-.7288-.31886z"/><path d="m18.156 9.49609c-.2038.00007-.403.06398-.5724.18365s-.3014.28972-.3794.48866c-.0779.1989-.0983.4178-.0585.629s.138.4051.2821.5573c.1442.1523.3278.2559.5276.2979.1999.042.4071.0204.5954-.062s.3492-.222.4624-.401.1736-.3895.1736-.6048c0-.143-.0266-.2846-.0784-.4167s-.1278-.25215-.2235-.35325-.2094-.18129-.3344-.23598c-.1251-.05469-.2591-.08282-.3945-.08278z"/></g></svg>