<svg width="30" height="30" viewBox="0 0 30 30" fill="none" xmlns="http://www.w3.org/2000/svg">
<path d="M27.6713 16.0577C26.7403 15.916 25.9135 16.5542 25.78 17.464C25.4446 19.7492 24.39 21.8342 22.7298 23.4944C18.5045 27.7197 11.6345 27.7164 7.41082 23.4944C3.18798 19.2707 3.18798 12.3982 7.41082 8.17535C8.99932 6.58769 11.0047 5.55252 13.249 5.17569C14.2141 4.99252 15.2518 4.96086 16.3285 5.08286C17.8068 5.25302 19.1828 5.74352 20.4385 6.46369L18.2687 6.83419C17.3622 6.98969 16.7516 7.85069 16.908 8.75802C17.0463 9.57019 17.7512 10.1439 18.5486 10.1439C18.6415 10.1439 18.7358 10.1365 18.8318 10.1202L24.6488 9.12569C25.0833 9.05086 25.4723 8.80669 25.728 8.44536C25.9835 8.08486 26.0845 7.63719 26.0095 7.20102L25.0133 1.38486C24.8603 0.478355 24.0106 -0.128811 23.0895 0.0233553C22.183 0.178855 21.5725 1.04069 21.7288 1.94802L21.991 3.47886C20.3778 2.57386 18.5983 1.98836 16.7077 1.77069C15.2916 1.60952 13.918 1.65436 12.6607 1.89519C9.76598 2.38019 7.13582 3.73686 5.05398 5.81852C-0.468515 11.341 -0.468515 20.327 5.05398 25.851C7.81515 28.613 11.4431 29.9934 15.0703 29.9934C18.6983 29.9934 22.3245 28.6132 25.0867 25.851C27.2563 23.6814 28.6365 20.9487 29.0775 17.949C29.2111 17.0375 28.5812 16.191 27.6713 16.0577Z" fill="white"/>
</svg>
