<svg fill="none" height="28" viewBox="0 0 31 28" width="31" xmlns="http://www.w3.org/2000/svg"><path d="m6.68728 10.531c.44519 0 .86738-.0041 1.28956.001.70131.0081 1.24855.4619 1.32358 1.1611.02801.2606-.02001.575-.14657.7996-.94741 1.6875-1.90933 3.3673-2.89576 5.032-.50372.8503-1.76027.8209-2.25848-.033-.94992-1.6276-1.89283-3.2598-2.82774-4.8966-.560741-.9816.05303-2.0499 1.17402-2.0631.43318-.0051.86737-.0102 1.30056.0025.17458.0051.23911-.0527.28413-.2241.75383-2.84302 2.24748-5.21397 4.47995-7.09309 2.00087-1.68441 4.29337-2.746673 6.87747-3.082338 4.554-.591724 8.4897.762599 11.7276 4.054348 2.175 2.21123 3.4285 4.92241 3.8177 8.02148.6738 5.36-1.8433 10.682-6.3543 13.5082-2.3215 1.4548-4.8456 2.195-7.5713 2.1205-3.6566-.0999-6.8034-1.4669-9.41907-4.0675-.38317-.3808-.50822-.8473-.35966-1.3706.14306-.504.48021-.8285.98393-.9436.49972-.1141.93591.0264 1.30157.398.77683.789 1.65273 1.4441 2.62813 1.9583 2.0289 1.0703 4.1778 1.4866 6.4553 1.2245 4.4915-.5172 8.2736-3.8571 9.3896-8.3009 1.1655-4.6405-.5787-9.37072-4.4694-12.07784-1.4892-1.0359-3.1384-1.68745-4.9382-1.85529-4.6005-.42946-8.1705 1.3594-10.69214 5.26264-.43719.67691-.69881 1.46993-1.03795 2.21119-.03052.067-.03652.144-.06253.2526z" fill="#6c7aab"/><path d="m16.562 6.42528c0-.4467-.004-.90964.0015-1.37206.004-.34277.1876-.57246.4767-.61809.3882-.06136.6818.18405.6943.59983.0115.37167.0025.74333.0025 1.11551v.28445c.3682.06642.7214.11155 1.066.1947 1.5397.37218 2.5206 1.34976 2.9583 2.87952.1361.47612.029.92486-.3542 1.27016-.3816.3443-.8288.3848-1.2885.2236-.4582-.1602-.6353-.5648-.7579-1.0014-.1935-.68909-.6032-1.19462-1.2525-1.49022-.104-.04767-.2146-.08113-.3567-.13437-.0055.11966-.0135.20789-.0135.29611-.001 1.2083.004 2.41708-.007 3.62538-.002.1952.0746.254.2391.3053.6283.1947 1.2711.3589 1.8744.6165 2.4976 1.0663 2.8657 3.7202 2.0168 5.574-.6652 1.4527-1.8748 2.16-3.3649 2.4637-.2361.0482-.4762.0776-.7594.1227v.4118c0 .3382.0095.6764-.003 1.014-.0135.3748-.2606.61-.6037.6004-.3327-.0091-.5598-.2454-.5663-.612-.008-.4635-.002-.9269-.002-1.4035-.3426-.0644-.6713-.1075-.9909-.1891-1.5072-.3859-2.6607-1.2327-3.2769-2.7122-.1551-.3717-.2166-.7971-.2511-1.2038-.0516-.6089.4011-1.1464 1.0004-1.2661.6473-.1293 1.184.177 1.4051.7971.1301.3651.2516.7337.4022 1.0902.3211.7595.8859 1.2422 1.6937 1.4816.007-.1009.0165-.1729.0165-.2455.001-1.3943-.003-2.7887.0045-4.1831.001-.1744-.052-.2424-.2156-.2981-.5757-.1947-1.1565-.3824-1.7117-.6278-1.3236-.5851-2.1034-1.5972-2.214-3.0823-.105-1.41314.2511-2.65186 1.4101-3.5473.6648-.51364 1.4447-.75297 2.261-.88125.1316-.02079.2636-.03904.3952-.06034.015-.00203.0285-.01419.0715-.03803zm1.1926 8.64412v4.4519c.3446-.1318.6667-.2206.9564-.3722.9914-.5197 1.4436-1.653 1.0379-2.6569-.3551-.8787-1.187-1.1044-1.9943-1.4228zm-1.2041-6.68996c-.9084.04361-1.7197.88835-1.7477 1.78986-.0306.9852.7483 1.867 1.7477 1.9663 0-1.2473 0-2.4931 0-3.75616z" fill="#35c0ff"/></svg>