<svg fill="none" height="28" viewBox="0 0 31 28" width="31" xmlns="http://www.w3.org/2000/svg"><g fill="#fff"><path d="m6.46853 10.531c.44519 0 .86738-.0041 1.28956.001.70131.0081 1.24855.4619 1.32358 1.1611.02801.2606-.02001.575-.14657.7996-.94741 1.6875-1.90933 3.3673-2.89576 5.032-.50372.8503-1.76027.8209-2.25848-.033-.94992-1.6276-1.89283-3.2598-2.827737-4.8966-.560744-.9816.053027-2.0499 1.174017-2.0631.43318-.0051.86737-.0102 1.30056.0025.17458.0051.23911-.0527.28413-.2241.75383-2.84302 2.24748-5.21397 4.47995-7.09309 2.00092-1.68441 4.29342-2.746673 6.87752-3.082338 4.554-.591724 8.4897.762599 11.7276 4.054348 2.1749 2.21123 3.4285 4.92241 3.8177 8.02148.6738 5.36-1.8433 10.682-6.3543 13.5082-2.3215 1.4548-4.8456 2.195-7.5713 2.1205-3.6566-.0999-6.80348-1.4669-9.41912-4.0675-.38317-.3808-.50822-.8473-.35966-1.3706.14306-.504.48021-.8285.98393-.9436.49972-.1141.93591.0264 1.30157.398.77684.789 1.65268 1.4441 2.62818 1.9583 2.0288 1.0703 4.1778 1.4866 6.4553 1.2245 4.4914-.5172 8.2736-3.8571 9.3896-8.3009 1.1655-4.6405-.5788-9.37072-4.4695-12.07784-1.4891-1.0359-3.1383-1.68745-4.9381-1.85529-4.6005-.42946-8.1706 1.3594-10.69219 5.26264-.43719.67691-.69881 1.46993-1.03795 2.21119-.03052.067-.03652.144-.06253.2526z"/><path d="m16.3433 6.42528c0-.4467-.004-.90964.0015-1.37206.004-.34277.1876-.57246.4767-.61809.3882-.06136.6818.18405.6943.59983.0115.37167.0025.74333.0025 1.11551v.28445c.3682.06642.7213.11155 1.066.1947 1.5396.37218 2.5206 1.34976 2.9582 2.87952.1361.47612.0291.92486-.3541 1.27016-.3817.3443-.8289.3848-1.2886.2236-.4582-.1602-.6352-.5648-.7578-1.0014-.1936-.68909-.6033-1.19462-1.2525-1.49022-.1041-.04767-.2146-.08113-.3567-.13437-.0055.11966-.0135.20789-.0135.29611-.001 1.2083.004 2.41708-.007 3.62538-.002.1952.0745.254.2391.3053.6283.1947 1.271.3589 1.8743.6165 2.4976 1.0663 2.8658 3.7202 2.0169 5.574-.6653 1.4527-1.8748 2.16-3.365 2.4637-.2361.0482-.4762.0776-.7593.1227v.4118c0 .3382.0095.6764-.003 1.014-.0135.3748-.2606.61-.6038.6004-.3326-.0091-.5597-.2454-.5662-.612-.008-.4635-.002-.9269-.002-1.4035-.3427-.0644-.6713-.1075-.991-.1891-1.5071-.3859-2.6606-1.2327-3.2769-2.7122-.155-.3717-.2166-.7971-.2511-1.2038-.0515-.6089.4012-1.1464 1.0004-1.2661.6473-.1293 1.1841.177 1.4052.7971.13.3651.2516.7337.4021 1.0902.3212.7595.8859 1.2422 1.6938 1.4816.007-.1009.0165-.1729.0165-.2455.001-1.3943-.003-2.7887.0045-4.1831.001-.1744-.052-.2424-.2156-.2981-.5758-.1947-1.1565-.3824-1.7118-.6278-1.3235-.5851-2.1034-1.5972-2.2139-3.0823-.1051-1.41314.2511-2.65186 1.4101-3.5473.6648-.51364 1.4446-.75297 2.261-.88125.1315-.02079.2636-.03904.3951-.06034.0151-.00203.0286-.01419.0716-.03803zm1.1925 8.64412v4.4519c.3447-.1318.6668-.2206.9564-.3722.9914-.5197 1.4436-1.653 1.038-2.6569-.3552-.8787-1.187-1.1044-1.9944-1.4228zm-1.204-6.68996c-.9084.04361-1.7198.88835-1.7478 1.78986-.0305.9852.7483 1.867 1.7478 1.9663 0-1.2473 0-2.4931 0-3.75616z"/></g></svg>