<svg fill="none" height="24" viewBox="0 0 23 24" width="23" xmlns="http://www.w3.org/2000/svg" xmlns:xlink="http://www.w3.org/1999/xlink"><filter   color-interpolation-filters="sRGB" filterUnits="userSpaceOnUse" height="23" width="22.8848" x="0" y=".6875"><feFlood flood-opacity="0" result="BackgroundImageFix"/><feColorMatrix in="SourceAlpha" result="hardAlpha" type="matrix" values="0 0 0 0 0 0 0 0 0 0 0 0 0 0 0 0 0 0 127 0"/><feOffset dy="1"/><feGaussianBlur stdDeviation="1"/><feComposite in2="hardAlpha" operator="out"/><feColorMatrix type="matrix" values="0 0 0 0 0 0 0 0 0 0 0 0 0 0 0 0 0 0 0.88 0"/><feBlend in2="BackgroundImageFix" mode="overlay" result="effect1_dropShadow_2587_1197"/><feBlend in="SourceGraphic" in2="effect1_dropShadow_2587_1197" mode="normal" result="shape"/></filter><linearGradient id="b"><stop offset="0" stop-color="#eefdff"/><stop offset="1" stop-color="#c8f8ff"/></linearGradient><linearGradient id="c" gradientUnits="userSpaceOnUse" x1="6.71916" x2="6.71916" xlink:href="#b" y1="1.6875" y2="11.118"/><linearGradient id="d" gradientUnits="userSpaceOnUse" x1="15.8462" x2="15.8462" xlink:href="#b" y1="11.2891" y2="19.7837"/><linearGradient id="e" gradientUnits="userSpaceOnUse" x1="11.4697" x2="11.4697" xlink:href="#b" y1="1.85937" y2="20.6894"/><g filter="url(#a)"><path d="m6.54824 9.68872c.52759-.07087 1.05519.11025 1.42923.48428l.94494.945.89376-.8899-1.29142-1.28746c-.2008-.2008-.2008-.52759 0-.72839s.52759-.2008.72839 0l1.29146 1.29142.8937-.88982-.9489-.94888c-.374-.37404-.55511-.90557-.4842-1.42923.1575-1.19693-.22446-2.44898-1.14185-3.3703-.93707-.93707-2.22062-1.31505-3.43723-1.13394-.19293.02756-.27167.26774-.13387.40554l1.21662 1.21662c.57877.57878.57877 1.51585 0 2.09069l-.74809.74808c-.57877.57878-1.51584.57878-2.09068 0l-1.22056-1.21662c-.1378-.1378-.37404-.05906-.40554.13387-.18111 1.21662.19687 2.50017 1.13394 3.43724.92132.91738 2.17337 1.29929 3.3703 1.1418z" fill="url(#c)"/><path d="m14.1136 11.2891-.8938.8898 5.3074 5.3074c.2009.2008.2009.5276 0 .7284-.2008.2008-.5275.2008-.7283 0l-5.3075-5.3074-.8937.8898 5.4688 5.4689c.693.6929 1.8151.689 2.5081-.004.6929-.6929.6929-1.815.0039-2.508z" fill="url(#d)"/><path d="m16.1678 7.74953h2.3585l2.3584-4.71291-1.1773-1.17724-4.7168 2.35448v2.35843l-6.40989 6.39021-1.15362-1.1497-4.64598 4.646c-.96856.9685-.96856 2.5356 0 3.5041.96857.9686 2.53561.9686 3.50417 0l4.64602-4.6459-1.17728-1.1773z" fill="url(#e)"/></g></svg>