<svg width="50" height="50" viewBox="0 0 50 50" fill="none" xmlns="http://www.w3.org/2000/svg">
<path d="M24.987 35.7008C24.6048 35.7008 24.2382 35.5495 23.968 35.2802C23.6977 35.0109 23.5459 34.6456 23.5459 34.2647V30.1431C23.5459 29.7622 23.6977 29.397 23.968 29.1276C24.2382 28.8583 24.6048 28.707 24.987 28.707C25.3692 28.707 25.7358 28.8583 26.0061 29.1276C26.2763 29.397 26.4281 29.7622 26.4281 30.1431V34.2647C26.4281 34.6456 26.2763 35.0109 26.0061 35.2802C25.7358 35.5495 25.3692 35.7008 24.987 35.7008Z" fill="white"/>
<path d="M24.987 35.7008C24.6048 35.7008 24.2382 35.5495 23.968 35.2802C23.6977 35.0109 23.5459 34.6456 23.5459 34.2647V30.1431C23.5459 29.7622 23.6977 29.397 23.968 29.1276C24.2382 28.8583 24.6048 28.707 24.987 28.707C25.3692 28.707 25.7358 28.8583 26.0061 29.1276C26.2763 29.397 26.4281 29.7622 26.4281 30.1431V34.2647C26.4281 34.6456 26.2763 35.0109 26.0061 35.2802C25.7358 35.5495 25.3692 35.7008 24.987 35.7008Z" fill="#35C0FF"/>
<path d="M42.1346 23.5926C41.4028 22.1456 40.2241 20.9709 38.7719 20.2418C38.1336 19.9275 37.4495 19.7158 36.7448 19.6147V16.7425C36.7423 13.6331 35.5032 10.6514 33.2991 8.45052C31.095 6.24961 28.1055 5.00886 24.9853 5C21.8617 5.00253 18.8667 6.23985 16.6575 8.44041C14.4484 10.641 13.2055 13.625 13.2017 16.7377V19.6099C12.497 19.711 11.8128 19.9227 11.1745 20.237C9.72992 20.9683 8.55939 22.1431 7.83584 23.5879C7 25.2154 7 27.068 7 30.7683V33.6405C7 37.3265 7 39.179 7.83584 40.821C8.56272 42.2634 9.73233 43.4372 11.1745 44.1719C12.8078 45 14.6668 45 18.3801 45H31.6143C35.3132 45 37.1722 45 38.8199 44.1719C40.2716 43.4421 41.4502 42.2677 42.1825 40.821C43.0136 39.1934 43.0137 37.3408 43.0137 33.6405V30.7683C42.9656 27.0728 42.9656 25.2202 42.1346 23.5926ZM24.9853 7.88177C27.344 7.88431 29.6053 8.81916 31.2731 10.4812C32.941 12.1433 33.8792 14.3967 33.8818 16.7472V19.4423C33.2045 19.4423 32.4407 19.4423 31.6 19.4423H18.3657C17.5154 19.4423 16.7613 19.4423 16.0839 19.4423V16.7472C16.0852 14.3946 17.0233 12.1387 18.6922 10.4747C20.3611 8.81074 22.6244 7.87472 24.9853 7.87219V7.88177ZM40.0834 33.6453C40.0834 36.8717 40.0833 38.4945 39.5645 39.5093C39.1084 40.402 38.3803 41.1276 37.4846 41.5821C36.4662 42.0991 34.8377 42.0991 31.6 42.0991H18.3657C15.128 42.0991 13.4995 42.0991 12.4811 41.5821C11.5873 41.1249 10.8599 40.4 10.4011 39.5093C9.88228 38.4945 9.88224 36.8717 9.88224 33.6453V30.7731C9.88224 27.5467 9.88228 25.9287 10.4011 24.9091C10.8599 24.0184 11.5873 23.2935 12.4811 22.8363C13.1921 22.5273 13.9584 22.3645 14.7341 22.3576C15.666 22.3001 16.8573 22.3002 18.3657 22.3002H31.6C33.1084 22.3002 34.3044 22.3001 35.2315 22.3576C36.0056 22.3651 36.7702 22.5279 37.4798 22.8363C38.3768 23.2912 39.1052 24.0188 39.5597 24.9138C40.0785 25.9287 40.0785 27.5467 40.0785 30.7731L40.0834 33.6453Z" fill="#6C7AAB"/>
</svg>
