<svg fill="none" height="47" viewBox="0 0 47 47" width="47" xmlns="http://www.w3.org/2000/svg"><g fill="#4098d8"><path d="m18.9932 23.7417c-.7833-.7833-1.9583-.7833-2.7416 0-.7834.7833-.7834 1.9583 0 2.7417l5.875 5.875c.3916.3916.7833.5875 1.3708.5875s.9792-.1959 1.3708-.5875l13.7084-15.6667c.5875-.7833.5875-2.1542-.3917-2.7417-.7833-.5875-1.9583-.5875-2.5458.1959l-12.1417 13.9041z"/><path d="m41.1251 21.543c-1.175 0-1.9584.7833-1.9584 1.9583 0 8.6167-7.05 15.6667-15.6666 15.6667-8.6167 0-15.66669-7.05-15.66669-15.6667 0-4.1125 1.56667-8.0292 4.50419-10.9667 2.9375-3.1333 7.05-4.69996 11.1625-4.69996 1.175 0 2.5458.19583 3.7208.39166.9792.39167 2.1542-.19583 2.5458-1.37083.3917-1.175-.3916-1.95833-1.3708-2.35h-.1958c-1.5667-.39167-3.1334-.5875-4.7-.5875-10.7709 0-19.58336 8.81253-19.38752 19.77913 0 5.0917 2.15416 10.1834 5.67916 13.7084 3.72086 3.7208 8.61666 5.6791 13.70836 5.6791 10.7708 0 19.5833-8.8125 19.5833-19.5833 0-1.175-.7833-1.9583-1.9583-1.9583z"/></g></svg>