<svg width="54" height="53" viewBox="0 0 54 53" fill="none" xmlns="http://www.w3.org/2000/svg"> 
<circle cx="27.5" cy="26.5" r="24.5" fill="url(#paint0_linear_8787_18437)" stroke="url(#paint1_linear_8787_18437)" stroke-width="4"/>
<circle cx="27.5029" cy="26.499" r="23.0576" fill="url(#paint2_linear_8787_18437)" stroke="url(#paint3_linear_8787_18437)"/>
<g filter="url(#filter0_ii_8787_18437)">
<circle cx="27.5021" cy="26.4982" r="20.8693" fill="url(#paint4_linear_8787_18437)"/>
</g>
<g filter="url(#filter1_f_8787_18437)">
<g filter="url(#filter2_f_8787_18437)">
<path d="M43.5443 41.0684C43.4979 41.043 43.4598 41.005 43.4344 40.9586L41.8334 38.0312L40.2325 40.9585C40.2071 41.0049 40.169 41.043 40.1227 41.0683L37.1953 42.6694L40.1226 44.2704C40.169 44.2957 40.2071 44.3338 40.2324 44.3802L41.8334 47.3075L43.4344 44.3802C43.4598 44.3338 43.4978 44.2957 43.5442 44.2704L46.4715 42.6694L43.5443 41.0684Z" fill="white"/>
</g>
<path d="M43.5443 41.0684C43.4979 41.043 43.4598 41.005 43.4344 40.9586L41.8334 38.0312L40.2325 40.9585C40.2071 41.0049 40.169 41.043 40.1227 41.0683L37.1953 42.6694L40.1226 44.2704C40.169 44.2957 40.2071 44.3338 40.2324 44.3802L41.8334 47.3075L43.4344 44.3802C43.4598 44.3338 43.4978 44.2957 43.5442 44.2704L46.4715 42.6694L43.5443 41.0684Z" fill="white"/>
</g>
<g filter="url(#filter3_f_8787_18437)">
<path d="M44.4053 11.0292C44.3877 11.0195 44.3731 11.005 44.3635 10.9873L43.753 9.87109L43.1425 10.9873C43.1328 11.005 43.1183 11.0195 43.1006 11.0292L41.9844 11.6397L43.1006 12.2502C43.1183 12.2598 43.1328 12.2744 43.1425 12.292L43.7529 13.4083L44.3634 12.292C44.3731 12.2744 44.3876 12.2598 44.4053 12.2502L45.5215 11.6397L44.4053 11.0292Z" fill="#0080F5"/>
</g>
<path d="M44.4053 11.0292C44.3877 11.0195 44.3731 11.005 44.3635 10.9873L43.753 9.87109L43.1425 10.9873C43.1328 11.005 43.1183 11.0195 43.1006 11.0292L41.9844 11.6397L43.1006 12.2502C43.1183 12.2598 43.1328 12.2744 43.1425 12.292L43.7529 13.4083L44.3634 12.292C44.3731 12.2744 44.3876 12.2598 44.4053 12.2502L45.5215 11.6397L44.4053 11.0292Z" fill="white"/>
<g filter="url(#filter4_f_8787_18437)">
<path d="M5.78815 19.6112C5.77047 19.6016 5.75595 19.587 5.74627 19.5694L5.13578 18.4531L4.52531 19.5693C4.51564 19.587 4.50111 19.6015 4.48343 19.6112L3.36719 20.2217L4.48341 20.8322C4.50109 20.8419 4.51561 20.8564 4.52529 20.8741L5.13576 21.9903L5.74625 20.8741C5.75593 20.8564 5.77045 20.8419 5.78813 20.8322L6.90435 20.2217L5.78815 19.6112Z" fill="#005773"/>
</g>
<path d="M5.78815 19.6112C5.77047 19.6016 5.75595 19.587 5.74627 19.5694L5.13578 18.4531L4.52531 19.5693C4.51564 19.587 4.50111 19.6015 4.48343 19.6112L3.36719 20.2217L4.48341 20.8322C4.50109 20.8419 4.51561 20.8564 4.52529 20.8741L5.13576 21.9903L5.74625 20.8741C5.75593 20.8564 5.77045 20.8419 5.78813 20.8322L6.90435 20.2217L5.78815 19.6112Z" fill="white"/>
<path d="M36.56 26.3827C36.56 27.1686 35.86 27.8082 35 27.8082C34.14 27.8082 33.44 27.1686 33.44 26.3827C33.44 25.5968 34.14 24.9571 35 24.9571C35.86 24.9571 36.56 25.5968 36.56 26.3827ZM17.0733 26.3827C17.0733 27.1686 17.7733 27.8082 18.6333 27.8082C19.4933 27.8082 20.1933 27.1686 20.1933 26.3827C20.1933 25.5968 19.4933 24.9571 18.6333 24.9571C17.7733 24.9571 17.0733 25.5968 17.0733 26.3827ZM14.5667 34.7654H32.4333V32.7611H17.2067C17.2333 32.621 17.2533 32.4748 17.2533 32.3225C17.2533 31.0127 16.0867 29.9465 14.6533 29.9465C14.5 29.9465 14.3467 29.9587 14.2 29.9831V22.7762C14.3467 22.8006 14.5 22.8127 14.6533 22.8127C16.0867 22.8127 17.2533 21.7466 17.2533 20.4368C17.2533 20.2845 17.24 20.1444 17.2067 19.9982H36.28C36.2267 20.181 36.2 20.3759 36.2 20.5769C36.2 21.8867 37.3667 22.9529 38.8 22.9529C39.02 22.9529 39.24 22.9285 39.44 22.8797V27.7473H41.6333V20.3454C41.6333 19.0539 40.48 18 39.0667 18H14.5667C13.1533 18 12 19.0539 12 20.3454V32.4199C12 33.7114 13.1533 34.7654 14.5667 34.7654ZM33.44 33.084C33.26 33.084 33.1133 33.218 33.1133 33.3825V34.4669C33.1133 34.6313 33.26 34.7654 33.44 34.7654H41.3067C41.4867 34.7654 41.6333 34.6313 41.6333 34.4669V33.3825C41.6333 33.218 41.4867 33.084 41.3067 33.084H33.44ZM43.16 32.1092V31.0248C43.16 30.8604 43.0133 30.7263 42.8333 30.7263H34.9667C34.7867 30.7263 34.64 30.8604 34.64 31.0248V32.1092C34.64 32.2737 34.7867 32.4077 34.9667 32.4077H42.8333C43.0133 32.4077 43.16 32.2737 43.16 32.1092ZM44.3533 28.3687H36.4867C36.3067 28.3687 36.16 28.5027 36.16 28.6672V29.7516C36.16 29.9161 36.3067 30.0501 36.4867 30.0501H44.3533C44.5333 30.0501 44.68 29.9161 44.68 29.7516V28.6672C44.68 28.5027 44.5333 28.3687 44.3533 28.3687ZM26.82 21.241C29.9267 21.241 32.4467 23.5438 32.4467 26.3827C32.4467 29.2216 29.9267 31.5244 26.82 31.5244C23.7133 31.5244 21.1933 29.2216 21.1933 26.3827C21.1933 23.5438 23.7067 21.241 26.82 21.241ZM27.3133 22.563H26.6733C26.5733 22.563 26.5 22.6361 26.5 22.7214V23.4219C26.0133 23.489 25.6133 23.6473 25.3133 23.9154C24.98 24.2078 24.8133 24.5794 24.8133 25.0363C24.8133 25.5359 24.9733 25.9197 25.2867 26.1756C25.6 26.4314 26.1067 26.6873 26.7933 26.9432C27.08 27.0528 27.2733 27.1686 27.3867 27.2843C27.5 27.4001 27.5533 27.5646 27.5533 27.7778C27.5533 27.9605 27.5 28.1067 27.3933 28.2225C27.2867 28.3322 27.1267 28.3931 26.9133 28.3931C26.66 28.3931 26.4533 28.32 26.3 28.1738C26.1733 28.0519 26.0933 27.8692 26.0733 27.6255C26.0667 27.528 25.9733 27.4549 25.8667 27.461L24.8133 27.4793C24.7 27.4793 24.6067 27.5706 24.6067 27.6742C24.6333 28.1859 24.8133 28.5758 25.1467 28.8561C25.5067 29.1546 25.96 29.3373 26.5 29.3922V30.0501C26.5 30.1415 26.58 30.2085 26.6733 30.2085H27.3133C27.4133 30.2085 27.4867 30.1354 27.4867 30.0501V29.3678C27.92 29.2947 28.2733 29.1363 28.5467 28.8987C28.8667 28.6124 29.0267 28.2408 29.0267 27.7717C29.0267 27.2843 28.8667 26.9066 28.5467 26.6386C28.2267 26.3766 27.7267 26.1085 27.0467 25.8466C26.7533 25.7308 26.5533 25.6151 26.4467 25.4993C26.34 25.3836 26.2867 25.2313 26.2867 25.0485C26.2867 24.8658 26.3333 24.7196 26.4333 24.5977C26.5333 24.482 26.6867 24.421 26.8933 24.421C27.1 24.421 27.26 24.4941 27.3867 24.6343C27.4867 24.75 27.5467 24.9084 27.5667 25.1216C27.5733 25.2191 27.6733 25.2861 27.7733 25.2861L28.8267 25.2739C28.94 25.2739 29.04 25.1826 29.0333 25.079C29.0067 24.6586 28.86 24.3053 28.5867 24.019C28.3067 23.7205 27.94 23.5316 27.48 23.4463V22.7214C27.4867 22.63 27.4067 22.563 27.3133 22.563Z" fill="white"/>
<defs>
<filter id="filter0_ii_8787_18437" x="6.63281" y="5.62891" width="41.7422" height="43.7383" filterUnits="userSpaceOnUse" color-interpolation-filters="sRGB">
<feFlood flood-opacity="0" result="BackgroundImageFix"/>
<feBlend mode="normal" in="SourceGraphic" in2="BackgroundImageFix" result="shape"/>
<feColorMatrix in="SourceAlpha" type="matrix" values="0 0 0 0 0 0 0 0 0 0 0 0 0 0 0 0 0 0 127 0" result="hardAlpha"/>
<feOffset/>
<feGaussianBlur stdDeviation="2"/>
<feComposite in2="hardAlpha" operator="arithmetic" k2="-1" k3="1"/>
<feColorMatrix type="matrix" values="0 0 0 0 0 0 0 0 0 0.26 0 0 0 0 0.65 0 0 0 1 0"/>
<feBlend mode="normal" in2="shape" result="effect1_innerShadow_8787_18437"/>
<feColorMatrix in="SourceAlpha" type="matrix" values="0 0 0 0 0 0 0 0 0 0 0 0 0 0 0 0 0 0 127 0" result="hardAlpha"/>
<feOffset dy="2"/>
<feGaussianBlur stdDeviation="2"/>
<feComposite in2="hardAlpha" operator="arithmetic" k2="-1" k3="1"/>
<feColorMatrix type="matrix" values="0 0 0 0 0 0 0 0 0 0.200667 0 0 0 0 0.716667 0 0 0 0.5 0"/>
<feBlend mode="normal" in2="effect1_innerShadow_8787_18437" result="effect2_innerShadow_8787_18437"/>
</filter>
<filter id="filter1_f_8787_18437" x="35.1953" y="36.0312" width="13.2734" height="13.2773" filterUnits="userSpaceOnUse" color-interpolation-filters="sRGB">
<feFlood flood-opacity="0" result="BackgroundImageFix"/>
<feBlend mode="normal" in="SourceGraphic" in2="BackgroundImageFix" result="shape"/>
<feGaussianBlur stdDeviation="1" result="effect1_foregroundBlur_8787_18437"/>
</filter>
<filter id="filter2_f_8787_18437" x="34.1953" y="35.0312" width="15.2734" height="15.2773" filterUnits="userSpaceOnUse" color-interpolation-filters="sRGB">
<feFlood flood-opacity="0" result="BackgroundImageFix"/>
<feBlend mode="normal" in="SourceGraphic" in2="BackgroundImageFix" result="shape"/>
<feGaussianBlur stdDeviation="1.5" result="effect1_foregroundBlur_8787_18437"/>
</filter>
<filter id="filter3_f_8787_18437" x="38.9844" y="6.87109" width="9.53906" height="9.53906" filterUnits="userSpaceOnUse" color-interpolation-filters="sRGB">
<feFlood flood-opacity="0" result="BackgroundImageFix"/>
<feBlend mode="normal" in="SourceGraphic" in2="BackgroundImageFix" result="shape"/>
<feGaussianBlur stdDeviation="1.5" result="effect1_foregroundBlur_8787_18437"/>
</filter>
<filter id="filter4_f_8787_18437" x="0.367188" y="15.4531" width="9.53906" height="9.53906" filterUnits="userSpaceOnUse" color-interpolation-filters="sRGB">
<feFlood flood-opacity="0" result="BackgroundImageFix"/>
<feBlend mode="normal" in="SourceGraphic" in2="BackgroundImageFix" result="shape"/>
<feGaussianBlur stdDeviation="1.5" result="effect1_foregroundBlur_8787_18437"/>
</filter>
<linearGradient id="paint0_linear_8787_18437" x1="13.3285" y1="3.6223" x2="27.5" y2="53" gradientUnits="userSpaceOnUse">
<stop stop-color="#0079F1"/>
<stop offset="0.501018" stop-color="#81C0FC"/>
<stop offset="0.979167" stop-color="#004ABF"/>
</linearGradient>
<linearGradient id="paint1_linear_8787_18437" x1="27.5" y1="0" x2="27.5" y2="53" gradientUnits="userSpaceOnUse">
<stop stop-color="#DAEBFF"/>
<stop offset="0.245067" stop-color="white" stop-opacity="0"/>
</linearGradient>
<linearGradient id="paint2_linear_8787_18437" x1="14.9049" y1="6.1615" x2="27.5029" y2="50.0565" gradientUnits="userSpaceOnUse">
<stop stop-color="#014BC0"/>
<stop offset="1" stop-color="#80BFFC"/>
</linearGradient>
<linearGradient id="paint3_linear_8787_18437" x1="27.5029" y1="2.94141" x2="27.5029" y2="50.0565" gradientUnits="userSpaceOnUse">
<stop stop-color="#74ABFF"/>
<stop offset="1" stop-color="#BFD9FF"/>
</linearGradient>
<linearGradient id="paint4_linear_8787_18437" x1="16.3418" y1="8.48154" x2="27.5021" y2="47.3675" gradientUnits="userSpaceOnUse">
<stop stop-color="#00CDF3"/>
<stop offset="1" stop-color="#5987FF"/>
</linearGradient>
</defs>
</svg>
