<svg width="54" height="54" viewBox="0 0 54 54" fill="none" xmlns="http://www.w3.org/2000/svg">
<g clip-path="url(#clip0_5023_1844)">
<circle cx="27" cy="27" r="26" fill="#00267D" stroke="url(#paint0_linear_5023_1844)" stroke-width="2"/>
<path d="M38.5581 27.7473C38.5581 28.6611 37.7442 29.4049 36.7442 29.4049C35.7442 29.4049 34.9302 28.6611 34.9302 27.7473C34.9302 26.8335 35.7442 26.0897 36.7442 26.0897C37.7442 26.0897 38.5581 26.8335 38.5581 27.7473ZM15.8992 27.7473C15.8992 28.6611 16.7132 29.4049 17.7132 29.4049C18.7132 29.4049 19.5271 28.6611 19.5271 27.7473C19.5271 26.8335 18.7132 26.0897 17.7132 26.0897C16.7132 26.0897 15.8992 26.8335 15.8992 27.7473ZM12.9845 37.4946H33.7597V35.1641H16.0543C16.0853 35.0011 16.1085 34.8311 16.1085 34.654C16.1085 33.131 14.7519 31.8913 13.0853 31.8913C12.907 31.8913 12.7287 31.9055 12.5581 31.9338V23.5537C12.7287 23.582 12.907 23.5962 13.0853 23.5962C14.7519 23.5962 16.1085 22.3565 16.1085 20.8335C16.1085 20.6564 16.093 20.4935 16.0543 20.3235H38.2326C38.1705 20.536 38.1395 20.7627 38.1395 20.9964C38.1395 22.5195 39.4961 23.7591 41.1628 23.7591C41.4186 23.7591 41.6744 23.7308 41.907 23.6741V29.3341H44.4574V20.7273C44.4574 19.2255 43.1163 18 41.4729 18H12.9845C11.3411 18 10 19.2255 10 20.7273V34.7674C10 36.2691 11.3411 37.4946 12.9845 37.4946ZM34.9302 35.5395C34.7209 35.5395 34.5504 35.6953 34.5504 35.8866V37.1475C34.5504 37.3388 34.7209 37.4946 34.9302 37.4946H44.0775C44.2868 37.4946 44.4574 37.3388 44.4574 37.1475V35.8866C44.4574 35.6953 44.2868 35.5395 44.0775 35.5395H34.9302ZM46.2326 34.4061V33.1452C46.2326 32.9539 46.062 32.7981 45.8527 32.7981H36.7054C36.4961 32.7981 36.3256 32.9539 36.3256 33.1452V34.4061C36.3256 34.5973 36.4961 34.7532 36.7054 34.7532H45.8527C46.062 34.7532 46.2326 34.5973 46.2326 34.4061ZM47.6202 30.0566H38.4729C38.2636 30.0566 38.093 30.2125 38.093 30.4037V31.6647C38.093 31.8559 38.2636 32.0118 38.4729 32.0118H47.6202C47.8295 32.0118 48 31.8559 48 31.6647V30.4037C48 30.2125 47.8295 30.0566 47.6202 30.0566ZM27.2326 21.7686C30.845 21.7686 33.7752 24.4463 33.7752 27.7473C33.7752 31.0484 30.845 33.726 27.2326 33.726C23.6202 33.726 20.6899 31.0484 20.6899 27.7473C20.6899 24.4463 23.6124 21.7686 27.2326 21.7686ZM27.8062 23.3058H27.062C26.9457 23.3058 26.8605 23.3908 26.8605 23.4899V24.3046C26.2946 24.3825 25.8295 24.5667 25.4806 24.8784C25.093 25.2184 24.8992 25.6505 24.8992 26.1818C24.8992 26.7627 25.0853 27.2089 25.4496 27.5065C25.814 27.804 26.4031 28.1015 27.2016 28.399C27.5349 28.5265 27.7597 28.6611 27.8915 28.7957C28.0233 28.9303 28.0853 29.1216 28.0853 29.3695C28.0853 29.582 28.0233 29.752 27.8992 29.8866C27.7752 30.0141 27.5891 30.085 27.3411 30.085C27.0465 30.085 26.8062 30 26.6279 29.83C26.4806 29.6883 26.3876 29.4758 26.3643 29.1924C26.3566 29.0791 26.2481 28.9941 26.124 29.0011L24.8992 29.0224C24.7674 29.0224 24.6589 29.1287 24.6589 29.2491C24.6899 29.8441 24.8992 30.2975 25.2868 30.6233C25.7054 30.9704 26.2326 31.183 26.8605 31.2467V32.0118C26.8605 32.118 26.9535 32.1959 27.062 32.1959H27.8062C27.9225 32.1959 28.0078 32.1109 28.0078 32.0118V31.2184C28.5116 31.1334 28.9225 30.9492 29.2403 30.6729C29.6124 30.34 29.7985 29.9079 29.7985 29.3624C29.7985 28.7957 29.6124 28.3565 29.2403 28.0448C28.8682 27.7402 28.2868 27.4285 27.4961 27.1239C27.155 26.9893 26.9225 26.8548 26.7985 26.7202C26.6744 26.5856 26.6124 26.4085 26.6124 26.196C26.6124 25.9834 26.6667 25.8134 26.7829 25.6718C26.8992 25.5372 27.0775 25.4663 27.3178 25.4663C27.5581 25.4663 27.7442 25.5513 27.8915 25.7143C28.0078 25.8489 28.0775 26.033 28.1008 26.281C28.1085 26.3943 28.2248 26.4722 28.3411 26.4722L29.5659 26.4581C29.6977 26.4581 29.814 26.3518 29.8062 26.2314C29.7752 25.7426 29.6047 25.3317 29.2868 24.9988C28.9612 24.6517 28.5349 24.4321 28 24.3329V23.4899C28.0078 23.3837 27.9147 23.3058 27.8062 23.3058Z" fill="url(#paint1_linear_5023_1844)"/>
</g>
<defs>
<linearGradient id="paint0_linear_5023_1844" x1="42" y1="-4" x2="14.5" y2="56.5" gradientUnits="userSpaceOnUse">
<stop stop-color="#F1DD91"/>
<stop offset="0.541667" stop-color="#D9B75F"/>
<stop offset="1" stop-color="#F1DD91"/>
</linearGradient>
<linearGradient id="paint1_linear_5023_1844" x1="29" y1="18" x2="29" y2="37.4946" gradientUnits="userSpaceOnUse">
<stop stop-color="#D8B55C"/>
<stop offset="0.503285" stop-color="#FFF3A9"/>
<stop offset="1" stop-color="#D8B55C"/>
</linearGradient>
<clipPath id="clip0_5023_1844">
<rect width="54" height="54" fill="white"/>
</clipPath>
</defs>
</svg>
