<svg width="54" height="53" viewBox="0 0 54 53" fill="none" xmlns="http://www.w3.org/2000/svg"> 
<circle cx="27.5" cy="26.5" r="24.5" fill="url(#paint0_linear_8787_18440)" stroke="url(#paint1_linear_8787_18440)" stroke-width="4"/>
<circle cx="27.5029" cy="26.499" r="23.0576" fill="url(#paint2_linear_8787_18440)" stroke="url(#paint3_linear_8787_18440)"/>
<g filter="url(#filter0_ii_8787_18440)">
<circle cx="27.5021" cy="26.4982" r="20.8693" fill="url(#paint4_linear_8787_18440)"/>
</g>
<g filter="url(#filter1_f_8787_18440)">
<g filter="url(#filter2_f_8787_18440)">
<path d="M43.5443 41.0684C43.4979 41.043 43.4598 41.005 43.4344 40.9586L41.8334 38.0312L40.2325 40.9585C40.2071 41.0049 40.169 41.043 40.1227 41.0683L37.1953 42.6694L40.1226 44.2704C40.169 44.2957 40.2071 44.3338 40.2324 44.3802L41.8334 47.3075L43.4344 44.3802C43.4598 44.3338 43.4978 44.2957 43.5442 44.2704L46.4715 42.6694L43.5443 41.0684Z" fill="white"/>
</g>
<path d="M43.5443 41.0684C43.4979 41.043 43.4598 41.005 43.4344 40.9586L41.8334 38.0312L40.2325 40.9585C40.2071 41.0049 40.169 41.043 40.1227 41.0683L37.1953 42.6694L40.1226 44.2704C40.169 44.2957 40.2071 44.3338 40.2324 44.3802L41.8334 47.3075L43.4344 44.3802C43.4598 44.3338 43.4978 44.2957 43.5442 44.2704L46.4715 42.6694L43.5443 41.0684Z" fill="white"/>
</g>
<g filter="url(#filter3_f_8787_18440)">
<path d="M44.4053 11.0292C44.3877 11.0195 44.3731 11.005 44.3635 10.9873L43.753 9.87109L43.1425 10.9873C43.1328 11.005 43.1183 11.0195 43.1006 11.0292L41.9844 11.6397L43.1006 12.2502C43.1183 12.2598 43.1328 12.2744 43.1425 12.292L43.7529 13.4083L44.3634 12.292C44.3731 12.2744 44.3876 12.2598 44.4053 12.2502L45.5215 11.6397L44.4053 11.0292Z" fill="#0080F5"/>
</g>
<path d="M44.4053 11.0292C44.3877 11.0195 44.3731 11.005 44.3635 10.9873L43.753 9.87109L43.1425 10.9873C43.1328 11.005 43.1183 11.0195 43.1006 11.0292L41.9844 11.6397L43.1006 12.2502C43.1183 12.2598 43.1328 12.2744 43.1425 12.292L43.7529 13.4083L44.3634 12.292C44.3731 12.2744 44.3876 12.2598 44.4053 12.2502L45.5215 11.6397L44.4053 11.0292Z" fill="white"/>
<g filter="url(#filter4_f_8787_18440)">
<path d="M5.78815 19.6112C5.77047 19.6016 5.75595 19.587 5.74627 19.5694L5.13578 18.4531L4.52531 19.5693C4.51564 19.587 4.50111 19.6015 4.48343 19.6112L3.36719 20.2217L4.48341 20.8322C4.50109 20.8419 4.51561 20.8564 4.52529 20.8741L5.13576 21.9903L5.74625 20.8741C5.75593 20.8564 5.77045 20.8419 5.78813 20.8322L6.90435 20.2217L5.78815 19.6112Z" fill="#005773"/>
</g>
<path d="M5.78815 19.6112C5.77047 19.6016 5.75595 19.587 5.74627 19.5694L5.13578 18.4531L4.52531 19.5693C4.51564 19.587 4.50111 19.6015 4.48343 19.6112L3.36719 20.2217L4.48341 20.8322C4.50109 20.8419 4.51561 20.8564 4.52529 20.8741L5.13576 21.9903L5.74625 20.8741C5.75593 20.8564 5.77045 20.8419 5.78813 20.8322L6.90435 20.2217L5.78815 19.6112Z" fill="white"/>
<path d="M42.24 21.515V35.0468C42.24 35.5342 41.8451 35.9291 41.358 35.9291H13.8821C13.3949 35.9291 13 35.5342 13 35.0468V21.515C13 21.0276 13.3949 20.6328 13.8821 20.6328H15.8962L15.6715 22.3515C15.6259 22.6988 15.7463 23.0541 15.9951 23.3046C16.21 23.5195 16.4962 23.6381 16.7999 23.6381L17.5289 23.5435C17.3406 24.4894 16.5063 25.2022 15.505 25.2022C15.2438 25.2022 14.9945 25.1511 14.7639 25.0629V31.3632C14.994 31.2746 15.2434 31.224 15.505 31.224C16.6451 31.224 17.5695 32.1482 17.5695 33.2881C17.5695 33.6019 17.4975 33.8983 17.3719 34.1643H37.8142C37.6895 33.8979 37.6165 33.6015 37.6165 33.2881C37.6165 32.1484 38.5406 31.224 39.6811 31.224C39.9623 31.224 40.2304 31.2805 40.475 31.3825V25.0439C40.2304 25.1459 39.9622 25.2026 39.6811 25.2026C38.5412 25.2026 37.6165 24.2786 37.6165 23.1386C37.6165 22.877 37.6674 22.6275 37.7564 22.3972H25.3358C25.585 22.2197 25.759 21.9454 25.8014 21.6325C25.8559 21.2538 25.7152 20.882 25.4452 20.6328H33.3306C33.0218 20.0859 32.6428 19.5746 32.1885 19.1202C29.5538 16.4858 25.332 16.3983 22.5826 18.8421L21.5198 19.9049L24.681 21.2757C24.7873 21.3216 24.8496 21.4328 24.8331 21.5471C24.8176 21.6615 24.7268 21.7511 24.6122 21.7659L16.7389 22.7951C16.6598 22.8053 16.5808 22.7793 16.5241 22.7221C16.4679 22.6656 16.441 22.5862 16.4513 22.5076L17.4807 14.6344C17.488 14.5762 17.5144 14.5253 17.5533 14.4862C17.5918 14.4472 17.6426 14.4212 17.699 14.4132C17.8134 14.3968 17.9248 14.4593 17.971 14.5654L19.3416 17.7263L20.1136 16.959L20.1023 16.9472C20.3772 16.6721 20.6663 16.418 20.9632 16.1816C21.1594 16.0228 21.3832 15.8512 21.5688 15.736C25.4907 13.0715 30.8884 13.4734 34.3614 16.9472C35.4186 18.0041 36.2064 19.2648 36.7032 20.6328H41.358C41.8441 20.6328 42.24 21.0276 42.24 21.515ZM23.3708 31.3473H25.0681C24.2385 30.6251 23.7116 29.5638 23.7116 28.3774C23.7116 27.0795 24.3418 25.9316 25.3105 25.2136H23.3708V23.2729H31.8689V25.2136H29.9936C30.9619 25.9316 31.5918 27.0794 31.5918 28.3774C31.5918 29.5638 31.0659 30.6248 30.2362 31.3473H31.869V33.2881H23.3708V31.3473ZM26.9947 28.49C26.2991 28.8019 25.8139 29.4984 25.8139 30.3102H29.804C29.804 29.4508 29.2602 28.721 28.4994 28.4405C28.8998 28.1803 29.1652 27.7292 29.1652 27.2162C29.1652 26.4109 28.5117 25.7572 27.7064 25.7572C26.9007 25.7572 26.2472 26.4109 26.2472 27.2162C26.2465 27.7649 26.5486 28.2406 26.9947 28.49Z" fill="white"/>
<defs>
<filter id="filter0_ii_8787_18440" x="6.63281" y="5.62891" width="41.7422" height="43.7383" filterUnits="userSpaceOnUse" color-interpolation-filters="sRGB">
<feFlood flood-opacity="0" result="BackgroundImageFix"/>
<feBlend mode="normal" in="SourceGraphic" in2="BackgroundImageFix" result="shape"/>
<feColorMatrix in="SourceAlpha" type="matrix" values="0 0 0 0 0 0 0 0 0 0 0 0 0 0 0 0 0 0 127 0" result="hardAlpha"/>
<feOffset/>
<feGaussianBlur stdDeviation="2"/>
<feComposite in2="hardAlpha" operator="arithmetic" k2="-1" k3="1"/>
<feColorMatrix type="matrix" values="0 0 0 0 0 0 0 0 0 0.26 0 0 0 0 0.65 0 0 0 1 0"/>
<feBlend mode="normal" in2="shape" result="effect1_innerShadow_8787_18440"/>
<feColorMatrix in="SourceAlpha" type="matrix" values="0 0 0 0 0 0 0 0 0 0 0 0 0 0 0 0 0 0 127 0" result="hardAlpha"/>
<feOffset dy="2"/>
<feGaussianBlur stdDeviation="2"/>
<feComposite in2="hardAlpha" operator="arithmetic" k2="-1" k3="1"/>
<feColorMatrix type="matrix" values="0 0 0 0 0 0 0 0 0 0.200667 0 0 0 0 0.716667 0 0 0 0.5 0"/>
<feBlend mode="normal" in2="effect1_innerShadow_8787_18440" result="effect2_innerShadow_8787_18440"/>
</filter>
<filter id="filter1_f_8787_18440" x="35.1953" y="36.0312" width="13.2734" height="13.2773" filterUnits="userSpaceOnUse" color-interpolation-filters="sRGB">
<feFlood flood-opacity="0" result="BackgroundImageFix"/>
<feBlend mode="normal" in="SourceGraphic" in2="BackgroundImageFix" result="shape"/>
<feGaussianBlur stdDeviation="1" result="effect1_foregroundBlur_8787_18440"/>
</filter>
<filter id="filter2_f_8787_18440" x="34.1953" y="35.0312" width="15.2734" height="15.2773" filterUnits="userSpaceOnUse" color-interpolation-filters="sRGB">
<feFlood flood-opacity="0" result="BackgroundImageFix"/>
<feBlend mode="normal" in="SourceGraphic" in2="BackgroundImageFix" result="shape"/>
<feGaussianBlur stdDeviation="1.5" result="effect1_foregroundBlur_8787_18440"/>
</filter>
<filter id="filter3_f_8787_18440" x="38.9844" y="6.87109" width="9.53906" height="9.53906" filterUnits="userSpaceOnUse" color-interpolation-filters="sRGB">
<feFlood flood-opacity="0" result="BackgroundImageFix"/>
<feBlend mode="normal" in="SourceGraphic" in2="BackgroundImageFix" result="shape"/>
<feGaussianBlur stdDeviation="1.5" result="effect1_foregroundBlur_8787_18440"/>
</filter>
<filter id="filter4_f_8787_18440" x="0.367188" y="15.4531" width="9.53906" height="9.53906" filterUnits="userSpaceOnUse" color-interpolation-filters="sRGB">
<feFlood flood-opacity="0" result="BackgroundImageFix"/>
<feBlend mode="normal" in="SourceGraphic" in2="BackgroundImageFix" result="shape"/>
<feGaussianBlur stdDeviation="1.5" result="effect1_foregroundBlur_8787_18440"/>
</filter>
<linearGradient id="paint0_linear_8787_18440" x1="13.3285" y1="3.6223" x2="27.5" y2="53" gradientUnits="userSpaceOnUse">
<stop stop-color="#0079F1"/>
<stop offset="0.501018" stop-color="#81C0FC"/>
<stop offset="0.979167" stop-color="#004ABF"/>
</linearGradient>
<linearGradient id="paint1_linear_8787_18440" x1="27.5" y1="0" x2="27.5" y2="53" gradientUnits="userSpaceOnUse">
<stop stop-color="#DAEBFF"/>
<stop offset="0.245067" stop-color="white" stop-opacity="0"/>
</linearGradient>
<linearGradient id="paint2_linear_8787_18440" x1="14.9049" y1="6.1615" x2="27.5029" y2="50.0565" gradientUnits="userSpaceOnUse">
<stop stop-color="#014BC0"/>
<stop offset="1" stop-color="#80BFFC"/>
</linearGradient>
<linearGradient id="paint3_linear_8787_18440" x1="27.5029" y1="2.94141" x2="27.5029" y2="50.0565" gradientUnits="userSpaceOnUse">
<stop stop-color="#74ABFF"/>
<stop offset="1" stop-color="#BFD9FF"/>
</linearGradient>
<linearGradient id="paint4_linear_8787_18440" x1="16.3418" y1="8.48154" x2="27.5021" y2="47.3675" gradientUnits="userSpaceOnUse">
<stop stop-color="#00CDF3"/>
<stop offset="1" stop-color="#5987FF"/>
</linearGradient>
</defs>
</svg>
