<svg width="54" height="54" viewBox="0 0 54 54" fill="none" xmlns="http://www.w3.org/2000/svg">
<g clip-path="url(#clip0_5023_1858)">
<circle cx="27" cy="27" r="26" fill="#00267D" stroke="url(#paint0_linear_5023_1858)" stroke-width="2"/>
<path d="M44 22.9884V38.723C44 39.2897 43.5408 39.7489 42.9744 39.7489H11.0257C10.4592 39.7489 10 39.2898 10 38.723V22.9884C10 22.4216 10.4592 21.9626 11.0257 21.9626H13.3677L13.1064 23.961C13.0534 24.3648 13.1934 24.778 13.4827 25.0693C13.7326 25.3192 14.0653 25.4571 14.4185 25.4571L15.2662 25.3471C15.0472 26.447 14.0771 27.2758 12.9128 27.2758C12.609 27.2758 12.3191 27.2164 12.0511 27.1138V34.4398C12.3186 34.3368 12.6086 34.2779 12.9128 34.2779C14.2385 34.2779 15.3134 35.3526 15.3134 36.678C15.3134 37.0429 15.2296 37.3875 15.0836 37.6969H38.8537C38.7087 37.3871 38.6238 37.0425 38.6238 36.678C38.6238 35.3528 39.6983 34.2779 41.0246 34.2779C41.3515 34.2779 41.6633 34.3436 41.9477 34.4622V27.0918C41.6632 27.2104 41.3514 27.2763 41.0246 27.2763C39.6991 27.2763 38.6238 26.2019 38.6238 24.8762C38.6238 24.5721 38.683 24.282 38.7866 24.0142H24.3439C24.6337 23.8078 24.8361 23.4889 24.8853 23.125C24.9487 22.6847 24.7852 22.2523 24.4712 21.9626H33.6402C33.2812 21.3266 32.8404 20.7321 32.3123 20.2037C29.2487 17.1405 24.3395 17.0387 21.1425 19.8803L19.9067 21.1162L23.5825 22.7101C23.7061 22.7634 23.7786 22.8928 23.7594 23.0257C23.7414 23.1587 23.6358 23.2629 23.5026 23.2801L14.3476 24.4769C14.2556 24.4887 14.1637 24.4585 14.0977 24.3919C14.0324 24.3263 14.0012 24.2339 14.0132 24.1425L15.2101 14.9877C15.2186 14.9199 15.2493 14.8609 15.2946 14.8154C15.3392 14.7701 15.3983 14.7398 15.4639 14.7304C15.5969 14.7114 15.7265 14.7841 15.7802 14.9075L17.3739 18.583L18.2716 17.6907L18.2585 17.677C18.5781 17.357 18.9142 17.0616 19.2595 16.7867C19.4877 16.6021 19.7479 16.4026 19.9638 16.2686C24.5241 13.1703 30.8004 13.6377 34.8388 17.677C36.0682 18.9059 36.9842 20.3719 37.5619 21.9626H42.9744C43.5396 21.9626 44 22.4216 44 22.9884ZM22.0591 34.4213H24.0326C23.068 33.5815 22.4553 32.3475 22.4553 30.9679C22.4553 29.4587 23.1882 28.1239 24.3146 27.289H22.0591V25.0324H31.9406V27.289H29.76C30.8859 28.1239 31.6183 29.4586 31.6183 30.9679C31.6183 32.3475 31.0069 33.5811 30.0421 34.4213H31.9407V36.678H22.0591V34.4213ZM26.2729 31.0989C25.464 31.4615 24.8998 32.2714 24.8998 33.2153H29.5395C29.5395 32.216 28.9072 31.3674 28.0225 31.0412C28.4881 30.7387 28.7968 30.2142 28.7968 29.6177C28.7968 28.6813 28.0369 27.9212 27.1004 27.9212C26.1636 27.9212 25.4038 28.6813 25.4038 29.6177C25.4029 30.2557 25.7541 30.8088 26.2729 31.0989Z" fill="url(#paint1_linear_5023_1858)"/>
</g>
<defs>
<linearGradient id="paint0_linear_5023_1858" x1="42" y1="-4" x2="14.5" y2="56.5" gradientUnits="userSpaceOnUse">
<stop stop-color="#F1DD91"/>
<stop offset="0.541667" stop-color="#D9B75F"/>
<stop offset="1" stop-color="#F1DD91"/>
</linearGradient>
<linearGradient id="paint1_linear_5023_1858" x1="27" y1="14.25" x2="27" y2="39.7489" gradientUnits="userSpaceOnUse">
<stop stop-color="#D8B55C"/>
<stop offset="0.503285" stop-color="#FFF3A9"/>
<stop offset="1" stop-color="#D8B55C"/>
</linearGradient>
<clipPath id="clip0_5023_1858">
<rect width="54" height="54" fill="white"/>
</clipPath>
</defs>
</svg>
