<svg width="35" height="33" viewBox="0 0 35 33" fill="none" xmlns="http://www.w3.org/2000/svg">
<path fill-rule="evenodd" clip-rule="evenodd" d="M0.683746 31.9845C-0.227477 31.0733 -0.227477 29.5959 0.683746 28.6847L13.0338 16.3346L0.683748 3.98455C-0.227475 3.07333 -0.227475 1.59594 0.683749 0.68472C1.59497 -0.226505 3.07236 -0.226505 3.98358 0.68472L17.9836 14.6847C18.8948 15.5959 18.8948 17.0733 17.9836 17.9846L3.98358 31.9845C3.07235 32.8958 1.59497 32.8958 0.683746 31.9845Z" fill="white"/>
<path fill-rule="evenodd" clip-rule="evenodd" d="M0.683746 31.9845C-0.227477 31.0733 -0.227477 29.5959 0.683746 28.6847L13.0338 16.3346L0.683748 3.98455C-0.227475 3.07333 -0.227475 1.59594 0.683749 0.68472C1.59497 -0.226505 3.07236 -0.226505 3.98358 0.68472L17.9836 14.6847C18.8948 15.5959 18.8948 17.0733 17.9836 17.9846L3.98358 31.9845C3.07235 32.8958 1.59497 32.8958 0.683746 31.9845Z" fill="#02ACF9"/>
<path fill-rule="evenodd" clip-rule="evenodd" d="M17.0168 31.9845C16.1055 31.0733 16.1055 29.5959 17.0168 28.6847L29.3668 16.3346L17.0168 3.98455C16.1055 3.07333 16.1055 1.59594 17.0168 0.68472C17.928 -0.226505 19.4054 -0.226505 20.3166 0.68472L34.3166 14.6847C35.2278 15.5959 35.2278 17.0733 34.3166 17.9846L20.3166 31.9845C19.4054 32.8958 17.928 32.8958 17.0168 31.9845Z" fill="white"/>
<path fill-rule="evenodd" clip-rule="evenodd" d="M17.0168 31.9845C16.1055 31.0733 16.1055 29.5959 17.0168 28.6847L29.3668 16.3346L17.0168 3.98455C16.1055 3.07333 16.1055 1.59594 17.0168 0.68472C17.928 -0.226505 19.4054 -0.226505 20.3166 0.68472L34.3166 14.6847C35.2278 15.5959 35.2278 17.0733 34.3166 17.9846L20.3166 31.9845C19.4054 32.8958 17.928 32.8958 17.0168 31.9845Z" fill="#02ACF9"/>
</svg>
