<svg width="54" height="54" viewBox="0 0 54 54" fill="none" xmlns="http://www.w3.org/2000/svg">
<g clip-path="url(#clip0_5023_1870)">
<circle cx="27" cy="27" r="26" fill="#00267D" stroke="url(#paint0_linear_5023_1870)" stroke-width="2"/>
<path d="M15.7395 25.2307C16.3949 25.2307 16.9275 25.7775 16.9275 26.4519C16.9275 27.1263 16.3949 27.673 15.7395 27.673H14.07C12.119 27.673 10.8606 26.516 10.3061 25.0382C10.1029 24.4962 10.0013 23.9092 10 23.3242C10 22.7406 10.1009 22.1536 10.3041 21.6123C10.8553 20.1447 12.1091 19 14.07 19H39.93C41.8896 19 43.144 20.1468 43.6952 21.6157C43.8991 22.157 44 22.744 44 23.3283C43.9993 23.9133 43.8971 24.5003 43.6939 25.0423C43.1407 26.5181 41.8816 27.673 39.93 27.673H37.7625C37.1064 27.673 36.5745 27.1263 36.5745 26.4519C36.5745 25.7775 37.1064 25.2307 37.7625 25.2307H39.93C40.7414 25.2307 41.2607 24.7625 41.4852 24.1645C41.5835 23.9017 41.6333 23.615 41.6333 23.3283C41.6333 23.041 41.5848 22.7549 41.4865 22.4935C41.2647 21.9031 40.7481 21.4423 39.93 21.4423H35.0537V34.873H18.9462V21.4423H14.07C13.2506 21.4423 12.7339 21.9017 12.5128 22.4901C12.4152 22.7509 12.3667 23.0369 12.3667 23.3242C12.3667 23.6109 12.4165 23.8976 12.5155 24.1604C12.7406 24.7604 13.2599 25.2307 14.07 25.2307H15.7395ZM28.9245 36.0689V38.7249H30.6882C30.9844 38.7379 31.1942 38.8382 31.3157 39.028C31.6445 39.5345 31.1949 40.0355 30.8834 40.3884C30.0036 41.3857 28.0021 43.1945 27.5658 43.7181C27.2357 44.0935 26.7643 44.0935 26.4342 43.7181C25.9833 43.1775 23.8729 41.2648 23.0322 40.2921C22.7414 39.9549 22.3808 39.4956 22.6843 39.028C22.8058 38.8382 23.0156 38.7379 23.3118 38.7249H25.0755V36.0689H28.9245ZM32.6 21.4423H21.4743V29.5229C22.7845 29.5229 23.8537 30.6218 23.8537 31.9686H30.2207C30.2207 30.6218 31.2892 29.5229 32.6 29.5229V21.4423ZM27 22.114C28.5864 22.114 29.8727 23.4362 29.8727 25.0669C29.8727 26.6976 28.5864 28.0198 27 28.0198C25.4136 28.0198 24.1273 26.6976 24.1273 25.0669C24.1273 23.4362 25.4136 22.114 27 22.114Z" fill="url(#paint1_linear_5023_1870)"/>
</g>
<defs>
<linearGradient id="paint0_linear_5023_1870" x1="42" y1="-4" x2="14.5" y2="56.5" gradientUnits="userSpaceOnUse">
<stop stop-color="#F1DD91"/>
<stop offset="0.541667" stop-color="#D9B75F"/>
<stop offset="1" stop-color="#F1DD91"/>
</linearGradient>
<linearGradient id="paint1_linear_5023_1870" x1="27" y1="19" x2="27" y2="43.9997" gradientUnits="userSpaceOnUse">
<stop stop-color="#D8B55C"/>
<stop offset="0.503285" stop-color="#FFF3A9"/>
<stop offset="1" stop-color="#D8B55C"/>
</linearGradient>
<clipPath id="clip0_5023_1870">
<rect width="54" height="54" fill="white"/>
</clipPath>
</defs>
</svg>
