<svg width="54" height="54" viewBox="0 0 54 54" fill="none" xmlns="http://www.w3.org/2000/svg">
<circle cx="27" cy="27" r="26" fill="#00267D" stroke="url(#paint0_linear_5023_1876)" stroke-width="2"/>
<path d="M37.2969 20.3138H33.1719C34.1741 20.3125 35.0077 19.494 35.009 18.4918C35.0104 17.4895 34.199 16.6781 33.1968 16.6795C33.1982 15.5525 32.1719 14.6668 31.0023 14.9068C30.1506 15.0815 29.5625 15.872 29.5625 16.7415V17.1068C29.2882 16.8594 28.9289 16.7044 28.5312 16.7044H26.4688C26.0711 16.7044 25.7118 16.8594 25.4375 17.1068V16.7415C25.4375 15.872 24.8494 15.0815 23.9977 14.9067C22.828 14.6667 21.8017 15.5524 21.8032 16.6794C20.801 16.6781 19.9896 17.4895 19.9909 18.4917C19.9923 19.494 20.8259 20.3125 21.8281 20.3138H17.7031C16.564 20.3138 15.6406 21.2372 15.6406 22.3763V22.8919C15.6406 24.031 16.564 24.9544 17.7031 24.9544H23.8906V25.9857H17.1875V36.3807C17.1875 37.4742 18.074 38.3607 19.1675 38.3607H23.8906C24.4602 38.3607 24.9219 37.899 24.9219 37.3294V20.8294H30.0781V37.3294C30.0781 37.899 30.5398 38.3607 31.1094 38.3607H35.8325C36.926 38.3607 37.8125 37.4742 37.8125 36.3807V25.9857H31.1094V24.9544H37.2969C38.436 24.9544 39.3594 24.031 39.3594 22.8919V22.3763C39.3594 21.2372 38.436 20.3138 37.2969 20.3138ZM25.9531 19.7982V18.2513C25.9531 17.9671 26.1843 17.7357 26.4688 17.7357H28.5312C28.8157 17.7357 29.0469 17.9671 29.0469 18.2513V19.7982H25.9531Z" fill="url(#paint1_linear_5023_1876)"/>
<defs>
<linearGradient id="paint0_linear_5023_1876" x1="42" y1="-4" x2="14.5" y2="56.5" gradientUnits="userSpaceOnUse">
<stop stop-color="#F1DD91"/>
<stop offset="0.541667" stop-color="#D9B75F"/>
<stop offset="1" stop-color="#F1DD91"/>
</linearGradient>
<linearGradient id="paint1_linear_5023_1876" x1="27.5" y1="14.8672" x2="27.5" y2="38.3607" gradientUnits="userSpaceOnUse">
<stop stop-color="#D8B55C"/>
<stop offset="0.503285" stop-color="#FFF3A9"/>
<stop offset="1" stop-color="#D8B55C"/>
</linearGradient>
</defs>
</svg>
