<svg width="54" height="54" viewBox="0 0 54 54" fill="none" xmlns="http://www.w3.org/2000/svg">
<g clip-path="url(#clip0_5023_1864)">
<circle cx="27" cy="27" r="26" fill="#00267D" stroke="url(#paint0_linear_5023_1864)" stroke-width="2"/>
<path d="M38.8761 17.3761H35.7511C35.4214 17.3808 35.1069 17.5156 34.8761 17.7511L33.2511 19.3761L31.6261 17.7511C31.3953 17.5156 31.0808 17.3808 30.7511 17.3761H15.1261C14.8775 17.3674 14.6298 17.4099 14.3984 17.5011C14.1669 17.5922 13.9568 17.73 13.7809 17.9059C13.605 18.0817 13.4672 18.2919 13.3761 18.5234C13.2849 18.7548 13.2424 19.0025 13.2511 19.2511V36.7511C13.2511 37.2484 13.4487 37.7253 13.8003 38.0769C14.1519 38.4286 14.6288 38.6261 15.1261 38.6261H30.7511C31.0808 38.6214 31.3953 38.4866 31.6261 38.2511L33.2511 36.6261L34.8761 38.2511C35.1069 38.4866 35.4214 38.6214 35.7511 38.6261H38.8761C39.3734 38.6261 39.8503 38.4286 40.2019 38.0769C40.5536 37.7253 40.7511 37.2484 40.7511 36.7511V19.2511C40.7598 19.0025 40.7173 18.7548 40.6262 18.5234C40.535 18.2919 40.3972 18.0817 40.2214 17.9059C40.0455 17.73 39.8353 17.5922 39.6038 17.5011C39.3724 17.4099 39.1247 17.3674 38.8761 17.3761ZM20.7511 24.2511C20.9983 24.2511 21.24 24.3244 21.4456 24.4618C21.6511 24.5991 21.8114 24.7944 21.906 25.0228C22.0006 25.2512 22.0253 25.5025 21.9771 25.745C21.9289 25.9875 21.8098 26.2102 21.635 26.385C21.4602 26.5598 21.2375 26.6789 20.995 26.7271C20.7525 26.7753 20.5012 26.7506 20.2728 26.656C20.0444 26.5614 19.8491 26.4011 19.7118 26.1956C19.5744 25.99 19.5011 25.7483 19.5011 25.5011C19.5011 25.1696 19.6328 24.8517 19.8672 24.6172C20.1017 24.3828 20.4196 24.2511 20.7511 24.2511ZM25.7511 31.7511C25.5039 31.7511 25.2622 31.6778 25.0567 31.5405C24.8511 31.4031 24.6909 31.2079 24.5963 30.9795C24.5017 30.7511 24.4769 30.4997 24.5251 30.2573C24.5734 30.0148 24.6924 29.792 24.8672 29.6172C25.042 29.4424 25.2648 29.3234 25.5073 29.2751C25.7497 29.2269 26.0011 29.2517 26.2295 29.3463C26.4579 29.4409 26.6531 29.6011 26.7905 29.8067C26.9278 30.0122 27.0011 30.2539 27.0011 30.5011C27.0011 30.8326 26.8694 31.1506 26.635 31.385C26.4006 31.6194 26.0826 31.7511 25.7511 31.7511ZM27.2511 25.7511L21.0011 32.0011C20.8899 32.1224 20.7547 32.2192 20.604 32.2854C20.4534 32.3516 20.2907 32.3858 20.1261 32.3858C19.9616 32.3858 19.7988 32.3516 19.6482 32.2854C19.4976 32.2192 19.3624 32.1224 19.2511 32.0011C19.1299 31.8899 19.0331 31.7547 18.9669 31.604C18.9006 31.4534 18.8664 31.2907 18.8664 31.1261C18.8664 30.9616 18.9006 30.7988 18.9669 30.6482C19.0331 30.4976 19.1299 30.3624 19.2511 30.2511L25.5011 24.0011C25.7418 23.8206 26.0396 23.7329 26.3397 23.7543C26.6399 23.7756 26.9222 23.9045 27.135 24.1172C27.3478 24.33 27.4766 24.6124 27.498 24.9125C27.5193 25.2126 27.4317 25.5104 27.2511 25.7511ZM34.5011 33.6261C34.5011 33.9576 34.3694 34.2756 34.135 34.51C33.9006 34.7444 33.5826 34.8761 33.2511 34.8761C32.9196 34.8761 32.6017 34.7444 32.3672 34.51C32.1328 34.2756 32.0011 33.9576 32.0011 33.6261V32.3761C32.0011 32.0446 32.1328 31.7267 32.3672 31.4922C32.6017 31.2578 32.9196 31.1261 33.2511 31.1261C33.5826 31.1261 33.9006 31.2578 34.135 31.4922C34.3694 31.7267 34.5011 32.0446 34.5011 32.3761V33.6261ZM34.5011 28.6261C34.5011 28.9576 34.3694 29.2756 34.135 29.51C33.9006 29.7444 33.5826 29.8761 33.2511 29.8761C32.9196 29.8761 32.6017 29.7444 32.3672 29.51C32.1328 29.2756 32.0011 28.9576 32.0011 28.6261V27.3761C32.0011 27.0446 32.1328 26.7267 32.3672 26.4922C32.6017 26.2578 32.9196 26.1261 33.2511 26.1261C33.5826 26.1261 33.9006 26.2578 34.135 26.4922C34.3694 26.7267 34.5011 27.0446 34.5011 27.3761V28.6261ZM34.5011 23.6261C34.5011 23.9576 34.3694 24.2756 34.135 24.51C33.9006 24.7444 33.5826 24.8761 33.2511 24.8761C32.9196 24.8761 32.6017 24.7444 32.3672 24.51C32.1328 24.2756 32.0011 23.9576 32.0011 23.6261V22.3761C32.0011 22.0446 32.1328 21.7267 32.3672 21.4922C32.6017 21.2578 32.9196 21.1261 33.2511 21.1261C33.5826 21.1261 33.9006 21.2578 34.135 21.4922C34.3694 21.7267 34.5011 22.0446 34.5011 22.3761V23.6261Z" fill="url(#paint1_linear_5023_1864)"/>
</g>
<defs>
<linearGradient id="paint0_linear_5023_1864" x1="42" y1="-4" x2="14.5" y2="56.5" gradientUnits="userSpaceOnUse">
<stop stop-color="#F1DD91"/>
<stop offset="0.541667" stop-color="#D9B75F"/>
<stop offset="1" stop-color="#F1DD91"/>
</linearGradient>
<linearGradient id="paint1_linear_5023_1864" x1="27.0011" y1="17.375" x2="27.0011" y2="38.6261" gradientUnits="userSpaceOnUse">
<stop stop-color="#D8B55C"/>
<stop offset="0.503285" stop-color="#FFF3A9"/>
<stop offset="1" stop-color="#D8B55C"/>
</linearGradient>
<clipPath id="clip0_5023_1864">
<rect width="54" height="54" fill="white"/>
</clipPath>
</defs>
</svg>
