<svg width="54" height="53" viewBox="0 0 54 53" fill="none" xmlns="http://www.w3.org/2000/svg"> 
<circle cx="27.5" cy="26.5" r="24.5" fill="url(#paint0_linear_8787_18442)" stroke="url(#paint1_linear_8787_18442)" stroke-width="4"/>
<circle cx="27.5029" cy="26.499" r="23.0576" fill="url(#paint2_linear_8787_18442)" stroke="url(#paint3_linear_8787_18442)"/>
<g filter="url(#filter0_ii_8787_18442)">
<circle cx="27.5021" cy="26.4982" r="20.8693" fill="url(#paint4_linear_8787_18442)"/>
</g>
<g filter="url(#filter1_f_8787_18442)">
<g filter="url(#filter2_f_8787_18442)">
<path d="M43.5443 41.0684C43.4979 41.043 43.4598 41.005 43.4344 40.9586L41.8334 38.0312L40.2325 40.9585C40.2071 41.0049 40.169 41.043 40.1227 41.0683L37.1953 42.6694L40.1226 44.2704C40.169 44.2957 40.2071 44.3338 40.2324 44.3802L41.8334 47.3075L43.4344 44.3802C43.4598 44.3338 43.4978 44.2957 43.5442 44.2704L46.4715 42.6694L43.5443 41.0684Z" fill="white"/>
</g>
<path d="M43.5443 41.0684C43.4979 41.043 43.4598 41.005 43.4344 40.9586L41.8334 38.0312L40.2325 40.9585C40.2071 41.0049 40.169 41.043 40.1227 41.0683L37.1953 42.6694L40.1226 44.2704C40.169 44.2957 40.2071 44.3338 40.2324 44.3802L41.8334 47.3075L43.4344 44.3802C43.4598 44.3338 43.4978 44.2957 43.5442 44.2704L46.4715 42.6694L43.5443 41.0684Z" fill="white"/>
</g>
<g filter="url(#filter3_f_8787_18442)">
<path d="M44.4053 11.0292C44.3877 11.0195 44.3731 11.005 44.3635 10.9873L43.753 9.87109L43.1425 10.9873C43.1328 11.005 43.1183 11.0195 43.1006 11.0292L41.9844 11.6397L43.1006 12.2502C43.1183 12.2598 43.1328 12.2744 43.1425 12.292L43.7529 13.4083L44.3634 12.292C44.3731 12.2744 44.3876 12.2598 44.4053 12.2502L45.5215 11.6397L44.4053 11.0292Z" fill="#0080F5"/>
</g>
<path d="M44.4053 11.0292C44.3877 11.0195 44.3731 11.005 44.3635 10.9873L43.753 9.87109L43.1425 10.9873C43.1328 11.005 43.1183 11.0195 43.1006 11.0292L41.9844 11.6397L43.1006 12.2502C43.1183 12.2598 43.1328 12.2744 43.1425 12.292L43.7529 13.4083L44.3634 12.292C44.3731 12.2744 44.3876 12.2598 44.4053 12.2502L45.5215 11.6397L44.4053 11.0292Z" fill="white"/>
<g filter="url(#filter4_f_8787_18442)">
<path d="M5.78815 19.6112C5.77047 19.6016 5.75595 19.587 5.74627 19.5694L5.13578 18.4531L4.52531 19.5693C4.51564 19.587 4.50111 19.6015 4.48343 19.6112L3.36719 20.2217L4.48341 20.8322C4.50109 20.8419 4.51561 20.8564 4.52529 20.8741L5.13576 21.9903L5.74625 20.8741C5.75593 20.8564 5.77045 20.8419 5.78813 20.8322L6.90435 20.2217L5.78815 19.6112Z" fill="#005773"/>
</g>
<path d="M5.78815 19.6112C5.77047 19.6016 5.75595 19.587 5.74627 19.5694L5.13578 18.4531L4.52531 19.5693C4.51564 19.587 4.50111 19.6015 4.48343 19.6112L3.36719 20.2217L4.48341 20.8322C4.50109 20.8419 4.51561 20.8564 4.52529 20.8741L5.13576 21.9903L5.74625 20.8741C5.75593 20.8564 5.77045 20.8419 5.78813 20.8322L6.90435 20.2217L5.78815 19.6112Z" fill="white"/>
<path d="M18.0643 22.2339C18.6426 22.2339 19.1125 22.6932 19.1125 23.2597C19.1125 23.8262 18.6426 24.2855 18.0643 24.2855H16.5912C14.8697 24.2855 13.7594 23.3136 13.2701 22.0722C13.0908 21.6169 13.0012 21.1238 13 20.6324C13 20.1422 13.0891 19.649 13.2684 19.1944C13.7547 17.9616 14.8609 17 16.5912 17H39.4088C41.1379 17 42.2447 17.9633 42.7311 19.1972C42.9109 19.6519 43 20.145 43 20.6358C42.9994 21.1272 42.9092 21.6203 42.7299 22.0756C42.2418 23.3153 41.1309 24.2855 39.4088 24.2855H37.4963C36.9174 24.2855 36.448 23.8262 36.448 23.2597C36.448 22.6932 36.9174 22.2339 37.4963 22.2339H39.4088C40.1248 22.2339 40.583 21.8405 40.7811 21.3382C40.8678 21.1175 40.9117 20.8767 40.9117 20.6358C40.9117 20.3944 40.8689 20.1542 40.7822 19.9346C40.5865 19.4386 40.1307 19.0516 39.4088 19.0516H35.1063V30.3335H20.8938V19.0516H16.5912C15.8682 19.0516 15.4123 19.4375 15.2172 19.9317C15.1311 20.1508 15.0883 20.391 15.0883 20.6324C15.0883 20.8732 15.1322 21.114 15.2195 21.3348C15.4182 21.8388 15.8764 22.2339 16.5912 22.2339H18.0643ZM29.698 31.3381V33.5692H31.2543C31.5156 33.58 31.7008 33.6643 31.808 33.8237C32.098 34.2492 31.7014 34.6701 31.4266 34.9665C30.6502 35.8042 28.8842 37.3237 28.4992 37.7635C28.208 38.0788 27.792 38.0788 27.5008 37.7635C27.1029 37.3094 25.2408 35.7027 24.499 34.8857C24.2424 34.6024 23.9242 34.2165 24.192 33.8237C24.2992 33.6643 24.4844 33.58 24.7457 33.5692H26.302V31.3381H29.698ZM32.9412 19.0516H23.1244V25.8393C24.2805 25.8393 25.2238 26.7625 25.2238 27.8938H30.8418C30.8418 26.7625 31.7846 25.8393 32.9412 25.8393V19.0516ZM28 19.6158C29.3998 19.6158 30.5348 20.7264 30.5348 22.0963C30.5348 23.4661 29.3998 24.5767 28 24.5767C26.6002 24.5767 25.4652 23.4661 25.4652 22.0963C25.4652 20.7264 26.6002 19.6158 28 19.6158Z" fill="white"/>
<defs>
<filter id="filter0_ii_8787_18442" x="6.63281" y="5.62891" width="41.7422" height="43.7383" filterUnits="userSpaceOnUse" color-interpolation-filters="sRGB">
<feFlood flood-opacity="0" result="BackgroundImageFix"/>
<feBlend mode="normal" in="SourceGraphic" in2="BackgroundImageFix" result="shape"/>
<feColorMatrix in="SourceAlpha" type="matrix" values="0 0 0 0 0 0 0 0 0 0 0 0 0 0 0 0 0 0 127 0" result="hardAlpha"/>
<feOffset/>
<feGaussianBlur stdDeviation="2"/>
<feComposite in2="hardAlpha" operator="arithmetic" k2="-1" k3="1"/>
<feColorMatrix type="matrix" values="0 0 0 0 0 0 0 0 0 0.26 0 0 0 0 0.65 0 0 0 1 0"/>
<feBlend mode="normal" in2="shape" result="effect1_innerShadow_8787_18442"/>
<feColorMatrix in="SourceAlpha" type="matrix" values="0 0 0 0 0 0 0 0 0 0 0 0 0 0 0 0 0 0 127 0" result="hardAlpha"/>
<feOffset dy="2"/>
<feGaussianBlur stdDeviation="2"/>
<feComposite in2="hardAlpha" operator="arithmetic" k2="-1" k3="1"/>
<feColorMatrix type="matrix" values="0 0 0 0 0 0 0 0 0 0.200667 0 0 0 0 0.716667 0 0 0 0.5 0"/>
<feBlend mode="normal" in2="effect1_innerShadow_8787_18442" result="effect2_innerShadow_8787_18442"/>
</filter>
<filter id="filter1_f_8787_18442" x="35.1953" y="36.0312" width="13.2734" height="13.2773" filterUnits="userSpaceOnUse" color-interpolation-filters="sRGB">
<feFlood flood-opacity="0" result="BackgroundImageFix"/>
<feBlend mode="normal" in="SourceGraphic" in2="BackgroundImageFix" result="shape"/>
<feGaussianBlur stdDeviation="1" result="effect1_foregroundBlur_8787_18442"/>
</filter>
<filter id="filter2_f_8787_18442" x="34.1953" y="35.0312" width="15.2734" height="15.2773" filterUnits="userSpaceOnUse" color-interpolation-filters="sRGB">
<feFlood flood-opacity="0" result="BackgroundImageFix"/>
<feBlend mode="normal" in="SourceGraphic" in2="BackgroundImageFix" result="shape"/>
<feGaussianBlur stdDeviation="1.5" result="effect1_foregroundBlur_8787_18442"/>
</filter>
<filter id="filter3_f_8787_18442" x="38.9844" y="6.87109" width="9.53906" height="9.53906" filterUnits="userSpaceOnUse" color-interpolation-filters="sRGB">
<feFlood flood-opacity="0" result="BackgroundImageFix"/>
<feBlend mode="normal" in="SourceGraphic" in2="BackgroundImageFix" result="shape"/>
<feGaussianBlur stdDeviation="1.5" result="effect1_foregroundBlur_8787_18442"/>
</filter>
<filter id="filter4_f_8787_18442" x="0.367188" y="15.4531" width="9.53906" height="9.53906" filterUnits="userSpaceOnUse" color-interpolation-filters="sRGB">
<feFlood flood-opacity="0" result="BackgroundImageFix"/>
<feBlend mode="normal" in="SourceGraphic" in2="BackgroundImageFix" result="shape"/>
<feGaussianBlur stdDeviation="1.5" result="effect1_foregroundBlur_8787_18442"/>
</filter>
<linearGradient id="paint0_linear_8787_18442" x1="13.3285" y1="3.6223" x2="27.5" y2="53" gradientUnits="userSpaceOnUse">
<stop stop-color="#0079F1"/>
<stop offset="0.501018" stop-color="#81C0FC"/>
<stop offset="0.979167" stop-color="#004ABF"/>
</linearGradient>
<linearGradient id="paint1_linear_8787_18442" x1="27.5" y1="0" x2="27.5" y2="53" gradientUnits="userSpaceOnUse">
<stop stop-color="#DAEBFF"/>
<stop offset="0.245067" stop-color="white" stop-opacity="0"/>
</linearGradient>
<linearGradient id="paint2_linear_8787_18442" x1="14.9049" y1="6.1615" x2="27.5029" y2="50.0565" gradientUnits="userSpaceOnUse">
<stop stop-color="#014BC0"/>
<stop offset="1" stop-color="#80BFFC"/>
</linearGradient>
<linearGradient id="paint3_linear_8787_18442" x1="27.5029" y1="2.94141" x2="27.5029" y2="50.0565" gradientUnits="userSpaceOnUse">
<stop stop-color="#74ABFF"/>
<stop offset="1" stop-color="#BFD9FF"/>
</linearGradient>
<linearGradient id="paint4_linear_8787_18442" x1="16.3418" y1="8.48154" x2="27.5021" y2="47.3675" gradientUnits="userSpaceOnUse">
<stop stop-color="#00CDF3"/>
<stop offset="1" stop-color="#5987FF"/>
</linearGradient>
</defs>
</svg>
