<svg width="54" height="53" viewBox="0 0 54 53" fill="none" xmlns="http://www.w3.org/2000/svg"> 
<circle cx="27.5" cy="26.5" r="24.5" fill="url(#paint0_linear_8787_18441)" stroke="url(#paint1_linear_8787_18441)" stroke-width="4"/>
<circle cx="27.5029" cy="26.499" r="23.0576" fill="url(#paint2_linear_8787_18441)" stroke="url(#paint3_linear_8787_18441)"/>
<g filter="url(#filter0_ii_8787_18441)">
<circle cx="27.5021" cy="26.4982" r="20.8693" fill="url(#paint4_linear_8787_18441)"/>
</g>
<g filter="url(#filter1_f_8787_18441)">
<g filter="url(#filter2_f_8787_18441)">
<path d="M43.5443 41.0684C43.4979 41.043 43.4598 41.005 43.4344 40.9586L41.8334 38.0312L40.2325 40.9585C40.2071 41.0049 40.169 41.043 40.1227 41.0683L37.1953 42.6694L40.1226 44.2704C40.169 44.2957 40.2071 44.3338 40.2324 44.3802L41.8334 47.3075L43.4344 44.3802C43.4598 44.3338 43.4978 44.2957 43.5442 44.2704L46.4715 42.6694L43.5443 41.0684Z" fill="white"/>
</g>
<path d="M43.5443 41.0684C43.4979 41.043 43.4598 41.005 43.4344 40.9586L41.8334 38.0312L40.2325 40.9585C40.2071 41.0049 40.169 41.043 40.1227 41.0683L37.1953 42.6694L40.1226 44.2704C40.169 44.2957 40.2071 44.3338 40.2324 44.3802L41.8334 47.3075L43.4344 44.3802C43.4598 44.3338 43.4978 44.2957 43.5442 44.2704L46.4715 42.6694L43.5443 41.0684Z" fill="white"/>
</g>
<g filter="url(#filter3_f_8787_18441)">
<path d="M44.4053 11.0292C44.3877 11.0195 44.3731 11.005 44.3635 10.9873L43.753 9.87109L43.1425 10.9873C43.1328 11.005 43.1183 11.0195 43.1006 11.0292L41.9844 11.6397L43.1006 12.2502C43.1183 12.2598 43.1328 12.2744 43.1425 12.292L43.7529 13.4083L44.3634 12.292C44.3731 12.2744 44.3876 12.2598 44.4053 12.2502L45.5215 11.6397L44.4053 11.0292Z" fill="#0080F5"/>
</g>
<path d="M44.4053 11.0292C44.3877 11.0195 44.3731 11.005 44.3635 10.9873L43.753 9.87109L43.1425 10.9873C43.1328 11.005 43.1183 11.0195 43.1006 11.0292L41.9844 11.6397L43.1006 12.2502C43.1183 12.2598 43.1328 12.2744 43.1425 12.292L43.7529 13.4083L44.3634 12.292C44.3731 12.2744 44.3876 12.2598 44.4053 12.2502L45.5215 11.6397L44.4053 11.0292Z" fill="white"/>
<g filter="url(#filter4_f_8787_18441)">
<path d="M5.78815 19.6112C5.77047 19.6016 5.75595 19.587 5.74627 19.5694L5.13578 18.4531L4.52531 19.5693C4.51564 19.587 4.50111 19.6015 4.48343 19.6112L3.36719 20.2217L4.48341 20.8322C4.50109 20.8419 4.51561 20.8564 4.52529 20.8741L5.13576 21.9903L5.74625 20.8741C5.75593 20.8564 5.77045 20.8419 5.78813 20.8322L6.90435 20.2217L5.78815 19.6112Z" fill="#005773"/>
</g>
<path d="M5.78815 19.6112C5.77047 19.6016 5.75595 19.587 5.74627 19.5694L5.13578 18.4531L4.52531 19.5693C4.51564 19.587 4.50111 19.6015 4.48343 19.6112L3.36719 20.2217L4.48341 20.8322C4.50109 20.8419 4.51561 20.8564 4.52529 20.8741L5.13576 21.9903L5.74625 20.8741C5.75593 20.8564 5.77045 20.8419 5.78813 20.8322L6.90435 20.2217L5.78815 19.6112Z" fill="white"/>
<path d="M38.1088 16.7627H35.4213C35.1377 16.7667 34.8672 16.8826 34.6688 17.0852L33.2713 18.4827L31.8738 17.0852C31.6753 16.8826 31.4048 16.7667 31.1213 16.7627H17.6838C17.47 16.7552 17.257 16.7917 17.0579 16.8701C16.8589 16.9485 16.6781 17.067 16.5269 17.2183C16.3756 17.3695 16.2571 17.5503 16.1787 17.7493C16.1003 17.9484 16.0638 18.1614 16.0713 18.3752V33.4252C16.0713 33.8528 16.2412 34.263 16.5436 34.5654C16.846 34.8678 17.2561 35.0377 17.6838 35.0377H31.1213C31.4048 35.0336 31.6753 34.9177 31.8738 34.7152L33.2713 33.3177L34.6688 34.7152C34.8672 34.9177 35.1377 35.0336 35.4213 35.0377H38.1088C38.5364 35.0377 38.9466 34.8678 39.249 34.5654C39.5514 34.263 39.7213 33.8528 39.7213 33.4252V18.3752C39.7288 18.1614 39.6922 17.9484 39.6138 17.7493C39.5354 17.5503 39.4169 17.3695 39.2657 17.2183C39.1144 17.067 38.9337 16.9485 38.7346 16.8701C38.5356 16.7917 38.3225 16.7552 38.1088 16.7627ZM22.5213 22.6752C22.7339 22.6752 22.9417 22.7382 23.1185 22.8563C23.2953 22.9745 23.4331 23.1424 23.5144 23.3388C23.5958 23.5352 23.6171 23.7514 23.5756 23.9599C23.5341 24.1684 23.4318 24.36 23.2814 24.5103C23.1311 24.6607 22.9395 24.763 22.731 24.8045C22.5225 24.846 22.3063 24.8247 22.1099 24.7433C21.9135 24.662 21.7456 24.5242 21.6274 24.3474C21.5093 24.1706 21.4463 23.9628 21.4463 23.7502C21.4463 23.4651 21.5595 23.1916 21.7611 22.99C21.9627 22.7884 22.2362 22.6752 22.5213 22.6752ZM26.8213 29.1252C26.6087 29.1252 26.4008 29.0621 26.224 28.944C26.0473 28.8259 25.9095 28.658 25.8281 28.4616C25.7467 28.2651 25.7254 28.049 25.7669 27.8405C25.8084 27.6319 25.9108 27.4404 26.0611 27.29C26.2115 27.1397 26.403 27.0373 26.6116 26.9958C26.8201 26.9544 27.0362 26.9756 27.2327 27.057C27.4291 27.1384 27.597 27.2762 27.7151 27.4529C27.8332 27.6297 27.8963 27.8376 27.8963 28.0502C27.8963 28.3353 27.783 28.6087 27.5814 28.8103C27.3798 29.0119 27.1064 29.1252 26.8213 29.1252ZM28.1113 23.9652L22.7363 29.3402C22.6406 29.4444 22.5243 29.5277 22.3948 29.5846C22.2652 29.6416 22.1253 29.671 21.9838 29.671C21.8423 29.671 21.7023 29.6416 21.5728 29.5846C21.4432 29.5277 21.3269 29.4444 21.2313 29.3402C21.127 29.2445 21.0438 29.1282 20.9868 28.9987C20.9299 28.8691 20.9005 28.7292 20.9005 28.5877C20.9005 28.4462 20.9299 28.3062 20.9868 28.1767C21.0438 28.0471 21.127 27.9308 21.2313 27.8352L26.6063 22.4602C26.8133 22.3049 27.0694 22.2295 27.3275 22.2479C27.5856 22.2662 27.8284 22.3771 28.0114 22.56C28.1944 22.743 28.3052 22.9859 28.3236 23.244C28.3419 23.5021 28.2665 23.7582 28.1113 23.9652ZM34.3463 30.7377C34.3463 31.0228 34.233 31.2962 34.0314 31.4978C33.8298 31.6994 33.5564 31.8127 33.2713 31.8127C32.9862 31.8127 32.7127 31.6994 32.5111 31.4978C32.3095 31.2962 32.1963 31.0228 32.1963 30.7377V29.6627C32.1963 29.3776 32.3095 29.1041 32.5111 28.9025C32.7127 28.7009 32.9862 28.5877 33.2713 28.5877C33.5564 28.5877 33.8298 28.7009 34.0314 28.9025C34.233 29.1041 34.3463 29.3776 34.3463 29.6627V30.7377ZM34.3463 26.4377C34.3463 26.7228 34.233 26.9962 34.0314 27.1978C33.8298 27.3994 33.5564 27.5127 33.2713 27.5127C32.9862 27.5127 32.7127 27.3994 32.5111 27.1978C32.3095 26.9962 32.1963 26.7228 32.1963 26.4377V25.3627C32.1963 25.0776 32.3095 24.8041 32.5111 24.6025C32.7127 24.4009 32.9862 24.2877 33.2713 24.2877C33.5564 24.2877 33.8298 24.4009 34.0314 24.6025C34.233 24.8041 34.3463 25.0776 34.3463 25.3627V26.4377ZM34.3463 22.1377C34.3463 22.4228 34.233 22.6962 34.0314 22.8978C33.8298 23.0994 33.5564 23.2127 33.2713 23.2127C32.9862 23.2127 32.7127 23.0994 32.5111 22.8978C32.3095 22.6962 32.1963 22.4228 32.1963 22.1377V21.0627C32.1963 20.7776 32.3095 20.5041 32.5111 20.3025C32.7127 20.1009 32.9862 19.9877 33.2713 19.9877C33.5564 19.9877 33.8298 20.1009 34.0314 20.3025C34.233 20.5041 34.3463 20.7776 34.3463 21.0627V22.1377Z" fill="white"/>
<defs>
<filter id="filter0_ii_8787_18441" x="6.63281" y="5.62891" width="41.7422" height="43.7383" filterUnits="userSpaceOnUse" color-interpolation-filters="sRGB">
<feFlood flood-opacity="0" result="BackgroundImageFix"/>
<feBlend mode="normal" in="SourceGraphic" in2="BackgroundImageFix" result="shape"/>
<feColorMatrix in="SourceAlpha" type="matrix" values="0 0 0 0 0 0 0 0 0 0 0 0 0 0 0 0 0 0 127 0" result="hardAlpha"/>
<feOffset/>
<feGaussianBlur stdDeviation="2"/>
<feComposite in2="hardAlpha" operator="arithmetic" k2="-1" k3="1"/>
<feColorMatrix type="matrix" values="0 0 0 0 0 0 0 0 0 0.26 0 0 0 0 0.65 0 0 0 1 0"/>
<feBlend mode="normal" in2="shape" result="effect1_innerShadow_8787_18441"/>
<feColorMatrix in="SourceAlpha" type="matrix" values="0 0 0 0 0 0 0 0 0 0 0 0 0 0 0 0 0 0 127 0" result="hardAlpha"/>
<feOffset dy="2"/>
<feGaussianBlur stdDeviation="2"/>
<feComposite in2="hardAlpha" operator="arithmetic" k2="-1" k3="1"/>
<feColorMatrix type="matrix" values="0 0 0 0 0 0 0 0 0 0.200667 0 0 0 0 0.716667 0 0 0 0.5 0"/>
<feBlend mode="normal" in2="effect1_innerShadow_8787_18441" result="effect2_innerShadow_8787_18441"/>
</filter>
<filter id="filter1_f_8787_18441" x="35.1953" y="36.0312" width="13.2734" height="13.2773" filterUnits="userSpaceOnUse" color-interpolation-filters="sRGB">
<feFlood flood-opacity="0" result="BackgroundImageFix"/>
<feBlend mode="normal" in="SourceGraphic" in2="BackgroundImageFix" result="shape"/>
<feGaussianBlur stdDeviation="1" result="effect1_foregroundBlur_8787_18441"/>
</filter>
<filter id="filter2_f_8787_18441" x="34.1953" y="35.0312" width="15.2734" height="15.2773" filterUnits="userSpaceOnUse" color-interpolation-filters="sRGB">
<feFlood flood-opacity="0" result="BackgroundImageFix"/>
<feBlend mode="normal" in="SourceGraphic" in2="BackgroundImageFix" result="shape"/>
<feGaussianBlur stdDeviation="1.5" result="effect1_foregroundBlur_8787_18441"/>
</filter>
<filter id="filter3_f_8787_18441" x="38.9844" y="6.87109" width="9.53906" height="9.53906" filterUnits="userSpaceOnUse" color-interpolation-filters="sRGB">
<feFlood flood-opacity="0" result="BackgroundImageFix"/>
<feBlend mode="normal" in="SourceGraphic" in2="BackgroundImageFix" result="shape"/>
<feGaussianBlur stdDeviation="1.5" result="effect1_foregroundBlur_8787_18441"/>
</filter>
<filter id="filter4_f_8787_18441" x="0.367188" y="15.4531" width="9.53906" height="9.53906" filterUnits="userSpaceOnUse" color-interpolation-filters="sRGB">
<feFlood flood-opacity="0" result="BackgroundImageFix"/>
<feBlend mode="normal" in="SourceGraphic" in2="BackgroundImageFix" result="shape"/>
<feGaussianBlur stdDeviation="1.5" result="effect1_foregroundBlur_8787_18441"/>
</filter>
<linearGradient id="paint0_linear_8787_18441" x1="13.3285" y1="3.6223" x2="27.5" y2="53" gradientUnits="userSpaceOnUse">
<stop stop-color="#0079F1"/>
<stop offset="0.501018" stop-color="#81C0FC"/>
<stop offset="0.979167" stop-color="#004ABF"/>
</linearGradient>
<linearGradient id="paint1_linear_8787_18441" x1="27.5" y1="0" x2="27.5" y2="53" gradientUnits="userSpaceOnUse">
<stop stop-color="#DAEBFF"/>
<stop offset="0.245067" stop-color="white" stop-opacity="0"/>
</linearGradient>
<linearGradient id="paint2_linear_8787_18441" x1="14.9049" y1="6.1615" x2="27.5029" y2="50.0565" gradientUnits="userSpaceOnUse">
<stop stop-color="#014BC0"/>
<stop offset="1" stop-color="#80BFFC"/>
</linearGradient>
<linearGradient id="paint3_linear_8787_18441" x1="27.5029" y1="2.94141" x2="27.5029" y2="50.0565" gradientUnits="userSpaceOnUse">
<stop stop-color="#74ABFF"/>
<stop offset="1" stop-color="#BFD9FF"/>
</linearGradient>
<linearGradient id="paint4_linear_8787_18441" x1="16.3418" y1="8.48154" x2="27.5021" y2="47.3675" gradientUnits="userSpaceOnUse">
<stop stop-color="#00CDF3"/>
<stop offset="1" stop-color="#5987FF"/>
</linearGradient>
</defs>
</svg>
