<svg width="54" height="54" viewBox="0 0 54 54" fill="none" xmlns="http://www.w3.org/2000/svg">
<g clip-path="url(#clip0_5023_1852)">
<circle cx="27" cy="27" r="26" fill="#00267D" stroke="url(#paint0_linear_5023_1852)" stroke-width="2"/>
<path d="M32 17C32.3315 17 32.6495 17.1317 32.8839 17.3661C33.1183 17.6005 33.25 17.9185 33.25 18.25V23.5L39.7662 18.9375C39.8599 18.8718 39.9699 18.8331 40.0841 18.8256C40.1982 18.8181 40.3123 18.8421 40.4138 18.895C40.5152 18.9479 40.6003 19.0276 40.6596 19.1254C40.7188 19.2233 40.7501 19.3356 40.75 19.45V34.55C40.7501 34.6644 40.7188 34.7767 40.6596 34.8746C40.6003 34.9724 40.5152 35.0521 40.4138 35.105C40.3123 35.1579 40.1982 35.1819 40.0841 35.1744C39.9699 35.1669 39.8599 35.1282 39.7662 35.0625L33.25 30.5V35.75C33.25 36.0815 33.1183 36.3995 32.8839 36.6339C32.6495 36.8683 32.3315 37 32 37H14.5C14.1685 37 13.8505 36.8683 13.6161 36.6339C13.3817 36.3995 13.25 36.0815 13.25 35.75V18.25C13.25 17.9185 13.3817 17.6005 13.6161 17.3661C13.8505 17.1317 14.1685 17 14.5 17H32ZM21.25 23.0363C21.1347 23.0362 21.023 23.076 20.9337 23.1489C20.8444 23.2218 20.7831 23.3233 20.76 23.4362L20.75 23.535V30.4625C20.75 30.5435 20.7696 30.6232 20.8073 30.6949C20.8449 30.7666 20.8994 30.8281 20.966 30.8741C21.0327 30.9201 21.1095 30.9492 21.1899 30.9589C21.2703 30.9687 21.3518 30.9587 21.4275 30.93L21.5187 30.885L26.9625 27.42C27.026 27.3794 27.0795 27.3249 27.119 27.2606C27.1585 27.1964 27.1829 27.1241 27.1905 27.049C27.1981 26.974 27.1886 26.8983 27.1627 26.8274C27.1369 26.7566 27.0954 26.6925 27.0413 26.64L26.9625 26.5775L21.5187 23.1125C21.4381 23.0625 21.3449 23.0352 21.25 23.0363Z" fill="url(#paint1_linear_5023_1852)"/>
</g>
<defs>
<linearGradient id="paint0_linear_5023_1852" x1="42" y1="-4" x2="14.5" y2="56.5" gradientUnits="userSpaceOnUse">
<stop stop-color="#F1DD91"/>
<stop offset="0.541667" stop-color="#D9B75F"/>
<stop offset="1" stop-color="#F1DD91"/>
</linearGradient>
<linearGradient id="paint1_linear_5023_1852" x1="27" y1="17" x2="27" y2="37" gradientUnits="userSpaceOnUse">
<stop stop-color="#D8B55C"/>
<stop offset="0.503285" stop-color="#FFF3A9"/>
<stop offset="1" stop-color="#D8B55C"/>
</linearGradient>
<clipPath id="clip0_5023_1852">
<rect width="54" height="54" fill="white"/>
</clipPath>
</defs>
</svg>
