<svg width="54" height="53" viewBox="0 0 54 53" fill="none" xmlns="http://www.w3.org/2000/svg"> 
<circle cx="27.5" cy="26.5" r="24.5" fill="url(#paint0_linear_8787_18439)" stroke="url(#paint1_linear_8787_18439)" stroke-width="4"/>
<circle cx="27.5029" cy="26.499" r="23.0576" fill="url(#paint2_linear_8787_18439)" stroke="url(#paint3_linear_8787_18439)"/>
<g filter="url(#filter0_ii_8787_18439)">
<circle cx="27.5021" cy="26.4982" r="20.8693" fill="url(#paint4_linear_8787_18439)"/>
</g>
<g filter="url(#filter1_f_8787_18439)">
<g filter="url(#filter2_f_8787_18439)">
<path d="M43.5443 41.0684C43.4979 41.043 43.4598 41.005 43.4344 40.9586L41.8334 38.0312L40.2325 40.9585C40.2071 41.0049 40.169 41.043 40.1227 41.0683L37.1953 42.6694L40.1226 44.2704C40.169 44.2957 40.2071 44.3338 40.2324 44.3802L41.8334 47.3075L43.4344 44.3802C43.4598 44.3338 43.4978 44.2957 43.5442 44.2704L46.4715 42.6694L43.5443 41.0684Z" fill="white"/>
</g>
<path d="M43.5443 41.0684C43.4979 41.043 43.4598 41.005 43.4344 40.9586L41.8334 38.0312L40.2325 40.9585C40.2071 41.0049 40.169 41.043 40.1227 41.0683L37.1953 42.6694L40.1226 44.2704C40.169 44.2957 40.2071 44.3338 40.2324 44.3802L41.8334 47.3075L43.4344 44.3802C43.4598 44.3338 43.4978 44.2957 43.5442 44.2704L46.4715 42.6694L43.5443 41.0684Z" fill="white"/>
</g>
<g filter="url(#filter3_f_8787_18439)">
<path d="M44.4053 11.0292C44.3877 11.0195 44.3731 11.005 44.3635 10.9873L43.753 9.87109L43.1425 10.9873C43.1328 11.005 43.1183 11.0195 43.1006 11.0292L41.9844 11.6397L43.1006 12.2502C43.1183 12.2598 43.1328 12.2744 43.1425 12.292L43.7529 13.4083L44.3634 12.292C44.3731 12.2744 44.3876 12.2598 44.4053 12.2502L45.5215 11.6397L44.4053 11.0292Z" fill="#0080F5"/>
</g>
<path d="M44.4053 11.0292C44.3877 11.0195 44.3731 11.005 44.3635 10.9873L43.753 9.87109L43.1425 10.9873C43.1328 11.005 43.1183 11.0195 43.1006 11.0292L41.9844 11.6397L43.1006 12.2502C43.1183 12.2598 43.1328 12.2744 43.1425 12.292L43.7529 13.4083L44.3634 12.292C44.3731 12.2744 44.3876 12.2598 44.4053 12.2502L45.5215 11.6397L44.4053 11.0292Z" fill="white"/>
<g filter="url(#filter4_f_8787_18439)">
<path d="M5.78815 19.6112C5.77047 19.6016 5.75595 19.587 5.74627 19.5694L5.13578 18.4531L4.52531 19.5693C4.51564 19.587 4.50111 19.6015 4.48343 19.6112L3.36719 20.2217L4.48341 20.8322C4.50109 20.8419 4.51561 20.8564 4.52529 20.8741L5.13576 21.9903L5.74625 20.8741C5.75593 20.8564 5.77045 20.8419 5.78813 20.8322L6.90435 20.2217L5.78815 19.6112Z" fill="#005773"/>
</g>
<path d="M5.78815 19.6112C5.77047 19.6016 5.75595 19.587 5.74627 19.5694L5.13578 18.4531L4.52531 19.5693C4.51564 19.587 4.50111 19.6015 4.48343 19.6112L3.36719 20.2217L4.48341 20.8322C4.50109 20.8419 4.51561 20.8564 4.52529 20.8741L5.13576 21.9903L5.74625 20.8741C5.75593 20.8564 5.77045 20.8419 5.78813 20.8322L6.90435 20.2217L5.78815 19.6112Z" fill="white"/>
<path d="M33.125 19C33.4101 19 33.6835 19.1133 33.8851 19.3149C34.0867 19.5165 34.2 19.7899 34.2 20.075V24.59L39.804 20.6663C39.8846 20.6098 39.9791 20.5765 40.0773 20.57C40.1755 20.5636 40.2736 20.5842 40.3608 20.6297C40.4481 20.6752 40.5212 20.7437 40.5722 20.8279C40.6232 20.912 40.6501 21.0086 40.65 21.107V34.093C40.6501 34.1914 40.6232 34.288 40.5722 34.3721C40.5212 34.4563 40.4481 34.5248 40.3608 34.5703C40.2736 34.6158 40.1755 34.6364 40.0773 34.63C39.9791 34.6235 39.8846 34.5902 39.804 34.5337L34.2 30.61V35.125C34.2 35.4101 34.0867 35.6835 33.8851 35.8851C33.6835 36.0867 33.4101 36.2 33.125 36.2H18.075C17.7899 36.2 17.5165 36.0867 17.3149 35.8851C17.1133 35.6835 17 35.4101 17 35.125V20.075C17 19.7899 17.1133 19.5165 17.3149 19.3149C17.5165 19.1133 17.7899 19 18.075 19H33.125ZM23.88 24.1912C23.7809 24.1912 23.6848 24.2254 23.608 24.2881C23.5312 24.3508 23.4784 24.438 23.4586 24.5352L23.45 24.6201V30.5777C23.45 30.6474 23.4669 30.716 23.4993 30.7776C23.5316 30.8393 23.5785 30.8922 23.6358 30.9317C23.6931 30.9713 23.7592 30.9963 23.8283 31.0047C23.8974 31.0131 23.9675 31.0045 24.0326 30.9798L24.1111 30.9411L28.7927 27.9612C28.8474 27.9263 28.8934 27.8794 28.9273 27.8242C28.9613 27.7689 28.9823 27.7067 28.9888 27.6422C28.9954 27.5777 28.9872 27.5125 28.965 27.4516C28.9427 27.3907 28.907 27.3356 28.8605 27.2904L28.7927 27.2366L24.1111 24.2568C24.0418 24.2138 23.9616 24.1903 23.88 24.1912Z" fill="white"/>
<defs>
<filter id="filter0_ii_8787_18439" x="6.63281" y="5.62891" width="41.7422" height="43.7383" filterUnits="userSpaceOnUse" color-interpolation-filters="sRGB">
<feFlood flood-opacity="0" result="BackgroundImageFix"/>
<feBlend mode="normal" in="SourceGraphic" in2="BackgroundImageFix" result="shape"/>
<feColorMatrix in="SourceAlpha" type="matrix" values="0 0 0 0 0 0 0 0 0 0 0 0 0 0 0 0 0 0 127 0" result="hardAlpha"/>
<feOffset/>
<feGaussianBlur stdDeviation="2"/>
<feComposite in2="hardAlpha" operator="arithmetic" k2="-1" k3="1"/>
<feColorMatrix type="matrix" values="0 0 0 0 0 0 0 0 0 0.26 0 0 0 0 0.65 0 0 0 1 0"/>
<feBlend mode="normal" in2="shape" result="effect1_innerShadow_8787_18439"/>
<feColorMatrix in="SourceAlpha" type="matrix" values="0 0 0 0 0 0 0 0 0 0 0 0 0 0 0 0 0 0 127 0" result="hardAlpha"/>
<feOffset dy="2"/>
<feGaussianBlur stdDeviation="2"/>
<feComposite in2="hardAlpha" operator="arithmetic" k2="-1" k3="1"/>
<feColorMatrix type="matrix" values="0 0 0 0 0 0 0 0 0 0.200667 0 0 0 0 0.716667 0 0 0 0.5 0"/>
<feBlend mode="normal" in2="effect1_innerShadow_8787_18439" result="effect2_innerShadow_8787_18439"/>
</filter>
<filter id="filter1_f_8787_18439" x="35.1953" y="36.0312" width="13.2734" height="13.2773" filterUnits="userSpaceOnUse" color-interpolation-filters="sRGB">
<feFlood flood-opacity="0" result="BackgroundImageFix"/>
<feBlend mode="normal" in="SourceGraphic" in2="BackgroundImageFix" result="shape"/>
<feGaussianBlur stdDeviation="1" result="effect1_foregroundBlur_8787_18439"/>
</filter>
<filter id="filter2_f_8787_18439" x="34.1953" y="35.0312" width="15.2734" height="15.2773" filterUnits="userSpaceOnUse" color-interpolation-filters="sRGB">
<feFlood flood-opacity="0" result="BackgroundImageFix"/>
<feBlend mode="normal" in="SourceGraphic" in2="BackgroundImageFix" result="shape"/>
<feGaussianBlur stdDeviation="1.5" result="effect1_foregroundBlur_8787_18439"/>
</filter>
<filter id="filter3_f_8787_18439" x="38.9844" y="6.87109" width="9.53906" height="9.53906" filterUnits="userSpaceOnUse" color-interpolation-filters="sRGB">
<feFlood flood-opacity="0" result="BackgroundImageFix"/>
<feBlend mode="normal" in="SourceGraphic" in2="BackgroundImageFix" result="shape"/>
<feGaussianBlur stdDeviation="1.5" result="effect1_foregroundBlur_8787_18439"/>
</filter>
<filter id="filter4_f_8787_18439" x="0.367188" y="15.4531" width="9.53906" height="9.53906" filterUnits="userSpaceOnUse" color-interpolation-filters="sRGB">
<feFlood flood-opacity="0" result="BackgroundImageFix"/>
<feBlend mode="normal" in="SourceGraphic" in2="BackgroundImageFix" result="shape"/>
<feGaussianBlur stdDeviation="1.5" result="effect1_foregroundBlur_8787_18439"/>
</filter>
<linearGradient id="paint0_linear_8787_18439" x1="13.3285" y1="3.6223" x2="27.5" y2="53" gradientUnits="userSpaceOnUse">
<stop stop-color="#0079F1"/>
<stop offset="0.501018" stop-color="#81C0FC"/>
<stop offset="0.979167" stop-color="#004ABF"/>
</linearGradient>
<linearGradient id="paint1_linear_8787_18439" x1="27.5" y1="0" x2="27.5" y2="53" gradientUnits="userSpaceOnUse">
<stop stop-color="#DAEBFF"/>
<stop offset="0.245067" stop-color="white" stop-opacity="0"/>
</linearGradient>
<linearGradient id="paint2_linear_8787_18439" x1="14.9049" y1="6.1615" x2="27.5029" y2="50.0565" gradientUnits="userSpaceOnUse">
<stop stop-color="#014BC0"/>
<stop offset="1" stop-color="#80BFFC"/>
</linearGradient>
<linearGradient id="paint3_linear_8787_18439" x1="27.5029" y1="2.94141" x2="27.5029" y2="50.0565" gradientUnits="userSpaceOnUse">
<stop stop-color="#74ABFF"/>
<stop offset="1" stop-color="#BFD9FF"/>
</linearGradient>
<linearGradient id="paint4_linear_8787_18439" x1="16.3418" y1="8.48154" x2="27.5021" y2="47.3675" gradientUnits="userSpaceOnUse">
<stop stop-color="#00CDF3"/>
<stop offset="1" stop-color="#5987FF"/>
</linearGradient>
</defs>
</svg>
