<svg width="25" height="33" viewBox="0 0 25 33" fill="current" xmlns="http://www.w3.org/2000/svg">
<path d="M23.7054 20.2962L22.1281 17.5987C21.7969 16.9975 21.4972 15.86 21.4972 15.1937V11.0825C21.4972 7.26375 19.3206 3.965 16.1818 2.42125C15.3616 0.92625 13.8474 0 12.1124 0C10.3932 0 8.84755 0.95875 8.02736 2.47C4.95168 4.04625 2.82236 7.3125 2.82236 11.0825V15.1937C2.82236 15.86 2.52268 16.9975 2.19146 17.5825L0.598411 20.2962C-0.0324985 21.385 -0.174453 22.5875 0.219866 23.6925C0.598411 24.7812 1.49746 25.6262 2.66464 26.0325C5.72455 27.105 8.94218 27.625 12.1598 27.625C15.3774 27.625 18.595 27.105 21.6549 26.0487C22.759 25.675 23.6108 24.8137 24.0208 23.6925C24.4309 22.5712 24.3205 21.3362 23.7054 20.2962Z"/>
<path d="M16.9116 29.2663C16.2492 31.1513 14.4984 32.5 12.4479 32.5C11.2019 32.5 9.97161 31.98 9.10409 31.0538C8.59936 30.5663 8.22082 29.9162 8 29.25C8.20505 29.2825 8.41009 29.2987 8.63091 29.3312C8.99368 29.38 9.37224 29.4287 9.75079 29.4612C10.6498 29.5425 11.5647 29.5912 12.4795 29.5912C13.3785 29.5912 14.2776 29.5425 15.1608 29.4612C15.4921 29.4287 15.8233 29.4125 16.1387 29.3637C16.3911 29.3312 16.6435 29.2988 16.9116 29.2663Z"/>
</svg>
