<svg fill="none" height="20" viewBox="0 0 24 20" width="24" xmlns="http://www.w3.org/2000/svg" xmlns:xlink="http://www.w3.org/1999/xlink"><clipPath id="a"><path d="m.129395.458984h23.2469v18.5779h-23.2469z"/></clipPath><g clip-path="url(#a)"><path d="m12.9806 2.42142-.8572-1.734415c-.1417-.301165-.5848-.31205-.741 0l-.8573 1.734415-1.89967.27214c-.33781.0508-.48311.46808-.23247.71844l1.38028 1.34255-.32691 1.89044c-.05085.33745.29785.5987.61027.44268l1.7035-.89987 1.6927.88535c.3124.15603.6647-.10522.6102-.44267l-.3269-1.89045 1.3803-1.32803c.247-.24673.1053-.66401-.2325-.71844l-1.8997-.27214zm-3.55243 7.32593c-.64292 0-1.16235.51885-1.16235 1.16115v6.9667c0 .6422.51943 1.1611 1.16235 1.1611h4.64943c.6429 0 1.1623-.5189 1.1623-1.1611v-6.9667c0-.6423-.5194-1.16115-1.1623-1.16115zm-8.13643 2.32225c-.642922 0-1.162345.5189-1.162345 1.1611v4.6445c0 .6422.519423 1.1611 1.162345 1.1611h4.64939c.64292 0 1.16235-.5189 1.16235-1.1611v-4.6445c0-.6422-.51943-1.1611-1.16235-1.1611zm15.11056 3.4833v2.3223c0 .6422.5194 1.1611 1.1623 1.1611h4.6494c.6429 0 1.1623-.5189 1.1623-1.1611v-2.3223c0-.6422-.5194-1.1611-1.1623-1.1611h-4.6494c-.6429 0-1.1623.5189-1.1623 1.1611z" fill="#fff"/></g></svg>