<svg fill="none" height="27" viewBox="0 0 25 27" width="25" xmlns="http://www.w3.org/2000/svg"><g fill="#5a5a5a"><path clip-rule="evenodd" d="m6.85714 0c.75742 0 1.37143.604416 1.37143 1.35v1.35h8.22853v-1.35c0-.745584.6141-1.35 1.3715-1.35s1.3714.604416 1.3714 1.35v1.35h1.3714c2.2723 0 4.1143 1.81326 4.1143 4.05v16.2c0 2.2368-1.842 4.05-4.1143 4.05h-16.45711c-2.27225 0-4.11429-1.8132-4.11429-4.05v-16.2c0-2.23675 1.84203-4.05 4.11429-4.05h1.37142v-1.35c0-.745584.61401-1.35 1.37143-1.35zm-1.37143 5.4h-1.37142c-.75742 0-1.37143.60442-1.37143 1.35v2.7h19.20004v-2.7c0-.7456-.614-1.35-1.3715-1.35h-1.3714v1.35c0 .74558-.614 1.35-1.3714 1.35s-1.3715-.60442-1.3715-1.35v-1.35h-8.22853v1.35c0 .74558-.61401 1.35-1.37143 1.35s-1.37143-.60442-1.37143-1.35zm16.45719 6.75h-19.20004v10.8c0 .7456.61399 1.35 1.37143 1.35h16.45711c.7575 0 1.3715-.6044 1.3715-1.35z" fill-rule="evenodd"/><path d="m7.71652 13.1172h-3.08572c-.42604 0-.77142.3454-.77142.7714v3.0857c0 .4261.34538.7715.77142.7715h3.08572c.42605 0 .77143-.3454.77143-.7715v-3.0857c0-.426-.34538-.7714-.77143-.7714z"/><path d="m13.8884 13.1172h-3.0857c-.4261 0-.7715.3454-.7715.7714v3.0857c0 .4261.3454.7715.7715.7715h3.0857c.426 0 .7714-.3454.7714-.7715v-3.0857c0-.426-.3454-.7714-.7714-.7714z"/><path d="m20.0564 13.1172h-3.0858c-.426 0-.7714.3454-.7714.7714v3.0857c0 .4261.3454.7715.7714.7715h3.0858c.426 0 .7714-.3454.7714-.7715v-3.0857c0-.426-.3454-.7714-.7714-.7714z"/></g></svg>