<svg width="44" height="44" viewBox="0 0 44 44" fill="none" xmlns="http://www.w3.org/2000/svg">
<g clip-path="url(#clip0_428_741)">
<path d="M0.00137634 7.31861C0.0577513 7.01886 0.103125 6.71636 0.171875 6.42073C0.490683 5.05448 1.25831 3.83455 2.35205 2.95592C3.4458 2.07728 4.80252 1.59067 6.20538 1.57386C6.75538 1.56653 7.30172 1.56653 7.84438 1.57386C8.05249 1.57185 8.25892 1.61127 8.45165 1.68982C8.64438 1.76836 8.81956 1.88447 8.96697 2.03138C9.11439 2.17828 9.2311 2.35305 9.31032 2.54551C9.38954 2.73796 9.42967 2.94425 9.42838 3.15237C9.42512 3.56885 9.25708 3.9671 8.96103 4.26005C8.66498 4.55301 8.265 4.71684 7.84851 4.71574C7.16101 4.72674 6.48175 4.68824 5.80938 4.76524C4.345 4.93574 3.18588 6.25849 3.146 7.73111C3.146 7.79849 3.146 7.86861 3.146 7.93323C3.146 17.8387 3.146 27.7447 3.146 37.6511C3.146 39.2035 4.14838 40.4644 5.64438 40.7875C5.87059 40.8337 6.101 40.8563 6.33188 40.8549C16.7764 40.8549 27.2213 40.8549 37.6668 40.8549C38.0871 40.8623 38.5046 40.7851 38.8944 40.6278C39.2843 40.4705 39.6385 40.2365 39.936 39.9394C40.2336 39.6425 40.4683 39.2886 40.6262 38.899C40.7842 38.5094 40.8621 38.0921 40.8554 37.6717C40.8554 27.7497 40.8554 17.8287 40.8554 7.90849C40.8632 7.48634 40.7858 7.06695 40.6277 6.67543C40.4697 6.28392 40.2342 5.92833 39.9355 5.62997C39.6367 5.3316 39.2808 5.0966 38.8891 4.93903C38.4974 4.78147 38.0779 4.70459 37.6558 4.71299C37.1621 4.71299 36.6685 4.71299 36.1749 4.71299C35.9649 4.71703 35.7561 4.67897 35.5611 4.60104C35.366 4.52311 35.1885 4.4069 35.0391 4.25926C34.8896 4.11161 34.7713 3.93554 34.691 3.74141C34.6107 3.54729 34.5701 3.33906 34.5716 3.12899C34.5725 2.92063 34.615 2.71455 34.6967 2.52289C34.7785 2.33123 34.8978 2.15789 35.0476 2.01307C35.1974 1.86826 35.3747 1.75492 35.569 1.67972C35.7633 1.60452 35.9707 1.56899 36.179 1.57524C37.0384 1.58624 37.906 1.55599 38.753 1.67286C41.3463 2.03036 43.516 4.22762 43.912 6.81537C43.9395 6.99824 43.9697 7.18112 44 7.36537V38.2094C43.9863 38.274 43.9684 38.3372 43.9588 38.4019C43.5779 41.0377 42.1341 42.8087 39.6248 43.6929C39.1724 43.8524 38.6815 43.9019 38.2071 44.0009H5.7915C5.73375 43.9885 5.676 43.9692 5.61825 43.9624C4.36479 43.8301 3.1803 43.3231 2.2193 42.5075C1.2583 41.692 0.565409 40.6057 0.231007 39.3905C0.125132 39.0041 0.075625 38.604 0 38.2094L0.00137634 7.31861Z" fill="white"/>
<path d="M26.1741 0.000799561C26.3034 0.0365496 26.4326 0.0681689 26.5591 0.106669C27.1002 0.274994 27.5627 0.632076 27.8625 1.11286C28.1624 1.59364 28.2795 2.16613 28.1926 2.72604C28.1091 3.26688 27.8385 3.76127 27.428 4.12309C27.0174 4.48491 26.4929 4.69121 25.9459 4.70605C23.2756 4.72071 20.6054 4.72071 17.9351 4.70605C17.3683 4.69228 16.8259 4.47299 16.4087 4.089C15.9916 3.70501 15.7283 3.18251 15.6678 2.6188C15.5619 1.36205 16.3456 0.281299 17.5446 0.0434242C17.5912 0.0307693 17.6371 0.0156202 17.6821 -0.00195312L26.1741 0.000799561Z" fill="white"/>
<path d="M25.6133 21.1801H35.8021C36.6271 21.1801 37.2005 21.6229 37.3778 22.3956C37.4348 22.6248 37.4386 22.8639 37.3891 23.0948C37.3396 23.3257 37.2381 23.5422 37.0922 23.7279C36.9463 23.9136 36.76 24.0635 36.5473 24.1662C36.3347 24.2689 36.1015 24.3217 35.8653 24.3206C29.0288 24.3206 22.1914 24.3206 15.3531 24.3206C14.9714 24.3271 14.6013 24.1889 14.3172 23.9339C14.0331 23.6789 13.856 23.3258 13.8213 22.9456C13.7656 22.5683 13.851 22.1836 14.0614 21.8654C14.2718 21.5472 14.5922 21.3179 14.9612 21.2214C15.1296 21.1881 15.3012 21.1747 15.4727 21.1815C18.8515 21.1797 22.2317 21.1792 25.6133 21.1801Z" fill="white"/>
<path d="M25.6122 11.752H35.8009C36.6259 11.752 37.1993 12.1948 37.3767 12.9675C37.4336 13.1967 37.4375 13.4358 37.388 13.6667C37.3385 13.8976 37.2369 14.1141 37.091 14.2998C36.9451 14.4855 36.7588 14.6354 36.5462 14.7381C36.3336 14.8408 36.1003 14.8936 35.8642 14.8925C29.0277 14.8925 22.1903 14.8925 15.3519 14.8925C14.9704 14.8986 14.6008 14.7603 14.3169 14.5053C14.0331 14.2503 13.8562 13.8975 13.8215 13.5175C13.7654 13.1403 13.8506 12.7557 14.0607 12.4374C14.2708 12.1192 14.5911 11.8898 14.9601 11.7933C15.129 11.7606 15.301 11.7473 15.4729 11.7534L25.6122 11.752Z" fill="white"/>
<path d="M25.5977 33.7036H15.3869C14.7214 33.7036 14.2305 33.4162 13.9569 32.8098C13.817 32.5294 13.7649 32.2133 13.8073 31.9028C13.8498 31.5922 13.9848 31.3017 14.1948 31.0691C14.3192 30.9135 14.4766 30.7876 14.6557 30.7003C14.8348 30.613 15.031 30.5666 15.2301 30.5645C15.2971 30.5645 15.3644 30.5645 15.4323 30.5645H35.7823C36.5853 30.5645 37.1573 30.9687 37.347 31.6782C37.622 32.6943 36.9345 33.7201 35.8043 33.7146C32.4053 33.6912 29.0008 33.7036 25.5977 33.7036Z" fill="white"/>
<path d="M8.24389 25.157C7.94229 25.1565 7.64375 25.0965 7.36535 24.9805C7.08695 24.8645 6.83415 24.6948 6.6214 24.481C6.40865 24.2672 6.24011 24.0136 6.12545 23.7347C6.01078 23.4557 5.95223 23.1569 5.95314 22.8553C5.95349 22.5535 6.01352 22.2547 6.12976 21.9762C6.246 21.6977 6.41618 21.4449 6.63048 21.2324C6.84478 21.0199 7.09899 20.8518 7.37847 20.7379C7.65796 20.624 7.95721 20.5665 8.25901 20.5687C8.86323 20.5755 9.44075 20.8186 9.86789 21.246C10.295 21.6734 10.5378 22.2511 10.5443 22.8553C10.5444 23.1575 10.4851 23.4568 10.3696 23.736C10.254 24.0153 10.0846 24.269 9.87098 24.4828C9.65735 24.6965 9.4037 24.8661 9.12451 24.9818C8.84533 25.0975 8.5461 25.157 8.24389 25.157Z" fill="white"/>
<path d="M8.23296 15.7273C7.93132 15.7258 7.63293 15.6648 7.35492 15.5478C7.07692 15.4307 6.82478 15.2599 6.61296 15.0451C6.40113 14.8304 6.23381 14.5759 6.12059 14.2963C6.00738 14.0167 5.9505 13.7175 5.95322 13.4159C5.95573 13.1142 6.01767 12.816 6.13548 12.5383C6.2533 12.2606 6.42468 12.0088 6.63985 11.7973C6.85501 11.5859 7.10972 11.4189 7.38945 11.3059C7.66917 11.1929 7.96842 11.1362 8.27009 11.1389C8.87533 11.1483 9.45273 11.3948 9.87804 11.8255C10.3034 12.2562 10.5426 12.8367 10.5443 13.442C10.5407 14.0515 10.2952 14.6346 9.86176 15.0632C9.42833 15.4917 8.84246 15.7306 8.23296 15.7273Z" fill="white"/>
<path d="M5.95143 32.2052C5.95495 31.9015 6.01893 31.6015 6.13967 31.3228C6.2604 31.0441 6.43546 30.7922 6.6546 30.5819C6.87375 30.3716 7.1326 30.207 7.41604 30.0979C7.69948 29.9887 8.00182 29.9371 8.30542 29.9461C8.91026 29.9648 9.48358 30.2202 9.90198 30.6573C10.3204 31.0945 10.5504 31.6785 10.5426 32.2836C10.5358 32.5871 10.469 32.8863 10.3459 33.1638C10.2228 33.4414 10.046 33.6918 9.82555 33.9006C9.60512 34.1094 9.3455 34.2724 9.06169 34.3803C8.77788 34.4881 8.47551 34.5386 8.17205 34.5289C7.57099 34.5106 7.00124 34.2566 6.58579 33.8219C6.17033 33.3871 5.94248 32.8065 5.95143 32.2052Z" fill="white"/>
</g>
<defs>
<clipPath id="clip0_428_741">
<rect width="44" height="44" fill="white"/>
</clipPath>
</defs>
</svg>
