<svg width="30" height="30" viewBox="0 0 30 30" fill="none" xmlns="http://www.w3.org/2000/svg">
<path fill-rule="evenodd" clip-rule="evenodd" d="M13.1644 4.3446C8.29552 4.3446 4.3485 8.29161 4.3485 13.1605C4.3485 18.0294 8.29552 21.9764 13.1644 21.9764C18.0333 21.9764 21.9803 18.0294 21.9803 13.1605C21.9803 8.29161 18.0333 4.3446 13.1644 4.3446ZM2.14453 13.1605C2.14453 7.07439 7.0783 2.14062 13.1644 2.14062C19.2505 2.14062 24.1842 7.07439 24.1842 13.1605C24.1842 19.2466 19.2505 24.1803 13.1644 24.1803C7.0783 24.1803 2.14453 19.2466 2.14453 13.1605Z" fill="#6C7AAB"/>
<path d="M21.2967 19.6602L27.5156 25.879C27.9686 26.332 27.9686 27.0665 27.5156 27.5195C27.0626 27.9725 26.3281 27.9725 25.8751 27.5195L19.6562 21.3006L21.2967 19.6602Z" fill="#6C7AAB"/>
</svg>
