<svg width="31" height="30" viewBox="0 0 31 30" fill="none" xmlns="http://www.w3.org/2000/svg">
<path fill-rule="evenodd" clip-rule="evenodd" d="M13.5467 5.20397C8.76605 5.20397 4.89058 9.15099 4.89058 14.0199C4.89058 18.8888 8.76605 22.8358 13.5467 22.8358C18.3273 22.8358 22.2028 18.8888 22.2028 14.0199C22.2028 9.15099 18.3273 5.20397 13.5467 5.20397ZM2.72656 14.0199C2.72656 7.93377 7.5709 3 13.5467 3C19.5225 3 24.3668 7.93377 24.3668 14.0199C24.3668 20.106 19.5225 25.0397 13.5467 25.0397C7.5709 25.0397 2.72656 20.106 2.72656 14.0199Z" fill="#6C7AAB"/>
<path d="M21.5326 20.5195L27.6388 26.7384C28.0836 27.1914 28.0836 27.9259 27.6388 28.3789C27.194 28.8319 26.4728 28.8319 26.028 28.3789L19.9219 22.16L21.5326 20.5195Z" fill="#6C7AAB"/>
</svg>
