<svg fill="none" height="36" viewBox="0 0 35 36" width="35" xmlns="http://www.w3.org/2000/svg"><path d="m32.7041 19.2735c-1.1175-.17-2.1099.5959-2.2701 1.688-.4025 2.7428-1.6684 5.2453-3.661 7.238-5.0715 5.0715-13.3174 5.0675-18.38689 0-5.06852-5.0696-5.06852-13.3184 0-18.3869 1.90659-1.90562 4.31359-3.1481 7.00739-3.6004 1.1584-.21985 2.4039-.25786 3.6962-.11142 1.7744.20424 3.4259.79297 4.9331 1.65736l-2.6044.4447c-1.088.18664-1.8208 1.22007-1.6332 2.30916.1661.9748 1.0121 1.6633 1.9693 1.6633.1114 0 .2246-.0088.3398-.0284l6.982-1.1936c.5215-.0899.9884-.3829 1.2953-.8166.3066-.43273.4279-.97004.3379-1.49356l-1.1957-6.98095c-.1837-1.088037-1.2035-1.816798-2.3091-1.6341575-1.0881.1866415-1.8208 1.2210675-1.6332 2.3101075l.3147 1.83741c-1.9362-1.08624-4.0721-1.78899-6.3414-2.05025-1.6996-.19345-3.3484-.13963-4.8575.14943-3.4744.58213-6.63126 2.21049-9.13001 4.70904-6.62847 6.62843-6.62847 17.41403 0 24.04433 3.31413 3.3151 7.66871 4.9719 12.02221 4.9719 4.3546 0 8.707-1.6566 12.0223-4.9719 2.6042-2.6042 4.2607-5.8841 4.7901-9.4845.1604-1.094-.5958-2.1101-1.6878-2.2701z" fill="#fff"/><path d="m32.7041 19.2735c-1.1175-.17-2.1099.5959-2.2701 1.688-.4025 2.7428-1.6684 5.2453-3.661 7.238-5.0715 5.0715-13.3174 5.0675-18.38689 0-5.06852-5.0696-5.06852-13.3184 0-18.3869 1.90659-1.90562 4.31359-3.1481 7.00739-3.6004 1.1584-.21985 2.4039-.25786 3.6962-.11142 1.7744.20424 3.4259.79297 4.9331 1.65736l-2.6044.4447c-1.088.18664-1.8208 1.22007-1.6332 2.30916.1661.9748 1.0121 1.6633 1.9693 1.6633.1114 0 .2246-.0088.3398-.0284l6.982-1.1936c.5215-.0899.9884-.3829 1.2953-.8166.3066-.43273.4279-.97004.3379-1.49356l-1.1957-6.98095c-.1837-1.088037-1.2035-1.816798-2.3091-1.6341575-1.0881.1866415-1.8208 1.2210675-1.6332 2.3101075l.3147 1.83741c-1.9362-1.08624-4.0721-1.78899-6.3414-2.05025-1.6996-.19345-3.3484-.13963-4.8575.14943-3.4744.58213-6.63126 2.21049-9.13001 4.70904-6.62847 6.62843-6.62847 17.41403 0 24.04433 3.31413 3.3151 7.66871 4.9719 12.02221 4.9719 4.3546 0 8.707-1.6566 12.0223-4.9719 2.6042-2.6042 4.2607-5.8841 4.7901-9.4845.1604-1.094-.5958-2.1101-1.6878-2.2701z" fill="#35c0ff"/></svg>