<svg fill="none" height="30" viewBox="0 0 31 30" width="31" xmlns="http://www.w3.org/2000/svg"><g fill="#6c7aab"><path clip-rule="evenodd" d="m13.5467 5.20397c-4.78065 0-8.65612 3.94702-8.65612 8.81593 0 4.8689 3.87547 8.8159 8.65612 8.8159 4.7806 0 8.6561-3.947 8.6561-8.8159 0-4.86891-3.8755-8.81593-8.6561-8.81593zm-10.82014 8.81593c0-6.08613 4.84434-11.0199 10.82014-11.0199s10.8201 4.93377 10.8201 11.0199c0 6.0861-4.8443 11.0198-10.8201 11.0198s-10.82014-4.9337-10.82014-11.0198z" fill-rule="evenodd"/><path d="m21.5326 20.5195 6.1062 6.2189c.4448.453.4448 1.1875 0 1.6405s-1.166.453-1.6108 0l-6.1061-6.2189z"/></g></svg>