<svg fill="none" height="23" viewBox="0 0 23 23" width="23" xmlns="http://www.w3.org/2000/svg"><path d="m9.46626 17.2775c1.26504.0012 2.50884-.3257 3.60984-.9487l3.0543 3.0543c.3721.3721.8768.5812 1.403.5812s1.0309-.2091 1.4029-.5812c.3721-.3721.5812-.8767.5812-1.4029s-.2091-1.0309-.5812-1.403l-3.0543-3.0543c.8735-1.5507 1.1556-3.3653.7943-5.108s-1.3416-3.29555-2.7595-4.37119c-1.418-1.07564-3.1775-1.60126-4.95313-1.4796-1.77559.12166-3.44702.88237-4.705 2.14136-1.02998 1.02994-1.73141 2.34218-2.01559 3.77078-.28417 1.4286-.13833 2.90935.41909 4.25505.55741 1.3458 1.50137 2.4959 2.71249 3.3052 1.21112.8092 2.63501 1.2411 4.0916 1.241zm-3.91142-11.27587c.90488-.90446 2.09536-1.46721 3.36862-1.59236 1.27324-.12514 2.55054.19504 3.61414.90602 1.0637.71097 1.8479 1.76875 2.2192 2.9931.3712 1.22436.3064 2.53951-.1833 3.72151-.4898 1.182-1.3742 2.1575-2.5025 2.7606-1.1284.603-2.43095.7961-3.68575.5464-1.2548-.2496-2.38422-.9266-3.19584-1.9156s-1.25523-2.2289-1.25524-3.50825c-.00222-.72679.1399-1.44679.4181-2.11823.27821-.67144.68697-1.28095 1.20257-1.79319z" fill="#44baed"/></svg>