<svg width="45" height="45" viewBox="0 0 45 45" fill="none" xmlns="http://www.w3.org/2000/svg">
<path d="M20.7822 34.8964C28.8582 34.8964 35.4051 28.3368 35.4051 20.2451C35.4051 12.1534 28.8582 5.59375 20.7822 5.59375C12.7061 5.59375 6.15918 12.1534 6.15918 20.2451C6.15918 28.3368 12.7061 34.8964 20.7822 34.8964Z" stroke="white" stroke-width="2" stroke-linecap="round" stroke-linejoin="round"/>
<path d="M20.7822 34.8964C28.8582 34.8964 35.4051 28.3368 35.4051 20.2451C35.4051 12.1534 28.8582 5.59375 20.7822 5.59375C12.7061 5.59375 6.15918 12.1534 6.15918 20.2451C6.15918 28.3368 12.7061 34.8964 20.7822 34.8964Z" stroke="#35C0FF" stroke-width="2" stroke-linecap="round" stroke-linejoin="round"/>
<path d="M39.0606 38.5604L31.1094 30.5938" stroke="white" stroke-width="2" stroke-linecap="round" stroke-linejoin="round"/>
<path d="M39.0606 38.5604L31.1094 30.5938" stroke="#35C0FF" stroke-width="2" stroke-linecap="round" stroke-linejoin="round"/>
</svg>
