<svg width="24" height="24" viewBox="0 0 24 24" fill="none" xmlns="http://www.w3.org/2000/svg">
<path fill-rule="evenodd" clip-rule="evenodd" d="M10.5346 3.47411C6.63954 3.47411 3.48193 6.63173 3.48193 10.5268C3.48193 14.4219 6.63954 17.5796 10.5346 17.5796C14.4297 17.5796 17.5874 14.4219 17.5874 10.5268C17.5874 6.63173 14.4297 3.47411 10.5346 3.47411ZM1.71875 10.5268C1.71875 5.65795 5.66576 1.71094 10.5346 1.71094C15.4035 1.71094 19.3505 5.65795 19.3505 10.5268C19.3505 15.3957 15.4035 19.3427 10.5346 19.3427C5.66576 19.3427 1.71875 15.3957 1.71875 10.5268Z" fill="currentColor"/>
<path d="M17.0389 15.7266L22.014 20.7017C22.3764 21.0641 22.3764 21.6516 22.014 22.014C21.6516 22.3764 21.0641 22.3764 20.7017 22.014L15.7266 17.0389L17.0389 15.7266Z" fill="currentColor"/>
</svg>
