<svg width="30" height="27" viewBox="0 0 30 27" fill="none" xmlns="http://www.w3.org/2000/svg">
<path d="M12.6314 26.8655C12.6272 26.8655 12.6223 26.8655 12.6181 26.8655C12.4446 26.862 12.2809 26.7878 12.1634 26.6605L0.167929 13.617C-0.0377559 13.3931 -0.0566453 13.0559 0.123154 12.8104C0.302953 12.5655 0.630369 12.4816 0.906015 12.6103L11.885 17.751C11.9773 17.7944 12.0864 17.7734 12.1571 17.6999L28.9043 0.196448C29.131 -0.0407191 29.5018 -0.0666046 29.7592 0.137681C30.0167 0.341966 30.0762 0.708561 29.8964 0.983507L13.2373 26.5038C13.2135 26.5409 13.1855 26.5745 13.1547 26.6059L13.0813 26.6794C12.9617 26.7983 12.7993 26.8655 12.6314 26.8655Z" fill="#4098D8"/>
</svg>
