<svg fill="none" height="60" viewBox="0 0 60 60" width="60" xmlns="http://www.w3.org/2000/svg"><path d="m50.25 23.0535c-4.525 0-6.375-3.2-4.125-7.125 1.3-2.275.525-5.175-1.75-6.475l-4.325-2.475c-1.975-1.175-4.525-.475-5.7 1.5l-.275.475c-2.25 3.925-5.95 3.925-8.225 0l-.275-.475c-1.125-1.975-3.675-2.675-5.65-1.5l-4.325 2.475c-2.275 1.3-3.05 4.225-1.75 6.5 2.275 3.9.425 7.1-4.1 7.1-2.6 0-4.75 2.125-4.75 4.75v4.4c0 2.6 2.125 4.75 4.75 4.75 4.525 0 6.375 3.2 4.1 7.125-1.3 2.275-.525 5.175 1.75 6.475l4.325 2.475c1.975 1.175 4.525.475 5.7-1.5l.275-.475c2.25-3.925 5.95-3.925 8.225 0l.275.475c1.175 1.975 3.725 2.675 5.7 1.5l4.325-2.475c2.275-1.3 3.05-4.225 1.75-6.475-2.275-3.925-.425-7.125 4.1-7.125 2.6 0 4.75-2.125 4.75-4.75v-4.4c-.025-2.6-2.15-4.75-4.775-4.75zm-20.25 15.075c-4.475 0-8.125-3.65-8.125-8.125s3.65-8.125 8.125-8.125 8.125 3.65 8.125 8.125-3.65 8.125-8.125 8.125z" fill="#4098d8"/></svg>