<svg width="60" height="60" viewBox="0 0 60 60" fill="none" xmlns="http://www.w3.org/2000/svg">
<path d="M50.25 23.0535C45.725 23.0535 43.875 19.8535 46.125 15.9285C47.425 13.6535 46.65 10.7535 44.375 9.4535L40.05 6.9785C38.075 5.8035 35.525 6.5035 34.35 8.4785L34.075 8.9535C31.825 12.8785 28.125 12.8785 25.85 8.9535L25.575 8.4785C24.45 6.5035 21.9 5.8035 19.925 6.9785L15.6 9.4535C13.325 10.7535 12.55 13.6785 13.85 15.9535C16.125 19.8535 14.275 23.0535 9.75 23.0535C7.15 23.0535 5 25.1785 5 27.8035V32.2035C5 34.8035 7.125 36.9535 9.75 36.9535C14.275 36.9535 16.125 40.1535 13.85 44.0785C12.55 46.3535 13.325 49.2535 15.6 50.5535L19.925 53.0285C21.9 54.2035 24.45 53.5035 25.625 51.5285L25.9 51.0535C28.15 47.1285 31.85 47.1285 34.125 51.0535L34.4 51.5285C35.575 53.5035 38.125 54.2035 40.1 53.0285L44.425 50.5535C46.7 49.2535 47.475 46.3285 46.175 44.0785C43.9 40.1535 45.75 36.9535 50.275 36.9535C52.875 36.9535 55.025 34.8285 55.025 32.2035V27.8035C55 25.2035 52.875 23.0535 50.25 23.0535ZM30 38.1285C25.525 38.1285 21.875 34.4785 21.875 30.0035C21.875 25.5285 25.525 21.8785 30 21.8785C34.475 21.8785 38.125 25.5285 38.125 30.0035C38.125 34.4785 34.475 38.1285 30 38.1285Z" fill="#4098D8"/>
</svg>
