<svg width="34" height="34" viewBox="0 0 34 34" fill="none" xmlns="http://www.w3.org/2000/svg">
<path d="M2.83398 16.9974L1.66268 16.0604L0.913047 16.9974L1.66268 17.9344L2.83398 16.9974ZM15.584 18.4974C16.4124 18.4974 17.084 17.8258 17.084 16.9974C17.084 16.169 16.4124 15.4974 15.584 15.4974V18.4974ZM7.32935 8.97702L1.66268 16.0604L4.00529 17.9344L9.67195 10.8511L7.32935 8.97702ZM1.66268 17.9344L7.32935 25.0178L9.67195 23.1437L4.00529 16.0604L1.66268 17.9344ZM2.83398 18.4974H15.584V15.4974H2.83398V18.4974Z" fill="#6C7AAB"/>
<path d="M14.166 11.5228V9.05778C14.166 7.43944 14.166 6.63027 14.64 6.07078C15.1139 5.51128 15.9121 5.37826 17.5084 5.1122L24.1796 4.00034C27.4227 3.45982 29.0443 3.18956 30.1051 4.08826C31.166 4.98696 31.166 6.63087 31.166 9.9187V24.0865C31.166 27.3743 31.166 29.0183 30.1051 29.9169C29.0443 30.8156 27.4227 30.5454 24.1796 30.0049L17.5084 28.893C15.9121 28.627 15.1139 28.4939 14.64 27.9344C14.166 27.3749 14.166 26.5658 14.166 24.9474V22.7627" stroke="#6C7AAB" stroke-width="3"/>
</svg>
