<svg width="20" height="19" viewBox="0 0 20 19" fill="none" xmlns="http://www.w3.org/2000/svg">
<path id="Vector" d="M0.234375 10.0574V8.94437C0.248592 8.88569 0.259387 8.82623 0.266705 8.7663C0.3244 7.91528 0.502182 7.07671 0.794762 6.27553C1.59452 4.06693 3.18253 2.23226 5.25319 1.12456C7.32385 0.0168577 9.73086 -0.285599 12.011 0.275386C16.891 1.46835 20.0192 6.35174 19.0623 11.2823C18.6944 13.1731 17.8375 14.8088 16.4841 16.175C15.0649 17.6081 13.36 18.5104 11.3678 18.8535C11.0099 18.9152 10.648 18.9517 10.2875 19H9.17492C8.92408 18.9699 8.67287 18.9446 8.42315 18.9093C6.55061 18.6442 4.8951 17.8966 3.47778 16.6446C1.80851 15.1702 0.765032 13.3359 0.380417 11.1355C0.317987 10.7786 0.282313 10.4169 0.234375 10.0574ZM10.2875 4.95245C10.2875 5.37923 10.2823 5.80749 10.2927 6.23241C10.295 6.27527 10.3058 6.31725 10.3244 6.35593C10.343 6.3946 10.3691 6.42918 10.4012 6.45769C11.1561 7.01681 11.9157 7.56999 12.6799 8.11721C12.7141 8.13693 12.752 8.14912 12.7912 8.15297C12.8305 8.15682 12.8701 8.15223 12.9074 8.13951C13.6426 7.83468 14.3751 7.5229 15.1047 7.20418C15.1788 7.16888 15.2368 7.10686 15.2671 7.03057C15.5688 6.12274 15.8643 5.21293 16.1534 4.30113C16.1631 4.26276 16.1645 4.22277 16.1576 4.1838C16.1507 4.14483 16.1356 4.10778 16.1132 4.07511C15.257 3.05937 14.1708 2.26269 12.9449 1.75126C12.8386 1.70628 12.7669 1.72115 12.6773 1.78658C11.9247 2.33702 11.17 2.88474 10.4131 3.42974C10.315 3.5 10.2838 3.57472 10.2857 3.68997C10.2916 4.11154 10.2875 4.53199 10.2875 4.95245ZM9.17492 4.95766C9.17492 4.52493 9.17975 4.09221 9.17008 3.65985C9.16733 3.61977 9.15664 3.58063 9.13865 3.5447C9.12067 3.50877 9.09573 3.47677 9.06529 3.45055C8.30461 2.8892 7.53761 2.33529 6.77581 1.77765C6.68922 1.71445 6.62159 1.71111 6.5246 1.752C5.29949 2.26357 4.21342 3.05904 3.35589 4.07288C3.33289 4.10468 3.31688 4.14101 3.30894 4.17946C3.301 4.21791 3.30129 4.2576 3.30981 4.29593C3.59793 5.20772 3.89274 6.11741 4.19424 7.02499C4.224 7.1014 4.28146 7.16379 4.35515 7.19972C5.08462 7.51794 5.81892 7.82538 6.54764 8.14175C6.64649 8.1845 6.71301 8.17186 6.79699 8.11052C7.54913 7.55883 8.3061 7.01384 9.056 6.45881C9.08838 6.43083 9.11491 6.39672 9.13404 6.35843C9.15318 6.32015 9.16454 6.27845 9.16749 6.23575C9.18049 5.81232 9.17492 5.38443 9.17492 4.95766ZM4.22694 14.0069C4.69034 14.0069 5.15374 14.0032 5.61676 14.0092C5.6711 14.0133 5.72561 14.0035 5.7751 13.9807C5.82459 13.9578 5.86743 13.9227 5.89956 13.8787C6.31947 13.36 6.7441 12.8453 7.17343 12.3348C7.24775 12.247 7.2537 12.1734 7.21877 12.0671C6.9252 11.1768 6.64092 10.2827 6.34437 9.39382C6.31125 9.30608 6.24621 9.23411 6.16228 9.19233C5.4395 8.87522 4.71115 8.57075 3.98614 8.25736C3.89138 8.21647 3.82337 8.22019 3.73679 8.2819C2.98986 8.82987 2.24044 9.37437 1.48856 9.9154C1.39565 9.98194 1.36853 10.0496 1.37707 10.1611C1.4759 11.4844 1.8954 12.7637 2.5993 13.8884C2.63646 13.9493 2.74274 13.9999 2.8178 14.0017C3.28751 14.0118 3.75723 14.0069 4.22694 14.0069ZM15.2388 14.0069C15.7085 14.0069 16.1779 14.011 16.6472 14.0021C16.719 14.0021 16.82 13.9579 16.8553 13.9014C17.5696 12.7684 17.9903 11.4753 18.0794 10.1388C18.0789 10.0991 18.0699 10.06 18.053 10.024C18.0362 9.98804 18.0118 9.95609 17.9817 9.93026C17.2318 9.37635 16.4774 8.82813 15.7186 8.28562C15.6851 8.26515 15.6476 8.25205 15.6087 8.24718C15.5697 8.24231 15.5302 8.24578 15.4926 8.25736C14.7519 8.56493 14.0143 8.87919 13.2797 9.20014C13.211 9.2333 13.1572 9.29099 13.1288 9.36185C12.8278 10.2692 12.5325 11.1785 12.2429 12.0898C12.2336 12.1287 12.2325 12.1692 12.2397 12.2086C12.247 12.2479 12.2624 12.2854 12.2849 12.3184C12.7113 12.8478 13.1441 13.3716 13.5833 13.8898C13.6487 13.9568 13.737 13.9966 13.8304 14.0014C14.2998 14.0125 14.7691 14.0069 15.2388 14.0069ZM9.73456 12.8917C9.2589 12.8917 8.78324 12.8868 8.30758 12.8965C8.21961 12.8994 8.13605 12.9357 8.07384 12.998C7.63088 13.5212 7.19449 14.0501 6.76466 14.5847C6.74243 14.6175 6.72734 14.6547 6.72036 14.6937C6.71338 14.7328 6.71468 14.7729 6.72416 14.8114C7.00608 15.7056 7.29482 16.5978 7.59038 17.4881C7.60528 17.5248 7.62783 17.558 7.65654 17.5854C7.68524 17.6127 7.71944 17.6337 7.75686 17.6468C9.05145 17.9667 10.4043 17.9675 11.6993 17.649C11.737 17.6369 11.7718 17.6168 11.8012 17.5901C11.8306 17.5635 11.854 17.5308 11.8698 17.4944C12.1671 16.5987 12.4577 15.701 12.7416 14.8014C12.7504 14.7655 12.7514 14.7281 12.7446 14.6917C12.7378 14.6554 12.7234 14.6209 12.7022 14.5906C12.2719 14.0568 11.8355 13.5279 11.3931 13.0039C11.3322 12.9402 11.2495 12.9021 11.1615 12.8973C10.6863 12.8854 10.2102 12.8902 9.73456 12.8902V12.8917Z" fill="currentColor"/>
</svg>
