<svg width="22" height="21" viewBox="0 0 22 21" fill="none" xmlns="http://www.w3.org/2000/svg">
<path fill-rule="evenodd" clip-rule="evenodd" d="M16.9655 2.46346C17.2178 2.58406 17.3785 2.83957 17.3785 3.12009L17.3786 8.34541C17.5832 8.22157 17.8444 8.20178 18.0744 8.3159C18.4328 8.4937 18.7345 8.76859 18.9455 9.1095C19.1564 9.4504 19.2682 9.84374 19.2681 10.2451C19.268 10.6464 19.1561 11.0397 18.945 11.3805C18.7339 11.7213 18.432 11.996 18.0736 12.1737C17.8438 12.2875 17.583 12.2679 17.3787 12.1444L17.3788 17.1233C17.3788 17.4027 17.2193 17.6575 16.9684 17.7786C16.7175 17.8998 16.4197 17.8659 16.2021 17.6916L11.7365 14.1115H8.45217C8.53638 14.2303 8.5859 14.3757 8.5859 14.5326V17.0959C8.5859 17.4399 8.44978 17.7698 8.20749 18.013C7.9652 18.2562 7.63658 18.3928 7.29393 18.3928H6.159C5.81635 18.3928 5.48773 18.2562 5.24544 18.013C5.00314 17.7698 4.86703 17.4399 4.86703 17.0959V14.5326C4.86703 14.3757 4.91654 14.2303 5.00075 14.1115H3.84377L3.84137 14.1115C3.42453 14.1101 3.02516 13.9433 2.73041 13.6474C2.43565 13.3515 2.26945 12.9506 2.26807 12.5322L2.26807 12.5298V7.77326C2.26945 7.35483 2.43565 6.95394 2.73041 6.65806C3.02516 6.36219 3.42453 6.19535 3.84137 6.19396L3.84377 6.19395L11.7335 6.19396L16.1973 2.55552C16.4142 2.37869 16.7131 2.34287 16.9655 2.46346ZM6.31635 12.657H11.9903C12.1546 12.657 12.314 12.713 12.4424 12.8159L15.9297 15.6117L15.9295 4.64746L12.4473 7.48582C12.3181 7.59106 12.1569 7.6485 11.9906 7.6485H6.31635V12.657ZM4.86733 7.6485H3.84552C3.81156 7.64879 3.77905 7.66246 3.75502 7.68658C3.73099 7.7107 3.71737 7.74332 3.71709 7.77741V12.5281C3.71737 12.5621 3.73099 12.5948 3.75502 12.6189C3.77904 12.643 3.81153 12.6567 3.84548 12.657H4.86733V7.6485ZM17.3787 10.8987C17.3959 10.8883 17.4138 10.8785 17.4322 10.8694C17.5483 10.8119 17.646 10.7229 17.7144 10.6125C17.7828 10.5021 17.819 10.3747 17.819 10.2447C17.8191 10.1148 17.7829 9.98736 17.7146 9.87694C17.6462 9.76652 17.5485 9.67749 17.4324 9.6199C17.4139 9.61072 17.396 9.60085 17.3786 9.59035L17.3787 10.8987ZM6.31604 15.2599V16.9383H7.13688V15.2599H6.31604Z" fill="#6C7AAB"/>
</svg>
