<svg fill="none" height="21" viewBox="0 0 22 21" width="22" xmlns="http://www.w3.org/2000/svg"><path clip-rule="evenodd" d="m16.9655 2.46346c.2523.1206.413.37611.413.65663l.0001 5.22532c.2046-.12384.4658-.14363.6958-.02951.3584.1778.6601.45269.8711.7936.2109.3409.3227.73424.3226 1.1356-.0001.4013-.112.7946-.3231 1.1354s-.513.6155-.8714.7932c-.2298.1138-.4906.0942-.6949-.0293l.0001 4.9789c0 .2794-.1595.5342-.4104.6553-.2509.1212-.5487.0873-.7663-.087l-4.4656-3.5801h-3.28433c.08421.1188.13373.2642.13373.4211v2.5633c0 .344-.13612.6739-.37841.9171s-.57091.3798-.91356.3798h-1.13493c-.34265 0-.67127-.1366-.91356-.3798-.2423-.2432-.37841-.5731-.37841-.9171v-2.5633c0-.1569.04951-.3023.13372-.4211h-1.15698-.0024c-.41684-.0014-.81621-.1682-1.11096-.4641-.29476-.2959-.46096-.6968-.46234-1.1152v-.0024-4.75654c.00138-.41843.16758-.81932.46234-1.1152.29475-.29587.69412-.46271 1.11096-.4641l.0024-.00001 7.88973.00001 4.4638-3.63844c.2169-.17683.5158-.21265.7682-.09206zm-10.64915 10.19354h5.67395c.1643 0 .3237.056.4521.1589l3.4873 2.7958-.0002-10.96424-3.4822 2.83836c-.1292.10524-.2904.16268-.4567.16268h-5.67425zm-1.44902-5.0085h-1.02181c-.03396.00029-.06647.01396-.0905.03808s-.03765.05674-.03793.09083v4.75069c.00028.034.0139.0667.03793.0908.02402.0241.05651.0378.09046.0381h1.02185zm12.51137 3.2502c.0172-.0104.0351-.0202.0535-.0293.1161-.0575.2138-.1465.2822-.2569s.1046-.2378.1046-.3678c.0001-.1299-.0361-.25734-.1044-.36776-.0684-.11042-.1661-.19945-.2822-.25704-.0185-.00918-.0364-.01905-.0538-.02955zm-11.06266 4.3612v1.6784h.82084v-1.6784z" fill="#6c7aab" fill-rule="evenodd"/></svg>