<svg xmlns="http://www.w3.org/2000/svg" width="21" height="16" viewBox="0 0 21 16" fill="">
  <path d="M17.2427 15.5887C17.4285 15.5887 17.6139 15.5192 17.7576 15.3792C18.7034 14.4588 19.4467 13.3803 19.9677 12.1735C20.5076 10.9236 20.7812 9.59437 20.7812 8.22394C20.7812 6.8535 20.5076 5.52431 19.9681 4.27437C19.4472 3.06753 18.7039 1.98907 17.7581 1.06865C17.465 0.783626 16.9968 0.790577 16.712 1.08441C16.4277 1.37824 16.4347 1.84772 16.7277 2.13321C18.3877 3.74835 19.302 5.91176 19.302 8.22394C19.302 10.5361 18.3877 12.6995 16.7277 14.3151C16.4347 14.6006 16.4277 15.0696 16.712 15.3639C16.8572 15.5136 17.0499 15.5887 17.2427 15.5887Z" fill=""/>
  <path d="M13.2726 12.5719C13.415 12.5719 13.5587 12.5306 13.6858 12.4449C15.0957 11.4906 15.9375 9.90376 15.9375 8.2001C15.9375 6.49644 15.0957 4.90957 13.6858 3.95531C13.3475 3.7259 12.8875 3.81535 12.6592 4.15506C12.4308 4.49477 12.5196 4.95545 12.8584 5.18439C13.8601 5.86243 14.4583 6.99002 14.4583 8.2001C14.4583 9.41018 13.8601 10.5373 12.8584 11.2158C12.52 11.4447 12.4308 11.9059 12.6592 12.2451C12.802 12.4574 13.0355 12.5719 13.2726 12.5719Z" fill=""/>
  <path d="M3.76103 4.8825L8.83475 1.94558C9.45002 1.58965 10.2188 2.03457 10.2188 2.74643V13.7433C10.2188 14.4552 9.45002 14.9001 8.83522 14.5442L3.76149 11.6072V4.8825H3.76103Z" fill=""/>
  <path d="M0.473108 4.86719H2.71875V11.6012H0.473108V4.86719Z" fill=""/>
</svg>