<svg width="50" height="50" viewBox="0 0 50 50" fill="none" xmlns="http://www.w3.org/2000/svg">
<path d="M28.6032 7.3125L32.2699 14.6458C32.7699 15.6667 34.1032 16.6458 35.2282 16.8333L41.8741 17.9375C46.1241 18.6458 47.1241 21.7292 44.0616 24.7708L38.8949 29.9375C38.0199 30.8125 37.5407 32.5 37.8116 33.7083L39.2907 40.1042C40.4574 45.1667 37.7699 47.125 33.2907 44.4792L27.0616 40.7917C25.9366 40.125 24.0824 40.125 22.9366 40.7917L16.7074 44.4792C12.2491 47.125 9.54074 45.1458 10.7074 40.1042L12.1866 33.7083C12.4574 32.5 11.9782 30.8125 11.1032 29.9375L5.93658 24.7708C2.89491 21.7292 3.87408 18.6458 8.12408 17.9375L14.7699 16.8333C15.8741 16.6458 17.2074 15.6667 17.7074 14.6458L21.3741 7.3125C23.3741 3.33333 26.6241 3.33333 28.6032 7.3125Z" fill="#D40000"/>
</svg>
