<svg xmlns="http://www.w3.org/2000/svg" width="11" height="10" viewBox="0 0 11 10" fill="none">
  <path fill-rule="evenodd" clip-rule="evenodd" d="M4.99927 0.33208C5.18318 -0.110693 5.80839 -0.110693 5.99231 0.33208L6.96103 2.66451C7.03917 2.85273 7.22248 2.97534 7.42573 2.97534H9.97318C10.4416 2.97534 10.6762 3.54349 10.3449 3.87577L8.2846 5.94279C8.15531 6.0725 8.10632 6.26231 8.15651 6.43869L8.97359 9.3077C9.11154 9.79214 8.57313 10.1865 8.15526 9.90699L5.77506 8.31503C5.60595 8.20194 5.38563 8.20194 5.21651 8.31508L2.84027 9.90437C2.42108 10.1847 1.88088 9.78911 2.01929 9.30315L2.83506 6.43869C2.88529 6.26231 2.83625 6.0725 2.70697 5.94279L0.656802 3.88598C0.321839 3.54993 0.559074 2.97534 1.03279 2.97534H3.56583C3.76908 2.97534 3.9524 2.85273 4.03057 2.66451L4.99927 0.33208Z" fill=""/>
</svg>