<svg width="50" height="50" viewBox="0 0 50 50" fill="none" xmlns="http://www.w3.org/2000/svg">
<path d="M38.9577 30.1223C38.2285 30.8515 37.8118 32.3098 38.041 33.3098L39.4785 39.6015C40.0827 42.2057 39.7077 44.164 38.416 45.1015C37.8952 45.4765 37.2702 45.664 36.541 45.664C35.4785 45.664 34.2285 45.2682 32.8535 44.4557L26.7493 40.8307C25.791 40.2682 24.2077 40.2682 23.2493 40.8307L17.1452 44.4557C14.8327 45.8098 12.8535 46.039 11.5827 45.1015C11.4993 45.039 11.416 44.9765 11.3535 44.8932L37.6452 18.6015C38.6035 17.6432 39.9577 17.2057 41.291 17.4348L41.6035 17.4973C43.8118 17.8723 45.291 18.8723 45.7702 20.3307C46.2285 21.789 45.6035 23.4765 44.0202 25.0598L38.9577 30.1223Z" fill="#D40000"/>
<path d="M11.9578 33.3307C12.187 32.3307 11.7703 30.8516 11.0412 30.1224L5.97867 25.0599C4.39534 23.4766 3.77034 21.7891 4.22867 20.3307C4.70784 18.8724 6.187 17.8724 8.39534 17.4974L14.8953 16.4141C15.8328 16.2474 16.9787 15.4141 17.4162 14.5599L20.9995 7.3724C22.0412 5.3099 23.4578 4.16406 24.9995 4.16406C26.5412 4.16406 27.9578 5.3099 28.9995 7.3724L32.5828 14.5599C32.8537 15.1016 33.4162 15.6224 34.0203 15.9766L10.562 39.4349L11.9578 33.3307Z" fill="#D40000"/>
<path d="M45.3548 4.64844C44.7298 4.02344 43.709 4.02344 43.084 4.64844L4.64648 43.1068C4.02148 43.7318 4.02148 44.7526 4.64648 45.3776C4.95898 45.6693 5.35482 45.8359 5.77148 45.8359C6.18815 45.8359 6.58398 45.6693 6.89648 45.3568L45.3548 6.89844C46.0007 6.27344 46.0007 5.27344 45.3548 4.64844Z" fill="#D40000"/>
</svg>
