<svg fill="none" height="56" viewBox="0 0 56 56" width="56" xmlns="http://www.w3.org/2000/svg"><g fill="#4098d8"><path d="m22.6307 26.3649c-.9333-.9334-2.3333-.9334-3.2666 0-.9334.9333-.9334 2.3333 0 3.2666l7 7c.4666.4667.9333.7 1.6333.7s1.1667-.2333 1.6333-.7l16.3334-18.6666c.7-.9334.7-2.5667-.4667-3.2667-.9333-.7-2.3333-.7-3.0333.2333l-14.4667 16.5667z"/><path d="m49.0023 25.668c-1.4 0-2.3334.9333-2.3334 2.3333 0 10.2667-8.4 18.6667-18.6666 18.6667-10.2667 0-18.66671-8.4-18.66671-18.6667 0-4.9 1.86671-9.5667 5.36671-13.0667 3.5-3.7333 8.4-5.59996 13.3-5.59996 1.4 0 3.0333.23333 4.4333.46666 1.1667.4667 2.5667-.23333 3.0333-1.63333.4667-1.4-.4666-2.33333-1.6333-2.8h-.2333c-1.8667-.46667-3.7334-.7-5.6-.7-12.8334 0-23.33338 10.50003-23.10005 23.56663 0 6.0667 2.56667 12.1334 6.76665 16.3334 4.4334 4.4333 10.2667 6.7666 16.3334 6.7666 12.8333 0 23.3333-10.5 23.3333-23.3333 0-1.4-.9333-2.3333-2.3333-2.3333z"/></g></svg>