<svg width="72" height="70" viewBox="0 0 72 70" fill="none" xmlns="http://www.w3.org/2000/svg">
<g filter="url(#filter0_ddd_1090_32954)">
<path fill-rule="evenodd" clip-rule="evenodd" d="M35.8824 64C52.9383 64 66.7647 50.5687 66.7647 34C66.7647 27.8887 64.8836 22.2041 61.653 17.463L37.1005 43.9643C34.7239 46.5297 30.7243 46.9087 27.8819 44.8377L16.6667 36.6667C15.1506 35.562 14.8433 33.4727 15.9804 32C17.1174 30.5273 19.2682 30.2287 20.7843 31.3333L31.9994 39.5043L57.2049 12.2985C51.6619 7.15723 44.1516 4 35.8824 4C18.8265 4 5 17.4315 5 34C5 50.5687 18.8265 64 35.8824 64Z" fill="#00B31D"/>
</g>
<defs>
<filter id="filter0_ddd_1090_32954" x="0" y="0" width="71.7656" height="70" filterUnits="userSpaceOnUse" color-interpolation-filters="sRGB">
<feFlood flood-opacity="0" result="BackgroundImageFix"/>
<feColorMatrix in="SourceAlpha" type="matrix" values="0 0 0 0 0 0 0 0 0 0 0 0 0 0 0 0 0 0 127 0" result="hardAlpha"/>
<feOffset dy="1"/>
<feGaussianBlur stdDeviation="2.5"/>
<feComposite in2="hardAlpha" operator="out"/>
<feColorMatrix type="matrix" values="0 0 0 0 0 0 0 0 0 0.4 0 0 0 0 1 0 0 0 0.34 0"/>
<feBlend mode="normal" in2="BackgroundImageFix" result="effect1_dropShadow_1090_32954"/>
<feColorMatrix in="SourceAlpha" type="matrix" values="0 0 0 0 0 0 0 0 0 0 0 0 0 0 0 0 0 0 127 0" result="hardAlpha"/>
<feOffset/>
<feGaussianBlur stdDeviation="1.5"/>
<feComposite in2="hardAlpha" operator="out"/>
<feColorMatrix type="matrix" values="0 0 0 0 1 0 0 0 0 1 0 0 0 0 1 0 0 0 1 0"/>
<feBlend mode="normal" in2="effect1_dropShadow_1090_32954" result="effect2_dropShadow_1090_32954"/>
<feColorMatrix in="SourceAlpha" type="matrix" values="0 0 0 0 0 0 0 0 0 0 0 0 0 0 0 0 0 0 127 0" result="hardAlpha"/>
<feOffset dy="2"/>
<feGaussianBlur stdDeviation="1"/>
<feComposite in2="hardAlpha" operator="out"/>
<feColorMatrix type="matrix" values="0 0 0 0 1 0 0 0 0 1 0 0 0 0 1 0 0 0 1 0"/>
<feBlend mode="normal" in2="effect2_dropShadow_1090_32954" result="effect3_dropShadow_1090_32954"/>
<feBlend mode="normal" in="SourceGraphic" in2="effect3_dropShadow_1090_32954" result="shape"/>
</filter>
</defs>
</svg>
