<svg width="18" height="18" viewBox="0 0 18 18" fill="none" xmlns="http://www.w3.org/2000/svg">
<g clip-path="url(#clip0_16227_1290)">
<path d="M9.00977 18C13.9803 18 18.0098 13.9706 18.0098 9C18.0098 4.02944 13.9803 0 9.00977 0C4.0392 0 0.00976562 4.02944 0.00976562 9C0.00976562 13.9706 4.0392 18 9.00977 18Z" fill="#00B31D"/>
<path fill-rule="evenodd" clip-rule="evenodd" d="M6.1998 13.3876L2.90821 9.86464C2.45757 9.38233 2.48344 8.61924 2.96575 8.1686C3.44807 7.71797 4.21116 7.7439 4.66179 8.22615L7.20079 10.9436L11.2197 7.18859C11.2558 7.15479 11.2936 7.12382 11.3326 7.09534L13.2226 5.32956C13.7049 4.87893 14.468 4.90486 14.9186 5.38718C15.3692 5.86942 15.3433 6.63258 14.8611 7.08322L9.08873 12.4765L9.08257 12.4699L7.08584 14.3355L6.1998 13.3876Z" fill="white"/>
</g>
<defs>
<clipPath id="clip0_16227_1290">
<rect width="18" height="18" fill="white" transform="translate(0.00976562)"/>
</clipPath>
</defs>
</svg>
