<svg fill="none" height="30" viewBox="0 0 30 30" width="30" xmlns="http://www.w3.org/2000/svg"><path clip-rule="evenodd" d="m15 30c8.2843 0 15-6.7157 15-15 0-3.0557-.9137-5.89793-2.4828-8.26848l-11.9255 13.25068c-1.1544 1.2826-3.097 1.4721-4.4776.4366l-5.44743-4.0855c-.73639-.5523-.88562-1.597-.33334-2.3333.55229-.7363 1.59695-.8857 2.33334-.3333l5.44733 4.0855 12.2427-13.60295c-2.6924-2.57063-6.3402-4.14925-10.3567-4.14925-8.28427 0-15 6.71573-15 15 0 8.2843 6.71573 15 15 15z" fill="#00b31d" fill-rule="evenodd"/></svg>