<svg width="66" height="66" viewBox="0 0 66 66" fill="none" xmlns="http://www.w3.org/2000/svg">
<path d="M26.675 31.0764C25.575 29.9764 23.925 29.9764 22.825 31.0764C21.725 32.1764 21.725 33.8264 22.825 34.9264L31.075 43.1764C31.625 43.7264 32.175 44.0014 33 44.0014C33.825 44.0014 34.375 43.7264 34.925 43.1764L54.175 21.1764C55 20.0764 55 18.1514 53.625 17.3264C52.525 16.5014 50.875 16.5014 50.05 17.6014L33 37.1264L26.675 31.0764Z" fill="#4098D8"/>
<path d="M57.75 30.25C56.1 30.25 55 31.35 55 33C55 45.1 45.1 55 33 55C20.9 55 11 45.1 11 33C11 27.225 13.2 21.725 17.325 17.6C21.45 13.2 27.225 11 33 11C34.65 11 36.575 11.275 38.225 11.55C39.6 12.1 41.25 11.275 41.8 9.625C42.35 7.975 41.25 6.875 39.875 6.325H39.6C37.4 5.775 35.2 5.5 33 5.5C17.875 5.5 5.5 17.875 5.775 33.275C5.775 40.425 8.8 47.575 13.75 52.525C18.975 57.75 25.85 60.5 33 60.5C48.125 60.5 60.5 48.125 60.5 33C60.5 31.35 59.4 30.25 57.75 30.25Z" fill="#4098D8"/>
</svg>
