<svg fill="none" height="44" viewBox="0 0 57 44" width="57" xmlns="http://www.w3.org/2000/svg"><path d="m5.46614 38.2181c2.72118 0 4.93886-1.9078 4.93886-4.2487v-24.06253c-.0717-1.08415-.62292-2.10361-1.54051-2.84932-.9176-.74571-2.13206-1.16116-3.39436-1.16116-1.26229 0-2.47676.41545-3.39435 1.16116-.9176.74571-1.468783 1.76517-1.540534 2.84932l-.003996 24.06253c0 2.3409 2.21371 4.2487 4.93489 4.2487zm-1.6463-28.31123c0-.37561.17345-.73584.48219-1.00144.30874-.26559.72748-.41481 1.16411-.41481.43662 0 .85536.14922 1.1641.41481.30874.2656.48219.62583.48219 1.00144v24.06253c0 .3756-.17345.7358-.48219 1.0014s-.72748.4148-1.1641.4148c-.43663 0-.85537-.1492-1.16411-.4148s-.48219-.6258-.48219-1.0014zm16.45496 28.31123c2.7212 0 4.9349-1.9078 4.9349-4.2487v-12.7394c0-2.3375-2.2137-4.2453-4.9349-4.2453s-4.9349 1.9044-4.9349 4.2453v12.7394c0 2.3409 2.2137 4.2487 4.9349 4.2487zm-1.6423-16.9881c0-.3756.1734-.7358.4822-1.0014.3087-.2656.7275-.4149 1.1641-.4149s.8554.1493 1.1641.4149.4822.6258.4822 1.0014v12.7394c0 .3756-.1735.7358-.4822 1.0014s-.7275.4148-1.1641.4148-.8554-.1492-1.1641-.4148c-.3088-.2656-.4822-.6258-.4822-1.0014zm31.2636 16.9881c2.7212 0 4.9349-1.9078 4.9349-4.2487v-8.4907c0-2.3409-2.2137-4.2487-4.9349-4.2487s-4.9349 1.9078-4.9349 4.2487v8.4907c0 2.3409 2.2137 4.2487 4.9349 4.2487zm-1.6463-12.7394c0-.3756.1735-.7358.4822-1.0014s.7275-.4148 1.1641-.4148.8554.1492 1.1641.4148.4822.6258.4822 1.0014v8.4907c0 .3756-.1735.7358-.4822 1.0014s-.7275.4148-1.1641.4148-.8554-.1492-1.1641-.4148-.4822-.6258-.4822-1.0014zm-13.1624 12.7394c2.7212 0 4.9349-1.9078 4.9349-4.2487v-29.72409c0-2.3375-2.2137-4.24531-4.9349-4.24531-2.7211 0-4.9348 1.90437-4.9348 4.24531v29.72409c0 2.3409 2.2137 4.2487 4.9348 4.2487zm-1.6463-33.97279c0-.37561.1735-.73584.4822-1.00144.3088-.2656.7275-.41481 1.1641-.41481.4367 0 .8554.14921 1.1641.41481.3088.2656.4822.62583.4822 1.00144v29.72409c0 .3756-.1734.7358-.4822 1.0014-.3087.2656-.7274.4148-1.1641.4148-.4366 0-.8553-.1492-1.1641-.4148-.3087-.2656-.4822-.6258-.4822-1.0014zm-32.90985 36.80189h55.94205v2.8325h-55.94205z" fill="#6c7aab"/></svg>