<svg fill="none" height="40" viewBox="0 0 41 40" width="41" xmlns="http://www.w3.org/2000/svg"><path clip-rule="evenodd" d="m23.5464 31.6767.0096-3.3382c0-.9205.748-1.6666 1.6709-1.6666.9226 0 1.6708.7461 1.6708 1.6666v3.2942c0 .8025 0 1.2038.2573 1.4498.2574.2462.651.2294 1.4385.196 3.1049-.1313 5.0125-.5513 6.357-1.8926 1.3479-1.3444 1.7677-3.253 1.8984-6.3632.026-.6167.039-.9252-.0762-1.1308-.1152-.2059-.575-.4625-1.4947-.9762-1.0213-.5703-1.7116-1.66-1.7116-2.9105s.6903-2.3402 1.7116-2.9105c.9197-.5136 1.3795-.7704 1.4947-.9761.1152-.2058.1022-.5142.0762-1.1309-.1307-3.1102-.5505-5.01878-1.8984-6.36321-1.4628-1.45922-3.592-1.82795-7.2043-1.92112-.466-.01201-.8485.36381-.8485.82881v4.13972c0 .9204-.7482 1.6666-1.6708 1.6666-.9229 0-1.6709-.7462-1.6709-1.6666l-.0121-4.16911c-.0014-.45928-.375-.83091-.8354-.83091h-5.8503c-6.301 0-9.45155-.00001-11.40903 1.95261-1.34779 1.34443-1.76759 3.25301-1.89834 6.36321-.02593.6167-.0389.9251.07627 1.1309.11518.2057.57498.4625 1.49457.9761 1.0213.5703 1.71165 1.66 1.71165 2.9105s-.69035 2.3402-1.71165 2.9105c-.91959.5137-1.37939.7703-1.49457.9762-.11517.2056-.1022.5141-.07627 1.1308.13075 3.1102.55055 5.0188 1.89834 6.3632 1.95748 1.9526 5.10803 1.9526 11.40903 1.9526h5.0173c.7855 0 1.1784 0 1.4229-.2431.2445-.2434.2456-.635.248-1.4187zm3.3513-10.0048v-3.3334c0-.9205-.7482-1.6666-1.6708-1.6666-.9229 0-1.6709.7461-1.6709 1.6666v3.3334c0 .9205.748 1.6666 1.6709 1.6666.9226 0 1.6708-.7461 1.6708-1.6666z" fill="#4098d8" fill-rule="evenodd"/></svg>