<svg width="41" height="40" viewBox="0 0 41 40" fill="none" xmlns="http://www.w3.org/2000/svg">
<path fill-rule="evenodd" clip-rule="evenodd" d="M23.5464 31.6767L23.556 28.3385C23.556 27.418 24.304 26.6719 25.2269 26.6719C26.1495 26.6719 26.8977 27.418 26.8977 28.3385V31.6327C26.8977 32.4352 26.8977 32.8365 27.155 33.0825C27.4124 33.3287 27.806 33.3119 28.5935 33.2785C31.6984 33.1472 33.606 32.7272 34.9505 31.3859C36.2984 30.0415 36.7182 28.1329 36.8489 25.0227C36.8749 24.406 36.8879 24.0975 36.7727 23.8919C36.6575 23.686 36.1977 23.4294 35.278 22.9157C34.2567 22.3454 33.5664 21.2557 33.5664 20.0052C33.5664 18.7547 34.2567 17.665 35.278 17.0947C36.1977 16.5811 36.6575 16.3243 36.7727 16.1186C36.8879 15.9128 36.8749 15.6044 36.8489 14.9877C36.7182 11.8775 36.2984 9.96892 34.9505 8.62449C33.4877 7.16527 31.3585 6.79654 27.7462 6.70337C27.2802 6.69136 26.8977 7.06718 26.8977 7.53218V11.6719C26.8977 12.5923 26.1495 13.3385 25.2269 13.3385C24.304 13.3385 23.556 12.5923 23.556 11.6719L23.5439 7.50279C23.5425 7.04351 23.1689 6.67188 22.7085 6.67188H16.8582C10.5572 6.67188 7.40665 6.67187 5.44917 8.62449C4.10138 9.96892 3.68158 11.8775 3.55083 14.9877C3.5249 15.6044 3.51193 15.9128 3.6271 16.1186C3.74228 16.3243 4.20208 16.5811 5.12167 17.0947C6.14297 17.665 6.83332 18.7547 6.83332 20.0052C6.83332 21.2557 6.14297 22.3454 5.12167 22.9157C4.20208 23.4294 3.74228 23.686 3.6271 23.8919C3.51193 24.0975 3.5249 24.406 3.55083 25.0227C3.68158 28.1329 4.10138 30.0415 5.44917 31.3859C7.40665 33.3385 10.5572 33.3385 16.8582 33.3385H21.8755C22.661 33.3385 23.0539 33.3385 23.2984 33.0954C23.5429 32.852 23.544 32.4604 23.5464 31.6767ZM26.8977 21.6719V18.3385C26.8977 17.418 26.1495 16.6719 25.2269 16.6719C24.304 16.6719 23.556 17.418 23.556 18.3385V21.6719C23.556 22.5924 24.304 23.3385 25.2269 23.3385C26.1495 23.3385 26.8977 22.5924 26.8977 21.6719Z" fill="#4098D8"/>
</svg>
