<svg fill="none" height="16" viewBox="0 0 16 16" width="16" xmlns="http://www.w3.org/2000/svg"><path d="m13.7176 7.24163c0 3.15587-2.5583 5.71427-5.71425 5.71427-3.15591 0-5.71429-2.5584-5.71429-5.71427 0-3.15591 2.55838-5.71429 5.71429-5.71429 3.15595 0 5.71425 2.55838 5.71425 5.71429z" fill="#fff"/><g fill="#4098d8"><path d="m8.01339 1.14062c-3.78707 0-6.85714 3.06997-6.85714 6.85715 0 3.78713 3.07007 6.85713 6.85714 6.85713 3.78711 0 6.85711-3.07 6.85711-6.85713 0-3.78718-3.07-6.85715-6.85711-6.85715zm-1.29434 10.14628c0-.4718.38253-.8543.85428-.8543.4714 0 .85393.3825.85393.8543 0 .4713-.38253.854-.85393.854-.47175 0-.85428-.3827-.85428-.854zm3.64145-4.28417c-.0963.26231-.2358.48989-.39362.67918-.31734.37896-.69343.60852-1.00292.77788-.20675.11181-.38927.19792-.50274.26167-.07781.04297-.11997.07902-.14078.10249-.02057.0248-.02757.03498-.04007.07569-.00732.02703-.01495.06997-.01495.13637v.33514c0 .17336-.14057.31414-.31401.31414h-.75675c-.17344 0-.31425-.14078-.31425-.31414 0 0 0-.1512 0-.33514 0-.17245.02014-.34136.06442-.50296.04382-.16092.1129-.31387.20111-.44716.17676-.27008.4163-.45005.64243-.57535.19824-.10913.39436-.19969.57632-.30217.18185-.1016.34401-.21188.46344-.3314.08004-.07968.14224-.16205.18983-.255.06255-.12396.10594-.26965.10693-.49256.00032-.06597-.01869-.15273-.0705-.25192-.05159-.09873-.13569-.20609-.24814-.30241-.22634-.19414-.55829-.33603-.93895-.33538-.4362.00155-.72819.10382-.95322.23089-.22393.12793-.29542.25701-.29542.25701-.11432.09959-.28401.10312-.40245.00841l-.58152-.46599c-.07283-.05821-.11577-.14566-.11775-.23909-.00169-.09319.03817-.18241.10877-.24372 0 0 .18121-.27938.60137-.51911.41839-.24086.97291-.41486 1.64025-.41328.54147 0 1.04033.14898 1.45361.39271.41341.24503.74726.58243.96026.98775.1415.26984.2284.57401.2286.8941.0003.31594-.0523.61101-.1493.87335z"/><path clip-rule="evenodd" d="m8 15.2c3.9765 0 7.2-3.2235 7.2-7.2 0-3.97645-3.2235-7.2-7.2-7.2-3.97645 0-7.2 3.22355-7.2 7.2 0 3.9765 3.22355 7.2 7.2 7.2zm0 .8c4.4183 0 8-3.5817 8-8 0-4.41828-3.5817-8-8-8-4.41828 0-8 3.58172-8 8 0 4.4183 3.58172 8 8 8z" fill-rule="evenodd"/></g></svg>