<svg width="33" height="33" viewBox="0 0 33 33" fill="none" xmlns="http://www.w3.org/2000/svg">
<g clip-path="url(#clip0_4892_1689)">
<path d="M16.5 33C20.8761 33 25.0729 31.2616 28.1673 28.1673C31.2616 25.0729 33 20.8761 33 16.5C33 12.1239 31.2616 7.92709 28.1673 4.83274C25.0729 1.73839 20.8761 0 16.5 0C12.1239 0 7.92709 1.73839 4.83274 4.83274C1.73839 7.92709 0 12.1239 0 16.5C0 20.8761 1.73839 25.0729 4.83274 28.1673C7.92709 31.2616 12.1239 33 16.5 33ZM16.5 8.25C17.3572 8.25 18.0469 8.93965 18.0469 9.79688V17.0156C18.0469 17.8729 17.3572 18.5625 16.5 18.5625C15.6428 18.5625 14.9531 17.8729 14.9531 17.0156V9.79688C14.9531 8.93965 15.6428 8.25 16.5 8.25ZM14.4375 22.6875C14.4375 22.1405 14.6548 21.6159 15.0416 21.2291C15.4284 20.8423 15.953 20.625 16.5 20.625C17.047 20.625 17.5716 20.8423 17.9584 21.2291C18.3452 21.6159 18.5625 22.1405 18.5625 22.6875C18.5625 23.2345 18.3452 23.7591 17.9584 24.1459C17.5716 24.5327 17.047 24.75 16.5 24.75C15.953 24.75 15.4284 24.5327 15.0416 24.1459C14.6548 23.7591 14.4375 23.2345 14.4375 22.6875Z" fill="url(#paint0_linear_4892_1689)"/>
</g>
<defs>
<linearGradient id="paint0_linear_4892_1689" x1="0.98718" y1="37.6406" x2="0.987183" y2="-15.9844" gradientUnits="userSpaceOnUse">
<stop stop-color="#02B7F0"/>
<stop offset="1" stop-color="#8CC4F8"/>
</linearGradient>
<clipPath id="clip0_4892_1689">
<rect width="33" height="33" fill="white"/>
</clipPath>
</defs>
</svg>
