<svg fill="none" height="24" viewBox="0 0 607 24" xmlns="http://www.w3.org/2000/svg"><g fill="#aad6ff"><path d="m569.888.101562 36.221 23.899038h-12.45l-36.221-23.899038z"/><path d="m517.503 0h30.62 2.422l36.635 24.0018h-23.124l-28.334-20.22086h-527.03786l-8.190305-3.78094z"/><path d="m560.805 24.0019h-2.48l-24.19-17.27066h-240.115l-1.975-1.41874h242.587z"/><path d="m142.635 9.40625 9.334 6.89175h-56.9031l-9.3334-6.89175z"/><path d="m286.69 9.40625 9.333 6.89175h-56.902l-9.334-6.89175z"/><path d="m81.2541 9.40625 9.3318 6.89175h-6.9256l-9.3318-6.89175z"/><path d="m225.309 9.40625 9.332 6.89175h-6.926l-9.332-6.89175z"/><path d="m70.0979 9.40625 9.3318 6.89175h-5.9997l-9.3318-6.89175z"/><path d="m214.153 9.40625 9.331 6.89175h-5.999l-9.332-6.89175z"/><path d="m68.2734 16.298h-5.0737l-9.3318-6.89175h5.0738z"/><path d="m212.328 16.298h-5.074l-9.331-6.89175h5.073z"/><path d="m57.1172 16.298h-4.1478l-9.3318-6.89175h4.1478z"/><path d="m201.172 16.298h-4.148l-9.332-6.89175h4.148z"/><path d="m45.9609 16.298h-3.2218l-9.3318-6.89175h3.2219z"/><path d="m190.016 16.298h-3.222l-9.332-6.89175h3.222z"/><path d="m34.8047 16.298h-2.2959l-9.3335-6.89175h2.2976z"/><path d="m178.859 16.298h-2.296l-9.333-6.89175h2.298z"/><path d="m14.3167 9.40625 9.3317 6.89175h-1.3699l-9.3335-6.89175z"/><path d="m158.371 9.40625 9.332 6.89175h-1.37l-9.333-6.89175z"/></g></svg>