<svg width="464" height="19" viewBox="0 0 464 19" fill="none" xmlns="http://www.w3.org/2000/svg"> 
<path d="M285.994 18.3687H51.9664C51.3149 18.3687 50.7812 17.8352 50.7812 17.1841C50.7812 16.5329 51.3149 15.9994 51.9664 15.9994H285.499L290.577 10.9233C290.797 10.7037 291.103 10.5781 291.417 10.5781H462.625C463.277 10.5781 463.81 11.1116 463.81 11.7628C463.81 12.414 463.277 12.9475 462.625 12.9475H291.912L286.834 18.0314C286.614 18.2511 286.308 18.3766 285.994 18.3766V18.3687Z" fill="url(#paint0_linear_7413_15453)"/>
<path d="M27.8075 9.10867H278.976L274.298 4.43273H154.302L149.868 0H18.6953L27.8075 9.10867Z" fill="url(#paint1_linear_7413_15453)"/>
<path d="M0 0L9.11215 9.10867H21.2146L12.1024 0H0Z" fill="url(#paint2_linear_7413_15453)"/>
<defs>
<linearGradient id="paint0_linear_7413_15453" x1="257.296" y1="10.5781" x2="257.296" y2="18.3766" gradientUnits="userSpaceOnUse">
<stop stop-color="#5DE1FF"/>
<stop offset="1" stop-color="#3075F2"/>
</linearGradient>
<linearGradient id="paint1_linear_7413_15453" x1="148.836" y1="0" x2="148.836" y2="9.10867" gradientUnits="userSpaceOnUse">
<stop stop-color="#5DE1FF"/>
<stop offset="1" stop-color="#3075F2"/>
</linearGradient>
<linearGradient id="paint2_linear_7413_15453" x1="10.6073" y1="0" x2="10.6073" y2="9.10867" gradientUnits="userSpaceOnUse">
<stop stop-color="#5DE1FF"/>
<stop offset="1" stop-color="#3075F2"/>
</linearGradient>
</defs>
</svg>
