<svg width="50" height="50" viewBox="0 0 50 50" fill="none" xmlns="http://www.w3.org/2000/svg">
<path d="M28.8108 25.8721L18.9893 25.8721L18.9893 24.8068C18.9893 24.1832 18.7399 23.7072 18.305 23.501C17.8702 23.2947 17.3438 23.4027 16.8608 23.7972L12.5643 27.3069C12.1315 27.6606 11.8832 28.1633 11.8832 28.6862C11.8832 29.2091 12.1314 29.7119 12.5644 30.0656L16.8608 33.5753C17.3439 33.9698 17.8702 34.0778 18.305 33.8715C18.7398 33.6652 18.9893 33.1893 18.9893 32.5657L18.9893 31.5004L28.8107 31.5004C29.5225 31.5004 30.1016 30.9214 30.1016 30.2096L30.1016 27.1629C30.1016 26.4511 29.5225 25.8721 28.8108 25.8721ZM17.7042 24.7667L17.7042 26.5146C17.7042 26.8695 17.9918 27.1572 18.3467 27.1572L28.8108 27.1572C28.814 27.1572 28.8165 27.1597 28.8165 27.1629L28.8165 30.2096C28.8165 30.2127 28.814 30.2153 28.8107 30.2153L18.3467 30.2153C17.9918 30.2153 17.7042 30.5029 17.7042 30.8578L17.7048 32.6122L13.3775 29.0704C13.2426 28.9602 13.1683 28.8237 13.1683 28.6862C13.1683 28.5487 13.2426 28.4122 13.3774 28.3021L17.7042 24.7667Z" fill="white"/>
<path d="M28.8108 25.8721L18.9893 25.8721L18.9893 24.8068C18.9893 24.1832 18.7399 23.7072 18.305 23.501C17.8702 23.2947 17.3438 23.4027 16.8608 23.7972L12.5643 27.3069C12.1315 27.6606 11.8832 28.1633 11.8832 28.6862C11.8832 29.2091 12.1314 29.7119 12.5644 30.0656L16.8608 33.5753C17.3439 33.9698 17.8702 34.0778 18.305 33.8715C18.7398 33.6652 18.9893 33.1893 18.9893 32.5657L18.9893 31.5004L28.8107 31.5004C29.5225 31.5004 30.1016 30.9214 30.1016 30.2096L30.1016 27.1629C30.1016 26.4511 29.5225 25.8721 28.8108 25.8721ZM17.7042 24.7667L17.7042 26.5146C17.7042 26.8695 17.9918 27.1572 18.3467 27.1572L28.8108 27.1572C28.814 27.1572 28.8165 27.1597 28.8165 27.1629L28.8165 30.2096C28.8165 30.2127 28.814 30.2153 28.8107 30.2153L18.3467 30.2153C17.9918 30.2153 17.7042 30.5029 17.7042 30.8578L17.7048 32.6122L13.3775 29.0704C13.2426 28.9602 13.1683 28.8237 13.1683 28.6862C13.1683 28.5487 13.2426 28.4122 13.3774 28.3021L17.7042 24.7667Z" fill="#35C0FF"/>
<path d="M31.015 17.4318L31.015 18.4972L21.1935 18.4972C20.4817 18.4972 19.9027 19.0762 19.9027 19.7879L19.9027 22.8346C19.9027 23.5464 20.4817 24.1254 21.1934 24.1254L31.015 24.1254L31.015 25.1907C31.015 25.8142 31.2644 26.2903 31.6992 26.4965C32.1341 26.7028 32.6605 26.5948 33.1435 26.2003L37.4399 22.6906C37.8728 22.3369 38.1211 21.8342 38.1211 21.3112C38.1211 20.7884 37.8728 20.2856 37.4399 19.9319L33.1435 16.4222C32.6604 16.0277 32.1341 15.9197 31.6992 16.126C31.2644 16.3323 31.015 16.8082 31.015 17.4318ZM32.3001 17.3927L36.6268 20.9272C36.7617 21.0374 36.8359 21.1739 36.8359 21.3114C36.8359 21.4489 36.7617 21.5853 36.6268 21.6955L32.3001 25.2304L32.3001 23.483C32.3001 23.1281 32.0124 22.8404 31.6575 22.8404L21.1934 22.8404C21.1903 22.8404 21.1878 22.8379 21.1878 22.8347L21.1878 19.7881C21.1878 19.7849 21.1903 19.7824 21.1935 19.7824L31.6575 19.7824C32.0124 19.7824 32.3001 19.4947 32.3001 19.1398L32.3001 17.3927Z" fill="white"/>
<path d="M31.015 17.4318L31.015 18.4972L21.1935 18.4972C20.4817 18.4972 19.9027 19.0762 19.9027 19.7879L19.9027 22.8346C19.9027 23.5464 20.4817 24.1254 21.1934 24.1254L31.015 24.1254L31.015 25.1907C31.015 25.8142 31.2644 26.2903 31.6992 26.4965C32.1341 26.7028 32.6605 26.5948 33.1435 26.2003L37.4399 22.6906C37.8728 22.3369 38.1211 21.8342 38.1211 21.3112C38.1211 20.7884 37.8728 20.2856 37.4399 19.9319L33.1435 16.4222C32.6604 16.0277 32.1341 15.9197 31.6992 16.126C31.2644 16.3323 31.015 16.8082 31.015 17.4318ZM32.3001 17.3927L36.6268 20.9272C36.7617 21.0374 36.8359 21.1739 36.8359 21.3114C36.8359 21.4489 36.7617 21.5853 36.6268 21.6955L32.3001 25.2304L32.3001 23.483C32.3001 23.1281 32.0124 22.8404 31.6575 22.8404L21.1934 22.8404C21.1903 22.8404 21.1878 22.8379 21.1878 22.8347L21.1878 19.7881C21.1878 19.7849 21.1903 19.7824 21.1935 19.7824L31.6575 19.7824C32.0124 19.7824 32.3001 19.4947 32.3001 19.1398L32.3001 17.3927Z" fill="#35C0FF"/>
<circle cx="25" cy="25" r="19" stroke="#6C7AAB" stroke-width="2"/>
</svg>
