<svg fill="none" height="30" viewBox="0 0 31 30" width="31" xmlns="http://www.w3.org/2000/svg"><g fill="#fff"><path d="m18.8138 15.4858h-7.3614v-.8098c0-.474-.1869-.8358-.5128-.9926s-.7205-.0747-1.08249.2252l-3.22026 2.6678c-.32441.2689-.51053.651-.51053 1.0485s.18608.7796.51058 1.0485l3.22021 2.6679c.36209.2999.75659.3819 1.08249.2251s.5128-.5185.5128-.9925v-.8098h7.3614c.5334 0 .9674-.4402.9674-.9812v-2.316c0-.541-.4339-.9811-.9674-.9811zm-8.3246-.8402v1.3286c0 .2697.2157.4884.4816.4884h7.843c.0024 0 .0043.002.0043.0043v2.3159c0 .0025-.0019.0044-.0043.0044h-7.843c-.2659 0-.4816.2186-.4816.4884l.0005 1.3336-3.24338-2.6923c-.10109-.0838-.15677-.1875-.15677-.292 0-.1046.05568-.2083.15673-.292z"/><path d="m18.8138 15.4858h-7.3614v-.8098c0-.474-.1869-.8358-.5128-.9926s-.7205-.0747-1.08249.2252l-3.22026 2.6678c-.32441.2689-.51053.651-.51053 1.0485s.18608.7796.51058 1.0485l3.22021 2.6679c.36209.2999.75659.3819 1.08249.2251s.5128-.5185.5128-.9925v-.8098h7.3614c.5334 0 .9674-.4402.9674-.9812v-2.316c0-.541-.4339-.9811-.9674-.9811zm-8.3246-.8402v1.3286c0 .2697.2157.4884.4816.4884h7.843c.0024 0 .0043.002.0043.0043v2.3159c0 .0025-.0019.0044-.0043.0044h-7.843c-.2659 0-.4816.2186-.4816.4884l.0005 1.3336-3.24338-2.6923c-.10109-.0838-.15677-.1875-.15677-.292 0-.1046.05568-.2083.15673-.292z"/><path d="m20.463 9.07056v.8098h-7.3614c-.5335 0-.9675.44014-.9675.98114v2.3159c0 .541.434.9812.9674.9812h7.3615v.8097c0 .474.1869.8359.5128.9926.326.1568.7204.0747 1.0825-.2251l3.2202-2.6679c.3244-.2688.5106-.651.5106-1.0485 0-.3974-.1861-.7796-.5106-1.0485l-3.2202-2.66776c-.3621-.29989-.7566-.38199-1.0826-.22519-.3258.15685-.5127.51861-.5127.99261zm.9631-.02972 3.243 2.68666c.101.0838.1567.1875.1567.292 0 .1046-.0557.2083-.1567.292l-3.243 2.6871v-1.3283c0-.2698-.2156-.4885-.4816-.4885h-7.843c-.0023 0-.0042-.0019-.0042-.0043v-2.3159c0-.0024.0019-.0043.0043-.0043h7.8429c.266 0 .4816-.2187.4816-.4884z"/><path d="m20.463 9.07056v.8098h-7.3614c-.5335 0-.9675.44014-.9675.98114v2.3159c0 .541.434.9812.9674.9812h7.3615v.8097c0 .474.1869.8359.5128.9926.326.1568.7204.0747 1.0825-.2251l3.2202-2.6679c.3244-.2688.5106-.651.5106-1.0485 0-.3974-.1861-.7796-.5106-1.0485l-3.2202-2.66776c-.3621-.29989-.7566-.38199-1.0826-.22519-.3258.15685-.5127.51861-.5127.99261zm.9631-.02972 3.243 2.68666c.101.0838.1567.1875.1567.292 0 .1046-.0557.2083-.1567.292l-3.243 2.6871v-1.3283c0-.2698-.2156-.4885-.4816-.4885h-7.843c-.0023 0-.0042-.0019-.0042-.0043v-2.3159c0-.0024.0019-.0043.0043-.0043h7.8429c.266 0 .4816-.2187.4816-.4884z"/></g><path d="m29.9415 15c0 7.7326-6.2643 14-13.9903 14s-13.99026-6.2674-13.99026-14 6.26426-14 13.99026-14 13.9903 6.2674 13.9903 14z" stroke="#fff" stroke-width="2"/></svg>