<svg width="58" height="58" viewBox="0 0 58 58" fill="none" xmlns="http://www.w3.org/2000/svg">
<g filter="url(#filter0_d_4473_1144)">
<rect x="3" y="3" width="50" height="50" rx="25" fill="white" fill-opacity="0.07" shape-rendering="crispEdges"/>
<rect x="3" y="3" width="50" height="50" rx="25" fill="#A0DFF2" fill-opacity="0.15" style="mix-blend-mode:color-dodge" shape-rendering="crispEdges"/>
<path d="M31.845 37.7748C31.8458 38.8864 32.1126 39.9817 32.6233 40.969C32.6633 41.0396 32.6843 41.1194 32.6841 41.2006C32.6839 41.2818 32.6626 41.3615 32.6222 41.4319C32.5818 41.5022 32.5238 41.5609 32.4538 41.602C32.3838 41.6432 32.3044 41.6654 32.2232 41.6664H20.9483C17.3836 41.6664 15.5 39.7984 15.5 36.2492C15.5 32.2798 17.7416 27.6565 24.0616 27.6565H30.2883C31.5229 27.5839 32.7579 27.7928 33.8999 28.2675C35.042 28.7421 36.0612 29.47 36.8808 30.3962C36.9257 30.4569 36.9552 30.5276 36.9668 30.6022C36.9784 30.6768 36.9718 30.7531 36.9475 30.8245C36.9231 30.896 36.8818 30.9605 36.8271 31.0125C36.7724 31.0645 36.7059 31.1025 36.6332 31.1232C35.2361 31.586 34.0208 32.4783 33.161 33.6728C32.3011 34.8674 31.8405 36.303 31.845 37.7748ZM27.189 24.5431C28.4205 24.5431 29.6244 24.178 30.6483 23.4938C31.6723 22.8096 32.4704 21.8371 32.9417 20.6993C33.4129 19.5616 33.5362 18.3096 33.296 17.1017C33.0557 15.8939 32.4627 14.7844 31.5919 13.9136C30.7211 13.0428 29.6116 12.4497 28.4037 12.2095C27.1959 11.9692 25.9439 12.0925 24.8061 12.5638C23.6684 13.0351 22.6959 13.8332 22.0117 14.8572C21.3275 15.8811 20.9623 17.085 20.9623 18.3165C20.9623 19.9679 21.6183 21.5517 22.7861 22.7194C23.9538 23.8871 25.5376 24.5431 27.189 24.5431ZM42.7416 36.6073H40.7958V34.6615C40.7958 34.3518 40.6728 34.0549 40.4538 33.8359C40.2349 33.617 39.9379 33.494 39.6283 33.494C39.3186 33.494 39.0217 33.617 38.8027 33.8359C38.5838 34.0549 38.4608 34.3518 38.4608 34.6615V36.6073H36.5149C36.2053 36.6073 35.9083 36.7303 35.6894 36.9492C35.4704 37.1682 35.3474 37.4651 35.3474 37.7748C35.3474 38.0844 35.4704 38.3814 35.6894 38.6003C35.9083 38.8193 36.2053 38.9423 36.5149 38.9423H38.4608V40.8881C38.4608 41.1977 38.5838 41.4947 38.8027 41.7136C39.0217 41.9326 39.3186 42.0556 39.6283 42.0556C39.9379 42.0556 40.2349 41.9326 40.4538 41.7136C40.6728 41.4947 40.7958 41.1977 40.7958 40.8881V38.9423H42.7416C43.0512 38.9423 43.3482 38.8193 43.5671 38.6003C43.7861 38.3814 43.9091 38.0844 43.9091 37.7748C43.9091 37.4651 43.7861 37.1682 43.5671 36.9492C43.3482 36.7303 43.0512 36.6073 42.7416 36.6073Z" fill="white"/>
</g>
<defs>
<filter id="filter0_d_4473_1144" x="0" y="0" width="58" height="58" filterUnits="userSpaceOnUse" color-interpolation-filters="sRGB">
<feFlood flood-opacity="0" result="BackgroundImageFix"/>
<feColorMatrix in="SourceAlpha" type="matrix" values="0 0 0 0 0 0 0 0 0 0 0 0 0 0 0 0 0 0 127 0" result="hardAlpha"/>
<feOffset dx="1" dy="1"/>
<feGaussianBlur stdDeviation="2"/>
<feComposite in2="hardAlpha" operator="out"/>
<feColorMatrix type="matrix" values="0 0 0 0 0 0 0 0 0 0 0 0 0 0 0 0 0 0 0.12 0"/>
<feBlend mode="normal" in2="BackgroundImageFix" result="effect1_dropShadow_4473_1144"/>
<feBlend mode="normal" in="SourceGraphic" in2="effect1_dropShadow_4473_1144" result="shape"/>
</filter>
</defs>
</svg>
