<svg width="64" height="65" viewBox="0 0 64 65" fill="none" xmlns="http://www.w3.org/2000/svg">
<path d="M9.36597 14.8293C9.36597 6.6393 16.0053 0 24.1952 0C32.3853 0 39.0244 6.6393 39.0244 14.8293C39.0244 23.0192 32.3853 29.6585 24.1952 29.6585C16.0053 29.6585 9.36597 23.0192 9.36597 14.8293Z" fill="#4098D8"/>
<path d="M0 49.173C0 40.9829 6.63929 34.3438 14.8293 34.3438H33.5609C39.9209 34.3438 45.3459 38.3477 47.4526 43.9722L46.4882 45.0492C44.3201 47.4709 43.1025 48.8093 42.1462 49.6248C41.1903 48.8093 39.9724 47.4709 37.8045 45.0492L35.0909 42.0184C32.7907 39.4494 28.8433 39.2312 26.2742 41.5314C23.705 43.8317 23.4869 47.7791 25.7871 50.3481L28.7428 53.6496C30.6153 55.7422 32.4367 57.7771 34.1668 59.2313C35.789 60.5947 37.8445 61.9003 40.4476 62.3096C38.3899 63.3907 36.0469 64.0023 33.5609 64.0023H14.8293C6.63929 64.0023 0 57.3631 0 49.173Z" fill="#4098D8"/>
<path d="M63.4028 39.0246C64.2654 38.0612 64.1836 36.5807 63.2202 35.7181C62.2568 34.8555 60.7766 34.9373 59.9141 35.9008L49.3956 47.6493C47.2642 50.0298 45.8287 51.6248 44.6018 52.6563C43.4327 53.6387 42.7461 53.8529 42.1461 53.8529C41.5464 53.8529 40.8598 53.6387 39.6907 52.6563C38.4634 51.6248 37.0283 50.0298 34.8969 47.6493L32.1833 44.6185C31.3207 43.6551 29.8406 43.5733 28.8772 44.4359C27.9136 45.2985 27.8319 46.7786 28.6944 47.742L31.524 50.9024C33.5089 53.1199 35.1648 54.9693 36.6777 56.2409C38.278 57.5861 40.0044 58.5358 42.1461 58.5358C44.2881 58.5358 46.0142 57.5861 47.6148 56.2409C49.1277 54.9693 50.7836 53.1199 52.7685 50.9024L63.4028 39.0246Z" fill="#4098D8"/>
</svg>
