<svg fill="none" height="52" viewBox="0 0 52 52" width="52" xmlns="http://www.w3.org/2000/svg"><g fill="#4098d8"><path d="m7.60938 12.0487c0-6.6543 5.39442-12.0487 12.04872-12.0487 6.6544 0 12.0486 5.3944 12.0486 12.0487s-5.3942 12.0487-12.0486 12.0487c-6.6543 0-12.04872-5.3944-12.04872-12.0487z"/><path d="m0 39.955c0-6.6545 5.39439-12.0488 12.0487-12.0488h15.2194c5.1675 0 9.5753 3.2532 11.2869 7.8231l-.7835.8751c-1.7616 1.9676-2.7509 3.0551-3.5279 3.7176-.7767-.6625-1.7662-1.75-3.5276-3.7176l-2.2048-2.4625c-1.8689-2.0873-5.0761-2.2646-7.1635-.3957-2.0875 1.8689-2.2647 5.0762-.3958 7.1635l2.4015 2.6825c1.5214 1.7002 3.0012 3.3536 4.407 4.5351 1.318 1.1077 2.9881 2.1685 5.1031 2.5011-1.6719.8784-3.5756 1.3753-5.5954 1.3753h-15.2194c-6.65431 0-12.0487-5.3943-12.0487-12.0487z"/><path d="m51.5136 31.7106c.7009-.7828.6344-1.9856-.1484-2.6865-.7827-.7008-1.9853-.6344-2.6862.1484l-8.5462 9.5457c-1.7317 1.9341-2.898 3.23-3.8949 4.0681-.95.7983-1.5078.9723-1.9953.9723-.4873 0-1.045-.174-1.995-.9723-.9971-.8381-2.1632-2.134-3.8949-4.0681l-2.2048-2.4625c-.7008-.7828-1.9034-.8493-2.6862-.1484-.7829.7008-.8493 1.9034-.1485 2.6862l2.299 2.5678c1.6127 1.8017 2.9581 3.3044 4.1874 4.3375 1.3002 1.093 2.7029 1.8646 4.443 1.8646 1.7404 0 3.1428-.7716 4.4433-1.8646 1.2293-1.0331 2.5747-2.5358 4.1874-4.3375z"/></g></svg>