<svg width="30" height="30" viewBox="0 0 30 30" fill="none" xmlns="http://www.w3.org/2000/svg">
<path d="M19.5226 13.9104C21.4422 12.5105 22.6922 10.2448 22.6922 7.6923C22.6922 3.45076 19.2414 0 14.9999 0C10.7584 0 7.3076 3.45076 7.3076 7.6923C7.3076 10.2448 8.55758 12.5105 10.4772 13.9104C5.70535 15.7365 2.30762 20.3631 2.30762 25.7692C2.30762 28.1021 4.20553 30 6.53838 30H23.4614C25.7943 30 27.6922 28.1021 27.6922 25.7692C27.6922 20.3631 24.2945 15.7365 19.5226 13.9104ZM9.61531 7.6923C9.61531 4.72324 12.0308 2.30771 14.9999 2.30771C17.969 2.30771 20.3845 4.72324 20.3845 7.6923C20.3845 10.6614 17.969 13.077 14.9999 13.077C12.0308 13.077 9.61531 10.6614 9.61531 7.6923ZM23.4614 27.6923H6.53838C5.47801 27.6923 4.61533 26.8296 4.61533 25.7692C4.61533 20.043 9.27377 15.3846 15 15.3846C20.7262 15.3846 25.3846 20.043 25.3846 25.7692C25.3845 26.8296 24.5219 27.6923 23.4614 27.6923Z" fill="url(#paint0_linear_1470_2924)"/>
<defs>
<linearGradient id="paint0_linear_1470_2924" x1="14.9999" y1="0" x2="14.9999" y2="30" gradientUnits="userSpaceOnUse">
<stop stop-color="#5558FF"/>
<stop offset="1" stop-color="#00C0FF"/>
</linearGradient>
</defs>
</svg>
