<svg width="58" height="58" viewBox="0 0 58 58" fill="none" xmlns="http://www.w3.org/2000/svg"> 
<g filter="url(#filter0_d_6924_16396)">
<rect x="3" y="3" width="50" height="50" rx="25" fill="white" fill-opacity="0.07" shape-rendering="crispEdges"/>
<rect x="3" y="3" width="50" height="50" rx="25" fill="#A0DFF2" fill-opacity="0.15" style="mix-blend-mode:color-dodge" shape-rendering="crispEdges"/>
<path d="M31.845 37.7787C31.8458 38.8903 32.1126 39.9856 32.6233 40.973C32.6633 41.0435 32.6843 41.1233 32.6841 41.2045C32.6839 41.2857 32.6626 41.3654 32.6222 41.4358C32.5818 41.5062 32.5238 41.5648 32.4538 41.6059C32.3838 41.6471 32.3044 41.6693 32.2232 41.6703H20.9483C17.3836 41.6703 15.5 39.8023 15.5 36.2532C15.5 32.2837 17.7416 27.6604 24.0616 27.6604H30.2883C31.5229 27.5878 32.7579 27.7967 33.8999 28.2714C35.042 28.746 36.0612 29.4739 36.8808 30.4001C36.9257 30.4608 36.9552 30.5315 36.9668 30.6061C36.9784 30.6807 36.9718 30.757 36.9475 30.8284C36.9231 30.8999 36.8818 30.9644 36.8271 31.0164C36.7724 31.0684 36.7059 31.1064 36.6332 31.1271C35.2361 31.5899 34.0208 32.4822 33.161 33.6768C32.3011 34.8713 31.8405 36.3069 31.845 37.7787ZM27.189 24.5471C28.4205 24.5471 29.6244 24.1819 30.6483 23.4977C31.6723 22.8135 32.4704 21.841 32.9417 20.7032C33.4129 19.5655 33.5362 18.3135 33.296 17.1056C33.0557 15.8978 32.4627 14.7883 31.5919 13.9175C30.7211 13.0467 29.6116 12.4537 28.4037 12.2134C27.1959 11.9731 25.9439 12.0964 24.8061 12.5677C23.6684 13.039 22.6959 13.8371 22.0117 14.8611C21.3275 15.885 20.9623 17.0889 20.9623 18.3204C20.9623 19.9718 21.6183 21.5556 22.7861 22.7233C23.9538 23.891 25.5376 24.5471 27.189 24.5471ZM42.7416 36.6112H40.7958V34.6654C40.7958 34.3557 40.6728 34.0588 40.4538 33.8398C40.2349 33.6209 39.9379 33.4979 39.6283 33.4979C39.3186 33.4979 39.0217 33.6209 38.8027 33.8398C38.5838 34.0588 38.4608 34.3557 38.4608 34.6654V36.6112H36.5149C36.2053 36.6112 35.9083 36.7342 35.6894 36.9531C35.4704 37.1721 35.3474 37.469 35.3474 37.7787C35.3474 38.0883 35.4704 38.3853 35.6894 38.6042C35.9083 38.8232 36.2053 38.9462 36.5149 38.9462H38.4608V40.892C38.4608 41.2016 38.5838 41.4986 38.8027 41.7176C39.0217 41.9365 39.3186 42.0595 39.6283 42.0595C39.9379 42.0595 40.2349 41.9365 40.4538 41.7176C40.6728 41.4986 40.7958 41.2016 40.7958 40.892V38.9462H42.7416C43.0512 38.9462 43.3482 38.8232 43.5671 38.6042C43.7861 38.3853 43.9091 38.0883 43.9091 37.7787C43.9091 37.469 43.7861 37.1721 43.5671 36.9531C43.3482 36.7342 43.0512 36.6112 42.7416 36.6112Z" fill="white"/>
</g>
<defs>
<filter id="filter0_d_6924_16396" x="0" y="0" width="58" height="58" filterUnits="userSpaceOnUse" color-interpolation-filters="sRGB">
<feFlood flood-opacity="0" result="BackgroundImageFix"/>
<feColorMatrix in="SourceAlpha" type="matrix" values="0 0 0 0 0 0 0 0 0 0 0 0 0 0 0 0 0 0 127 0" result="hardAlpha"/>
<feOffset dx="1" dy="1"/>
<feGaussianBlur stdDeviation="2"/>
<feComposite in2="hardAlpha" operator="out"/>
<feColorMatrix type="matrix" values="0 0 0 0 0 0 0 0 0 0 0 0 0 0 0 0 0 0 0.12 0"/>
<feBlend mode="normal" in2="BackgroundImageFix" result="effect1_dropShadow_6924_16396"/>
<feBlend mode="normal" in="SourceGraphic" in2="effect1_dropShadow_6924_16396" result="shape"/>
</filter>
</defs>
</svg>
