<svg width="19" height="20" viewBox="0 0 19 20" fill="none" xmlns="http://www.w3.org/2000/svg">
<g id="live-fill-svgrepo-com (1) 2" clip-path="url(#clip0_1705_16287)">
<g id="Group">
<path id="Vector" d="M12.8203 3.33594C13.0413 3.33594 13.2533 3.42374 13.4096 3.58002C13.5658 3.7363 13.6536 3.94826 13.6536 4.16927V7.66927L17.9978 4.6276C18.0603 4.58382 18.1336 4.55802 18.2097 4.55302C18.2858 4.54802 18.3618 4.56402 18.4295 4.59927C18.4971 4.63451 18.5538 4.68765 18.5934 4.7529C18.6329 4.81814 18.6537 4.89299 18.6536 4.96927V15.0359C18.6537 15.1122 18.6329 15.1871 18.5934 15.2523C18.5538 15.3176 18.4971 15.3707 18.4295 15.4059C18.3618 15.4412 18.2858 15.4572 18.2097 15.4522C18.1336 15.4472 18.0603 15.4214 17.9978 15.3776L13.6536 12.3359V15.8359C13.6536 16.057 13.5658 16.2689 13.4096 16.4252C13.2533 16.5815 13.0413 16.6693 12.8203 16.6693H1.15365C0.932632 16.6693 0.72067 16.5815 0.56439 16.4252C0.40811 16.2689 0.320313 16.057 0.320312 15.8359V4.16927C0.320312 3.94826 0.40811 3.7363 0.56439 3.58002C0.72067 3.42374 0.932632 3.33594 1.15365 3.33594H12.8203ZM5.65365 7.3601C5.5768 7.36009 5.50231 7.38662 5.44279 7.43522C5.38326 7.48381 5.34235 7.55148 5.32698 7.62677L5.32031 7.6926V12.3109C5.32031 12.3649 5.33341 12.4181 5.3585 12.4659C5.38358 12.5137 5.4199 12.5547 5.46433 12.5853C5.50876 12.616 5.55997 12.6354 5.61356 12.6419C5.66715 12.6484 5.72151 12.6418 5.77198 12.6226L5.83281 12.5926L9.46198 10.2826C9.50432 10.2555 9.53999 10.2192 9.56632 10.1764C9.59264 10.1335 9.60894 10.0853 9.61399 10.0353C9.61904 9.98529 9.61271 9.93477 9.59548 9.88755C9.57825 9.84033 9.55056 9.79761 9.51448 9.7626L9.46198 9.72094L5.83281 7.41094C5.77904 7.37761 5.7169 7.35943 5.65365 7.3601Z" fill=""/>
</g>
</g>
<defs>
<clipPath id="clip0_1705_16287">
<rect width="19" height="20" fill="white"/>
</clipPath>
</defs>
</svg>
