<svg fill="none" height="19" viewBox="0 0 22 19" width="22" xmlns="http://www.w3.org/2000/svg"><path d="m14.6777.0214844h-8.14665c-.96377 0-1.74934.7670416-1.71297 1.6959356.00727.18648.01455.37296.02546.55593h-3.84056c-.483706 0-.872853.37648-.872853.84445 0 3.25816 1.218363 5.5241 2.854963 7.0617 1.61114 1.5165 3.57506 2.28 5.02254 2.6671.85104.2287 1.43294.9148 1.43294 1.6044 0 .7354-.61827 1.3335-1.37838 1.3335h-.94923c-.64373 0-1.16381.5032-1.16381 1.126 0 .6227.52008 1.1259 1.16381 1.1259h6.98284c.6437 0 1.1638-.5032 1.1638-1.1259 0-.6228-.5201-1.126-1.1638-1.126h-.9492c-.7602 0-1.3784-.5981-1.3784-1.3335 0-.6896.5782-1.3793 1.4329-1.6044 1.4511-.3871 3.4151-1.1506 5.0262-2.6671 1.633-1.5376 2.8513-3.80354 2.8513-7.0617 0-.46797-.3891-.84445-.8728-.84445h-3.8406c.0109-.18297.0182-.36593.0255-.55593.0363-.928894-.7492-1.6959356-1.713-1.6959356zm-12.76913 3.9407656h3.06953c.33096 3.1702 1.06197 5.28836 1.88755 6.70635-.90559-.3871-1.84754-.93243-2.66221-1.69947-1.1638-1.09427-2.10939-2.67409-2.29124-5.00688zm15.10033 5.00688c-.8146.76704-1.7566 1.31237-2.6622 1.69947.8256-1.41799 1.5566-3.53615 1.8876-6.70635h3.0695c-.1855 2.33279-1.1311 3.91261-2.2912 5.00688z" fill="#fff"/></svg>