<svg width="40" height="27" viewBox="0 0 40 27" fill="none" xmlns="http://www.w3.org/2000/svg">
<path d="M12.5 7.5C13.1904 7.5 13.75 6.94036 13.75 6.25C13.75 5.55964 13.1904 5 12.5 5C11.8096 5 11.25 5.55964 11.25 6.25C11.25 6.94036 11.8096 7.5 12.5 7.5Z" fill="url(#paint0_linear_1470_2731)"/>
<path d="M7.5 7.5C8.19036 7.5 8.75 6.94036 8.75 6.25C8.75 5.55964 8.19036 5 7.5 5C6.80964 5 6.25 5.55964 6.25 6.25C6.25 6.94036 6.80964 7.5 7.5 7.5Z" fill="url(#paint1_linear_1470_2731)"/>
<path d="M17.5 7.5C18.1904 7.5 18.75 6.94036 18.75 6.25C18.75 5.55964 18.1904 5 17.5 5C16.8096 5 16.25 5.55964 16.25 6.25C16.25 6.94036 16.8096 7.5 17.5 7.5Z" fill="url(#paint2_linear_1470_2731)"/>
<path d="M22.5 7.5C23.1904 7.5 23.75 6.94036 23.75 6.25C23.75 5.55964 23.1904 5 22.5 5C21.8096 5 21.25 5.55964 21.25 6.25C21.25 6.94036 21.8096 7.5 22.5 7.5Z" fill="url(#paint3_linear_1470_2731)"/>
<path d="M39.5193 9.01477C39.3696 8.89786 39.1952 8.81662 39.0093 8.77722C38.8235 8.73781 38.6312 8.74127 38.4469 8.78734C36.3118 9.32109 34.203 8.77734 32 7.125C31.7836 6.96272 31.5205 6.875 31.25 6.875C30.9795 6.875 30.7164 6.96272 30.5 7.125C28.2969 8.77734 26.1882 9.32117 24.0531 8.78734C23.8688 8.74128 23.6765 8.73782 23.4907 8.77723C23.3048 8.81664 23.1305 8.89788 22.9807 9.01478C22.831 9.13168 22.7099 9.28117 22.6266 9.45188C22.5433 9.62259 22.5 9.81005 22.5 10V18.75C22.5 18.8899 22.5235 19.0288 22.5695 19.1609C23.6901 22.3808 26.3669 24.8704 30.7528 26.7719C30.9097 26.8399 31.079 26.875 31.25 26.875C31.421 26.875 31.5903 26.8399 31.7472 26.7719C36.1331 24.8704 38.8097 22.3808 39.9305 19.1609C39.9765 19.0288 40 18.8899 40 18.75V10C40 9.81005 39.9567 9.62259 39.8734 9.45188C39.7901 9.28116 39.669 9.13167 39.5193 9.01477ZM37.5 18.5302C36.6204 20.85 34.5709 22.7281 31.25 24.2561C27.9291 22.7281 25.8796 20.8498 25 18.5302V11.4626C27.098 11.6132 29.1916 11.0077 31.25 9.65297C33.3085 11.0078 35.4019 11.6134 37.5 11.4626V18.5302Z" fill="url(#paint4_linear_1470_2731)"/>
<path d="M38.75 0H1.25C0.918479 0 0.600537 0.131696 0.366117 0.366117C0.131696 0.600537 0 0.918479 0 1.25L0 11.25C0 11.5815 0.131696 11.8995 0.366117 12.1339C0.600537 12.3683 0.918479 12.5 1.25 12.5H21.25V10H2.5V2.5H27.5V7.39016C28.23 7.12453 28.9759 6.70555 29.75 6.125C30.1827 5.80044 30.7091 5.625 31.25 5.625C31.7909 5.625 32.3173 5.80044 32.75 6.125C34.1948 7.20867 35.5421 7.73531 36.869 7.73523C37.2989 7.73396 37.727 7.68004 38.1437 7.57469C38.7731 7.41703 39.4391 7.5113 40 7.83742V1.25C40 0.918479 39.8683 0.600537 39.6339 0.366117C39.3995 0.131696 39.0815 0 38.75 0Z" fill="url(#paint5_linear_1470_2731)"/>
<path d="M26.25 12.7131V18.288C27.0048 20.0797 28.6484 21.5868 31.25 22.8701C33.8516 21.5868 35.4952 20.0797 36.25 18.288V12.7131C34.5625 12.6074 32.888 12.074 31.25 11.1211C29.612 12.074 27.9375 12.6077 26.25 12.7131ZM35.8838 15.2571L31.5088 19.6321C31.2961 19.8449 31.0137 19.9737 30.7136 19.9951C30.4135 20.0164 30.1157 19.9288 29.875 19.7483L27.375 17.8733L28.875 15.8733L30.5078 17.0978L34.1162 13.4895L35.8838 15.2571Z" fill="url(#paint6_linear_1470_2731)"/>
<defs>
<linearGradient id="paint0_linear_1470_2731" x1="12.5" y1="5" x2="12.5" y2="7.5" gradientUnits="userSpaceOnUse">
<stop stop-color="#5558FF"/>
<stop offset="1" stop-color="#00C0FF"/>
</linearGradient>
<linearGradient id="paint1_linear_1470_2731" x1="7.5" y1="5" x2="7.5" y2="7.5" gradientUnits="userSpaceOnUse">
<stop stop-color="#5558FF"/>
<stop offset="1" stop-color="#00C0FF"/>
</linearGradient>
<linearGradient id="paint2_linear_1470_2731" x1="17.5" y1="5" x2="17.5" y2="7.5" gradientUnits="userSpaceOnUse">
<stop stop-color="#5558FF"/>
<stop offset="1" stop-color="#00C0FF"/>
</linearGradient>
<linearGradient id="paint3_linear_1470_2731" x1="22.5" y1="5" x2="22.5" y2="7.5" gradientUnits="userSpaceOnUse">
<stop stop-color="#5558FF"/>
<stop offset="1" stop-color="#00C0FF"/>
</linearGradient>
<linearGradient id="paint4_linear_1470_2731" x1="31.25" y1="6.875" x2="31.25" y2="26.875" gradientUnits="userSpaceOnUse">
<stop stop-color="#5558FF"/>
<stop offset="1" stop-color="#00C0FF"/>
</linearGradient>
<linearGradient id="paint5_linear_1470_2731" x1="20" y1="0" x2="20" y2="12.5" gradientUnits="userSpaceOnUse">
<stop stop-color="#5558FF"/>
<stop offset="1" stop-color="#00C0FF"/>
</linearGradient>
<linearGradient id="paint6_linear_1470_2731" x1="31.25" y1="11.1211" x2="31.25" y2="22.8701" gradientUnits="userSpaceOnUse">
<stop stop-color="#5558FF"/>
<stop offset="1" stop-color="#00C0FF"/>
</linearGradient>
</defs>
</svg>
