<svg width="50" height="50" viewBox="0 0 50 50" fill="none" xmlns="http://www.w3.org/2000/svg">
<path d="M27.5564 45.002H22.4344C15.4434 45.002 11.9343 45.002 9.36348 42.3714C6.84744 39.7956 6.47795 35.8703 5.74288 28.051L5.31084 23.4667C4.91984 19.3047 4.75758 17.5817 5.68228 16.4629C5.93605 16.1486 6.25012 15.8881 6.60601 15.697C6.96189 15.5059 7.3524 15.388 7.75454 15.3501C9.24031 15.221 10.3429 16.4747 13.0056 19.5062C13.7172 20.3178 14.4522 21.1549 14.7005 21.2116C14.8198 21.23 14.9418 21.2095 15.0485 21.153C15.2929 21.0297 15.7894 20.0108 16.3173 18.9312L20.5263 10.3002C22.2486 6.77978 23.1108 5 24.9934 5C26.876 5 27.7421 6.76609 29.4722 10.3002L33.6813 18.9292C34.2091 20.0088 34.7057 21.0297 34.952 21.153C35.059 21.2085 35.1807 21.2291 35.3 21.2116C35.5463 21.1549 36.2775 20.3178 36.993 19.5081C39.6556 16.4747 40.7563 15.2191 42.246 15.3501C42.6478 15.3881 43.038 15.5061 43.3935 15.6973C43.7491 15.8884 44.0628 16.1487 44.3163 16.4629C45.2429 17.5817 45.0807 19.3047 44.6877 23.4667L43.8021 32.6452C43.8012 32.651 43.8012 32.657 43.8021 32.6628C43.2723 37.3998 42.6135 40.3511 40.639 42.3714C38.0565 45.002 34.5551 45.002 27.5564 45.002ZM7.92658 17.6931C7.75445 17.7248 7.60036 17.8197 7.49453 17.9591C7.19347 18.3855 7.41438 20.7461 7.65093 23.2398L8.08102 27.8261C8.76526 35.0939 9.10933 38.7434 11.0447 40.7344C12.9254 42.6589 16.1042 42.6589 22.4383 42.6589H27.5564C33.8904 42.6589 37.0692 42.6589 38.9499 40.7344C40.4474 39.2011 40.987 36.6272 41.4581 32.4144L42.3437 23.2476C42.5783 20.7501 42.8012 18.3894 42.4981 17.967C42.3916 17.8287 42.2377 17.7346 42.0661 17.7029C41.5617 17.8594 40.1932 19.4182 38.7427 21.0649C37.4367 22.5533 36.7193 23.3708 35.6519 23.539C35.0506 23.6335 34.4348 23.5356 33.8924 23.2593C32.9384 22.7802 32.4809 21.8414 31.5679 19.9697L27.3589 11.3388C26.489 9.55506 25.4118 7.35283 24.9973 7.35283C24.5829 7.35283 23.5037 9.56093 22.6396 11.3348L18.4286 19.9658C17.5157 21.8375 17.0602 22.7763 16.1061 23.2554C15.5637 23.5317 14.948 23.6296 14.3467 23.5351C13.2793 23.3669 12.5598 22.5572 11.2539 21.061C9.79943 19.4064 8.43096 17.8496 7.92658 17.6931Z" fill="#6C7AAB"/>
<path d="M15.9698 29.1819L18.2454 35.9215L20.5268 29.1349C20.6441 28.779 20.7341 28.5306 20.7927 28.3917C20.8588 28.2437 20.9602 28.1141 21.0879 28.0143C21.2503 27.8943 21.4494 27.8348 21.6509 27.8461C21.8205 27.8452 21.9873 27.8898 22.1338 27.9751C22.2781 28.0589 22.3981 28.1789 22.4818 28.3233C22.5636 28.4534 22.6076 28.6037 22.6089 28.7574C22.6076 28.8675 22.5939 28.9771 22.5678 29.0841C22.5408 29.2001 22.5068 29.3144 22.4662 29.4263C22.4244 29.5385 22.3834 29.6539 22.343 29.7725L19.9091 36.3401C19.823 36.5904 19.7351 36.829 19.6491 37.0559C19.5699 37.2617 19.469 37.4584 19.348 37.6426C19.2303 37.8158 19.0745 37.9597 18.8925 38.0631C18.6791 38.1786 18.439 38.2353 18.1965 38.2274C17.9545 38.2353 17.7147 38.1801 17.5005 38.0671C17.3159 37.9641 17.1584 37.8186 17.0411 37.6426C16.9189 37.454 16.8173 37.2527 16.7381 37.0422C16.6501 36.8193 16.5641 36.5807 16.4761 36.3303L14.0852 29.8175C14.0442 29.6982 14.0012 29.5828 13.9582 29.4674C13.9128 29.347 13.8762 29.2235 13.8487 29.0977C13.8219 28.9875 13.8068 28.8748 13.8037 28.7614C13.8056 28.6416 13.8314 28.5235 13.8798 28.414C13.9281 28.3045 13.998 28.2058 14.0852 28.1238C14.1765 28.0295 14.2864 27.9553 14.4079 27.9058C14.5294 27.8563 14.6598 27.8326 14.791 27.8363C14.9308 27.822 15.072 27.8438 15.201 27.8997C15.33 27.9555 15.4426 28.0434 15.528 28.1551C15.7193 28.4767 15.8678 28.8218 15.9698 29.1819Z" fill="white"/>
<path d="M15.9698 29.1819L18.2454 35.9215L20.5268 29.1349C20.6441 28.779 20.7341 28.5306 20.7927 28.3917C20.8588 28.2437 20.9602 28.1141 21.0879 28.0143C21.2503 27.8943 21.4494 27.8348 21.6509 27.8461C21.8205 27.8452 21.9873 27.8898 22.1338 27.9751C22.2781 28.0589 22.3981 28.1789 22.4818 28.3233C22.5636 28.4534 22.6076 28.6037 22.6089 28.7574C22.6076 28.8675 22.5939 28.9771 22.5678 29.0841C22.5408 29.2001 22.5068 29.3144 22.4662 29.4263C22.4244 29.5385 22.3834 29.6539 22.343 29.7725L19.9091 36.3401C19.823 36.5904 19.7351 36.829 19.6491 37.0559C19.5699 37.2617 19.469 37.4584 19.348 37.6426C19.2303 37.8158 19.0745 37.9597 18.8925 38.0631C18.6791 38.1786 18.439 38.2353 18.1965 38.2274C17.9545 38.2353 17.7147 38.1801 17.5005 38.0671C17.3159 37.9641 17.1584 37.8186 17.0411 37.6426C16.9189 37.454 16.8173 37.2527 16.7381 37.0422C16.6501 36.8193 16.5641 36.5807 16.4761 36.3303L14.0852 29.8175C14.0442 29.6982 14.0012 29.5828 13.9582 29.4674C13.9128 29.347 13.8762 29.2235 13.8487 29.0977C13.8219 28.9875 13.8068 28.8748 13.8037 28.7614C13.8056 28.6416 13.8314 28.5235 13.8798 28.414C13.9281 28.3045 13.998 28.2058 14.0852 28.1238C14.1765 28.0295 14.2864 27.9553 14.4079 27.9058C14.5294 27.8563 14.6598 27.8326 14.791 27.8363C14.9308 27.822 15.072 27.8438 15.201 27.8997C15.33 27.9555 15.4426 28.0434 15.528 28.1551C15.7193 28.4767 15.8678 28.8218 15.9698 29.1819Z" fill="#35C0FF"/>
<path d="M24.2207 36.9994V29.0823C24.195 28.7495 24.2956 28.4192 24.5024 28.1572C24.5935 28.056 24.7056 27.9758 24.8309 27.9225C24.9563 27.8691 25.0917 27.8437 25.2279 27.8482C25.3663 27.8435 25.5041 27.8683 25.6322 27.9209C25.7603 27.9735 25.8758 28.0527 25.971 28.1533C26.1809 28.4154 26.2829 28.7476 26.2565 29.0823V36.9994C26.2822 37.3352 26.1802 37.6684 25.971 37.9323C25.8766 38.0341 25.7613 38.1142 25.6331 38.1672C25.5048 38.2202 25.3666 38.2448 25.2279 38.2394C25.092 38.2429 24.9569 38.2169 24.832 38.1633C24.7071 38.1096 24.5953 38.0294 24.5043 37.9284C24.2967 37.6652 24.1955 37.3336 24.2207 36.9994Z" fill="white"/>
<path d="M24.2207 36.9994V29.0823C24.195 28.7495 24.2956 28.4192 24.5024 28.1572C24.5935 28.056 24.7056 27.9758 24.8309 27.9225C24.9563 27.8691 25.0917 27.8437 25.2279 27.8482C25.3663 27.8435 25.5041 27.8683 25.6322 27.9209C25.7603 27.9735 25.8758 28.0527 25.971 28.1533C26.1809 28.4154 26.2829 28.7476 26.2565 29.0823V36.9994C26.2822 37.3352 26.1802 37.6684 25.971 37.9323C25.8766 38.0341 25.7613 38.1142 25.6331 38.1672C25.5048 38.2202 25.3666 38.2448 25.2279 38.2394C25.092 38.2429 24.9569 38.2169 24.832 38.1633C24.7071 38.1096 24.5953 38.0294 24.5043 37.9284C24.2967 37.6652 24.1955 37.3336 24.2207 36.9994Z" fill="#35C0FF"/>
<path d="M32.43 34.1484H30.5649V36.9941C30.589 37.3277 30.4864 37.6581 30.2775 37.9192C30.1869 38.0214 30.075 38.1026 29.9497 38.157C29.8244 38.2114 29.6888 38.2377 29.5522 38.2341C29.4135 38.2396 29.2753 38.2146 29.1473 38.1608C29.0193 38.1071 28.9046 38.026 28.8113 37.9231C28.6064 37.6639 28.506 37.3374 28.5298 37.0078V29.2589C28.5298 28.8117 28.6328 28.4923 28.8387 28.3006C29.0342 28.105 29.3704 28.0111 29.8162 28.0111H32.43C33.0289 27.9924 33.6278 28.0529 34.2109 28.1911C34.6053 28.2957 34.9701 28.4905 35.2764 28.7602C35.5773 29.0281 35.811 29.3631 35.9587 29.7381C36.1187 30.1514 36.1977 30.5916 36.1913 31.0348C36.1913 32.0583 35.8759 32.8341 35.2451 33.3622C34.6143 33.8903 33.6759 34.1523 32.43 34.1484ZM31.9353 29.5425H30.5669V32.6131H31.9353C32.342 32.6235 32.748 32.5727 33.1396 32.4625C33.4317 32.3826 33.6898 32.2096 33.8747 31.9697C34.0548 31.7061 34.144 31.3909 34.1288 31.072C34.145 30.6736 34.0047 30.2846 33.7378 29.9884C33.4465 29.697 32.8444 29.5484 31.9353 29.5484V29.5425Z" fill="white"/>
<path d="M32.43 34.1484H30.5649V36.9941C30.589 37.3277 30.4864 37.6581 30.2775 37.9192C30.1869 38.0214 30.075 38.1026 29.9497 38.157C29.8244 38.2114 29.6888 38.2377 29.5522 38.2341C29.4135 38.2396 29.2753 38.2146 29.1473 38.1608C29.0193 38.1071 28.9046 38.026 28.8113 37.9231C28.6064 37.6639 28.506 37.3374 28.5298 37.0078V29.2589C28.5298 28.8117 28.6328 28.4923 28.8387 28.3006C29.0342 28.105 29.3704 28.0111 29.8162 28.0111H32.43C33.0289 27.9924 33.6278 28.0529 34.2109 28.1911C34.6053 28.2957 34.9701 28.4905 35.2764 28.7602C35.5773 29.0281 35.811 29.3631 35.9587 29.7381C36.1187 30.1514 36.1977 30.5916 36.1913 31.0348C36.1913 32.0583 35.8759 32.8341 35.2451 33.3622C34.6143 33.8903 33.6759 34.1523 32.43 34.1484ZM31.9353 29.5425H30.5669V32.6131H31.9353C32.342 32.6235 32.748 32.5727 33.1396 32.4625C33.4317 32.3826 33.6898 32.2096 33.8747 31.9697C34.0548 31.7061 34.144 31.3909 34.1288 31.072C34.145 30.6736 34.0047 30.2846 33.7378 29.9884C33.4465 29.697 32.8444 29.5484 31.9353 29.5484V29.5425Z" fill="#35C0FF"/>
</svg>
