<svg width="31" height="28" viewBox="0 0 31 28" fill="none" xmlns="http://www.w3.org/2000/svg"> 
<g id="Frame" clip-path="url(#clip0_1919_14274)">
<path id="Vector" d="M30.3153 8.27997C29.6415 7.51671 25.5099 2.63184 23.9335 0.927222C23.4504 0.405659 23.0817 0.0367496 22.3444 0.0113076C21.5943 -0.0141345 9.58076 0.0113076 9.58076 0.0113076C9.17395 0.0113076 8.64001 0.100355 7.96623 0.90178C6.37714 2.75905 2.80485 6.85522 1.60985 8.27997C0.796231 9.22133 0.694529 10.5698 1.60985 11.9564C3.56762 14.2334 8.95783 20.4286 14.3735 26.6619C15.1362 27.5523 15.6193 27.5778 15.9626 27.5778C16.2931 27.5778 16.7762 27.5651 17.5517 26.6619C22.9165 20.4794 28.0651 14.5769 30.3153 11.9564C31.0781 11.0404 31.2179 9.37398 30.3153 8.27997ZM28.7135 11.0404C26.9083 13.1394 21.5053 19.1437 17.2211 24.1049C16.5982 24.83 16.2168 24.8428 15.9499 24.8428C15.6829 24.8428 15.2888 24.8173 14.6786 24.1049C10.3562 19.1056 4.73719 12.8723 3.17352 11.0404C2.74129 10.5952 2.754 9.84466 3.17352 9.20861C4.12698 8.06372 7.48315 4.24741 8.75443 2.77177C9.69517 1.67776 10.5215 1.85586 10.852 1.85586C10.852 1.85586 20.4375 1.85586 21.035 1.85586C22.2554 1.85586 22.5478 2.123 23.1199 2.77177C24.3403 4.1838 28.1795 8.598 28.7008 9.20861C29.1839 9.8701 29.044 10.5062 28.7135 11.0404Z" fill="#FFF"/>
<path id="Vector_2" d="M24.428 9.19531H21.4024C21.2371 9.19531 20.9956 9.22075 20.7922 9.52606L15.9613 16.3445C15.9613 16.3445 15.9613 16.3573 15.9486 16.37C15.9486 16.3573 15.9486 16.3573 15.9486 16.3445L11.105 9.53878C10.9016 9.22075 10.6728 9.20803 10.4948 9.20803H7.46917C7.3039 9.20803 7.16406 9.36069 7.16406 9.53878V11.218C7.16406 11.4088 7.3039 11.5487 7.46917 11.5487C7.46917 11.5487 7.52002 11.5487 7.76156 11.5487C8.1938 11.5487 8.16837 11.6377 8.37178 11.8794C9.8846 13.9403 15.9359 22.0563 15.9359 22.0563C15.9359 22.0435 15.9359 22.0308 15.9359 22.0181C15.9359 22.0308 15.9359 22.0435 15.9486 22.0563C15.9486 22.0563 21.9999 13.9403 23.5127 11.8794C23.7161 11.625 23.6907 11.5487 24.1229 11.5487C24.3644 11.5487 24.4026 11.5487 24.4153 11.5487C24.5806 11.5487 24.7204 11.3961 24.7204 11.218V9.53878C24.7204 9.34796 24.5933 9.19531 24.428 9.19531Z" fill="#FFF"/>
</g>
<defs>
<clipPath id="clip0_1919_14274">
<rect width="29.9805" height="27.5779" fill="white" transform="translate(0.960938)"/>
</clipPath>
</defs>
</svg>
