<svg width="38" height="26" viewBox="0 0 38 26" fill="none" xmlns="http://www.w3.org/2000/svg">
<path d="M0.22 9H6.7L11.28 19.32L15.12 9H16.66L11.38 23H6.42L0.22 9Z" fill="#623421"/>
<path d="M18.447 8.79688H23.663L19.7785 19.9969H14.5625L18.447 8.79688Z" fill="#623421"/>
<path d="M24.572 8.79688H34.732C35.6707 8.79688 36.428 9.06888 37.004 9.61287C37.58 10.1462 37.868 10.8715 37.868 11.7889C37.868 12.3329 37.2707 12.8395 37.004 13.3089C36.7374 13.7782 35.9684 14.1515 35.499 14.4289C35.0297 14.7062 33.5964 14.8449 32.999 14.8449L28.119 14.8609L25.9995 19.9969H20.6875L24.572 8.79688ZM28.679 13.9329C29.063 13.9329 30.499 13.5 30.499 13.5L31.499 13C31.499 13 32.499 12.5 32.556 11.8369C32.6131 11.1737 32.46 11.1009 32.268 10.7809C32.0867 10.4502 31.8307 10.1889 31.5 9.99688C31.18 9.80488 30.828 9.70888 30.444 9.70888H29.884L28.119 13.9329H28.679Z" fill="#623421"/>
</svg>
