<svg width="551" height="205" viewBox="0 0 551 205" fill="none" xmlns="http://www.w3.org/2000/svg">
<path d="M0 0H84.2742L143.838 144.414L193.779 0H213.807L145.139 195.911H80.6327L0 0Z" fill="#0A3493"/>
<path d="M231.552 39.5625H317.348L253.453 204.392H167.656L231.552 39.5625Z" fill="#0A3493"/>
<path d="M332.3 39.5625H499.418C514.858 39.5625 527.315 43.5655 536.79 51.5715C546.264 59.4205 551.002 70.0951 551.002 83.5954C551.002 91.6014 541.176 99.0579 536.79 105.965C532.404 112.872 519.754 118.366 512.034 122.448C504.315 126.529 480.738 128.57 470.913 128.57L390.643 128.806L355.78 204.392H268.404L332.3 39.5625ZM399.854 115.148C406.171 115.148 429.791 108.778 429.791 108.778L446.24 101.419C446.24 101.419 462.688 94.0609 463.626 84.3018C464.564 74.5427 462.047 73.4702 458.889 68.7608C455.906 63.8944 451.695 60.0484 446.256 57.2228C440.993 54.3971 435.203 52.9843 428.887 52.9843H419.675L390.643 115.148H399.854Z" fill="#0A3493"/>
</svg>
