<svg fill="none" height="41" viewBox="0 0 23 41" width="23" xmlns="http://www.w3.org/2000/svg"><path d="m14.411 13.4375-7.6248 11.6622h-3.38377l-2.761805-11.6622h3.525575l1.737 7.581 4.9661-7.581z" fill="#6c7aab"/><path d="m11.6684 31.464c-.7813-.1844-1.5267-.4882-2.20746-.8998l1.35676-2.4734c.607.3768 1.2682.6664 1.9626.8595.6759.1918 1.3769.2897 2.0818.2907.5279.0265 1.0548-.0678 1.5372-.2752.1585-.061.2949-.1653.3923-.3.0973-.1346.1514-.2937.1555-.4575-.005-.1435-.0551-.2823-.1437-.3981-.0885-.1158-.2114-.2034-.3525-.2512-.4959-.2103-1.0104-.378-1.5372-.5008-.6664-.1652-1.3209-.3718-1.9594-.6184-.5214-.206-.9835-.5295-1.3471-.943-.3936-.4708-.5942-1.0635-.5639-1.6664-.0166-.7845.2334-1.5529.7122-2.189.5195-.6607 1.2234-1.1666 2.0302-1.4593.9858-.362 2.0353-.5373 3.0905-.5164.8189-.0054 1.6356.0818 2.4331.2598.682.1457 1.335.3963 1.9336.742l-1.2504 2.4487c-.4823-.2874-1.007-.5031-1.5565-.64-.5743-.151-1.1673-.2269-1.7628-.2257-.5557-.0295-1.1101.0769-1.6113.3091-.167.0698-.3101.1835-.4127.3279-.1027.1444-.1607.3137-.1674.4884.0035.147.0534.2896.1432.4088.0898.1193.2151.2096.3596.259.5048.2101 1.0278.3777 1.5629.5009.6637.1522 1.3161.3464 1.953.5812.5139.2022.9693.5204 1.3277.9275.3865.4538.5851 1.0285.5575 1.614.0105.7774-.2429 1.537-.7219 2.1642-.5274.6601-1.2376 1.1647-2.0496 1.4562-.9827.3606-2.0288.536-3.0808.5163-.9664.0076-1.9296-.1067-2.865-.34z" fill="#6c7aab"/><path d="m1.61465 36.797c1.31059-2.7654 2.78777-5.5076 4.32217-8.2403.75291-1.3693 1.56565-2.7291 2.34983-4.0949l2.43825-4.0793 2.5293-4.0662c.8751-1.3501 1.7138-2.7014 2.6177-4.0531.904-1.3516 1.7948-2.69868 2.7115-4.03985l2.8103-4.02395c-.2514.69898-.6019 1.38956-.9289 2.08094s-.6904 1.3765-1.033 2.06734l-1.0877 2.05792c-.3635.6877-.7529 1.3694-1.1163 2.0545s-.7581 1.3666-1.1553 2.0481l-1.1762 2.0474-2.4383 4.0793-2.54781 4.0731c-.87518 1.3501-1.72423 2.7011-2.63345 4.0525-1.78919 2.6889-3.64109 5.3756-5.66209 8.0365z" fill="#00a3ff"/></svg>