<svg width="40" height="40" viewBox="0 0 40 40" fill="none" xmlns="http://www.w3.org/2000/svg"> 
<path fill-rule="evenodd" clip-rule="evenodd" d="M20 0C21.1046 0 22 0.89543 22 2V7.99999C22 9.10456 21.1046 9.99999 20 9.99999C18.8954 9.99999 18 9.10456 18 7.99999V2C18 0.89543 18.8954 0 20 0ZM10 2.67949C10.9566 2.1272 12.1798 2.45495 12.7321 3.41154L15.7321 8.60769C16.2843 9.56428 15.9566 10.7875 15 11.3397C14.0434 11.892 12.8202 11.5643 12.2679 10.6077L9.26795 5.41153C8.71566 4.45495 9.04342 3.23177 10 2.67949ZM2.67949 9.99999C3.23177 9.04341 4.45495 8.71566 5.41154 9.26794L10.6077 12.2679C11.5643 12.8202 11.892 14.0434 11.3398 15C10.7875 15.9566 9.56429 16.2843 8.6077 15.732L3.41154 12.732C2.45496 12.1798 2.1272 10.9566 2.67949 9.99999ZM0 20C0 18.8955 0.895431 18 2 18H8C9.10457 18 10 18.8955 10 20C10 21.1046 9.10457 22 8 22H2C0.895431 22 0 21.1046 0 20ZM30 20C30 18.8955 30.8954 18 32 18H38C39.1046 18 40 18.8955 40 20C40 21.1046 39.1046 22 38 22H32C30.8954 22 30 21.1046 30 20ZM11.3398 25C11.892 25.9566 11.5643 27.1798 10.6077 27.7321L5.41154 30.7321C4.45495 31.2843 3.23177 30.9566 2.67949 30C2.1272 29.0434 2.45496 27.8202 3.41154 27.268L8.6077 24.268C9.56429 23.7157 10.7875 24.0434 11.3398 25ZM28.6604 25C29.2127 24.0434 30.4358 23.7157 31.3924 24.268L36.5884 27.268C37.545 27.8203 37.8727 29.0435 37.3204 30C36.7681 30.9566 35.545 31.2843 34.5884 30.732L29.3924 27.7321C28.4358 27.1798 28.1081 25.9566 28.6604 25ZM15 28.6602C15.9566 29.2124 16.2843 30.4356 15.7321 31.3922L12.7321 36.5884C12.1798 37.545 10.9566 37.8727 10 37.3205C9.04342 36.7682 8.71566 35.545 9.26795 34.5884L12.2679 29.3922C12.8202 28.4356 14.0434 28.1079 15 28.6602ZM25 28.6602C25.9566 28.1079 27.1798 28.4356 27.7321 29.3922L30.7321 34.5884C31.2843 35.545 30.9566 36.7682 30 37.3205C29.0434 37.8727 27.8202 37.545 27.2679 36.5884L24.2679 31.3922C23.7157 30.4356 24.0434 29.2124 25 28.6602ZM20 30C21.1046 30 22 30.8954 22 32V38C22 39.1046 21.1046 40 20 40C18.8954 40 18 39.1046 18 38V32C18 30.8954 18.8954 30 20 30Z" fill="#B6F6FF"/>
<path fill-rule="evenodd" clip-rule="evenodd" d="M20 0C21.1046 0 22 0.89543 22 2V7.99999C22 9.10456 21.1046 9.99999 20 9.99999C18.8954 9.99999 18 9.10456 18 7.99999V2C18 0.89543 18.8954 0 20 0ZM10 2.67949C10.9566 2.1272 12.1798 2.45495 12.7321 3.41154L15.7321 8.60769C16.2843 9.56428 15.9566 10.7875 15 11.3397C14.0434 11.892 12.8202 11.5643 12.2679 10.6077L9.26795 5.41153C8.71566 4.45495 9.04342 3.23177 10 2.67949ZM2.67949 9.99999C3.23177 9.04341 4.45495 8.71566 5.41154 9.26794L10.6077 12.2679C11.5643 12.8202 11.892 14.0434 11.3398 15C10.7875 15.9566 9.56429 16.2843 8.6077 15.732L3.41154 12.732C2.45496 12.1798 2.1272 10.9566 2.67949 9.99999ZM0 20C0 18.8955 0.895431 18 2 18H8C9.10457 18 10 18.8955 10 20C10 21.1046 9.10457 22 8 22H2C0.895431 22 0 21.1046 0 20ZM30 20C30 18.8955 30.8954 18 32 18H38C39.1046 18 40 18.8955 40 20C40 21.1046 39.1046 22 38 22H32C30.8954 22 30 21.1046 30 20ZM11.3398 25C11.892 25.9566 11.5643 27.1798 10.6077 27.7321L5.41154 30.7321C4.45495 31.2843 3.23177 30.9566 2.67949 30C2.1272 29.0434 2.45496 27.8202 3.41154 27.268L8.6077 24.268C9.56429 23.7157 10.7875 24.0434 11.3398 25ZM28.6604 25C29.2127 24.0434 30.4358 23.7157 31.3924 24.268L36.5884 27.268C37.545 27.8203 37.8727 29.0435 37.3204 30C36.7681 30.9566 35.545 31.2843 34.5884 30.732L29.3924 27.7321C28.4358 27.1798 28.1081 25.9566 28.6604 25ZM15 28.6602C15.9566 29.2124 16.2843 30.4356 15.7321 31.3922L12.7321 36.5884C12.1798 37.545 10.9566 37.8727 10 37.3205C9.04342 36.7682 8.71566 35.545 9.26795 34.5884L12.2679 29.3922C12.8202 28.4356 14.0434 28.1079 15 28.6602ZM25 28.6602C25.9566 28.1079 27.1798 28.4356 27.7321 29.3922L30.7321 34.5884C31.2843 35.545 30.9566 36.7682 30 37.3205C29.0434 37.8727 27.8202 37.545 27.2679 36.5884L24.2679 31.3922C23.7157 30.4356 24.0434 29.2124 25 28.6602ZM20 30C21.1046 30 22 30.8954 22 32V38C22 39.1046 21.1046 40 20 40C18.8954 40 18 39.1046 18 38V32C18 30.8954 18.8954 30 20 30Z" fill="url(#paint0_linear_11390_3245)"/>
<defs>
<linearGradient id="paint0_linear_11390_3245" x1="20" y1="0" x2="20" y2="40" gradientUnits="userSpaceOnUse">
<stop stop-color="white"/>
<stop offset="1" stop-color="white" stop-opacity="0"/>
</linearGradient>
</defs>
</svg>
