<svg width="40" height="30" viewBox="0 0 40 30" fill="none" xmlns="http://www.w3.org/2000/svg">
<path d="M37.5713 3.02775V24.222C37.5711 24.4566 37.5432 24.6904 37.4881 24.9184C37.3315 25.5818 36.9555 26.1729 36.4211 26.596C35.8868 27.0191 35.2252 27.2495 34.5436 27.2498H4.26604C3.58443 27.2495 2.92286 27.0191 2.38847 26.596C1.85409 26.1729 1.47815 25.5818 1.32155 24.9184C1.26642 24.6904 1.23847 24.4566 1.23829 24.222V3.02775C1.23806 2.9088 1.24564 2.78996 1.26099 2.67199C1.27315 2.55966 1.29339 2.44836 1.32155 2.33894V2.33137C1.47816 1.66799 1.85409 1.07689 2.38848 0.653774C2.92287 0.230658 3.58443 0.000300951 4.26604 0H34.5436C35.2252 0.0003023 35.8867 0.23066 36.4211 0.653775C36.9555 1.07689 37.3315 1.66799 37.4881 2.33137C37.5432 2.5594 37.5711 2.79316 37.5713 3.02775Z" fill="url(#paint0_linear_1483_142)"/>
<path d="M3.5091 24.2257C3.5085 24.4263 3.42856 24.6184 3.28673 24.7603C3.14491 24.9021 2.95273 24.982 2.75216 24.9826H1.61675C1.5153 24.9823 1.41493 24.9617 1.32154 24.9221C1.26641 24.694 1.23847 24.4603 1.23828 24.2257V23.5747C1.3524 23.5055 1.48329 23.4689 1.61675 23.4688H2.75216C2.95273 23.4693 3.14491 23.5493 3.28673 23.6911C3.42856 23.8329 3.5085 24.0251 3.5091 24.2257Z" fill="url(#paint1_linear_1483_142)"/>
<path d="M2.26772 24.9768H1.61675C1.5153 24.9764 1.41493 24.9558 1.32154 24.9162C1.26641 24.6882 1.23847 24.4544 1.23828 24.2198V23.5689C1.27323 23.5473 1.31164 23.5319 1.35182 23.5234C1.50864 24.0869 1.82704 24.5922 2.26772 24.9768Z" fill="#BCBBBB"/>
<path d="M33.37 23.7969H31.163C30.9591 23.7969 30.7635 23.8514 30.6193 23.9484C30.4751 24.0454 30.3941 24.1769 30.3941 24.3141C30.3941 24.4513 30.4751 24.5829 30.6193 24.6799C30.7635 24.7769 30.9591 24.8314 31.163 24.8314H33.37C33.574 24.8314 33.7696 24.7769 33.9138 24.6799C34.058 24.5829 34.139 24.4513 34.139 24.3141C34.139 24.1769 34.058 24.0454 33.9138 23.9484C33.7696 23.8514 33.574 23.7969 33.37 23.7969ZM28.2255 23.7969H26.0186C25.8146 23.7969 25.619 23.8514 25.4748 23.9484C25.3306 24.0454 25.2496 24.1769 25.2496 24.3141C25.2496 24.4513 25.3306 24.5829 25.4748 24.6799C25.619 24.7769 25.8146 24.8314 26.0186 24.8314H28.2255C28.4295 24.8314 28.6251 24.7769 28.7693 24.6799C28.9135 24.5829 28.9945 24.4513 28.9945 24.3141C28.9945 24.1769 28.9135 24.0454 28.7693 23.9484C28.6251 23.8514 28.4295 23.7969 28.2255 23.7969ZM23.0734 23.7969H20.8664C20.6624 23.7969 20.4668 23.8514 20.3226 23.9484C20.1784 24.0454 20.0974 24.1769 20.0974 24.3141C20.0974 24.4513 20.1784 24.5829 20.3226 24.6799C20.4668 24.7769 20.6624 24.8314 20.8664 24.8314H23.0734C23.2773 24.8314 23.4729 24.7769 23.6171 24.6799C23.7613 24.5829 23.8423 24.4513 23.8423 24.3141C23.8423 24.1769 23.7613 24.0454 23.6171 23.9484C23.4729 23.8514 23.2773 23.7969 23.0734 23.7969ZM17.9289 23.7969H15.7219C15.5179 23.7969 15.3224 23.8514 15.1781 23.9484C15.0339 24.0454 14.9529 24.1769 14.9529 24.3141C14.9529 24.4513 15.0339 24.5829 15.1781 24.6799C15.3224 24.7769 15.5179 24.8314 15.7219 24.8314H17.9289C18.1328 24.8314 18.3284 24.7769 18.4726 24.6799C18.6168 24.5829 18.6979 24.4513 18.6979 24.3141C18.6979 24.1769 18.6168 24.0454 18.4726 23.9484C18.3284 23.8514 18.1328 23.7969 17.9289 23.7969ZM12.7767 23.7969H10.5697C10.3658 23.7969 10.1702 23.8514 10.026 23.9484C9.88175 24.0454 9.80074 24.1769 9.80074 24.3141C9.80074 24.4513 9.88175 24.5829 10.026 24.6799C10.1702 24.7769 10.3658 24.8314 10.5697 24.8314H12.7767C12.9806 24.8314 13.1762 24.7769 13.3204 24.6799C13.4647 24.5829 13.5457 24.4513 13.5457 24.3141C13.5457 24.1769 13.4647 24.0454 13.3204 23.9484C13.1762 23.8514 12.9806 23.7969 12.7767 23.7969ZM7.63221 23.7969H5.42523C5.22129 23.7969 5.02569 23.8514 4.88148 23.9484C4.73727 24.0454 4.65625 24.1769 4.65625 24.3141C4.65625 24.4513 4.73727 24.5829 4.88148 24.6799C5.02569 24.7769 5.22129 24.8314 5.42523 24.8314H7.63221C7.83616 24.8314 8.03175 24.7769 8.17596 24.6799C8.32017 24.5829 8.40119 24.4513 8.40119 24.3141C8.40119 24.1769 8.32017 24.0454 8.17596 23.9484C8.03175 23.8514 7.83616 23.7969 7.63221 23.7969Z" fill="url(#paint2_linear_1483_142)"/>
<path d="M37.7581 23.8693V24.3141C37.7579 24.4744 37.726 24.6342 37.6633 24.79C37.5569 24.8171 37.4426 24.8311 37.327 24.8314H36.0339C35.8053 24.8314 35.586 24.7769 35.4244 24.6799C35.2627 24.5829 35.1719 24.4513 35.1719 24.3141C35.1719 24.1769 35.2627 24.0454 35.4244 23.9484C35.586 23.8514 35.8053 23.7969 36.0339 23.7969H37.327C37.479 23.797 37.6281 23.822 37.7581 23.8693Z" fill="url(#paint3_linear_1483_142)"/>
<path d="M33.7847 9.84375H38.3086C38.514 9.84375 38.7111 9.92537 38.8564 10.0707C39.0016 10.2159 39.0833 10.413 39.0833 10.6184V16.6384C39.0833 16.7402 39.0632 16.8409 39.0243 16.9349C38.9854 17.0289 38.9283 17.1143 38.8564 17.1862C38.7844 17.2582 38.699 17.3152 38.605 17.3542C38.5111 17.3931 38.4103 17.4131 38.3086 17.4131H33.7847C32.7809 17.4131 31.8183 17.0144 31.1085 16.3046C30.3987 15.5949 30 14.6322 30 13.6284C30 12.6247 30.3987 11.662 31.1085 10.9523C31.8183 10.2425 32.7809 9.84375 33.7847 9.84375Z" fill="url(#paint4_linear_1483_142)"/>
<path d="M33.4045 15.1371C34.2406 15.1371 34.9184 14.4593 34.9184 13.6233C34.9184 12.7872 34.2406 12.1094 33.4045 12.1094C32.5684 12.1094 31.8906 12.7872 31.8906 13.6233C31.8906 14.4593 32.5684 15.1371 33.4045 15.1371Z" fill="url(#paint5_linear_1483_142)"/>
<path d="M3.62136 2.58755C3.62068 2.72461 3.52964 2.85593 3.36812 2.95285C3.20659 3.04976 2.98772 3.10439 2.75929 3.1048H1.46619C1.31419 3.10471 1.16513 3.07967 1.03516 3.03238V2.58755C1.03538 2.42724 1.06721 2.26751 1.12998 2.11169C1.23634 2.08461 1.35065 2.07054 1.46619 2.07031H2.75929C2.98772 2.07072 3.20659 2.12535 3.36812 2.22226C3.52964 2.31917 3.62068 2.4505 3.62136 2.58755Z" fill="url(#paint6_linear_1483_142)"/>
<path d="M33.37 2.07031H31.163C30.9591 2.07031 30.7635 2.12481 30.6193 2.22181C30.4751 2.31881 30.3941 2.45037 30.3941 2.58755C30.3941 2.72473 30.4751 2.8563 30.6193 2.9533C30.7635 3.0503 30.9591 3.1048 31.163 3.1048H33.37C33.574 3.1048 33.7696 3.0503 33.9138 2.9533C34.058 2.8563 34.139 2.72473 34.139 2.58755C34.139 2.45037 34.058 2.31881 33.9138 2.22181C33.7696 2.12481 33.574 2.07031 33.37 2.07031ZM28.2255 2.07031H26.0186C25.8146 2.07031 25.619 2.12481 25.4748 2.22181C25.3306 2.31881 25.2496 2.45037 25.2496 2.58755C25.2496 2.72473 25.3306 2.8563 25.4748 2.9533C25.619 3.0503 25.8146 3.1048 26.0186 3.1048H28.2255C28.4295 3.1048 28.6251 3.0503 28.7693 2.9533C28.9135 2.8563 28.9945 2.72473 28.9945 2.58755C28.9945 2.45037 28.9135 2.31881 28.7693 2.22181C28.6251 2.12481 28.4295 2.07031 28.2255 2.07031ZM23.0734 2.07031H20.8664C20.6624 2.07031 20.4668 2.12481 20.3226 2.22181C20.1784 2.31881 20.0974 2.45037 20.0974 2.58755C20.0974 2.72473 20.1784 2.8563 20.3226 2.9533C20.4668 3.0503 20.6624 3.1048 20.8664 3.1048H23.0734C23.2773 3.1048 23.4729 3.0503 23.6171 2.9533C23.7613 2.8563 23.8423 2.72473 23.8423 2.58755C23.8423 2.45037 23.7613 2.31881 23.6171 2.22181C23.4729 2.12481 23.2773 2.07031 23.0734 2.07031ZM17.9289 2.07031H15.7219C15.5179 2.07031 15.3224 2.12481 15.1781 2.22181C15.0339 2.31881 14.9529 2.45037 14.9529 2.58755C14.9529 2.72473 15.0339 2.8563 15.1781 2.9533C15.3224 3.0503 15.5179 3.1048 15.7219 3.1048H17.9289C18.1328 3.1048 18.3284 3.0503 18.4726 2.9533C18.6168 2.8563 18.6979 2.72473 18.6979 2.58755C18.6979 2.45037 18.6168 2.31881 18.4726 2.22181C18.3284 2.12481 18.1328 2.07031 17.9289 2.07031ZM12.7767 2.07031H10.5697C10.3658 2.07031 10.1702 2.12481 10.026 2.22181C9.88175 2.31881 9.80074 2.45037 9.80074 2.58755C9.80074 2.72473 9.88175 2.8563 10.026 2.9533C10.1702 3.0503 10.3658 3.1048 10.5697 3.1048H12.7767C12.9806 3.1048 13.1762 3.0503 13.3204 2.9533C13.4647 2.8563 13.5457 2.72473 13.5457 2.58755C13.5457 2.45037 13.4647 2.31881 13.3204 2.22181C13.1762 2.12481 12.9806 2.07031 12.7767 2.07031ZM7.63221 2.07031H5.42523C5.22129 2.07031 5.02569 2.12481 4.88148 2.22181C4.73727 2.31881 4.65625 2.45037 4.65625 2.58755C4.65625 2.72473 4.73727 2.8563 4.88148 2.9533C5.02569 3.0503 5.22129 3.1048 5.42523 3.1048H7.63221C7.83616 3.1048 8.03175 3.0503 8.17596 2.9533C8.32017 2.8563 8.40119 2.72473 8.40119 2.58755C8.40119 2.45037 8.32017 2.31881 8.17596 2.22181C8.03175 2.12481 7.83616 2.07031 7.63221 2.07031Z" fill="url(#paint7_linear_1483_142)"/>
<path d="M37.7581 2.58755V3.03238C37.6281 3.07967 37.479 3.10471 37.327 3.1048H36.0339C35.8053 3.1048 35.586 3.0503 35.4244 2.9533C35.2627 2.8563 35.1719 2.72473 35.1719 2.58755C35.1719 2.45037 35.2627 2.31881 35.4244 2.22181C35.586 2.12481 35.8053 2.07031 36.0339 2.07031H37.327C37.4426 2.07054 37.5569 2.08461 37.6633 2.11169C37.726 2.26751 37.7579 2.42724 37.7581 2.58755Z" fill="url(#paint8_linear_1483_142)"/>
<path d="M8.7931 30.0003C13.6494 30.0003 17.5862 26.0635 17.5862 21.2072C17.5862 16.3509 13.6494 12.4141 8.7931 12.4141C3.93681 12.4141 0 16.3509 0 21.2072C0 26.0635 3.93681 30.0003 8.7931 30.0003Z" fill="url(#paint9_linear_1483_142)"/>
<path d="M9.06731 17.6808C8.55708 17.3625 7.88833 17.2731 7.24587 17.4942M7.24587 17.4942C6.16121 17.8674 5.56211 18.9841 5.9077 19.9884C6.25328 20.9927 7.41266 21.5043 8.49732 21.1311C9.58198 20.7578 10.7414 21.2694 11.0869 22.2737C11.4325 23.278 10.8334 24.3947 9.74877 24.7679M7.24587 17.4942L6.62015 15.6758M9.74877 24.7679C9.10631 24.989 8.43756 24.8996 7.92733 24.5813M9.74877 24.7679L10.3745 26.5863" stroke="url(#paint10_linear_1483_142)" stroke-miterlimit="10" stroke-linecap="round" stroke-linejoin="round"/>
<defs>
<linearGradient id="paint0_linear_1483_142" x1="4.39699" y1="-1.38293" x2="34.4126" y2="28.6327" gradientUnits="userSpaceOnUse">
<stop stop-color="#20AAF7"/>
<stop offset="0.25806" stop-color="#278CEB"/>
<stop offset="0.59352" stop-color="#276DD3"/>
<stop offset="1" stop-color="#2432CE"/>
</linearGradient>
<linearGradient id="paint1_linear_1483_142" x1="1.40556" y1="23.4074" x2="3.02239" y2="25.025" gradientUnits="userSpaceOnUse">
<stop stop-color="#EEF2F3"/>
<stop offset="1" stop-color="#C0CDFB"/>
</linearGradient>
<linearGradient id="paint2_linear_1483_142" x1="11.8678" y1="19.2493" x2="21.25" y2="33.1978" gradientUnits="userSpaceOnUse">
<stop stop-color="#EEF2F3"/>
<stop offset="1" stop-color="#C0CDFB"/>
</linearGradient>
<linearGradient id="paint3_linear_1483_142" x1="35.7357" y1="23.7612" x2="36.6993" y2="25.3681" gradientUnits="userSpaceOnUse">
<stop stop-color="#EEF2F3"/>
<stop offset="1" stop-color="#C0CDFB"/>
</linearGradient>
<linearGradient id="paint4_linear_1483_142" x1="31.9279" y1="10.1329" x2="38.919" y2="17.124" gradientUnits="userSpaceOnUse">
<stop stop-color="#EEF2F3"/>
<stop offset="1" stop-color="#C0CDFB"/>
</linearGradient>
<linearGradient id="paint5_linear_1483_142" x1="32.3342" y1="12.5529" x2="34.4748" y2="14.6936" gradientUnits="userSpaceOnUse">
<stop stop-color="#596C76"/>
<stop offset="1" stop-color="#2C3E50"/>
</linearGradient>
<linearGradient id="paint6_linear_1483_142" x1="1.23602" y1="2.04807" x2="2.19946" y2="3.6538" gradientUnits="userSpaceOnUse">
<stop stop-color="#EEF2F3"/>
<stop offset="1" stop-color="#C0CDFB"/>
</linearGradient>
<linearGradient id="paint7_linear_1483_142" x1="11.8678" y1="-2.47727" x2="21.25" y2="11.4713" gradientUnits="userSpaceOnUse">
<stop stop-color="#EEF2F3"/>
<stop offset="1" stop-color="#C0CDFB"/>
</linearGradient>
<linearGradient id="paint8_linear_1483_142" x1="35.7253" y1="2.04135" x2="36.7006" y2="3.66685" gradientUnits="userSpaceOnUse">
<stop stop-color="#EEF2F3"/>
<stop offset="1" stop-color="#C0CDFB"/>
</linearGradient>
<linearGradient id="paint9_linear_1483_142" x1="2.5757" y1="14.9898" x2="15.0105" y2="27.4246" gradientUnits="userSpaceOnUse">
<stop stop-color="#FAE61E"/>
<stop offset="1" stop-color="#F5AD2D"/>
</linearGradient>
<linearGradient id="paint10_linear_1483_142" x1="4.58821" y1="16.8631" x2="12.5637" y2="26.5652" gradientUnits="userSpaceOnUse">
<stop stop-color="#596C76"/>
<stop offset="1" stop-color="#2C3E50"/>
</linearGradient>
</defs>
</svg>
