<svg width="35" height="26" viewBox="0 0 35 26" fill="none" xmlns="http://www.w3.org/2000/svg">
<path d="M20.1775 12.9348C18.9415 12.9348 17.9356 12.0003 17.9356 10.8519V6.68614C17.9356 5.53778 18.9415 4.60326 20.1775 4.60326H32.8819V1.13179C32.8819 0.748543 32.5471 0.4375 32.1346 0.4375H0.747316C0.334798 0.4375 0 0.748543 0 1.13179V18.4891H32.8819V12.9348H20.1775Z" fill="#6C7AAB"/>
<path d="M32.8819 19.8781V24.7381C32.8819 25.1214 32.5471 25.4324 32.1346 25.4324H0.747316C0.334798 25.4324 0 25.1214 0 24.7381V19.8781H32.8819ZM34.3765 6.68648V10.8522C34.3765 11.2355 34.0417 11.5465 33.6292 11.5465H20.1775C19.765 11.5465 19.4302 11.2355 19.4302 10.8522V6.68648C19.4302 6.30323 19.765 5.99219 20.1775 5.99219H33.6292C34.0417 5.99219 34.3765 6.30323 34.3765 6.68648ZM23.9141 8.76936C23.9141 8.00286 23.2445 7.38077 22.4195 7.38077C21.5944 7.38077 20.9248 8.00286 20.9248 8.76936C20.9248 9.53586 21.5944 10.1579 22.4195 10.1579C23.2445 10.1579 23.9141 9.53586 23.9141 8.76936Z" fill="#6C7AAB"/>
</svg>
