<svg fill="none" height="45" viewBox="0 0 51 45" width="51" xmlns="http://www.w3.org/2000/svg"><path clip-rule="evenodd" d="m28.9655 2.09302c-1.6112-2.790696-5.6392-2.790693-7.2505 0l-21.147084 36.62788c-1.611206 2.7907.402802 6.2791 3.625224 6.2791h42.29426c3.2224 0 5.2364-3.4884 3.6252-6.2791zm-2.295 28.37898.3607-11.74v-3.1902c-.2404-2.5522-1.3225-2.8074-2.6451-2.8074-1.9237 0-2.2043 2.0417-2.1642 2.8074.0802 3.9984.2405 12.5822.2405 14.9302.2186 2.4366 1.9283 2.3412 2.5983 2.3038.0669-.0037.1234-.0069.167-.0069 1.1543-.2041 1.4428-1.6163 1.4428-2.2969zm-2.0483 9.5334c-1.5505 0-2.8075-1.2569-2.8075-2.8075 0-1.5505 1.257-2.8074 2.8075-2.8074s2.8075 1.2569 2.8075 2.8074c0 1.5506-1.257 2.8075-2.8075 2.8075z" fill="#4098d8" fill-rule="evenodd"/></svg>