<svg width="82" height="82" viewBox="0 0 82 82" fill="none" xmlns="http://www.w3.org/2000/svg">
<path d="M44.2539 23.4531L43.5459 48.3311H38.1016L37.3936 23.4531H44.2539ZM37.1982 55.9971C37.1982 55.0368 37.5238 54.2311 38.1748 53.5801C38.8421 52.9128 39.7373 52.5791 40.8604 52.5791C41.9834 52.5791 42.8704 52.9128 43.5215 53.5801C44.1888 54.2311 44.5225 55.0368 44.5225 55.9971C44.5225 56.9411 44.1888 57.7386 43.5215 58.3896C42.8704 59.0407 41.9834 59.3662 40.8604 59.3662C39.7373 59.3662 38.8421 59.0407 38.1748 58.3896C37.5238 57.7386 37.1982 56.9411 37.1982 55.9971Z" fill="#6C7AAB"/>
<circle cx="41" cy="41" r="39" stroke="#6C7AAB" stroke-width="4"/>
</svg>
